<svg width="30" height="24" viewBox="0 0 30 24" fill="none" xmlns="http://www.w3.org/2000/svg">
<path d="M7.19895 1.81008L0.711536 11.3105C0.424484 11.7294 0.434062 12.2912 0.721114 12.71L7.35205 22.2003C7.72522 22.7417 8.32802 23.0686 8.9691 23.0686L14.3465 23.0686C14.9015 23.0686 15.1981 22.3944 14.8537 21.9347L7.84 12.6283C7.54338 12.2401 7.54338 11.6885 7.84 11.3105L14.8537 2.05526C15.1981 1.60577 14.8919 0.931547 14.3465 0.931547L8.83515 0.931547C8.1845 0.931547 7.58168 1.25844 7.19895 1.81008Z" fill="#023936"/>
<path d="M21.6988 1.81008L15.2114 11.3105C14.9244 11.7294 14.9339 12.2912 15.221 12.71L21.8519 22.2003C22.2251 22.7417 22.8279 23.0686 23.469 23.0686L28.8464 23.0686C29.4014 23.0686 29.698 22.3944 29.3536 21.9347L22.3399 12.6283C22.0433 12.2401 22.0433 11.6885 22.3399 11.3105L29.3536 2.05526C29.698 1.60577 29.3918 0.931547 28.8464 0.931547L23.335 0.931547C22.6844 0.931547 22.0816 1.25844 21.6988 1.81008Z" fill="#023936"/>
</svg>
