<svg width="64" height="64" viewBox="0 0 64 64" fill="none" xmlns="http://www.w3.org/2000/svg">
<g id="Bold Duotone / School / Document">
<path id="Vector" fill-rule="evenodd" clip-rule="evenodd" d="M10.667 12.5186V49.8519C10.667 54.2702 14.2487 57.8519 18.667 57.8519H45.3337C49.7519 57.8519 53.3337 54.2702 53.3337 49.8519V23.1852C53.3337 18.7669 49.7519 15.1852 45.3337 15.1852H13.3337C11.8609 15.1852 10.667 13.9913 10.667 12.5186ZM19.3337 31.1852C19.3337 30.0807 20.2291 29.1852 21.3337 29.1852H42.667C43.7716 29.1852 44.667 30.0807 44.667 31.1852C44.667 32.2898 43.7716 33.1852 42.667 33.1852H21.3337C20.2291 33.1852 19.3337 32.2898 19.3337 31.1852ZM19.3337 40.5186C19.3337 39.414 20.2291 38.5186 21.3337 38.5186H36.0003C37.1049 38.5186 38.0003 39.414 38.0003 40.5186C38.0003 41.6231 37.1049 42.5186 36.0003 42.5186H21.3337C20.2291 42.5186 19.3337 41.6231 19.3337 40.5186Z" fill="#6B778C"/>
<path id="Subtract" opacity="0.5" d="M48.0003 10.6673V15.6398C47.1662 15.345 46.2687 15.1846 45.3337 15.1846H13.3337C11.8609 15.1846 10.667 13.9907 10.667 12.5179V12.3284C10.667 10.9071 11.7122 9.70198 13.1192 9.50097L41.9127 5.38761C45.1257 4.92862 48.0003 7.42175 48.0003 10.6673Z" fill="#6B778C"/>
</g>
</svg>
