<svg width="240" height="62" viewBox="0 0 240 62" fill="none" xmlns="http://www.w3.org/2000/svg">
<path d="M76.2235 9.92801H60.4653L66.4287 0H57.9333L52.6029 9.96136C52.6251 11.4494 52.8583 12.7821 53.3025 13.9592C53.7467 15.1364 54.2353 16.1135 54.7684 16.8909H77.123C78.2557 16.8909 79.1664 17.213 79.8549 17.8571C80.5212 18.5012 80.8543 19.434 80.8543 20.6556V23.3541H50.9704H50.2375H44.9736H44.2407H39.0102H38.2439H33.0134H32.2805H27.0499H26.2837H21.0532H20.2869H16.9221V8.52878H9.99245V26.4191C9.99245 28.4625 9.59266 29.9505 8.79309 30.8834C8.01573 31.794 6.79417 32.2493 5.12839 32.2493C4.30661 32.2493 3.50705 32.2382 2.72969 32.216C1.97454 32.1938 1.08613 32.1716 0.0644531 32.1494L0.864026 38.0129C1.73023 38.1906 2.64085 38.3238 3.59589 38.4127C4.55093 38.5015 5.53929 38.5459 6.56096 38.5459C12.2246 38.5459 15.5672 35.803 16.5889 30.317H20.2869H21.0532H26.2837H27.0499H32.2805H33.0134H38.2439H39.0102H44.2407H44.9736H50.2375H50.9704H87.8839V21.9549C87.8839 17.8016 86.9066 14.7587 84.9521 12.8264C82.9976 10.8941 80.0881 9.92801 76.2235 9.92801Z" fill="#023936"/>
<path fill-rule="evenodd" clip-rule="evenodd" d="M119.867 8.52881V24.4869L119.833 24.72V27.0189C119.833 29.2621 119.589 31.1388 119.1 32.6491C118.634 34.1372 117.846 35.3144 116.735 36.1806C115.602 37.069 114.092 37.702 112.204 38.0796C110.338 38.4349 107.984 38.6126 105.141 38.6126C104.253 38.6126 103.242 38.5793 102.11 38.5127C100.977 38.446 99.8108 38.3461 98.6115 38.2128C97.3899 38.0795 96.2461 37.9352 95.18 37.7798L93.9806 31.4498C95.4687 31.6275 96.8791 31.7718 98.2117 31.8829C99.5221 32.0161 100.866 32.1161 102.243 32.1828C103.62 32.2272 105.141 32.2494 106.807 32.2494C108.939 32.2494 110.427 32.1161 111.271 31.8496C112.115 31.5831 112.626 31.0722 112.804 30.3171H106.907C102.221 30.3171 98.6448 29.3843 96.1795 27.5186C93.7141 25.6751 92.4814 22.9988 92.4814 19.4895V19.4229C92.4814 17.2019 93.0034 15.2807 94.0473 13.6593C95.0911 12.0158 96.5681 10.7498 98.4782 9.86143C100.388 8.97301 102.632 8.52881 105.208 8.52881C105.241 8.52881 119.567 8.52881 119.633 8.52881C119.7 8.52881 119.8 8.52881 119.867 8.52881ZM112.904 15.4584H103.742C102.298 15.4584 101.155 15.8138 100.311 16.5245C99.4666 17.213 99.0446 18.1792 99.0446 19.4229V19.4895C99.0446 20.6667 99.4666 21.6106 100.311 22.3214C101.155 23.0099 102.298 23.3542 103.742 23.3542H112.904V15.4584Z" fill="#023936"/>
<path d="M158.279 8.52881V23.3542H154.748H154.015H148.784H148.018H142.788H142.055H138.69V8.52881H131.727V26.4192C131.727 28.4625 131.327 29.9506 130.527 30.8834C129.75 31.794 128.529 32.2494 126.863 32.2494C126.041 32.2494 125.241 32.2382 124.464 32.216C123.709 32.1938 122.821 32.1716 121.799 32.1494L122.598 38.0129C123.465 38.1906 124.375 38.3239 125.33 38.4127C126.308 38.5016 127.307 38.5459 128.329 38.5459C133.97 38.5459 137.302 35.803 138.323 30.3171H142.055H142.788H148.018H148.784H154.015H154.748H165.242V8.52881H158.279Z" fill="#023936"/>
<path d="M162.177 34.3485C161.489 33.7488 160.634 33.449 159.612 33.449C158.612 33.449 157.757 33.7488 157.047 34.3485C156.336 34.9259 155.98 35.7033 155.98 36.6806C155.98 37.7689 156.347 38.5906 157.08 39.1459C157.835 39.6789 158.679 39.9455 159.612 39.9455C160.567 39.9455 161.4 39.6789 162.11 39.1459C162.843 38.5906 163.21 37.7689 163.21 36.6806C163.21 35.7033 162.866 34.9259 162.177 34.3485Z" fill="#023936"/>
<path d="M90.9155 46.7418C91.2043 46.9639 91.5374 47.0749 91.915 47.0749C92.2926 47.0749 92.6257 46.9639 92.9144 46.7418C93.2032 46.5197 93.3475 46.1977 93.3475 45.7757C93.3475 45.3759 93.2143 45.0649 92.9478 44.8428C92.6812 44.5985 92.337 44.4763 91.915 44.4763C91.5152 44.4763 91.182 44.5985 90.9155 44.8428C90.6268 45.0649 90.4824 45.3759 90.4824 45.7757C90.4824 46.1977 90.6268 46.5197 90.9155 46.7418Z" fill="#31D789"/>
<path d="M99.7446 55.5038H91.8488C90.6717 55.5038 89.7611 55.2261 89.117 54.6709C88.4506 54.0934 88.1175 53.2605 88.1175 52.1722V50.0067H85.4189V52.4388C85.4189 54.2822 85.9076 55.7036 86.8848 56.7031C87.8621 57.7025 89.328 58.2023 91.2825 58.2023H102.443V48.3076H99.7446V55.5038Z" fill="#31D789"/>
<path d="M94.981 46.7418C95.2697 46.9639 95.6028 47.0749 95.9804 47.0749C96.358 47.0749 96.6911 46.9639 96.9799 46.7418C97.2686 46.5197 97.413 46.1977 97.413 45.7757C97.413 45.3759 97.2797 45.0649 97.0132 44.8428C96.7245 44.5985 96.3802 44.4763 95.9804 44.4763C95.5806 44.4763 95.2475 44.5985 94.981 44.8428C94.6922 45.0649 94.5479 45.3759 94.5479 45.7757C94.5479 46.1977 94.6922 46.5197 94.981 46.7418Z" fill="#31D789"/>
<path d="M105.408 58.2022H108.107V44.2097H105.408V58.2022Z" fill="#31D789"/>
<path d="M117.468 48.3076H113.503V51.0062H117.868C118.69 51.0062 119.3 51.2283 119.7 51.6725C120.078 52.0945 120.267 52.7163 120.267 53.5381V55.5038H110.438V58.2023H122.832V53.8047C122.832 51.9834 122.399 50.6175 121.533 49.7068C120.666 48.774 119.311 48.3076 117.468 48.3076Z" fill="#31D789"/>
<path d="M125.431 58.2022H128.129V44.2097H125.431V58.2022Z" fill="#31D789"/>
<path d="M134.259 46.2418C134.548 46.4639 134.892 46.575 135.292 46.575C135.647 46.575 135.981 46.4639 136.292 46.2418C136.58 46.0197 136.725 45.6866 136.725 45.2424C136.725 44.8426 136.58 44.5316 136.292 44.3095C136.025 44.0652 135.692 43.9431 135.292 43.9431C134.87 43.9431 134.526 44.0652 134.259 44.3095C133.971 44.5316 133.826 44.8426 133.826 45.2424C133.826 45.6866 133.971 46.0197 134.259 46.2418Z" fill="#31D789"/>
<path fill-rule="evenodd" clip-rule="evenodd" d="M156.647 44.2097H159.379V58.2022H152.149C151.639 58.8019 150.983 59.2794 150.184 59.6348C149.406 59.9679 148.507 60.1345 147.485 60.1345H145.753C144.731 60.1345 143.809 59.9679 142.988 59.6348C142.188 59.2794 141.522 58.8019 140.989 58.2022H136.491C136.091 60.7342 134.603 62.0002 132.027 62.0002C131.605 62.0002 131.183 61.9891 130.761 61.9668C130.339 61.9224 129.939 61.8558 129.562 61.767L129.262 59.5015C129.706 59.5237 130.095 59.5348 130.428 59.5348C130.761 59.557 131.116 59.5682 131.494 59.5682C132.316 59.5682 132.926 59.3349 133.326 58.8685C133.704 58.4021 133.893 57.6692 133.893 56.6697V48.3075H136.591V55.5037H139.889C139.889 55.4148 139.878 55.326 139.856 55.2372C139.856 55.1261 139.856 55.0262 139.856 54.9373C139.856 53.8268 140.1 52.8718 140.589 52.0722C141.078 51.2504 141.766 50.6174 142.655 50.1732C143.543 49.729 144.576 49.5069 145.753 49.5069H147.485C148.64 49.5069 149.651 49.729 150.517 50.1732C151.383 50.6174 152.061 51.2504 152.549 52.0722C153.038 52.8718 153.282 53.8157 153.282 54.904V54.9373C153.282 55.0262 153.271 55.1261 153.249 55.2372C153.249 55.326 153.238 55.4148 153.216 55.5037H156.647V44.2097ZM150.55 54.8374C150.55 54.0378 150.273 53.3937 149.717 52.9051C149.14 52.4387 148.396 52.2054 147.485 52.2054H145.753C144.798 52.2054 144.032 52.4387 143.454 52.9051C142.854 53.3937 142.555 54.0378 142.555 54.8374V54.8706C142.555 55.6258 142.854 56.2366 143.454 56.703C144.032 57.1694 144.798 57.4027 145.753 57.4027H147.485C148.396 57.4027 149.14 57.1694 149.717 56.703C150.273 56.2366 150.55 55.6147 150.55 54.8374Z" fill="#31D789"/>
<path d="M162.544 44.2097V58.2022H165.242V44.2097H162.544Z" fill="#31D789"/>
<path d="M237.47 23.4313L210.984 4.10834C209.818 3.27545 208.253 3.27549 207.087 4.14169L180.634 23.8644C179.135 24.9971 178.235 26.7961 178.235 28.6951V44.6865C178.235 46.319 180.101 47.2185 181.367 46.2191L207.32 25.3302C208.419 24.464 209.918 24.464 211.018 25.3302L236.771 46.1857C238.037 47.2185 239.935 46.319 239.935 44.6865V28.2954C239.935 26.3631 239.003 24.564 237.47 23.4313Z" fill="#00DB81"/>
<path d="M183.066 54.4813L205.754 36.5909C207.02 35.5582 208.919 36.491 208.919 38.1235L208.819 51.7494C208.819 53.3819 210.718 54.3148 212.017 53.282L221.212 45.8193C222.412 44.8865 224.111 44.9198 225.243 45.9192L235.171 54.548C236.737 55.9139 235.771 58.5125 233.706 58.5125H184.465C182.333 58.5125 181.4 55.8139 183.066 54.4813Z" fill="#00DB81"/>
</svg>
