<svg width="28" height="28" viewBox="0 0 28 28" fill="none" xmlns="http://www.w3.org/2000/svg">
<g id="Subtract">
<path d="M8.33317 1.33325C8.33317 0.780967 7.88546 0.333252 7.33317 0.333252C6.78089 0.333252 6.33317 0.780967 6.33317 1.33325V3.43893C4.41406 3.5926 3.1542 3.96975 2.2286 4.89535C1.303 5.82095 0.925855 7.08081 0.77218 8.99992H27.2275C27.0738 7.08081 26.6967 5.82095 25.7711 4.89535C24.8455 3.96975 23.5856 3.5926 21.6665 3.43893V1.33325C21.6665 0.780967 21.2188 0.333252 20.6665 0.333252C20.1142 0.333252 19.6665 0.780967 19.6665 1.33325V3.35045C18.7795 3.33325 17.7852 3.33325 16.6665 3.33325H11.3332C10.2145 3.33325 9.22019 3.33325 8.33317 3.35045V1.33325Z" fill="#6B778C"/>
<path fill-rule="evenodd" clip-rule="evenodd" d="M0.666504 13.9999C0.666504 12.8812 0.666504 11.8869 0.683707 10.9999H27.316C27.3332 11.8869 27.3332 12.8812 27.3332 13.9999V16.6666C27.3332 21.6949 27.3332 24.2091 25.7711 25.7712C24.209 27.3333 21.6948 27.3333 16.6665 27.3333H11.3332C6.30486 27.3333 3.7907 27.3333 2.2286 25.7712C0.666504 24.2091 0.666504 21.6949 0.666504 16.6666V13.9999ZM20.6665 16.6666C21.4029 16.6666 21.9998 16.0696 21.9998 15.3333C21.9998 14.5969 21.4029 13.9999 20.6665 13.9999C19.9301 13.9999 19.3332 14.5969 19.3332 15.3333C19.3332 16.0696 19.9301 16.6666 20.6665 16.6666ZM20.6665 21.9999C21.4029 21.9999 21.9998 21.403 21.9998 20.6666C21.9998 19.9302 21.4029 19.3333 20.6665 19.3333C19.9301 19.3333 19.3332 19.9302 19.3332 20.6666C19.3332 21.403 19.9301 21.9999 20.6665 21.9999ZM15.3332 15.3333C15.3332 16.0696 14.7362 16.6666 13.9998 16.6666C13.2635 16.6666 12.6665 16.0696 12.6665 15.3333C12.6665 14.5969 13.2635 13.9999 13.9998 13.9999C14.7362 13.9999 15.3332 14.5969 15.3332 15.3333ZM15.3332 20.6666C15.3332 21.403 14.7362 21.9999 13.9998 21.9999C13.2635 21.9999 12.6665 21.403 12.6665 20.6666C12.6665 19.9302 13.2635 19.3333 13.9998 19.3333C14.7362 19.3333 15.3332 19.9302 15.3332 20.6666ZM7.33317 16.6666C8.06955 16.6666 8.6665 16.0696 8.6665 15.3333C8.6665 14.5969 8.06955 13.9999 7.33317 13.9999C6.59679 13.9999 5.99984 14.5969 5.99984 15.3333C5.99984 16.0696 6.59679 16.6666 7.33317 16.6666ZM7.33317 21.9999C8.06955 21.9999 8.6665 21.403 8.6665 20.6666C8.6665 19.9302 8.06955 19.3333 7.33317 19.3333C6.59679 19.3333 5.99984 19.9302 5.99984 20.6666C5.99984 21.403 6.59679 21.9999 7.33317 21.9999Z" fill="#6B778C"/>
</g>
</svg>
