<svg width="130" height="34" viewBox="0 0 130 34" fill="none" xmlns="http://www.w3.org/2000/svg">
<path d="M41.6157 5.74397H33.1981L36.3836 0.440674H31.8456L28.9982 5.76178C29.01 6.55668 29.1346 7.26853 29.3719 7.89733C29.6092 8.52613 29.8702 9.04812 30.1549 9.46337H42.0962C42.7013 9.46337 43.1877 9.63542 43.5555 9.97948C43.9114 10.3235 44.0894 10.8218 44.0894 11.4744V12.9159H28.1262H27.7346H24.9228H24.5313H21.7373H21.328H18.534H18.1425H15.3484H14.9391H12.1451H11.7358H9.93838V4.99653H6.23676V14.5531C6.23676 15.6446 6.0232 16.4395 5.59609 16.9378C5.18084 17.4242 4.52832 17.6675 3.6385 17.6675C3.19953 17.6675 2.77242 17.6615 2.35717 17.6496C1.95379 17.6378 1.47922 17.6259 0.933472 17.6141L1.36058 20.7462C1.82329 20.8411 2.30972 20.9123 2.81988 20.9598C3.33004 21.0072 3.85799 21.0309 4.40374 21.0309C7.42911 21.0309 9.21466 19.5657 9.76042 16.6353H11.7358H12.1451H14.9391H15.3484H18.1425H18.534H21.328H21.7373H24.5313H24.9228H27.7346H28.1262H47.8444V12.1684C47.8444 9.94983 47.3224 8.32442 46.2783 7.29223C45.2343 6.26005 43.6801 5.74397 41.6157 5.74397Z" fill="#EAEAEA"/>
<path fill-rule="evenodd" clip-rule="evenodd" d="M64.9289 4.99658V13.521L64.9111 13.6455V14.8735C64.9111 16.0718 64.7806 17.0743 64.5196 17.8811C64.2704 18.676 63.8492 19.3048 63.256 19.7675C62.651 20.242 61.8442 20.5802 60.8357 20.7819C59.8391 20.9717 58.5815 21.0666 57.0629 21.0666C56.5884 21.0666 56.0485 21.0488 55.4435 21.0132C54.8384 20.9776 54.2155 20.9242 53.5749 20.853C52.9223 20.7818 52.3113 20.7048 51.7419 20.6217L51.1012 17.2404C51.8961 17.3353 52.6495 17.4124 53.3613 17.4717C54.0613 17.5429 54.7791 17.5963 55.5147 17.6319C56.2502 17.6557 57.0629 17.6675 57.9527 17.6675C59.0917 17.6675 59.8866 17.5963 60.3374 17.454C60.7883 17.3116 61.0612 17.0387 61.1561 16.6353H58.0061C55.5028 16.6353 53.5927 16.137 52.2757 15.1404C50.9588 14.1557 50.3004 12.7261 50.3004 10.8515V10.8159C50.3004 9.62953 50.5792 8.60327 51.1368 7.73719C51.6944 6.85924 52.4834 6.183 53.5037 5.70843C54.524 5.23387 55.7223 4.99658 57.0985 4.99658C57.1163 4.99658 64.7687 4.99658 64.8043 4.99658C64.8399 4.99658 64.8933 4.99658 64.9289 4.99658ZM61.2095 8.69821H56.3155C55.5443 8.69821 54.9333 8.88803 54.4825 9.26768C54.0316 9.63547 53.8062 10.1516 53.8062 10.8159V10.8515C53.8062 11.4803 54.0316 11.9846 54.4825 12.3642C54.9333 12.732 55.5443 12.9159 56.3155 12.9159H61.2095V8.69821Z" fill="#EAEAEA"/>
<path d="M85.4478 4.99658V12.9159H83.5614H83.1699H80.3759H79.9666H77.1726H76.7811H74.9836V4.99658H71.2642V14.5532C71.2642 15.6447 71.0507 16.4396 70.6236 16.9378C70.2083 17.4243 69.5558 17.6675 68.666 17.6675C68.227 17.6675 67.7999 17.6616 67.3846 17.6497C66.9813 17.6378 66.5067 17.626 65.9609 17.6141L66.3881 20.7463C66.8508 20.8412 67.3372 20.9124 67.8473 20.9598C68.3694 21.0073 68.9033 21.031 69.449 21.031C72.4625 21.031 74.2421 19.5658 74.7879 16.6353H76.7811H77.1726H79.9666H80.3759H83.1699H83.5614H89.1673V4.99658H85.4478Z" fill="#EAEAEA"/>
<path d="M87.53 18.7886C87.1622 18.4683 86.7054 18.3081 86.1597 18.3081C85.6258 18.3081 85.169 18.4683 84.7894 18.7886C84.4097 19.0971 84.2199 19.5123 84.2199 20.0343C84.2199 20.6157 84.4157 21.0546 84.8072 21.3512C85.2106 21.636 85.6614 21.7784 86.1597 21.7784C86.6699 21.7784 87.1148 21.636 87.4944 21.3512C87.8859 21.0546 88.0817 20.6157 88.0817 20.0343C88.0817 19.5123 87.8978 19.0971 87.53 18.7886Z" fill="#EAEAEA"/>
<path d="M49.4639 25.4089C49.6181 25.5275 49.7961 25.5868 49.9978 25.5868C50.1995 25.5868 50.3774 25.5275 50.5317 25.4089C50.6859 25.2902 50.763 25.1182 50.763 24.8928C50.763 24.6793 50.6918 24.5131 50.5495 24.3945C50.4071 24.264 50.2232 24.1987 49.9978 24.1987C49.7842 24.1987 49.6063 24.264 49.4639 24.3945C49.3097 24.5131 49.2325 24.6793 49.2325 24.8928C49.2325 25.1182 49.3097 25.2902 49.4639 25.4089Z" fill="#31D789"/>
<path d="M54.1799 30.0894H49.9621C49.3333 30.0894 48.8469 29.9411 48.5029 29.6445C48.1469 29.336 47.969 28.8911 47.969 28.3097V27.153H46.5275V28.4521C46.5275 29.4368 46.7885 30.1961 47.3105 30.73C47.8325 31.2639 48.6156 31.5308 49.6596 31.5308H55.6214V26.2454H54.1799V30.0894Z" fill="#31D789"/>
<path d="M51.635 25.4089C51.7892 25.5275 51.9672 25.5868 52.1689 25.5868C52.3706 25.5868 52.5485 25.5275 52.7028 25.4089C52.857 25.2902 52.9341 25.1182 52.9341 24.8928C52.9341 24.6793 52.8629 24.5131 52.7205 24.3945C52.5663 24.264 52.3824 24.1987 52.1689 24.1987C51.9553 24.1987 51.7774 24.264 51.635 24.3945C51.4807 24.5131 51.4036 24.6793 51.4036 24.8928C51.4036 25.1182 51.4807 25.2902 51.635 25.4089Z" fill="#31D789"/>
<path d="M57.2051 31.5308H58.6466V24.0564H57.2051V31.5308Z" fill="#31D789"/>
<path d="M63.6475 26.2454H61.5298V27.6869H63.8611C64.3001 27.6869 64.6263 27.8055 64.8399 28.0428C65.0416 28.2682 65.1424 28.6004 65.1424 29.0394V30.0894H59.8925V31.5308H66.5127V29.1817C66.5127 28.2089 66.2814 27.4792 65.8187 26.9928C65.356 26.4945 64.6323 26.2454 63.6475 26.2454Z" fill="#31D789"/>
<path d="M67.9008 31.5308H69.3423V24.0564H67.9008V31.5308Z" fill="#31D789"/>
<path d="M72.6167 25.142C72.771 25.2606 72.9549 25.3199 73.1684 25.3199C73.3582 25.3199 73.5362 25.2606 73.7023 25.142C73.8565 25.0233 73.9337 24.8454 73.9337 24.6081C73.9337 24.3945 73.8565 24.2284 73.7023 24.1098C73.5599 23.9793 73.382 23.9141 73.1684 23.9141C72.943 23.9141 72.7591 23.9793 72.6167 24.1098C72.4625 24.2284 72.3854 24.3945 72.3854 24.6081C72.3854 24.8454 72.4625 25.0233 72.6167 25.142Z" fill="#31D789"/>
<path fill-rule="evenodd" clip-rule="evenodd" d="M84.5759 24.0564H86.0352V31.5308H82.1734C81.9005 31.8512 81.5506 32.1062 81.1234 32.2961C80.7082 32.474 80.2277 32.563 79.6819 32.563H78.7565C78.2108 32.563 77.7184 32.474 77.2794 32.2961C76.8523 32.1062 76.4964 31.8512 76.2117 31.5308H73.8092C73.5956 32.8833 72.8007 33.5596 71.4245 33.5596C71.1991 33.5596 70.9736 33.5537 70.7482 33.5418C70.5228 33.5181 70.3092 33.4825 70.1076 33.4351L69.9474 32.2249C70.1847 32.2368 70.3923 32.2427 70.5703 32.2427C70.7482 32.2545 70.938 32.2605 71.1397 32.2605C71.5787 32.2605 71.905 32.1359 72.1185 31.8868C72.3202 31.6376 72.4211 31.2461 72.4211 30.7122V26.2453H73.8626V30.0894H75.6244C75.6244 30.0419 75.6185 29.9944 75.6066 29.947C75.6066 29.8877 75.6066 29.8343 75.6066 29.7868C75.6066 29.1936 75.7371 28.6834 75.9981 28.2563C76.2591 27.8174 76.6269 27.4792 77.1015 27.242C77.5761 27.0047 78.1277 26.886 78.7565 26.886H79.6819C80.2989 26.886 80.8387 27.0047 81.3014 27.242C81.7641 27.4792 82.126 27.8174 82.387 28.2563C82.648 28.6834 82.7785 29.1877 82.7785 29.769V29.7868C82.7785 29.8343 82.7726 29.8877 82.7607 29.947C82.7607 29.9944 82.7548 30.0419 82.7429 30.0894H84.5759V24.0564ZM81.3192 29.7334C81.3192 29.3063 81.1709 28.9622 80.8743 28.7012C80.5658 28.4521 80.1684 28.3275 79.6819 28.3275H78.7565C78.2464 28.3275 77.8371 28.4521 77.5286 28.7012C77.2083 28.9622 77.0481 29.3063 77.0481 29.7334V29.7512C77.0481 30.1546 77.2083 30.4808 77.5286 30.73C77.8371 30.9791 78.2464 31.1037 78.7565 31.1037H79.6819C80.1684 31.1037 80.5658 30.9791 80.8743 30.73C81.1709 30.4808 81.3192 30.1487 81.3192 29.7334Z" fill="#31D789"/>
<path d="M87.7257 24.0564V31.5308H89.1672V24.0564H87.7257Z" fill="#31D789"/>
<path d="M127.75 12.957L113.602 2.63519C112.979 2.19028 112.142 2.1903 111.519 2.653L97.3891 13.1884C96.5883 13.7935 96.1078 14.7544 96.1078 15.7688V24.311C96.1078 25.1831 97.1044 25.6636 97.7806 25.1297L111.644 13.9714C112.231 13.5087 113.032 13.5087 113.619 13.9714L127.376 25.1119C128.052 25.6636 129.066 25.1831 129.066 24.311V15.5553C129.066 14.5231 128.568 13.5621 127.75 12.957Z" fill="#00DB81"/>
<path d="M98.6883 29.543L110.808 19.9864C111.484 19.4347 112.498 19.9331 112.498 20.8051L112.445 28.0837C112.445 28.9557 113.459 29.4541 114.153 28.9024L119.065 24.916C119.706 24.4177 120.613 24.4355 121.218 24.9694L126.522 29.5786C127.358 30.3083 126.842 31.6964 125.739 31.6964H99.4358C98.2968 31.6964 97.7985 30.2549 98.6883 29.543Z" fill="#00DB81"/>
</svg>
