<svg width="32" height="32" viewBox="0 0 32 32" fill="none" xmlns="http://www.w3.org/2000/svg">
<g id="Linear / Notifications / Bell ">
<path id="Vector" d="M24.9988 12.9462V12.0067C24.9988 6.84839 20.9699 2.66675 16 2.66675C11.0301 2.66675 7.00116 6.84839 7.00116 12.0067V12.9462C7.00116 14.0736 6.67962 15.1758 6.07706 16.1139L4.60048 18.4128C3.25176 20.5125 4.2814 23.3666 6.62715 24.0306C12.7637 25.7677 19.2363 25.7677 25.3729 24.0306C27.7186 23.3666 28.7482 20.5125 27.3995 18.4128L25.9229 16.1139C25.3204 15.1759 24.9988 14.0736 24.9988 12.9462Z" stroke="#292927" stroke-width="2"/>
<path id="Vector_2" d="M10 25.3333C10.8734 27.6636 13.2299 29.3333 16 29.3333C18.7701 29.3333 21.1266 27.6636 22 25.3333" stroke="#292927" stroke-width="2" stroke-linecap="round"/>
</g>
</svg>
