<svg width="32" height="32" viewBox="0 0 32 32" fill="none" xmlns="http://www.w3.org/2000/svg">
<path fill-rule="evenodd" clip-rule="evenodd" d="M9.33342 6.66675H14.6667C17.1809 6.66675 18.438 6.66675 19.219 7.4478C20.0001 8.22885 20.0001 9.48592 20.0001 12.0001V28.3334H22.0001H28.0001H29.3334C29.8857 28.3334 30.3334 28.7811 30.3334 29.3334C30.3334 29.8857 29.8857 30.3334 29.3334 30.3334H2.66675C2.11446 30.3334 1.66675 29.8857 1.66675 29.3334C1.66675 28.7811 2.11446 28.3334 2.66675 28.3334H4.00008V12.0001C4.00008 9.48592 4.00008 8.22885 4.78113 7.4478C5.56218 6.66675 6.81926 6.66675 9.33342 6.66675ZM7.00008 10.6667C7.00008 10.1145 7.4478 9.66675 8.00008 9.66675H16.0001C16.5524 9.66675 17.0001 10.1145 17.0001 10.6667C17.0001 11.219 16.5524 11.6667 16.0001 11.6667H8.00008C7.4478 11.6667 7.00008 11.219 7.00008 10.6667ZM7.00008 14.6667C7.00008 14.1145 7.4478 13.6667 8.00008 13.6667H16.0001C16.5524 13.6667 17.0001 14.1145 17.0001 14.6667C17.0001 15.219 16.5524 15.6667 16.0001 15.6667H8.00008C7.4478 15.6667 7.00008 15.219 7.00008 14.6667ZM7.00008 18.6667C7.00008 18.1145 7.4478 17.6667 8.00008 17.6667H16.0001C16.5524 17.6667 17.0001 18.1145 17.0001 18.6667C17.0001 19.219 16.5524 19.6667 16.0001 19.6667H8.00008C7.4478 19.6667 7.00008 19.219 7.00008 18.6667ZM12.0001 24.3334C12.5524 24.3334 13.0001 24.7811 13.0001 25.3334V28.3334H11.0001V25.3334C11.0001 24.7811 11.4478 24.3334 12.0001 24.3334Z" fill="#6B778C"/>
<path opacity="0.5" d="M20 2.66675H22.6667C25.1809 2.66675 26.4379 2.66675 27.219 3.4478C28 4.22885 28 5.48592 28 8.00008V28.3334H20.0001V12.0001C20.0001 9.48592 20.0001 8.22885 19.219 7.4478C18.4556 6.68434 17.2373 6.66714 14.8347 6.66676V4.66673C14.9471 4.15041 15.1347 3.76086 15.4478 3.4478C16.2288 2.66675 17.4859 2.66675 20 2.66675Z" fill="#6B778C"/>
</svg>
