<svg width="16" height="16" viewBox="0 0 16 16" fill="none" xmlns="http://www.w3.org/2000/svg">
<g id="fi-sr-cross" clip-path="url(#clip0_8294_3659)">
<path id="Vector" d="M8.94252 8.00011L15.8045 1.13811C15.926 1.01237 15.9932 0.843972 15.9916 0.669175C15.9901 0.494377 15.92 0.327168 15.7964 0.203563C15.6728 0.0799575 15.5056 0.00984493 15.3308 0.00832598C15.156 0.00680704 14.9876 0.0740033 14.8619 0.195442L7.99986 7.05744L1.13786 0.195442C1.01212 0.0740033 0.843721 0.00680704 0.668923 0.00832598C0.494126 0.00984493 0.326917 0.0799575 0.203312 0.203563C0.0797065 0.327168 0.00959389 0.494377 0.00807494 0.669175C0.00655599 0.843972 0.0737523 1.01237 0.195191 1.13811L7.05719 8.00011L0.195191 14.8621C0.0702103 14.9871 0 15.1567 0 15.3334C0 15.5102 0.0702103 15.6798 0.195191 15.8048C0.320209 15.9298 0.489748 16 0.666524 16C0.8433 16 1.01284 15.9298 1.13786 15.8048L7.99986 8.94278L14.8619 15.8048C14.9869 15.9298 15.1564 16 15.3332 16C15.51 16 15.6795 15.9298 15.8045 15.8048C15.9295 15.6798 15.9997 15.5102 15.9997 15.3334C15.9997 15.1567 15.9295 14.9871 15.8045 14.8621L8.94252 8.00011Z" fill="#6B778C"/>
</g>
<defs>
<clipPath id="clip0_8294_3659">
<rect width="16" height="16" fill="white"/>
</clipPath>
</defs>
</svg>
