<svg width="24" height="24" viewBox="0 0 24 24" fill="none" xmlns="http://www.w3.org/2000/svg">
<rect width="24" height="24" rx="12" fill="#FAFAFA"/>
<path d="M15.1916 16.0986L7.93202 8.83896C7.68398 8.59093 7.68398 8.17955 7.93202 7.93151C8.18005 7.68347 8.59143 7.68347 8.83947 7.93151L16.0991 15.1911C16.3471 15.4392 16.3471 15.8506 16.0991 16.0986C15.8511 16.3466 15.4397 16.3466 15.1916 16.0986Z" fill="#292927"/>
<path d="M7.93117 16.0981C7.68314 15.8501 7.68314 15.4387 7.93117 15.1907L15.1908 7.93102C15.4388 7.68298 15.8502 7.68298 16.0983 7.93102C16.3463 8.17906 16.3463 8.59044 16.0983 8.83848L8.83863 16.0981C8.59059 16.3461 8.17921 16.3461 7.93117 16.0981Z" fill="#292927"/>
</svg>
