<svg width="50" height="50" viewBox="0 0 50 50" fill="none" xmlns="http://www.w3.org/2000/svg">
<rect width="50" height="50" rx="25" fill="#FAFAFA"/>
<path d="M35.7257 26.3679H14.3368C13.606 26.3679 13 25.7619 13 25.0311C13 24.3004 13.606 23.6943 14.3368 23.6943H35.7257C36.4565 23.6943 37.0625 24.3004 37.0625 25.0311C37.0625 25.7619 36.4565 26.3679 35.7257 26.3679Z" fill="#135C58"/>
<path d="M25.0313 37.0625C24.3005 37.0625 23.6945 36.4565 23.6945 35.7257V14.3368C23.6945 13.606 24.3005 13 25.0313 13C25.7621 13 26.3681 13.606 26.3681 14.3368V35.7257C26.3681 36.4565 25.7621 37.0625 25.0313 37.0625Z" fill="#135C58"/>
</svg>
