<svg width="10" height="10" viewBox="0 0 10 10" fill="none" xmlns="http://www.w3.org/2000/svg">
<path id="Vector" d="M2.5987 0.540222C2.0303 -0.028178 1.10874 -0.0281776 0.540344 0.540222C-0.0280559 1.10862 -0.0280559 2.03018 0.540344 2.59858L2.94176 5L0.540344 7.40142C-0.0280556 7.96982 -0.0280559 8.89138 0.540344 9.45978C1.10874 10.0282 2.0303 10.0282 2.5987 9.45978L5.00012 7.05836L7.40154 9.45978C7.96994 10.0282 8.8915 10.0282 9.4599 9.45978C10.0283 8.89138 10.0283 7.96982 9.4599 7.40142L7.05848 5L9.4599 2.59858C10.0283 2.03018 10.0283 1.10862 9.4599 0.540222C8.8915 -0.0281779 7.96994 -0.0281783 7.40154 0.540222L5.00012 2.94164L2.5987 0.540222Z" fill="#6B778C"/>
</svg>
