<svg width="65" height="36" viewBox="0 0 65 36" fill="none" xmlns="http://www.w3.org/2000/svg">
<g clip-path="url(#clip0_6431_48753)">
<rect width="65" height="36" rx="8" fill="#BD7611" fill-opacity="0.1"/>
<mask id="mask0_6431_48753" style="mask-type:luminance" maskUnits="userSpaceOnUse" x="-104" y="-51" width="180" height="135">
<path d="M-104 -51H76V83.8781H-104V-51Z" fill="white"/>
</mask>
<g mask="url(#mask0_6431_48753)">
<g opacity="0.5">
<g opacity="0.5">
<path fill-rule="evenodd" clip-rule="evenodd" d="M24.6164 -82.0834C30.583 -80.5723 36.5331 -78.6865 42.3164 -76.476C48.0331 -74.2905 53.6331 -71.7678 59.4664 -68.7705C65.7831 -65.5235 71.2664 -62.2514 73.6164 -60.8402C78.933 -57.9803 83.6831 -55.0204 88.1331 -51.8108C94.6664 -47.0901 100.5 -41.8323 105.45 -36.1874C111.916 -28.8191 116.916 -20.8139 120.3 -12.3715V-12.359C125.316 0.154671 125.7 11.1947 125.566 18.4131C125.483 21.9849 125.25 25.8689 124.866 29.3533C124.1 36.4843 122.25 43.5279 119.366 50.3093C117.4 56.154 114.65 61.8614 111.2 67.2815C107.05 73.8256 101.866 79.9825 95.7997 85.6149C73.8664 105.922 41.2664 118.323 6.38306 119.634C3.14973 119.747 0.166382 119.772 -5.30029 119.772C-8.33362 119.772 -11.9503 119.759 -15.8003 119.759H-16.0336C-19.8836 119.747 -23.8503 119.747 -27.0336 119.747C-44.1836 119.747 -60.7169 117.311 -76.1836 112.528C-85.8836 109.518 -95.0336 105.609 -103.384 100.889C-111.95 96.0429 -119.65 90.3856 -126.25 84.0538C-135.017 75.6239 -141.717 66.2074 -146.15 56.0541C-149.384 49.8722 -151.75 43.3531 -153.184 36.6467C-155.05 27.9295 -154.9 20.9983 -154.65 16.5523C-154.75 9.68356 -153.917 2.8772 -152.167 -3.67937C-149.334 -14.2448 -144.15 -24.2358 -136.767 -33.39C-130.184 -41.5576 -121.95 -48.9135 -112.3 -55.2452C-108.534 -57.7055 -104.634 -59.966 -100.4 -62.1515L-100.25 -62.2389L-100.1 -62.3138C-97.0336 -64.0123 -91.867 -66.8722 -86.1503 -69.6947C-81.0503 -72.2049 -76.2336 -74.3405 -71.4336 -76.2013C-55.1169 -82.5331 -37.9669 -86.0923 -20.4503 -86.7792C-18.4003 -86.8541 -16.3336 -86.8916 -14.2669 -86.8916H-14.2503C-1.10028 -86.8916 11.983 -85.2681 24.6164 -82.0834ZM-14.2669 -86.6418C-16.3169 -86.6418 -18.4003 -86.6044 -20.4336 -86.5294C-37.9003 -85.8426 -55.0003 -82.2958 -71.2836 -75.9765C-76.0669 -74.1157 -80.8836 -71.9926 -85.967 -69.4824C-91.6836 -66.6724 -96.8336 -63.8125 -99.9003 -62.114C-100 -62.0641 -100.1 -62.01 -100.2 -61.9517C-104.434 -59.7662 -108.334 -57.4932 -112.067 -55.0454C-121.7 -48.7386 -129.917 -41.4077 -136.484 -33.2651C-143.85 -24.1359 -149.017 -14.1574 -151.834 -3.62943C-153.584 2.92715 -154.417 9.70853 -154.317 16.5523C-154.617 21.6852 -154.6 28.3916 -152.85 36.6092C-151.417 43.3157 -149.067 49.7973 -145.834 55.9667C-141.417 66.1075 -134.75 75.4865 -125.984 83.9039C-119.4 90.2107 -111.734 95.8681 -103.184 100.689C-94.8503 105.397 -85.7336 109.294 -76.0503 112.291C-60.6336 117.074 -44.1503 119.497 -27.0336 119.497C-23.8669 119.497 -19.8836 119.497 -16.0336 119.509C-12.1003 119.509 -8.38362 119.522 -5.30029 119.522C0.149719 119.522 3.13304 119.497 6.36638 119.384C41.1664 118.073 73.6664 105.709 95.5497 85.4526C101.6 79.8451 106.766 73.7007 110.9 67.1815C114.35 61.7615 117.083 56.0791 119.05 50.2469C121.916 43.5029 123.766 36.4843 124.533 29.3408C124.916 25.8439 125.15 21.9724 125.233 18.4131C125.366 11.2072 124.983 0.192146 119.983 -12.2841V-12.2966C116.6 -20.714 111.633 -28.7068 105.183 -36.0501C100.233 -41.6825 94.4164 -46.9153 87.8997 -51.6235C81.8664 -55.9946 76.3997 -59.0418 73.4164 -60.6404C70.4331 -62.4263 65.2831 -65.4735 59.2664 -68.5707C53.4664 -71.5555 47.8664 -74.0657 42.1664 -76.2513C36.3997 -78.4618 30.4664 -80.335 24.5164 -81.8462C11.8997 -85.0308 -1.13362 -86.6418 -14.2503 -86.6418C-14.2614 -86.6418 -14.2669 -86.6418 -14.2669 -86.6418Z" fill="#313131" fill-opacity="0.36"/>
</g>
<g opacity="0.5">
<path fill-rule="evenodd" clip-rule="evenodd" d="M23.0664 -78.0374C28.7998 -76.5763 34.5164 -74.7529 40.0664 -72.6173C45.5498 -70.5192 50.9331 -68.0965 56.5164 -65.2116C60.8664 -62.9761 64.7498 -60.7156 67.5831 -59.0671C68.5664 -58.4926 69.3998 -58.0056 70.1331 -57.5935C70.4331 -57.4186 70.7609 -57.2313 71.1164 -57.0315C74.0164 -55.3954 78.8998 -52.6479 84.0831 -48.9138C90.3331 -44.3929 95.9164 -39.3724 100.65 -33.9898C106.85 -26.9587 111.633 -19.3031 114.883 -11.2478C119.7 0.716339 120.1 11.2568 119.966 18.1506C119.916 21.56 119.683 25.3191 119.333 28.7285C118.633 35.2851 117 41.7667 114.483 47.9986C114.428 48.1318 114.372 48.265 114.316 48.3982C114.233 48.5981 114.15 48.7979 114.083 48.9977C112.8 52.4071 111.2 56.416 109.133 60.275C108.233 61.9985 107.25 63.7219 106.2 65.3954C102.433 71.4774 97.4164 77.422 91.2831 83.0544C70.2164 102.412 38.8831 114.214 5.29976 115.463C2.19977 115.575 -0.666916 115.6 -5.88359 115.6H-5.91692C-8.81691 115.6 -12.2836 115.587 -15.9502 115.587H-16.2169C-19.9169 115.575 -23.7336 115.562 -26.7836 115.562C-37.3169 115.562 -47.6836 114.613 -57.6169 112.728C-63.1836 111.679 -68.6836 110.317 -73.9836 108.681C-83.3002 105.809 -92.0836 102.05 -100.1 97.5039C-108.117 92.933 -115.45 87.4754 -121.9 81.281C-128.567 74.8993 -133.967 67.9431 -137.984 60.5872C-138.817 59.0511 -139.567 57.4526 -140.284 55.904C-140.517 55.4128 -140.75 54.9174 -140.984 54.4178C-144.367 47.3367 -146.5 41.4171 -147.684 35.7971C-149.317 28.0916 -149.184 21.8597 -149.084 16.8518L-149.067 16.5146C-148.917 8.64671 -148.184 2.67706 -146.7 -2.83047C-144 -12.9338 -139.05 -22.5001 -131.984 -31.2547C-125.684 -39.0602 -117.8 -46.0913 -108.55 -52.1359C-104.65 -54.6836 -100.567 -56.9315 -97.0836 -58.7923C-97.028 -58.8256 -96.9669 -58.859 -96.9002 -58.8923L-96.8169 -58.9422C-93.8502 -60.5907 -88.8836 -63.3382 -83.3836 -66.0483C-78.4836 -68.4711 -73.8502 -70.5193 -69.2336 -72.3176C-53.4836 -78.4621 -37.0002 -81.9214 -20.2336 -82.5958C-18.2502 -82.6832 -16.2502 -82.7207 -14.2836 -82.7207H-14.2669H-14.2502V-82.4709C-14.2614 -82.4709 -14.2725 -82.4709 -14.2836 -82.4709C-16.2502 -82.4709 -18.2336 -82.4335 -20.2169 -82.346C-36.9502 -81.6717 -53.4169 -78.2123 -69.0836 -72.1053C-73.6836 -70.3069 -78.3169 -68.2588 -83.2002 -65.836C-88.7002 -63.126 -93.6502 -60.3909 -96.6169 -58.7424C-96.7058 -58.6924 -96.8002 -58.6425 -96.9002 -58.5926C-100.934 -56.432 -104.75 -54.2964 -108.334 -51.9485C-117.55 -45.9165 -125.417 -38.9103 -131.7 -31.1298C-138.75 -22.4002 -143.684 -12.8713 -146.384 -2.78046C-148.05 3.48887 -148.6 9.97051 -148.734 16.5146C-148.834 21.4726 -149.017 27.9043 -147.35 35.7596C-145.984 42.2038 -143.534 48.3483 -140.684 54.3429C-139.7 56.4035 -138.767 58.4766 -137.667 60.4873C-133.617 67.9181 -128.267 74.7744 -121.634 81.1312C-115.367 87.1382 -108.1 92.6208 -99.9002 97.304C-91.9336 101.825 -83.1836 105.584 -73.8502 108.456C-68.5502 110.092 -63.1002 111.441 -57.5336 112.49C-47.6169 114.364 -37.3169 115.313 -26.7836 115.313C-23.7336 115.313 -19.9169 115.325 -16.2169 115.338C-12.4503 115.338 -8.88358 115.35 -5.91692 115.35C-5.90579 115.35 -5.8947 115.35 -5.88359 115.35C-0.683578 115.35 2.18307 115.325 5.28308 115.213C38.7997 113.976 70.0665 102.162 91.0164 82.9045C96.8498 77.5469 101.95 71.6647 105.9 65.283C106.955 63.6095 107.933 61.9068 108.833 60.1751C110.766 56.5658 112.3 52.7818 113.75 48.9228C113.883 48.5856 114.033 48.2609 114.166 47.9237C116.666 41.7293 118.3 35.2601 119 28.7035C119.35 25.3191 119.583 21.56 119.633 18.1506C119.766 11.2568 119.366 0.741333 114.566 -11.1729V-11.1854C111.333 -19.2156 106.55 -26.8462 100.366 -33.8524C95.6497 -39.2226 90.0831 -44.2305 83.8498 -48.7265C78.0665 -52.8977 72.7664 -55.7826 69.9331 -57.3936C66.9831 -59.0671 62.0998 -62.0394 56.3331 -65.0117C50.7498 -67.8717 45.3831 -70.2944 39.9164 -72.405C34.3831 -74.5281 28.6664 -76.339 22.9664 -77.8002C10.8331 -80.8849 -1.70024 -82.4709 -14.2502 -82.4709V-82.7207C-1.68358 -82.7207 10.8664 -81.1471 23.0664 -78.0374Z" fill="#313131" fill-opacity="0.36"/>
</g>
<g opacity="0.5">
<path fill-rule="evenodd" clip-rule="evenodd" d="M21.5141 -73.9779C26.9974 -72.5792 32.4808 -70.8183 37.7974 -68.7702C43.0641 -66.747 48.2308 -64.4116 53.5808 -61.6516C57.7474 -59.5036 61.4808 -57.3305 64.2141 -55.7444C65.1308 -55.1949 65.9308 -54.7329 66.6308 -54.3332C66.9308 -54.1667 67.253 -53.9877 67.5974 -53.7962C70.3974 -52.2101 75.0808 -49.575 80.0141 -46.0157C85.9974 -41.7071 91.3141 -36.924 95.8474 -31.7911C101.764 -25.0972 106.347 -17.8038 109.464 -10.1357C109.464 -10.1357 109.464 -10.1315 109.464 -10.1232C114.081 1.26649 114.481 11.3199 114.381 17.889C114.347 21.1486 114.131 24.7827 113.781 28.1047C113.114 34.449 111.564 40.7058 109.181 46.7129C109.125 46.8461 109.07 46.9752 109.014 47.1001C108.931 47.2874 108.847 47.4872 108.781 47.6746C107.214 51.8708 105.647 55.43 103.981 58.5522C103.181 60.1382 102.264 61.7618 101.197 63.4977C97.6974 69.2425 92.8307 74.9624 86.7474 80.5074C81.7641 85.0408 76.1141 89.1995 69.9141 92.8712C63.7808 96.5179 57.1141 99.69 50.0641 102.325C43.0141 104.96 35.5641 107.058 27.9308 108.557C20.1808 110.081 12.2141 111.005 4.2141 111.292C1.23076 111.404 -1.48592 111.417 -6.48592 111.417H-6.5359C-9.35257 111.417 -12.7026 111.417 -16.2692 111.404H-16.4193H-16.5192C-20.0192 111.404 -23.6359 111.392 -26.5359 111.392C-36.6359 111.392 -46.5692 110.48 -56.1026 108.694C-61.4359 107.695 -66.7192 106.396 -71.7859 104.835C-80.7859 102.075 -89.2026 98.4786 -96.8026 94.1201C-104.219 89.8614 -111.203 84.6162 -117.569 78.5217C-124.086 72.2773 -129.136 65.7957 -132.969 58.7021C-133.769 57.2159 -134.486 55.6798 -135.169 54.1936C-135.391 53.7274 -135.614 53.2612 -135.836 52.7949C-139.036 46.0261 -141.053 40.3436 -142.186 34.9485C-143.719 27.6052 -143.603 21.6356 -143.503 16.8399V16.4777C-143.353 9.08442 -142.636 3.21474 -141.253 -1.99305C-138.669 -11.6343 -133.953 -20.7636 -127.203 -29.1185C-121.186 -36.5618 -113.653 -43.2558 -104.803 -49.038C-101.069 -51.4733 -97.1359 -53.6338 -93.7859 -55.4322C-93.7303 -55.4655 -93.6748 -55.4989 -93.6192 -55.5322L-93.5192 -55.5821C-90.6692 -57.1557 -85.9026 -59.8033 -80.6359 -62.401C-75.9193 -64.7239 -71.4692 -66.6971 -67.0359 -68.4455C-51.8359 -74.3901 -36.0192 -77.7495 -20.0026 -78.4114C-18.1026 -78.4989 -16.1692 -78.5488 -14.2859 -78.5488H-14.2193V-78.2991C-14.2193 -78.2991 -14.2248 -78.2991 -14.2359 -78.2991C-14.247 -78.2991 -14.2581 -78.2991 -14.2692 -78.2991C-14.2692 -78.2991 -14.2748 -78.2991 -14.2859 -78.2991C-16.1692 -78.2991 -18.0859 -78.2491 -19.9859 -78.1617C-36.0026 -77.4998 -51.8359 -74.1153 -66.8859 -68.2206C-71.3026 -66.4847 -75.7526 -64.5115 -80.4526 -62.1886C-85.7192 -59.591 -90.4692 -56.9558 -93.3359 -55.3698C-93.4137 -55.3281 -93.5026 -55.2782 -93.6026 -55.2199C-97.4859 -53.1468 -101.153 -51.0862 -104.586 -48.8507C-113.386 -43.0934 -120.903 -36.4244 -126.903 -28.9937C-133.636 -20.6762 -138.353 -11.5719 -140.919 -1.94311C-142.519 4.03899 -143.053 10.2209 -143.169 16.4902C-143.269 21.2484 -143.436 27.4054 -141.853 34.9111C-140.553 41.093 -138.236 46.9877 -135.519 52.7075C-134.586 54.6932 -133.703 56.6664 -132.653 58.6022C-128.786 65.7457 -123.669 72.2648 -117.303 78.3593C-111.353 84.0791 -104.486 89.3993 -96.6026 93.9202C-89.0192 98.2663 -80.6192 101.863 -71.6692 104.611C-66.5859 106.172 -61.3526 107.458 -56.0192 108.457C-46.5026 110.243 -36.6359 111.142 -26.5359 111.142C-23.6026 111.142 -19.9526 111.155 -16.4193 111.155C-12.8026 111.167 -9.38591 111.167 -6.5359 111.167C-6.51369 111.167 -6.49702 111.167 -6.48592 111.167C-1.51926 111.167 1.23074 111.155 4.1974 111.042C36.4307 109.868 66.4474 98.6035 86.4974 80.345C92.0974 75.2496 97.0974 69.6172 100.897 63.3978C101.881 61.7743 102.814 60.1383 103.664 58.4648C105.514 55.0304 107.047 51.3962 108.464 47.6121C108.581 47.2874 108.731 46.9627 108.847 46.638C111.231 40.6809 112.797 34.4115 113.447 28.0797C113.797 24.7952 114.014 21.161 114.047 17.889C114.147 11.3074 113.747 1.29147 109.147 -10.0608C106.047 -17.7163 101.464 -24.9723 95.5641 -31.6537C91.0474 -36.7741 85.7474 -41.5448 79.7807 -45.8284C74.2641 -49.8123 69.1808 -52.5723 66.4308 -54.1334C63.5974 -55.7444 58.9141 -58.6044 53.3974 -61.4393C48.0474 -64.1993 42.8974 -66.5222 37.6474 -68.5454C32.3474 -70.5935 26.8808 -72.3419 21.4141 -73.7407C9.76408 -76.7505 -2.23592 -78.2991 -14.2193 -78.2991V-78.5488C-2.25259 -78.5488 9.76408 -77.0127 21.5141 -73.9779Z" fill="#313131" fill-opacity="0.36"/>
</g>
<g opacity="0.6">
<path fill-rule="evenodd" clip-rule="evenodd" d="M19.9672 -69.9317C25.2172 -68.583 30.4505 -66.897 35.5505 -64.9238C40.5838 -62.9755 45.5172 -60.7401 50.6505 -58.0925C54.6338 -56.0318 58.2172 -53.9462 60.8338 -52.4225C61.7172 -51.9105 62.4838 -51.461 63.1505 -51.0863C63.4394 -50.9198 63.7505 -50.7407 64.0838 -50.5492C66.9505 -48.9382 71.2672 -46.5029 75.9672 -43.1185C81.6505 -39.0222 86.7171 -34.4763 91.0338 -29.6057C96.7005 -23.224 101.067 -16.3052 104.051 -9.02428C104.051 -9.01596 104.051 -9.01185 104.051 -9.01185C108.484 1.82835 108.884 11.3822 108.801 17.6266C108.767 20.7363 108.584 24.2331 108.25 27.4677C107.617 33.6121 106.15 39.6567 103.867 45.4265C103.812 45.5514 103.756 45.6804 103.7 45.8136C103.634 45.9884 103.55 46.1758 103.484 46.3631C102.134 50.0598 100.567 53.5941 98.8338 56.8286C98.1005 58.3148 97.2338 59.8759 96.2005 61.6118C92.9505 67.0569 88.3838 72.4021 82.2338 77.9471C77.4671 82.2432 72.0672 86.1771 66.1338 89.649C60.2672 93.0958 53.8838 96.1181 47.1338 98.6159C40.3672 101.114 33.2172 103.099 25.9005 104.523C18.4672 105.972 10.8172 106.846 3.13385 107.121C0.283859 107.233 -2.31616 107.246 -7.06616 107.246H-7.14949C-9.81616 107.246 -13.0162 107.233 -16.3995 107.233H-16.5995C-19.9661 107.221 -23.4661 107.221 -26.2828 107.221C-35.9495 107.221 -45.4662 106.359 -54.5662 104.66C-59.6828 103.724 -64.7328 102.487 -69.5828 101.001C-78.2328 98.3661 -86.2828 94.9067 -93.5161 90.723C-100.449 86.7141 -106.899 81.8186 -113.216 75.749C-119.516 69.742 -124.333 63.5476 -127.949 56.8161C-128.716 55.3924 -129.399 53.9063 -130.049 52.4826C-130.249 52.0413 -130.455 51.6042 -130.666 51.1713C-133.699 44.7021 -135.616 39.282 -136.683 34.0992C-138.133 27.118 -138.016 21.4107 -137.933 16.8273V16.4527C-137.799 9.42154 -137.116 3.82655 -135.783 -1.14396C-133.349 -10.3356 -128.833 -19.0403 -122.399 -26.9831C-116.683 -34.0517 -109.499 -40.4334 -101.049 -45.9409C-97.4828 -48.2638 -93.7162 -50.3369 -90.4828 -52.0604C-90.4273 -52.0937 -90.3717 -52.127 -90.3162 -52.1603L-90.2328 -52.2103H-90.2162C-87.4828 -53.7214 -82.9161 -56.2566 -77.8661 -58.7543C-73.3495 -60.9898 -69.0828 -62.8881 -64.8328 -64.5616C-50.2828 -70.2814 -35.1328 -73.541 -19.7662 -74.2403C-17.8661 -74.3278 -16.0161 -74.3652 -14.2828 -74.3652H-14.2328H-14.1995V-74.1155C-14.2217 -74.1155 -14.2439 -74.1155 -14.2662 -74.1155C-14.2773 -74.1155 -14.2828 -74.1155 -14.2828 -74.1155C-16.0995 -74.1155 -17.9328 -74.0655 -19.7495 -73.9906C-35.0495 -73.2912 -50.2328 -70.0192 -64.6828 -64.3368C-68.9328 -62.6633 -73.1828 -60.7775 -77.6828 -58.5545C-82.7161 -56.0568 -87.2828 -53.5341 -90.0328 -52.0104C-90.1106 -51.9605 -90.1939 -51.9105 -90.2828 -51.8606C-94.0328 -49.8624 -97.5662 -47.8892 -100.833 -45.7536C-109.233 -40.271 -116.399 -33.9268 -122.116 -26.8582C-128.516 -18.9404 -133.016 -10.2856 -135.466 -1.09396C-136.983 4.60089 -137.483 10.4831 -137.599 16.4527C-137.683 21.0235 -137.849 26.9057 -136.349 34.0618C-135.133 39.9814 -132.916 45.6138 -130.349 51.0838C-129.466 52.9696 -128.633 54.8679 -127.633 56.7163C-123.949 63.5851 -119.083 69.7544 -112.949 75.5992C-107.316 81.0068 -100.866 86.1646 -93.3162 90.5357C-86.0995 94.7069 -78.0662 98.1413 -69.4662 100.764C-64.5995 102.25 -59.6162 103.474 -54.4828 104.423C-45.3995 106.109 -35.9495 106.971 -26.2828 106.971C-23.4661 106.971 -19.9828 106.971 -16.5995 106.983C-13.1495 106.983 -9.86617 106.996 -7.14949 106.996C-7.11617 106.996 -7.08838 106.996 -7.06616 106.996C-2.34949 106.996 0.283829 106.983 3.11717 106.871C34.0838 105.759 62.8505 95.0441 81.9672 77.7972C87.3505 72.9391 92.2838 67.5689 95.9005 61.5119C96.8338 59.9508 97.7172 58.3647 98.5172 56.7412C100.251 53.4858 101.8 50.0015 103.167 46.2882C103.284 45.976 103.417 45.6638 103.551 45.3515C105.817 39.6192 107.3 33.5622 107.917 27.4552C108.25 24.2581 108.434 20.7613 108.467 17.6266C108.551 11.3573 108.134 1.84085 103.734 -8.9369V-8.9494C100.767 -16.2053 96.4005 -23.1116 90.7672 -29.4683C86.4505 -34.3264 81.4005 -38.8473 75.7338 -42.9311C70.4838 -46.7152 65.6172 -49.3628 62.9505 -50.8865C60.2171 -52.4351 55.7338 -55.1576 50.4672 -57.8801C45.3505 -60.5153 40.4172 -62.7507 35.4005 -64.699C30.3172 -66.6597 25.1005 -68.3457 19.8672 -69.6945C8.71716 -72.6043 -2.78282 -74.1155 -14.1995 -74.1155V-74.3652C-2.83281 -74.3652 8.66719 -72.8791 19.9672 -69.9317Z" fill="#313131" fill-opacity="0.36"/>
</g>
<g opacity="0.6">
<path fill-rule="evenodd" clip-rule="evenodd" d="M18.4154 -65.8857C23.4154 -64.5869 28.432 -62.9634 33.282 -61.0651C38.0987 -59.2043 42.8154 -57.0562 47.7154 -54.5335C51.5321 -52.5603 54.9654 -50.5621 57.4654 -49.1009C58.2987 -48.6139 59.0154 -48.1892 59.6487 -47.827C59.9376 -47.6689 60.2431 -47.4982 60.5654 -47.315C63.3154 -45.7664 67.4487 -43.431 71.8987 -40.2214C77.3154 -36.325 82.132 -32.0163 86.232 -27.408C91.6154 -21.3635 95.7821 -14.7944 98.6321 -7.90062C102.832 2.29016 103.249 11.3944 103.215 17.364C103.199 20.4237 103.015 23.7957 102.715 26.8429C102.115 32.7751 100.715 38.5948 98.5487 44.1398C98.5043 44.2647 98.4543 44.3896 98.3987 44.5144C98.332 44.6893 98.2654 44.8642 98.1987 45.039C96.9821 48.386 95.4987 51.683 93.6654 55.1049C92.9987 56.5161 92.2154 57.9773 91.1987 59.7257C88.1821 64.8836 83.8987 69.8666 77.6987 75.3991C73.1654 79.4329 68.0154 83.1545 62.3654 86.4391C56.7487 89.6861 50.632 92.5335 44.1821 94.8939C37.7154 97.2667 30.882 99.1526 23.8654 100.501C16.7487 101.863 9.41539 102.699 2.06538 102.962C-0.667953 103.049 -3.13463 103.074 -7.65129 103.074H-7.75129C-10.3013 103.074 -13.3346 103.062 -16.5513 103.062H-16.7846C-20.0013 103.049 -23.3346 103.037 -26.0346 103.037C-35.2679 103.037 -44.3513 102.225 -53.0513 100.626C-57.9346 99.7395 -62.7513 98.5656 -67.4013 97.1543C-75.6846 94.6441 -83.368 91.3471 -90.2346 87.3382C-96.5846 83.6291 -102.501 79.0707 -108.885 72.9762C-114.968 67.1565 -119.568 61.2493 -122.935 54.9176C-123.668 53.5563 -124.301 52.1451 -124.935 50.7713C-125.124 50.3633 -125.312 49.9512 -125.501 49.5349C-128.368 43.3905 -130.168 38.2077 -131.168 33.2497C-132.551 26.6431 -132.451 21.1981 -132.368 16.8145L-132.351 16.4149C-132.235 9.74588 -131.601 4.43821 -130.335 -0.295013C-128.018 -9.03711 -123.735 -17.3046 -117.618 -24.8478C-112.168 -31.5543 -105.335 -37.6113 -97.3013 -42.8441C-93.9013 -45.0546 -90.2846 -47.0403 -87.1846 -48.7013C-87.1291 -48.7346 -87.0735 -48.7637 -87.018 -48.7887L-86.9346 -48.8386C-84.318 -50.2998 -79.918 -52.7226 -75.1013 -55.1079C-70.7846 -57.256 -66.7013 -59.0669 -62.6346 -60.6779C-55.718 -63.4129 -48.5679 -65.586 -41.368 -67.1595C-34.1513 -68.7331 -26.818 -69.7073 -19.5513 -70.0569C-17.6846 -70.1444 -15.918 -70.1943 -14.3013 -70.1943H-14.2846H-14.1846V-69.9446C-14.2179 -69.9446 -14.2513 -69.9446 -14.2846 -69.9446C-14.2846 -69.9446 -14.2902 -69.9446 -14.3013 -69.9446C-16.018 -69.9446 -17.7846 -69.8946 -19.518 -69.8072C-34.1013 -69.1078 -48.6513 -65.9232 -62.4846 -60.4656C-66.5513 -58.8546 -70.618 -57.0312 -74.918 -54.9082C-79.7346 -52.5103 -84.1013 -50.1 -86.7513 -48.6388C-86.8291 -48.5972 -86.9068 -48.5514 -86.9846 -48.5014C-90.6013 -46.5657 -93.968 -44.6799 -97.0846 -42.6567C-105.068 -37.4489 -111.885 -31.4294 -117.335 -24.7229C-123.418 -17.2047 -127.685 -8.98718 -130.001 -0.257568C-131.451 5.15004 -131.918 10.745 -132.018 16.4149C-132.101 20.7984 -132.251 26.4183 -130.851 33.2122C-129.701 38.882 -127.618 44.2397 -125.185 49.4475C-124.351 51.2583 -123.568 53.0692 -122.618 54.8301C-119.118 61.4242 -114.468 67.2314 -108.618 72.8264C-103.268 77.9342 -97.2346 82.9297 -90.018 87.1384C-83.168 91.1348 -75.518 94.4318 -67.268 96.9296C-62.6346 98.3408 -57.868 99.4897 -52.968 100.389C-44.2846 101.987 -35.2679 102.787 -26.0346 102.787C-23.3513 102.787 -20.0179 102.799 -16.7846 102.812C-13.4846 102.812 -10.368 102.824 -7.75129 102.824C-7.71796 102.824 -7.68462 102.824 -7.65129 102.824C-3.18463 102.824 -0.667953 102.799 2.04872 102.712C31.7154 101.65 59.2321 91.4845 77.4487 75.2367C82.5987 70.6408 87.4487 65.5329 90.8987 59.6258C91.782 58.1147 92.6154 56.5786 93.3654 55.0175C94.9987 51.9452 96.5487 48.6108 97.8654 44.9766C97.9821 44.6768 98.1154 44.3771 98.232 44.0773C100.382 38.5698 101.782 32.7126 102.382 26.8304C102.682 23.7332 102.865 20.3488 102.882 17.364C102.915 11.3944 102.515 2.39002 98.3154 -7.82574C95.482 -14.707 91.3154 -21.2386 85.9487 -27.2706C81.8654 -31.8665 77.0654 -36.1626 71.6821 -40.0341C66.6821 -43.6309 62.032 -46.166 59.4487 -47.6272C56.832 -49.1259 52.5654 -51.7235 47.532 -54.3212C42.6487 -56.8439 37.9321 -58.9794 33.132 -60.8527C28.2987 -62.7261 23.2987 -64.3496 18.3154 -65.6485C7.64871 -68.4584 -3.33461 -69.9446 -14.1846 -69.9446V-70.1943C-3.40129 -70.1943 7.56538 -68.7456 18.4154 -65.8857Z" fill="#313131" fill-opacity="0.36"/>
</g>
<g opacity="0.6">
<path fill-rule="evenodd" clip-rule="evenodd" d="M16.8664 -61.8387C21.6331 -60.5899 26.3998 -59.0288 31.0331 -57.2179C35.6164 -55.432 40.0998 -53.3839 44.7831 -50.9611C48.4164 -49.0878 51.6998 -47.177 54.0998 -45.7783C54.8831 -45.3162 55.5664 -44.9165 56.1664 -44.5793C56.4442 -44.4211 56.7442 -44.2504 57.0664 -44.0673C59.6831 -42.5811 63.6331 -40.3456 67.8498 -37.3234C72.9664 -33.6392 77.5331 -29.5679 81.4164 -25.2093C86.5498 -19.4895 90.5164 -13.2951 93.2164 -6.78848C93.2164 -6.78015 93.2164 -6.77597 93.2164 -6.77597C97.2164 2.82784 97.6498 11.445 97.6331 17.1024C97.6164 20.0372 97.4664 23.2718 97.1831 26.2192C96.6331 31.8141 95.2664 37.5589 93.2331 42.8541C93.1886 42.9707 93.1442 43.0872 93.0998 43.2038C93.0331 43.3786 92.9664 43.5535 92.8997 43.7159C91.5164 47.6123 89.8331 50.9343 88.5164 53.3821C87.9164 54.7059 87.1831 56.1171 86.1998 57.8281C82.6331 64.0974 77.3664 69.1429 73.1664 72.8396C68.8664 76.6361 63.9664 80.1329 58.5831 83.2176C53.2331 86.2773 47.3998 88.9625 41.2498 91.1855C35.0664 93.4209 28.5331 95.1943 21.8331 96.4682C15.0331 97.767 8.01645 98.5413 0.983116 98.7911C-1.60022 98.8785 -4.05022 98.8909 -8.25022 98.8909H-8.36688C-10.8002 98.8909 -13.6836 98.891 -16.7336 98.8785H-16.9669C-20.0336 98.8785 -23.2002 98.866 -25.7835 98.866C-34.5835 98.866 -43.2336 98.1042 -51.5169 96.593C-56.1835 95.7563 -60.7835 94.6573 -65.2002 93.3085C-73.1335 90.9232 -80.4502 87.776 -86.9335 83.9545C-94.3502 79.5835 -100.234 74.3132 -104.534 70.2169C-110.45 64.572 -114.7 59.1144 -117.917 53.0324C-118.617 51.7086 -119.234 50.3349 -119.834 49.0111C-120 48.6447 -120.172 48.2784 -120.35 47.9121C-123.034 42.0674 -124.734 37.1468 -125.667 32.4136C-126.95 26.1567 -126.867 20.9739 -126.8 16.8152L-126.784 16.3781C-126.684 10.0838 -126.067 5.05078 -124.867 0.542358C-122.684 -7.73766 -118.634 -15.568 -112.817 -22.7116C-107.667 -29.0558 -101.184 -34.7882 -93.5502 -39.7462C-90.3169 -41.8443 -86.8502 -43.7551 -83.8836 -45.3411C-83.828 -45.3661 -83.7724 -45.3952 -83.7169 -45.4285L-83.6502 -45.466L-83.6336 -45.4785C-81.1336 -46.8648 -76.9336 -49.1877 -72.3335 -51.4731C-68.2169 -53.5088 -64.3169 -55.2571 -60.4335 -56.7933C-53.8169 -59.4284 -46.9835 -61.5265 -40.1169 -63.0501C-33.2169 -64.5737 -26.2169 -65.5229 -19.3169 -65.8726C-17.4836 -65.9725 -15.8502 -66.0225 -14.3002 -66.0225H-14.2835H-14.1669V-65.7727C-14.2002 -65.7727 -14.2391 -65.7727 -14.2835 -65.7727C-14.2835 -65.7727 -14.2891 -65.7727 -14.3002 -65.7727C-15.9502 -65.7602 -17.6169 -65.7102 -19.3002 -65.6228C-33.1336 -64.9234 -47.0502 -61.8262 -60.2669 -56.581C-64.1669 -55.0324 -68.0502 -53.2964 -72.1502 -51.2608C-76.7502 -48.9753 -80.9002 -46.6774 -83.4502 -45.2662C-83.528 -45.2246 -83.6058 -45.1829 -83.6835 -45.1413C-87.1502 -43.2805 -90.3669 -41.4821 -93.3336 -39.5588C-100.917 -34.6383 -107.367 -28.931 -112.534 -22.5867C-118.3 -15.4806 -122.35 -7.70014 -124.55 0.592361C-125.9 5.71274 -126.367 11.0079 -126.45 16.3906C-126.517 20.5743 -126.667 25.9195 -125.35 32.3761C-124.267 37.7713 -122.317 42.8666 -120.034 47.8246C-119.234 49.5356 -118.484 51.259 -117.6 52.945C-114.267 59.2518 -109.867 64.7218 -104.267 70.0545C-99.2502 74.8627 -93.6169 79.6958 -86.7336 83.7547C-80.2502 87.5762 -72.9669 90.7108 -65.0669 93.0837C-60.6669 94.42 -56.1169 95.519 -51.4335 96.3558C-43.1669 97.8544 -34.5835 98.6162 -25.7835 98.6162C-23.2169 98.6162 -20.0502 98.6287 -16.9669 98.6287C-13.8336 98.6412 -10.8669 98.6412 -8.36688 98.6412C-8.32243 98.6412 -8.28355 98.6412 -8.25022 98.6412C-4.01689 98.6412 -1.61688 98.6287 0.966454 98.5413C29.3498 97.5547 55.6331 87.9384 72.9164 72.6897C77.8498 68.3436 82.6164 63.4855 85.8997 57.7282C86.7164 56.2795 87.5164 54.8059 88.1998 53.2947C89.7498 50.4098 91.3164 47.2252 92.5831 43.6534C92.6831 43.3662 92.7998 43.0789 92.9164 42.7917C94.9331 37.5215 96.2831 31.8516 96.8498 26.2067C97.1331 23.1969 97.2831 19.9498 97.2998 17.1024C97.3164 11.445 96.8997 2.9277 92.8997 -6.70109V-6.71353C90.1998 -13.2077 86.2497 -19.3771 81.1497 -25.0719C77.2664 -29.418 72.7164 -33.4768 67.6164 -37.136C62.8831 -40.533 58.4498 -42.9558 55.9664 -44.3795C53.4498 -45.8032 49.3831 -48.2885 44.5831 -50.7612C39.9498 -53.1591 35.4498 -55.2072 30.8831 -56.9931C26.2664 -58.804 21.5164 -60.3525 16.7664 -61.6014C6.58311 -64.3239 -3.88355 -65.7727 -14.1669 -65.7727V-66.0225C-3.96689 -66.0225 6.46643 -64.6112 16.8664 -61.8387Z" fill="#313131" fill-opacity="0.36"/>
</g>
<g opacity="0.6">
<path fill-rule="evenodd" clip-rule="evenodd" d="M15.3162 -57.7925C19.9162 -56.5561 24.4496 -55.07 28.7829 -53.3715C33.1329 -51.6605 37.3996 -49.7123 41.8496 -47.4019C45.3162 -45.6035 48.4329 -43.7927 50.7162 -42.4564C51.4662 -42.0193 52.0996 -41.6446 52.6662 -41.3199C52.944 -41.17 53.2385 -41.0035 53.5496 -40.8203C56.0496 -39.4091 59.7996 -37.2736 63.7996 -34.4262C68.6329 -30.9543 72.9496 -27.1202 76.6162 -23.0114C81.4662 -17.6288 85.2329 -11.7841 87.7996 -5.66462C91.5496 3.2648 92.0329 11.0452 92.0496 16.84C92.0496 19.6499 91.8996 22.7597 91.6329 25.5946C91.1162 30.9647 89.8329 36.4972 87.9329 41.5676C87.8885 41.6842 87.844 41.7966 87.7996 41.9049C87.7329 42.0672 87.6662 42.2421 87.5996 42.4044C86.3662 45.9387 84.7662 49.0359 83.3662 51.6585C82.6662 53.2571 81.8329 54.7932 81.1996 55.9421C77.9829 61.7619 73.0495 66.4576 68.6496 70.2917C64.5662 73.8385 59.9162 77.1105 54.7996 79.9954C49.7162 82.8678 44.1662 85.3905 38.3162 87.4761C32.4162 89.5742 26.1996 91.2353 19.7996 92.4342C13.2996 93.6581 6.61623 94.3949 -0.100433 94.6197C-2.55043 94.7071 -4.8671 94.7196 -8.83377 94.7196H-8.98377C-11.3004 94.7196 -14.0504 94.7071 -16.9504 94.7071H-17.1504H-17.1838C-20.1004 94.6946 -23.1004 94.6946 -25.5171 94.6946C-33.9004 94.6946 -42.1338 93.9703 -49.9838 92.5591C-54.3671 91.7848 -58.7338 90.7482 -63.0004 89.4743C-70.6338 87.1889 -77.5838 84.1916 -83.6504 80.5699C-90.1671 76.6859 -95.4504 71.9652 -100.2 67.4443C-105.867 62.0491 -109.9 56.8663 -112.9 51.1465C-113.567 49.8727 -114.15 48.5613 -114.734 47.2875C-114.878 46.9461 -115.028 46.6089 -115.184 46.2759C-117.7 40.7559 -119.284 36.0851 -120.167 31.5642C-121.367 25.6696 -121.284 20.749 -121.217 16.8026V16.3529C-121.117 10.4083 -120.55 5.66264 -119.417 1.3915C-117.35 -6.43892 -113.517 -13.8322 -108.034 -20.5761C-103.167 -26.5582 -97.0338 -31.9534 -89.8004 -36.6491C-86.7504 -38.6223 -83.4171 -40.4582 -80.5838 -41.9818C-80.5282 -42.0068 -80.4782 -42.0317 -80.4338 -42.0567L-80.3504 -42.0942L-80.3338 -42.1067C-77.9504 -43.4305 -73.9504 -45.6535 -69.5671 -47.8265C-65.6504 -49.7748 -61.9338 -51.4357 -58.2338 -52.9219C-51.9171 -55.4446 -45.4004 -57.4678 -38.8504 -58.929C-32.2838 -60.4151 -25.6338 -61.3393 -19.0838 -61.7015C-17.3171 -61.7889 -15.7504 -61.8389 -14.3004 -61.8389H-14.2838H-14.1504V-61.5891C-14.1949 -61.5891 -14.2393 -61.5891 -14.2838 -61.5891C-14.2949 -61.5891 -14.3004 -61.5891 -14.3004 -61.5891C-15.8671 -61.5891 -17.4671 -61.5391 -19.0671 -61.4517C-32.1838 -60.7274 -45.4671 -57.7301 -58.0671 -52.6971C-61.7838 -51.2234 -65.4838 -49.5499 -69.3838 -47.6142C-73.7671 -45.4411 -77.7171 -43.2432 -80.1671 -41.8944C-80.2338 -41.8611 -80.306 -41.8194 -80.3838 -41.7695C-83.7004 -39.9961 -86.7838 -38.2727 -89.5838 -36.4618C-96.7504 -31.816 -102.867 -26.4458 -107.75 -20.4512C-113.2 -13.7448 -117.017 -6.40147 -119.084 1.44144C-120.367 6.26208 -120.8 11.27 -120.884 16.3529C-120.95 20.3618 -121.084 25.4197 -119.834 31.5267C-118.834 36.6596 -117.017 41.4927 -114.867 46.201C-114.134 47.8245 -113.417 49.4605 -112.584 51.0591C-109.417 57.0911 -105.267 62.2115 -99.9338 67.2944C-95.2171 71.7903 -89.9838 76.4736 -83.4504 80.3701C-77.3338 84.0168 -70.4171 86.9766 -62.8838 89.2371C-58.6838 90.4984 -54.3671 91.535 -49.9171 92.3218C-42.0671 93.733 -33.9004 94.4449 -25.5171 94.4449C-23.0838 94.4449 -20.0838 94.4448 -17.1504 94.4573C-14.1838 94.4573 -11.3671 94.4698 -8.98377 94.4698C-8.92822 94.4698 -8.87821 94.4698 -8.83377 94.4698C-4.85043 94.4698 -2.56709 94.4574 -0.117096 94.3699C26.9829 93.4458 52.0329 84.379 68.3996 70.1293C73.0995 66.033 77.7829 61.4497 80.8996 55.8423C81.6662 54.4435 82.3996 53.0323 83.0496 51.5836C84.4996 48.8736 86.0662 45.8388 87.2829 42.342C87.3829 42.0547 87.4996 41.7799 87.5996 41.5052C89.4996 36.4598 90.7829 31.0022 91.2996 25.5696C91.5829 22.6723 91.7162 19.55 91.7162 16.84C91.6996 11.4948 91.2829 3.47713 87.4829 -5.58968C84.9162 -11.6967 81.1662 -17.5164 76.3496 -22.8741C72.6829 -26.9579 68.3829 -30.7919 63.5662 -34.2388C59.0829 -37.4484 54.8829 -39.7463 52.4662 -41.1201C50.0829 -42.4938 46.1996 -44.8417 41.6496 -47.2021C37.2496 -49.4875 32.9662 -51.4358 28.6162 -53.1467C24.2329 -54.8702 19.7162 -56.3438 15.2162 -57.5552C5.51624 -60.1653 -4.43377 -61.5891 -14.1504 -61.5891V-61.8389C-4.6171 -61.8389 5.29957 -60.4775 15.3162 -57.7925Z" fill="#313131" fill-opacity="0.36"/>
</g>
<g opacity="0.7">
<path fill-rule="evenodd" clip-rule="evenodd" d="M13.7863 -53.7465C18.1362 -52.5601 22.4362 -51.1364 26.5196 -49.5129C30.6529 -47.8893 34.7029 -46.0285 38.9029 -43.843C42.2029 -42.1321 45.1863 -40.3961 47.3529 -39.1347C48.0363 -38.7226 48.6529 -38.3729 49.1863 -38.0732C49.4529 -37.9233 49.7363 -37.761 50.0363 -37.5861C52.4029 -36.2374 55.9863 -34.2017 59.7363 -31.5291C64.2863 -28.2696 68.3529 -24.6604 71.8196 -20.8138C76.3862 -15.7559 79.9529 -10.2858 82.3863 -4.55352C82.3863 -4.55352 82.3863 -4.54934 82.3863 -4.54102C85.9363 3.81393 86.4196 11.1323 86.4529 16.5774C86.4696 19.25 86.353 22.2347 86.103 24.9573C85.6196 30.1276 84.4196 35.4229 82.6196 40.2934C82.5751 40.3934 82.5307 40.4974 82.4863 40.6057C82.4362 40.768 82.3696 40.9304 82.3196 41.0802C81.1696 44.4022 79.6696 47.2122 78.353 49.6849L78.2029 49.9472C77.5863 51.4333 76.8529 52.8446 76.2029 54.0435C73.3029 59.4636 68.6863 63.8346 64.1196 67.7436C60.2863 71.0406 55.8696 74.0879 51.0196 76.7854C46.2029 79.458 40.9362 81.8059 35.3696 83.7542C29.7696 85.7274 23.8529 87.2884 17.7863 88.4124C11.5863 89.5489 5.2196 90.2358 -1.1804 90.4481C-3.51374 90.523 -5.69707 90.548 -9.41374 90.548H-9.59708C-11.7804 90.548 -14.3471 90.5355 -17.0804 90.5355H-17.3471C-19.9637 90.523 -22.9304 90.523 -25.2637 90.523C-33.2137 90.523 -41.0137 89.8486 -48.4638 88.5248C-52.5971 87.8129 -56.7471 86.8389 -60.7971 85.6275C-68.0804 83.4669 -74.6637 80.6195 -80.3637 77.1726C-86.7971 73.3011 -91.8137 68.5179 -95.8471 64.6839C-101.347 59.4386 -105.064 54.6804 -107.864 49.2603C-108.514 48.0364 -109.064 46.7751 -109.614 45.5512C-109.747 45.2515 -109.88 44.9517 -110.014 44.652C-112.364 39.4442 -113.847 35.0107 -114.664 30.7146C-115.78 25.1821 -115.697 20.5363 -115.647 16.8022V16.3151C-115.564 10.7452 -115.03 6.26168 -113.964 2.22783C-112.014 -5.14051 -108.414 -12.0967 -103.23 -18.441C-98.6638 -24.0484 -92.8804 -29.1313 -86.0471 -33.5523C-83.1638 -35.4131 -79.9971 -37.1615 -77.2637 -38.6227C-77.2193 -38.6477 -77.1749 -38.6727 -77.1304 -38.6976L-77.0638 -38.7351L-77.0471 -38.7476C-74.7638 -40.0089 -70.9638 -42.107 -66.8138 -44.1802C-63.0804 -46.0285 -59.5471 -47.6271 -56.0304 -49.0383C-50.0137 -51.4486 -43.8137 -53.3969 -37.5971 -54.8206C-31.3471 -56.2568 -25.0304 -57.156 -18.8637 -57.5181C-17.1471 -57.6181 -15.6637 -57.668 -14.3138 -57.668H-14.2971H-14.1304V-57.4182C-14.186 -57.4182 -14.2415 -57.4182 -14.2971 -57.4182C-14.2971 -57.4182 -14.3026 -57.4182 -14.3138 -57.4182C-15.7804 -57.4182 -17.3137 -57.3558 -18.8304 -57.2684C-31.2304 -56.544 -43.8637 -53.6466 -55.8637 -48.8135C-59.3971 -47.4023 -62.9304 -45.8162 -66.6304 -43.9679C-70.7804 -41.9073 -74.5304 -39.8216 -76.8637 -38.5353C-76.9304 -38.4937 -77.0026 -38.452 -77.0804 -38.4104C-80.2471 -36.712 -83.1804 -35.0759 -85.8304 -33.365C-92.5971 -28.9939 -98.3471 -23.9485 -102.947 -18.3161C-108.08 -12.0218 -111.68 -5.11548 -113.63 2.27783C-114.83 6.82372 -115.23 11.532 -115.314 16.3151C-115.364 20.1367 -115.497 24.9323 -114.33 30.6771C-113.397 35.5477 -111.714 40.1186 -109.697 44.5646C-109.014 46.1132 -108.347 47.6493 -107.564 49.1729C-104.58 54.9177 -100.664 59.7009 -95.5804 64.5215C-91.1804 68.7178 -86.3638 73.2386 -80.1471 76.9852C-74.4138 80.4446 -67.8471 83.2671 -60.6804 85.4026C-56.7137 86.5766 -52.6138 87.5507 -48.3804 88.2875C-40.9471 89.5988 -33.2137 90.2732 -25.2637 90.2732C-22.9637 90.2732 -20.0971 90.2732 -17.3304 90.2857C-14.5304 90.2857 -11.8471 90.2982 -9.59708 90.2982C-9.53041 90.2982 -9.4693 90.2982 -9.41374 90.2982C-5.68041 90.2982 -3.51373 90.2733 -1.19707 90.1983C24.6363 89.3366 48.4362 80.8318 63.8696 67.5813C68.3529 63.7348 72.9696 59.4137 75.8863 53.9561C76.6029 52.6198 77.3029 51.2585 77.9029 49.8598C79.2529 47.3246 80.8196 44.4397 81.9863 41.0178C82.0862 40.7555 82.2029 40.4933 82.3029 40.2185C84.0696 35.4104 85.2863 30.1526 85.7696 24.9448C86.0196 22.1474 86.1363 19.1376 86.1196 16.5774C86.1029 11.5445 85.6696 4.02625 82.0696 -4.46607V-4.47857C79.6362 -10.1984 76.0863 -15.6435 71.5363 -20.6764C68.0863 -24.5105 64.0363 -28.0947 59.5029 -31.3418C55.2863 -34.3641 51.3029 -36.5371 48.9863 -37.8734C46.7029 -39.1722 43.0196 -41.4077 38.7196 -43.6432C34.5363 -45.8037 30.4863 -47.6645 26.3696 -49.3005C22.2196 -50.9366 17.9363 -52.3478 13.6696 -53.5093C4.45293 -56.0195 -4.98042 -57.4182 -14.1304 -57.4182V-57.668C-5.19708 -57.668 4.20292 -56.3442 13.7863 -53.7465Z" fill="#313131" fill-opacity="0.36"/>
</g>
<g opacity="0.8">
<path fill-rule="evenodd" clip-rule="evenodd" d="M2.93495 -25.4096C5.68495 -24.5479 8.30163 -23.5863 10.735 -22.5622C13.2516 -21.4882 15.7516 -20.2892 18.3516 -18.9155C20.435 -17.8165 22.2516 -16.7549 23.735 -15.8932C24.0905 -15.6767 24.4239 -15.4769 24.735 -15.2938C24.9572 -15.1689 25.1961 -15.0356 25.4516 -14.8941C27.1349 -13.92 29.2516 -12.6961 31.335 -11.2349C33.8516 -9.4865 36.1516 -7.53829 38.1683 -5.45267C40.885 -2.64271 43.0016 0.27968 44.4516 3.26448C44.4627 3.26448 44.4683 3.26448 44.4683 3.26448C46.635 7.69797 47.1516 11.7193 47.3516 14.7291C47.4683 16.465 47.4683 18.6006 47.3516 20.5613C47.1349 24.0457 46.435 27.9546 45.435 31.2891C45.4127 31.3724 45.3849 31.4556 45.3516 31.5389C45.3183 31.6388 45.285 31.7429 45.2516 31.8511C44.6516 33.9867 43.6016 35.5853 42.835 36.7467C42.5516 37.1838 42.3016 37.5584 42.1183 37.8831C41.8849 38.9322 41.5349 39.8939 41.2016 40.793C39.6849 44.8144 36.2016 47.2497 33.4016 49.1979C33.0516 49.4352 32.7349 49.66 32.435 49.8848C27.9516 53.0694 21.8849 55.8045 14.8516 57.7902C7.55162 59.8633 -0.615051 61.0622 -8.73171 61.262C-10.165 61.2995 -11.515 61.312 -13.5317 61.312H-13.8984C-15.265 61.312 -16.8317 61.312 -18.465 61.2995H-18.6484C-20.3317 61.2995 -22.065 61.2995 -23.515 61.2995C-28.315 61.2995 -33.0984 60.9623 -37.765 60.3004C-40.3817 59.9257 -42.965 59.4012 -45.4317 58.7393C-50.1484 57.4529 -54.165 55.6796 -57.3484 53.4566C-59.8984 51.6957 -61.615 49.66 -63.1317 47.8741C-63.9317 46.925 -64.6817 46.0258 -65.465 45.3015C-68.615 42.3666 -70.9817 39.9813 -72.765 36.0473C-73.1817 35.1232 -73.5317 34.1865 -73.8817 33.2748L-73.8984 33.2374C-75.0317 30.2526 -75.765 27.555 -76.1484 24.77C-76.665 21.7977 -76.6484 19.1626 -76.6484 16.8397C-76.6373 16.5816 -76.6317 16.3277 -76.6317 16.0779C-76.6317 13.0681 -76.3484 10.4705 -75.7484 8.14758C-74.6984 3.95137 -72.665 0.0298805 -69.6984 -3.50442C-67.115 -6.57664 -63.7817 -9.38659 -59.815 -11.8594C-58.1484 -12.8959 -56.115 -14.0199 -54.1484 -15.0814C-54.1262 -15.0981 -54.0984 -15.1148 -54.065 -15.1314L-54.0317 -15.1564L-53.9817 -15.1814C-52.415 -16.0431 -50.0484 -17.3544 -47.465 -18.6657C-45.0984 -19.8646 -42.865 -20.9137 -40.6317 -21.8753C-32.7317 -25.2847 -24.4317 -27.5451 -17.2817 -28.257C-16.4484 -28.3444 -15.365 -28.4318 -14.3484 -28.4443C-14.2706 -28.4443 -14.1928 -28.4443 -14.115 -28.4443C-9.21503 -28.4443 -3.46505 -27.4203 2.93495 -25.4096ZM-14.3484 -28.1946C-15.265 -28.1821 -16.2317 -28.1071 -17.2317 -28.0072C-24.565 -27.2829 -32.7317 -24.985 -40.465 -21.663C-42.7317 -20.6889 -44.9817 -19.6273 -47.2817 -18.4534C-49.8817 -17.1421 -52.2484 -15.8307 -53.8317 -14.9565C-53.8762 -14.9316 -53.9206 -14.9066 -53.965 -14.8816C-56.115 -13.7077 -58.0317 -12.6461 -59.5984 -11.672C-63.4817 -9.24922 -66.7817 -6.48921 -69.415 -3.36703C-72.3317 0.0923367 -74.365 3.93887 -75.4317 8.19752C-76.065 10.7202 -76.2984 13.3554 -76.2984 16.0779C-76.315 18.5881 -76.3817 21.4605 -75.8317 24.7451C-75.3984 27.7673 -74.5984 30.5023 -73.5817 33.1624C-73.215 34.0991 -72.865 35.0357 -72.4484 35.9599C-70.715 39.769 -68.465 42.1043 -65.1984 45.1516C-62.965 47.2372 -60.9984 50.5842 -57.1317 53.2818C-53.9484 55.4923 -49.9817 57.2282 -45.315 58.502C-42.915 59.1514 -40.3817 59.6759 -37.715 60.0506C-33.1817 60.7 -28.415 61.0497 -23.515 61.0497C-22.065 61.0497 -20.3317 61.0497 -18.6484 61.0497C-16.9484 61.0622 -15.315 61.0622 -13.8984 61.0622C-13.7762 61.0622 -13.6539 61.0622 -13.5317 61.0622C-11.4984 61.0622 -10.1484 61.0497 -8.74837 61.0123C8.10162 60.6001 23.3683 55.9918 32.2016 49.6975C35.1183 47.6119 39.2016 45.1516 40.885 40.7306C41.235 39.794 41.5683 38.8323 41.8016 37.8207C42.485 36.5593 44.1016 34.711 44.935 31.8012C44.9849 31.6138 45.0516 31.4265 45.1016 31.2392C46.0683 28.0421 46.785 24.1831 47.0183 20.5613C47.1349 18.4383 47.1183 16.3152 47.0183 14.7416C46.835 11.8692 46.3683 7.86029 44.1516 3.35187C42.6516 0.31711 40.535 -2.56776 37.9016 -5.30278C35.9183 -7.33844 33.6516 -9.27421 31.1183 -11.0601C28.7183 -12.7336 26.2683 -14.0948 24.535 -15.1064C23.0183 -15.9806 20.7683 -17.3419 18.1683 -18.7156C15.6183 -20.0644 13.1183 -21.2633 10.5683 -22.3374C8.0183 -23.4114 5.40163 -24.3606 2.81829 -25.1723C-3.03171 -27.0207 -8.86504 -28.1946 -14.115 -28.1946C-14.1928 -28.1946 -14.2706 -28.1946 -14.3484 -28.1946Z" fill="#313131" fill-opacity="0.36"/>
</g>
<g opacity="0.9">
<path fill-rule="evenodd" clip-rule="evenodd" d="M1.39716 -21.3511C3.89716 -20.5393 6.26382 -19.6526 8.46383 -18.7035C10.7638 -17.7169 13.0471 -16.6179 15.4138 -15.3565C17.3138 -14.3449 18.9971 -13.3583 20.3471 -12.5716C20.6694 -12.3801 20.9694 -12.2052 21.2472 -12.047C21.4583 -11.9221 21.686 -11.7889 21.9305 -11.6473C23.4805 -10.7482 25.4138 -9.63666 27.2805 -8.33783C29.4971 -6.80172 31.5471 -5.09081 33.3472 -3.25496C35.7971 -0.782202 37.7138 1.79049 39.0305 4.37565C41.0305 8.27213 41.5471 11.8065 41.7638 14.4541C41.8971 16.0401 41.9138 18.0383 41.7972 19.9366C41.6138 23.1961 40.9971 26.8678 40.1138 30.0025C40.0916 30.0858 40.0694 30.1648 40.0472 30.2398C40.0138 30.3397 39.9861 30.4354 39.9638 30.527C39.3972 32.6251 38.3638 34.0863 37.6138 35.1603C37.3471 35.5475 37.1138 35.8847 36.9638 36.1594C36.7805 37.1585 36.4638 38.0952 36.1971 38.9069C34.8638 42.7534 31.5472 44.9265 28.8972 46.6624C28.5472 46.8997 28.2138 47.112 27.8972 47.3243C23.8972 50.0344 18.3805 52.3698 11.9305 54.0932C5.18048 55.8791 -2.33619 56.9282 -9.81952 57.103C-11.1029 57.128 -12.3695 57.1404 -14.1195 57.1404H-14.5195C-15.7528 57.1404 -17.1528 57.1279 -18.6195 57.1279H-18.8362C-20.3695 57.1279 -21.9362 57.1279 -23.2695 57.1279C-27.6195 57.1155 -31.9862 56.8282 -36.2529 56.2662C-38.6362 55.954 -40.9862 55.4919 -43.2362 54.8925C-47.5695 53.7435 -51.2195 52.12 -54.0695 50.0718C-56.3362 48.4483 -57.7862 46.5875 -59.0529 44.9514C-59.7695 44.0398 -60.4362 43.1781 -61.1195 42.5412C-64.2195 39.6563 -66.2195 37.658 -67.7529 34.1487C-68.1029 33.3245 -68.4029 32.5127 -68.7362 31.601C-69.7195 28.9409 -70.3195 26.4932 -70.6529 23.9205C-71.0695 21.3228 -71.0695 18.9625 -71.0695 16.8769C-71.0695 16.5938 -71.0695 16.319 -71.0695 16.0526C-71.0862 13.38 -70.8362 11.0696 -70.3029 8.99647C-69.3695 5.24986 -67.5695 1.76551 -64.9195 -1.36916C-62.6029 -4.06672 -59.6362 -6.56449 -56.0695 -8.7625C-54.5695 -9.68666 -52.6862 -10.7357 -50.8529 -11.7223C-50.8306 -11.7306 -50.8029 -11.7431 -50.7695 -11.7598L-50.7362 -11.7847L-50.6862 -11.8097C-49.2529 -12.609 -47.0695 -13.8204 -44.7195 -15.0193C-42.5362 -16.1183 -40.4862 -17.0925 -38.4362 -17.9916C-31.0862 -21.2137 -23.4862 -23.3742 -17.0529 -24.0736C-16.2362 -24.1735 -15.2862 -24.2609 -14.3695 -24.2734H-14.3528C-14.2751 -24.2734 -14.2029 -24.2734 -14.1362 -24.2734C-9.76953 -24.2734 -4.55285 -23.2868 1.39716 -21.3511ZM-14.3528 -24.0237C-15.1862 -24.0112 -16.0862 -23.9362 -17.0029 -23.8363C-23.6195 -23.112 -31.1529 -20.889 -38.2695 -17.7793C-40.3529 -16.8676 -42.4195 -15.8935 -44.5195 -14.807C-46.9029 -13.5956 -49.0695 -12.3967 -50.5362 -11.5849C-50.5806 -11.5599 -50.6251 -11.5391 -50.6695 -11.5225C-52.6695 -10.4234 -54.4362 -9.44938 -55.8529 -8.57517C-59.3362 -6.42711 -62.2862 -3.99178 -64.6362 -1.23177C-67.2195 1.82796 -69.0362 5.23734 -69.9695 9.03391C-70.5362 11.2694 -70.7529 13.6173 -70.7362 16.0526C-70.7362 18.363 -70.8029 20.9606 -70.3362 23.8955C-69.9695 26.6555 -69.3029 29.1283 -68.4195 31.5386C-68.1029 32.3878 -67.8029 33.2245 -67.4362 34.0738C-65.8862 37.5956 -63.8695 39.5813 -60.8529 42.3788C-58.9362 44.1646 -57.3695 47.3493 -53.8529 49.8845C-51.0195 51.9202 -47.4362 53.5187 -43.1195 54.6552C-40.9362 55.2297 -38.6362 55.6917 -36.1862 56.0165C-32.0695 56.566 -27.7362 56.8657 -23.2695 56.8782C-21.9362 56.8782 -20.3695 56.8782 -18.8362 56.8782C-17.3029 56.8782 -15.8195 56.8907 -14.5195 56.8907C-14.3751 56.8907 -14.2417 56.8907 -14.1195 56.8907C-12.3195 56.8907 -11.1029 56.8782 -9.81952 56.8532C5.73048 56.4911 19.8138 52.4572 27.6638 47.1495C30.3805 45.3011 34.3971 43.1156 35.8638 38.8445C36.1805 37.9703 36.4638 37.0586 36.6472 36.097C37.2138 35.0104 38.8638 33.3245 39.6305 30.4771C39.6805 30.3022 39.7305 30.1273 39.7805 29.9525C40.6305 26.9927 41.2805 23.3335 41.4638 19.9241C41.5805 17.9009 41.5471 15.9152 41.4305 14.479C41.2138 11.9188 40.7472 8.40948 38.7305 4.47553C38.7305 4.46721 38.7305 4.46309 38.7305 4.46309C37.3638 1.81549 35.4638 -0.707245 33.0805 -3.10508C31.3305 -4.89096 29.3138 -6.58943 27.0472 -8.163C24.9138 -9.63667 22.6805 -10.898 21.0305 -11.8472C19.6305 -12.6589 17.5805 -13.9078 15.2305 -15.1567C12.9138 -16.3806 10.6305 -17.4921 8.29716 -18.4912C5.98049 -19.4778 3.61382 -20.3645 1.26381 -21.1263C-4.11952 -22.8747 -9.43619 -24.0237 -14.1362 -24.0237C-14.2029 -24.0237 -14.2751 -24.0237 -14.3528 -24.0237Z" fill="#313131" fill-opacity="0.36"/>
</g>
<g opacity="0.9">
<path fill-rule="evenodd" clip-rule="evenodd" d="M-0.149117 -17.3041C2.10088 -16.5423 4.2509 -15.718 6.21757 -14.8563C8.28423 -13.9446 10.3342 -12.9455 12.4842 -11.7966C14.2176 -10.8724 15.7509 -9.97322 16.9842 -9.23639C17.262 -9.0782 17.5176 -8.92832 17.7509 -8.78678C17.962 -8.66189 18.1842 -8.53701 18.4176 -8.41212C19.8342 -7.58786 21.6009 -6.56381 23.2342 -5.43983C25.1509 -4.11603 26.9509 -2.64235 28.5509 -1.05628C30.7342 1.09178 32.4342 3.28978 33.6175 5.48779C35.4342 8.84725 35.9509 11.907 36.1842 14.1924C36.3176 15.5912 36.3509 17.502 36.2676 19.3128C36.1176 22.3101 35.5676 25.8319 34.8009 28.7168C34.7787 28.8 34.7564 28.8791 34.7342 28.9541C34.712 29.0373 34.6898 29.1248 34.6676 29.2163C34.1342 31.2645 33.0842 32.6757 32.4009 33.5999C32.1509 33.9246 31.9342 34.2119 31.8176 34.4367C31.6842 35.3608 31.4509 36.2225 31.2009 37.0093C30.0509 40.7184 26.7509 42.7167 24.3509 44.1653C24.0064 44.3818 23.6787 44.5858 23.3675 44.7773C19.8509 47.0003 14.9009 48.9485 9.01756 50.3847C2.83422 51.9083 -4.04911 52.7825 -10.8991 52.9324C-12.0491 52.9574 -13.1658 52.9574 -14.6824 52.9574H-15.1325C-16.2824 52.9574 -17.5658 52.9574 -18.8991 52.9574H-19.0158C-20.3991 52.9574 -21.7991 52.9449 -22.9991 52.9449C-26.9158 52.9449 -30.8658 52.7076 -34.7158 52.2331C-36.8825 51.9708 -39.0158 51.5712 -41.0324 51.0466C-44.9991 50.035 -48.2824 48.5614 -50.7824 46.6756C-52.7991 45.1645 -54.0491 43.391 -55.0324 41.9673C-55.6491 41.0806 -56.1824 40.3188 -56.7824 39.7693L-56.8324 39.7194C-59.5491 37.1966 -61.3491 35.5356 -62.7324 32.2636C-63.0658 31.4643 -63.3324 30.665 -63.5824 29.9657C-64.3824 27.6303 -64.8824 25.4448 -65.1491 23.0719C-65.4824 20.8489 -65.4824 18.7633 -65.4991 16.9275C-65.4991 16.6194 -65.4991 16.3155 -65.4991 16.0158C-65.5158 13.6929 -65.2991 11.6697 -64.8491 9.8339C-64.0491 6.54937 -62.4491 3.48962 -60.1158 0.767082C-58.0991 -1.56831 -55.4824 -3.74134 -52.3158 -5.6646C-50.9991 -6.47637 -49.2491 -7.438 -47.5491 -8.34968C-47.5269 -8.36633 -47.5047 -8.38297 -47.4824 -8.39962L-47.4491 -8.41212L-47.3825 -8.44962C-45.9825 -9.22392 -44.0824 -10.2854 -41.9491 -11.372C-39.9658 -12.3836 -38.0991 -13.2827 -36.2324 -14.107C-29.4324 -17.1417 -22.5324 -19.2024 -16.8324 -19.9017C-16.0824 -19.9892 -15.1991 -20.0891 -14.3658 -20.1016C-14.288 -20.1016 -14.2102 -20.1016 -14.1325 -20.1016C-10.3325 -20.1016 -5.61578 -19.1524 -0.149117 -17.3041ZM-14.3491 -19.8518C-14.3602 -19.8518 -14.3658 -19.8518 -14.3658 -19.8518C-15.1158 -19.8393 -15.9158 -19.7519 -16.7824 -19.652C-22.6658 -18.9276 -29.5658 -16.792 -36.0658 -13.8946C-37.9658 -13.0579 -39.8491 -12.1463 -41.7491 -11.1721C-43.9158 -10.0606 -45.8824 -8.9741 -47.2491 -8.21229C-47.2824 -8.19564 -47.3158 -8.17482 -47.3491 -8.14984C-49.2158 -7.13826 -50.8491 -6.23908 -52.1158 -5.47727C-55.1658 -3.60397 -57.7658 -1.49336 -59.8324 0.90447C-62.1158 3.55208 -63.6991 6.52438 -64.5158 9.88384C-64.9991 11.8321 -65.1824 13.8802 -65.1658 16.0158C-65.1491 18.1389 -65.1991 20.4618 -64.8158 23.0469C-64.5324 25.5447 -63.9991 27.7552 -63.2491 29.9032C-62.9991 30.665 -62.7324 31.4269 -62.3991 32.1887C-61.0491 35.4357 -59.2658 37.0718 -56.5158 39.6195C-54.9158 41.0931 -53.7491 44.1154 -50.5491 46.5007C-48.0991 48.349 -44.8824 49.7977 -40.9158 50.8093C-38.9658 51.3213 -36.8824 51.721 -34.6658 51.9833C-30.9491 52.4454 -27.0491 52.6951 -22.9991 52.6951C-21.7991 52.6951 -20.3991 52.7076 -19.0158 52.7076C-17.6491 52.7076 -16.3158 52.7076 -15.1325 52.7076C-14.9769 52.7076 -14.8269 52.7076 -14.6824 52.7076C-13.1491 52.7076 -12.0491 52.7076 -10.8991 52.6826C3.36755 52.3829 16.3009 48.936 23.1509 44.59C25.6509 43.0039 29.5842 41.0931 30.8675 36.9468C31.1342 36.1351 31.3676 35.2859 31.4842 34.3742C31.9676 33.475 33.6176 31.9264 34.3509 29.1664C34.3842 29.004 34.4342 28.8417 34.4842 28.6668C35.2009 25.9443 35.7842 22.4849 35.9342 19.3003C36.0342 17.3771 35.9842 15.5162 35.8509 14.2174C35.6176 11.9694 35.1342 8.95969 33.3176 5.58774C32.0842 3.31479 30.3842 1.16673 28.2842 -0.906393C26.7342 -2.43002 24.9676 -3.90373 23.0009 -5.265C21.1176 -6.55134 19.1009 -7.68777 17.5509 -8.59945C16.2509 -9.34877 14.4009 -10.4603 12.2842 -11.5967C10.2176 -12.7082 8.1509 -13.7198 6.0509 -14.644C3.96757 -15.5556 1.81757 -16.3674 -0.282433 -17.0793C-5.18243 -18.7403 -9.99911 -19.8518 -14.1325 -19.8518C-14.2102 -19.8518 -14.2824 -19.8518 -14.3491 -19.8518Z" fill="#313131" fill-opacity="0.36"/>
</g>
<g opacity="0.9">
<path fill-rule="evenodd" clip-rule="evenodd" d="M-1.70312 -13.2579C0.313549 -12.546 2.21355 -11.7842 3.96355 -10.9974C5.79688 -10.1732 7.63022 -9.26149 9.54688 -8.23741C11.0969 -7.40067 12.4969 -6.5764 13.6135 -5.9145C13.8358 -5.78129 14.0524 -5.6564 14.2635 -5.53984C14.4635 -5.41495 14.6747 -5.29007 14.8969 -5.16518C16.2302 -4.39088 17.7635 -3.50418 19.1635 -2.54255C20.8135 -1.43105 22.3469 -0.194685 23.7302 1.12912C25.6802 2.97745 27.1302 4.76331 28.1969 6.59915C29.8469 9.44657 30.3469 12.0068 30.5969 13.93C30.7469 15.1664 30.7969 16.9398 30.7302 18.6758C30.6135 21.4732 30.1469 24.7453 29.4969 27.4304C29.4746 27.5136 29.4524 27.5927 29.4302 27.6676C29.408 27.7426 29.3913 27.8175 29.3802 27.8924C28.8802 29.9156 27.8302 31.202 27.1469 32.0637C26.9302 32.3259 26.7469 32.5507 26.6635 32.7131C26.5802 33.6122 26.3802 34.424 26.1969 35.1109C25.2135 38.6952 22.0635 40.4436 19.7469 41.7049C19.4247 41.8881 19.1191 42.063 18.8302 42.2295C15.8635 43.9529 11.3469 45.539 6.09687 46.7004C0.463535 47.9368 -5.78647 48.6486 -11.9698 48.761C-13.0031 48.786 -13.9865 48.786 -15.2531 48.786H-15.7531C-16.7698 48.786 -17.9031 48.786 -19.0698 48.7735H-19.2031C-20.4365 48.7735 -21.6698 48.7735 -22.7531 48.7735C-26.2365 48.7735 -29.7365 48.5737 -33.1865 48.1991C-35.1365 47.9867 -37.0365 47.6496 -38.8365 47.2125C-42.4198 46.3258 -45.3365 45.002 -47.5031 43.291C-49.3031 41.8673 -50.2865 40.2313 -51.0865 38.9075C-51.5531 38.1207 -51.9698 37.4338 -52.4365 37.0092C-52.6031 36.8593 -52.7642 36.7136 -52.9198 36.572C-55.1365 34.5364 -56.6031 33.2001 -57.7198 30.3777C-58.0031 29.6534 -58.2365 28.9414 -58.4198 28.3295C-59.0531 26.3438 -59.4365 24.3956 -59.6531 22.2225C-59.9031 20.3742 -59.9198 18.6633 -59.9198 17.0148C-59.9198 16.6651 -59.9253 16.3237 -59.9365 15.9907C-59.9531 14.03 -59.7698 12.294 -59.3865 10.683C-58.6865 7.7856 -57.3698 5.23793 -55.3365 2.90254C-53.5865 0.904346 -51.3698 -0.894065 -48.5698 -2.56755C-47.4865 -3.21696 -46.0531 -4.00374 -44.2531 -4.99035L-44.1865 -5.02779L-44.1531 -5.05279L-44.0865 -5.09023C-42.8198 -5.7896 -41.0865 -6.73876 -39.1865 -7.72536C-37.4031 -8.64953 -35.7198 -9.46131 -34.0365 -10.2356C-27.7698 -13.083 -21.5865 -15.0313 -16.6031 -15.7181C-15.9198 -15.8056 -15.1198 -15.9055 -14.3698 -15.918C-14.3031 -15.918 -14.2309 -15.918 -14.1531 -15.918C-10.8865 -15.918 -6.68645 -15.0188 -1.70312 -13.2579ZM-14.3698 -15.6682C-15.0365 -15.6557 -15.7698 -15.5808 -16.5531 -15.4684C-21.7031 -14.7565 -27.9698 -12.7083 -33.8698 -10.0233C-35.5865 -9.23649 -37.2865 -8.41223 -39.0031 -7.52553C-40.9365 -6.52644 -42.6865 -5.53983 -43.9531 -4.84046C-43.9865 -4.82381 -44.0198 -4.80717 -44.0531 -4.79052C-45.7865 -3.85386 -47.2531 -3.04211 -48.3698 -2.36772C-51.0198 -0.781654 -53.2698 0.991718 -55.0531 3.03987C-57.0031 5.28783 -58.3531 7.82304 -59.0531 10.7204C-59.4531 12.3814 -59.6198 14.1423 -59.6031 15.9782C-59.5698 17.9139 -59.6198 19.9746 -59.3198 22.1976C-59.1031 24.4331 -58.7031 26.3813 -58.1031 28.2796C-57.8865 28.9539 -57.6531 29.6284 -57.3865 30.3028C-56.2198 33.2751 -54.6698 34.5614 -52.1865 36.8468C-50.8865 38.0333 -50.1198 40.8682 -47.2698 43.1162C-45.1698 44.7772 -42.3365 46.076 -38.7198 46.9752C-37.0031 47.3998 -35.1365 47.737 -33.1365 47.9493C-29.8531 48.3114 -26.3531 48.5238 -22.7531 48.5238C-21.6698 48.5238 -20.4365 48.5238 -19.2031 48.5238C-17.9865 48.5363 -16.8031 48.5363 -15.7531 48.5363C-15.5753 48.5363 -15.4087 48.5363 -15.2531 48.5363C-13.9531 48.5363 -12.9865 48.5362 -11.9865 48.5113C0.996868 48.274 12.7969 45.4266 18.6135 42.0421C20.9135 40.6934 24.7802 39.0574 25.8635 35.061C26.0802 34.3116 26.2635 33.5123 26.3302 32.6631C26.7135 31.9388 28.3802 30.54 29.0469 27.8425C29.0802 27.6926 29.1191 27.5386 29.1635 27.3804C29.7802 24.8952 30.2635 21.6356 30.3969 18.6758C30.4635 16.8524 30.4135 15.104 30.2635 13.955C30.0135 12.0193 29.5135 9.50905 27.8969 6.69909C26.7969 4.82579 25.2969 3.02738 23.4802 1.29145C22.1302 0.0175991 20.6302 -1.20627 18.9469 -2.36772C17.3302 -3.45424 15.5302 -4.47829 14.0469 -5.34001C12.8635 -6.03938 11.2135 -7.02598 9.34687 -8.02508C7.51353 -9.02418 5.66354 -9.94835 3.7802 -10.7851C1.9302 -11.6218 0.0302086 -12.3712 -1.83646 -13.0331C-6.25313 -14.5942 -10.5698 -15.6682 -14.1531 -15.6682C-14.2309 -15.6682 -14.3031 -15.6682 -14.3698 -15.6682Z" fill="#313131" fill-opacity="0.36"/>
</g>
<g opacity="0.9">
<path fill-rule="evenodd" clip-rule="evenodd" d="M-3.25049 -9.21183C-1.48383 -8.54992 0.182835 -7.85056 1.6995 -7.15119C3.2995 -6.41436 4.9495 -5.57762 6.61617 -4.66595C7.9995 -3.91663 9.24951 -3.17978 10.2495 -2.59281C10.4384 -2.48458 10.6106 -2.3805 10.7662 -2.28059C10.9662 -2.17236 11.1662 -2.06 11.3662 -1.94343C12.5662 -1.23158 13.9328 -0.432313 15.1162 0.354475C16.4662 1.25366 17.7495 2.26528 18.9328 3.32682C20.5995 4.83796 21.8662 6.27417 22.7828 7.71037C24.2828 10.0458 24.7495 12.1188 24.9995 13.6549C25.1828 14.7165 25.2495 16.365 25.1995 18.051C25.1162 20.5862 24.7162 23.6834 24.1828 26.1437C24.1606 26.2269 24.1384 26.3144 24.1162 26.4059C24.1051 26.4642 24.0939 26.5184 24.0828 26.5683C23.6162 28.5915 22.5328 29.8029 21.8995 30.5272C21.7162 30.727 21.5828 30.8769 21.4995 30.9893C21.4828 31.6762 21.3995 32.363 21.1995 33.2123C20.3995 36.7091 17.3495 38.1953 15.1162 39.2818C14.8162 39.4192 14.5328 39.5566 14.2828 39.6815C8.9995 42.4165 -2.23383 44.4272 -13.0505 44.5895C-13.9338 44.602 -14.8005 44.6145 -15.8005 44.6145H-16.3505C-17.2505 44.602 -18.2005 44.602 -19.1838 44.602H-19.4005C-20.4672 44.602 -21.5505 44.602 -22.5005 44.602C-25.5338 44.602 -28.6172 44.4521 -31.6505 44.1649C-33.3838 44.0025 -35.0672 43.7403 -36.6338 43.3656C-39.8172 42.6163 -42.3838 41.4548 -44.2172 39.8937C-45.8338 38.545 -46.6005 36.9589 -47.1505 35.7975C-47.4838 35.1231 -47.7672 34.5361 -48.0838 34.2364C-48.3616 33.9949 -48.6172 33.766 -48.8505 33.5495C-50.6338 31.9509 -51.8005 30.9019 -52.7005 28.4791C-52.8838 27.9545 -53.0672 27.4051 -53.2672 26.6932C-53.7172 25.0447 -54.0005 23.3587 -54.1505 21.373C-54.3172 19.9118 -54.3338 18.5131 -54.3338 17.1518C-54.3505 16.7521 -54.3505 16.3526 -54.3505 15.9529C-54.3838 14.3294 -54.2505 12.8806 -53.9338 11.5319C-53.3672 9.09657 -52.2505 6.97349 -50.5338 5.03774C-49.0838 3.40172 -47.2005 1.9281 -44.8172 0.529366C-43.9005 -0.00764847 -42.6005 -0.73203 -40.9505 -1.63122L-40.8838 -1.66866L-40.8671 -1.68116L-40.7838 -1.7311C-39.6505 -2.35554 -38.1005 -3.20481 -36.4172 -4.07902C-34.8505 -4.90327 -33.3172 -5.66505 -31.8505 -6.35192C-26.1005 -9.037 -20.6172 -10.8728 -16.3838 -11.5347C-15.7672 -11.6346 -15.0505 -11.7346 -14.3838 -11.7471C-14.3172 -11.7471 -14.2505 -11.7471 -14.1838 -11.7471C-11.3838 -11.7471 -7.80049 -10.9103 -3.25049 -9.21183ZM-14.3671 -11.4973C-14.3671 -11.4973 -14.3727 -11.4973 -14.3838 -11.4973C-14.9672 -11.4848 -15.6172 -11.3974 -16.3172 -11.2975C-20.7505 -10.5981 -26.3838 -8.61242 -31.6672 -6.13965C-33.2005 -5.42363 -34.7227 -4.67014 -36.2338 -3.87918C-37.9338 -2.99249 -39.5005 -2.11825 -40.6672 -1.48133C-40.6894 -1.46468 -40.7172 -1.44804 -40.7505 -1.43139C-42.3338 -0.569665 -43.6671 0.167145 -44.6171 0.729136C-46.8505 2.04045 -48.7505 3.48915 -50.2505 5.17513C-51.9005 7.02346 -53.0338 9.1091 -53.6005 11.5694C-53.9172 12.9431 -54.0505 14.4043 -54.0172 15.9529C-53.9838 17.7013 -54.0338 19.4747 -53.8172 21.348C-53.6672 23.3212 -53.4005 25.0072 -52.9338 26.6432C-52.7672 27.2427 -52.5838 27.8172 -52.3671 28.4166C-51.3838 31.1142 -50.0672 32.0508 -47.8338 34.074C-46.8672 34.9607 -46.4838 37.6208 -43.9672 39.7314C-42.2338 41.1926 -39.7838 42.3665 -36.5338 43.1283C-35.0171 43.478 -33.3838 43.7528 -31.6171 43.9151C-28.7338 44.1899 -25.6672 44.3522 -22.5005 44.3522C-21.5505 44.3522 -20.4672 44.3522 -19.4005 44.3522C-18.3338 44.3522 -17.3005 44.3522 -16.3505 44.3647C-16.1616 44.3647 -15.9783 44.3647 -15.8005 44.3647C-14.7505 44.3647 -13.9172 44.3522 -13.0672 44.3397C-1.35049 44.1649 9.3495 41.9419 14.0995 39.4816C16.1995 38.3951 19.9828 37.0338 20.8662 33.1748C21.0328 32.4755 21.1495 31.7386 21.1828 30.9394C21.4662 30.3899 23.1495 29.1534 23.7495 26.5308C23.7828 26.3893 23.8162 26.2478 23.8495 26.1062C24.3495 23.8333 24.7662 20.7735 24.8662 18.051C24.9162 16.3151 24.8328 14.704 24.6662 13.6925C24.4162 12.0689 23.8995 10.0457 22.4828 7.82276C21.5328 6.32411 20.2328 4.88789 18.6662 3.48915C17.5495 2.46508 16.2829 1.47846 14.8829 0.541806C13.5329 -0.369869 11.9495 -1.26901 10.5662 -2.09326C9.48285 -2.7177 8.03284 -3.59191 6.41618 -4.46612C4.79951 -5.34033 3.18283 -6.17711 1.53283 -6.93892C-0.100498 -7.68824 -1.76716 -8.37511 -3.40049 -8.98705C-7.33383 -10.4607 -11.1338 -11.4973 -14.1838 -11.4973C-14.2394 -11.4973 -14.3005 -11.4973 -14.3671 -11.4973Z" fill="#313131" fill-opacity="0.36"/>
</g>
<path fill-rule="evenodd" clip-rule="evenodd" d="M-4.78284 -5.15331C-3.28284 -4.55386 -1.86619 -3.92943 -0.549522 -3.29251C0.817142 -2.6431 2.23381 -1.90626 3.68382 -1.10698C4.90048 -0.432593 6.01715 0.229296 6.91715 0.753821L7.28381 0.966154L7.81715 1.27837C8.93382 1.94027 10.1005 2.62713 11.0505 3.25156C12.1172 3.93844 13.1505 4.71276 14.1171 5.51203C15.5171 6.68597 16.5838 7.77248 17.3505 8.80904C17.3505 8.81737 17.3505 8.82154 17.3505 8.82154C18.4005 10.2328 19.0672 11.6939 19.4172 13.3799C19.6005 14.2791 19.7005 15.7902 19.6505 17.4262C19.6005 20.1863 19.2171 23.0711 18.8671 24.857C18.8449 24.9653 18.8227 25.0693 18.8005 25.1692L18.7838 25.2442C18.3505 27.2923 17.1838 28.4413 16.6171 29.0033C16.5171 29.1032 16.4005 29.2156 16.3505 29.278C16.3838 29.9274 16.3338 30.5769 16.2005 31.3137C15.5838 34.7731 12.4505 36.0345 10.3838 36.8712C10.1505 36.9711 9.93382 37.0626 9.73382 37.1459C6.23382 38.6446 -3.31619 40.3056 -14.1329 40.418C-14.7495 40.4305 -15.3995 40.4305 -16.2995 40.4305C-16.5106 40.4305 -16.7329 40.4305 -16.9662 40.4305C-17.7662 40.4305 -18.5995 40.4305 -19.4662 40.4305H-19.5829C-20.4995 40.4305 -21.4162 40.4305 -22.2495 40.418C-24.8495 40.418 -27.4828 40.318 -30.1162 40.1307C-31.6328 40.0308 -33.0828 39.8185 -34.4328 39.5313C-37.2328 38.9068 -39.4162 37.8953 -40.9495 36.4965C-42.3828 35.1852 -42.8829 33.6991 -43.2329 32.6125C-43.4162 32.088 -43.5662 31.6384 -43.7495 31.476C-44.0829 31.1638 -44.3995 30.9016 -44.6828 30.6518C-46.0828 29.4404 -46.9995 28.6536 -47.6828 26.5929C-47.8328 26.1184 -47.9662 25.6313 -48.0995 25.0569C-48.3995 23.758 -48.5662 22.3593 -48.6495 20.511C-48.7329 19.4744 -48.7495 18.4253 -48.7495 17.4137C-48.7662 16.9267 -48.7662 16.4271 -48.7828 15.9151C-48.8162 14.6413 -48.7162 13.4548 -48.4662 12.3683C-48.0329 10.3951 -47.1329 8.69663 -45.7329 7.17301C-44.5829 5.91165 -43.0495 4.75021 -41.0662 3.62622C-40.2329 3.15165 -38.9662 2.46475 -37.6495 1.72792L-37.5995 1.70298L-37.5662 1.69047L-37.4662 1.62803C-36.3995 1.04106 -35.0995 0.316717 -33.6662 -0.432606C-32.2829 -1.16944 -30.9329 -1.84381 -29.6495 -2.46824C-24.4329 -4.99096 -19.6495 -6.7269 -16.1662 -7.35134C-15.3995 -7.48871 -14.8662 -7.56368 -14.3829 -7.57617C-14.3273 -7.57617 -14.2662 -7.57617 -14.1995 -7.57617C-11.9162 -7.57617 -8.83284 -6.77685 -4.78284 -5.15331ZM-14.3829 -7.3264C-14.8829 -7.31391 -15.4495 -7.22646 -16.0829 -7.11407C-19.7995 -6.43967 -24.7829 -4.51643 -29.4662 -2.25597C-30.8162 -1.60656 -32.1495 -0.932142 -33.4662 -0.232774C-34.9495 0.554014 -36.3162 1.30334 -37.3662 1.89031C-37.3995 1.90696 -37.4273 1.91942 -37.4495 1.92775C-38.8828 2.71454 -40.0662 3.36397 -40.8662 3.82606C-42.6828 4.86262 -44.2495 5.98659 -45.4662 7.31039C-46.7829 8.7466 -47.6995 10.4076 -48.1495 12.4183C-48.3829 13.4923 -48.4828 14.6662 -48.4495 15.9151C-48.3995 17.4762 -48.4495 18.9749 -48.3162 20.4985C-48.2495 22.2094 -48.0995 23.6331 -47.7662 25.0194C-47.6495 25.5189 -47.5162 26.0185 -47.3495 26.5305C-46.5495 28.9533 -45.4662 29.5278 -43.4995 31.3137C-42.8495 31.9007 -42.8328 34.3734 -40.6828 36.3466C-39.2995 37.6205 -37.2329 38.6571 -34.3329 39.2815C-33.0495 39.5687 -31.6495 39.7685 -30.0829 39.8809C-27.6329 40.0683 -24.9829 40.1682 -22.2495 40.1682C-21.4162 40.1807 -20.4995 40.1807 -19.5829 40.1807C-18.6829 40.1807 -17.7995 40.1807 -16.9662 40.1807C-16.7329 40.1807 -16.5106 40.1807 -16.2995 40.1807C-15.5162 40.1807 -14.8329 40.1807 -14.1329 40.1682C-3.71619 40.0683 5.93382 38.4947 9.56715 36.9336C11.5005 36.0969 15.2005 34.9979 15.8671 31.2887C15.9838 30.6518 16.0505 29.9649 16.0172 29.2156C16.2171 28.8534 17.9172 27.7669 18.4672 25.2067C18.4894 25.0818 18.5116 24.9528 18.5338 24.8196C18.9338 22.7839 19.2672 19.924 19.3172 17.4137C19.3672 15.7902 19.2672 14.3041 19.0838 13.4299C18.8172 12.1185 18.3005 10.5949 17.0672 8.93393C16.2505 7.82243 15.1505 6.76088 13.8671 5.67436C12.9505 4.92504 11.9505 4.16324 10.8338 3.43889C9.73382 2.71455 8.36716 1.92774 7.06715 1.16593C6.10049 0.591444 4.86716 -0.145341 3.48382 -0.907152C2.10049 -1.66896 0.700481 -2.4058 -0.732853 -3.09268C-2.11619 -3.75458 -3.54951 -4.37905 -4.94951 -4.94104C-8.39951 -6.32729 -11.7162 -7.3264 -14.1995 -7.3264C-14.2551 -7.3264 -14.3162 -7.3264 -14.3829 -7.3264Z" fill="#313131" fill-opacity="0.36"/>
<path fill-rule="evenodd" clip-rule="evenodd" d="M-6.31823 -1.10711C-5.11823 -0.570093 -3.9349 -0.0206146 -2.80156 0.553866C-1.66823 1.12835 -0.48489 1.7653 0.748444 2.45217C1.81511 3.06412 2.83178 3.66358 3.64845 4.13815L3.78177 4.22553L4.09844 4.40042C5.18177 5.04984 6.21511 5.66177 6.98178 6.13634C7.76512 6.63589 8.54844 7.16042 9.28177 7.69743C10.4818 8.57164 11.2984 9.24599 11.9151 9.9079C12.8818 10.932 13.5151 11.981 13.8318 13.105C14.0318 13.8294 14.1318 15.1407 14.1151 16.7892C14.0818 19.3119 13.7985 22.0095 13.5651 23.5581C13.5318 23.6955 13.5151 23.8328 13.4984 23.9328C13.0984 26.0309 11.7985 27.0924 11.2985 27.492C11.2651 27.517 11.2318 27.542 11.1984 27.567C11.2818 28.1914 11.2651 28.7908 11.1984 29.4153C10.7651 32.9621 7.31512 33.9737 5.46512 34.5232C5.36512 34.5481 5.26511 34.5773 5.16511 34.6106C2.64845 35.3599 -6.15156 36.2091 -15.2182 36.2591C-15.6516 36.2591 -16.1182 36.2591 -16.6849 36.2591C-16.9738 36.2591 -17.2738 36.2591 -17.5849 36.2591H-19.4849L-19.7682 36.2466C-20.5349 36.2466 -21.2849 36.2466 -22.0016 36.2466C-24.1516 36.2466 -26.3682 36.1967 -28.5849 36.0967C-29.8849 36.0468 -31.1182 35.9094 -32.2182 35.6846C-34.6349 35.2101 -36.4682 34.3358 -37.6682 33.0995C-38.9682 31.7632 -39.1682 30.2271 -39.3016 29.3154C-39.3349 29.0531 -39.3682 28.7784 -39.4182 28.691C-39.7849 28.3663 -40.1182 28.0915 -40.4182 27.8542C-41.5182 26.9675 -42.1849 26.4305 -42.6682 24.6946C-42.7849 24.2949 -42.8682 23.8703 -42.9515 23.4207C-43.1349 22.2593 -43.1516 21.0728 -43.1516 19.6616C-43.1682 19.1246 -43.1682 18.5751 -43.1682 18.0006C-43.1849 17.3262 -43.1849 16.6269 -43.2182 15.89C-43.2516 14.9284 -43.1849 14.0292 -43.0182 13.2174C-42.7016 11.6938 -42.0182 10.4075 -40.9515 9.29596C-40.0849 8.40926 -38.9182 7.585 -37.3182 6.72328C-36.6182 6.34861 -35.4849 5.72423 -34.3516 5.0873L-34.3016 5.0748L-34.2849 5.0623L-34.1016 4.96242C-33.2016 4.46287 -32.0849 3.85091 -30.9016 3.2015C-29.7016 2.56457 -28.5349 1.96508 -27.4515 1.41557C-24.7182 0.0418167 -19.5849 -2.38096 -15.9515 -3.16774C-15.3015 -3.31761 -14.8182 -3.38009 -14.4016 -3.39258C-14.346 -3.39258 -14.2904 -3.39258 -14.2349 -3.39258C-12.4516 -3.39258 -9.85156 -2.64322 -6.31823 -1.10711ZM-14.3849 -3.1428C-14.8182 -3.13032 -15.3015 -3.05536 -15.8682 -2.93047C-18.8682 -2.28106 -23.2016 -0.420241 -27.2682 1.62791C-28.4349 2.21488 -29.5849 2.81431 -30.7015 3.41377C-31.9682 4.08816 -33.1349 4.73761 -34.0849 5.26213C-34.1071 5.27046 -34.1293 5.28292 -34.1516 5.29957C-35.4349 5.99894 -36.4682 6.57342 -37.1182 6.92311C-38.5349 7.68492 -39.7349 8.48422 -40.6849 9.44585C-41.6849 10.4824 -42.3682 11.6938 -42.6849 13.2549C-42.8516 14.0542 -42.9182 14.9284 -42.8849 15.8775C-42.8349 17.2513 -42.8516 18.4877 -42.8182 19.6616C-42.8182 21.0978 -42.8015 22.2593 -42.6182 23.3833C-42.5515 23.8079 -42.4516 24.22 -42.3349 24.6446C-41.7349 26.7801 -40.8682 27.0175 -39.1516 28.5411C-38.8182 28.8408 -39.1849 31.1137 -37.4016 32.9496C-36.3516 34.0361 -34.6849 34.9353 -32.1349 35.4473C-31.0849 35.6596 -29.9016 35.797 -28.5516 35.847C-26.5182 35.9344 -24.3016 35.9969 -22.0016 35.9969C-21.2849 35.9969 -20.5349 35.9969 -19.7682 35.9969C-19.0349 36.0093 -18.3016 36.0093 -17.5849 36.0093C-17.2738 36.0093 -16.9738 36.0093 -16.6849 36.0093C-16.1682 36.0093 -15.7016 36.0093 -15.2182 36.0093C-6.0849 35.9593 2.58179 35.1102 5.04845 34.3733C6.83179 33.8363 10.4318 32.9621 10.8651 29.3903C10.9318 28.8158 10.9484 28.1914 10.8651 27.492C10.9651 27.3172 12.6818 26.368 13.1651 23.8953C13.1873 23.7787 13.2096 23.658 13.2318 23.5331C13.4985 21.7347 13.7484 19.0746 13.7818 16.7892C13.7984 15.2531 13.6984 13.8918 13.4984 13.155C13.2151 12.1559 12.6818 11.1443 11.6484 10.0578C10.9651 9.32095 10.0818 8.62158 9.04845 7.87226C8.36512 7.37271 7.59844 6.84821 6.76511 6.33617C5.93177 5.81165 4.79845 5.13721 3.58178 4.41286C2.71511 3.91332 1.68179 3.28893 0.548454 2.65201C-0.601547 2.01508 -1.78489 1.36566 -2.98489 0.766199C-4.15156 0.179229 -5.33489 -0.382787 -6.50156 -0.882335C-9.46822 -2.19365 -12.2849 -3.1428 -14.2349 -3.1428C-14.2904 -3.1428 -14.3405 -3.1428 -14.3849 -3.1428Z" fill="#313131" fill-opacity="0.36"/>
<path fill-rule="evenodd" clip-rule="evenodd" d="M1.19896 8.02275C1.93229 8.45985 2.51563 8.797 2.91563 9.03428C3.54897 9.39646 4.14896 9.7087 4.6823 9.99594C6.46563 10.9451 7.76563 11.6445 8.2323 12.8309C8.84897 14.367 8.51563 19.8495 8.24896 22.2723C7.99896 24.5577 6.5823 25.5818 6.06564 25.894C6.44897 27.8298 6.0323 29.3659 4.84896 30.4649C3.64896 31.5764 1.83229 32.026 0.532291 32.0759C-0.0510406 32.0884 -1.90104 32.101 -5.30104 32.101C-8.23438 32.101 -11.8677 32.0884 -15.7177 32.0884C-19.6344 32.076 -23.701 32.0759 -27.0344 32.0759C-30.301 32.0759 -32.6677 31.4016 -34.0177 30.1028C-35.7177 28.4792 -35.3177 26.4061 -35.1677 25.8566C-35.4677 25.6193 -35.7344 25.4445 -35.951 25.2821C-36.8344 24.6577 -37.3344 24.3205 -37.651 22.7969C-37.8677 21.7978 -37.801 20.8986 -37.7177 19.7746C-37.6344 18.7755 -37.551 17.5391 -37.6344 15.8531C-37.8344 12.2064 -36.0677 11.045 -33.551 9.80861C-33.001 9.54634 -31.9177 8.94689 -30.551 8.18508C-25.6344 5.46254 -17.3844 0.891695 -14.4177 0.779297C-14.3733 0.779297 -14.3233 0.779297 -14.2677 0.779297C-10.9177 0.779297 -3.03437 5.48754 1.19896 8.02275ZM-14.401 1.02907C-18.101 1.16645 -30.8677 8.79705 -33.3677 10.0209C-35.8677 11.2448 -37.501 12.3188 -37.301 15.8531C-37.1177 19.3749 -37.7177 20.8861 -37.3177 22.7594C-36.9177 24.6202 -36.351 24.5578 -34.8177 25.7817C-34.8177 25.7817 -36.8344 31.8262 -27.0344 31.8262C-20.501 31.8262 -11.2844 31.8512 -5.30104 31.8512C-2.30104 31.8512 -0.117706 31.8387 0.515629 31.8262C2.44896 31.7512 6.76562 30.6647 5.69896 25.7817C5.69896 25.7817 7.6323 24.92 7.91563 22.2474C8.19896 19.5873 8.4823 14.342 7.91563 12.8933C7.3323 11.4571 5.48231 10.8077 2.71564 9.23411C-0.0176926 7.66054 -10.4677 1.02907 -14.2677 1.02907C-14.3121 1.02907 -14.3566 1.02907 -14.401 1.02907Z" fill="#313131" fill-opacity="0.36"/>
</g>
</g>
<path d="M21.7655 22C21.4242 22 21.0935 21.9467 20.7735 21.84C20.4535 21.7227 20.1708 21.5733 19.9255 21.392L19.9095 21.792C19.8135 22.752 19.4615 23.5307 18.8535 24.128C18.2455 24.736 17.4668 25.1307 16.5175 25.312L16.1495 23.424C17.4082 23.168 18.0375 22.4267 18.0375 21.2V14.24H21.7655C22.4482 14.24 23.0722 14.4107 23.6375 14.752C24.2135 15.0933 24.6668 15.552 24.9975 16.128C25.3388 16.704 25.5095 17.3333 25.5095 18.016V18.304C25.4988 18.976 25.3228 19.5947 24.9815 20.16C24.6508 20.7253 24.1975 21.1733 23.6215 21.504C23.0562 21.8347 22.4375 22 21.7655 22ZM21.7655 20.064C22.2668 20.064 22.6935 19.8987 23.0455 19.568C23.4082 19.2267 23.5948 18.8107 23.6055 18.32V18.016C23.6055 17.5147 23.4295 17.088 23.0775 16.736C22.7255 16.384 22.2935 16.208 21.7815 16.208H19.9575V18.368C19.9682 18.88 20.1495 19.2907 20.5015 19.6C20.8535 19.9093 21.2748 20.064 21.7655 20.064ZM27.0135 20.064H31.3975C31.7282 20.064 31.9788 19.9467 32.1495 19.712C32.2882 19.4987 32.3575 19.3013 32.3575 19.12C32.3575 19.0667 32.3468 18.9973 32.3255 18.912L31.0455 14.256L32.9015 13.728L34.1975 18.416C34.2508 18.6827 34.2775 18.9173 34.2775 19.12C34.2775 19.8027 34.0695 20.4 33.6535 20.912C33.3762 21.2533 33.0402 21.52 32.6455 21.712C32.2508 21.904 31.8348 22 31.3975 22H27.0135V20.064ZM39.0621 22C38.5928 22 38.1555 21.8827 37.7501 21.648C37.3448 21.4133 37.0248 21.0933 36.7901 20.688C36.5555 20.2827 36.4381 19.8453 36.4381 19.376V10.816H38.3741V19.376C38.3741 19.568 38.4381 19.7333 38.5661 19.872C38.7048 20 38.8701 20.064 39.0621 20.064H39.7821V22H39.0621ZM43.481 10.576C43.7903 10.576 44.057 10.688 44.281 10.912C44.505 11.1253 44.617 11.3867 44.617 11.696C44.617 12.0053 44.505 12.272 44.281 12.496C44.057 12.72 43.7903 12.832 43.481 12.832C43.1717 12.832 42.905 12.72 42.681 12.496C42.457 12.272 42.345 12.0053 42.345 11.696C42.345 11.3867 42.457 11.1253 42.681 10.912C42.905 10.688 43.1717 10.576 43.481 10.576ZM46.441 10.576C46.7503 10.576 47.017 10.688 47.241 10.912C47.465 11.1253 47.577 11.3867 47.577 11.696C47.577 12.0053 47.465 12.272 47.241 12.496C47.017 12.72 46.7503 12.832 46.441 12.832C46.1317 12.832 45.865 12.72 45.641 12.496C45.417 12.272 45.305 12.0053 45.305 11.696C45.305 11.3867 45.417 11.1253 45.641 10.912C45.865 10.688 46.1317 10.576 46.441 10.576ZM48.073 20.64C48.073 21.0133 47.9397 21.3333 47.673 21.6C47.417 21.8667 47.1023 22 46.729 22H39.465V20.064H41.305C41.0917 19.8293 40.9263 19.552 40.809 19.232C40.6917 18.9013 40.633 18.5547 40.633 18.192V17.808C40.633 17.1467 40.8037 16.544 41.145 16C41.4863 15.456 41.945 15.0293 42.521 14.72C43.097 14.4 43.721 14.24 44.393 14.24H48.073V20.64ZM44.409 16.064C43.897 16.064 43.4543 16.2507 43.081 16.624C42.7183 16.9867 42.537 17.4293 42.537 17.952V18.256C42.5477 18.7573 42.7343 19.184 43.097 19.536C43.4703 19.888 43.9077 20.064 44.409 20.064H45.913C45.977 20.064 46.0303 20.0427 46.073 20C46.1263 19.9467 46.153 19.8827 46.153 19.808V16.064H44.409Z" fill="#BD7611"/>
</g>
<defs>
<clipPath id="clip0_6431_48753">
<rect width="65" height="36" rx="8" fill="white"/>
</clipPath>
</defs>
</svg>
