<svg width="56" height="41" viewBox="0 0 56 41" fill="none" xmlns="http://www.w3.org/2000/svg">
<path d="M0 20.6084C0 9.5627 8.95431 0.608398 20 0.608398H36C47.0457 0.608398 56 9.5627 56 20.6084C56 31.6541 47.0457 40.6084 36 40.6084H20C8.95431 40.6084 0 31.6541 0 20.6084Z" fill="#FAFAFA"/>
<path fill-rule="evenodd" clip-rule="evenodd" d="M28 30.6084C33.5228 30.6084 38 26.1312 38 20.6084C38 15.0856 33.5228 10.6084 28 10.6084C22.4772 10.6084 18 15.0856 18 20.6084C18 22.2081 18.3756 23.72 19.0435 25.0609C19.2209 25.4172 19.28 25.8245 19.1771 26.209L18.5815 28.435C18.323 29.4014 19.207 30.2854 20.1733 30.0269L22.3994 29.4313C22.7839 29.3284 23.1912 29.3875 23.5475 29.5649C24.8884 30.2328 26.4003 30.6084 28 30.6084ZM24 21.8584C23.5858 21.8584 23.25 22.1942 23.25 22.6084C23.25 23.0226 23.5858 23.3584 24 23.3584H29.5C29.9142 23.3584 30.25 23.0226 30.25 22.6084C30.25 22.1942 29.9142 21.8584 29.5 21.8584H24ZM23.25 19.1084C23.25 18.6942 23.5858 18.3584 24 18.3584H32C32.4142 18.3584 32.75 18.6942 32.75 19.1084C32.75 19.5226 32.4142 19.8584 32 19.8584H24C23.5858 19.8584 23.25 19.5226 23.25 19.1084Z" fill="#6B778C"/>
</svg>
