<svg width="100" height="100" viewBox="0 0 100 100" fill="none" xmlns="http://www.w3.org/2000/svg">
<path d="M55.6929 23.4726C58.5059 20.3149 60.2347 18.8973 63.6302 17.1049V69.6867L55.6929 71.3268V23.4726Z" fill="#023936"/>
<path d="M81.0535 49.9082C82.699 46.4349 82.8926 44.8912 83.3333 41.3281L22.4917 54.5393C21.0489 57.7531 20.5845 59.5495 20.3622 62.7401L81.0535 49.9082Z" fill="#023936"/>
<path d="M81.0535 66.0138C82.699 62.5405 82.8926 60.9968 83.3333 57.4337L55.9833 63.2225C55.7897 66.4063 56.012 68.0398 55.7897 71.2304L81.0535 66.0138Z" fill="#023936"/>
<path d="M81.0535 82.117C82.699 78.6437 82.8926 77.1 83.3333 73.5369L58.4032 78.9488C57.1448 80.6854 56.3705 83.5798 55.7897 87.3336L81.0535 82.117Z" fill="#023936"/>
<path d="M41.4638 76.6333C43.8837 73.6424 46.4004 69.8796 48.1427 66.7923L18.796 73.1533C17.3533 76.3671 16.8888 78.1635 16.6665 81.3541L41.4638 76.6333Z" fill="#023936"/>
<path d="M40.2055 19.0345C43.0185 15.8768 44.7473 14.4592 48.1428 12.6668V66.9852L40.2055 68.6254V19.0345Z" fill="#023936"/>
</svg>
