<svg width="14" height="16" viewBox="0 0 14 16" fill="none" xmlns="http://www.w3.org/2000/svg">
<g id="Group">
<path id="Vector" d="M12.9997 2.66666H10.933C10.614 1.11572 9.24973 0.002 7.66632 0H6.33298C4.74957 0.002 3.38526 1.11572 3.06632 2.66666H0.999664C0.631477 2.66666 0.333008 2.96513 0.333008 3.33331C0.333008 3.7015 0.631477 4 0.999664 4H1.66632V12.6667C1.66854 14.5067 3.15963 15.9978 4.99966 16H8.99966C10.8397 15.9978 12.3308 14.5067 12.333 12.6667V4H12.9997C13.3679 4 13.6663 3.70153 13.6663 3.33334C13.6663 2.96516 13.3679 2.66666 12.9997 2.66666ZM6.33301 11.3333C6.33301 11.7015 6.03454 12 5.66635 12C5.29813 12 4.99966 11.7015 4.99966 11.3333V7.33334C4.99966 6.96516 5.29813 6.66669 5.66632 6.66669C6.03451 6.66669 6.33298 6.96516 6.33298 7.33334V11.3333H6.33301ZM8.99966 11.3333C8.99966 11.7015 8.7012 12 8.33301 12C7.96482 12 7.66635 11.7015 7.66635 11.3333V7.33334C7.66635 6.96516 7.96482 6.66669 8.33301 6.66669C8.7012 6.66669 8.99966 6.96516 8.99966 7.33334V11.3333ZM4.44701 2.66666C4.73057 1.86819 5.4857 1.33434 6.33301 1.33331H7.66635C8.51367 1.33434 9.26879 1.86819 9.55235 2.66666H4.44701Z" fill="#D32F2F"/>
</g>
</svg>
