<svg width="73" height="72" viewBox="0 0 73 72" fill="none" xmlns="http://www.w3.org/2000/svg">
<rect x="0.5" width="72" height="72" rx="36" fill="#FCE8E8"/>
<path d="M48.4998 25.3333H44.3665C43.7286 22.2314 40.9999 20.004 37.8331 20H35.1664C31.9996 20.004 29.271 22.2314 28.6331 25.3333H24.4998C23.7634 25.3333 23.1665 25.9303 23.1665 26.6666C23.1665 27.403 23.7634 28 24.4998 28H25.8331V45.3333C25.8376 49.0134 28.8198 51.9956 32.4998 52H40.4998C44.1799 51.9956 47.1621 49.0134 47.1665 45.3333V28H48.4998C49.2362 28 49.8331 27.4031 49.8331 26.6667C49.8331 25.9303 49.2362 25.3333 48.4998 25.3333ZM35.1665 42.6667C35.1665 43.4031 34.5696 44 33.8332 44C33.0968 44 32.4998 43.4031 32.4998 42.6667V34.6667C32.4998 33.9303 33.0968 33.3334 33.8331 33.3334C34.5695 33.3334 35.1664 33.9303 35.1664 34.6667V42.6667H35.1665ZM40.4998 42.6667C40.4998 43.4031 39.9029 44 39.1665 44C38.4301 44 37.8332 43.4031 37.8332 42.6667V34.6667C37.8332 33.9303 38.4301 33.3334 39.1665 33.3334C39.9029 33.3334 40.4998 33.9303 40.4998 34.6667V42.6667ZM31.3945 25.3333C31.9616 23.7364 33.4719 22.6687 35.1665 22.6666H37.8332C39.5278 22.6687 41.0381 23.7364 41.6052 25.3333H31.3945Z" fill="#E51B1B"/>
</svg>
