<svg width="150" height="40" viewBox="0 0 150 40" fill="none" xmlns="http://www.w3.org/2000/svg">
<path d="M47.9869 6.95812H38.2466L41.9327 0.821533H36.6816L33.3868 6.97873C33.4005 7.89853 33.5447 8.72224 33.8192 9.44984C34.0938 10.1774 34.3958 10.7815 34.7253 11.2619H48.5429C49.2431 11.2619 49.8059 11.461 50.2315 11.8592C50.6434 12.2573 50.8493 12.8339 50.8493 13.5889V15.2569H32.3778H31.9247H28.6711H28.2181H24.985H24.5114H21.2784H20.8253H17.5923H17.1187H13.8857H13.412H11.3322V6.09325H7.04893V17.1514C7.04893 18.4144 6.80182 19.3342 6.3076 19.9108C5.82711 20.4737 5.07205 20.7551 4.04242 20.7551C3.53447 20.7551 3.04025 20.7482 2.55976 20.7345C2.09299 20.7208 1.54386 20.7071 0.912354 20.6933L1.40658 24.3176C1.94198 24.4275 2.50484 24.5098 3.09516 24.5647C3.68548 24.6197 4.2964 24.6471 4.9279 24.6471C8.42863 24.6471 10.4948 22.9517 11.1263 19.5607H13.412H13.8857H17.1187H17.5923H20.8253H21.2784H24.5114H24.985H28.2181H28.6711H31.9247H32.3778H55.1943V14.3921C55.1943 11.8248 54.5903 9.94403 53.3822 8.74966C52.1741 7.5553 50.3756 6.95812 47.9869 6.95812Z" fill="#023936"/>
<path fill-rule="evenodd" clip-rule="evenodd" d="M74.9632 6.09326V15.9571L74.9426 16.1012V17.5221C74.9426 18.9087 74.7916 20.0687 74.4896 21.0022C74.2013 21.922 73.7139 22.6497 73.0275 23.1851C72.3274 23.7342 71.3938 24.1255 70.2269 24.3588C69.0737 24.5785 67.6185 24.6883 65.8613 24.6883C65.3122 24.6883 64.6875 24.6677 63.9874 24.6266C63.2872 24.5854 62.5665 24.5236 61.8252 24.4412C61.0701 24.3588 60.3631 24.2696 59.7041 24.1735L58.9628 20.2609C59.8826 20.3708 60.7543 20.46 61.578 20.5286C62.388 20.611 63.2186 20.6728 64.0697 20.714C64.9209 20.7414 65.8613 20.7551 66.8909 20.7551C68.2088 20.7551 69.1286 20.6728 69.6503 20.508C70.172 20.3433 70.4878 20.0275 70.5976 19.5608H66.9527C64.056 19.5608 61.8458 18.9842 60.3219 17.831C58.7981 16.6916 58.0361 15.0373 58.0361 12.8682V12.827C58.0361 11.4542 58.3587 10.2667 59.004 9.26449C59.6492 8.24859 60.5622 7.4661 61.7428 6.91696C62.9234 6.36783 64.31 6.09326 65.9025 6.09326C65.9231 6.09326 74.7779 6.09326 74.819 6.09326C74.8602 6.09326 74.922 6.09326 74.9632 6.09326ZM70.6594 10.3765H64.9964C64.1041 10.3765 63.3971 10.5962 62.8754 11.0355C62.3537 11.4611 62.0929 12.0582 62.0929 12.827V12.8682C62.0929 13.5958 62.3537 14.1792 62.8754 14.6186C63.3971 15.0441 64.1041 15.2569 64.9964 15.2569H70.6594V10.3765Z" fill="#023936"/>
<path d="M98.7063 6.09326V15.2569H96.5235H96.0705H92.8374H92.3638H89.1308H88.6777H86.5979V6.09326H82.2941V17.1514C82.2941 18.4145 82.0469 19.3342 81.5527 19.9108C81.0722 20.4737 80.3172 20.7551 79.2875 20.7551C78.7796 20.7551 78.2854 20.7483 77.8049 20.7345C77.3381 20.7208 76.789 20.7071 76.1575 20.6934L76.6517 24.3177C77.1871 24.4275 77.75 24.5099 78.3403 24.5648C78.9443 24.6197 79.5621 24.6471 80.1936 24.6471C83.6806 24.6471 85.7399 22.9517 86.3714 19.5608H88.6777H89.1308H92.3638H92.8374H96.0705H96.5235H103.01V6.09326H98.7063Z" fill="#023936"/>
<path d="M101.116 22.0526C100.69 21.6819 100.161 21.4966 99.53 21.4966C98.9122 21.4966 98.3837 21.6819 97.9444 22.0526C97.5051 22.4095 97.2854 22.89 97.2854 23.494C97.2854 24.1667 97.5119 24.6747 97.965 25.0179C98.4317 25.3474 98.9534 25.5121 99.53 25.5121C100.12 25.5121 100.635 25.3474 101.074 25.0179C101.527 24.6747 101.754 24.1667 101.754 23.494C101.754 22.89 101.541 22.4095 101.116 22.0526Z" fill="#023936"/>
<path d="M57.0682 29.713C57.2467 29.8503 57.4526 29.919 57.686 29.919C57.9194 29.919 58.1253 29.8503 58.3038 29.713C58.4823 29.5758 58.5715 29.3767 58.5715 29.1159C58.5715 28.8688 58.4891 28.6766 58.3244 28.5393C58.1596 28.3883 57.9469 28.3127 57.686 28.3127C57.4389 28.3127 57.233 28.3883 57.0682 28.5393C56.8898 28.6766 56.8005 28.8688 56.8005 29.1159C56.8005 29.3767 56.8898 29.5758 57.0682 29.713Z" fill="#00DB81"/>
<path d="M62.5252 35.1289H57.6448C56.9172 35.1289 56.3543 34.9573 55.9562 34.6141C55.5443 34.2572 55.3384 33.7424 55.3384 33.0697V31.7311H53.6704V33.2344C53.6704 34.3739 53.9724 35.2524 54.5765 35.8702C55.1805 36.488 56.0866 36.7969 57.2947 36.7969H64.1932V30.6809H62.5252V35.1289Z" fill="#00DB81"/>
<path d="M59.5805 29.713C59.7589 29.8503 59.9648 29.919 60.1982 29.919C60.4316 29.919 60.6375 29.8503 60.816 29.713C60.9945 29.5758 61.0837 29.3767 61.0837 29.1159C61.0837 28.8688 61.0013 28.6766 60.8366 28.5393C60.6581 28.3883 60.4453 28.3127 60.1982 28.3127C59.9511 28.3127 59.7452 28.3883 59.5805 28.5393C59.402 28.6766 59.3127 28.8688 59.3127 29.1159C59.3127 29.3767 59.402 29.5758 59.5805 29.713Z" fill="#00DB81"/>
<path d="M66.0259 36.7968H67.6939V28.1479H66.0259V36.7968Z" fill="#00DB81"/>
<path d="M73.4805 30.6809H71.03V32.3489H73.7276C74.2356 32.3489 74.6131 32.4862 74.8602 32.7608C75.0936 33.0216 75.2103 33.406 75.2103 33.9139V35.1289H69.1355V36.7969H76.7959V34.0787C76.7959 32.953 76.5282 32.1086 75.9928 31.5458C75.4574 30.9692 74.62 30.6809 73.4805 30.6809Z" fill="#00DB81"/>
<path d="M78.4021 36.7968H80.0701V28.1479H78.4021V36.7968Z" fill="#00DB81"/>
<path d="M83.859 29.404C84.0375 29.5413 84.2503 29.6099 84.4974 29.6099C84.717 29.6099 84.923 29.5413 85.1152 29.404C85.2936 29.2667 85.3829 29.0608 85.3829 28.7862C85.3829 28.5391 85.2936 28.3469 85.1152 28.2096C84.9504 28.0586 84.7445 27.9832 84.4974 27.9832C84.2365 27.9832 84.0237 28.0586 83.859 28.2096C83.6805 28.3469 83.5913 28.5391 83.5913 28.7862C83.5913 29.0608 83.6805 29.2667 83.859 29.404Z" fill="#00DB81"/>
<path fill-rule="evenodd" clip-rule="evenodd" d="M97.6973 28.1479H99.3859V36.7968H94.9173C94.6016 37.1675 94.1966 37.4627 93.7024 37.6823C93.2219 37.8882 92.6659 37.9912 92.0344 37.9912H90.9636C90.3321 37.9912 89.7623 37.8882 89.2544 37.6823C88.7602 37.4627 88.3483 37.1675 88.0188 36.7968H85.2388C84.9917 38.3619 84.0719 39.1444 82.4795 39.1444C82.2186 39.1444 81.9578 39.1375 81.6969 39.1238C81.4361 39.0963 81.189 39.0552 80.9556 39.0003L80.7703 37.6C81.0448 37.6137 81.2851 37.6205 81.491 37.6205C81.6969 37.6342 81.9166 37.6411 82.15 37.6411C82.6579 37.6411 83.0354 37.497 83.2826 37.2087C83.5159 36.9204 83.6326 36.4674 83.6326 35.8496V30.6808H85.3006V35.1289H87.3393C87.3393 35.0739 87.3324 35.019 87.3187 34.9641C87.3187 34.8955 87.3187 34.8337 87.3187 34.7788C87.3187 34.0924 87.4697 33.502 87.7717 33.0078C88.0738 32.4999 88.4993 32.1086 89.0485 31.834C89.5976 31.5595 90.236 31.4222 90.9636 31.4222H92.0344C92.7483 31.4222 93.3729 31.5595 93.9083 31.834C94.4437 32.1086 94.8624 32.4999 95.1645 33.0078C95.4665 33.502 95.6175 34.0855 95.6175 34.7582V34.7788C95.6175 34.8337 95.6106 34.8955 95.5969 34.9641C95.5969 35.019 95.59 35.0739 95.5763 35.1289H97.6973V28.1479ZM93.9289 34.717C93.9289 34.2228 93.7573 33.8246 93.4141 33.5226C93.0572 33.2343 92.5973 33.0902 92.0344 33.0902H90.9636C90.3733 33.0902 89.8996 33.2343 89.5427 33.5226C89.172 33.8246 88.9867 34.2228 88.9867 34.717V34.7376C88.9867 35.2043 89.172 35.5819 89.5427 35.8702C89.8996 36.1584 90.3733 36.3026 90.9636 36.3026H92.0344C92.5973 36.3026 93.0572 36.1584 93.4141 35.8702C93.7573 35.5819 93.9289 35.1975 93.9289 34.717Z" fill="#00DB81"/>
<path d="M101.342 28.1479V36.7968H103.01V28.1479H101.342Z" fill="#00DB81"/>
<path d="M147.655 15.3045L131.284 3.36086C130.563 2.84605 129.595 2.84607 128.874 3.38147L112.524 15.5722C111.597 16.2724 111.041 17.3844 111.041 18.5582V28.4426C111.041 29.4516 112.194 30.0076 112.977 29.3899L129.019 16.4783C129.698 15.9429 130.625 15.9429 131.304 16.4783L147.222 29.3693C148.005 30.0076 149.179 29.4516 149.179 28.4426V18.3111C149.179 17.1167 148.602 16.0047 147.655 15.3045Z" fill="#00DB81"/>
<path d="M114.027 34.4968L128.051 23.4386C128.833 22.8002 130.007 23.3768 130.007 24.3859L129.945 32.8082C129.945 33.8172 131.119 34.3938 131.922 33.7555L137.606 29.1427C138.347 28.5661 139.397 28.5867 140.097 29.2045L146.234 34.538C147.202 35.3823 146.605 36.9885 145.328 36.9885H114.892C113.574 36.9885 112.998 35.3205 114.027 34.4968Z" fill="#00DB81"/>
</svg>
