<svg width="24" height="25" viewBox="0 0 24 25" fill="none" xmlns="http://www.w3.org/2000/svg">
<g id="Bold / Money / Wallet 2">
<g id="Vector">
<path fill-rule="evenodd" clip-rule="evenodd" d="M21.1009 8.61193C21.0442 8.60835 20.9825 8.60838 20.9186 8.6084L20.9026 8.60841H18.3941C16.3264 8.60841 14.5572 10.236 14.5572 12.3584C14.5572 14.4808 16.3264 16.1084 18.3941 16.1084H20.9026L20.9186 16.1084C20.9825 16.1084 21.0442 16.1085 21.1009 16.1049C21.9408 16.0518 22.6835 15.3946 22.746 14.4766C22.7501 14.4164 22.75 14.3515 22.75 14.2914L22.75 14.2751V10.4417L22.75 10.4254C22.75 10.3653 22.7501 10.3004 22.746 10.2402C22.6835 9.3222 21.9408 8.66497 21.1009 8.61193ZM18.1717 13.3584C18.704 13.3584 19.1355 12.9107 19.1355 12.3584C19.1355 11.8061 18.704 11.3584 18.1717 11.3584C17.6394 11.3584 17.2078 11.8061 17.2078 12.3584C17.2078 12.9107 17.6394 13.3584 18.1717 13.3584Z" fill="#023936"/>
<path fill-rule="evenodd" clip-rule="evenodd" d="M20.9179 17.6084C21.067 17.6045 21.1799 17.7426 21.1394 17.8862C20.9387 18.5986 20.62 19.2059 20.1088 19.7172C19.3604 20.4655 18.4114 20.7976 17.239 20.9553C16.0998 21.1084 14.6442 21.1084 12.8064 21.1084H10.6936C8.85583 21.1084 7.40019 21.1084 6.26098 20.9553C5.08856 20.7976 4.13961 20.4655 3.39124 19.7172C2.64288 18.9688 2.31076 18.0198 2.15314 16.8474C1.99997 15.7082 1.99998 14.2526 2 12.4148V12.302C1.99998 10.4642 1.99997 9.00859 2.15314 7.86938C2.31076 6.69695 2.64288 5.74801 3.39124 4.99964C4.13961 4.25128 5.08856 3.91916 6.26098 3.76153C7.40019 3.60837 8.85582 3.60838 10.6936 3.6084L12.8064 3.6084C14.6442 3.60838 16.0998 3.60837 17.239 3.76153C18.4114 3.91916 19.3604 4.25128 20.1088 4.99964C20.62 5.51092 20.9386 6.11814 21.1394 6.83058C21.1799 6.97415 21.067 7.11227 20.9179 7.1084L18.394 7.10841C15.5574 7.10841 13.0571 9.34931 13.0571 12.3584C13.0571 15.3675 15.5574 17.6084 18.394 17.6084L20.9179 17.6084ZM7 16.1084C6.58579 16.1084 6.25 15.7726 6.25 15.3584V9.3584C6.25 8.94418 6.58579 8.6084 7 8.6084C7.41421 8.6084 7.75 8.94418 7.75 9.3584V15.3584C7.75 15.7726 7.41421 16.1084 7 16.1084Z" fill="#023936"/>
</g>
</g>
</svg>
