<svg width="33" height="32" viewBox="0 0 33 32" fill="none" xmlns="http://www.w3.org/2000/svg">
<g id="Bold / Electronic, Devices / Monitor Smartphone">
<g id="Vector">
<path d="M19.1665 2.66699H13.8332C8.80485 2.66699 6.2907 2.66699 4.7286 4.22909C3.1665 5.79119 3.1665 8.30534 3.1665 13.3337V14.667C3.1665 15.4025 3.1665 16.0663 3.17519 16.667H17.3021C17.4403 15.7613 17.75 14.8172 18.5333 14.0338C19.3574 13.2098 20.3593 12.9099 21.3073 12.7825C22.1681 12.6667 23.2263 12.6668 24.3805 12.667H24.6192C25.7733 12.6668 26.8316 12.6667 27.6924 12.7825C28.4085 12.8787 29.1554 13.0734 29.8332 13.5181V13.3337C29.8332 8.30534 29.8332 5.79119 28.2711 4.22909C26.709 2.66699 24.1948 2.66699 19.1665 2.66699Z" fill="#135C58"/>
<path d="M4.33808 21.4954C5.50965 22.667 7.39527 22.667 11.1665 22.667H15.4998V28.0003H11.1665C10.6142 28.0003 10.1665 28.448 10.1665 29.0003C10.1665 29.5526 10.6142 30.0003 11.1665 30.0003H18.5672L18.5333 29.9668C17.7093 29.1428 17.4094 28.1408 17.282 27.1929C17.1662 26.332 17.1664 25.2738 17.1665 24.1197V19.881C17.1664 19.2158 17.1663 18.5824 17.1885 18.0003H3.21764C3.31174 19.6775 3.57901 20.7363 4.33808 21.4954Z" fill="#135C58"/>
<path fill-rule="evenodd" clip-rule="evenodd" d="M29.8332 20.0003V24.0003C29.8332 26.5145 29.8332 27.7716 29.0521 28.5526C28.2711 29.3337 27.014 29.3337 24.4998 29.3337C21.9857 29.3337 20.7286 29.3337 19.9476 28.5526C19.1665 27.7716 19.1665 26.5145 19.1665 24.0003V20.0003C19.1665 17.4862 19.1665 16.2291 19.9476 15.448C20.7286 14.667 21.9857 14.667 24.4998 14.667C27.014 14.667 28.2711 14.667 29.0521 15.448C29.8332 16.2291 29.8332 17.4862 29.8332 20.0003ZM22.1665 26.667C22.1665 26.1147 22.6142 25.667 23.1665 25.667H25.8332C26.3855 25.667 26.8332 26.1147 26.8332 26.667C26.8332 27.2193 26.3855 27.667 25.8332 27.667H23.1665C22.6142 27.667 22.1665 27.2193 22.1665 26.667Z" fill="#135C58"/>
</g>
</g>
</svg>
