<svg width="106" height="36" viewBox="0 0 106 36" fill="none" xmlns="http://www.w3.org/2000/svg">
<rect width="106" height="36" rx="8" fill="white"/>
<path d="M20.7621 20.306C21.2381 20.306 21.6301 20.656 21.6301 21.132C21.6301 21.608 21.2381 22 20.7621 22C20.3981 22 20.0901 21.958 19.7121 21.888C19.8661 22.098 19.9361 22.364 19.9361 22.616C19.9361 24.142 18.6761 25.388 17.1641 25.388H12.8941C10.7801 25.388 9.05805 23.666 9.05805 21.538V18.99H10.7521V21.538C10.7521 22.728 11.7041 23.694 12.8941 23.694H17.1641C17.7521 23.694 18.2421 23.19 18.2421 22.616C18.2421 22.098 17.9201 21.636 17.4021 21.482L15.1901 20.586L15.9321 19.032C17.3741 19.648 17.5281 19.732 17.7101 19.788C18.6901 20.138 19.6561 20.306 20.7621 20.306ZM23.1547 12.018C23.7147 12.018 24.1627 12.466 24.1627 12.998C24.1627 13.544 23.7147 13.992 23.1547 13.992C22.6227 13.992 22.1747 13.544 22.1747 12.998C22.1747 12.466 22.6227 12.018 23.1547 12.018ZM21.7127 22H20.7467C20.2707 22 19.8787 21.608 19.8787 21.146C19.8787 20.656 20.2707 20.306 20.7467 20.306H21.7267C22.0907 20.306 22.3567 20.026 22.3567 19.676V15.238H24.0507V19.676C24.0507 20.95 23.0007 22 21.7127 22ZM32.0163 15.21V21.72C32.0163 22.728 31.6663 23.582 30.9663 24.212C29.9163 25.206 28.7683 25.402 26.2763 25.388V23.708C27.9563 23.722 29.0763 23.694 29.8463 22.98C30.0423 22.798 30.1823 22.532 30.2523 22.168L30.2663 22H28.8523C26.9763 22 25.4923 20.474 25.4923 18.57C25.4923 16.694 26.9763 15.21 28.8523 15.21H32.0163ZM28.8523 20.306H30.3083V16.904H28.8523C27.9143 16.904 27.1723 17.618 27.1723 18.57C27.1723 19.536 27.9143 20.306 28.8523 20.306ZM38.0973 20.306C38.5593 20.306 38.9373 20.67 38.9373 21.16C38.9373 21.636 38.5593 22 38.0973 22H37.6773C37.2153 22 36.7953 21.832 36.4873 21.594L36.4733 22.056C36.3473 23.932 35.0873 24.996 33.2673 25.332L32.6513 23.736C33.8833 23.484 34.8213 23.05 34.8213 21.664V15.238H36.5013V19.13C36.5013 19.774 37.0333 20.306 37.6773 20.306H38.0973ZM39.4973 13.166C40.0433 13.166 40.4913 13.6 40.4913 14.146C40.4913 14.692 40.0433 15.14 39.4973 15.14C38.9513 15.14 38.5033 14.692 38.5033 14.146C38.5033 13.6 38.9513 13.166 39.4973 13.166ZM42.0733 13.166C42.6193 13.166 43.0673 13.6 43.0673 14.146C43.0673 14.692 42.6193 15.14 42.0733 15.14C41.5273 15.14 41.0793 14.692 41.0793 14.146C41.0793 13.6 41.5273 13.166 42.0733 13.166ZM43.4453 20.306C43.9073 20.306 44.2853 20.67 44.2853 21.146C44.2853 21.622 43.8933 22 43.4313 22H42.7593C42.0453 22 41.4013 21.692 40.9533 21.244C40.5193 21.692 39.9173 22 39.2313 22H38.0833C37.5653 22 37.1873 21.636 37.1873 21.16C37.1873 20.67 37.5653 20.306 38.0833 20.306H39.0353C39.5673 20.306 40.0013 19.872 40.0013 19.34V16.568H41.6953V19.354C41.7653 19.886 42.2273 20.306 42.7593 20.306H43.4453ZM51.899 20.306H53.425V21.986L43.275 22V20.306H50.205V18.976C50.205 17.8 49.267 16.89 48.119 16.89H44.899L43.975 15L46.873 10.968L48.259 11.948L45.935 15.182H48.231C50.261 15.182 51.899 16.806 51.899 18.864V20.306ZM53.2581 22C52.7821 22 52.4041 21.622 52.4041 21.16C52.4041 20.684 52.7821 20.306 53.2581 20.306H53.9861C54.3221 20.306 54.5881 20.04 54.5881 19.704V12.228H56.2821V19.704C56.2821 20.964 55.2601 22 54.0001 22H53.2581ZM58.6597 22V12.2H60.3537V22H58.6597Z" fill="#202726"/>
<path d="M86 20C87.1046 20 88 19.1046 88 18C88 16.8954 87.1046 16 86 16C84.8954 16 84 16.8954 84 18C84 19.1046 84.8954 20 86 20Z" fill="#00DB81"/>
<g opacity="0.4">
<path d="M79.4669 10.3921C79.7595 10.6853 79.759 11.1601 79.4658 11.4527C77.7872 13.128 76.75 15.4422 76.75 18C76.75 20.5878 77.8116 22.9262 79.525 24.6059C79.8208 24.8959 79.8255 25.3707 79.5356 25.6665C79.2456 25.9623 78.7708 25.967 78.475 25.677C76.4856 23.7269 75.25 21.0071 75.25 18C75.25 15.0278 76.4572 12.3362 78.4062 10.391C78.6994 10.0984 79.1743 10.0989 79.4669 10.3921Z" fill="#00DB81"/>
<path d="M92.6164 10.4645C92.9122 10.1745 93.387 10.1792 93.677 10.475C95.5771 12.4133 96.75 15.0704 96.75 18C96.75 20.9645 95.5491 23.6499 93.609 25.5938C93.3164 25.887 92.8415 25.8875 92.5484 25.5949C92.2552 25.3023 92.2547 24.8274 92.5473 24.5342C94.2182 22.86 95.25 20.5512 95.25 18C95.25 15.4787 94.2422 13.1943 92.6059 11.5251C92.3159 11.2293 92.3206 10.7544 92.6164 10.4645Z" fill="#00DB81"/>
</g>
<g opacity="0.8">
<path d="M82.3092 13.4875C82.5923 13.79 82.5765 14.2646 82.2741 14.5476C81.3252 15.4356 80.75 16.6502 80.75 17.9822C80.75 19.3297 81.3387 20.5572 82.3076 21.4478C82.6125 21.7282 82.6325 22.2026 82.3522 22.5076C82.0718 22.8125 81.5974 22.8325 81.2924 22.5522C80.0397 21.4006 79.25 19.7824 79.25 17.9822C79.25 16.203 80.0215 14.6012 81.2492 13.4524C81.5516 13.1694 82.0262 13.1851 82.3092 13.4875Z" fill="#00DB81"/>
<path d="M89.7429 13.5256C90.0292 13.2262 90.5039 13.2157 90.8033 13.502C92.0005 14.6471 92.75 16.2286 92.75 17.9822C92.75 19.7568 91.9825 21.3548 90.7604 22.503C90.4586 22.7866 89.9839 22.7718 89.7003 22.47C89.4167 22.1681 89.4315 21.6935 89.7333 21.4098C90.6778 20.5225 91.25 19.3107 91.25 17.9822C91.25 16.6691 90.6911 15.4704 89.7664 14.586C89.4671 14.2997 89.4566 13.8249 89.7429 13.5256Z" fill="#00DB81"/>
</g>
</svg>
