<svg width="32" height="32" viewBox="0 0 32 32" fill="none" xmlns="http://www.w3.org/2000/svg">
<g id="Bold Duotone / Messages, Conversation  /  Letter">
<path id="Vector" opacity="0.5" d="M18.9333 4H13.0666C7.53544 4 4.76987 4 3.05156 5.75736C1.33325 7.51472 1.33325 10.3431 1.33325 16C1.33325 21.6569 1.33325 24.4853 3.05156 26.2426C4.76987 28 7.53544 28 13.0666 28H18.9333C24.4644 28 27.23 28 28.9483 26.2426C30.6666 24.4853 30.6666 21.6569 30.6666 16C30.6666 10.3431 30.6666 7.51472 28.9483 5.75736C27.23 4 24.4644 4 18.9333 4Z" fill="#023936"/>
<path id="Vector_2" d="M25.5046 10.7119C25.9713 10.323 26.0343 9.62937 25.6454 9.16267C25.2565 8.69597 24.5629 8.63291 24.0962 9.02183L20.9298 11.6605C19.5614 12.8008 18.6114 13.5899 17.8094 14.1057C17.033 14.6051 16.5065 14.7727 16.0004 14.7727C15.4943 14.7727 14.9678 14.6051 14.1914 14.1057C13.3893 13.5899 12.4393 12.8008 11.071 11.6605L7.90457 9.02183C7.43787 8.63291 6.74425 8.69597 6.35533 9.16267C5.96641 9.62937 6.02946 10.323 6.49617 10.7119L9.71769 13.3965C11.0177 14.4799 12.0713 15.358 13.0013 15.9561C13.97 16.5791 14.9135 16.9727 16.0004 16.9727C17.0873 16.9727 18.0307 16.5791 18.9994 15.9561C19.9294 15.358 20.9831 14.4799 22.2831 13.3965L25.5046 10.7119Z" fill="#023936"/>
</g>
</svg>
