<svg width="79" height="37" viewBox="0 0 79 37" fill="none" xmlns="http://www.w3.org/2000/svg">
<g clip-path="url(#clip0_6431_53495)">
<rect y="0.200195" width="79" height="36" rx="8" fill="#D32F2F" fill-opacity="0.1"/>
<mask id="mask0_6431_53495" style="mask-type:luminance" maskUnits="userSpaceOnUse" x="-97" y="-51" width="180" height="136">
<path d="M-97 -50.7998H83V84.0783H-97V-50.7998Z" fill="white"/>
</mask>
<g mask="url(#mask0_6431_53495)">
<g opacity="0.5">
<g opacity="0.5">
<path fill-rule="evenodd" clip-rule="evenodd" d="M31.6164 -81.8833C37.583 -80.3721 43.5331 -78.4863 49.3164 -76.2758C55.0331 -74.0903 60.6331 -71.5676 66.4664 -68.5703C72.7831 -65.3233 78.2664 -62.0512 80.6164 -60.64C85.933 -57.7801 90.6831 -54.8202 95.1331 -51.6106C101.666 -46.8899 107.5 -41.6321 112.45 -35.9873C118.916 -28.6189 123.916 -20.6137 127.3 -12.1713V-12.1588C132.316 0.354866 132.7 11.3949 132.566 18.6133C132.483 22.1851 132.25 26.0691 131.866 29.5535C131.1 36.6845 129.25 43.7281 126.366 50.5095C124.4 56.3542 121.65 62.0616 118.2 67.4817C114.05 74.0258 108.866 80.1827 102.8 85.8151C80.8664 106.122 48.2664 118.523 13.3831 119.834C10.1497 119.947 7.16638 119.972 1.69971 119.972C-1.33362 119.972 -4.95029 119.959 -8.80029 119.959H-9.0336C-12.8836 119.947 -16.8503 119.947 -20.0336 119.947C-37.1836 119.947 -53.7169 117.511 -69.1836 112.728C-78.8836 109.718 -88.0336 105.809 -96.3836 101.089C-104.95 96.2431 -112.65 90.5858 -119.25 84.254C-128.017 75.8241 -134.717 66.4076 -139.15 56.2543C-142.384 50.0724 -144.75 43.5533 -146.184 36.8469C-148.05 28.1297 -147.9 21.1985 -147.65 16.7525C-147.75 9.88375 -146.917 3.0774 -145.167 -3.47917C-142.334 -14.0446 -137.15 -24.0356 -129.767 -33.1898C-123.184 -41.3574 -114.95 -48.7133 -105.3 -55.045C-101.534 -57.5053 -97.6336 -59.7658 -93.4003 -61.9513L-93.2503 -62.0387L-93.1003 -62.1137C-90.0336 -63.8121 -84.867 -66.672 -79.1503 -69.4945C-74.0503 -72.0047 -69.2336 -74.1403 -64.4336 -76.0011C-48.1169 -82.3329 -30.9669 -85.8921 -13.4503 -86.579C-11.4003 -86.654 -9.3336 -86.6914 -7.26694 -86.6914H-7.25027C5.89972 -86.6914 18.983 -85.0679 31.6164 -81.8833ZM-7.26694 -86.4416C-9.31694 -86.4416 -11.4003 -86.4042 -13.4336 -86.3292C-30.9003 -85.6424 -48.0003 -82.0956 -64.2836 -75.7763C-69.0669 -73.9155 -73.8836 -71.7924 -78.967 -69.2822C-84.6836 -66.4722 -89.8336 -63.6123 -92.9003 -61.9138C-93.0003 -61.8639 -93.1003 -61.8098 -93.2003 -61.7515C-97.4336 -59.566 -101.334 -57.293 -105.067 -54.8452C-114.7 -48.5384 -122.917 -41.2075 -129.484 -33.0649C-136.85 -23.9357 -142.017 -13.9572 -144.834 -3.42923C-146.584 3.12734 -147.417 9.90872 -147.317 16.7525C-147.617 21.8854 -147.6 28.5918 -145.85 36.8094C-144.417 43.5159 -142.067 49.9975 -138.834 56.1669C-134.417 66.3077 -127.75 75.6867 -118.984 84.1041C-112.4 90.4109 -104.734 96.0683 -96.1836 100.889C-87.8503 105.597 -78.7336 109.494 -69.0503 112.491C-53.6336 117.274 -37.1503 119.697 -20.0336 119.697C-16.8669 119.697 -12.8836 119.697 -9.0336 119.709C-5.10027 119.709 -1.38362 119.722 1.69971 119.722C7.14972 119.722 10.133 119.697 13.3664 119.585C48.1664 118.273 80.6664 105.909 102.55 85.6528C108.6 80.0453 113.766 73.9008 117.9 67.3817C121.35 61.9617 124.083 56.2793 126.05 50.4471C128.916 43.7031 130.766 36.6845 131.533 29.541C131.916 26.0441 132.15 22.1726 132.233 18.6133C132.366 11.4074 131.983 0.392342 126.983 -12.0839V-12.0964C123.6 -20.5138 118.633 -28.5066 112.183 -35.8499C107.233 -41.4823 101.416 -46.7151 94.8997 -51.4233C88.8664 -55.7944 83.3997 -58.8416 80.4164 -60.4402C77.4331 -62.2261 72.2831 -65.2733 66.2664 -68.3705C60.4664 -71.3553 54.8664 -73.8655 49.1664 -76.0511C43.3997 -78.2616 37.4664 -80.1348 31.5164 -81.646C18.8997 -84.8306 5.86638 -86.4416 -7.25027 -86.4416C-7.2614 -86.4416 -7.26694 -86.4416 -7.26694 -86.4416Z" fill="#313131" fill-opacity="0.36"/>
</g>
<g opacity="0.5">
<path fill-rule="evenodd" clip-rule="evenodd" d="M30.0664 -77.8372C35.7998 -76.3761 41.5164 -74.5527 47.0664 -72.4172C52.5498 -70.3191 57.9331 -67.8963 63.5164 -65.0114C67.8664 -62.7759 71.7498 -60.5154 74.5831 -58.8669C75.5664 -58.2924 76.3998 -57.8054 77.1331 -57.3933C77.4331 -57.2184 77.7609 -57.0311 78.1164 -56.8313C81.0164 -55.1952 85.8998 -52.4477 91.0831 -48.7136C97.3331 -44.1927 102.916 -39.1722 107.65 -33.7896C113.85 -26.7585 118.633 -19.1029 121.883 -11.0476C126.7 0.916534 127.1 11.457 126.966 18.3508C126.916 21.7602 126.683 25.5193 126.333 28.9287C125.633 35.4853 124 41.9669 121.483 48.1988C121.428 48.332 121.372 48.4652 121.316 48.5984C121.233 48.7983 121.15 48.998 121.083 49.1979C119.8 52.6073 118.2 56.6162 116.133 60.4752C115.233 62.1987 114.25 63.9221 113.2 65.5956C109.433 71.6776 104.416 77.6222 98.2831 83.2546C77.2164 102.612 45.8831 114.414 12.2998 115.663C9.19977 115.775 6.33308 115.8 1.11641 115.8H1.08308C-1.81691 115.8 -5.28357 115.788 -8.95024 115.788H-9.21692C-12.9169 115.775 -16.7336 115.763 -19.7836 115.763C-30.3169 115.763 -40.6836 114.814 -50.6169 112.928C-56.1836 111.879 -61.6836 110.517 -66.9836 108.881C-76.3002 106.009 -85.0836 102.25 -93.1002 97.7041C-101.117 93.1332 -108.45 87.6756 -114.9 81.4812C-121.567 75.0995 -126.967 68.1433 -130.984 60.7874C-131.817 59.2513 -132.567 57.6528 -133.284 56.1042C-133.517 55.6129 -133.75 55.1176 -133.984 54.618C-137.367 47.5369 -139.5 41.6173 -140.684 35.9973C-142.317 28.2918 -142.184 22.0599 -142.084 17.0519L-142.067 16.7148C-141.917 8.8469 -141.184 2.87725 -139.7 -2.63027C-137 -12.7336 -132.05 -22.2999 -124.984 -31.0545C-118.684 -38.86 -110.8 -45.8911 -101.55 -51.9357C-97.6502 -54.4834 -93.5669 -56.7313 -90.0836 -58.5921C-90.028 -58.6254 -89.9669 -58.6588 -89.9002 -58.6921L-89.8169 -58.742C-86.8502 -60.3905 -81.8836 -63.138 -76.3836 -65.8481C-71.4836 -68.2709 -66.8502 -70.3191 -62.2336 -72.1174C-46.4836 -78.2619 -30.0002 -81.7212 -13.2336 -82.3956C-11.2502 -82.483 -9.25023 -82.5205 -7.28357 -82.5205H-7.26691H-7.25024V-82.2707C-7.26135 -82.2707 -7.27246 -82.2707 -7.28357 -82.2707C-9.25023 -82.2707 -11.2336 -82.2333 -13.2169 -82.1458C-29.9502 -81.4715 -46.4169 -78.0121 -62.0836 -71.9051C-66.6836 -70.1067 -71.3169 -68.0586 -76.2002 -65.6358C-81.7002 -62.9258 -86.6502 -60.1907 -89.6169 -58.5422C-89.7058 -58.4922 -89.8002 -58.4423 -89.9002 -58.3924C-93.9336 -56.2318 -97.7502 -54.0962 -101.334 -51.7483C-110.55 -45.7163 -118.417 -38.7101 -124.7 -30.9296C-131.75 -22.2 -136.684 -12.6711 -139.384 -2.58027C-141.05 3.68906 -141.6 10.1707 -141.734 16.7148C-141.834 21.6728 -142.017 28.1044 -140.35 35.9598C-138.984 42.404 -136.534 48.5485 -133.684 54.5431C-132.7 56.6037 -131.767 58.6768 -130.667 60.6875C-126.617 68.1183 -121.267 74.9746 -114.634 81.3314C-108.367 87.3384 -101.1 92.821 -92.9002 97.5042C-84.9336 102.025 -76.1836 105.784 -66.8502 108.657C-61.5502 110.293 -56.1002 111.641 -50.5336 112.691C-40.6169 114.564 -30.3169 115.513 -19.7836 115.513C-16.7336 115.513 -12.9169 115.525 -9.21692 115.538C-5.45026 115.538 -1.88358 115.55 1.08308 115.55C1.09421 115.55 1.1053 115.55 1.11641 115.55C6.31642 115.55 9.18307 115.525 12.2831 115.413C45.7997 114.177 77.0665 102.362 98.0164 83.1047C103.85 77.7471 108.95 71.8649 112.9 65.4832C113.955 63.8097 114.933 62.107 115.833 60.3753C117.766 56.766 119.3 52.982 120.75 49.123C120.883 48.7858 121.033 48.4611 121.166 48.1239C123.666 41.9295 125.3 35.4603 126 28.9037C126.35 25.5193 126.583 21.7602 126.633 18.3508C126.766 11.457 126.366 0.941528 121.566 -10.9727V-10.9852C118.333 -19.0154 113.55 -26.646 107.366 -33.6522C102.65 -39.0224 97.0831 -44.0303 90.8498 -48.5263C85.0665 -52.6975 79.7664 -55.5824 76.9331 -57.1934C73.9831 -58.8669 69.0998 -61.8392 63.3331 -64.8115C57.7498 -67.6715 52.3831 -70.0942 46.9164 -72.2048C41.3831 -74.3279 35.6664 -76.1388 29.9664 -77.6C17.8331 -80.6847 5.29976 -82.2707 -7.25024 -82.2707V-82.5205C5.31642 -82.5205 17.8664 -80.9469 30.0664 -77.8372Z" fill="#313131" fill-opacity="0.36"/>
</g>
<g opacity="0.5">
<path fill-rule="evenodd" clip-rule="evenodd" d="M28.5141 -73.7778C33.9974 -72.379 39.4808 -70.6181 44.7974 -68.57C50.0641 -66.5468 55.2308 -64.2114 60.5808 -61.4514C64.7474 -59.3034 68.4808 -57.1303 71.2141 -55.5442C72.1308 -54.9947 72.9308 -54.5327 73.6308 -54.133C73.9308 -53.9665 74.253 -53.7875 74.5974 -53.596C77.3974 -52.0099 82.0808 -49.3748 87.0141 -45.8155C92.9974 -41.5069 98.3141 -36.7238 102.847 -31.5909C108.764 -24.897 113.347 -17.6036 116.464 -9.93552C116.464 -9.93552 116.464 -9.93134 116.464 -9.92301C121.081 1.46669 121.481 11.5201 121.381 18.0892C121.347 21.3487 121.131 24.9829 120.781 28.3049C120.114 34.6492 118.564 40.906 116.181 46.9131C116.125 47.0463 116.07 47.1754 116.014 47.3003C115.931 47.4876 115.847 47.6874 115.781 47.8748C114.214 52.071 112.647 55.6302 110.981 58.7524C110.181 60.3384 109.264 61.962 108.197 63.6979C104.697 69.4427 99.8307 75.1626 93.7474 80.7076C88.7641 85.241 83.1141 89.3997 76.9141 93.0714C70.7808 96.7181 64.1141 99.8902 57.0641 102.525C50.0141 105.16 42.5641 107.259 34.9308 108.757C27.1808 110.281 19.2141 111.205 11.2141 111.492C8.23076 111.605 5.51408 111.617 0.514084 111.617H0.464096C-2.35257 111.617 -5.70258 111.617 -9.26924 111.605H-9.41925H-9.51924C-13.0192 111.605 -16.6359 111.592 -19.5359 111.592C-29.6359 111.592 -39.5692 110.68 -49.1026 108.895C-54.4359 107.895 -59.7192 106.597 -64.7859 105.036C-73.7859 102.276 -82.2026 98.6788 -89.8026 94.3203C-97.2192 90.0616 -104.203 84.8164 -110.569 78.7219C-117.086 72.4775 -122.136 65.9958 -125.969 58.9023C-126.769 57.4161 -127.486 55.88 -128.169 54.3938C-128.391 53.9276 -128.614 53.4614 -128.836 52.9951C-132.036 46.2262 -134.053 40.5438 -135.186 35.1487C-136.719 27.8054 -136.603 21.8358 -136.503 17.0401V16.6779C-136.353 9.28461 -135.636 3.41494 -134.253 -1.79285C-131.669 -11.4341 -126.953 -20.5634 -120.203 -28.9184C-114.186 -36.3616 -106.653 -43.0556 -97.8026 -48.8378C-94.0693 -51.2731 -90.1359 -53.4336 -86.7859 -55.232C-86.7303 -55.2653 -86.6748 -55.2987 -86.6192 -55.332L-86.5192 -55.3819C-83.6692 -56.9555 -78.9026 -59.6031 -73.6359 -62.2008C-68.9193 -64.5237 -64.4692 -66.4969 -60.0359 -68.2453C-44.8359 -74.1899 -29.0192 -77.5493 -13.0026 -78.2112C-11.1026 -78.2987 -9.16924 -78.3486 -7.2859 -78.3486H-7.21925V-78.0989C-7.21925 -78.0989 -7.22481 -78.0989 -7.23592 -78.0989C-7.24702 -78.0989 -7.25813 -78.0989 -7.26924 -78.0989C-7.26924 -78.0989 -7.2748 -78.0989 -7.2859 -78.0989C-9.16924 -78.0989 -11.0859 -78.0489 -12.9859 -77.9615C-29.0026 -77.2996 -44.8359 -73.9151 -59.8859 -68.0204C-64.3026 -66.2845 -68.7526 -64.3113 -73.4526 -61.9884C-78.7192 -59.3908 -83.4692 -56.7556 -86.3359 -55.1696C-86.4137 -55.128 -86.5026 -55.078 -86.6026 -55.0198C-90.4859 -52.9466 -94.1526 -50.886 -97.5859 -48.6505C-106.386 -42.8932 -113.903 -36.2242 -119.903 -28.7935C-126.636 -20.476 -131.353 -11.3717 -133.919 -1.74291C-135.519 4.23918 -136.053 10.4211 -136.169 16.6904C-136.269 21.4486 -136.436 27.6056 -134.853 35.1113C-133.553 41.2932 -131.236 47.1879 -128.519 52.9077C-127.586 54.8934 -126.703 56.8666 -125.653 58.8024C-121.786 65.9459 -116.669 72.465 -110.303 78.5595C-104.353 84.2793 -97.4859 89.5995 -89.6026 94.1204C-82.0192 98.4665 -73.6192 102.063 -64.6692 104.811C-59.5859 106.372 -54.3526 107.658 -49.0192 108.657C-39.5026 110.443 -29.6359 111.342 -19.5359 111.342C-16.6026 111.342 -12.9526 111.355 -9.41925 111.355C-5.80258 111.367 -2.38591 111.367 0.464096 111.367C0.486313 111.367 0.502975 111.367 0.514084 111.367C5.48074 111.367 8.23074 111.355 11.1974 111.242C43.4307 110.069 73.4474 98.8037 93.4974 80.5452C99.0974 75.4498 104.097 69.8174 107.897 63.598C108.881 61.9745 109.814 60.3385 110.664 58.665C112.514 55.2306 114.047 51.5964 115.464 47.8123C115.581 47.4876 115.731 47.1629 115.847 46.8382C118.231 40.8811 119.797 34.6117 120.447 28.2799C120.797 24.9954 121.014 21.3612 121.047 18.0892C121.147 11.5076 120.747 1.49166 116.147 -9.86057C113.047 -17.5161 108.464 -24.7721 102.564 -31.4535C98.0474 -36.5739 92.7474 -41.3446 86.7807 -45.6282C81.2641 -49.6121 76.1808 -52.3721 73.4308 -53.9332C70.5974 -55.5443 65.9141 -58.4042 60.3974 -61.2391C55.0474 -63.9991 49.8974 -66.322 44.6474 -68.3452C39.3474 -70.3933 33.8808 -72.1417 28.4141 -73.5405C16.7641 -76.5503 4.76408 -78.0989 -7.21925 -78.0989V-78.3486C4.74741 -78.3486 16.7641 -76.8125 28.5141 -73.7778Z" fill="#313131" fill-opacity="0.36"/>
</g>
<g opacity="0.6">
<path fill-rule="evenodd" clip-rule="evenodd" d="M26.9672 -69.7315C32.2172 -68.3828 37.4505 -66.6968 42.5505 -64.7236C47.5838 -62.7753 52.5172 -60.5399 57.6505 -57.8923C61.6338 -55.8316 65.2172 -53.746 67.8338 -52.2224C68.7172 -51.7103 69.4838 -51.2608 70.1505 -50.8861C70.4394 -50.7196 70.7505 -50.5405 71.0838 -50.349C73.9505 -48.738 78.2672 -46.3027 82.9672 -42.9183C88.6505 -38.822 93.7171 -34.2761 98.0338 -29.4055C103.7 -23.0238 108.067 -16.105 111.051 -8.82409C111.051 -8.81577 111.051 -8.81165 111.051 -8.81165C115.484 2.02855 115.884 11.5824 115.801 17.8268C115.767 20.9365 115.584 24.4333 115.25 27.6679C114.617 33.8123 113.15 39.8569 110.867 45.6267C110.812 45.7516 110.756 45.8806 110.7 46.0138C110.634 46.1886 110.55 46.376 110.484 46.5633C109.134 50.26 107.567 53.7943 105.834 57.0288C105.1 58.515 104.234 60.0761 103.2 61.812C99.9505 67.2571 95.3838 72.6023 89.2338 78.1473C84.4671 82.4434 79.0672 86.3773 73.1338 89.8492C67.2672 93.296 60.8838 96.3183 54.1338 98.8161C47.3672 101.314 40.2172 103.299 32.9005 104.723C25.4672 106.172 17.8172 107.046 10.1339 107.321C7.28386 107.433 4.68384 107.446 -0.0661621 107.446H-0.14949C-2.81616 107.446 -6.01616 107.433 -9.39949 107.433H-9.59949C-12.9661 107.421 -16.4661 107.421 -19.2828 107.421C-28.9495 107.421 -38.4662 106.559 -47.5662 104.861C-52.6828 103.924 -57.7328 102.688 -62.5828 101.201C-71.2328 98.5663 -79.2828 95.1069 -86.5161 90.9232C-93.4495 86.9143 -99.8995 82.0188 -106.216 75.9492C-112.516 69.9422 -117.333 63.7478 -120.949 57.0163C-121.716 55.5926 -122.399 54.1065 -123.049 52.6828C-123.249 52.2415 -123.455 51.8044 -123.666 51.3715C-126.699 44.9023 -128.616 39.4822 -129.683 34.2994C-131.133 27.3182 -131.016 21.6109 -130.933 17.0275V16.6529C-130.799 9.62173 -130.116 4.02674 -128.783 -0.943764C-126.349 -10.1355 -121.833 -18.8401 -115.399 -26.7829C-109.683 -33.8515 -102.499 -40.2332 -94.0495 -45.7407C-90.4828 -48.0636 -86.7162 -50.1368 -83.4828 -51.8602C-83.4273 -51.8935 -83.3717 -51.9268 -83.3162 -51.9601L-83.2328 -52.0101H-83.2162C-80.4828 -53.5212 -75.9161 -56.0564 -70.8661 -58.5542C-66.3495 -60.7896 -62.0828 -62.6879 -57.8328 -64.3614C-43.2828 -70.0812 -28.1328 -73.3408 -12.7662 -74.0402C-10.8661 -74.1276 -9.01614 -74.165 -7.28281 -74.165H-7.23283H-7.19948V-73.9153C-7.2217 -73.9153 -7.24393 -73.9153 -7.26615 -73.9153C-7.27726 -73.9153 -7.28281 -73.9153 -7.28281 -73.9153C-9.09948 -73.9153 -10.9328 -73.8653 -12.7495 -73.7904C-28.0495 -73.091 -43.2328 -69.819 -57.6828 -64.1366C-61.9328 -62.4631 -66.1828 -60.5773 -70.6828 -58.3543C-75.7161 -55.8566 -80.2828 -53.3339 -83.0328 -51.8103C-83.1106 -51.7603 -83.1939 -51.7103 -83.2828 -51.6604C-87.0328 -49.6622 -90.5662 -47.689 -93.8328 -45.5534C-102.233 -40.0709 -109.399 -33.7266 -115.116 -26.658C-121.516 -18.7402 -126.016 -10.0854 -128.466 -0.893761C-129.983 4.80109 -130.483 10.6833 -130.599 16.6529C-130.683 21.2237 -130.849 27.1059 -129.349 34.262C-128.133 40.1816 -125.916 45.814 -123.349 51.284C-122.466 53.1698 -121.633 55.0681 -120.633 56.9165C-116.949 63.7852 -112.083 69.9546 -105.949 75.7993C-100.316 81.207 -93.8662 86.3648 -86.3162 90.7359C-79.0995 94.9071 -71.0662 98.3415 -62.4662 100.964C-57.5995 102.45 -52.6162 103.674 -47.4828 104.623C-38.3995 106.309 -28.9495 107.171 -19.2828 107.171C-16.4661 107.171 -12.9828 107.171 -9.59949 107.184C-6.14948 107.184 -2.86617 107.196 -0.14949 107.196C-0.116165 107.196 -0.0883789 107.196 -0.0661621 107.196C4.65051 107.196 7.28383 107.184 10.1172 107.071C41.0838 105.96 69.8505 95.2443 88.9672 77.9974C94.3505 73.1393 99.2838 67.7691 102.9 61.7121C103.834 60.151 104.717 58.5649 105.517 56.9414C107.251 53.686 108.8 50.2017 110.167 46.4884C110.284 46.1762 110.417 45.864 110.551 45.5517C112.817 39.8194 114.3 33.7624 114.917 27.6554C115.25 24.4583 115.434 20.9615 115.467 17.8268C115.551 11.5575 115.134 2.04105 110.734 -8.73671V-8.74921C107.767 -16.0051 103.401 -22.9114 97.7672 -29.2681C93.4505 -34.1262 88.4005 -38.6471 82.7338 -42.7309C77.4838 -46.515 72.6172 -49.1626 69.9505 -50.6863C67.2171 -52.2349 62.7338 -54.9574 57.4672 -57.6799C52.3505 -60.3151 47.4172 -62.5506 42.4005 -64.4988C37.3172 -66.4595 32.1005 -68.1455 26.8672 -69.4943C15.7172 -72.4041 4.21718 -73.9153 -7.19948 -73.9153V-74.165C4.16719 -74.165 15.6672 -72.6789 26.9672 -69.7315Z" fill="#313131" fill-opacity="0.36"/>
</g>
<g opacity="0.6">
<path fill-rule="evenodd" clip-rule="evenodd" d="M25.4154 -65.6855C30.4154 -64.3867 35.432 -62.7632 40.282 -60.8649C45.0987 -59.0041 49.8154 -56.856 54.7154 -54.3333C58.5321 -52.3601 61.9654 -50.3619 64.4654 -48.9007C65.2987 -48.4137 66.0154 -47.989 66.6487 -47.6269C66.9376 -47.4687 67.2431 -47.298 67.5654 -47.1148C70.3154 -45.5662 74.4487 -43.2308 78.8987 -40.0212C84.3154 -36.1248 89.132 -31.8161 93.232 -27.2078C98.6154 -21.1633 102.782 -14.5942 105.632 -7.70043C109.832 2.49036 110.249 11.5946 110.215 17.5642C110.199 20.6239 110.015 23.9959 109.715 27.0431C109.115 32.9753 107.715 38.795 105.549 44.34C105.504 44.4649 105.454 44.5898 105.399 44.7146C105.332 44.8895 105.265 45.0643 105.199 45.2392C103.982 48.5862 102.499 51.8832 100.665 55.3051C99.9987 56.7163 99.2154 58.1775 98.1987 59.9259C95.1821 65.0838 90.8987 70.0668 84.6987 75.5993C80.1654 79.6331 75.0154 83.3547 69.3654 86.6393C63.7487 89.8863 57.632 92.7337 51.1821 95.0941C44.7154 97.4669 37.882 99.3528 30.8654 100.702C23.7487 102.063 16.4154 102.9 9.06538 103.162C6.33205 103.249 3.86537 103.274 -0.651291 103.274H-0.751289C-3.30128 103.274 -6.33463 103.262 -9.5513 103.262H-9.78461C-13.0013 103.249 -16.3346 103.237 -19.0346 103.237C-28.2679 103.237 -37.3513 102.425 -46.0513 100.826C-50.9346 99.9397 -55.7513 98.7658 -60.4013 97.3545C-68.6846 94.8443 -76.368 91.5473 -83.2346 87.5384C-89.5846 83.8293 -95.5013 79.2709 -101.885 73.1764C-107.968 67.3567 -112.568 61.4495 -115.935 55.1178C-116.668 53.7565 -117.301 52.3453 -117.935 50.9715C-118.124 50.5635 -118.312 50.1514 -118.501 49.7351C-121.368 43.5907 -123.168 38.4079 -124.168 33.4499C-125.551 26.8433 -125.451 21.3982 -125.368 17.0147L-125.351 16.6151C-125.235 9.94608 -124.601 4.6384 -123.335 -0.0948181C-121.018 -8.83691 -116.735 -17.1045 -110.618 -24.6476C-105.168 -31.3541 -98.3346 -37.4111 -90.3013 -42.6439C-86.9013 -44.8544 -83.2846 -46.8401 -80.1846 -48.5011C-80.1291 -48.5344 -80.0735 -48.5635 -80.018 -48.5885L-79.9346 -48.6385C-77.318 -50.0996 -72.918 -52.5224 -68.1013 -54.9077C-63.7846 -57.0558 -59.7013 -58.8667 -55.6346 -60.4777C-48.718 -63.2127 -41.5679 -65.3858 -34.368 -66.9593C-27.1513 -68.5329 -19.818 -69.5071 -12.5513 -69.8568C-10.6846 -69.9442 -8.91796 -69.9941 -7.3013 -69.9941H-7.28461H-7.18462V-69.7444C-7.21795 -69.7444 -7.25128 -69.7444 -7.28461 -69.7444C-7.28461 -69.7444 -7.29018 -69.7444 -7.3013 -69.7444C-9.01796 -69.7444 -10.7846 -69.6944 -12.518 -69.607C-27.1013 -68.9076 -41.6513 -65.723 -55.4846 -60.2654C-59.5513 -58.6544 -63.618 -56.8311 -67.918 -54.708C-72.7346 -52.3101 -77.1013 -49.8998 -79.7513 -48.4386C-79.8291 -48.397 -79.9068 -48.3512 -79.9846 -48.3012C-83.6013 -46.3655 -86.968 -44.4797 -90.0846 -42.4565C-98.068 -37.2487 -104.885 -31.2292 -110.335 -24.5227C-116.418 -17.0045 -120.685 -8.78698 -123.001 -0.057373C-124.451 5.35023 -124.918 10.9452 -125.018 16.6151C-125.101 20.9986 -125.251 26.6185 -123.851 33.4124C-122.701 39.0822 -120.618 44.4399 -118.185 49.6477C-117.351 51.4585 -116.568 53.2694 -115.618 55.0303C-112.118 61.6244 -107.468 67.4316 -101.618 73.0266C-96.268 78.1344 -90.2346 83.1299 -83.018 87.3386C-76.168 91.335 -68.518 94.632 -60.268 97.1298C-55.6346 98.541 -50.868 99.6899 -45.968 100.589C-37.2846 102.188 -28.2679 102.987 -19.0346 102.987C-16.3513 102.987 -13.0179 102.999 -9.78461 103.012C-6.48461 103.012 -3.36796 103.024 -0.751289 103.024C-0.717957 103.024 -0.684624 103.024 -0.651291 103.024C3.81537 103.024 6.33205 102.999 9.04872 102.912C38.7154 101.85 66.2321 91.6847 84.4487 75.4369C89.5987 70.841 94.4487 65.7331 97.8987 59.826C98.782 58.3148 99.6154 56.7787 100.365 55.2177C101.999 52.1454 103.549 48.811 104.865 45.1768C104.982 44.877 105.115 44.5773 105.232 44.2775C107.382 38.77 108.782 32.9128 109.382 27.0306C109.682 23.9334 109.865 20.549 109.882 17.5642C109.915 11.5946 109.515 2.59022 105.315 -7.62555C102.482 -14.5068 98.3154 -21.0384 92.9487 -27.0704C88.8654 -31.6663 84.0654 -35.9624 78.6821 -39.8339C73.6821 -43.4307 69.032 -45.9658 66.4487 -47.427C63.832 -48.9257 59.5654 -51.5233 54.532 -54.121C49.6487 -56.6437 44.9321 -58.7792 40.132 -60.6526C35.2987 -62.5259 30.2987 -64.1494 25.3154 -65.4483C14.6487 -68.2582 3.66539 -69.7444 -7.18462 -69.7444V-69.9941C3.59871 -69.9941 14.5654 -68.5455 25.4154 -65.6855Z" fill="#313131" fill-opacity="0.36"/>
</g>
<g opacity="0.6">
<path fill-rule="evenodd" clip-rule="evenodd" d="M23.8664 -61.6385C28.6331 -60.3897 33.3998 -58.8286 38.0331 -57.0177C42.6164 -55.2318 47.0998 -53.1837 51.7831 -50.7609C55.4164 -48.8876 58.6998 -46.9768 61.0998 -45.5781C61.8831 -45.116 62.5664 -44.7163 63.1664 -44.3791C63.4442 -44.2209 63.7442 -44.0502 64.0664 -43.8671C66.6831 -42.3809 70.6331 -40.1454 74.8498 -37.1232C79.9664 -33.439 84.5331 -29.3677 88.4164 -25.0091C93.5498 -19.2893 97.5164 -13.0949 100.216 -6.58828C100.216 -6.57996 100.216 -6.57578 100.216 -6.57578C104.216 3.02804 104.65 11.6452 104.633 17.3026C104.616 20.2374 104.466 23.472 104.183 26.4194C103.633 32.0143 102.266 37.7591 100.233 43.0543C100.189 43.1709 100.144 43.2874 100.1 43.404C100.033 43.5788 99.9664 43.7537 99.8997 43.916C98.5164 47.8125 96.8331 51.1345 95.5164 53.5823C94.9164 54.9061 94.1831 56.3173 93.1998 58.0283C89.6331 64.2976 84.3664 69.3431 80.1664 73.0397C75.8664 76.8363 70.9664 80.3331 65.5831 83.4178C60.2331 86.4775 54.3998 89.1627 48.2498 91.3857C42.0664 93.6211 35.5331 95.3945 28.8331 96.6684C22.0331 97.9672 15.0164 98.7415 7.98312 98.9913C5.39978 99.0787 2.94978 99.0911 -1.25022 99.0911H-1.36688C-3.80021 99.0911 -6.68356 99.0912 -9.73356 99.0787H-9.9669C-13.0336 99.0787 -16.2002 99.0662 -18.7835 99.0662C-27.5835 99.0662 -36.2336 98.3044 -44.5169 96.7932C-49.1835 95.9565 -53.7835 94.8575 -58.2002 93.5087C-66.1335 91.1234 -73.4502 87.9762 -79.9335 84.1547C-87.3502 79.7836 -93.2335 74.5134 -97.5335 70.4171C-103.45 64.7722 -107.7 59.3146 -110.917 53.2326C-111.617 51.9088 -112.234 50.535 -112.834 49.2113C-113 48.8449 -113.172 48.4786 -113.35 48.1123C-116.034 42.2675 -117.734 37.347 -118.667 32.6138C-119.95 26.3569 -119.867 21.1741 -119.8 17.0154L-119.784 16.5783C-119.684 10.284 -119.067 5.25098 -117.867 0.742554C-115.684 -7.53746 -111.634 -15.3678 -105.817 -22.5114C-100.667 -28.8556 -94.1836 -34.588 -86.5502 -39.546C-83.3169 -41.6441 -79.8502 -43.5549 -76.8836 -45.141C-76.828 -45.1659 -76.7724 -45.195 -76.7169 -45.2283L-76.6502 -45.2658L-76.6336 -45.2783C-74.1336 -46.6646 -69.9336 -48.9875 -65.3335 -51.2729C-61.2169 -53.3086 -57.3169 -55.0569 -53.4335 -56.5931C-46.8169 -59.2282 -39.9835 -61.3263 -33.1169 -62.8499C-26.2169 -64.3735 -19.2169 -65.3227 -12.3169 -65.6724C-10.4836 -65.7723 -8.85023 -65.8223 -7.30023 -65.8223H-7.28355H-7.16689V-65.5725C-7.20022 -65.5725 -7.2391 -65.5725 -7.28355 -65.5725C-7.28355 -65.5725 -7.28912 -65.5725 -7.30023 -65.5725C-8.95023 -65.56 -10.6169 -65.51 -12.3002 -65.4226C-26.1336 -64.7232 -40.0502 -61.626 -53.2669 -56.3808C-57.1669 -54.8322 -61.0502 -53.0962 -65.1502 -51.0606C-69.7502 -48.7752 -73.9002 -46.4772 -76.4502 -45.066C-76.528 -45.0244 -76.6058 -44.9827 -76.6835 -44.9411C-80.1502 -43.0803 -83.3669 -41.2819 -86.3336 -39.3586C-93.9169 -34.4381 -100.367 -28.7308 -105.534 -22.3865C-111.3 -15.2804 -115.35 -7.49994 -117.55 0.792557C-118.9 5.91293 -119.367 11.2081 -119.45 16.5908C-119.517 20.7745 -119.667 26.1197 -118.35 32.5763C-117.267 37.9715 -115.317 43.0668 -113.034 48.0248C-112.234 49.7358 -111.484 51.4592 -110.6 53.1452C-107.267 59.452 -102.867 64.922 -97.2669 70.2547C-92.2502 75.0629 -86.6169 79.896 -79.7336 83.9549C-73.2502 87.7764 -65.9669 90.911 -58.0669 93.2839C-53.6669 94.6202 -49.1169 95.7192 -44.4335 96.556C-36.1669 98.0546 -27.5835 98.8164 -18.7835 98.8164C-16.2169 98.8164 -13.0502 98.8289 -9.9669 98.8289C-6.83356 98.8414 -3.86688 98.8414 -1.36688 98.8414C-1.32243 98.8414 -1.28355 98.8414 -1.25022 98.8414C2.98311 98.8414 5.38312 98.8289 7.96645 98.7415C36.3498 97.7549 62.6331 88.1386 79.9164 72.8898C84.8498 68.5438 89.6164 63.6857 92.8997 57.9284C93.7164 56.4797 94.5164 55.0061 95.1998 53.4949C96.7498 50.61 98.3164 47.4254 99.5831 43.8536C99.6831 43.5664 99.7998 43.2791 99.9164 42.9919C101.933 37.7217 103.283 32.0518 103.85 26.4069C104.133 23.3971 104.283 20.15 104.3 17.3026C104.316 11.6452 103.9 3.1279 99.8997 -6.5009V-6.51334C97.1998 -13.0075 93.2497 -19.1769 88.1497 -24.8717C84.2664 -29.2178 79.7164 -33.2767 74.6164 -36.9358C69.8831 -40.3328 65.4498 -42.7556 62.9664 -44.1793C60.4498 -45.603 56.3831 -48.0883 51.5831 -50.561C46.9498 -52.9589 42.4498 -55.007 37.8831 -56.7929C33.2664 -58.6038 28.5164 -60.1523 23.7664 -61.4012C13.5831 -64.1238 3.11645 -65.5725 -7.16689 -65.5725V-65.8223C3.03311 -65.8223 13.4664 -64.411 23.8664 -61.6385Z" fill="#313131" fill-opacity="0.36"/>
</g>
<g opacity="0.6">
<path fill-rule="evenodd" clip-rule="evenodd" d="M22.3162 -57.5923C26.9162 -56.3559 31.4496 -54.8698 35.7829 -53.1713C40.1329 -51.4603 44.3996 -49.5121 48.8496 -47.2017C52.3162 -45.4033 55.4329 -43.5925 57.7162 -42.2562C58.4662 -41.8191 59.0996 -41.4444 59.6662 -41.1197C59.944 -40.9698 60.2385 -40.8033 60.5496 -40.6201C63.0496 -39.2089 66.7996 -37.0734 70.7996 -34.226C75.6329 -30.7541 79.9496 -26.92 83.6162 -22.8112C88.4662 -17.4286 92.2329 -11.5839 94.7996 -5.46443C98.5496 3.465 99.0329 11.2454 99.0496 17.0402C99.0496 19.8501 98.8996 22.9598 98.6329 25.7948C98.1162 31.1649 96.8329 36.6974 94.9329 41.7678C94.8885 41.8844 94.844 41.9968 94.7996 42.105C94.7329 42.2674 94.6662 42.4422 94.5996 42.6046C93.3662 46.1389 91.7662 49.2361 90.3662 51.8587C89.6662 53.4573 88.8329 54.9934 88.1996 56.1423C84.9829 61.9621 80.0495 66.6578 75.6496 70.4919C71.5662 74.0387 66.9162 77.3107 61.7996 80.1956C56.7162 83.068 51.1662 85.5907 45.3162 87.6763C39.4162 89.7744 33.1996 91.4355 26.7996 92.6344C20.2996 93.8583 13.6162 94.5951 6.89957 94.8199C4.44957 94.9073 2.1329 94.9198 -1.83377 94.9198H-1.98377C-4.30044 94.9198 -7.05042 94.9073 -9.95042 94.9073H-10.1504H-10.1838C-13.1004 94.8948 -16.1004 94.8948 -18.5171 94.8948C-26.9004 94.8948 -35.1338 94.1705 -42.9838 92.7593C-47.3671 91.985 -51.7338 90.9484 -56.0004 89.6745C-63.6338 87.3891 -70.5838 84.3918 -76.6504 80.7701C-83.1671 76.8861 -88.4504 72.1654 -93.2004 67.6445C-98.8671 62.2493 -102.9 57.0665 -105.9 51.3467C-106.567 50.0728 -107.15 48.7615 -107.734 47.4877C-107.878 47.1463 -108.028 46.8091 -108.184 46.4761C-110.7 40.9561 -112.284 36.2853 -113.167 31.7644C-114.367 25.8698 -114.284 20.9492 -114.217 17.0027V16.5531C-114.117 10.6085 -113.55 5.86283 -112.417 1.59169C-110.35 -6.23873 -106.517 -13.632 -101.034 -20.3759C-96.1671 -26.358 -90.0338 -31.7532 -82.8004 -36.4489C-79.7504 -38.4221 -76.4171 -40.258 -73.5838 -41.7816C-73.5282 -41.8066 -73.4782 -41.8315 -73.4338 -41.8565L-73.3504 -41.894L-73.3338 -41.9065C-70.9504 -43.2303 -66.9504 -45.4533 -62.5671 -47.6263C-58.6504 -49.5746 -54.9338 -51.2355 -51.2338 -52.7217C-44.9171 -55.2444 -38.4004 -57.2676 -31.8504 -58.7288C-25.2838 -60.2149 -18.6338 -61.1391 -12.0838 -61.5013C-10.3171 -61.5887 -8.75044 -61.6387 -7.30045 -61.6387H-7.28376H-7.15044V-61.3889C-7.19489 -61.3889 -7.23931 -61.3889 -7.28376 -61.3889C-7.29487 -61.3889 -7.30045 -61.3889 -7.30045 -61.3889C-8.86711 -61.3889 -10.4671 -61.3389 -12.0671 -61.2515C-25.1838 -60.5272 -38.4671 -57.5299 -51.0671 -52.4969C-54.7838 -51.0232 -58.4838 -49.3497 -62.3838 -47.414C-66.7671 -45.2409 -70.7171 -43.043 -73.1671 -41.6942C-73.2338 -41.6609 -73.306 -41.6192 -73.3838 -41.5693C-76.7004 -39.7959 -79.7838 -38.0725 -82.5838 -36.2616C-89.7504 -31.6158 -95.8671 -26.2456 -100.75 -20.251C-106.2 -13.5446 -110.017 -6.20127 -112.084 1.64164C-113.367 6.46228 -113.8 11.4702 -113.884 16.5531C-113.95 20.562 -114.084 25.6199 -112.834 31.7269C-111.834 36.8598 -110.017 41.6929 -107.867 46.4012C-107.134 48.0247 -106.417 49.6607 -105.584 51.2592C-102.417 57.2913 -98.2671 62.4117 -92.9338 67.4946C-88.2171 71.9905 -82.9838 76.6738 -76.4504 80.5703C-70.3338 84.217 -63.4171 87.1768 -55.8838 89.4373C-51.6838 90.6986 -47.3671 91.7352 -42.9171 92.522C-35.0671 93.9332 -26.9004 94.6451 -18.5171 94.6451C-16.0838 94.6451 -13.0838 94.645 -10.1504 94.6575C-7.18377 94.6575 -4.3671 94.67 -1.98377 94.67C-1.92822 94.67 -1.87821 94.67 -1.83377 94.67C2.14957 94.67 4.43291 94.6575 6.8829 94.5701C33.9829 93.646 59.0329 84.5791 75.3996 70.3295C80.0995 66.2332 84.7829 61.6499 87.8996 56.0425C88.6662 54.6437 89.3996 53.2325 90.0496 51.7838C91.4996 49.0737 93.0662 46.039 94.2829 42.5422C94.3829 42.2549 94.4996 41.9801 94.5996 41.7054C96.4996 36.66 97.7829 31.2024 98.2996 25.7698C98.5829 22.8725 98.7162 19.7502 98.7162 17.0402C98.6996 11.695 98.2829 3.67732 94.4829 -5.38948C91.9162 -11.4965 88.1662 -17.3162 83.3496 -22.6739C79.6829 -26.7577 75.3829 -30.5917 70.5662 -34.0386C66.0829 -37.2482 61.8829 -39.5461 59.4662 -40.9199C57.0829 -42.2936 53.1996 -44.6415 48.6496 -47.0019C44.2496 -49.2873 39.9662 -51.2356 35.6162 -52.9465C31.2329 -54.67 26.7162 -56.1436 22.2162 -57.355C12.5162 -59.9651 2.56623 -61.3889 -7.15044 -61.3889V-61.6387C2.3829 -61.6387 12.2996 -60.2774 22.3162 -57.5923Z" fill="#313131" fill-opacity="0.36"/>
</g>
<g opacity="0.7">
<path fill-rule="evenodd" clip-rule="evenodd" d="M20.7863 -53.5463C25.1362 -52.3599 29.4362 -50.9362 33.5196 -49.3127C37.6529 -47.6891 41.7029 -45.8283 45.9029 -43.6428C49.2029 -41.9319 52.1863 -40.1959 54.3529 -38.9345C55.0363 -38.5224 55.6529 -38.1727 56.1863 -37.873C56.4529 -37.7231 56.7363 -37.5608 57.0363 -37.386C59.4029 -36.0372 62.9863 -34.0015 66.7363 -31.3289C71.2863 -28.0694 75.3529 -24.4602 78.8196 -20.6136C83.3862 -15.5557 86.9529 -10.0856 89.3863 -4.35332C89.3863 -4.35332 89.3863 -4.34914 89.3863 -4.34082C92.9363 4.01413 93.4196 11.3325 93.4529 16.7776C93.4696 19.4502 93.353 22.4349 93.103 25.1575C92.6196 30.3278 91.4196 35.623 89.6196 40.4936C89.5751 40.5936 89.5307 40.6976 89.4863 40.8059C89.4362 40.9682 89.3696 41.1305 89.3196 41.2804C88.1696 44.6024 86.6696 47.4124 85.353 49.8851L85.2029 50.1474C84.5863 51.6335 83.8529 53.0448 83.2029 54.2437C80.3029 59.6638 75.6863 64.0348 71.1196 67.9438C67.2863 71.2408 62.8696 74.2881 58.0196 76.9856C53.2029 79.6582 47.9362 82.0061 42.3696 83.9543C36.7696 85.9276 30.8529 87.4886 24.7863 88.6126C18.5863 89.7491 12.2196 90.436 5.8196 90.6483C3.48626 90.7232 1.30293 90.7482 -2.41374 90.7482H-2.59708C-4.78041 90.7482 -7.34708 90.7357 -10.0804 90.7357H-10.3471C-12.9637 90.7232 -15.9304 90.7232 -18.2637 90.7232C-26.2137 90.7232 -34.0137 90.0488 -41.4638 88.725C-45.5971 88.0131 -49.7471 87.0391 -53.7971 85.8277C-61.0804 83.6671 -67.6637 80.8197 -73.3637 77.3728C-79.7971 73.5013 -84.8137 68.7181 -88.8471 64.8841C-94.3471 59.6388 -98.0637 54.8806 -100.864 49.4605C-101.514 48.2366 -102.064 46.9753 -102.614 45.7514C-102.747 45.4517 -102.88 45.1519 -103.014 44.8522C-105.364 39.6444 -106.847 35.2109 -107.664 30.9148C-108.78 25.3823 -108.697 20.7365 -108.647 17.0024V16.5153C-108.564 10.9454 -108.03 6.46188 -106.964 2.42802C-105.014 -4.94032 -101.414 -11.8965 -96.2304 -18.2408C-91.6638 -23.8482 -85.8804 -28.9311 -79.0471 -33.3521C-76.1638 -35.2129 -72.9971 -36.9613 -70.2637 -38.4225C-70.2193 -38.4475 -70.1749 -38.4725 -70.1304 -38.4974L-70.0638 -38.5349L-70.0471 -38.5474C-67.7638 -39.8087 -63.9638 -41.9068 -59.8138 -43.98C-56.0804 -45.8283 -52.5471 -47.4269 -49.0304 -48.8381C-43.0137 -51.2484 -36.8137 -53.1967 -30.5971 -54.6204C-24.3471 -56.0566 -18.0304 -56.9558 -11.8637 -57.3179C-10.1471 -57.4179 -8.66375 -57.4678 -7.31375 -57.4678H-7.29709H-7.13042V-57.218C-7.18597 -57.218 -7.24153 -57.218 -7.29709 -57.218C-7.29709 -57.218 -7.30264 -57.218 -7.31375 -57.218C-8.78042 -57.218 -10.3137 -57.1556 -11.8304 -57.0682C-24.2304 -56.3438 -36.8637 -53.4464 -48.8637 -48.6133C-52.3971 -47.2021 -55.9304 -45.616 -59.6304 -43.7677C-63.7804 -41.7071 -67.5304 -39.6214 -69.8637 -38.3351C-69.9304 -38.2935 -70.0026 -38.2519 -70.0804 -38.2102C-73.2471 -36.5118 -76.1804 -34.8757 -78.8304 -33.1648C-85.5971 -28.7937 -91.3471 -23.7483 -95.9471 -18.1159C-101.08 -11.8216 -104.68 -4.91529 -106.63 2.47803C-107.83 7.02392 -108.23 11.7321 -108.314 16.5153C-108.364 20.3369 -108.497 25.1325 -107.33 30.8773C-106.397 35.7479 -104.714 40.3188 -102.697 44.7647C-102.014 46.3133 -101.347 47.8495 -100.564 49.3731C-97.5804 55.1179 -93.6638 59.9011 -88.5804 64.7217C-84.1804 68.9179 -79.3638 73.4388 -73.1471 77.1854C-67.4138 80.6448 -60.8471 83.4673 -53.6804 85.6028C-49.7137 86.7768 -45.6138 87.7509 -41.3804 88.4877C-33.9471 89.799 -26.2137 90.4734 -18.2637 90.4734C-15.9637 90.4734 -13.0971 90.4734 -10.3304 90.4859C-7.53041 90.4859 -4.84708 90.4984 -2.59708 90.4984C-2.53041 90.4984 -2.4693 90.4984 -2.41374 90.4984C1.31959 90.4984 3.48627 90.4735 5.80293 90.3985C31.6363 89.5368 55.4362 81.032 70.8696 67.7815C75.3529 63.935 79.9696 59.6138 82.8863 54.1563C83.6029 52.82 84.3029 51.4587 84.9029 50.06C86.2529 47.5248 87.8196 44.6399 88.9863 41.218C89.0862 40.9557 89.2029 40.6935 89.3029 40.4187C91.0696 35.6105 92.2863 30.3528 92.7696 25.145C93.0196 22.3476 93.1363 19.3378 93.1196 16.7776C93.1029 11.7447 92.6696 4.22645 89.0696 -4.26587V-4.27837C86.6362 -9.9982 83.0863 -15.4433 78.5363 -20.4763C75.0863 -24.3103 71.0363 -27.8945 66.5029 -31.1416C62.2863 -34.1639 58.3029 -36.3369 55.9863 -37.6732C53.7029 -38.972 50.0196 -41.2075 45.7196 -43.443C41.5363 -45.6035 37.4863 -47.4643 33.3696 -49.1003C29.2196 -50.7364 24.9363 -52.1476 20.6696 -53.3091C11.4529 -55.8193 2.01958 -57.218 -7.13042 -57.218V-57.4678C1.80292 -57.4678 11.2029 -56.144 20.7863 -53.5463Z" fill="#313131" fill-opacity="0.36"/>
</g>
<g opacity="0.8">
<path fill-rule="evenodd" clip-rule="evenodd" d="M9.93495 -25.2094C12.685 -24.3477 15.3016 -23.3861 17.735 -22.362C20.2516 -21.288 22.7516 -20.089 25.3516 -18.7153C27.435 -17.6163 29.2516 -16.5547 30.735 -15.693C31.0905 -15.4765 31.4239 -15.2767 31.735 -15.0936C31.9572 -14.9687 32.1961 -14.8354 32.4516 -14.6939C34.1349 -13.7198 36.2516 -12.4959 38.335 -11.0347C40.8516 -9.28631 43.1516 -7.33809 45.1683 -5.25248C47.885 -2.44252 50.0016 0.479876 51.4516 3.46468C51.4627 3.46468 51.4683 3.46468 51.4683 3.46468C53.635 7.89817 54.1516 11.9195 54.3516 14.9293C54.4683 16.6652 54.4683 18.8008 54.3516 20.7615C54.1349 24.2459 53.435 28.1548 52.435 31.4893C52.4127 31.5726 52.3849 31.6558 52.3516 31.7391C52.3183 31.839 52.285 31.9431 52.2516 32.0513C51.6516 34.1869 50.6016 35.7855 49.835 36.9469C49.5516 37.384 49.3016 37.7586 49.1183 38.0833C48.8849 39.1324 48.5349 40.0941 48.2016 40.9932C46.6849 45.0146 43.2016 47.4499 40.4016 49.3981C40.0516 49.6354 39.7349 49.8602 39.435 50.085C34.9516 53.2696 28.8849 56.0047 21.8516 57.9904C14.5516 60.0635 6.38495 61.2624 -1.73171 61.4622C-3.16505 61.4997 -4.51504 61.5122 -6.5317 61.5122H-6.89838C-8.26505 61.5122 -9.83172 61.5122 -11.465 61.4997H-11.6484C-13.3317 61.4997 -15.065 61.4997 -16.515 61.4997C-21.315 61.4997 -26.0984 61.1625 -30.765 60.5006C-33.3817 60.1259 -35.965 59.6014 -38.4317 58.9395C-43.1484 57.6531 -47.165 55.8798 -50.3484 53.6568C-52.8984 51.8959 -54.615 49.8602 -56.1317 48.0743C-56.9317 47.1252 -57.6817 46.226 -58.465 45.5017C-61.615 42.5668 -63.9817 40.1815 -65.765 36.2475C-66.1817 35.3234 -66.5317 34.3867 -66.8817 33.475L-66.8984 33.4376C-68.0317 30.4528 -68.765 27.7552 -69.1484 24.9702C-69.665 21.9979 -69.6484 19.3628 -69.6484 17.0399C-69.6373 16.7818 -69.6317 16.5279 -69.6317 16.2781C-69.6317 13.2683 -69.3484 10.6707 -68.7484 8.34777C-67.6984 4.15157 -65.665 0.230076 -62.6984 -3.30423C-60.115 -6.37645 -56.7817 -9.1864 -52.815 -11.6592C-51.1484 -12.6957 -49.115 -13.8197 -47.1484 -14.8812C-47.1262 -14.8979 -47.0984 -14.9146 -47.065 -14.9312L-47.0317 -14.9562L-46.9817 -14.9812C-45.415 -15.8429 -43.0484 -17.1542 -40.465 -18.4655C-38.0984 -19.6644 -35.865 -20.7135 -33.6317 -21.6751C-25.7317 -25.0845 -17.4317 -27.345 -10.2817 -28.0568C-9.44837 -28.1442 -8.36504 -28.2317 -7.34837 -28.2441C-7.2706 -28.2441 -7.19281 -28.2441 -7.11504 -28.2441C-2.21503 -28.2441 3.53495 -27.2201 9.93495 -25.2094ZM-7.34837 -27.9944C-8.26504 -27.9819 -9.23171 -27.9069 -10.2317 -27.807C-17.565 -27.0827 -25.7317 -24.7848 -33.465 -21.4628C-35.7317 -20.4887 -37.9817 -19.4271 -40.2817 -18.2532C-42.8817 -16.9419 -45.2484 -15.6305 -46.8317 -14.7563C-46.8762 -14.7314 -46.9206 -14.7064 -46.965 -14.6815C-49.115 -13.5075 -51.0317 -12.4459 -52.5984 -11.4718C-56.4817 -9.04902 -59.7817 -6.28902 -62.415 -3.16684C-65.3317 0.292532 -67.365 4.13907 -68.4317 8.39772C-69.065 10.9204 -69.2984 13.5556 -69.2984 16.2781C-69.315 18.7883 -69.3817 21.6607 -68.8317 24.9453C-68.3984 27.9675 -67.5984 30.7025 -66.5817 33.3626C-66.215 34.2993 -65.865 35.2359 -65.4484 36.1601C-63.715 39.9691 -61.465 42.3045 -58.1984 45.3518C-55.965 47.4374 -53.9984 50.7844 -50.1317 53.4819C-46.9484 55.6925 -42.9817 57.4284 -38.315 58.7022C-35.915 59.3516 -33.3817 59.8761 -30.715 60.2508C-26.1817 60.9002 -21.415 61.2499 -16.515 61.2499C-15.065 61.2499 -13.3317 61.2499 -11.6484 61.2499C-9.94838 61.2624 -8.31505 61.2624 -6.89838 61.2624C-6.77616 61.2624 -6.65392 61.2624 -6.5317 61.2624C-4.49837 61.2624 -3.14838 61.2499 -1.74837 61.2124C15.1016 60.8003 30.3683 56.192 39.2016 49.8977C42.1183 47.8121 46.2016 45.3518 47.885 40.9308C48.235 39.9941 48.5683 39.0325 48.8016 38.0209C49.485 36.7595 51.1016 34.9112 51.935 32.0014C51.9849 31.814 52.0516 31.6267 52.1016 31.4394C53.0683 28.2423 53.785 24.3833 54.0183 20.7615C54.1349 18.6385 54.1183 16.5154 54.0183 14.9418C53.835 12.0694 53.3683 8.06049 51.1516 3.55206C49.6516 0.517305 47.535 -2.36756 44.9016 -5.10259C42.9183 -7.13825 40.6516 -9.07401 38.1183 -10.8599C35.7183 -12.5334 33.2683 -13.8946 31.535 -14.9062C30.0183 -15.7804 27.7683 -17.1417 25.1683 -18.5154C22.6183 -19.8642 20.1183 -21.0631 17.5683 -22.1372C15.0183 -23.2112 12.4016 -24.1604 9.81829 -24.9721C3.96829 -26.8205 -1.86504 -27.9944 -7.11504 -27.9944C-7.19281 -27.9944 -7.2706 -27.9944 -7.34837 -27.9944Z" fill="#313131" fill-opacity="0.36"/>
</g>
<g opacity="0.9">
<path fill-rule="evenodd" clip-rule="evenodd" d="M8.39716 -21.1509C10.8972 -20.3391 13.2638 -19.4524 15.4638 -18.5033C17.7638 -17.5167 20.0471 -16.4177 22.4138 -15.1563C24.3138 -14.1447 25.9971 -13.1581 27.3471 -12.3714C27.6694 -12.1799 27.9694 -12.005 28.2472 -11.8468C28.4583 -11.7219 28.686 -11.5887 28.9305 -11.4471C30.4805 -10.548 32.4138 -9.43646 34.2805 -8.13764C36.4971 -6.60153 38.5471 -4.89061 40.3472 -3.05477C42.7971 -0.582006 44.7138 1.99068 46.0305 4.57584C48.0305 8.47232 48.5471 12.0066 48.7638 14.6543C48.8971 16.2403 48.9138 18.2385 48.7972 20.1368C48.6138 23.3963 47.9971 27.068 47.1138 30.2027C47.0916 30.286 47.0694 30.365 47.0472 30.44C47.0138 30.5399 46.9861 30.6356 46.9638 30.7272C46.3972 32.8253 45.3638 34.2865 44.6138 35.3605C44.3471 35.7477 44.1138 36.0849 43.9638 36.3596C43.7805 37.3587 43.4638 38.2954 43.1971 39.1071C41.8638 42.9536 38.5472 45.1267 35.8972 46.8626C35.5472 47.0999 35.2138 47.3122 34.8972 47.5245C30.8972 50.2346 25.3805 52.57 18.9305 54.2934C12.1805 56.0793 4.66381 57.1284 -2.81952 57.3032C-4.10286 57.3282 -5.36951 57.3406 -7.11951 57.3406H-7.51952C-8.75285 57.3406 -10.1528 57.3281 -11.6195 57.3281H-11.8362C-13.3695 57.3281 -14.9362 57.3281 -16.2695 57.3281C-20.6195 57.3157 -24.9862 57.0284 -29.2529 56.4664C-31.6362 56.1542 -33.9862 55.6921 -36.2362 55.0927C-40.5695 53.9437 -44.2195 52.3202 -47.0695 50.272C-49.3362 48.6485 -50.7862 46.7877 -52.0529 45.1516C-52.7695 44.24 -53.4362 43.3783 -54.1195 42.7413C-57.2195 39.8565 -59.2195 37.8582 -60.7529 34.3489C-61.1029 33.5247 -61.4029 32.7129 -61.7362 31.8012C-62.7195 29.1411 -63.3195 26.6933 -63.6529 24.1207C-64.0695 21.523 -64.0695 19.1627 -64.0695 17.0771C-64.0695 16.794 -64.0695 16.5192 -64.0695 16.2528C-64.0862 13.5802 -63.8362 11.2698 -63.3029 9.19667C-62.3695 5.45005 -60.5695 1.9657 -57.9195 -1.16896C-55.6029 -3.86652 -52.6362 -6.36429 -49.0695 -8.5623C-47.5695 -9.48647 -45.6862 -10.5355 -43.8529 -11.5221C-43.8306 -11.5304 -43.8029 -11.5429 -43.7695 -11.5596L-43.7362 -11.5845L-43.6862 -11.6095C-42.2529 -12.4088 -40.0695 -13.6202 -37.7195 -14.8191C-35.5362 -15.9181 -33.4862 -16.8923 -31.4362 -17.7914C-24.0862 -21.0135 -16.4862 -23.174 -10.0529 -23.8734C-9.23619 -23.9733 -8.28618 -24.0608 -7.36951 -24.0732H-7.35285C-7.27507 -24.0732 -7.20286 -24.0732 -7.13619 -24.0732C-2.76953 -24.0732 2.44715 -23.0866 8.39716 -21.1509ZM-7.35285 -23.8235C-8.18618 -23.811 -9.08619 -23.736 -10.0029 -23.6361C-16.6195 -22.9118 -24.1529 -20.6888 -31.2695 -17.5791C-33.3529 -16.6674 -35.4195 -15.6933 -37.5195 -14.6068C-39.9029 -13.3954 -42.0695 -12.1965 -43.5362 -11.3847C-43.5806 -11.3597 -43.6251 -11.3389 -43.6695 -11.3223C-45.6695 -10.2233 -47.4362 -9.24918 -48.8529 -8.37497C-52.3362 -6.22691 -55.2862 -3.79158 -57.6362 -1.03157C-60.2195 2.02816 -62.0362 5.43754 -62.9695 9.23411C-63.5362 11.4696 -63.7529 13.8175 -63.7362 16.2528C-63.7362 18.5632 -63.8029 21.1608 -63.3362 24.0957C-62.9695 26.8557 -62.3029 29.3285 -61.4195 31.7388C-61.1029 32.588 -60.8029 33.4247 -60.4362 34.274C-58.8862 37.7958 -56.8695 39.7815 -53.8529 42.579C-51.9362 44.3648 -50.3695 47.5495 -46.8529 50.0847C-44.0195 52.1203 -40.4362 53.7189 -36.1195 54.8554C-33.9362 55.4299 -31.6362 55.8919 -29.1862 56.2167C-25.0695 56.7662 -20.7362 57.0659 -16.2695 57.0784C-14.9362 57.0784 -13.3695 57.0784 -11.8362 57.0784C-10.3029 57.0784 -8.81952 57.0909 -7.51952 57.0909C-7.37507 57.0909 -7.24173 57.0909 -7.11951 57.0909C-5.31951 57.0909 -4.10286 57.0784 -2.81952 57.0534C12.7305 56.6912 26.8138 52.6574 34.6638 47.3497C37.3805 45.5013 41.3971 43.3158 42.8638 39.0447C43.1805 38.1705 43.4638 37.2588 43.6472 36.2972C44.2138 35.2106 45.8638 33.5247 46.6305 30.6772C46.6805 30.5024 46.7305 30.3275 46.7805 30.1527C47.6305 27.1929 48.2805 23.5337 48.4638 20.1243C48.5805 18.1011 48.5471 16.1154 48.4305 14.6792C48.2138 12.119 47.7472 8.60967 45.7305 4.67573C45.7305 4.6674 45.7305 4.66329 45.7305 4.66329C44.3638 2.01568 42.4638 -0.50705 40.0805 -2.90488C38.3305 -4.69077 36.3138 -6.38923 34.0472 -7.96281C31.9138 -9.43648 29.6805 -10.6978 28.0305 -11.647C26.6305 -12.4587 24.5805 -13.7076 22.2305 -14.9565C19.9138 -16.1804 17.6305 -17.2919 15.2972 -18.291C12.9805 -19.2776 10.6138 -20.1643 8.26381 -20.9261C2.88048 -22.6745 -2.43619 -23.8235 -7.13619 -23.8235C-7.20286 -23.8235 -7.27507 -23.8235 -7.35285 -23.8235Z" fill="#313131" fill-opacity="0.36"/>
</g>
<g opacity="0.9">
<path fill-rule="evenodd" clip-rule="evenodd" d="M6.85088 -17.1049C9.10088 -16.3431 11.2509 -15.5188 13.2176 -14.6571C15.2842 -13.7454 17.3342 -12.7463 19.4842 -11.5974C21.2176 -10.6732 22.7509 -9.774 23.9842 -9.03717C24.262 -8.87898 24.5176 -8.7291 24.7509 -8.58756C24.962 -8.46267 25.1842 -8.33779 25.4176 -8.2129C26.8342 -7.38865 28.6009 -6.3646 30.2342 -5.24061C32.1509 -3.91681 33.9509 -2.44313 35.5509 -0.857063C37.7342 1.29099 39.4342 3.48899 40.6175 5.68701C42.4342 9.04647 42.9509 12.1062 43.1842 14.3917C43.3176 15.7904 43.3509 17.7012 43.2676 19.512C43.1176 22.5093 42.5676 26.0311 41.8009 28.916C41.7787 28.9993 41.7564 29.0783 41.7342 29.1533C41.712 29.2365 41.6898 29.324 41.6676 29.4156C41.1342 31.4637 40.0842 32.8749 39.4009 33.7991C39.1509 34.1238 38.9342 34.4111 38.8176 34.6359C38.6842 35.56 38.4509 36.4217 38.2009 37.2085C37.0509 40.9176 33.7509 42.9159 31.3509 44.3646C31.0064 44.581 30.6787 44.785 30.3675 44.9765C26.8509 47.1995 21.9009 49.1477 16.0176 50.5839C9.83422 52.1075 2.95089 52.9817 -3.89911 53.1316C-5.04911 53.1566 -6.16577 53.1566 -7.68244 53.1566H-8.13245C-9.28245 53.1566 -10.5658 53.1566 -11.8991 53.1566H-12.0158C-13.3991 53.1566 -14.7991 53.1441 -15.9991 53.1441C-19.9158 53.1441 -23.8658 52.9069 -27.7158 52.4323C-29.8825 52.17 -32.0158 51.7704 -34.0324 51.2459C-37.9991 50.2343 -41.2824 48.7606 -43.7824 46.8748C-45.7991 45.3637 -47.0491 43.5903 -48.0324 42.1665C-48.6491 41.2798 -49.1824 40.518 -49.7824 39.9685L-49.8324 39.9186C-52.5491 37.3959 -54.3491 35.7348 -55.7324 32.4628C-56.0658 31.6635 -56.3324 30.8642 -56.5824 30.1649C-57.3824 27.8295 -57.8824 25.644 -58.1491 23.2711C-58.4824 21.0482 -58.4824 18.9625 -58.4991 17.1267C-58.4991 16.8186 -58.4991 16.5148 -58.4991 16.215C-58.5158 13.8921 -58.2991 11.869 -57.8491 10.0331C-57.0491 6.74858 -55.4491 3.68884 -53.1158 0.966301C-51.0991 -1.36909 -48.4824 -3.54212 -45.3158 -5.46538C-43.9991 -6.27715 -42.2491 -7.23878 -40.5491 -8.15046C-40.5269 -8.16711 -40.5047 -8.18375 -40.4824 -8.2004L-40.4491 -8.2129L-40.3825 -8.2504C-38.9825 -9.0247 -37.0824 -10.0862 -34.9491 -11.1727C-32.9658 -12.1843 -31.0991 -13.0835 -29.2324 -13.9078C-22.4324 -16.9425 -15.5324 -19.0031 -9.83244 -19.7025C-9.08244 -19.7899 -8.1991 -19.8899 -7.36576 -19.9023C-7.28799 -19.9023 -7.21023 -19.9023 -7.13245 -19.9023C-3.33245 -19.9023 1.38422 -18.9532 6.85088 -17.1049ZM-7.3491 -19.6526C-7.36021 -19.6526 -7.36576 -19.6526 -7.36576 -19.6526C-8.11576 -19.6401 -8.91577 -19.5526 -9.78243 -19.4527C-15.6658 -18.7284 -22.5658 -16.5928 -29.0658 -13.6954C-30.9658 -12.8587 -32.8491 -11.947 -34.7491 -10.9729C-36.9158 -9.86142 -38.8824 -8.77488 -40.2491 -8.01307C-40.2824 -7.99642 -40.3158 -7.9756 -40.3491 -7.95063C-42.2158 -6.93904 -43.8491 -6.03986 -45.1158 -5.27805C-48.1658 -3.40475 -50.7658 -1.29414 -52.8324 1.10369C-55.1158 3.7513 -56.6991 6.72359 -57.5158 10.0831C-57.9991 12.0313 -58.1824 14.0795 -58.1658 16.215C-58.1491 18.3381 -58.1991 20.661 -57.8158 23.2461C-57.5324 25.7439 -56.9991 27.9544 -56.2491 30.1024C-55.9991 30.8642 -55.7324 31.6261 -55.3991 32.3879C-54.0491 35.635 -52.2658 37.271 -49.5158 39.8187C-47.9158 41.2924 -46.7491 44.3146 -43.5491 46.6999C-41.0991 48.5482 -37.8824 49.9969 -33.9158 51.0085C-31.9658 51.5206 -29.8824 51.9202 -27.6658 52.1825C-23.9491 52.6446 -20.0491 52.8943 -15.9991 52.8943C-14.7991 52.8943 -13.3991 52.9068 -12.0158 52.9068C-10.6491 52.9068 -9.31578 52.9068 -8.13245 52.9068C-7.97689 52.9068 -7.82688 52.9068 -7.68244 52.9068C-6.14911 52.9068 -5.04911 52.9068 -3.89911 52.8818C10.3676 52.5821 23.3009 49.1352 30.1509 44.7892C32.6509 43.2031 36.5842 41.2923 37.8675 37.1461C38.1342 36.3343 38.3676 35.4851 38.4842 34.5734C38.9676 33.6742 40.6176 32.1256 41.3509 29.3656C41.3842 29.2033 41.4342 29.0409 41.4842 28.8661C42.2009 26.1435 42.7842 22.6842 42.9342 19.4995C43.0342 17.5763 42.9842 15.7154 42.8509 14.4166C42.6176 12.1686 42.1342 9.15891 40.3176 5.78695C39.0842 3.51401 37.3842 1.36595 35.2842 -0.707174C33.7342 -2.2308 31.9676 -3.70451 30.0009 -5.06578C28.1176 -6.35212 26.1009 -7.48855 24.5509 -8.40023C23.2509 -9.14955 21.4009 -10.261 19.2842 -11.3975C17.2176 -12.509 15.1509 -13.5206 13.0509 -14.4448C10.9676 -15.3564 8.81757 -16.1682 6.71757 -16.8801C1.81757 -18.5411 -2.99911 -19.6526 -7.13245 -19.6526C-7.21023 -19.6526 -7.28244 -19.6526 -7.3491 -19.6526Z" fill="#313131" fill-opacity="0.36"/>
</g>
<g opacity="0.9">
<path fill-rule="evenodd" clip-rule="evenodd" d="M5.29688 -13.0577C7.31355 -12.3458 9.21355 -11.584 10.9635 -10.7972C12.7969 -9.97298 14.6302 -9.06129 16.5469 -8.03722C18.0969 -7.20047 19.4969 -6.37621 20.6135 -5.71431C20.8358 -5.58109 21.0524 -5.45621 21.2635 -5.33964C21.4635 -5.21476 21.6747 -5.08987 21.8969 -4.96498C23.2302 -4.19068 24.7635 -3.30398 26.1635 -2.34235C27.8135 -1.23086 29.3469 0.00551033 30.7302 1.32931C32.6802 3.17764 34.1302 4.9635 35.1969 6.79934C36.8469 9.64677 37.3469 12.207 37.5969 14.1302C37.7469 15.3666 37.7969 17.14 37.7302 18.8759C37.6135 21.6734 37.1469 24.9455 36.4969 27.6305C36.4746 27.7138 36.4524 27.7929 36.4302 27.8678C36.408 27.9428 36.3913 28.0177 36.3802 28.0926C35.8802 30.1158 34.8302 31.4021 34.1469 32.2639C33.9302 32.5261 33.7469 32.7509 33.6635 32.9132C33.5802 33.8124 33.3802 34.6242 33.1969 35.3111C32.2135 38.8954 29.0635 40.6438 26.7469 41.9051C26.4247 42.0883 26.1191 42.2631 25.8302 42.4297C22.8635 44.1531 18.3469 45.7392 13.0969 46.9006C7.46354 48.137 1.21353 48.8488 -4.9698 48.9612C-6.00314 48.9862 -6.98646 48.9862 -8.25313 48.9862H-8.75313C-9.76979 48.9862 -10.9031 48.9862 -12.0698 48.9737H-12.2031C-13.4365 48.9737 -14.6698 48.9737 -15.7531 48.9737C-19.2365 48.9737 -22.7365 48.7739 -26.1865 48.3992C-28.1365 48.1869 -30.0365 47.8498 -31.8365 47.4126C-35.4198 46.526 -38.3365 45.2022 -40.5031 43.4912C-42.3031 42.0675 -43.2865 40.4315 -44.0865 39.1077C-44.5531 38.3209 -44.9698 37.634 -45.4365 37.2094C-45.6031 37.0595 -45.7642 36.9138 -45.9198 36.7722C-48.1365 34.7366 -49.6031 33.4003 -50.7198 30.5779C-51.0031 29.8535 -51.2365 29.1416 -51.4198 28.5297C-52.0531 26.544 -52.4365 24.5958 -52.6531 22.4227C-52.9031 20.5744 -52.9198 18.8635 -52.9198 17.215C-52.9198 16.8653 -52.9253 16.5239 -52.9365 16.1909C-52.9531 14.2302 -52.7698 12.4942 -52.3865 10.8832C-51.6865 7.9858 -50.3698 5.43812 -48.3365 3.10274C-46.5865 1.10454 -44.3698 -0.69387 -41.5698 -2.36736C-40.4865 -3.01677 -39.0531 -3.80354 -37.2531 -4.79015L-37.1865 -4.82759L-37.1531 -4.8526L-37.0865 -4.89004C-35.8198 -5.58941 -34.0865 -6.53856 -32.1865 -7.52517C-30.4031 -8.44933 -28.7198 -9.26111 -27.0365 -10.0354C-20.7698 -12.8828 -14.5865 -14.8311 -9.60312 -15.5179C-8.91979 -15.6054 -8.11979 -15.7053 -7.36979 -15.7178C-7.30312 -15.7178 -7.23091 -15.7178 -7.15313 -15.7178C-3.88646 -15.7178 0.313549 -14.8186 5.29688 -13.0577ZM-7.36979 -15.468C-8.03645 -15.4555 -8.7698 -15.3806 -9.55313 -15.2682C-14.7031 -14.5563 -20.9698 -12.5082 -26.8698 -9.82308C-28.5865 -9.03629 -30.2865 -8.21204 -32.0031 -7.32534C-33.9365 -6.32624 -35.6865 -5.33963 -36.9531 -4.64026C-36.9865 -4.62361 -37.0198 -4.60697 -37.0531 -4.59032C-38.7865 -3.65367 -40.2531 -2.84192 -41.3698 -2.16752C-44.0198 -0.581459 -46.2698 1.19191 -48.0531 3.24006C-50.0031 5.48803 -51.3531 8.02324 -52.0531 10.9206C-52.4531 12.5816 -52.6198 14.3425 -52.6031 16.1784C-52.5698 18.1141 -52.6198 20.1748 -52.3198 22.3978C-52.1031 24.6333 -51.7031 26.5815 -51.1031 28.4798C-50.8865 29.1541 -50.6531 29.8286 -50.3865 30.5029C-49.2198 33.4753 -47.6698 34.7616 -45.1865 37.047C-43.8865 38.2334 -43.1198 41.0684 -40.2698 43.3164C-38.1698 44.9774 -35.3365 46.2762 -31.7198 47.1754C-30.0031 47.6 -28.1365 47.9372 -26.1365 48.1495C-22.8531 48.5116 -19.3531 48.724 -15.7531 48.724C-14.6698 48.724 -13.4365 48.724 -12.2031 48.724C-10.9865 48.7365 -9.80313 48.7365 -8.75313 48.7365C-8.57535 48.7365 -8.40868 48.7365 -8.25313 48.7365C-6.95312 48.7365 -5.98647 48.7364 -4.98647 48.7115C7.99687 48.4742 19.7969 45.6268 25.6135 42.2423C27.9135 40.8936 31.7802 39.2575 32.8635 35.2612C33.0802 34.5118 33.2635 33.7125 33.3302 32.8633C33.7135 32.139 35.3802 30.7402 36.0469 28.0426C36.0802 27.8928 36.1191 27.7388 36.1635 27.5806C36.7802 25.0954 37.2635 21.8358 37.3969 18.8759C37.4635 17.0526 37.4135 15.3042 37.2635 14.1552C37.0135 12.2195 36.5135 9.70925 34.8969 6.89929C33.7969 5.02598 32.2969 3.22757 30.4802 1.49164C29.1302 0.217794 27.6302 -1.00607 25.9469 -2.16752C24.3302 -3.25404 22.5302 -4.27809 21.0469 -5.13981C19.8635 -5.83918 18.2135 -6.82579 16.3469 -7.82489C14.5135 -8.82398 12.6635 -9.74816 10.7802 -10.5849C8.9302 -11.4216 7.03021 -12.171 5.16354 -12.8329C0.746872 -14.394 -3.5698 -15.468 -7.15313 -15.468C-7.23091 -15.468 -7.30312 -15.468 -7.36979 -15.468Z" fill="#313131" fill-opacity="0.36"/>
</g>
<g opacity="0.9">
<path fill-rule="evenodd" clip-rule="evenodd" d="M3.74951 -9.01163C5.51617 -8.34973 7.18283 -7.65036 8.6995 -6.95099C10.2995 -6.21416 11.9495 -5.37743 13.6162 -4.46575C14.9995 -3.71643 16.2495 -2.97958 17.2495 -2.39262C17.4384 -2.28438 17.6106 -2.18031 17.7662 -2.0804C17.9662 -1.97216 18.1662 -1.8598 18.3662 -1.74324C19.5662 -1.03138 20.9328 -0.232118 22.1162 0.55467C23.4662 1.45386 24.7495 2.46548 25.9328 3.52702C27.5995 5.03815 28.8662 6.47437 29.7828 7.91057C31.2828 10.246 31.7495 12.319 31.9995 13.8551C32.1828 14.9167 32.2495 16.5652 32.1995 18.2512C32.1162 20.7864 31.7162 23.8836 31.1828 26.3439C31.1606 26.4271 31.1384 26.5145 31.1162 26.6061C31.1051 26.6644 31.0939 26.7186 31.0828 26.7685C30.6162 28.7917 29.5328 30.0031 28.8995 30.7274C28.7162 30.9272 28.5828 31.0771 28.4995 31.1895C28.4828 31.8764 28.3995 32.5632 28.1995 33.4125C27.3995 36.9093 24.3495 38.3955 22.1162 39.482C21.8162 39.6194 21.5328 39.7568 21.2828 39.8817C15.9995 42.6167 4.76617 44.6273 -6.0505 44.7897C-6.93383 44.8022 -7.8005 44.8147 -8.8005 44.8147H-9.35049C-10.2505 44.8022 -11.2005 44.8022 -12.1838 44.8022H-12.4005C-13.4672 44.8022 -14.5505 44.8022 -15.5005 44.8022C-18.5338 44.8022 -21.6172 44.6523 -24.6505 44.3651C-26.3838 44.2027 -28.0672 43.9405 -29.6338 43.5658C-32.8172 42.8165 -35.3838 41.655 -37.2172 40.0939C-38.8338 38.7452 -39.6005 37.1591 -40.1505 35.9977C-40.4838 35.3233 -40.7672 34.7363 -41.0838 34.4366C-41.3616 34.1951 -41.6172 33.9662 -41.8505 33.7497C-43.6338 32.1511 -44.8005 31.1021 -45.7005 28.6793C-45.8838 28.1547 -46.0672 27.6053 -46.2672 26.8934C-46.7172 25.2449 -47.0005 23.5589 -47.1505 21.5732C-47.3172 20.112 -47.3338 18.7133 -47.3338 17.352C-47.3505 16.9523 -47.3505 16.5528 -47.3505 16.1531C-47.3838 14.5296 -47.2505 13.0808 -46.9338 11.7321C-46.3672 9.29677 -45.2505 7.17369 -43.5338 5.23794C-42.0838 3.60192 -40.2005 2.1283 -37.8172 0.729562C-36.9005 0.192547 -35.6005 -0.531835 -33.9505 -1.43102L-33.8838 -1.46846L-33.8671 -1.48096L-33.7838 -1.53091C-32.6505 -2.15534 -31.1005 -3.00461 -29.4172 -3.87882C-27.8505 -4.70308 -26.3172 -5.46485 -24.8505 -6.15173C-19.1005 -8.8368 -13.6172 -10.6726 -9.38383 -11.3345C-8.76717 -11.4345 -8.0505 -11.5344 -7.38383 -11.5469C-7.31717 -11.5469 -7.25049 -11.5469 -7.18382 -11.5469C-4.38382 -11.5469 -0.800491 -10.7101 3.74951 -9.01163ZM-7.36715 -11.2971C-7.36715 -11.2971 -7.37272 -11.2971 -7.38383 -11.2971C-7.96717 -11.2846 -8.61716 -11.1972 -9.31716 -11.0973C-13.7505 -10.3979 -19.3838 -8.41222 -24.6672 -5.93946C-26.2005 -5.22344 -27.7227 -4.46994 -29.2338 -3.67899C-30.9338 -2.79229 -32.5005 -1.91806 -33.6672 -1.28113C-33.6894 -1.26448 -33.7172 -1.24784 -33.7505 -1.23119C-35.3338 -0.36947 -36.6671 0.36734 -37.6171 0.929332C-39.8505 2.24065 -41.7505 3.68935 -43.2505 5.37532C-44.9005 7.22365 -46.0338 9.30929 -46.6005 11.7696C-46.9172 13.1433 -47.0505 14.6045 -47.0172 16.1531C-46.9838 17.9015 -47.0338 19.6749 -46.8172 21.5482C-46.6672 23.5214 -46.4005 25.2074 -45.9338 26.8434C-45.7672 27.4429 -45.5838 28.0174 -45.3671 28.6168C-44.3838 31.3144 -43.0672 32.251 -40.8338 34.2742C-39.8672 35.1609 -39.4838 37.821 -36.9672 39.9316C-35.2338 41.3928 -32.7838 42.5667 -29.5338 43.3285C-28.0171 43.6782 -26.3838 43.953 -24.6171 44.1153C-21.7338 44.3901 -18.6672 44.5524 -15.5005 44.5524C-14.5505 44.5524 -13.4672 44.5524 -12.4005 44.5524C-11.3338 44.5524 -10.3005 44.5524 -9.35049 44.5649C-9.1616 44.5649 -8.97828 44.5649 -8.8005 44.5649C-7.7505 44.5649 -6.91716 44.5524 -6.06716 44.5399C5.64951 44.3651 16.3495 42.1421 21.0995 39.6818C23.1995 38.5953 26.9828 37.234 27.8662 33.375C28.0328 32.6757 28.1495 31.9388 28.1828 31.1396C28.4662 30.5901 30.1495 29.3536 30.7495 26.731C30.7828 26.5895 30.8162 26.4479 30.8495 26.3064C31.3495 24.0335 31.7662 20.9737 31.8662 18.2512C31.9162 16.5153 31.8328 14.9042 31.6662 13.8926C31.4162 12.2691 30.8995 10.2459 29.4828 8.02295C28.5328 6.52431 27.2328 5.08808 25.6662 3.68935C24.5495 2.66527 23.2829 1.67865 21.8829 0.742002C20.5329 -0.169674 18.9495 -1.06881 17.5662 -1.89307C16.4828 -2.5175 15.0328 -3.39171 13.4162 -4.26592C11.7995 -5.14013 10.1828 -5.97691 8.53283 -6.73872C6.8995 -7.48804 5.23284 -8.17491 3.59951 -8.78686C-0.333828 -10.2605 -4.13382 -11.2971 -7.18382 -11.2971C-7.23938 -11.2971 -7.30048 -11.2971 -7.36715 -11.2971Z" fill="#313131" fill-opacity="0.36"/>
</g>
<path fill-rule="evenodd" clip-rule="evenodd" d="M2.21716 -4.95214C3.71716 -4.35268 5.13381 -3.72826 6.45048 -3.09134C7.81714 -2.44192 9.23381 -1.70509 10.6838 -0.905812C11.9005 -0.231421 13.0172 0.430468 13.9172 0.954993L14.2838 1.16733L14.8172 1.47954C15.9338 2.14145 17.1005 2.8283 18.0505 3.45274C19.1172 4.13961 20.1505 4.91393 21.1171 5.7132C22.5171 6.88714 23.5838 7.97365 24.3505 9.01021C24.3505 9.01854 24.3505 9.02271 24.3505 9.02271C25.4005 10.4339 26.0672 11.8951 26.4172 13.5811C26.6005 14.4803 26.7005 15.9914 26.6505 17.6274C26.6005 20.3874 26.2171 23.2723 25.8671 25.0582C25.8449 25.1664 25.8227 25.2705 25.8005 25.3704L25.7838 25.4454C25.3505 27.4935 24.1838 28.6425 23.6171 29.2045C23.5171 29.3044 23.4005 29.4168 23.3505 29.4792C23.3838 30.1286 23.3338 30.7781 23.2005 31.5149C22.5838 34.9743 19.4505 36.2356 17.3838 37.0724C17.1505 37.1723 16.9338 37.2638 16.7338 37.3471C13.2338 38.8457 3.68381 40.5067 -7.13286 40.6191C-7.74953 40.6316 -8.39952 40.6316 -9.29953 40.6316C-9.51064 40.6316 -9.73286 40.6316 -9.96619 40.6316C-10.7662 40.6316 -11.5995 40.6316 -12.4662 40.6316H-12.5829C-13.4995 40.6316 -14.4162 40.6316 -15.2495 40.6191C-17.8495 40.6191 -20.4828 40.5192 -23.1162 40.3319C-24.6328 40.232 -26.0828 40.0197 -27.4328 39.7324C-30.2328 39.108 -32.4162 38.0964 -33.9495 36.6977C-35.3828 35.3864 -35.8829 33.9002 -36.2329 32.8137C-36.4162 32.2892 -36.5662 31.8396 -36.7495 31.6772C-37.0829 31.365 -37.3995 31.1027 -37.6828 30.853C-39.0828 29.6415 -39.9995 28.8548 -40.6828 26.7941C-40.8328 26.3195 -40.9662 25.8325 -41.0995 25.258C-41.3995 23.9592 -41.5662 22.5605 -41.6495 20.7122C-41.7329 19.6756 -41.7495 18.6265 -41.7495 17.6149C-41.7662 17.1279 -41.7662 16.6283 -41.7828 16.1163C-41.8162 14.8424 -41.7162 13.656 -41.4662 12.5695C-41.0329 10.5963 -40.1329 8.8978 -38.7329 7.37418C-37.5829 6.11282 -36.0495 4.95138 -34.0662 3.8274C-33.2329 3.35283 -31.9662 2.66592 -30.6495 1.92909L-30.5995 1.90415L-30.5662 1.89165L-30.4662 1.8292C-29.3995 1.24223 -28.0995 0.517889 -26.6662 -0.231434C-25.2829 -0.968268 -23.9329 -1.64263 -22.6495 -2.26707C-17.4329 -4.78979 -12.6495 -6.52573 -9.16618 -7.15017C-8.39952 -7.28754 -7.86619 -7.36251 -7.38286 -7.375C-7.3273 -7.375 -7.26618 -7.375 -7.19951 -7.375C-4.91618 -7.375 -1.83284 -6.57567 2.21716 -4.95214ZM-7.38286 -7.12523C-7.88286 -7.11274 -8.44952 -7.02529 -9.08285 -6.91289C-12.7995 -6.2385 -17.7829 -4.31525 -22.4662 -2.0548C-23.8162 -1.40538 -25.1495 -0.73097 -26.4662 -0.0316024C-27.9495 0.755186 -29.3162 1.50451 -30.3662 2.09148C-30.3995 2.10813 -30.4273 2.12059 -30.4495 2.12892C-31.8828 2.91571 -33.0662 3.56515 -33.8662 4.02723C-35.6828 5.06379 -37.2495 6.18776 -38.4662 7.51157C-39.7829 8.94777 -40.6995 10.6088 -41.1495 12.6194C-41.3829 13.6935 -41.4828 14.8674 -41.4495 16.1163C-41.3995 17.6774 -41.4495 19.176 -41.3162 20.6997C-41.2495 22.4106 -41.0995 23.8343 -40.7662 25.2205C-40.6495 25.7201 -40.5162 26.2196 -40.3495 26.7317C-39.5495 29.1545 -38.4662 29.729 -36.4995 31.5149C-35.8495 32.1019 -35.8328 34.5746 -33.6828 36.5478C-32.2995 37.8217 -30.2329 38.8582 -27.3329 39.4827C-26.0495 39.7699 -24.6495 39.9697 -23.0829 40.0821C-20.6329 40.2694 -17.9829 40.3694 -15.2495 40.3694C-14.4162 40.3819 -13.4995 40.3819 -12.5829 40.3819C-11.6829 40.3819 -10.7995 40.3819 -9.96619 40.3819C-9.73286 40.3819 -9.51064 40.3819 -9.29953 40.3819C-8.51619 40.3819 -7.83286 40.3819 -7.13286 40.3694C3.28381 40.2695 12.9338 38.6959 16.5672 37.1348C18.5005 36.2981 22.2005 35.199 22.8671 31.4899C22.9838 30.853 23.0505 30.1661 23.0172 29.4168C23.2171 29.0546 24.9172 27.968 25.4672 25.4079C25.4894 25.283 25.5116 25.154 25.5338 25.0208C25.9338 22.9851 26.2672 20.1252 26.3172 17.6149C26.3672 15.9914 26.2672 14.5052 26.0838 13.631C25.8172 12.3197 25.3005 10.7961 24.0672 9.1351C23.2505 8.0236 22.1505 6.96205 20.8671 5.87553C19.9505 5.12621 18.9505 4.36441 17.8338 3.64007C16.7338 2.91572 15.3672 2.12891 14.0672 1.3671C13.1005 0.792616 11.8672 0.055831 10.4838 -0.70598C9.10049 -1.46779 7.70048 -2.20463 6.26715 -2.8915C4.88381 -3.55341 3.45049 -4.17788 2.05049 -4.73987C-1.39951 -6.12612 -4.71618 -7.12523 -7.19951 -7.12523C-7.25507 -7.12523 -7.31619 -7.12523 -7.38286 -7.12523Z" fill="#313131" fill-opacity="0.36"/>
<path fill-rule="evenodd" clip-rule="evenodd" d="M0.681774 -0.905936C1.88177 -0.368922 3.0651 0.180557 4.19844 0.755038C5.33177 1.32952 6.51511 1.96647 7.74844 2.65335C8.81511 3.26529 9.83178 3.86475 10.6484 4.33932L10.7818 4.42671L11.0984 4.6016C12.1818 5.25101 13.2151 5.86294 13.9818 6.33751C14.7651 6.83706 15.5484 7.36159 16.2818 7.8986C17.4818 8.77281 18.2984 9.44717 18.9151 10.1091C19.8818 11.1331 20.5151 12.1822 20.8318 13.3062C21.0318 14.0305 21.1318 15.3419 21.1151 16.9904C21.0818 19.5131 20.7985 22.2107 20.5651 23.7593C20.5318 23.8966 20.5151 24.034 20.4984 24.1339C20.0984 26.232 18.7985 27.2936 18.2985 27.6932C18.2651 27.7182 18.2318 27.7432 18.1984 27.7682C18.2818 28.3926 18.2651 28.992 18.1984 29.6165C17.7651 33.1632 14.3151 34.1748 12.4651 34.7243C12.3651 34.7493 12.2651 34.7785 12.1651 34.8118C9.64845 35.5611 0.848438 36.4103 -8.21823 36.4602C-8.65156 36.4602 -9.11822 36.4602 -9.68489 36.4602C-9.97377 36.4602 -10.2738 36.4602 -10.5849 36.4602H-12.4849L-12.7682 36.4478C-13.5349 36.4478 -14.2849 36.4478 -15.0016 36.4478C-17.1516 36.4478 -19.3682 36.3978 -21.5849 36.2979C-22.8849 36.248 -24.1182 36.1106 -25.2182 35.8858C-27.6349 35.4112 -29.4682 34.537 -30.6682 33.3006C-31.9682 31.9643 -32.1682 30.4282 -32.3016 29.5166C-32.3349 29.2543 -32.3682 28.9796 -32.4182 28.8921C-32.7849 28.5674 -33.1182 28.2927 -33.4182 28.0554C-34.5182 27.1687 -35.1849 26.6317 -35.6682 24.8957C-35.7849 24.4961 -35.8682 24.0715 -35.9515 23.6219C-36.1349 22.4604 -36.1516 21.274 -36.1516 19.8628C-36.1682 19.3257 -36.1682 18.7763 -36.1682 18.2018C-36.1849 17.5274 -36.1849 16.828 -36.2182 16.0912C-36.2516 15.1296 -36.1849 14.2303 -36.0182 13.4186C-35.7016 11.895 -35.0182 10.6086 -33.9515 9.49713C-33.0849 8.61044 -31.9182 7.78617 -30.3182 6.92445C-29.6182 6.54979 -28.4849 5.9254 -27.3516 5.28848L-27.3016 5.27598L-27.2849 5.26347L-27.1016 5.16359C-26.2016 4.66404 -25.0849 4.05208 -23.9016 3.40267C-22.7016 2.76574 -21.5349 2.16625 -20.4515 1.61675C-17.7182 0.242989 -12.5849 -2.17978 -8.95155 -2.96657C-8.30155 -3.11644 -7.81823 -3.17892 -7.40156 -3.19141C-7.346 -3.19141 -7.29045 -3.19141 -7.23489 -3.19141C-5.45156 -3.19141 -2.85156 -2.44205 0.681774 -0.905936ZM-7.3849 -2.94163C-7.81823 -2.92914 -8.30155 -2.85419 -8.86821 -2.7293C-11.8682 -2.07989 -16.2016 -0.219069 -20.2682 1.82908C-21.4349 2.41605 -22.5849 3.01548 -23.7015 3.61494C-24.9682 4.28933 -26.1349 4.93878 -27.0849 5.46331C-27.1071 5.47163 -27.1293 5.4841 -27.1516 5.50075C-28.4349 6.20012 -29.4682 6.7746 -30.1182 7.12428C-31.5349 7.88609 -32.7349 8.68539 -33.6849 9.64702C-34.6849 10.6836 -35.3682 11.895 -35.6849 13.4561C-35.8516 14.2554 -35.9182 15.1296 -35.8849 16.0787C-35.8349 17.4525 -35.8516 18.6888 -35.8182 19.8628C-35.8182 21.299 -35.8015 22.4604 -35.6182 23.5844C-35.5515 24.0091 -35.4516 24.4211 -35.3349 24.8457C-34.7349 26.9813 -33.8682 27.2186 -32.1516 28.7422C-31.8182 29.042 -32.1849 31.3149 -30.4016 33.1507C-29.3516 34.2373 -27.6849 35.1364 -25.1349 35.6485C-24.0849 35.8608 -22.9016 35.9982 -21.5516 36.0481C-19.5182 36.1356 -17.3016 36.198 -15.0016 36.198C-14.2849 36.198 -13.5349 36.198 -12.7682 36.198C-12.0349 36.2105 -11.3016 36.2105 -10.5849 36.2105C-10.2738 36.2105 -9.97377 36.2105 -9.68489 36.2105C-9.16822 36.2105 -8.70156 36.2105 -8.21823 36.2105C0.915104 36.1605 9.58179 35.3113 12.0485 34.5745C13.8318 34.0375 17.4318 33.1632 17.8651 29.5915C17.9318 29.017 17.9484 28.3926 17.8651 27.6932C17.9651 27.5184 19.6818 26.5692 20.1651 24.0964C20.1873 23.9799 20.2096 23.8591 20.2318 23.7343C20.4985 21.9359 20.7484 19.2758 20.7818 16.9904C20.7984 15.4542 20.6984 14.093 20.4984 13.3561C20.2151 12.357 19.6818 11.3455 18.6484 10.259C17.9651 9.52212 17.0818 8.82276 16.0485 8.07343C15.3651 7.57388 14.5984 7.04938 13.7651 6.53735C12.9318 6.01282 11.7984 5.33838 10.5818 4.61404C9.71511 4.11449 8.68179 3.4901 7.54845 2.85318C6.39845 2.21625 5.21511 1.56683 4.01511 0.967371C2.84844 0.380401 1.66511 -0.181615 0.498444 -0.681164C-2.46822 -1.99248 -5.28489 -2.94163 -7.23489 -2.94163C-7.29045 -2.94163 -7.34045 -2.94163 -7.3849 -2.94163Z" fill="#313131" fill-opacity="0.36"/>
<path fill-rule="evenodd" clip-rule="evenodd" d="M8.19896 8.22294C8.93229 8.66005 9.51563 8.99719 9.91563 9.23448C10.549 9.59665 11.149 9.90889 11.6823 10.1961C13.4656 11.1453 14.7656 11.8447 15.2323 13.0311C15.849 14.5672 15.5156 20.0497 15.249 22.4725C14.999 24.7579 13.5823 25.782 13.0656 26.0942C13.449 28.03 13.0323 29.5661 11.849 30.6651C10.649 31.7766 8.83229 32.2262 7.53229 32.2761C6.94896 32.2886 5.09896 32.3011 1.69896 32.3011C-1.23438 32.3011 -4.86771 32.2886 -8.71771 32.2886C-12.6344 32.2762 -16.701 32.2761 -20.0344 32.2761C-23.301 32.2761 -25.6677 31.6018 -27.0177 30.303C-28.7177 28.6794 -28.3177 26.6063 -28.1677 26.0568C-28.4677 25.8195 -28.7344 25.6447 -28.951 25.4823C-29.8344 24.8579 -30.3344 24.5207 -30.651 22.9971C-30.8677 21.998 -30.801 21.0988 -30.7177 19.9748C-30.6344 18.9757 -30.551 17.7393 -30.6344 16.0533C-30.8344 12.4066 -29.0677 11.2452 -26.551 10.0088C-26.001 9.74654 -24.9177 9.14708 -23.551 8.38527C-18.6344 5.66273 -10.3844 1.09189 -7.4177 0.979492C-7.37326 0.979492 -7.32325 0.979492 -7.2677 0.979492C-3.9177 0.979492 3.96563 5.68774 8.19896 8.22294ZM-7.40104 1.22927C-11.101 1.36664 -23.8677 8.99724 -26.3677 10.2211C-28.8677 11.445 -30.501 12.519 -30.301 16.0533C-30.1177 19.5751 -30.7177 21.0863 -30.3177 22.9596C-29.9177 24.8204 -29.351 24.758 -27.8177 25.9818C-27.8177 25.9818 -29.8344 32.0264 -20.0344 32.0264C-13.501 32.0264 -4.28438 32.0514 1.69896 32.0514C4.69896 32.0514 6.88229 32.0389 7.51563 32.0264C9.44896 31.9514 13.7656 30.8649 12.699 25.9818C12.699 25.9818 14.6323 25.1202 14.9156 22.4476C15.199 19.7875 15.4823 14.5422 14.9156 13.0935C14.3323 11.6573 12.4823 11.0079 9.71564 9.43431C6.98231 7.86073 -3.4677 1.22927 -7.2677 1.22927C-7.31214 1.22927 -7.35659 1.22927 -7.40104 1.22927Z" fill="#313131" fill-opacity="0.36"/>
</g>
</g>
<path d="M30.939 20.2642C31.2163 20.2642 31.451 20.3549 31.643 20.5362C31.835 20.7175 31.931 20.9415 31.931 21.2082C31.931 21.4749 31.835 21.7095 31.643 21.9122C31.451 22.1042 31.2163 22.2002 30.939 22.2002C30.5977 22.2002 30.1977 22.1575 29.739 22.0722C29.9097 22.3069 29.995 22.5842 29.995 22.9042C29.995 23.4802 29.851 24.0082 29.563 24.4882C29.275 24.9789 28.8857 25.3629 28.395 25.6402C27.915 25.9282 27.3923 26.0722 26.827 26.0722H21.947C21.1577 26.0722 20.427 25.8749 19.755 25.4802C19.083 25.0855 18.5497 24.5522 18.155 23.8802C17.7603 23.2082 17.563 22.4722 17.563 21.6722V18.7602H19.499V21.6722C19.499 22.1202 19.6057 22.5309 19.819 22.9042C20.043 23.2882 20.3417 23.5869 20.715 23.8002C21.0883 24.0242 21.499 24.1362 21.947 24.1362H26.827C27.1577 24.1362 27.4457 24.0135 27.691 23.7682C27.9363 23.5229 28.059 23.2349 28.059 22.9042C28.059 22.6055 27.9683 22.3389 27.787 22.1042C27.6163 21.8589 27.387 21.6935 27.099 21.6082L24.571 20.5842L25.419 18.8082L26.827 19.4162C27.179 19.5655 27.387 19.6509 27.451 19.6722C28.5603 20.0669 29.723 20.2642 30.939 20.2642ZM22.715 27.0962C23.0243 27.0962 23.291 27.2029 23.515 27.4162C23.739 27.6402 23.851 27.9069 23.851 28.2162C23.851 28.5255 23.739 28.7922 23.515 29.0162C23.291 29.2402 23.0243 29.3522 22.715 29.3522C22.4057 29.3522 22.139 29.2402 21.915 29.0162C21.691 28.7922 21.579 28.5255 21.579 28.2162C21.579 27.9069 21.691 27.6402 21.915 27.4162C22.139 27.2029 22.4057 27.0962 22.715 27.0962ZM25.691 27.0962C26.0003 27.0962 26.267 27.2029 26.491 27.4162C26.715 27.6402 26.827 27.9069 26.827 28.2162C26.827 28.5255 26.715 28.7922 26.491 29.0162C26.267 29.2402 26.0003 29.3522 25.691 29.3522C25.3817 29.3522 25.115 29.2402 24.891 29.0162C24.667 28.7922 24.555 28.5255 24.555 28.2162C24.555 27.9069 24.667 27.6402 24.891 27.4162C25.115 27.2029 25.3817 27.0962 25.691 27.0962ZM41.7695 20.2642V22.2002H40.2975V22.4242C40.2975 23.4482 39.9508 24.2589 39.2575 24.8562C38.5642 25.4535 37.6148 25.7522 36.4095 25.7522C35.7588 25.7522 35.1455 25.6082 34.5695 25.3202C34.0042 25.0322 33.5295 24.6322 33.1455 24.1202C32.7722 23.6189 32.5322 23.0535 32.4255 22.4242L32.3935 22.2002H30.7775V20.2642H32.3135V18.6162C32.3135 17.8695 32.4948 17.1815 32.8575 16.5522C33.2202 15.9122 33.7055 15.4055 34.3135 15.0322C34.9215 14.6482 35.5828 14.4562 36.2975 14.4562C36.8095 14.4562 37.3002 14.5522 37.7695 14.7442C38.2388 14.9255 38.6708 15.1975 39.0655 15.5602C39.4495 15.9229 39.7482 16.3549 39.9615 16.8562C40.1748 17.3575 40.2815 17.8802 40.2815 18.4242C40.2815 19.1069 40.1162 19.7202 39.7855 20.2642H41.7695ZM34.2495 20.2642H35.8015C36.4308 20.2642 37.0175 20.1202 37.5615 19.8322C38.1055 19.5442 38.3775 19.0749 38.3775 18.4242C38.3775 18.1362 38.3242 17.8642 38.2175 17.6082C38.1108 17.3415 37.9508 17.1175 37.7375 16.9362C37.3748 16.5735 36.8948 16.3922 36.2975 16.3922C35.9348 16.3922 35.5935 16.4935 35.2735 16.6962C34.9642 16.8989 34.7135 17.1709 34.5215 17.5122C34.3402 17.8535 34.2495 18.2215 34.2495 18.6162V20.2642ZM36.4095 23.8482C36.9962 23.8482 37.4708 23.6722 37.8335 23.3202C38.1962 22.9682 38.3775 22.5309 38.3775 22.0082V21.5922C37.6628 21.9975 36.8042 22.2002 35.8015 22.2002H34.3935L34.4255 22.3762C34.5428 22.8029 34.7828 23.1549 35.1455 23.4322C35.5188 23.7095 35.9402 23.8482 36.4095 23.8482ZM43.2414 12.1042C43.5507 12.1042 43.8174 12.2162 44.0414 12.4402C44.2654 12.6535 44.3774 12.9149 44.3774 13.2242C44.3774 13.5335 44.2654 13.8002 44.0414 14.0242C43.8174 14.2482 43.5507 14.3602 43.2414 14.3602C42.932 14.3602 42.6654 14.2482 42.4414 14.0242C42.2174 13.8002 42.1054 13.5335 42.1054 13.2242C42.1054 12.9149 42.2174 12.6535 42.4414 12.4402C42.6654 12.2162 42.932 12.1042 43.2414 12.1042ZM46.1854 12.1042C46.4947 12.1042 46.7614 12.2162 46.9854 12.4402C47.2094 12.6535 47.3214 12.9149 47.3214 13.2242C47.3214 13.5335 47.2094 13.8002 46.9854 14.0242C46.7614 14.2482 46.4947 14.3602 46.1854 14.3602C45.876 14.3602 45.6094 14.2482 45.3854 14.0242C45.1614 13.8002 45.0494 13.5335 45.0494 13.2242C45.0494 12.9149 45.1614 12.6535 45.3854 12.4402C45.6094 12.2162 45.876 12.1042 46.1854 12.1042ZM47.7534 20.2642C48.02 20.2642 48.244 20.3602 48.4254 20.5522C48.6174 20.7335 48.7134 20.9575 48.7134 21.2242C48.7134 21.4909 48.6174 21.7202 48.4254 21.9122C48.2334 22.1042 48.004 22.2002 47.7374 22.2002H46.9694C46.5747 22.2002 46.196 22.1255 45.8334 21.9762C45.4814 21.8162 45.172 21.6029 44.9054 21.3362C44.6494 21.6029 44.3507 21.8162 44.0094 21.9762C43.668 22.1255 43.3107 22.2002 42.9374 22.2002H41.6254C41.3267 22.2002 41.0814 22.1095 40.8894 21.9282C40.6974 21.7469 40.6014 21.5175 40.6014 21.2402C40.6014 20.9629 40.6974 20.7335 40.8894 20.5522C41.0814 20.3602 41.3267 20.2642 41.6254 20.2642H42.7134C43.0227 20.2642 43.284 20.1575 43.4974 19.9442C43.7107 19.7202 43.8174 19.4589 43.8174 19.1602V15.9922H45.7534V19.1762C45.796 19.4855 45.9347 19.7469 46.1694 19.9602C46.404 20.1629 46.6707 20.2642 46.9694 20.2642H47.7534ZM50.3748 12.0562C50.6841 12.0562 50.9508 12.1682 51.1748 12.3922C51.3988 12.6055 51.5108 12.8669 51.5108 13.1762C51.5108 13.4962 51.3988 13.7682 51.1748 13.9922C50.9508 14.2055 50.6841 14.3122 50.3748 14.3122C50.0654 14.3122 49.7988 14.2055 49.5748 13.9922C49.3508 13.7682 49.2388 13.4962 49.2388 13.1762C49.2388 12.8669 49.3508 12.6055 49.5748 12.3922C49.7988 12.1682 50.0654 12.0562 50.3748 12.0562ZM53.1428 20.2642C53.4094 20.2642 53.6334 20.3602 53.8148 20.5522C54.0068 20.7335 54.1028 20.9575 54.1028 21.2242C54.1028 21.4909 54.0068 21.7202 53.8148 21.9122C53.6228 22.1042 53.3934 22.2002 53.1268 22.2002H52.5348C52.1401 22.2002 51.7614 22.1255 51.3988 21.9762C51.0468 21.8162 50.7374 21.6029 50.4708 21.3362C50.2148 21.6029 49.9161 21.8162 49.5748 21.9762C49.2334 22.1255 48.8761 22.2002 48.5028 22.2002H47.7348C47.4361 22.2002 47.1907 22.1095 46.9987 21.9282C46.8067 21.7469 46.7107 21.5175 46.7107 21.2402C46.7107 20.9629 46.8067 20.7335 46.9987 20.5522C47.1907 20.3602 47.4361 20.2642 47.7348 20.2642H48.2788C48.5881 20.2642 48.8494 20.1575 49.0628 19.9442C49.2761 19.7202 49.3828 19.4589 49.3828 19.1602V16.0242H51.3188V19.1762C51.3614 19.4855 51.5001 19.7469 51.7348 19.9602C51.9694 20.1629 52.2361 20.2642 52.5348 20.2642H53.1428ZM52.3094 20.5522C52.4907 20.3602 52.7147 20.2642 52.9814 20.2642H53.4934C53.7814 20.2642 54 20.1895 54.1494 20.0402C54.2987 19.8802 54.3734 19.6615 54.3734 19.3842V14.4402H58.2134C58.928 14.4402 59.5734 14.6109 60.1494 14.9522C60.736 15.2829 61.1947 15.7415 61.5254 16.3282C61.856 16.9149 62.0214 17.5709 62.0214 18.2962V18.5842C62.0107 19.2455 61.8294 19.8535 61.4774 20.4082C61.1254 20.9629 60.656 21.4002 60.0694 21.7202C59.4934 22.0402 58.8694 22.2002 58.1974 22.2002C57.696 22.2002 57.2214 22.0989 56.7734 21.8962C56.3254 21.6935 55.9467 21.4162 55.6374 21.0642C55.392 21.4162 55.0774 21.6935 54.6934 21.8962C54.32 22.0989 53.92 22.2002 53.4934 22.2002H52.9654C52.6987 22.1895 52.4747 22.0935 52.2934 21.9122C52.1014 21.7202 52.0054 21.4909 52.0054 21.2242C52.016 20.9575 52.1174 20.7335 52.3094 20.5522ZM56.8694 19.7842C57.2427 20.1042 57.696 20.2642 58.2294 20.2642C58.7307 20.2642 59.1627 20.0935 59.5254 19.7522C59.8987 19.4002 60.0907 18.9789 60.1014 18.4882V18.2162C60.1014 17.6829 59.9147 17.2402 59.5414 16.8882C59.168 16.5362 58.7094 16.3602 58.1654 16.3602H56.3094V18.5522C56.32 19.0535 56.5067 19.4642 56.8694 19.7842Z" fill="#D32F2F"/>
</g>
<defs>
<clipPath id="clip0_6431_53495">
<rect y="0.200195" width="79" height="36" rx="8" fill="white"/>
</clipPath>
</defs>
</svg>
