<svg width="414" height="83" viewBox="0 0 414 83" fill="none" xmlns="http://www.w3.org/2000/svg">
<g clip-path="url(#clip0_6431_49986)">
<rect width="414" height="82.2002" fill="#D32F2F" fill-opacity="0.8"/>
<mask id="mask0_6431_49986" style="mask-type:luminance" maskUnits="userSpaceOnUse" x="-175" y="-115" width="503" height="307">
<path d="M-174.062 -114.613H327.757V191.112H-174.062V-114.613Z" fill="white"/>
</mask>
<g mask="url(#mask0_6431_49986)">
<g opacity="0.5">
<g opacity="0.5">
<path fill-rule="evenodd" clip-rule="evenodd" d="M184.512 -185.069C201.147 -181.644 217.735 -177.37 233.858 -172.359C249.795 -167.405 265.407 -161.687 281.67 -154.893C299.28 -147.533 314.567 -140.116 321.119 -136.918C335.941 -130.435 349.183 -123.726 361.59 -116.451C379.804 -105.75 396.066 -93.8328 409.866 -81.0377C427.895 -64.336 441.834 -46.1907 451.267 -27.0546V-27.0262C465.253 1.33829 466.321 26.3625 465.949 42.7244C465.717 50.8205 465.067 59.6243 463.998 67.5222C461.861 83.686 456.703 99.6516 448.665 115.023C443.182 128.271 435.515 141.208 425.897 153.493C414.327 168.327 399.877 182.282 382.963 195.049C321.816 241.078 230.931 269.188 133.68 272.16C124.666 272.415 116.348 272.471 101.108 272.471C92.6513 272.471 82.5684 272.443 71.835 272.443H71.1846C60.4512 272.415 49.3926 272.415 40.5178 272.415C-7.29446 272.415 -53.3876 266.895 -96.5069 256.053C-123.549 249.231 -149.059 240.37 -172.337 229.67C-196.22 218.686 -217.687 205.863 -236.087 191.511C-260.528 172.403 -279.207 151.059 -291.566 128.044C-300.58 114.032 -307.178 99.2553 -311.174 84.054C-316.378 64.295 -315.96 48.5842 -315.263 38.5066C-315.542 22.9372 -313.219 7.50941 -308.34 -7.35223C-300.441 -31.3007 -285.99 -53.947 -265.406 -74.6967C-247.053 -93.2101 -224.099 -109.883 -197.196 -124.236C-186.695 -129.812 -175.822 -134.936 -164.02 -139.89L-163.602 -140.088L-163.184 -140.258C-154.634 -144.108 -140.23 -150.59 -124.293 -156.988C-110.075 -162.678 -96.6463 -167.518 -83.2644 -171.736C-37.7754 -186.088 10.0369 -194.156 58.8714 -195.713C64.5866 -195.883 70.3482 -195.968 76.1098 -195.968H76.1563C112.817 -195.968 149.292 -192.288 184.512 -185.069ZM76.1098 -195.402C70.3947 -195.402 64.5865 -195.317 58.9178 -195.147C10.2227 -193.59 -37.4501 -185.55 -82.8462 -171.227C-96.1816 -167.009 -109.61 -162.196 -123.782 -156.507C-139.719 -150.137 -154.077 -143.655 -162.626 -139.805C-162.905 -139.692 -163.184 -139.569 -163.463 -139.437C-175.265 -134.483 -186.138 -129.331 -196.546 -123.783C-223.402 -109.487 -246.309 -92.8704 -264.617 -74.4136C-285.154 -53.7206 -299.558 -31.1026 -307.411 -7.23903C-312.289 7.62262 -314.613 22.9939 -314.334 38.5066C-315.17 50.1411 -315.124 65.3425 -310.245 83.9691C-306.249 99.1705 -299.697 113.862 -290.683 127.846C-278.37 150.832 -259.784 172.092 -235.344 191.171C-216.99 205.467 -195.616 218.29 -171.78 229.217C-148.547 239.889 -123.131 248.721 -96.1352 255.515C-53.1553 266.357 -7.20154 271.849 40.5178 271.849C49.3461 271.849 60.4512 271.849 71.1846 271.877C82.1503 271.877 92.5119 271.905 101.108 271.905C116.302 271.905 124.619 271.849 133.633 271.594C230.652 268.622 321.258 240.597 382.266 194.681C399.133 181.971 413.537 168.044 425.06 153.267C434.679 140.981 442.299 128.101 447.782 114.881C455.774 99.595 460.931 83.686 463.069 67.4938C464.137 59.5676 464.788 50.7922 465.02 42.7244C465.392 26.3908 464.323 1.42325 450.384 -26.8564V-26.8847C440.951 -45.9642 427.105 -64.0813 409.123 -80.7264C395.323 -93.4933 379.107 -105.354 360.939 -116.026C344.119 -125.934 328.878 -132.841 320.561 -136.465C312.244 -140.513 297.886 -147.42 281.113 -154.44C264.943 -161.206 249.331 -166.896 233.44 -171.85C217.363 -176.86 200.821 -181.106 184.233 -184.531C149.06 -191.75 112.724 -195.402 76.1563 -195.402C76.1253 -195.402 76.1098 -195.402 76.1098 -195.402Z" fill="#313131" fill-opacity="0.36"/>
</g>
<g opacity="0.5">
<path fill-rule="evenodd" clip-rule="evenodd" d="M180.193 -175.898C196.176 -172.586 212.114 -168.453 227.587 -163.613C242.874 -158.857 257.882 -153.365 273.447 -146.826C285.575 -141.759 296.401 -136.635 304.3 -132.899C307.041 -131.596 309.365 -130.492 311.409 -129.558C312.245 -129.162 313.159 -128.737 314.151 -128.284C322.235 -124.576 335.85 -118.348 350.3 -109.884C367.724 -99.6368 383.29 -88.257 396.486 -76.0563C413.771 -60.1189 427.107 -42.7661 436.167 -24.5075C449.595 2.61145 450.711 26.5033 450.339 42.1293C450.199 49.8573 449.549 58.3781 448.573 66.1061C446.622 80.9678 442.068 95.6595 435.052 109.785C434.897 110.087 434.742 110.389 434.587 110.691C434.355 111.144 434.123 111.597 433.937 112.05C430.359 119.778 425.898 128.865 420.137 137.612C417.628 141.518 414.886 145.425 411.959 149.218C401.458 163.004 387.472 176.479 370.373 189.246C311.641 233.123 224.288 259.874 130.661 262.705C122.019 262.959 114.027 263.016 99.4831 263.016H99.3902C91.3053 263.016 81.6407 262.988 71.4184 262.988H70.6749C60.3597 262.959 49.7193 262.931 41.2163 262.931C11.8505 262.931 -17.0506 260.78 -44.7436 256.505C-60.2628 254.127 -75.5962 251.042 -90.3721 247.333C-116.346 240.823 -140.833 232.302 -163.182 221.998C-185.532 211.637 -205.976 199.267 -223.958 185.226C-242.544 170.76 -257.599 154.993 -268.797 138.32C-271.12 134.838 -273.211 131.214 -275.209 127.704C-275.86 126.591 -276.51 125.468 -277.161 124.336C-286.593 108.285 -292.54 94.867 -295.839 82.1284C-300.393 64.6625 -300.021 50.5367 -299.742 39.1853L-299.696 38.4211C-299.278 20.5871 -297.233 7.05577 -293.098 -5.42802C-285.571 -28.3291 -271.771 -50.0129 -252.07 -69.8567C-234.506 -87.5492 -212.528 -103.487 -186.74 -117.188C-175.867 -122.962 -164.483 -128.058 -154.772 -132.276C-154.617 -132.351 -154.447 -132.427 -154.261 -132.502L-154.029 -132.615C-145.758 -136.352 -131.912 -142.58 -116.578 -148.723C-102.918 -154.214 -90.0003 -158.857 -77.1296 -162.933C-33.2203 -176.861 12.7333 -184.702 59.4769 -186.231C65.0062 -186.429 70.582 -186.514 76.0649 -186.514H76.1113H76.1578V-185.948C76.1268 -185.948 76.0959 -185.948 76.0649 -185.948C70.582 -185.948 65.0527 -185.863 59.5234 -185.664C12.8727 -184.136 -33.0345 -176.295 -76.7114 -162.452C-89.5357 -158.376 -102.453 -153.733 -116.067 -148.241C-131.4 -142.099 -145.2 -135.899 -153.471 -132.162C-153.719 -132.049 -153.982 -131.936 -154.261 -131.823C-165.506 -126.926 -176.146 -122.085 -186.136 -116.763C-211.831 -103.09 -233.762 -87.2095 -251.28 -69.5736C-270.934 -49.7864 -284.688 -28.1875 -292.215 -5.31468C-296.862 8.89589 -298.395 23.5877 -298.767 38.4211C-299.045 49.6593 -299.557 64.2377 -294.91 82.0434C-291.1 96.6503 -284.27 110.578 -276.324 124.166C-273.583 128.836 -270.981 133.536 -267.914 138.093C-256.623 154.936 -241.708 170.477 -223.215 184.886C-205.744 198.502 -185.485 210.929 -162.625 221.545C-140.415 231.792 -116.021 240.313 -90.0003 246.824C-75.2245 250.532 -60.0305 253.59 -44.5113 255.967C-16.8647 260.214 11.8505 262.365 41.2163 262.365C49.7193 262.365 60.3597 262.393 70.6749 262.422C81.176 262.422 91.1194 262.45 99.3902 262.45C99.4212 262.45 99.4521 262.45 99.4831 262.45C113.98 262.45 121.972 262.393 130.615 262.138C224.055 259.336 311.223 232.557 369.63 188.906C385.892 176.762 400.11 163.429 411.122 148.963C414.065 145.17 416.791 141.311 419.3 137.385C424.69 129.204 428.965 120.627 433.008 111.88C433.379 111.116 433.797 110.38 434.169 109.615C441.139 95.5747 445.692 80.9111 447.644 66.0495C448.62 58.378 449.27 49.8573 449.41 42.1293C449.781 26.5033 448.666 2.66809 435.284 -24.3377V-24.366C426.27 -42.568 412.935 -59.8641 395.696 -75.7449C382.547 -87.9173 367.028 -99.2688 349.65 -109.46C333.526 -118.914 318.751 -125.454 310.852 -129.105C302.627 -132.899 289.013 -139.636 272.936 -146.373C257.371 -152.856 242.409 -158.347 227.168 -163.131C211.742 -167.944 195.805 -172.048 179.914 -175.36C146.087 -182.352 111.146 -185.948 76.1578 -185.948V-186.514C111.192 -186.514 146.18 -182.947 180.193 -175.898Z" fill="#313131" fill-opacity="0.36"/>
</g>
<g opacity="0.5">
<path fill-rule="evenodd" clip-rule="evenodd" d="M175.865 -166.698C191.152 -163.527 206.439 -159.536 221.261 -154.894C235.944 -150.308 250.348 -145.014 265.263 -138.758C276.88 -133.889 287.288 -128.963 294.908 -125.368C297.464 -124.123 299.694 -123.075 301.645 -122.17C302.482 -121.792 303.38 -121.386 304.34 -120.952C312.147 -117.357 325.203 -111.384 338.957 -103.316C355.638 -93.5503 370.46 -82.7084 383.098 -71.0738C399.593 -55.9008 412.371 -39.369 421.06 -21.9879C421.06 -21.9879 421.06 -21.9785 421.06 -21.9596C433.931 3.85722 435.046 26.6452 434.767 41.5351C434.674 48.9235 434.07 57.161 433.094 64.6909C431.236 79.0714 426.915 93.2536 420.27 106.87C420.115 107.172 419.96 107.464 419.805 107.747C419.573 108.172 419.341 108.625 419.155 109.049C414.787 118.561 410.419 126.629 405.773 133.706C403.543 137.301 400.987 140.981 398.013 144.916C388.256 157.937 374.688 170.902 357.728 183.471C343.835 193.747 328.084 203.173 310.799 211.496C293.7 219.762 275.114 226.952 255.459 232.925C235.805 238.898 215.035 243.654 193.754 247.051C172.148 250.504 149.938 252.599 127.635 253.25C119.318 253.505 111.744 253.533 97.8043 253.533H97.6649C89.8124 253.533 80.473 253.533 70.5295 253.505H70.1113H69.8325C60.0749 253.505 49.9921 253.476 41.9072 253.476C13.7495 253.476 -13.9435 251.41 -40.5214 247.362C-55.3901 245.097 -70.1195 242.153 -84.2448 238.615C-109.336 232.359 -132.801 224.206 -153.988 214.327C-174.665 204.674 -194.134 192.784 -211.884 178.97C-230.051 164.816 -244.13 150.124 -254.817 134.045C-257.047 130.677 -259.045 127.195 -260.95 123.826C-261.57 122.769 -262.189 121.713 -262.809 120.656C-271.73 105.313 -277.352 92.4326 -280.512 80.2036C-284.787 63.5586 -284.462 50.0274 -284.183 39.1572V38.3363C-283.765 21.578 -281.767 8.27328 -277.91 -3.53111C-270.708 -25.3848 -257.559 -46.078 -238.74 -65.0159C-221.966 -81.8875 -200.964 -97.0605 -176.292 -110.167C-165.883 -115.687 -154.918 -120.584 -145.578 -124.661C-145.423 -124.736 -145.269 -124.812 -145.114 -124.887L-144.835 -125C-136.889 -128.567 -123.6 -134.568 -108.918 -140.457C-95.7681 -145.722 -83.3619 -150.194 -71.0023 -154.158C-28.6264 -167.632 15.4687 -175.247 60.1214 -176.747C65.4183 -176.945 70.8083 -177.059 76.0588 -177.059H76.2446V-176.492C76.2446 -176.492 76.2292 -176.492 76.1982 -176.492C76.1672 -176.492 76.1362 -176.492 76.1053 -176.492C76.1053 -176.492 76.0898 -176.492 76.0588 -176.492C70.8083 -176.492 65.4648 -176.379 60.1678 -176.181C15.5151 -174.681 -28.6264 -167.009 -70.5842 -153.648C-82.8973 -149.713 -95.3034 -145.241 -108.406 -139.975C-123.089 -134.087 -136.332 -128.114 -144.324 -124.519C-144.541 -124.425 -144.788 -124.312 -145.067 -124.179C-155.894 -119.48 -166.116 -114.81 -175.688 -109.742C-200.221 -96.6925 -221.177 -81.5761 -237.904 -64.7329C-256.676 -45.8798 -269.825 -25.2433 -276.981 -3.41791C-281.441 10.1416 -282.928 24.154 -283.254 38.3646C-283.532 49.1499 -283.997 63.1057 -279.583 80.1187C-275.959 94.1312 -269.5 107.492 -261.926 120.458C-259.324 124.958 -256.862 129.431 -253.934 133.819C-243.154 150.011 -228.89 164.788 -211.14 178.602C-194.552 191.567 -175.409 203.626 -153.431 213.874C-132.289 223.725 -108.871 231.877 -83.9195 238.105C-69.7478 241.644 -55.1578 244.559 -40.2891 246.824C-13.7577 250.872 13.7495 252.91 41.9072 252.91C50.085 252.91 60.2607 252.939 70.1113 252.939C80.1942 252.967 89.7195 252.967 97.6649 252.967C97.7269 252.967 97.7733 252.967 97.8043 252.967C111.651 252.967 119.318 252.939 127.588 252.684C217.451 250.023 301.134 224.489 357.031 183.103C372.644 171.553 386.583 158.786 397.177 144.689C399.918 141.009 402.521 137.301 404.89 133.508C410.048 125.723 414.323 117.485 418.272 108.908C418.597 108.172 419.016 107.436 419.341 106.7C425.985 93.197 430.353 78.9864 432.165 64.6343C433.141 57.1893 433.745 48.9518 433.838 41.5351C434.117 26.6169 433.001 3.91383 420.177 -21.8181C411.535 -39.1708 398.757 -55.6177 382.308 -70.7624C369.716 -82.3686 354.941 -93.1823 338.306 -102.892C322.926 -111.922 308.755 -118.178 301.088 -121.717C293.189 -125.368 280.132 -131.851 264.752 -138.277C249.837 -144.533 235.48 -149.798 220.843 -154.384C206.067 -159.026 190.827 -162.99 175.586 -166.16C143.107 -172.982 109.653 -176.492 76.2446 -176.492V-177.059C109.606 -177.059 143.107 -173.577 175.865 -166.698Z" fill="#313131" fill-opacity="0.36"/>
</g>
<g opacity="0.6">
<path fill-rule="evenodd" clip-rule="evenodd" d="M171.544 -157.525C186.181 -154.468 200.771 -150.646 214.989 -146.173C229.021 -141.757 242.775 -136.69 257.086 -130.689C268.191 -126.018 278.181 -121.291 285.476 -117.837C287.939 -116.677 290.076 -115.658 291.935 -114.808C292.74 -114.431 293.607 -114.025 294.537 -113.591C302.529 -109.939 314.563 -104.419 327.666 -96.7478C343.511 -87.4628 357.636 -77.1588 369.67 -66.1187C385.468 -51.6534 397.642 -35.9707 405.959 -19.4672C405.959 -19.4483 405.959 -19.439 405.959 -19.439C418.319 5.13229 419.434 26.7879 419.202 40.9419C419.109 47.9906 418.598 55.9167 417.668 63.2485C415.903 77.176 411.814 90.8771 405.448 103.955C405.293 104.238 405.138 104.531 404.983 104.833C404.798 105.229 404.565 105.654 404.379 106.078C400.616 114.458 396.248 122.469 391.416 129.8C389.371 133.169 386.955 136.707 384.074 140.642C375.014 152.985 362.282 165.1 345.137 177.669C331.848 187.407 316.793 196.324 300.252 204.194C283.896 212.007 266.1 218.857 247.282 224.519C228.417 230.18 208.484 234.681 188.086 237.908C167.363 241.192 146.035 243.174 124.615 243.796C116.669 244.051 109.421 244.079 96.1784 244.079H95.9461C88.5117 244.079 79.5905 244.051 70.1581 244.051H69.6006C60.2147 244.023 50.4571 244.023 42.6046 244.023C15.655 244.023 -10.8765 242.07 -36.2463 238.22C-50.511 236.097 -64.5898 233.294 -78.111 229.926C-102.226 223.953 -124.669 216.111 -144.834 206.628C-164.164 197.541 -182.146 186.445 -199.756 172.687C-217.32 159.071 -230.748 145.03 -240.831 129.772C-242.968 126.545 -244.873 123.176 -246.685 119.949C-247.243 118.949 -247.816 117.958 -248.405 116.977C-256.861 102.313 -262.205 90.0278 -265.178 78.28C-269.221 62.4559 -268.896 49.5192 -268.663 39.1302V38.281C-268.291 22.3436 -266.386 9.66156 -262.669 -1.60498C-255.885 -22.4396 -243.293 -42.1702 -225.358 -60.174C-209.421 -76.1963 -189.394 -90.6616 -165.837 -103.145C-155.893 -108.411 -145.392 -113.11 -136.378 -117.016C-136.223 -117.092 -136.068 -117.167 -135.913 -117.243L-135.681 -117.356H-135.634C-128.014 -120.781 -115.283 -126.528 -101.204 -132.189C-88.6121 -137.256 -76.7171 -141.559 -64.8686 -145.353C-24.3048 -158.318 17.9317 -165.706 60.7723 -167.291C66.0693 -167.489 71.2269 -167.574 76.0592 -167.574H76.1986H76.2915V-167.008C76.2296 -167.008 76.1676 -167.008 76.1057 -167.008C76.0747 -167.008 76.0592 -167.008 76.0592 -167.008C70.9945 -167.008 65.8834 -166.895 60.8187 -166.725C18.164 -165.14 -24.1654 -157.723 -64.4504 -144.843C-76.2989 -141.05 -88.1474 -136.775 -100.693 -131.736C-114.725 -126.075 -127.457 -120.357 -135.123 -116.903C-135.34 -116.79 -135.572 -116.677 -135.82 -116.563C-146.275 -112.034 -156.125 -107.561 -165.233 -102.721C-188.651 -90.2936 -208.631 -75.9132 -224.568 -59.891C-242.411 -41.9437 -254.956 -22.3263 -261.786 -1.49164C-266.015 11.4168 -267.409 24.7498 -267.734 38.281C-267.966 48.6417 -268.431 61.9747 -264.249 78.1951C-260.857 91.6131 -254.677 104.38 -247.522 116.779C-245.059 121.053 -242.736 125.356 -239.948 129.546C-229.679 145.115 -216.111 159.099 -199.012 172.347C-183.307 184.604 -165.325 196.296 -144.277 206.203C-124.158 215.658 -101.762 223.443 -77.7858 229.388C-64.2181 232.756 -50.3251 235.53 -36.0139 237.682C-10.6906 241.503 15.655 243.457 42.6046 243.457C50.4571 243.457 60.1682 243.457 69.6006 243.485C79.2188 243.485 88.3723 243.513 95.9461 243.513C96.039 243.513 96.1165 243.513 96.1784 243.513C109.328 243.513 116.669 243.485 124.568 243.23C210.9 240.711 291.098 216.423 344.393 177.329C359.402 166.318 373.155 154.145 383.238 140.416C385.84 136.877 388.303 133.282 390.533 129.602C395.365 122.223 399.687 114.325 403.497 105.909C403.822 105.201 404.194 104.493 404.565 103.785C410.885 90.7921 415.02 77.0627 416.739 63.2201C417.668 55.9733 418.18 48.0472 418.272 40.9419C418.505 26.7313 417.343 5.16063 405.076 -19.2691V-19.2974C396.806 -35.7443 384.632 -51.3986 368.927 -65.8073C356.892 -76.8191 342.814 -87.0665 327.016 -96.3232C312.379 -104.9 298.811 -110.902 291.377 -114.355C283.757 -117.866 271.258 -124.037 256.575 -130.208C242.31 -136.181 228.557 -141.248 214.571 -145.664C200.399 -150.108 185.855 -153.93 171.266 -156.987C140.181 -163.583 108.12 -167.008 76.2915 -167.008V-167.574C107.981 -167.574 140.041 -164.206 171.544 -157.525Z" fill="#313131" fill-opacity="0.36"/>
</g>
<g opacity="0.6">
<path fill-rule="evenodd" clip-rule="evenodd" d="M167.227 -148.354C181.166 -145.41 195.152 -141.73 208.674 -137.427C222.102 -133.209 235.251 -128.34 248.912 -122.622C259.553 -118.149 269.124 -113.62 276.094 -110.308C278.417 -109.204 280.415 -108.242 282.181 -107.421C282.986 -107.062 283.838 -106.675 284.736 -106.26C292.403 -102.75 303.926 -97.4563 316.333 -90.1811C331.434 -81.3491 344.862 -71.5828 356.292 -61.1372C371.3 -47.4362 382.917 -32.5462 390.862 -16.9202C402.571 6.17906 403.733 26.8155 403.64 40.3467C403.594 47.2821 403.082 54.9252 402.246 61.8323C400.573 75.2786 396.67 88.4701 390.63 101.039C390.506 101.322 390.366 101.605 390.212 101.888C390.026 102.284 389.84 102.681 389.654 103.077C386.262 110.664 382.127 118.137 377.016 125.893C375.157 129.092 372.973 132.404 370.139 136.367C361.729 148.058 349.787 159.353 332.502 171.894C319.864 181.037 305.506 189.473 289.755 196.918C274.096 204.278 257.043 210.732 239.062 216.082C221.033 221.461 201.983 225.735 182.421 228.792C162.58 231.878 142.136 233.775 121.645 234.369C114.025 234.567 107.148 234.624 94.556 234.624H94.2772C87.1681 234.624 78.7115 234.596 69.7438 234.596H69.0933C60.1256 234.567 50.8326 234.539 43.3053 234.539C17.5638 234.539 -7.75954 232.699 -32.0142 229.076C-45.6284 227.066 -59.0567 224.405 -72.0204 221.206C-95.1134 215.516 -116.534 208.043 -135.677 198.956C-153.38 190.548 -169.875 180.216 -187.671 166.402C-204.631 153.21 -217.455 139.821 -226.841 125.469C-228.886 122.383 -230.651 119.184 -232.417 116.07C-232.943 115.146 -233.47 114.211 -233.997 113.268C-241.989 99.3404 -247.007 87.5926 -249.795 76.3544C-253.651 61.3795 -253.372 49.0372 -253.14 39.1011L-253.094 38.1952C-252.768 23.0788 -251.003 11.048 -247.471 0.319305C-241.013 -19.4962 -229.071 -38.2361 -212.019 -55.3341C-196.825 -70.5354 -177.774 -84.2648 -155.378 -96.1258C-145.899 -101.136 -135.817 -105.637 -127.174 -109.402C-127.019 -109.478 -126.864 -109.544 -126.709 -109.6L-126.477 -109.714C-119.182 -113.026 -106.915 -118.517 -93.4871 -123.924C-81.4527 -128.793 -70.0688 -132.898 -58.7314 -136.549C-39.4485 -142.749 -19.5151 -147.674 0.557709 -151.241C20.677 -154.808 41.1215 -157.016 61.3801 -157.809C66.5842 -158.007 71.5094 -158.12 76.0165 -158.12H76.063H76.3418V-157.554C76.2489 -157.554 76.1559 -157.554 76.063 -157.554C76.063 -157.554 76.0475 -157.554 76.0165 -157.554C71.2307 -157.554 66.3054 -157.441 61.4731 -157.243C20.8163 -155.657 -19.7474 -148.439 -58.3132 -136.068C-69.6507 -132.417 -80.9881 -128.284 -92.976 -123.471C-106.404 -118.036 -118.578 -112.573 -125.966 -109.261C-126.183 -109.166 -126.4 -109.062 -126.617 -108.949C-136.699 -104.561 -146.085 -100.287 -154.774 -95.7012C-177.031 -83.8968 -196.035 -70.2523 -211.229 -55.051C-228.189 -38.0096 -240.084 -19.3831 -246.542 0.404175C-250.585 12.6615 -251.886 25.3434 -252.164 38.1952C-252.397 48.1313 -252.815 60.8699 -248.912 76.2694C-245.706 89.1212 -239.898 101.265 -233.114 113.07C-230.791 117.174 -228.607 121.279 -225.958 125.27C-216.201 140.217 -203.237 153.38 -186.928 166.062C-172.013 177.64 -155.192 188.963 -135.073 198.503C-115.976 207.562 -94.6487 215.035 -71.6486 220.696C-58.7314 223.895 -45.4425 226.499 -31.7818 228.538C-7.57367 232.161 17.5638 233.973 43.3053 233.973C50.7862 233.973 60.0791 234.001 69.0933 234.029C78.2933 234.029 86.9822 234.058 94.2772 234.058C94.3701 234.058 94.4631 234.058 94.556 234.058C107.009 234.058 114.025 234.001 121.599 233.803C204.306 231.397 281.019 208.354 331.805 171.525C346.163 161.108 359.684 149.53 369.302 136.141C371.765 132.715 374.088 129.233 376.179 125.695C380.733 118.731 385.054 111.173 388.725 102.935C389.05 102.256 389.422 101.577 389.747 100.897C395.741 88.4135 399.644 75.137 401.317 61.804C402.153 54.7836 402.664 47.1122 402.711 40.3467C402.804 26.8155 401.688 6.40543 389.979 -16.7504C382.08 -32.3481 370.464 -47.1531 355.502 -60.8258C344.119 -71.2431 330.737 -80.9811 315.729 -89.7565C301.789 -97.9092 288.825 -103.656 281.623 -106.968C274.328 -110.365 262.433 -116.253 248.401 -122.141C234.787 -127.859 221.637 -132.7 208.255 -136.946C194.781 -141.192 180.841 -144.872 166.948 -147.816C137.211 -154.185 106.59 -157.554 76.3418 -157.554V-158.12C106.405 -158.12 136.978 -154.836 167.227 -148.354Z" fill="#313131" fill-opacity="0.36"/>
</g>
<g opacity="0.6">
<path fill-rule="evenodd" clip-rule="evenodd" d="M162.904 -139.182C176.193 -136.351 189.482 -132.813 202.399 -128.708C215.177 -124.66 227.676 -120.017 240.733 -114.526C250.862 -110.279 260.016 -105.948 266.707 -102.778C268.891 -101.73 270.796 -100.825 272.468 -100.06C273.243 -99.7017 274.079 -99.3148 274.977 -98.8996C282.272 -95.531 293.285 -90.4639 305.04 -83.6134C319.305 -75.2625 332.036 -66.0342 342.862 -56.1547C357.174 -43.1897 368.232 -29.1489 375.76 -14.4005C375.76 -14.3817 375.76 -14.3722 375.76 -14.3722C386.911 7.39659 388.119 26.929 388.073 39.7525C388.026 46.4048 387.608 53.7366 386.818 60.4172C385.285 73.0992 381.475 86.1209 375.806 98.1234C375.682 98.3876 375.558 98.6518 375.434 98.916C375.249 99.3123 375.063 99.7086 374.877 100.077C371.02 108.909 366.327 116.439 362.657 121.987C360.984 124.988 358.939 128.186 356.198 132.065C346.254 146.275 331.572 157.712 319.862 166.091C307.875 174.696 294.214 182.622 279.206 189.615C264.291 196.55 248.028 202.636 230.882 207.675C213.644 212.742 195.43 216.762 176.751 219.649C157.793 222.593 138.232 224.348 118.623 224.915C111.421 225.113 104.591 225.141 92.8819 225.141H92.5567C85.7728 225.141 77.7343 225.141 69.2313 225.113H68.5808C60.0312 225.113 51.203 225.084 44.0009 225.084C19.4675 225.084 -4.64771 223.358 -27.7407 219.932C-40.7509 218.036 -53.5751 215.545 -65.8883 212.487C-88.0056 207.081 -108.404 199.947 -126.478 191.285C-147.155 181.377 -163.557 169.431 -175.545 160.146C-192.04 147.351 -203.889 134.98 -212.857 121.194C-214.808 118.194 -216.527 115.08 -218.2 112.079C-218.665 111.249 -219.145 110.418 -219.64 109.588C-227.121 96.34 -231.861 85.1867 -234.463 74.458C-238.04 60.2757 -237.808 48.528 -237.622 39.1014L-237.576 38.1106C-237.297 23.8435 -235.578 12.4353 -232.232 2.21613C-226.145 -16.552 -214.854 -34.301 -198.638 -50.4931C-184.281 -64.8735 -166.206 -77.8668 -144.925 -89.1051C-135.911 -93.8608 -126.246 -98.192 -117.975 -101.787C-117.821 -101.844 -117.666 -101.91 -117.511 -101.985L-117.325 -102.07L-117.278 -102.099C-110.309 -105.241 -98.5995 -110.506 -85.7753 -115.686C-74.2985 -120.301 -63.4257 -124.264 -52.5994 -127.745C-34.1529 -133.718 -15.1023 -138.474 4.04121 -141.928C23.2776 -145.381 42.7928 -147.533 62.0293 -148.325C67.1404 -148.552 71.6939 -148.665 76.0151 -148.665H76.0616H76.3869V-148.099C76.294 -148.099 76.1856 -148.099 76.0616 -148.099C76.0616 -148.099 76.0461 -148.099 76.0151 -148.099C71.4151 -148.071 66.7686 -147.957 62.0757 -147.759C23.5099 -146.174 -15.2881 -139.154 -52.1347 -127.264C-63.0075 -123.754 -73.8338 -119.819 -85.2642 -115.205C-98.0885 -110.025 -109.658 -104.816 -116.767 -101.617C-116.984 -101.523 -117.201 -101.429 -117.418 -101.334C-127.082 -97.1163 -136.05 -93.0399 -144.321 -88.6805C-165.462 -77.5271 -183.444 -64.5905 -197.848 -50.21C-213.925 -34.1028 -225.216 -16.467 -231.349 2.32947C-235.113 13.9357 -236.414 25.9383 -236.646 38.139C-236.832 47.6221 -237.251 59.7379 -233.58 74.3731C-230.56 86.6021 -225.123 98.1517 -218.758 109.39C-216.527 113.268 -214.436 117.175 -211.974 120.996C-202.681 135.292 -190.414 147.691 -174.802 159.778C-160.816 170.677 -145.111 181.632 -125.921 190.832C-107.846 199.494 -87.5409 206.599 -65.5166 211.978C-53.2499 215.007 -40.565 217.498 -27.5084 219.394C-4.46185 222.791 19.4675 224.518 44.0009 224.518C51.1565 224.518 59.9848 224.547 68.5808 224.547C77.3162 224.575 85.5869 224.575 92.5567 224.575C92.6806 224.575 92.789 224.575 92.8819 224.575C104.684 224.575 111.375 224.547 118.577 224.348C197.707 222.112 270.981 200.315 319.165 165.751C332.919 155.9 346.208 144.888 355.362 131.838C357.638 128.554 359.869 125.214 361.774 121.789C366.095 115.25 370.463 108.031 373.994 99.9351C374.273 99.284 374.598 98.633 374.923 97.9819C380.545 86.0359 384.309 73.1841 385.889 60.3889C386.679 53.5667 387.097 46.2066 387.143 39.7525C387.19 26.929 386.028 7.62294 374.877 -14.2025V-14.2307C367.349 -28.9508 356.337 -42.9349 342.119 -55.8433C331.293 -65.6944 318.608 -74.8945 304.39 -83.1888C291.194 -90.8885 278.834 -96.3802 271.911 -99.6073C264.895 -102.834 253.557 -108.468 240.175 -114.073C227.258 -119.508 214.713 -124.15 201.981 -128.198C189.111 -132.303 175.868 -135.813 162.626 -138.644C134.236 -144.815 105.056 -148.099 76.3869 -148.099V-148.665C104.823 -148.665 133.91 -145.466 162.904 -139.182Z" fill="#313131" fill-opacity="0.36"/>
</g>
<g opacity="0.6">
<path fill-rule="evenodd" clip-rule="evenodd" d="M158.583 -130.01C171.407 -127.207 184.046 -123.839 196.127 -119.989C208.254 -116.111 220.149 -111.695 232.555 -106.458C242.22 -102.381 250.909 -98.2767 257.274 -95.2477C259.365 -94.2569 261.131 -93.4077 262.711 -92.6717C263.485 -92.332 264.306 -91.9545 265.173 -91.5393C272.143 -88.3406 282.598 -83.5 293.749 -77.0458C307.224 -69.1762 319.258 -60.4855 329.481 -51.1722C343.002 -38.9715 353.503 -25.7235 360.658 -11.8526C371.113 8.38757 372.461 26.0233 372.507 39.1582C372.507 45.5275 372.089 52.5762 371.345 59.0021C369.905 71.1745 366.327 83.7148 361.03 95.2078C360.906 95.472 360.782 95.7269 360.658 95.9722C360.473 96.3402 360.287 96.7365 360.101 97.1045C356.662 105.116 352.202 112.136 348.299 118.081C346.347 121.704 344.024 125.186 342.258 127.79C333.291 140.982 319.537 151.626 307.27 160.316C295.886 168.355 282.923 175.772 268.658 182.311C254.486 188.822 239.014 194.54 222.704 199.268C206.256 204.023 188.924 207.788 171.082 210.506C152.961 213.28 134.328 214.95 115.603 215.46C108.773 215.658 102.314 215.686 91.2555 215.686H90.8373C84.3787 215.686 76.712 215.658 68.6271 215.658H68.0695H67.9766C59.8453 215.63 51.4816 215.63 44.7442 215.63C21.3724 215.63 -1.58122 213.988 -23.4661 210.789C-35.6864 209.034 -47.8602 206.684 -59.7551 203.797C-81.036 198.617 -100.412 191.823 -117.325 183.614C-135.493 174.81 -150.222 164.109 -163.465 153.862C-179.263 141.633 -190.507 129.885 -198.871 116.92C-200.729 114.033 -202.356 111.06 -203.982 108.173C-204.385 107.399 -204.803 106.635 -205.236 105.88C-212.253 93.3679 -216.667 82.7808 -219.129 72.5333C-222.475 59.172 -222.243 48.0186 -222.057 39.0733V38.0542C-221.778 24.5796 -220.198 13.8227 -217.038 4.14139C-211.277 -13.6077 -200.59 -30.3659 -185.303 -45.6522C-171.735 -59.2117 -154.636 -71.4408 -134.471 -82.0845C-125.968 -86.5572 -116.675 -90.7185 -108.776 -94.1721C-108.621 -94.2287 -108.481 -94.2852 -108.357 -94.3418L-108.125 -94.4268L-108.079 -94.4551C-101.434 -97.4558 -90.2825 -102.495 -78.0623 -107.42C-67.1431 -111.836 -56.7814 -115.601 -46.4662 -118.97C-28.856 -124.688 -10.6883 -129.274 7.57237 -132.586C25.8795 -135.954 44.4189 -138.049 62.6796 -138.87C67.6049 -139.068 71.9726 -139.182 76.015 -139.182H76.0615H76.4332V-138.615C76.3093 -138.615 76.1854 -138.615 76.0615 -138.615C76.0305 -138.615 76.015 -138.615 76.015 -138.615C71.6473 -138.615 67.1867 -138.502 62.7261 -138.304C26.1583 -136.662 -10.8742 -129.868 -46.0016 -118.46C-56.3632 -115.12 -66.6784 -111.327 -77.5512 -106.939C-89.7714 -102.013 -100.784 -97.0311 -107.614 -93.9739C-107.8 -93.8984 -108.001 -93.804 -108.218 -93.6908C-117.464 -89.6711 -126.06 -85.7646 -133.867 -81.6599C-153.846 -71.1294 -170.899 -58.9569 -184.513 -45.3691C-199.707 -30.1678 -210.348 -13.5228 -216.109 4.25459C-219.687 15.1814 -220.895 26.5329 -221.127 38.0542C-221.313 47.141 -221.685 58.6057 -218.2 72.4483C-215.412 84.0829 -210.348 95.038 -204.354 105.71C-202.309 109.39 -200.311 113.098 -197.988 116.722C-189.16 130.395 -177.59 142.001 -162.721 153.522C-149.572 163.713 -134.982 174.328 -116.767 183.161C-99.7148 191.426 -80.432 198.135 -59.4299 203.259C-47.7208 206.118 -35.6864 208.468 -23.2803 210.251C-1.39534 213.45 21.3724 215.064 44.7442 215.064C51.5281 215.064 59.8917 215.064 68.0695 215.092C76.3403 215.092 84.1928 215.12 90.8373 215.12C90.9922 215.12 91.1316 215.12 91.2555 215.12C102.361 215.12 108.726 215.092 115.557 214.894C191.108 212.799 260.945 192.247 306.573 159.948C319.676 150.663 332.733 140.274 341.422 127.564C343.559 124.393 345.604 121.195 347.416 117.911C351.458 111.768 355.826 104.889 359.218 96.963C359.497 96.3119 359.822 95.6891 360.101 95.0663C365.398 83.6299 368.976 71.2595 370.416 58.9455C371.206 52.3781 371.578 45.301 371.578 39.1582C371.531 27.0424 370.37 8.86884 359.776 -11.6827C352.62 -25.5253 342.165 -38.7169 328.737 -50.861C318.515 -60.1177 306.527 -68.8082 293.099 -76.6212C280.6 -83.8963 268.89 -89.1048 262.153 -92.2187C255.509 -95.3326 244.682 -100.655 231.997 -106.005C219.731 -111.185 207.789 -115.601 195.662 -119.479C183.442 -123.386 170.85 -126.726 158.304 -129.472C131.262 -135.388 103.522 -138.615 76.4332 -138.615V-139.182C103.011 -139.182 130.658 -136.096 158.583 -130.01Z" fill="#313131" fill-opacity="0.36"/>
</g>
<g opacity="0.7">
<path fill-rule="evenodd" clip-rule="evenodd" d="M154.313 -120.839C166.441 -118.15 178.428 -114.923 189.812 -111.243C201.336 -107.563 212.627 -103.345 224.336 -98.3908C233.536 -94.5126 241.853 -90.5777 247.893 -87.7186C249.798 -86.7845 251.518 -85.9918 253.004 -85.3125C253.748 -84.9728 254.538 -84.6048 255.374 -84.2085C261.972 -81.1512 271.962 -76.537 282.417 -70.4791C295.102 -63.0908 306.439 -54.9098 316.104 -46.191C328.835 -34.7263 338.779 -22.3274 345.562 -9.33406C345.562 -9.33406 345.562 -9.32459 345.562 -9.30573C355.459 9.63226 356.807 26.2207 356.9 38.563C356.946 44.6209 356.621 51.3864 355.924 57.5575C354.577 69.2769 351.231 81.2796 346.213 92.3197C346.089 92.5461 345.965 92.782 345.841 93.0274C345.702 93.3954 345.516 93.7633 345.377 94.103C342.17 101.633 337.989 108.002 334.318 113.607L333.9 114.202C332.181 117.57 330.136 120.769 328.324 123.487C320.239 135.772 307.368 145.68 294.637 154.54C283.95 162.014 271.637 168.921 258.116 175.035C244.687 181.093 230.004 186.415 214.485 190.831C198.873 195.304 182.378 198.842 165.465 201.39C148.18 203.966 130.43 205.523 112.588 206.004C106.083 206.174 99.9959 206.231 89.6342 206.231H89.1231C83.0362 206.231 75.8806 206.202 68.2604 206.202H67.517C60.222 206.174 51.9513 206.174 45.4462 206.174C23.2825 206.174 1.53694 204.645 -19.2328 201.645C-30.7561 200.031 -42.3258 197.823 -53.6168 195.077C-73.9219 190.18 -92.2755 183.726 -108.166 175.913C-126.102 167.137 -140.088 156.296 -151.332 147.605C-166.666 135.716 -177.027 124.93 -184.833 112.645C-186.645 109.871 -188.179 107.012 -189.712 104.237C-190.084 103.558 -190.456 102.878 -190.827 102.199C-197.379 90.3947 -201.514 80.3454 -203.791 70.6075C-206.904 58.067 -206.672 47.5365 -206.532 39.0725V37.9685C-206.3 25.3432 -204.813 15.1805 -201.84 6.03708C-196.403 -10.6646 -186.367 -26.4321 -171.916 -40.8125C-159.185 -53.5228 -143.062 -65.0441 -124.011 -75.0651C-115.973 -79.283 -107.144 -83.246 -99.524 -86.558C-99.4001 -86.6146 -99.2762 -86.6712 -99.1523 -86.7279L-98.9664 -86.8129L-98.92 -86.8411C-92.5543 -89.7002 -81.9603 -94.4559 -70.3906 -99.155C-59.9825 -103.345 -50.1319 -106.968 -40.3278 -110.167C-23.554 -115.63 -6.2691 -120.046 11.0623 -123.273C28.4866 -126.529 46.0967 -128.567 63.2887 -129.388C68.0746 -129.614 72.2099 -129.728 75.9736 -129.728H76.02H76.4847V-129.161C76.3298 -129.161 76.1749 -129.161 76.02 -129.161C76.02 -129.161 76.0045 -129.161 75.9736 -129.161C71.8847 -129.161 67.6099 -129.02 63.3816 -128.822C28.8118 -127.18 -6.40849 -120.612 -39.8632 -109.657C-49.7137 -106.458 -59.5643 -102.863 -69.8795 -98.6738C-81.4492 -94.003 -91.9037 -89.2756 -98.4088 -86.3599C-98.5947 -86.2655 -98.7961 -86.1712 -99.0129 -86.0768C-107.841 -82.227 -116.019 -78.5186 -123.407 -74.6405C-142.272 -64.7327 -158.302 -53.2963 -171.126 -40.5294C-185.437 -26.2622 -195.474 -10.6079 -200.91 6.15042C-204.256 16.4545 -205.371 27.1266 -205.603 37.9685C-205.743 46.6307 -206.114 57.5009 -202.862 70.5226C-200.26 81.5627 -195.567 91.9233 -189.944 102.001C-188.039 105.511 -186.181 108.993 -183.997 112.447C-175.68 125.468 -164.761 136.31 -150.589 147.237C-138.322 156.748 -124.894 166.996 -107.562 175.488C-91.5785 183.33 -73.2714 189.727 -53.2915 194.568C-42.2329 197.229 -30.8026 199.437 -19.0005 201.107C1.72281 204.079 23.2825 205.608 45.4462 205.608C51.8583 205.608 59.8503 205.608 67.5634 205.636C75.3695 205.636 82.8504 205.665 89.1231 205.665C89.309 205.665 89.4793 205.665 89.6342 205.665C100.042 205.665 106.083 205.608 112.541 205.438C184.562 203.485 250.914 184.207 293.94 154.172C306.439 145.454 319.31 135.659 327.441 123.288C329.439 120.26 331.391 117.174 333.063 114.004C336.827 108.257 341.195 101.718 344.447 93.9615C344.726 93.367 345.051 92.7726 345.33 92.1498C350.255 81.2513 353.647 69.3337 354.995 57.5293C355.692 51.1883 356.017 44.3661 355.971 38.563C355.924 27.1549 354.716 10.1135 344.68 -9.13585V-9.16418C337.896 -22.1292 327.999 -34.4715 315.314 -45.8796C305.696 -54.5701 294.405 -62.6945 281.766 -70.0545C270.011 -76.905 258.906 -81.8306 252.447 -84.8595C246.081 -87.8035 235.813 -92.8707 223.825 -97.9378C212.162 -102.835 200.871 -107.053 189.394 -110.761C177.824 -114.47 165.883 -117.668 153.988 -120.301C128.293 -125.991 101.994 -129.161 76.4847 -129.161V-129.728C101.39 -129.728 127.596 -126.727 154.313 -120.839Z" fill="#313131" fill-opacity="0.36"/>
</g>
<g opacity="0.8">
<path fill-rule="evenodd" clip-rule="evenodd" d="M124.065 -56.6085C131.732 -54.6553 139.027 -52.4756 145.81 -50.1544C152.827 -47.7199 159.796 -45.0023 167.045 -41.8884C172.853 -39.3973 177.918 -36.9911 182.053 -35.0379C183.044 -34.5472 183.974 -34.0943 184.841 -33.6791C185.46 -33.3961 186.126 -33.094 186.839 -32.7732C191.532 -30.5652 197.433 -27.7911 203.241 -24.4791C210.257 -20.516 216.669 -16.1 222.292 -11.3726C229.865 -5.00328 235.766 1.62086 239.809 8.38645C239.84 8.38645 239.855 8.38645 239.855 8.38645C245.896 18.4358 247.336 27.5508 247.894 34.3731C248.219 38.3079 248.219 43.1486 247.894 47.5929C247.29 55.4908 245.338 64.3512 242.55 71.9094C242.488 72.0981 242.411 72.2868 242.318 72.4755C242.225 72.702 242.132 72.9379 242.039 73.1832C240.366 78.0239 237.439 81.6473 235.302 84.28C234.512 85.2708 233.815 86.1199 233.304 86.8559C232.653 89.2337 231.677 91.4135 230.748 93.4517C226.52 102.567 216.809 108.087 209.003 112.503C208.027 113.041 207.144 113.55 206.308 114.06C193.809 121.278 176.895 127.478 157.287 131.979C136.936 136.678 114.168 139.395 91.5396 139.848C87.5436 139.933 83.78 139.962 78.1577 139.962H77.1355C73.3253 139.962 68.9577 139.962 64.4041 139.933H63.893C59.2001 139.933 54.3677 139.933 50.3253 139.933C36.9434 139.933 23.608 139.169 10.5979 137.669C3.30292 136.819 -3.89912 135.63 -10.7759 134.13C-23.9255 131.214 -35.1235 127.195 -43.9983 122.156C-51.1074 118.164 -55.8933 113.55 -60.1216 109.502C-62.3519 107.351 -64.4428 105.313 -66.6266 103.671C-75.4085 97.0185 -82.0065 91.6117 -86.9782 82.6947C-88.1398 80.5999 -89.1156 78.4768 -90.0914 76.4103L-90.1378 76.3254C-93.2974 69.5598 -95.3419 63.4452 -96.4106 57.1326C-97.851 50.3953 -97.8045 44.4223 -97.8045 39.1571C-97.7735 38.572 -97.7581 37.9966 -97.7581 37.4304C-97.7581 30.6082 -96.9681 24.7201 -95.2954 19.4549C-92.3681 9.94341 -86.6994 1.05464 -78.4287 -6.95649C-71.2266 -13.9202 -61.9337 -20.2895 -50.8751 -25.8945C-46.2286 -28.244 -40.5599 -30.7917 -35.077 -33.1978C-35.0151 -33.2356 -34.9376 -33.2734 -34.8447 -33.3112L-34.7517 -33.3677L-34.6124 -33.4244C-30.2447 -35.3776 -23.6467 -38.3499 -16.4447 -41.3223C-9.84666 -44.0398 -3.62037 -46.4177 2.60591 -48.5975C24.6302 -56.3255 47.7697 -61.4491 67.7031 -63.0627C70.0264 -63.2608 73.0466 -63.459 75.8809 -63.4873C76.0978 -63.4873 76.3146 -63.4873 76.5315 -63.4873C90.1921 -63.4873 106.222 -61.1661 124.065 -56.6085ZM75.8809 -62.9211C73.3254 -62.8928 70.6304 -62.723 67.8425 -62.4965C47.398 -60.8547 24.6302 -55.6461 3.07056 -48.1162C-3.24865 -45.9081 -9.52135 -43.5019 -15.9335 -40.841C-23.182 -37.8686 -29.78 -34.8963 -34.1942 -32.9148C-34.3181 -32.8581 -34.442 -32.8016 -34.5659 -32.745C-40.5599 -30.0841 -45.9033 -27.6779 -50.271 -25.4698C-61.0973 -19.9781 -70.2973 -13.7221 -77.6388 -6.64508C-85.7701 1.19621 -91.4388 9.91508 -94.4126 19.5681C-96.1782 25.2863 -96.8288 31.2593 -96.8288 37.4304C-96.8752 43.1203 -97.0611 49.6311 -95.5277 57.076C-94.3196 63.9266 -92.0893 70.126 -89.255 76.1555C-88.2328 78.2786 -87.257 80.4017 -86.0954 82.4965C-81.263 91.1304 -74.9903 96.424 -65.8832 103.331C-59.6569 108.059 -54.1741 115.645 -43.3942 121.76C-34.5195 126.77 -23.4608 130.705 -10.4507 133.592C-3.75976 135.064 3.30289 136.253 10.7373 137.102C23.3757 138.574 36.6646 139.367 50.3253 139.367C54.3677 139.367 59.2001 139.367 63.893 139.367C68.6324 139.395 73.186 139.395 77.1355 139.395C77.4762 139.395 77.817 139.395 78.1577 139.395C83.8264 139.395 87.5901 139.367 91.4931 139.282C138.469 138.348 181.031 127.902 205.657 113.635C213.788 108.908 225.172 103.331 229.865 93.3102C230.841 91.1871 231.77 89.0073 232.421 86.7144C234.326 83.8553 238.833 79.6658 241.156 73.07C241.296 72.6454 241.481 72.2208 241.621 71.7962C244.316 64.5493 246.314 55.8022 246.964 47.5929C247.29 42.7806 247.243 37.9682 246.964 34.4014C246.453 27.8906 245.152 18.8037 238.972 8.58452C234.791 1.7057 228.89 -4.83337 221.548 -11.0328C216.019 -15.647 209.7 -20.0347 202.637 -24.0828C195.946 -27.876 189.116 -30.9616 184.283 -33.2545C180.055 -35.2361 173.782 -38.3216 166.534 -41.4355C159.425 -44.4927 152.455 -47.2103 145.346 -49.6448C138.237 -52.0792 130.942 -54.2307 123.74 -56.0707C107.431 -60.2603 91.1679 -62.9211 76.5315 -62.9211C76.3146 -62.9211 76.0978 -62.9211 75.8809 -62.9211Z" fill="#313131" fill-opacity="0.36"/>
</g>
<g opacity="0.9">
<path fill-rule="evenodd" clip-rule="evenodd" d="M119.785 -47.4082C126.755 -45.5682 133.353 -43.5583 139.486 -41.4069C145.898 -39.1705 152.264 -36.6795 158.862 -33.8204C164.159 -31.5275 168.852 -29.2912 172.616 -27.5078C173.514 -27.0737 174.35 -26.6774 175.125 -26.3188C175.713 -26.0357 176.348 -25.7337 177.03 -25.4129C181.351 -23.3747 186.741 -20.8553 191.945 -17.9113C198.125 -14.4294 203.84 -10.5513 208.858 -6.39007C215.688 -0.785099 221.032 5.04636 224.703 10.9061C230.278 19.7382 231.719 27.7494 232.323 33.7506C232.695 37.3457 232.741 41.875 232.416 46.1778C231.905 53.5661 230.185 61.8887 227.723 68.994C227.661 69.1827 227.599 69.362 227.537 69.5318C227.444 69.7583 227.367 69.9752 227.305 70.1828C225.725 74.9386 222.844 78.2506 220.753 80.6851C220.01 81.5626 219.359 82.327 218.941 82.9497C218.43 85.2144 217.547 87.3375 216.804 89.1775C213.086 97.8963 203.84 102.822 196.452 106.757C195.476 107.295 194.547 107.776 193.664 108.257C182.513 114.4 167.133 119.693 149.151 123.6C130.333 127.648 109.377 130.026 88.5143 130.422C84.9365 130.479 81.4052 130.507 76.5264 130.507H75.4112C71.9728 130.507 68.0698 130.479 63.9809 130.479H63.3768C59.1021 130.479 54.7344 130.479 51.0172 130.479C38.8899 130.45 26.7161 129.799 14.8211 128.525C8.17662 127.818 1.62507 126.77 -4.64768 125.412C-16.7285 122.807 -26.9043 119.127 -34.8498 114.485C-41.169 110.805 -45.2115 106.587 -48.7428 102.878C-50.7408 100.812 -52.5993 98.8588 -54.5044 97.4151C-63.1468 90.876 -68.7226 86.3466 -72.9974 78.3921C-73.9732 76.5238 -74.8095 74.6838 -75.7388 72.6173C-78.4803 66.5878 -80.153 61.0394 -81.0823 55.208C-82.2439 49.3199 -82.2439 43.9698 -82.2439 39.2423C-82.2439 38.6007 -82.2439 37.9779 -82.2439 37.374C-82.2904 31.3161 -81.5934 26.0791 -80.1065 21.38C-77.5045 12.8876 -72.4863 4.98974 -65.0984 -2.11554C-58.6398 -8.23005 -50.3691 -13.8917 -40.4256 -18.8739C-36.2438 -20.9687 -30.9932 -23.3465 -25.8821 -25.5828C-25.8201 -25.6016 -25.7427 -25.63 -25.6498 -25.6678L-25.5568 -25.7243L-25.4174 -25.781C-21.4215 -27.5927 -15.3346 -30.3385 -8.78306 -33.056C-2.69617 -35.5471 3.01904 -37.7552 8.73421 -39.7934C29.2252 -47.0968 50.4131 -51.994 68.3485 -53.5793C70.6253 -53.8057 73.2738 -54.0039 75.8294 -54.0322H75.8759C76.0927 -54.0322 76.294 -54.0322 76.4799 -54.0322C88.6537 -54.0322 103.197 -51.7959 119.785 -47.4082ZM75.8759 -53.4661C73.5526 -53.4378 71.0435 -53.2679 68.488 -53.0414C50.0414 -51.3996 29.0393 -46.3608 9.19886 -39.3121C3.39075 -37.2456 -2.37088 -35.0377 -8.22545 -32.5749C-14.8699 -29.829 -20.9103 -27.1114 -24.9992 -25.2714C-25.1231 -25.2147 -25.2471 -25.1676 -25.371 -25.1298C-30.9468 -22.6387 -35.872 -20.4308 -39.8215 -18.4493C-49.5327 -13.5803 -57.757 -8.06018 -64.3085 -1.80413C-71.5106 5.13131 -76.5752 12.8593 -79.1773 21.4649C-80.7571 26.532 -81.3611 31.854 -81.3146 37.374C-81.3146 42.611 -81.5005 48.4989 -80.1995 55.1513C-79.1772 61.4074 -77.3186 67.0124 -74.856 72.4758C-73.9732 74.4007 -73.1368 76.2973 -72.1146 78.2223C-67.7933 86.2051 -62.1711 90.706 -53.761 97.047C-48.4175 101.095 -44.0498 108.314 -34.2457 114.06C-26.3467 118.674 -16.3568 122.298 -4.3224 124.874C1.7645 126.176 8.17663 127.223 15.007 127.959C26.4838 129.205 38.5646 129.884 51.0172 129.913C54.7344 129.913 59.1021 129.913 63.3768 129.913C67.6516 129.913 71.787 129.941 75.4112 129.941C75.8139 129.941 76.1857 129.941 76.5264 129.941C81.5446 129.941 84.9365 129.913 88.5143 129.856C131.866 129.035 171.129 119.892 193.014 107.861C200.587 103.671 211.785 98.7172 215.874 89.0359C216.757 87.0544 217.547 84.9879 218.058 82.8082C219.638 80.3454 224.238 76.5238 226.375 70.0696C226.515 69.6733 226.654 69.277 226.794 68.8806C229.163 62.1717 230.975 53.8775 231.487 46.1494C231.812 41.5636 231.719 37.0626 231.394 33.8072C230.79 28.004 229.489 20.0495 223.866 11.1325C223.866 11.1136 223.866 11.1043 223.866 11.1043C220.056 5.10303 214.759 -0.615196 208.115 -6.05032C203.236 -10.0983 197.614 -13.9482 191.294 -17.515C185.347 -20.8554 179.121 -23.7145 174.521 -25.8659C170.618 -27.7059 164.902 -30.5367 158.351 -33.3675C151.892 -36.1416 145.527 -38.6611 139.022 -40.9257C132.563 -43.162 125.965 -45.1719 119.413 -46.8987C104.405 -50.8618 89.583 -53.4661 76.4799 -53.4661C76.294 -53.4661 76.0927 -53.4661 75.8759 -53.4661Z" fill="#313131" fill-opacity="0.36"/>
</g>
<g opacity="0.9">
<path fill-rule="evenodd" clip-rule="evenodd" d="M115.461 -38.2362C121.733 -36.5094 127.727 -34.6411 133.21 -32.6878C138.972 -30.6213 144.687 -28.3567 150.681 -25.7524C155.513 -23.6576 159.788 -21.6194 163.226 -19.9493C164.001 -19.5907 164.713 -19.251 165.364 -18.9302C165.952 -18.6471 166.572 -18.364 167.222 -18.0809C171.172 -16.2126 176.097 -13.8914 180.651 -11.3437C185.994 -8.34305 191.012 -5.00269 195.473 -1.40759C201.56 3.46137 206.299 8.44354 209.598 13.4257C214.663 21.0406 216.103 27.9761 216.754 33.1564C217.125 36.3269 217.218 40.658 216.986 44.7626C216.568 51.5565 215.035 59.5393 212.897 66.0784C212.835 66.2672 212.773 66.4464 212.711 66.6163C212.649 66.805 212.587 67.0032 212.526 67.2108C211.039 71.8533 208.111 75.0521 206.206 77.1469C205.509 77.8829 204.905 78.534 204.58 79.0435C204.208 81.1383 203.558 83.0915 202.861 84.8749C199.655 93.2823 190.455 97.8117 183.764 101.095C182.803 101.586 181.89 102.048 181.022 102.482C171.218 107.521 157.418 111.937 141.016 115.193C123.778 118.646 104.588 120.628 85.4907 120.967C82.2846 121.024 79.1715 121.024 74.9432 121.024H73.6886C70.4826 121.024 66.9048 121.024 63.1876 121.024H62.8624C59.0058 121.024 55.1027 120.996 51.7573 120.996C40.838 120.996 29.8259 120.458 19.0925 119.382C13.0521 118.788 7.10461 117.882 1.48238 116.693C-9.57625 114.4 -18.7298 111.06 -25.6995 106.785C-31.3218 103.36 -34.8066 99.3403 -37.5481 96.1132C-39.2673 94.1033 -40.7541 92.3765 -42.4269 91.1309L-42.5663 91.0177C-50.14 85.2995 -55.1583 81.5345 -59.0148 74.1179C-59.9441 72.3062 -60.6876 70.4945 -61.3845 68.9092C-63.6148 63.6157 -65.0088 58.6618 -65.7522 53.2833C-66.6815 48.2445 -66.6815 43.5171 -66.728 39.3558C-66.728 38.6575 -66.728 37.9688 -66.728 37.2894C-66.7744 32.0241 -66.1704 27.4382 -64.9158 23.277C-62.6855 15.832 -58.2249 8.89652 -51.7198 2.7254C-46.0976 -2.56818 -38.8026 -7.49376 -29.9743 -11.8532C-26.3036 -13.6932 -21.4248 -15.8729 -16.6854 -17.9394C-16.6235 -17.9771 -16.5615 -18.0148 -16.4995 -18.0526L-16.4066 -18.0809L-16.2208 -18.1659C-12.3177 -19.921 -7.02068 -22.3272 -1.07319 -24.7899C4.45612 -27.0829 9.66015 -29.121 14.8642 -30.9894C33.8218 -37.8682 53.0583 -42.539 68.9492 -44.1242C71.0402 -44.3223 73.5028 -44.5488 75.8261 -44.5771C76.0429 -44.5771 76.2597 -44.5771 76.4765 -44.5771C87.0705 -44.5771 100.22 -42.4258 115.461 -38.2362ZM75.8725 -44.011C75.8415 -44.011 75.8261 -44.011 75.8261 -44.011C73.7352 -43.9827 71.5048 -43.7845 69.0887 -43.558C52.6866 -41.9162 33.4501 -37.0755 15.3288 -30.5081C10.0319 -28.6114 4.78135 -26.545 -0.515633 -24.337C-6.55606 -21.8176 -12.0389 -19.3547 -15.849 -17.628C-15.9419 -17.5902 -16.0349 -17.543 -16.1278 -17.4864C-21.3319 -15.1935 -25.8854 -13.1553 -29.4167 -11.4286C-37.9198 -7.18237 -45.1683 -2.39831 -50.9299 3.03681C-57.2956 9.03809 -61.7098 15.7753 -63.9865 23.3902C-65.334 27.8062 -65.8451 32.4487 -65.7987 37.2894C-65.7522 42.1017 -65.8916 47.3669 -64.8229 53.2267C-64.033 58.8883 -62.5461 63.8987 -60.4552 68.7677C-59.7583 70.4945 -59.0148 72.2213 -58.0855 73.9481C-54.3219 81.3082 -49.3501 85.0165 -41.6834 90.7913C-37.2228 94.1317 -33.9703 100.982 -25.0491 106.389C-18.2187 110.578 -9.25102 113.862 1.8076 116.155C7.24399 117.316 13.0521 118.222 19.2319 118.816C29.5936 119.864 40.4663 120.43 51.7573 120.43C55.1027 120.43 59.0058 120.458 62.8624 120.458C66.6725 120.458 70.3896 120.458 73.6886 120.458C74.1223 120.458 74.5405 120.458 74.9432 120.458C79.218 120.458 82.2846 120.458 85.4907 120.401C125.265 119.722 161.321 111.909 180.418 102.058C187.388 98.4627 198.354 94.1315 201.931 84.7333C202.675 82.8933 203.325 80.9685 203.651 78.902C204.998 76.8638 209.598 73.3536 211.643 67.0975C211.736 66.7295 211.875 66.3615 212.014 65.9652C214.012 59.7941 215.639 51.9528 216.057 44.7343C216.336 40.3749 216.196 36.157 215.824 33.2129C215.174 28.1175 213.827 21.2954 208.762 13.6523C205.323 8.50024 200.584 3.63128 194.729 -1.06784C190.408 -4.5214 185.483 -7.86185 180 -10.9474C174.75 -13.8631 169.127 -16.4391 164.806 -18.5055C161.182 -20.204 156.024 -22.7234 150.123 -25.2994C144.362 -27.8188 138.6 -30.1118 132.745 -32.2065C126.937 -34.273 120.943 -36.113 115.089 -37.7266C101.428 -41.4915 87.9998 -44.011 76.4765 -44.011C76.2597 -44.011 76.0584 -44.011 75.8725 -44.011Z" fill="#313131" fill-opacity="0.36"/>
</g>
<g opacity="0.9">
<path fill-rule="evenodd" clip-rule="evenodd" d="M111.14 -29.0642C116.762 -27.4507 122.059 -25.7239 126.938 -23.9405C132.049 -22.0721 137.16 -20.0056 142.504 -17.6844C146.825 -15.7878 150.728 -13.9194 153.841 -12.4191C154.461 -12.1171 155.065 -11.8341 155.653 -11.5698C156.211 -11.2868 156.799 -11.0037 157.419 -10.7206C161.136 -8.96552 165.411 -6.95566 169.314 -4.77595C173.914 -2.25655 178.189 0.54591 182.045 3.54655C187.482 7.73612 191.524 11.7841 194.498 15.9454C199.098 22.3996 200.492 28.2027 201.189 32.5622C201.607 35.3646 201.746 39.3844 201.561 43.3192C201.235 49.6601 199.934 57.0768 198.122 63.163C198.06 63.3518 197.998 63.531 197.936 63.7009C197.874 63.8707 197.828 64.0405 197.797 64.2104C196.403 68.7962 193.476 71.7121 191.571 73.6653C190.967 74.2598 190.455 74.7692 190.223 75.1372C189.991 77.1754 189.433 79.0155 188.922 80.5724C186.181 88.6968 177.399 92.6598 170.94 95.5189C170.042 95.9341 169.19 96.3305 168.385 96.7079C160.114 100.614 147.522 104.209 132.886 106.842C117.18 109.645 99.7561 111.258 82.5177 111.513C79.6368 111.57 76.8954 111.57 73.3641 111.57H71.9702C69.1358 111.57 65.9762 111.57 62.7237 111.541H62.352C58.9136 111.541 55.4752 111.541 52.4549 111.541C42.7438 111.541 32.9862 111.088 23.368 110.239C17.9316 109.758 12.6346 108.994 7.6164 108.003C-2.37354 105.993 -10.5049 102.992 -16.5453 99.1141C-21.5635 95.887 -24.3049 92.1786 -26.5352 89.178C-27.8362 87.3946 -28.9979 85.8376 -30.2989 84.8751C-30.7635 84.5354 -31.2127 84.2052 -31.6464 83.8843C-37.8262 79.2702 -41.9151 76.2413 -45.0282 69.8437C-45.8181 68.2019 -46.4686 66.5882 -46.9797 65.2011C-48.7454 60.7002 -49.8141 56.2842 -50.4182 51.3586C-51.1151 47.169 -51.1616 43.2909 -51.1616 39.5543C-51.1616 38.7617 -51.1771 37.9878 -51.208 37.233C-51.2545 32.7886 -50.7434 28.8538 -49.6747 25.2021C-47.7232 18.6347 -44.0525 12.8599 -38.3838 7.56633C-33.505 3.03706 -27.3251 -1.03936 -19.5191 -4.83262C-16.4988 -6.30463 -12.5029 -8.088 -7.48466 -10.3243L-7.29879 -10.4092L-7.20588 -10.4659L-7.02002 -10.5507C-3.48869 -12.136 1.34366 -14.2874 6.64065 -16.5237C11.6124 -18.6185 16.3053 -20.4586 20.9983 -22.2136C38.4691 -28.6679 55.7075 -33.0839 69.6005 -34.6408C71.5055 -34.839 73.7358 -35.0654 75.8268 -35.0938C76.0126 -35.0938 76.2139 -35.0938 76.4308 -35.0938C85.5379 -35.0938 97.247 -33.0556 111.14 -29.0642ZM75.8268 -34.5276C73.9682 -34.4993 71.9237 -34.3294 69.7398 -34.0746C55.3822 -32.4611 37.9115 -27.8186 21.4629 -21.7324C16.6771 -19.949 11.9376 -18.0806 7.15175 -16.0708C1.76183 -13.8061 -3.11695 -11.5698 -6.64827 -9.98458C-6.7412 -9.94683 -6.83418 -9.90912 -6.92711 -9.87137C-11.7594 -7.74828 -15.8483 -5.90829 -18.9614 -4.37967C-26.3494 -0.784561 -32.6221 3.23511 -37.5939 7.87761C-43.0303 12.973 -46.7939 18.7195 -48.7454 25.287C-49.8606 29.0519 -50.3252 33.0434 -50.2787 37.2046C-50.1858 41.5924 -50.3252 46.2632 -49.4889 51.3021C-48.8848 56.3692 -47.7696 60.7851 -46.0969 65.0879C-45.4929 66.6165 -44.8424 68.1452 -44.099 69.6739C-40.8464 76.4111 -36.5252 79.3268 -29.6019 84.5072C-25.9776 87.1964 -23.8403 93.6224 -15.8948 98.7178C-10.0402 102.483 -2.14123 105.427 7.94163 107.465C12.7275 108.427 17.9316 109.192 23.5073 109.673C32.6609 110.494 42.4185 110.975 52.4549 110.975C55.4752 110.975 58.9136 110.975 62.352 110.975C65.7439 111.003 69.0429 111.003 71.9702 111.003C72.4658 111.003 72.9304 111.003 73.3641 111.003C76.9884 111.003 79.6833 111.003 82.4712 110.947C118.667 110.409 151.564 103.955 167.781 96.2833C174.193 93.226 184.973 89.5177 187.993 80.4592C188.597 78.7607 189.108 76.949 189.294 75.024C190.362 73.3822 195.009 70.2117 196.868 64.0971C196.96 63.7575 197.069 63.4084 197.193 63.0498C198.912 57.4166 200.259 50.0281 200.631 43.3192C200.817 39.1862 200.678 35.2232 200.259 32.6188C199.562 28.2311 198.169 22.5412 193.661 16.1719C190.595 11.9257 186.413 7.8493 181.348 3.9145C177.585 1.02709 173.403 -1.74703 168.71 -4.37967C164.203 -6.84245 159.185 -9.16365 155.049 -11.1169C151.75 -12.7021 147.15 -14.9385 141.946 -17.2031C136.835 -19.4677 131.677 -21.5625 126.427 -23.4592C121.269 -25.3558 115.972 -27.0543 110.768 -28.5546C98.4551 -32.0931 86.4207 -34.5276 76.4308 -34.5276C76.2139 -34.5276 76.0126 -34.5276 75.8268 -34.5276Z" fill="#313131" fill-opacity="0.36"/>
</g>
<g opacity="0.9">
<path fill-rule="evenodd" clip-rule="evenodd" d="M106.823 -19.8931C111.748 -18.3927 116.394 -16.8075 120.623 -15.2223C125.083 -13.5521 129.683 -11.6555 134.33 -9.58901C138.186 -7.89053 141.671 -6.22034 144.459 -4.88987C144.986 -4.64453 145.466 -4.40863 145.9 -4.18217C146.457 -3.93684 147.015 -3.68215 147.572 -3.41794C150.918 -1.80439 154.728 0.00728989 158.027 1.79069C161.79 3.82886 165.368 6.12188 168.667 8.52805C173.314 11.9533 176.845 15.2087 179.401 18.4642C183.582 23.7577 184.883 28.4567 185.58 31.9386C186.092 34.3448 186.277 38.0815 186.138 41.9031C185.906 47.6496 184.791 54.6699 183.304 60.2465C183.242 60.4352 183.18 60.6334 183.118 60.841C183.087 60.9731 183.056 61.0959 183.025 61.2091C181.724 65.795 178.704 68.5408 176.938 70.1826C176.427 70.6356 176.055 70.9753 175.823 71.2301C175.776 72.787 175.544 74.3439 174.986 76.2688C172.756 84.195 164.253 87.5637 158.027 90.0265C157.19 90.3379 156.401 90.6493 155.704 90.9324C140.974 97.1318 109.657 101.689 79.5013 102.057C77.0387 102.086 74.6225 102.114 71.8346 102.114H70.3013C67.7922 102.086 65.1437 102.086 62.4023 102.086H61.7982C58.8245 102.086 55.8043 102.086 53.1558 102.086C44.6992 102.086 36.1032 101.746 27.6466 101.095C22.8143 100.727 18.1213 100.132 13.7536 99.2832C4.87882 97.5848 -2.27676 94.952 -7.38789 91.4136C-11.895 88.3563 -14.0323 84.7613 -15.5657 82.1286C-16.495 80.6 -17.2849 79.2695 -18.1677 78.5901C-18.9421 78.0428 -19.6546 77.5239 -20.3051 77.0332C-25.2768 73.4098 -28.5293 71.0319 -31.0384 65.5402C-31.5495 64.3512 -32.0607 63.1057 -32.6182 61.4922C-33.8728 57.7555 -34.6627 53.9339 -35.0809 49.433C-35.5455 46.121 -35.592 42.9504 -35.592 39.8648C-35.6385 38.959 -35.6385 38.0532 -35.6385 37.1474C-35.7314 33.4673 -35.3597 30.1835 -34.4768 27.1263C-32.897 21.6062 -29.7839 16.7939 -24.998 12.4062C-20.9556 8.69782 -15.7051 5.3576 -9.06061 2.18711C-6.50504 0.96987 -2.88076 -0.672073 1.71926 -2.71024L1.90508 -2.79511L1.95158 -2.82345L2.18391 -2.93665C5.34351 -4.35205 9.66472 -6.27707 14.3577 -8.25862C18.7254 -10.1269 23.0001 -11.8536 27.089 -13.4106C43.1194 -19.4968 58.4063 -23.658 70.2083 -25.1584C71.9275 -25.3848 73.9255 -25.6113 75.7841 -25.6396C75.97 -25.6396 76.1559 -25.6396 76.3417 -25.6396C84.1478 -25.6396 94.1377 -23.7429 106.823 -19.8931ZM75.8306 -25.0735C75.8306 -25.0735 75.8151 -25.0735 75.7841 -25.0735C74.1578 -25.0452 72.3457 -24.847 70.3942 -24.6205C58.0346 -23.0353 42.3295 -18.5344 27.6001 -12.9294C23.3254 -11.3064 19.0816 -9.5985 14.8688 -7.80567C10.1294 -5.7958 5.76168 -3.8142 2.50914 -2.37049C2.44719 -2.33275 2.36974 -2.29503 2.27681 -2.25729C-2.13734 -0.304043 -5.8545 1.36607 -8.503 2.63993C-14.7293 5.61226 -20.0263 8.896 -24.2081 12.7176C-28.8081 16.9071 -31.9677 21.6346 -33.5475 27.2113C-34.4304 30.3251 -34.8021 33.6372 -34.7092 37.1474C-34.6162 41.1105 -34.7556 45.1301 -34.1516 49.3763C-33.7334 53.849 -32.99 57.6705 -31.6889 61.3788C-31.2243 62.7376 -30.7132 64.0398 -30.1091 65.3986C-27.3677 71.5131 -23.697 73.6362 -17.4707 78.222C-14.7758 80.2319 -13.7071 86.2616 -6.69091 91.0456C-1.85857 94.3576 4.9718 97.0185 14.0324 98.7453C18.2607 99.5379 22.8143 100.161 27.7396 100.529C35.778 101.152 44.3275 101.52 53.1558 101.52C55.8043 101.52 58.8245 101.52 61.7982 101.52C64.772 101.52 67.6528 101.52 70.3013 101.548C70.8279 101.548 71.339 101.548 71.8346 101.548C74.7619 101.548 77.0851 101.52 79.4548 101.491C112.12 101.095 141.95 96.0561 155.192 90.4794C161.047 88.0167 171.595 84.9311 174.057 76.184C174.522 74.5987 174.847 72.9286 174.94 71.1169C175.73 69.8713 180.423 67.0688 182.096 61.1241C182.189 60.8033 182.281 60.4825 182.374 60.1617C183.768 55.0096 184.93 48.0742 185.209 41.9031C185.348 37.9683 185.116 34.3166 184.651 32.0236C183.954 28.3436 182.514 23.7577 178.564 18.7189C175.916 15.3219 172.292 12.0665 167.924 8.896C164.811 6.57475 161.279 4.3384 157.376 2.21531C153.613 0.148829 149.199 -1.88923 145.342 -3.75755C142.322 -5.17295 138.279 -7.1545 133.772 -9.13605C129.265 -11.1176 124.758 -13.0143 120.158 -14.7411C115.604 -16.4396 110.958 -17.9965 106.404 -19.3836C95.4387 -22.7239 84.8448 -25.0735 76.3417 -25.0735C76.1868 -25.0735 76.0165 -25.0735 75.8306 -25.0735Z" fill="#313131" fill-opacity="0.36"/>
</g>
<path fill-rule="evenodd" clip-rule="evenodd" d="M102.552 -10.6917C106.733 -9.33297 110.683 -7.9176 114.354 -6.4739C118.164 -5.00188 122.113 -3.33172 126.156 -1.52001C129.548 0.00861549 132.661 1.50891 135.17 2.69784L136.192 3.17913L137.679 3.88683C140.792 5.38715 144.045 6.94403 146.693 8.35942C149.667 9.91636 152.548 11.6715 155.243 13.4832C159.146 16.1441 162.119 18.6069 164.257 20.9564C164.257 20.9753 164.257 20.9848 164.257 20.9848C167.184 24.1836 169.043 27.4956 170.019 31.3172C170.53 33.3553 170.808 36.7806 170.669 40.4889C170.53 46.745 169.461 53.2841 168.485 57.3321C168.423 57.5775 168.361 57.8133 168.299 58.0398L168.253 58.2097C167.045 62.8522 163.792 65.4565 162.212 66.7304C161.934 66.9569 161.608 67.2115 161.469 67.3531C161.562 68.8251 161.423 70.2972 161.051 71.9674C159.332 79.8087 150.596 82.6678 144.835 84.5644C144.184 84.7908 143.58 84.9984 143.022 85.1871C133.265 88.584 106.64 92.349 76.4848 92.6038C74.7656 92.6321 72.9535 92.6321 70.4444 92.6321C69.8558 92.6321 69.2363 92.6321 68.5858 92.6321C66.3555 92.6321 64.0322 92.6321 61.6161 92.6321H61.2908C58.7353 92.6321 56.1797 92.6321 53.8565 92.6038C46.608 92.6038 39.2665 92.3773 31.9251 91.9526C27.6968 91.7262 23.6544 91.245 19.8907 90.5939C12.0846 89.1785 5.99775 86.8856 1.72298 83.7151C-2.27299 80.7428 -3.66697 77.3741 -4.64273 74.9114C-5.15384 73.7224 -5.57201 72.7033 -6.08313 72.3353C-7.01242 71.6276 -7.89524 71.0331 -8.68514 70.467C-12.5882 67.7211 -15.1438 65.9377 -17.0488 61.2669C-17.467 60.1912 -17.8387 59.0872 -18.2104 57.7851C-19.0468 54.841 -19.5115 51.6706 -19.7438 47.481C-19.9761 45.1315 -20.0226 42.7535 -20.0226 40.4606C-20.069 39.3566 -20.069 38.2242 -20.1155 37.0636C-20.2084 34.1762 -19.9297 31.487 -19.2327 29.0242C-18.0246 24.5516 -15.5155 20.7016 -11.6124 17.2481C-8.40638 14.389 -4.13161 11.7564 1.3977 9.20866C3.72094 8.13296 7.25226 6.57597 10.923 4.9058L11.0624 4.84927L11.1553 4.82093L11.4341 4.67939C14.4078 3.34892 18.0321 1.70706 22.0281 0.00858879C25.8847 -1.66158 29.6483 -3.19015 33.2261 -4.60555C47.7696 -10.3237 61.105 -14.2586 70.8161 -15.674C72.9535 -15.9854 74.4404 -16.1553 75.7878 -16.1836C75.9427 -16.1836 76.1131 -16.1836 76.299 -16.1836C82.6647 -16.1836 91.2607 -14.3718 102.552 -10.6917ZM75.7878 -15.6174C74.3939 -15.5891 72.8141 -15.3909 71.0485 -15.1361C60.6868 -13.6075 46.7938 -9.24813 33.7372 -4.12439C29.9735 -2.65238 26.2564 -1.1237 22.5856 0.461542C18.4503 2.24494 14.6402 3.94342 11.7129 5.27389C11.62 5.31163 11.5425 5.33989 11.4806 5.35876C7.48462 7.14216 4.18562 8.61422 1.95531 9.66162C-3.10936 12.0112 -7.47709 14.5589 -10.869 17.5595C-14.5397 20.8149 -17.0953 24.5798 -18.3498 29.1374C-19.0004 31.5719 -19.2791 34.2328 -19.1862 37.0636C-19.0468 40.6021 -19.1862 43.9991 -18.8145 47.4527C-18.6286 51.3309 -18.2104 54.5579 -17.2811 57.7001C-16.9559 58.8324 -16.5842 59.9647 -16.1195 61.1254C-13.8892 66.6171 -10.869 67.9193 -5.38615 71.9674C-3.57403 73.2978 -3.52755 78.9027 2.46641 83.3754C6.32299 86.2628 12.0846 88.6124 20.1695 90.0278C23.7473 90.6788 27.6503 91.1317 32.018 91.3865C38.8483 91.8111 46.2363 92.0376 53.8565 92.0376C56.1797 92.066 58.7353 92.066 61.2908 92.066C63.7999 92.066 66.2626 92.066 68.5858 92.066C69.2363 92.066 69.8558 92.066 70.4444 92.066C72.6282 92.066 74.5333 92.066 76.4848 92.0376C105.525 91.8112 132.428 88.2444 142.558 84.7059C147.948 82.8093 158.263 80.3181 160.121 71.9107C160.447 70.467 160.633 68.91 160.54 67.2115C161.097 66.3906 165.837 63.9278 167.37 58.1247C167.432 57.8416 167.494 57.5492 167.556 57.2472C168.671 52.6331 169.6 46.1505 169.74 40.4606C169.879 36.7805 169.6 33.4119 169.089 31.4304C168.346 28.458 166.905 25.0045 163.467 21.2395C161.19 18.7201 158.123 16.3139 154.546 13.8511C151.99 12.1527 149.202 10.4259 146.089 8.78404C143.022 7.14218 139.212 5.35873 135.588 3.63195C132.893 2.32978 129.455 0.659725 125.598 -1.06706C121.742 -2.79384 117.839 -4.46401 113.843 -6.02094C109.986 -7.52126 105.99 -8.93674 102.087 -10.2106C92.4688 -13.3528 83.2223 -15.6174 76.299 -15.6174C76.1441 -15.6174 75.9737 -15.6174 75.7878 -15.6174Z" fill="#313131" fill-opacity="0.36"/>
<path fill-rule="evenodd" clip-rule="evenodd" d="M98.2752 -1.52074C101.621 -0.303501 104.92 0.941992 108.079 2.24416C111.239 3.54632 114.538 4.99008 117.976 6.54701C120.95 7.9341 123.784 9.29288 126.061 10.3686L126.433 10.5667L127.316 10.9631C130.336 12.4351 133.217 13.8221 135.354 14.8978C137.538 16.0302 139.722 17.2191 141.766 18.4363C145.112 20.4179 147.389 21.9464 149.108 23.4468C151.803 25.768 153.568 28.1459 154.451 30.6936C155.009 32.3355 155.288 35.3078 155.241 39.0444C155.148 44.7626 154.358 50.8772 153.708 54.3874C153.615 54.6988 153.568 55.0102 153.522 55.2366C152.407 59.9923 148.783 62.3985 147.389 63.3044C147.296 63.361 147.203 63.4176 147.11 63.4743C147.342 64.8896 147.296 66.2484 147.11 67.6638C145.902 75.7032 136.283 77.9961 131.126 79.2417C130.847 79.2983 130.568 79.3644 130.289 79.4399C123.273 81.1384 98.7399 83.0632 73.463 83.1764C72.2549 83.1764 70.9539 83.1764 69.3741 83.1764C68.5687 83.1764 67.7324 83.1764 66.865 83.1764H61.568L60.7781 83.1483C58.6408 83.1483 56.5498 83.1483 54.5519 83.1483C48.5579 83.1483 42.3781 83.035 36.1983 82.8085C32.574 82.6953 29.1356 82.3839 26.0689 81.8744C19.3315 80.7987 14.2204 78.8171 10.8749 76.0146C7.25068 72.9857 6.69308 69.5038 6.32137 67.4374C6.22844 66.8429 6.13553 66.2201 5.99613 66.022C4.97391 65.286 4.04461 64.6631 3.20825 64.1253C0.141569 62.1154 -1.71702 60.8982 -3.0645 56.9634C-3.38976 56.0576 -3.62206 55.0951 -3.85438 54.076C-4.36549 51.4433 -4.41199 48.7541 -4.41199 45.5553C-4.45846 44.338 -4.45845 43.0925 -4.45845 41.7904C-4.50491 40.2617 -4.50493 38.6765 -4.59786 37.0064C-4.69079 34.8266 -4.5049 32.7884 -4.04025 30.9483C-3.15742 27.4948 -1.25235 24.5791 1.72139 22.0597C4.13756 20.0498 7.39007 18.1815 11.8507 16.2282C13.8022 15.379 16.9618 13.9637 20.1214 12.52L20.2608 12.4917L20.3073 12.4633L20.8184 12.2369C23.3275 11.1046 26.4406 9.7175 29.7396 8.24549C33.0851 6.80178 36.3377 5.44292 39.3579 4.19737C46.9781 1.0835 61.2893 -4.40815 71.4186 -6.19155C73.2307 -6.53124 74.5782 -6.67286 75.7398 -6.70117C75.8947 -6.70117 76.0496 -6.70117 76.2044 -6.70117C81.1762 -6.70117 88.4247 -5.00261 98.2752 -1.52074ZM75.7862 -6.13501C74.5782 -6.10671 73.2307 -5.9368 71.6509 -5.65372C63.2873 -4.18171 51.2064 0.0361667 39.869 4.67866C36.6165 6.00914 33.4104 7.36786 30.2972 8.72664C26.7659 10.2553 23.5134 11.7274 20.8649 12.9163C20.8029 12.9352 20.741 12.9634 20.679 13.0012C17.1012 14.5864 14.2204 15.8886 12.4083 16.6812C8.45879 18.408 5.11331 20.2197 2.46482 22.3994C-0.323068 24.749 -2.22812 27.4949 -3.11096 31.0334C-3.5756 32.8451 -3.7615 34.8266 -3.66857 36.978C-3.52917 40.0919 -3.57563 42.8943 -3.4827 45.5553C-3.4827 48.8107 -3.4362 51.4434 -2.92509 53.9911C-2.73923 54.9536 -2.46046 55.8876 -2.13521 56.8501C-0.462474 61.6907 1.95369 62.2286 6.73956 65.6822C7.66886 66.3616 6.64663 71.5136 11.6184 75.6749C14.5456 78.1376 19.1921 80.1758 26.3012 81.3364C29.2285 81.8177 32.5275 82.1291 36.2912 82.2423C41.9599 82.4405 48.1397 82.5821 54.5519 82.5821C56.5498 82.5821 58.6408 82.5821 60.7781 82.5821C62.8226 82.6104 64.867 82.6103 66.865 82.6103C67.7324 82.6103 68.5687 82.6103 69.3741 82.6103C70.8145 82.6103 72.1155 82.6103 73.463 82.6103C98.9257 82.4971 123.087 80.5722 129.964 78.9021C134.936 77.6848 144.972 75.7032 146.18 67.6071C146.366 66.3049 146.413 64.8896 146.18 63.3044C146.459 62.9081 151.245 60.7566 152.593 55.1516C152.655 54.8874 152.717 54.6138 152.778 54.3307C153.522 50.2544 154.219 44.2248 154.312 39.0444C154.358 35.5626 154.079 32.477 153.522 30.8068C152.732 28.5422 151.245 26.2493 148.364 23.7865C146.459 22.1163 143.997 20.5311 141.116 18.8326C139.211 17.7003 137.073 16.5114 134.75 15.3508C132.427 14.1619 129.267 12.6331 125.875 10.9913C123.459 9.85896 120.578 8.44367 117.419 6.99997C114.213 5.55626 110.914 4.08423 107.568 2.72545C104.316 1.39497 101.017 0.121062 97.7641 -1.01125C89.4934 -3.98358 81.6408 -6.13501 76.2044 -6.13501C76.0496 -6.13501 75.9101 -6.13501 75.7862 -6.13501Z" fill="#313131" fill-opacity="0.36"/>
<path fill-rule="evenodd" clip-rule="evenodd" d="M119.232 19.1715C121.276 20.1623 122.902 20.9265 124.018 21.4643C125.783 22.2853 127.456 22.993 128.943 23.6441C133.915 25.7955 137.539 27.3808 138.84 30.0701C140.559 33.5519 139.63 45.979 138.886 51.4707C138.189 56.6511 134.24 58.9723 132.799 59.68C133.868 64.0677 132.706 67.5497 129.407 70.0407C126.062 72.5602 120.997 73.5792 117.373 73.6924C115.747 73.7207 110.589 73.7491 101.11 73.7491C92.9326 73.7491 82.8032 73.7208 72.0699 73.7208C61.1506 73.6925 49.8133 73.6924 40.5203 73.6924C31.4132 73.6924 24.8152 72.1639 21.0515 69.2198C16.3121 65.5398 17.4273 60.8407 17.8455 59.5952C17.0091 59.0573 16.2657 58.661 15.6616 58.293C13.199 56.8776 11.805 56.1133 10.9222 52.6597C10.3182 50.3951 10.504 48.3569 10.7363 45.8091C10.9687 43.5445 11.201 40.7421 10.9687 36.9205C10.4111 28.6546 15.3363 26.022 22.3525 23.2195C23.8859 22.625 26.9061 21.2662 30.7162 19.5395C44.4233 13.3683 67.4234 3.0077 75.6941 2.75293C75.8181 2.75293 75.9575 2.75293 76.1123 2.75293C85.4518 2.75293 107.43 13.425 119.232 19.1715ZM75.7406 3.31909C65.4254 3.63047 29.8334 20.9266 22.8637 23.7008C15.894 26.475 11.3404 28.9094 11.8979 36.9205C12.4091 44.9033 10.7363 48.3287 11.8515 52.5748C12.9666 56.7927 14.5465 56.6511 18.8212 59.4253C18.8212 59.4253 13.199 73.1263 40.5203 73.1263C58.7345 73.1263 84.4295 73.183 101.11 73.183C109.474 73.183 115.561 73.1546 117.327 73.1263C122.717 72.9564 134.751 70.4937 131.777 59.4253C131.777 59.4253 137.167 57.4721 137.957 51.4142C138.747 45.3846 139.537 33.4953 137.957 30.2116C136.331 26.9562 131.173 25.4841 123.46 21.9173C115.84 18.3505 86.7063 3.31909 76.1123 3.31909C75.9884 3.31909 75.8645 3.31909 75.7406 3.31909Z" fill="#313131" fill-opacity="0.36"/>
</g>
</g>
<path d="M81.2292 55.2442C80.6681 53.746 79.661 52.4559 78.3437 51.5479C77.0264 50.64 75.4623 50.158 73.8625 50.1669H64.7958C63.7473 50.1442 62.7051 50.3333 61.7314 50.7227C60.7578 51.1122 59.8726 51.6941 59.1291 52.4335C58.3583 53.2128 57.7632 54.148 57.3837 55.1762C55.8825 55.7573 54.5943 56.7826 53.6911 58.1151C52.7879 59.4476 52.3127 61.0239 52.329 62.6336C52.329 62.9342 52.4484 63.2225 52.661 63.435C52.8735 63.6475 53.1618 63.7669 53.4624 63.7669H85.1959C85.4965 63.7669 85.7847 63.6475 85.9973 63.435C86.2098 63.2225 86.3292 62.9342 86.3292 62.6336C86.3219 61.0316 85.8311 59.4692 84.9212 58.1508C84.0112 56.8323 82.7244 55.8193 81.2292 55.2442ZM64.7958 52.4335H73.8625C74.7428 52.43 75.6117 52.6333 76.3991 53.027C77.1865 53.4207 77.8705 53.9938 78.3958 54.7002H60.2624C60.3931 54.4818 60.5449 54.2768 60.7157 54.0882C61.2518 53.5552 61.8887 53.1343 62.5892 52.8502C63.2897 52.5661 64.0399 52.4245 64.7958 52.4335ZM54.709 61.5003C54.9703 60.2203 55.6658 59.0699 56.6778 58.2438C57.6897 57.4177 58.9561 56.9666 60.2624 56.9669H78.3958C79.7215 56.9402 81.0146 57.3792 82.0501 58.2075C83.0855 59.0358 83.7976 60.201 84.0625 61.5003H54.709Z" fill="#EAEAEA"/>
<path d="M92.0357 32.9488L83.3646 32.9328C82.5279 32.9744 81.7365 33.3255 81.1441 33.9179C80.5517 34.5102 80.2006 35.3017 80.1591 36.1384L75.8315 36.1384L75.8315 33.606L76.2963 33.59C76.445 33.5947 76.593 33.5689 76.7312 33.5142C76.8695 33.4594 76.995 33.377 77.1002 33.2718C77.2053 33.1667 77.2878 33.0411 77.3425 32.9029C77.3972 32.7646 77.423 32.6166 77.4183 32.468L77.4343 28.3168C77.4278 27.4176 77.0678 26.5571 76.4319 25.9213C75.7961 25.2855 74.9356 24.9254 74.0364 24.9189L65.734 24.9189C64.8348 24.9254 63.9743 25.2855 63.3385 25.9213C62.7026 26.5571 62.3426 27.4176 62.3361 28.3168L62.3521 32.468C62.3474 32.6166 62.3732 32.7646 62.4279 32.9029C62.4826 33.0411 62.5651 33.1667 62.6702 33.2718C62.7754 33.377 62.9009 33.4594 63.0392 33.5142C63.1774 33.5689 63.3254 33.5947 63.4741 33.59L63.9389 33.606L63.9389 40.9467L63.4741 40.9628C63.3255 40.9581 63.1774 40.9839 63.0392 41.0386C62.9009 41.0933 62.7754 41.1758 62.6702 41.2809C62.5651 41.386 62.4826 41.5116 62.4279 41.6499C62.3732 41.7881 62.3474 41.9361 62.3521 42.0847L62.3361 46.2359C62.3426 47.1351 62.7026 47.9956 63.3385 48.6314C63.9743 49.2673 64.8348 49.6274 65.734 49.6338L74.0364 49.6338C74.9338 49.6216 75.7909 49.2596 76.4255 48.625C77.0601 47.9905 77.422 47.1333 77.4343 46.2359L77.4183 42.0847C77.423 41.9361 77.3972 41.7881 77.3425 41.6499C77.2878 41.5116 77.2053 41.386 77.1002 41.2809C76.995 41.1758 76.8695 41.0933 76.7312 41.0386C76.593 40.9839 76.445 40.9581 76.2963 40.9628L75.8315 40.9467L75.8315 38.4143L80.0148 38.3983C80.038 39.2624 80.3915 40.0848 81.0028 40.696C81.614 41.3073 82.4364 41.6609 83.3005 41.684L91.9716 41.668C92.7185 41.6763 93.4596 41.5345 94.1506 41.2509C94.8417 40.9673 95.4688 40.5477 95.9946 40.0171L96.267 39.7447C96.5967 39.4321 96.8604 39.0568 97.0425 38.6406C97.2247 38.2245 97.3216 37.7761 97.3276 37.322C97.3335 36.8678 97.2484 36.417 97.0773 35.9962C96.9062 35.5755 96.6525 35.1933 96.3312 34.8722L96.0587 34.5997C95.5329 34.0691 94.9058 33.6495 94.2147 33.366C93.5237 33.0824 92.7826 32.9405 92.0357 32.9488ZM64.612 28.3168C64.615 28.0202 64.7342 27.7365 64.9439 27.5267C65.1537 27.317 65.4373 27.1978 65.734 27.1948L74.0364 27.1948C74.3331 27.1978 74.6167 27.317 74.8265 27.5267C75.0362 27.7365 75.1554 28.0202 75.1584 28.3168L75.1584 31.33L64.612 31.33L64.612 28.3168ZM75.1584 46.2359C75.1554 46.5326 75.0362 46.8162 74.8265 47.026C74.6167 47.2358 74.3331 47.3549 74.0364 47.3579L65.734 47.3579C65.4374 47.3549 65.1537 47.2358 64.9439 47.026C64.7342 46.8162 64.615 46.5326 64.612 46.2359V43.2227H75.1584L75.1584 46.2359ZM66.2148 40.9467L66.2148 33.606L73.5556 33.606L73.5556 40.9467H66.2148ZM94.7284 36.475C94.9409 36.6875 95.0603 36.9758 95.0603 37.2764C95.0603 37.5769 94.9409 37.8652 94.7284 38.0778L94.4559 38.3502C93.8111 38.9886 92.943 39.3507 92.0357 39.36L83.3646 39.344C83.068 39.341 82.7843 39.2218 82.5746 39.0121C82.3648 38.8023 82.2456 38.5186 82.2427 38.222L82.2427 36.3307C82.238 36.1821 82.2638 36.0341 82.3185 35.8959C82.3732 35.7576 82.4557 35.632 82.5608 35.5269C82.6659 35.4218 82.7915 35.3393 82.9298 35.2846C83.068 35.2299 83.216 35.2041 83.3646 35.2088L92.0357 35.1927C92.943 35.202 93.8111 35.5642 94.4559 36.2025L94.7284 36.475Z" fill="#EAEAEA"/>
<path d="M181.39 45.2118H191.327C192.077 45.2118 192.645 44.9458 193.032 44.4139C193.346 43.9304 193.503 43.4831 193.503 43.0721C193.503 42.9512 193.479 42.794 193.431 42.6006L190.529 32.0469L194.736 30.8501L197.674 41.4763C197.795 42.0808 197.855 42.6127 197.855 43.0721C197.855 44.6194 197.384 45.9734 196.441 47.1339C195.812 47.9076 195.051 48.5121 194.156 48.9473C193.261 49.3825 192.319 49.6001 191.327 49.6001H181.39V45.2118ZM202.753 24.2133H207.141V49.6001H202.753V24.2133ZM217.514 23.7418C218.215 23.7418 218.82 23.9957 219.327 24.5034C219.835 24.987 220.089 25.5793 220.089 26.2805C220.089 26.9817 219.835 27.5861 219.327 28.0938C218.82 28.6016 218.215 28.8554 217.514 28.8554C216.813 28.8554 216.208 28.6016 215.701 28.0938C215.193 27.5861 214.939 26.9817 214.939 26.2805C214.939 25.5793 215.193 24.987 215.701 24.5034C216.208 23.9957 216.813 23.7418 217.514 23.7418ZM223.861 45.2118C224.465 45.2118 224.973 45.4294 225.384 45.8646C225.819 46.2756 226.037 46.7955 226.037 47.4241C226.037 48.0285 225.819 48.5484 225.384 48.9836C224.973 49.3946 224.465 49.6001 223.861 49.6001H222.809C221.6 49.6001 220.572 49.2495 219.726 48.5484L219.69 49.7452C219.521 52.0904 218.699 53.9763 217.224 55.4028C215.773 56.8293 213.827 57.7722 211.385 58.2316L209.789 54.0972C211.167 53.8312 212.243 53.5048 213.017 53.118C213.815 52.7553 214.407 52.2234 214.794 51.5222C215.205 50.8211 215.41 49.8902 215.41 48.7297V32.0832H219.762V42.1654C219.762 42.9874 220.065 43.7007 220.669 44.3051C221.274 44.9096 221.987 45.2118 222.809 45.2118H223.861ZM247.106 45.2118C247.71 45.2118 248.218 45.4294 248.629 45.8646C249.064 46.2998 249.282 46.8196 249.282 47.4241C249.282 48.0285 249.064 48.5484 248.629 48.9836C248.218 49.3946 247.71 49.6001 247.106 49.6001H245.873C244.906 49.6001 244.011 49.3704 243.189 48.911C242.391 48.4516 241.763 47.8472 241.303 47.0977C240.602 47.8714 239.756 48.4879 238.765 48.9473C237.797 49.3825 236.758 49.6001 235.646 49.6001C233.131 49.6001 231.1 48.7539 229.553 47.0614C228.997 47.8593 228.296 48.4879 227.449 48.9473C226.603 49.3825 225.696 49.6001 224.729 49.6001H223.351C222.747 49.5759 222.239 49.3583 221.828 48.9473C221.393 48.5121 221.175 47.9923 221.175 47.3878C221.175 46.7834 221.393 46.2756 221.828 45.8646C222.239 45.4294 222.747 45.2118 223.351 45.2118H224.729C225.334 45.2118 225.817 45.0305 226.18 44.6678C226.543 44.3051 226.724 43.8095 226.724 43.1809V32.0107H235.646C237.145 32.0107 238.535 32.3854 239.816 33.1349C241.122 33.8603 242.162 34.8516 242.935 36.1088C243.733 37.3661 244.144 38.7442 244.168 40.2432V43.471C244.168 43.9546 244.326 44.3656 244.64 44.7041C244.978 45.0426 245.389 45.2118 245.873 45.2118H247.106ZM239.744 40.3158C239.695 39.1552 239.26 38.2123 238.438 37.487C237.616 36.7616 236.552 36.399 235.247 36.399H231.149V41.2224C231.149 42.3105 231.56 43.2534 232.382 44.0513C233.204 44.825 234.159 45.2118 235.247 45.2118C236.601 45.2118 237.689 44.8129 238.511 44.015C239.333 43.2171 239.744 42.2258 239.744 41.0411V40.3158ZM246.631 49.6001C246.027 49.6001 245.507 49.3946 245.072 48.9836C244.636 48.5484 244.419 48.0285 244.419 47.4241C244.419 46.7955 244.636 46.2756 245.072 45.8646C245.483 45.4294 246.002 45.2118 246.631 45.2118H248.517C248.952 45.2118 249.315 45.0667 249.605 44.7766C249.919 44.4623 250.076 44.0875 250.076 43.6523V24.2858H254.465V43.6523C254.465 44.7162 254.199 45.7075 253.667 46.6262C253.135 47.545 252.41 48.2703 251.491 48.8022C250.596 49.3341 249.617 49.6001 248.553 49.6001H246.631ZM260.624 24.2133H265.012V49.6001H260.624V24.2133ZM307.695 45.2118C308.324 45.2118 308.855 45.4173 309.291 45.8283C309.726 46.2394 309.943 46.7471 309.943 47.3516C309.943 47.956 309.726 48.4879 309.291 48.9473C308.855 49.3825 308.324 49.6001 307.695 49.6001C306.921 49.6001 306.015 49.5034 304.975 49.31C305.362 49.8419 305.555 50.4705 305.555 51.1958C305.555 52.5014 305.229 53.6983 304.576 54.7863C303.923 55.8984 303.041 56.7689 301.928 57.3975C300.84 58.0503 299.656 58.3767 298.374 58.3767H287.313C285.524 58.3767 283.868 57.9294 282.344 57.0348C280.821 56.1402 279.612 54.9313 278.718 53.4081C277.823 51.8849 277.376 50.2166 277.376 48.4033V41.8027H281.764V48.4033C281.764 49.4188 282.006 50.3496 282.489 51.1958C282.997 52.0662 283.674 52.7432 284.52 53.2268C285.367 53.7345 286.297 53.9884 287.313 53.9884H298.374C299.124 53.9884 299.777 53.7103 300.333 53.1543C300.889 52.5982 301.167 51.9454 301.167 51.1958C301.167 50.5189 300.961 49.9144 300.55 49.3825C300.163 48.8264 299.644 48.4516 298.991 48.2582L293.261 45.9371L295.183 41.9115L298.374 43.2897C299.172 43.6282 299.644 43.8216 299.789 43.8699C302.303 44.7645 304.939 45.2118 307.695 45.2118ZM289.054 60.6978C289.755 60.6978 290.359 60.9395 290.867 61.4231C291.375 61.9308 291.629 62.5353 291.629 63.2364C291.629 63.9376 291.375 64.5421 290.867 65.0498C290.359 65.5575 289.755 65.8114 289.054 65.8114C288.353 65.8114 287.748 65.5575 287.24 65.0498C286.733 64.5421 286.479 63.9376 286.479 63.2364C286.479 62.5353 286.733 61.9308 287.24 61.4231C287.748 60.9395 288.353 60.6978 289.054 60.6978ZM295.799 60.6978C296.501 60.6978 297.105 60.9395 297.613 61.4231C298.12 61.9308 298.374 62.5353 298.374 63.2364C298.374 63.9376 298.12 64.5421 297.613 65.0498C297.105 65.5575 296.501 65.8114 295.799 65.8114C295.098 65.8114 294.494 65.5575 293.986 65.0498C293.478 64.5421 293.224 63.9376 293.224 63.2364C293.224 62.5353 293.478 61.9308 293.986 61.4231C294.494 60.9395 295.098 60.6978 295.799 60.6978ZM332.244 45.2118V49.6001H328.908V50.1078C328.908 52.4289 328.122 54.2664 326.55 55.6204C324.979 56.9744 322.827 57.6513 320.095 57.6513C318.62 57.6513 317.23 57.3249 315.924 56.6721C314.643 56.0193 313.567 55.1127 312.696 53.9521C311.85 52.8158 311.306 51.5343 311.064 50.1078L310.992 49.6001H307.329V45.2118H310.81V41.4763C310.81 39.7839 311.221 38.2244 312.044 36.7979C312.866 35.3472 313.966 34.1988 315.344 33.3525C316.722 32.4821 318.221 32.0469 319.841 32.0469C321.001 32.0469 322.114 32.2645 323.177 32.6997C324.241 33.1108 325.221 33.7273 326.115 34.5493C326.985 35.3714 327.662 36.3506 328.146 37.487C328.63 38.6233 328.871 39.808 328.871 41.0411C328.871 42.5885 328.497 43.9787 327.747 45.2118H332.244ZM315.199 45.2118H318.717C320.143 45.2118 321.473 44.8854 322.706 44.2326C323.939 43.5798 324.556 42.516 324.556 41.0411C324.556 40.3883 324.435 39.7718 324.193 39.1915C323.951 38.5871 323.588 38.0793 323.105 37.6683C322.283 36.8462 321.195 36.4352 319.841 36.4352C319.019 36.4352 318.245 36.6649 317.52 37.1243C316.819 37.5837 316.25 38.2002 315.815 38.9739C315.404 39.7476 315.199 40.5817 315.199 41.4763V45.2118ZM320.095 53.3356C321.425 53.3356 322.5 52.9367 323.323 52.1388C324.145 51.3409 324.556 50.3496 324.556 49.1649V48.222C322.936 49.1407 320.989 49.6001 318.717 49.6001H315.525L315.598 49.999C315.864 50.9662 316.408 51.764 317.23 52.3926C318.076 53.0213 319.031 53.3356 320.095 53.3356ZM335.58 26.7157C336.282 26.7157 336.886 26.9696 337.394 27.4773C337.902 27.9609 338.155 28.5532 338.155 29.2544C338.155 29.9555 337.902 30.56 337.394 31.0677C336.886 31.5755 336.282 31.8293 335.58 31.8293C334.879 31.8293 334.275 31.5755 333.767 31.0677C333.259 30.56 333.006 29.9555 333.006 29.2544C333.006 28.5532 333.259 27.9609 333.767 27.4773C334.275 26.9696 334.879 26.7157 335.58 26.7157ZM342.254 26.7157C342.955 26.7157 343.559 26.9696 344.067 27.4773C344.575 27.9609 344.829 28.5532 344.829 29.2544C344.829 29.9555 344.575 30.56 344.067 31.0677C343.559 31.5755 342.955 31.8293 342.254 31.8293C341.552 31.8293 340.948 31.5755 340.44 31.0677C339.932 30.56 339.679 29.9555 339.679 29.2544C339.679 28.5532 339.932 27.9609 340.44 27.4773C340.948 26.9696 341.552 26.7157 342.254 26.7157ZM345.808 45.2118C346.412 45.2118 346.92 45.4294 347.331 45.8646C347.766 46.2756 347.984 46.7834 347.984 47.3878C347.984 47.9923 347.766 48.5121 347.331 48.9473C346.896 49.3825 346.376 49.6001 345.771 49.6001H344.031C343.136 49.6001 342.278 49.4309 341.456 49.0924C340.658 48.7297 339.957 48.2461 339.352 47.6417C338.772 48.2461 338.095 48.7297 337.321 49.0924C336.548 49.4309 335.738 49.6001 334.891 49.6001H331.918C331.241 49.6001 330.684 49.3946 330.249 48.9836C329.814 48.5725 329.596 48.0527 329.596 47.4241C329.596 46.7955 329.814 46.2756 330.249 45.8646C330.684 45.4294 331.241 45.2118 331.918 45.2118H334.384C335.085 45.2118 335.677 44.97 336.161 44.4865C336.644 43.9787 336.886 43.3864 336.886 42.7094V35.5285H341.274V42.7457C341.371 43.4468 341.685 44.0392 342.217 44.5227C342.749 44.9821 343.354 45.2118 344.031 45.2118H345.808ZM351.931 23.7418C352.656 23.7418 353.273 23.9957 353.78 24.5034C354.288 24.987 354.542 25.5793 354.542 26.2805C354.542 26.9817 354.288 27.5861 353.78 28.0938C353.273 28.6016 352.656 28.8554 351.931 28.8554C351.23 28.8554 350.625 28.6016 350.118 28.0938C349.634 27.5861 349.392 26.9817 349.392 26.2805C349.392 25.5793 349.646 24.987 350.154 24.5034C350.662 23.9957 351.254 23.7418 351.931 23.7418ZM345.693 49.6001C345.089 49.6001 344.569 49.3825 344.134 48.9473C343.674 48.5121 343.444 47.9923 343.444 47.3878C343.444 46.7592 343.662 46.2394 344.097 45.8283C344.532 45.4173 345.064 45.2118 345.693 45.2118H348.232C348.691 45.2118 349.078 45.0546 349.392 44.7403C349.707 44.426 349.864 44.0392 349.864 43.5798V32.0832H354.252V43.5798C354.252 44.6678 353.974 45.6712 353.418 46.5899C352.886 47.5087 352.148 48.2461 351.206 48.8022C350.287 49.3341 349.283 49.6001 348.195 49.6001H345.693ZM359.074 24.2858H363.463V49.5276H359.074V24.2858ZM357.551 58.9932V56.7447H358.784C358.518 56.2369 358.397 55.7292 358.422 55.2215C358.542 54.3269 358.929 53.5653 359.582 52.9367C360.235 52.3322 361.021 52.03 361.939 52.03C362.737 52.03 363.426 52.2355 364.007 52.6465C364.611 53.0817 365.046 53.6499 365.312 54.3511L363.571 55.6204C363.378 55.161 363.16 54.8225 362.919 54.6049C362.677 54.3873 362.35 54.2785 361.939 54.2785C361.601 54.2785 361.311 54.3873 361.069 54.6049C360.827 54.8467 360.706 55.1248 360.706 55.4391C360.706 55.7534 360.803 56.0435 360.996 56.3095C361.214 56.5996 361.528 56.7447 361.939 56.7447H365.276V58.9932H357.551Z" fill="#EAEAEA"/>
</g>
<defs>
<clipPath id="clip0_6431_49986">
<rect width="414" height="82.2002" fill="white"/>
</clipPath>
</defs>
</svg>
