<svg width="43" height="38" viewBox="0 0 43 38" fill="none" xmlns="http://www.w3.org/2000/svg">
<g id="&#60;Group&#62;">
<path id="&#60;Path&#62;" d="M40.8131 13.575L22.7859 0.43924C22.0051 -0.157839 20.9258 -0.134875 20.145 0.43924L2.14076 13.8735C1.08439 14.6543 0.487305 15.8714 0.487305 17.1574V28.0656C0.487305 29.1679 1.77332 29.788 2.62301 29.099L20.3057 14.861C21.0406 14.2869 22.074 14.2869 22.8089 14.8839L40.3538 29.0761C41.2265 29.788 42.5125 29.1679 42.5125 28.0656V16.8819C42.5125 15.5729 41.8695 14.3558 40.8131 13.575Z" fill="#00DB81"/>
<path id="&#60;Path&#62;_2" d="M3.77051 34.725L19.2257 22.5308C20.0983 21.8418 21.3843 22.4848 21.3843 23.5871L21.3155 32.8648C21.3155 33.9901 22.6015 34.6101 23.4741 33.8982L29.7664 28.846C30.5702 28.1801 31.7184 28.203 32.4992 28.892L39.2738 34.7709C40.3301 35.7125 39.6642 37.4578 38.2633 37.4578H4.73503C3.26529 37.4578 2.64525 35.6435 3.77051 34.725Z" fill="#00DB81"/>
</g>
</svg>
