<svg width="284" height="276" viewBox="0 0 284 276" fill="none" xmlns="http://www.w3.org/2000/svg">
<g opacity="0.5">
<g opacity="0.8">
<path fill-rule="evenodd" clip-rule="evenodd" d="M182.106 9.37468C188.337 11.93 194.358 14.8004 199.959 17.9158C205.734 21.1362 211.44 24.7417 217.391 28.9423C222.117 32.2677 226.282 35.4882 229.608 38.0786C230.471 38.7553 231.265 39.3737 231.988 39.9337C232.455 40.3071 232.968 40.704 233.528 41.124C237.169 43.9244 242.139 47.7399 247.04 52.3255C252.886 57.8213 258.242 63.9471 262.932 70.528C269.198 79.2792 274.064 88.5204 277.424 97.9366C277.424 97.96 277.424 97.9717 277.424 97.9717C277.424 97.9717 277.436 97.9717 277.459 97.9717C282.43 111.904 283.48 124.54 283.865 133.956C284.075 139.242 284.04 145.613 283.76 151.354C283.2 161.855 281.625 173.197 279.244 183.243C279.198 183.477 279.139 183.71 279.069 183.943C278.999 184.293 278.929 184.608 278.859 184.923C277.494 191.119 275.324 195.74 273.574 199.45C272.943 200.745 272.418 201.901 271.998 202.951C271.368 206.031 270.528 208.902 269.723 211.597C266.118 223.429 258.382 230.99 252.151 237.08C251.521 237.687 250.902 238.294 250.295 238.901C239.934 249.192 226.002 257.978 210.005 264.314C193.483 270.86 175.035 274.675 156.623 275.34C153.332 275.48 150.182 275.481 145.491 275.481H144.791C141.641 275.481 138 275.481 134.22 275.481H133.905C130.089 275.446 126.134 275.446 122.773 275.446C111.782 275.446 100.79 274.36 90.1488 272.26C84.198 271.07 78.3172 269.425 72.6465 267.324C61.97 263.369 52.7638 257.978 45.3078 251.292C39.322 245.867 35.0864 239.601 31.3409 234.07C29.5206 231.375 27.8054 228.854 26.0902 226.684C18.2491 216.848 13.2435 209.427 9.32296 198.26C8.41283 195.6 7.57269 192.869 6.80259 190.209L6.62757 189.649C3.86219 180.408 2.14697 172.147 1.16684 163.745C-0.0583254 154.399 -0.0233377 146.243 0.011667 139.067C0.011667 138.414 0.011667 137.76 0.011667 137.107C0.0466717 127.691 0.711761 119.604 2.11195 112.394C4.59729 99.3717 9.32294 87.1551 16.2189 76.1636C22.2747 66.5023 29.9757 57.7162 39.182 50.0152C43.0325 46.7598 47.6181 43.3993 51.9937 40.2489C52.0637 40.2022 52.1337 40.1554 52.2037 40.1088L52.3087 40.0388L52.3788 39.9688C55.9142 37.3434 61.2699 33.388 67.1857 29.3974C72.5415 25.792 77.6522 22.6415 82.7278 19.7361C100.755 9.51473 119.168 3.03886 135.935 1.00859C137.79 0.798558 140.206 0.518555 142.551 0.518555C142.714 0.518555 142.878 0.518555 143.041 0.518555C154.523 0.518555 167.684 3.49389 182.106 9.37468ZM142.586 1.21865C142.563 1.21865 142.551 1.21865 142.551 1.21865C140.486 1.21865 138.28 1.42864 136.005 1.70868C119.098 3.77396 100.58 10.4248 83.0779 20.3661C77.9322 23.2715 72.8215 26.4569 67.5708 29.9924C61.655 33.983 56.2643 37.9736 52.7288 40.599C52.6355 40.669 52.5304 40.7388 52.4138 40.8088C47.5831 44.3093 43.2425 47.4949 39.637 50.5403C30.6058 58.1013 22.9398 66.7824 16.8139 76.5137C10.058 87.3651 5.29738 99.3719 2.81204 112.534C1.27184 120.41 0.746766 128.636 0.711761 137.107C0.711761 144.633 0.536755 153.489 1.86693 163.675C2.91708 172.882 4.87734 181.283 7.29267 189.474C8.16778 192.344 9.00788 195.18 9.98801 198.015C13.9785 209.462 19.2293 216.988 26.6153 226.264C31.971 232.95 36.9767 242.821 45.7979 250.767C53.2189 257.453 62.3551 262.774 72.8915 266.694C78.4223 268.725 84.198 270.37 90.2888 271.56C100.685 273.625 111.572 274.745 122.773 274.745C126.099 274.745 130.054 274.746 133.905 274.781C137.825 274.781 141.536 274.781 144.791 274.781C145.025 274.781 145.258 274.781 145.491 274.781C150.287 274.781 153.332 274.78 156.588 274.64C194.638 273.275 229.223 258.818 249.805 238.41C256.421 231.865 265.137 224.199 269.058 211.387C269.898 208.622 270.738 205.786 271.298 202.776C272.943 198.715 276.304 193.114 278.159 184.748C278.299 184.188 278.439 183.663 278.579 183.103C280.82 173.512 282.5 162.135 283.06 151.319C283.375 145.088 283.375 138.822 283.165 133.991C282.815 125.1 281.87 112.429 276.794 98.2166C276.794 98.2166 276.794 98.2051 276.794 98.1817C273.364 88.6254 268.498 79.4891 262.372 70.9129C257.786 64.507 252.466 58.4163 246.55 52.8156C240.984 47.5999 235.348 43.4342 231.533 40.4938C228.137 37.8685 222.957 33.703 217.006 29.5024C211.16 25.4068 205.454 21.7664 199.609 18.5109C193.798 15.2905 187.777 12.4551 181.826 10.0397C168.559 4.614 155.223 1.21865 143.041 1.21865C142.878 1.21865 142.726 1.21865 142.586 1.21865Z" fill="#DDDDDD"/>
</g>
<g opacity="0.8">
<path fill-rule="evenodd" clip-rule="evenodd" d="M178.851 20.7511C184.592 23.1664 190.122 25.8268 195.198 28.6972C200.519 31.7076 205.769 35.068 211.23 38.9185C215.606 41.9989 219.421 45.0094 222.502 47.3897C223.272 47.9965 223.984 48.5565 224.637 49.0699C225.104 49.4199 225.605 49.8051 226.142 50.2251C229.678 52.9555 234.088 56.3508 238.499 60.4464C243.785 65.3471 248.58 70.8079 252.851 76.6537C258.522 84.5297 262.967 92.7208 266.048 101.087C270.633 113.514 271.718 124.785 272.138 133.221C272.383 138.087 272.383 144.073 272.103 149.568C271.648 159.335 270.213 170.291 268.113 179.637C268.043 179.871 267.984 180.104 267.938 180.338C267.868 180.618 267.798 180.909 267.728 181.213C266.468 187.198 264.262 191.679 262.652 194.935C262.057 196.16 261.532 197.21 261.147 198.12C260.657 201.06 259.922 203.756 259.222 206.276C256.036 217.548 248.72 224.373 242.839 229.834C242.104 230.499 241.439 231.129 240.774 231.759C231.393 240.686 218.651 248.352 203.879 253.918C188.547 259.728 171.395 263.089 154.348 263.649C151.337 263.754 148.502 263.789 144.266 263.789H143.496C140.626 263.789 137.335 263.789 133.905 263.754H133.52C129.984 263.754 126.344 263.754 123.298 263.754C113.217 263.754 103.136 262.809 93.3693 260.954C87.8736 259.903 82.4478 258.433 77.2671 256.578C67.3608 252.972 58.9247 248.002 52.2038 241.771C46.883 236.835 43.2775 231.13 40.0921 226.124C38.4119 223.463 36.8366 220.943 35.1914 218.948C28.5755 210.687 23.6049 204.001 19.8594 192.974C18.9843 190.384 18.2491 187.759 17.514 185.203L17.479 185.098C15.0637 176.732 13.5585 169.171 12.7184 161.365C11.6683 153.034 11.7033 145.648 11.7033 139.137C11.7033 138.414 11.7033 137.702 11.7033 137.002C11.7383 128.566 12.3334 121.285 13.5585 114.774C15.7988 103.012 20.0694 92.0206 26.3003 82.1143C31.726 73.5031 38.7269 65.6271 47.058 58.6962C50.5585 55.7908 54.8291 52.6404 58.9246 49.665C58.9947 49.6183 59.0647 49.5717 59.1347 49.525L59.2047 49.4549L59.3097 49.3849C62.6001 46.9695 67.5708 43.2941 72.9965 39.6186C77.9322 36.2581 82.6578 33.3178 87.3485 30.6225C103.941 21.0662 121.373 14.7303 136.39 12.735C138.14 12.49 140.416 12.245 142.551 12.21C142.714 12.21 142.878 12.21 143.041 12.21C153.332 12.21 165.409 15.0803 178.851 20.7511ZM142.551 12.9101C140.626 12.9451 138.595 13.1551 136.495 13.4351C121.093 15.4654 103.906 21.9062 87.6985 31.2175C82.9379 33.9478 78.2123 36.9233 73.3816 40.2137C67.9209 43.8892 62.9502 47.5647 59.6247 50.0151C59.5314 50.0851 59.438 50.1551 59.3447 50.2251C54.8291 53.5156 50.8036 56.4909 47.5131 59.2212C39.357 66.0121 32.3911 73.7482 26.8953 82.4994C20.7695 92.1957 16.4989 102.977 14.2586 114.914C12.8934 121.985 12.4034 129.371 12.4034 137.002C12.4034 144.038 12.2633 152.089 13.4185 161.295C14.3286 169.766 16.0089 177.432 18.1441 184.888C18.9142 187.514 19.6494 190.139 20.5245 192.729C24.165 203.406 28.8906 209.952 35.7515 218.493C40.4422 224.339 44.5727 233.72 52.6938 241.281C59.3797 247.477 67.7108 252.342 77.5121 255.913C82.5528 257.733 87.8735 259.203 93.4743 260.253C102.996 262.074 113.007 263.054 123.298 263.054C126.344 263.054 129.984 263.054 133.52 263.054C137.09 263.089 140.521 263.089 143.496 263.089C143.753 263.089 144.009 263.089 144.266 263.089C148.537 263.089 151.337 263.054 154.313 262.949C189.702 261.794 221.767 248.877 240.319 231.234C246.445 225.389 255.021 218.493 258.522 206.101C259.292 203.511 259.992 200.815 260.482 197.945C261.882 194.41 265.312 189.229 267.063 181.073C267.168 180.548 267.308 180.023 267.413 179.497C269.408 170.536 270.948 159.72 271.403 149.568C271.683 143.618 271.648 137.667 271.438 133.256C271.053 125.24 270.073 113.969 265.417 101.332C262.267 92.8259 257.821 84.7397 252.256 77.0736C248.125 71.3679 243.365 65.9421 238.044 60.9364C233.003 56.2458 227.822 52.4304 224.217 49.63C221.031 47.1446 216.271 43.3291 210.845 39.4786C205.489 35.6981 200.239 32.3376 194.883 29.3272C189.527 26.3168 184.032 23.6564 178.571 21.3811C166.284 16.2004 154.068 12.9101 143.041 12.9101C142.878 12.9101 142.714 12.9101 142.551 12.9101Z" fill="#DDDDDD"/>
</g>
<g opacity="0.9">
<path fill-rule="evenodd" clip-rule="evenodd" d="M175.595 32.0924C180.846 34.3677 185.852 36.8531 190.472 39.5135C195.303 42.2789 200.099 45.3592 205.069 48.8947C209.06 51.7301 212.595 54.4956 215.431 56.7009C216.107 57.2376 216.738 57.7276 217.321 58.171C217.764 58.521 218.243 58.8945 218.756 59.2912C222.012 61.8115 226.072 64.9269 229.993 68.5674C234.648 72.873 238.954 77.6685 242.734 82.8142C247.88 89.7452 251.906 96.9562 254.671 104.202C258.872 115.124 259.957 125.03 260.412 132.451C260.692 136.897 260.727 142.497 260.482 147.818C260.097 156.954 258.802 167.246 256.946 176.032C256.9 176.265 256.853 176.487 256.806 176.697C256.736 176.977 256.678 177.245 256.631 177.502C255.406 183.383 253.271 187.478 251.696 190.489C251.136 191.574 250.646 192.519 250.33 193.289C249.945 196.125 249.28 198.75 248.72 200.99C245.92 211.772 238.954 217.863 233.388 222.728C232.653 223.393 231.953 223.988 231.288 224.583C222.887 232.179 211.3 238.725 197.718 243.556C183.576 248.562 167.789 251.502 152.072 251.992C149.342 252.062 146.716 252.097 143.041 252.097H142.201C139.611 252.097 136.67 252.062 133.59 252.062H133.135C129.914 252.062 126.624 252.062 123.823 252.062C114.687 252.027 105.516 251.222 96.5547 249.647C91.549 248.772 86.6134 247.476 81.8877 245.796C72.7515 242.576 65.0855 238.025 59.0997 232.284C54.374 227.734 51.3286 222.518 48.6682 217.932C47.163 215.377 45.7629 212.962 44.3277 211.177C37.8168 203.091 33.6162 197.49 30.3958 187.653C29.6607 185.343 28.9956 183.068 28.3305 180.512C26.2652 173.056 25.0051 166.231 24.27 158.985C23.4299 151.704 23.4298 145.088 23.4298 139.242C23.4298 138.448 23.4298 137.678 23.4298 136.932C23.3948 129.441 23.9199 123 25.0401 117.154C26.9653 106.652 30.7808 96.8862 36.3466 88.1C41.1772 80.539 47.4431 73.5381 54.9341 67.3773C58.0845 64.7869 62.0401 61.8815 65.8906 59.0811C65.9373 59.0578 65.9839 59.0228 66.0306 58.9762L66.1356 58.9061L66.2406 58.836C69.251 56.5957 73.8366 53.2004 78.7723 49.8399C83.3229 46.7595 87.6635 44.029 91.9691 41.5087C107.406 32.4775 123.368 26.4217 136.88 24.4615C138.595 24.2164 140.591 23.9364 142.516 23.9014H142.551C142.691 23.9014 142.843 23.9014 143.006 23.9014C152.177 23.9014 163.134 26.6667 175.595 32.0924ZM142.551 24.6015C142.551 24.6015 142.539 24.6015 142.516 24.6015C140.801 24.6365 138.91 24.8465 136.985 25.1616C123.088 27.1918 107.266 33.3876 92.3192 42.1038C87.9436 44.6592 83.603 47.4245 79.1924 50.4349C74.1867 53.8303 69.6361 57.1909 66.5557 59.4662C66.4623 59.5362 66.369 59.6063 66.2756 59.6763C62.0751 62.7217 58.3296 65.452 55.3542 67.9024C48.0732 73.9232 41.8773 80.749 36.9417 88.4851C31.5159 97.0612 27.7004 106.618 25.7402 117.259C24.55 123.525 24.0949 130.106 24.1299 136.932C24.1299 143.407 23.9899 150.689 24.9701 158.915C25.7402 166.651 27.1404 173.582 28.9956 180.337C29.6257 182.718 30.2908 185.098 31.0609 187.443C34.3163 197.315 38.5519 202.881 44.8528 210.722C48.8783 215.727 52.2037 224.653 59.5897 231.759C65.5405 237.465 73.0666 241.946 82.1328 245.131C86.7184 246.741 91.549 248.037 96.6947 248.947C105.341 250.487 114.442 251.327 123.823 251.362C126.624 251.362 129.914 251.362 133.135 251.362C136.355 251.362 139.471 251.397 142.201 251.397C142.481 251.397 142.761 251.397 143.041 251.397C146.787 251.397 149.377 251.362 152.072 251.292C184.732 250.277 214.311 238.97 230.798 224.093C236.504 218.948 244.905 212.822 248.02 200.815C248.65 198.365 249.28 195.81 249.665 193.114C250.856 190.069 254.286 185.343 255.931 177.362C256.036 176.872 256.141 176.382 256.246 175.892C258.031 167.596 259.397 157.339 259.782 147.783C260.027 142.112 259.957 136.546 259.712 132.521C259.257 125.345 258.277 115.509 254.041 104.482C254.041 104.459 254.041 104.447 254.041 104.447C251.171 97.0263 247.145 89.9553 242.174 83.2344C238.464 78.2287 234.263 73.4681 229.503 69.0575C225.022 64.9269 220.331 61.3914 216.866 58.7311C213.926 56.4558 209.62 52.9903 204.649 49.4548C199.819 46.0244 195.023 42.9089 190.122 40.1085C185.257 37.3431 180.251 34.8579 175.315 32.7226C164.044 27.822 152.877 24.6015 143.006 24.6015C142.866 24.6015 142.714 24.6015 142.551 24.6015Z" fill="#DDDDDD"/>
</g>
<g opacity="0.9">
<path fill-rule="evenodd" clip-rule="evenodd" d="M172.375 43.4338C177.101 45.5691 181.616 47.8794 185.747 50.2948C190.087 52.8501 194.393 55.6505 198.909 58.8709C202.549 61.4613 205.769 64.0166 208.36 66.0469C208.943 66.4903 209.48 66.9104 209.97 67.3071C210.413 67.6571 210.88 68.0072 211.37 68.3572C214.346 70.6675 218.021 73.5379 221.452 76.6883C225.512 80.3988 229.293 84.5644 232.653 88.975C237.204 94.9958 240.809 101.157 243.294 107.317C243.294 107.317 243.294 107.329 243.294 107.352C247.11 116.734 248.16 125.31 248.685 131.716C248.965 135.636 249.035 141.027 248.86 146.068C248.545 154.469 247.39 164.34 245.78 172.426C245.733 172.66 245.686 172.881 245.64 173.091C245.593 173.325 245.546 173.57 245.5 173.826C244.38 179.567 242.174 183.523 240.704 186.113C240.214 187.023 239.759 187.828 239.514 188.458C239.234 191.049 238.709 193.464 238.219 195.669C235.803 206.066 228.873 211.667 223.832 215.762C223.085 216.346 222.397 216.906 221.767 217.442C214.381 223.708 203.949 229.134 191.628 233.194C178.606 237.43 164.184 239.88 149.797 240.3C147.347 240.37 145.036 240.37 141.851 240.37H140.906C138.49 240.37 135.795 240.37 132.995 240.37H132.75C129.844 240.37 126.904 240.335 124.348 240.335C116.122 240.335 107.861 239.67 99.7751 238.34C95.2245 237.605 90.7439 236.485 86.5084 235.015C78.1772 232.179 71.2813 228.049 66.0306 222.763C61.795 218.528 59.1696 213.557 57.0694 209.566C55.7742 207.081 54.6891 204.946 53.4289 203.405L53.3239 203.265C47.5831 196.194 43.8026 191.539 40.9322 182.368C40.2321 180.127 39.637 177.887 39.147 175.927C37.4667 169.416 36.4166 163.255 35.8565 156.604C35.1564 150.373 35.1214 144.527 35.1214 139.382C35.1214 138.518 35.1214 137.667 35.1214 136.826C35.0864 130.316 35.5415 124.68 36.4866 119.499C38.1668 110.293 41.5273 101.717 46.428 94.0857C50.6635 87.5398 56.1592 81.449 62.8101 76.0583C65.5755 73.783 69.251 71.0876 72.8215 68.5322C72.8682 68.4856 72.9148 68.4389 72.9615 68.3923L73.0315 68.3572L73.1715 68.2523C76.1119 66.082 80.1025 63.1064 84.5831 60.061C88.7487 57.2257 92.6692 54.7054 96.5897 52.395C110.872 43.8889 125.364 38.1131 137.335 36.1529C138.91 35.9079 140.766 35.6278 142.516 35.6278C142.679 35.6045 142.843 35.5928 143.006 35.5928C150.987 35.5928 160.893 38.2531 172.375 43.4338ZM142.516 36.3279C140.941 36.3279 139.26 36.5729 137.44 36.853C125.084 38.8833 110.592 44.8691 96.9397 52.9902C92.9492 55.3355 88.9937 57.8908 84.9681 60.6211C80.4525 63.7366 76.322 66.782 73.4516 68.9173C73.3816 68.964 73.3116 69.0224 73.2416 69.0924C69.321 71.9277 65.8906 74.4481 63.2302 76.6184C56.8244 81.8341 51.3636 87.7499 47.023 94.4708C42.2274 101.927 38.9019 110.223 37.1867 119.639C36.1716 125.1 35.7865 130.841 35.8215 136.826C35.8565 142.777 35.7515 149.323 36.5216 156.534C37.1517 163.535 38.2718 169.731 39.8121 175.752C40.3721 177.887 40.9322 180.022 41.5973 182.158C44.4677 191.259 48.2132 195.844 53.989 202.985C57.3494 207.116 59.7997 215.587 66.5206 222.273C71.6663 227.454 78.4223 231.514 86.7534 234.385C90.8489 235.785 95.2245 236.905 99.8801 237.64C107.686 238.935 115.877 239.635 124.348 239.635C126.904 239.635 129.844 239.67 132.75 239.67C135.62 239.67 138.42 239.67 140.906 239.67C141.232 239.67 141.547 239.67 141.851 239.67C145.071 239.67 147.382 239.67 149.797 239.6C179.761 238.76 206.925 229.099 221.312 216.917C226.562 212.472 234.823 207.116 237.519 195.494C238.044 193.219 238.569 190.839 238.814 188.283C239.829 185.763 243.294 181.422 244.8 173.686C244.905 173.231 245.01 172.776 245.115 172.286C246.62 164.655 247.845 154.959 248.16 146.033C248.37 140.642 248.265 135.426 247.985 131.786C247.495 125.485 246.48 117.049 242.664 107.598C240.074 101.227 236.504 95.2059 232.093 89.3951C228.838 85.1245 225.127 80.994 220.996 77.1785C217.041 73.573 212.805 70.3875 209.55 67.8672C206.82 65.7319 202.934 62.6165 198.488 59.4661C194.148 56.3506 189.807 53.4803 185.397 50.8899C181.021 48.3346 176.505 46.0593 172.06 44.064C161.803 39.4084 151.687 36.2929 143.006 36.2929C142.843 36.2929 142.679 36.3046 142.516 36.3279Z" fill="#DDDDDD"/>
</g>
<g opacity="0.9">
<path fill-rule="evenodd" clip-rule="evenodd" d="M169.119 54.7754C173.355 56.7707 177.346 58.9059 181.021 61.1112C184.872 63.4215 188.722 65.9769 192.748 68.8472C196.003 71.1926 198.943 73.5029 201.289 75.3582C201.756 75.7315 202.211 76.0816 202.654 76.4083C203.074 76.7583 203.506 77.1084 203.949 77.4584C206.785 79.6287 210.005 82.1491 212.945 84.8094C216.376 87.9249 219.631 91.4253 222.537 95.1008C226.632 100.281 229.678 105.287 231.918 110.433C231.918 110.433 231.918 110.444 231.918 110.468C235.383 118.414 236.434 125.59 236.924 130.981C237.274 134.446 237.379 139.417 237.239 144.317C236.994 152.124 236.013 161.295 234.613 168.821C234.59 169.054 234.555 169.276 234.508 169.486C234.462 169.696 234.415 169.906 234.368 170.116C233.318 175.787 231.148 179.392 229.713 181.808C229.258 182.543 228.873 183.173 228.697 183.628C228.522 186.148 228.102 188.423 227.717 190.349C225.652 200.395 219.036 205.296 214.171 208.866C213.47 209.356 212.817 209.835 212.21 210.301C206.014 215.132 196.528 219.578 185.502 222.833C173.67 226.298 160.543 228.294 147.557 228.609C145.386 228.679 143.321 228.679 140.661 228.679H139.61C137.475 228.679 135.095 228.679 132.645 228.679H132.329C129.774 228.644 127.149 228.644 124.874 228.644C117.593 228.644 110.207 228.084 102.996 227.034C98.9 226.438 94.9095 225.493 91.129 224.268C83.6029 221.783 77.4771 218.072 72.9265 213.277C69.146 209.286 67.0807 204.701 65.4005 200.99C64.3853 198.785 63.5452 196.86 62.5651 195.669C62.2151 195.249 61.8767 194.841 61.55 194.444C56.8943 188.739 53.8139 184.993 51.4686 177.082C50.8735 175.052 50.3835 173.056 49.9984 171.341C48.6682 165.775 47.8281 160.315 47.408 154.224C46.883 149.043 46.848 144.247 46.848 139.627C46.848 138.647 46.8363 137.69 46.813 136.756C46.778 131.261 47.128 126.395 47.9681 121.879C49.4383 113.758 52.2037 106.617 56.4743 100.072C60.1498 94.4708 64.8054 89.43 70.6862 84.7393C72.9615 82.9191 75.9719 80.7138 79.7524 77.9485L79.8924 77.8435L79.9624 77.8085L80.1025 77.7035C82.7628 75.7083 86.4033 73.0478 90.3939 70.2825C94.1394 67.6921 97.6749 65.4168 101.21 63.2465C114.372 55.2654 127.359 49.8047 137.79 47.8794C139.26 47.6344 140.941 47.3543 142.516 47.3193C142.656 47.3193 142.796 47.3193 142.936 47.3193H142.971C149.832 47.3193 158.653 49.8398 169.119 54.7754ZM142.516 48.0194C141.116 48.0544 139.575 48.2645 137.93 48.5795C127.079 50.5748 113.952 56.3157 101.56 63.8767C97.9549 66.047 94.3844 68.3922 90.7789 70.8426C86.7184 73.643 83.0079 76.4083 80.3825 78.3686C80.3125 78.4153 80.2425 78.4619 80.1725 78.5086C76.532 81.1339 73.4516 83.4092 71.1063 85.2995C65.5405 89.7451 60.8148 94.7508 57.0693 100.457C52.9738 106.757 50.1034 113.863 48.6332 121.985C47.7931 126.64 47.4781 131.576 47.5131 136.721C47.5831 142.147 47.4781 147.923 48.1081 154.154C48.5632 160.42 49.4033 165.88 50.6635 171.201C51.1186 173.091 51.5736 174.982 52.1337 176.872C54.619 185.203 57.8745 188.808 63.0902 195.214C65.8205 198.54 67.4308 206.486 73.4166 212.787C77.8272 217.442 83.778 221.118 91.339 223.603C94.9795 224.793 98.9 225.738 103.101 226.333C109.996 227.349 117.312 227.944 124.874 227.944C127.184 227.944 129.774 227.944 132.329 227.979C134.92 227.979 137.37 227.979 139.61 227.979C139.984 227.979 140.334 227.979 140.661 227.979C143.391 227.979 145.421 227.979 147.522 227.909C174.79 227.244 199.574 219.263 211.79 209.776C216.621 205.996 224.742 201.41 227.017 190.209C227.437 188.108 227.857 185.868 227.997 183.488C228.803 181.457 232.303 177.537 233.703 169.976C233.773 169.556 233.855 169.136 233.948 168.716C235.208 161.715 236.259 152.579 236.539 144.282C236.679 139.172 236.539 134.271 236.224 131.051C235.733 125.625 234.683 118.589 231.288 110.748C231.288 110.725 231.288 110.713 231.288 110.713C228.978 105.462 225.827 100.422 221.977 95.5559C219.176 91.9855 216.026 88.5549 212.455 85.3345C209.06 82.2541 205.314 79.3837 202.199 76.9684C199.714 75.0081 196.248 72.2428 192.328 69.4424C188.442 66.642 184.592 64.0516 180.636 61.7063C176.75 59.361 172.76 57.2607 168.804 55.4055C159.528 51.0299 150.497 48.0194 142.936 48.0194C142.796 48.0194 142.656 48.0194 142.516 48.0194Z" fill="#DDDDDD"/>
</g>
<g opacity="0.9">
<path fill-rule="evenodd" clip-rule="evenodd" d="M165.864 66.1518C169.575 67.9721 173.075 69.9323 176.26 71.8926C179.621 73.9579 183.086 76.3031 186.587 78.8585C189.492 80.9588 192.118 83.0241 194.218 84.7043C194.591 84.9844 194.953 85.2644 195.303 85.5444C195.723 85.8478 196.143 86.1744 196.563 86.5245C199.084 88.4848 201.954 90.7252 204.404 92.9305C207.275 95.4508 209.97 98.2861 212.42 101.262C215.956 105.497 218.616 109.523 220.506 113.548C220.53 113.548 220.541 113.548 220.541 113.548C223.657 120.094 224.672 125.905 225.197 130.21C225.582 133.186 225.722 137.806 225.582 142.532C225.407 149.638 224.602 158.319 223.482 165.215C223.435 165.472 223.388 165.717 223.342 165.95C223.318 166.114 223.295 166.265 223.272 166.405C222.292 172.076 220.016 175.471 218.651 177.502C218.301 178.062 218.021 178.482 217.846 178.797C217.811 180.722 217.601 182.647 217.216 185.028C215.536 194.829 209.095 198.995 204.439 202.04C203.809 202.425 203.214 202.81 202.689 203.195C191.592 210.826 167.999 216.497 145.281 216.917C143.391 216.952 141.606 216.987 139.505 216.987H138.315C136.46 216.987 134.465 216.952 132.365 216.952H131.944C129.704 216.952 127.429 216.952 125.434 216.952C119.028 216.952 112.587 216.532 106.216 215.727C102.576 215.272 99.04 214.537 95.7496 213.487C89.0637 211.386 83.673 208.131 79.7874 203.755C76.427 199.975 74.8168 195.529 73.6616 192.274C72.9615 190.384 72.3664 188.738 71.6664 187.898C71.1063 187.221 70.5695 186.58 70.0561 185.973C66.3456 181.527 63.8953 178.552 62.0051 171.761C61.62 170.291 61.2349 168.751 60.8149 166.755C59.8698 162.17 59.2747 157.409 58.9596 151.843C58.6096 147.748 58.5746 143.827 58.5396 140.012C58.5396 138.927 58.5396 137.771 58.5396 136.651C58.4696 132.101 58.7496 128.04 59.4147 124.26C60.6049 117.434 62.9502 111.483 66.5557 106.057C69.6011 101.472 73.5216 97.341 78.5623 93.4205C80.4875 91.9153 83.2179 89.9199 86.6834 87.3646L86.8234 87.2596L86.8584 87.2246L87.0334 87.0846C89.4138 85.3344 92.6692 82.9541 96.2047 80.5038C99.4601 78.1935 102.716 76.0581 105.796 74.1328C117.838 66.6418 129.389 61.4611 138.28 59.6059C139.575 59.3259 141.081 59.0457 142.481 59.0107C142.621 59.0107 142.761 59.0107 142.901 59.0107C148.782 59.0107 156.308 61.3562 165.864 66.1518ZM142.516 59.7108C142.493 59.7108 142.481 59.7108 142.481 59.7108C141.256 59.7458 139.891 59.9909 138.42 60.306C129.109 62.2312 117.277 67.7971 106.181 74.728C102.961 76.7349 99.7635 78.8468 96.5897 81.0637C92.9842 83.5841 89.7288 85.9995 87.2784 87.7847C87.2318 87.8314 87.1734 87.878 87.1034 87.9247C83.778 90.34 80.9776 92.4054 78.9823 93.9806C74.2917 97.6561 70.3012 101.716 67.1157 106.442C63.6853 111.623 61.305 117.469 60.1148 124.365C59.4497 128.215 59.1697 132.311 59.2397 136.651C59.3097 141.552 59.2047 146.523 59.6597 151.773C59.9398 157.304 60.5348 162.03 61.515 166.615C61.865 168.296 62.2151 169.941 62.6701 171.586C64.7704 179.147 67.5358 181.772 72.2264 187.478C74.2567 189.928 75.0618 197.384 80.3125 203.3C83.988 207.396 89.1337 210.686 95.9596 212.822C99.1101 213.837 102.541 214.572 106.286 215.027C112.342 215.797 118.783 216.252 125.434 216.252C127.429 216.252 129.704 216.252 131.944 216.252C134.185 216.252 136.355 216.287 138.315 216.287C138.735 216.287 139.132 216.287 139.505 216.287C141.711 216.287 143.461 216.252 145.246 216.217C169.855 215.727 192.328 209.496 202.304 202.6C206.715 199.555 214.661 195.739 216.516 184.923C216.831 182.963 217.111 180.897 217.146 178.657C217.776 177.152 221.312 173.651 222.572 166.3C222.642 165.903 222.712 165.507 222.782 165.11C223.832 158.739 224.707 150.163 224.882 142.532C225.022 137.666 224.847 133.151 224.497 130.315C223.972 125.765 222.887 120.094 219.911 113.863C217.881 109.663 215.186 105.637 211.895 101.716C209.55 98.8461 206.89 96.0809 203.949 93.4555C201.114 90.9002 197.788 88.3798 194.883 86.0695C192.608 84.3193 189.562 81.9039 186.167 79.4186C182.771 76.9683 179.376 74.6228 175.91 72.4876C172.48 70.3873 168.979 68.4621 165.549 66.7468C157.288 62.6163 149.307 59.7108 142.901 59.7108C142.761 59.7108 142.633 59.7108 142.516 59.7108Z" fill="#DDDDDD"/>
</g>
</g>
<path d="M116.815 125.712H107.749L111.18 120H106.293L103.226 125.731C103.239 126.587 103.373 127.354 103.628 128.031C103.884 128.708 104.165 129.27 104.472 129.717H117.333C117.984 129.717 118.508 129.903 118.904 130.273C119.288 130.644 119.479 131.181 119.479 131.883V133.436H102.287H101.865H98.8367H98.415H95.4059H94.965H91.9559H91.5342H88.525H88.0842H85.075H84.6342H82.6984V124.907H78.7117V135.199C78.7117 136.375 78.4817 137.231 78.0217 137.767C77.5745 138.291 76.8717 138.553 75.9134 138.553C75.4406 138.553 74.9806 138.547 74.5334 138.534C74.0989 138.521 73.5878 138.509 73 138.496L73.46 141.869C73.9584 141.971 74.4823 142.048 75.0317 142.099C75.5811 142.15 76.1498 142.176 76.7375 142.176C79.9959 142.176 81.9189 140.598 82.5067 137.442H84.6342H85.075H88.0842H88.525H91.5342H91.9559H94.965H95.4059H98.415H98.8367H101.865H102.287H123.523V132.631C123.523 130.241 122.961 128.491 121.837 127.379C120.712 126.268 119.038 125.712 116.815 125.712Z" fill="#023936"/>
<path fill-rule="evenodd" clip-rule="evenodd" d="M141.924 124.906V134.087L141.904 134.221V135.544C141.904 136.834 141.764 137.914 141.483 138.783C141.214 139.639 140.761 140.316 140.122 140.815C139.47 141.326 138.601 141.69 137.515 141.907C136.442 142.112 135.088 142.214 133.452 142.214C132.941 142.214 132.359 142.195 131.708 142.156C131.056 142.118 130.385 142.06 129.695 141.984C128.993 141.907 128.334 141.824 127.721 141.735L127.031 138.093C127.887 138.195 128.699 138.278 129.465 138.342C130.219 138.419 130.992 138.476 131.784 138.515C132.577 138.54 133.452 138.553 134.41 138.553C135.637 138.553 136.493 138.476 136.979 138.323C137.464 138.17 137.758 137.876 137.86 137.441H134.468C131.772 137.441 129.714 136.905 128.296 135.831C126.878 134.771 126.169 133.231 126.169 131.212V131.174C126.169 129.896 126.469 128.791 127.069 127.858C127.67 126.912 128.52 126.184 129.619 125.673C130.718 125.162 132.008 124.906 133.49 124.906C133.509 124.906 141.751 124.906 141.789 124.906C141.828 124.906 141.885 124.906 141.924 124.906ZM137.918 128.893H132.647C131.816 128.893 131.158 129.097 130.673 129.506C130.187 129.902 129.944 130.458 129.944 131.174V131.212C129.944 131.889 130.187 132.432 130.673 132.841C131.158 133.237 131.816 133.435 132.647 133.435H137.918V128.893Z" fill="#023936"/>
<path d="M164.022 124.906V133.435H161.991H161.569H158.56H158.119H155.11H154.688H152.752V124.906H148.747V135.199C148.747 136.374 148.517 137.23 148.057 137.767C147.609 138.291 146.907 138.553 145.948 138.553C145.476 138.553 145.016 138.547 144.568 138.534C144.134 138.521 143.623 138.508 143.035 138.495L143.495 141.869C143.993 141.971 144.517 142.048 145.067 142.099C145.629 142.15 146.204 142.175 146.792 142.175C150.037 142.175 151.954 140.597 152.542 137.441H154.688H155.11H158.119H158.56H161.569H161.991H168.028V124.906H164.022Z" fill="#023936"/>
<path d="M166.265 139.761C165.869 139.416 165.377 139.243 164.789 139.243C164.214 139.243 163.722 139.416 163.313 139.761C162.904 140.093 162.7 140.54 162.7 141.102C162.7 141.728 162.911 142.201 163.332 142.521C163.767 142.827 164.252 142.981 164.789 142.981C165.339 142.981 165.818 142.827 166.227 142.521C166.648 142.201 166.859 141.728 166.859 141.102C166.859 140.54 166.661 140.093 166.265 139.761Z" fill="#023936"/>
<path d="M125.267 146.891C125.433 147.019 125.625 147.083 125.842 147.083C126.06 147.083 126.251 147.019 126.417 146.891C126.583 146.763 126.666 146.578 126.666 146.335C126.666 146.105 126.59 145.927 126.436 145.799C126.283 145.658 126.085 145.588 125.842 145.588C125.612 145.588 125.421 145.658 125.267 145.799C125.101 145.927 125.018 146.105 125.018 146.335C125.018 146.578 125.101 146.763 125.267 146.891Z" fill="#31D789"/>
<path d="M130.347 151.932H125.804C125.127 151.932 124.603 151.772 124.232 151.453C123.849 151.121 123.657 150.641 123.657 150.015V148.77H122.105V150.169C122.105 151.229 122.386 152.047 122.948 152.622C123.511 153.197 124.354 153.484 125.478 153.484H131.899V147.792H130.347V151.932Z" fill="#31D789"/>
<path d="M127.606 146.891C127.772 147.019 127.964 147.083 128.181 147.083C128.398 147.083 128.59 147.019 128.756 146.891C128.922 146.763 129.005 146.578 129.005 146.335C129.005 146.105 128.929 145.927 128.775 145.799C128.609 145.658 128.411 145.588 128.181 145.588C127.951 145.588 127.759 145.658 127.606 145.799C127.44 145.927 127.357 146.105 127.357 146.335C127.357 146.578 127.44 146.763 127.606 146.891Z" fill="#31D789"/>
<path d="M133.605 153.485H135.157V145.435H133.605V153.485Z" fill="#31D789"/>
<path d="M140.543 147.792H138.262V149.345H140.773C141.246 149.345 141.597 149.472 141.827 149.728C142.045 149.971 142.153 150.328 142.153 150.801V151.932H136.499V153.484H143.629V150.954C143.629 149.907 143.38 149.121 142.882 148.597C142.383 148.06 141.604 147.792 140.543 147.792Z" fill="#31D789"/>
<path d="M145.124 153.485H146.676V145.435H145.124V153.485Z" fill="#31D789"/>
<path d="M150.203 146.604C150.369 146.732 150.567 146.795 150.797 146.795C151.002 146.795 151.194 146.732 151.372 146.604C151.539 146.476 151.622 146.284 151.622 146.029C151.622 145.799 151.539 145.62 151.372 145.492C151.219 145.351 151.027 145.281 150.797 145.281C150.555 145.281 150.357 145.351 150.203 145.492C150.037 145.62 149.954 145.799 149.954 146.029C149.954 146.284 150.037 146.476 150.203 146.604Z" fill="#31D789"/>
<path fill-rule="evenodd" clip-rule="evenodd" d="M163.083 145.435H164.655V153.485H160.496C160.202 153.83 159.825 154.104 159.365 154.309C158.918 154.5 158.4 154.596 157.812 154.596H156.816C156.228 154.596 155.698 154.5 155.225 154.309C154.765 154.104 154.381 153.83 154.075 153.485H151.487C151.257 154.941 150.401 155.67 148.919 155.67C148.676 155.67 148.433 155.663 148.191 155.65C147.948 155.625 147.718 155.587 147.501 155.535L147.328 154.232C147.584 154.245 147.807 154.251 147.999 154.251C148.191 154.264 148.395 154.27 148.612 154.27C149.085 154.27 149.436 154.136 149.666 153.868C149.884 153.6 149.992 153.178 149.992 152.603V147.792H151.545V151.932H153.442C153.442 151.881 153.436 151.83 153.423 151.779C153.423 151.715 153.423 151.657 153.423 151.606C153.423 150.967 153.564 150.418 153.845 149.958C154.126 149.485 154.522 149.121 155.033 148.865C155.544 148.61 156.138 148.482 156.816 148.482H157.812C158.477 148.482 159.058 148.61 159.557 148.865C160.055 149.121 160.445 149.485 160.726 149.958C161.007 150.418 161.147 150.961 161.147 151.587V151.606C161.147 151.657 161.141 151.715 161.128 151.779C161.128 151.83 161.122 151.881 161.109 151.932H163.083V145.435ZM159.576 151.549C159.576 151.089 159.416 150.718 159.097 150.437C158.764 150.169 158.336 150.035 157.812 150.035H156.816C156.266 150.035 155.825 150.169 155.493 150.437C155.148 150.718 154.976 151.089 154.976 151.549V151.568C154.976 152.002 155.148 152.354 155.493 152.622C155.825 152.89 156.266 153.025 156.816 153.025H157.812C158.336 153.025 158.764 152.89 159.097 152.622C159.416 152.354 159.576 151.996 159.576 151.549Z" fill="#31D789"/>
<path d="M166.476 145.435V153.485H168.028V145.435H166.476Z" fill="#31D789"/>
<path d="M209.582 133.481L194.344 122.364C193.673 121.885 192.773 121.885 192.102 122.383L176.883 133.73C176.021 134.381 175.503 135.416 175.503 136.509V145.709C175.503 146.648 176.577 147.166 177.305 146.591L192.236 134.573C192.868 134.075 193.731 134.075 194.363 134.573L209.179 146.571C209.907 147.166 211 146.648 211 145.709V136.279C211 135.167 210.463 134.132 209.582 133.481Z" fill="#00DB81"/>
<path d="M178.283 151.344L191.335 141.051C192.063 140.457 193.156 140.994 193.156 141.933L193.098 149.772C193.098 150.711 194.191 151.248 194.938 150.654L200.228 146.36C200.918 145.824 201.896 145.843 202.548 146.418L208.259 151.382C209.16 152.168 208.604 153.663 207.416 153.663H179.088C177.861 153.663 177.324 152.11 178.283 151.344Z" fill="#00DB81"/>
</svg>
