<svg width="56" height="57" viewBox="0 0 56 57" fill="none" xmlns="http://www.w3.org/2000/svg">
<g clip-path="url(#clip0_7074_89898)">
<rect y="0.608398" width="56" height="56" rx="28" fill="#023936" fill-opacity="0.05"/>
<path fill-rule="evenodd" clip-rule="evenodd" d="M19.0002 25.6084C19.0002 20.6378 23.0296 16.6084 28.0002 16.6084C32.9707 16.6084 37.0002 20.6378 37.0002 25.6084C37.0002 30.579 32.9707 34.6084 28.0002 34.6084C23.0296 34.6084 19.0002 30.579 19.0002 25.6084Z" fill="#6B778C"/>
<path fill-rule="evenodd" clip-rule="evenodd" d="M11.5027 53.8191C11.6573 44.8395 18.9841 37.6084 28.0002 37.6084C37.0164 37.6084 44.3433 44.8399 44.4977 53.8197C44.5079 54.4152 44.1648 54.9604 43.6235 55.2088C38.8656 57.392 33.5732 58.6084 28.0008 58.6084C22.4279 58.6084 17.135 57.3918 12.3768 55.2082C11.8355 54.9598 11.4924 54.4146 11.5027 53.8191Z" fill="#6B778C"/>
</g>
<defs>
<clipPath id="clip0_7074_89898">
<rect y="0.608398" width="56" height="56" rx="28" fill="white"/>
</clipPath>
</defs>
</svg>
