<svg width="25" height="24" viewBox="0 0 25 24" fill="none" xmlns="http://www.w3.org/2000/svg">
<g id="hammer">
<path id="Vector" fill-rule="evenodd" clip-rule="evenodd" d="M19.4422 8.05062C19.6011 7.89174 19.6804 7.66999 19.6582 7.44639C19.6361 7.22279 19.5149 7.02089 19.3279 6.89625L10.8426 1.2394C10.5451 1.04107 10.1487 1.08058 9.89594 1.33343L8.83563 2.39374C8.69497 2.53439 8.61594 2.72516 8.61593 2.92408C8.61593 3.123 8.69494 3.31377 8.8356 3.45443C10.5105 5.12933 11.242 6.69606 11.5616 7.81472C11.7221 8.37658 11.7803 8.83098 11.7994 9.13597C11.8037 9.20596 11.8061 9.26807 11.8071 9.32179L10.6285 10.5004C10.62 10.5081 10.6116 10.5161 10.6034 10.5244L2.11811 19.0096C1.97745 19.1503 1.89844 19.3411 1.89844 19.54C1.89844 19.7389 1.97745 19.9296 2.11811 20.0703L4.23943 22.1916C4.53232 22.4845 5.00719 22.4845 5.30009 22.1916L13.7602 13.7315C13.7687 13.7237 13.7771 13.7157 13.7853 13.7075L15.0228 12.47L15.3763 12.8236L14.846 13.3539C14.5531 13.6468 14.5531 14.1217 14.846 14.4146L17.3209 16.8895C17.6138 17.1824 18.0886 17.1824 18.3815 16.8895L23.3313 11.9397C23.6242 11.6468 23.6242 11.1719 23.3313 10.879L20.8564 8.40418C20.5635 8.11128 20.0886 8.11128 19.7958 8.40418L19.2654 8.9345L18.9119 8.58095L19.4422 8.05062ZM12.1938 13.1766L11.1331 12.1159L3.7091 19.54L4.76976 20.6006L12.1938 13.1766ZM10.4137 2.93705L10.5222 2.82854L17.7346 7.63686L17.3209 8.05062C17.028 8.34351 17.028 8.81839 17.3209 9.11128L18.7351 10.5255C19.028 10.8184 19.5029 10.8184 19.7958 10.5255L20.3261 9.99516L21.7403 11.4094L17.8512 15.2985L16.437 13.8843L16.9673 13.3539C17.2602 13.061 17.2602 12.5862 16.9673 12.2933L15.5531 10.879C15.2602 10.5862 14.7853 10.5862 14.4925 10.879L13.255 12.1165L12.1944 11.0558L13.0782 10.1719C13.1987 10.0515 13.2746 9.89277 13.2934 9.72351L13.2935 9.72251L13.2938 9.72029L13.2943 9.71495L13.2957 9.70075C13.2967 9.68973 13.2979 9.6756 13.2991 9.65845C13.3016 9.62416 13.3042 9.57778 13.3059 9.52003C13.3093 9.40455 13.309 9.24343 13.2965 9.0424C13.2713 8.64029 13.1969 8.07822 13.0039 7.40264C12.6543 6.17899 11.9204 4.60055 10.4137 2.93705ZM12.5479 9.64161L13.2934 9.72351C13.2934 9.72398 13.2933 9.72444 12.5479 9.64161Z" fill="#6B778C"/>
</g>
</svg>
