<svg width="24" height="24" viewBox="0 0 24 24" fill="none" xmlns="http://www.w3.org/2000/svg">
<g id="Linear / Like / Heart ">
<path id="Vector" d="M8.96173 18.9106L9.58082 18.1253L8.96173 18.9106ZM12 5.50039L11.2795 6.19386C11.468 6.38972 11.7282 6.50039 12 6.50039C12.2718 6.50039 12.532 6.38972 12.7205 6.19386L12 5.50039ZM15.0383 18.9106L15.6574 19.696L15.0383 18.9106ZM9.58082 18.1253C8.05033 16.9188 6.42071 15.7723 5.12521 14.3135C3.864 12.8934 3 11.2562 3 9.13685H1C1 11.8804 2.14571 13.9704 3.62979 15.6416C5.07958 17.2741 6.93083 18.583 8.34265 19.696L9.58082 18.1253ZM3 9.13685C3 7.07952 4.16214 5.36721 5.72829 4.65132C7.2314 3.96425 9.28552 4.12217 11.2795 6.19386L12.7205 4.80692C10.2146 2.20343 7.26876 1.74813 4.89683 2.83234C2.58794 3.88775 1 6.33125 1 9.13685H3ZM8.34265 19.696C8.85258 20.0979 9.41592 20.5397 9.99069 20.8755C10.5651 21.2112 11.2461 21.4998 12 21.4998V19.4998C11.7539 19.4998 11.4349 19.403 10.9997 19.1487C10.565 18.8947 10.1091 18.5418 9.58082 18.1253L8.34265 19.696ZM15.6574 19.696C17.0692 18.583 18.9204 17.2741 20.3702 15.6416C21.8543 13.9704 23 11.8804 23 9.13685H21C21 11.2562 20.136 12.8934 18.8748 14.3135C17.5793 15.7723 15.9497 16.9188 14.4192 18.1253L15.6574 19.696ZM23 9.13685C23 6.33125 21.4121 3.88775 19.1032 2.83234C16.7312 1.74813 13.7854 2.20343 11.2795 4.80692L12.7205 6.19386C14.7145 4.12217 16.7686 3.96425 18.2717 4.65132C19.8379 5.36721 21 7.07952 21 9.13685H23ZM14.4192 18.1253C13.8909 18.5418 13.435 18.8947 13.0003 19.1487C12.5651 19.403 12.2461 19.4998 12 19.4998V21.4998C12.7539 21.4998 13.4349 21.2112 14.0093 20.8755C14.5841 20.5397 15.1474 20.0979 15.6574 19.696L14.4192 18.1253Z" fill="#292927"/>
</g>
</svg>
