<svg width="25" height="24" viewBox="0 0 25 24" fill="none" xmlns="http://www.w3.org/2000/svg">
<path fill-rule="evenodd" clip-rule="evenodd" d="M2.16475 7.32892C1.79427 7.51416 1.6441 7.96466 1.82934 8.33515C2.01459 8.70563 2.46509 8.8558 2.83557 8.67056L12.5002 3.83826L22.1648 8.67056C22.5352 8.8558 22.9857 8.70563 23.171 8.33515C23.3562 7.96466 23.2061 7.51416 22.8356 7.32892L13.1039 2.46308C12.7238 2.27305 12.2765 2.27305 11.8964 2.46308L2.16475 7.32892ZM5.25015 10.9999C5.25015 10.5857 4.91437 10.2499 4.50015 10.2499C4.08594 10.2499 3.75015 10.5857 3.75015 10.9999V18.9999C3.75015 20.5187 4.98137 21.7499 6.50015 21.7499H18.5002C20.0189 21.7499 21.2502 20.5187 21.2502 18.9999V10.9999C21.2502 10.5857 20.9144 10.2499 20.5002 10.2499C20.0859 10.2499 19.7502 10.5857 19.7502 10.9999V18.9999C19.7502 19.6903 19.1905 20.2499 18.5002 20.2499H6.50015C5.8098 20.2499 5.25015 19.6903 5.25015 18.9999V10.9999Z" fill="white"/>
</svg>
