<svg width="138" height="40" viewBox="0 0 138 40" fill="none" xmlns="http://www.w3.org/2000/svg">
<g clip-path="url(#clip0_7489_7113)">
<rect width="138" height="40" rx="12" fill="#023936"/>
<g clip-path="url(#clip1_7489_7113)">
<mask id="mask0_7489_7113" style="mask-type:luminance" maskUnits="userSpaceOnUse" x="42" y="-46" width="139" height="130">
<path d="M42.3672 -45.3755H180.021V83.5588H42.3672V-45.3755Z" fill="white"/>
</mask>
<g mask="url(#mask0_7489_7113)">
<g opacity="0.5">
<g opacity="0.5">
<path fill-rule="evenodd" clip-rule="evenodd" d="M140.727 -75.0888C145.29 -73.6442 149.84 -71.8416 154.263 -69.7285C158.635 -67.6393 162.917 -65.2278 167.378 -62.3625C172.209 -59.2586 176.402 -56.1307 178.2 -54.7817C182.265 -52.0478 185.898 -49.2184 189.301 -46.1502C194.297 -41.6375 198.758 -36.6115 202.544 -31.2153C207.489 -24.1717 211.313 -16.5192 213.9 -8.44891V-8.43696C217.737 3.52528 218.03 14.0788 217.928 20.9791C217.864 24.3935 217.686 28.1064 217.393 31.4372C216.806 38.254 215.392 44.9872 213.187 51.4697C211.683 57.0569 209.58 62.5127 206.941 67.694C203.768 73.9497 199.804 79.8353 195.164 85.2195C178.391 104.631 153.46 116.486 126.783 117.74C124.31 117.847 122.029 117.871 117.848 117.871C115.529 117.871 112.763 117.859 109.819 117.859H109.64C106.696 117.847 103.662 117.847 101.228 117.847C88.1125 117.847 75.4687 115.519 63.6406 110.947C56.2226 108.069 49.2252 104.333 42.8395 99.8201C36.2882 95.188 30.3997 89.7799 25.3524 83.7272C18.6481 75.6688 13.5243 66.6672 10.1339 56.9613C7.66124 51.0519 5.85135 44.8201 4.75522 38.4091C3.32769 30.0762 3.4424 23.4504 3.63358 19.2003C3.55711 12.6342 4.1944 6.12784 5.53271 -0.139793C7.69949 -10.2396 11.6634 -19.7903 17.3098 -28.5411C22.3444 -36.3488 28.6408 -43.3805 36.0206 -49.4333C38.9011 -51.7851 41.8836 -53.946 45.121 -56.0352L45.2358 -56.1187L45.3505 -56.1904C47.6957 -57.814 51.6469 -60.5479 56.0187 -63.246C59.9189 -65.6456 63.6024 -67.6871 67.2732 -69.4659C79.7513 -75.5186 92.8667 -78.921 106.262 -79.5776C107.83 -79.6493 109.411 -79.6851 110.991 -79.6851H111.004C121.06 -79.6851 131.066 -78.1331 140.727 -75.0888ZM110.991 -79.4463C109.423 -79.4463 107.83 -79.4105 106.275 -79.3389C92.9177 -78.6822 79.8405 -75.2918 67.3879 -69.2509C63.7299 -67.4721 60.0463 -65.4426 56.1589 -63.043C51.7871 -60.3569 47.8486 -57.623 45.5034 -55.9994C45.4269 -55.9516 45.3505 -55.8999 45.274 -55.8442C42.0366 -53.755 39.0541 -51.5822 36.199 -49.2422C28.832 -43.2134 22.5483 -36.2056 17.5265 -28.4218C11.8928 -19.6948 7.94165 -10.1561 5.78762 -0.0920563C4.44932 6.17558 3.81202 12.6581 3.8885 19.2003C3.65908 24.107 3.67183 30.5179 5.01013 38.3734C6.10627 44.7843 7.90342 50.9803 10.3761 56.8778C13.7537 66.5718 18.852 75.5374 25.5563 83.5839C30.5909 89.6128 36.4539 95.0209 42.9925 99.6291C49.3654 104.13 56.3373 107.855 63.7426 110.72C75.5324 115.292 88.138 117.608 101.228 117.608C103.65 117.608 106.696 117.608 109.64 117.62C112.648 117.62 115.49 117.632 117.848 117.632C122.016 117.632 124.298 117.608 126.77 117.501C153.384 116.247 178.238 104.428 194.973 85.0643C199.6 79.704 203.551 73.8303 206.712 67.5984C209.35 62.4172 211.44 56.9852 212.945 51.41C215.137 44.9633 216.552 38.254 217.138 31.4252C217.431 28.0825 217.609 24.3816 217.673 20.9791C217.775 14.0907 217.482 3.5611 213.658 -8.36532V-8.37727C211.071 -16.4237 207.273 -24.0643 202.34 -31.084C198.555 -36.4682 194.106 -41.4704 189.123 -45.9711C184.509 -50.1496 180.328 -53.0626 178.047 -54.5907C175.765 -56.2978 171.827 -59.2108 167.225 -62.1715C162.79 -65.0248 158.507 -67.4244 154.148 -69.5136C149.738 -71.6267 145.201 -73.4174 140.651 -74.862C131.002 -77.9063 121.035 -79.4463 111.004 -79.4463C110.995 -79.4463 110.991 -79.4463 110.991 -79.4463Z" fill="#EAEAEA"/>
</g>
<g opacity="0.5">
<path fill-rule="evenodd" clip-rule="evenodd" d="M139.541 -71.2214C143.926 -69.8246 148.298 -68.0816 152.542 -66.0401C156.735 -64.0345 160.852 -61.7185 165.122 -58.9607C168.449 -56.8237 171.418 -54.6629 173.585 -53.087C174.337 -52.5378 174.974 -52.0723 175.535 -51.6783C175.765 -51.5112 176.015 -51.3321 176.287 -51.1411C178.505 -49.5771 182.24 -46.9507 186.203 -43.3811C190.983 -39.0594 195.253 -34.2602 198.873 -29.1148C203.614 -22.3935 207.272 -15.0753 209.758 -7.37503C213.441 4.06192 213.747 14.1379 213.645 20.7279C213.607 23.987 213.428 27.5805 213.161 30.8397C212.625 37.1073 211.376 43.3033 209.452 49.2605C209.409 49.3879 209.367 49.5153 209.324 49.6426C209.261 49.8336 209.197 50.0246 209.146 50.2156C208.164 53.4748 206.941 57.307 205.36 60.996C204.672 62.6435 203.92 64.291 203.117 65.8907C200.237 71.7047 196.4 77.3873 191.71 82.7715C175.599 101.276 151.637 112.558 125.954 113.752C123.584 113.859 121.391 113.883 117.402 113.883H117.376C115.159 113.883 112.507 113.871 109.703 113.871H109.499C106.67 113.859 103.751 113.847 101.419 113.847C93.3633 113.847 85.4355 112.94 77.839 111.137C73.5819 110.134 69.3758 108.833 65.3227 107.269C58.1978 104.523 51.4808 100.93 45.3501 96.5842C39.2194 92.2148 33.6112 86.9977 28.6786 81.0763C23.5803 74.9758 19.4507 68.3261 16.3789 61.2944C15.7416 59.826 15.1681 58.2979 14.62 56.8176C14.4416 56.348 14.2631 55.8744 14.0847 55.3969C11.4973 48.6279 9.86586 42.9691 8.96091 37.5968C7.71182 30.2308 7.81379 24.2736 7.89026 19.4863L7.903 19.164C8.01771 11.6428 8.57853 5.93623 9.7129 0.671417C11.7777 -8.98672 15.5632 -18.1315 20.9674 -26.5002C25.7853 -33.9617 31.8141 -40.683 38.888 -46.4612C41.8705 -48.8966 44.9932 -51.0455 47.657 -52.8243C47.6995 -52.8562 47.7463 -52.888 47.7972 -52.9199L47.861 -52.9676C50.1297 -54.5435 53.928 -57.1699 58.1341 -59.7605C61.8813 -62.0766 65.4246 -64.0345 68.9552 -65.7536C81 -71.6273 93.6055 -74.9342 106.428 -75.5789C107.944 -75.6624 109.474 -75.6982 110.978 -75.6982H110.991H111.003V-75.4595C110.995 -75.4595 110.986 -75.4595 110.978 -75.4595C109.474 -75.4595 107.957 -75.4237 106.44 -75.3401C93.6437 -74.6954 81.0509 -71.3885 69.0699 -65.5506C65.5521 -63.8315 62.0088 -61.8737 58.2743 -59.5576C54.0682 -56.967 50.2827 -54.3525 48.0139 -52.7766C47.946 -52.7288 47.8737 -52.6811 47.7972 -52.6334C44.7128 -50.568 41.794 -48.5265 39.0537 -46.2821C32.0052 -40.5159 25.9892 -33.8185 21.1841 -26.3809C15.7926 -18.0359 12.0199 -8.92698 9.95507 0.719215C8.6805 6.71227 8.25988 12.9083 8.15792 19.164C8.08144 23.9035 7.94125 30.0517 9.21582 37.5609C10.261 43.7211 12.1346 49.5948 14.3141 55.3253C15.0661 57.2951 15.7799 59.2768 16.6211 61.1989C19.7183 68.3022 23.8097 74.8564 28.8825 80.933C33.6749 86.6754 39.2321 91.9163 45.503 96.3932C51.5955 100.715 58.287 104.308 65.4246 107.054C69.4778 108.618 73.6457 109.907 77.9027 110.91C85.4865 112.701 93.3633 113.608 101.419 113.608C103.751 113.608 106.67 113.62 109.499 113.632C112.38 113.632 115.108 113.644 117.376 113.644C117.385 113.644 117.393 113.644 117.402 113.644C121.379 113.644 123.571 113.62 125.942 113.513C151.573 112.331 175.484 101.037 191.506 82.6283C195.967 77.5067 199.867 71.8838 202.888 65.7833C203.695 64.1835 204.443 62.5559 205.131 60.9004C206.609 57.4503 207.782 53.833 208.891 50.144C208.993 49.8217 209.108 49.5113 209.21 49.189C211.121 43.2675 212.371 37.0834 212.906 30.8158C213.174 27.5805 213.352 23.987 213.39 20.7279C213.492 14.1379 213.186 4.08581 209.515 -7.30339V-7.31534C207.043 -14.9917 203.385 -22.286 198.656 -28.9835C195.049 -34.117 190.792 -38.9043 186.025 -43.2021C181.602 -47.1895 177.549 -49.9472 175.382 -51.4873C173.126 -53.087 169.392 -55.9283 164.982 -58.7697C160.712 -61.5036 156.608 -63.8196 152.427 -65.8371C148.196 -67.8667 143.824 -69.5978 139.465 -70.9945C130.186 -73.9433 120.601 -75.4595 111.003 -75.4595V-75.6982C120.614 -75.6982 130.211 -74.194 139.541 -71.2214Z" fill="#EAEAEA"/>
</g>
<g opacity="0.5">
<path fill-rule="evenodd" clip-rule="evenodd" d="M138.357 -67.341C142.55 -66.0039 146.743 -64.3206 150.809 -62.3627C154.837 -60.4287 158.788 -58.1963 162.88 -55.5579C166.066 -53.5045 168.921 -51.4272 171.011 -49.911C171.712 -49.3857 172.324 -48.944 172.86 -48.562C173.089 -48.4028 173.335 -48.2317 173.599 -48.0486C175.74 -46.5324 179.322 -44.0135 183.094 -40.611C187.67 -36.4923 191.736 -31.9199 195.203 -27.0133C199.728 -20.6143 203.233 -13.6423 205.616 -6.31215C205.616 -6.31215 205.616 -6.30816 205.616 -6.3002C209.147 4.58758 209.453 14.198 209.376 20.4776C209.351 23.5935 209.185 27.0675 208.917 30.2431C208.407 36.3078 207.222 42.2889 205.399 48.0313C205.357 48.1586 205.314 48.282 205.272 48.4014C205.208 48.5805 205.145 48.7715 205.094 48.9506C203.895 52.9618 202.697 56.3642 201.423 59.3488C200.811 60.865 200.11 62.417 199.294 64.0764C196.618 69.5681 192.896 75.0359 188.244 80.3365C184.433 84.6701 180.112 88.6456 175.37 92.1555C170.68 95.6414 165.582 98.6738 160.19 101.193C154.799 103.712 149.101 105.717 143.264 107.15C137.337 108.607 131.245 109.49 125.127 109.765C122.845 109.872 120.768 109.884 116.944 109.884H116.906C114.752 109.884 112.19 109.884 109.462 109.872H109.347H109.271C106.594 109.872 103.828 109.86 101.611 109.86C93.8868 109.86 86.2903 108.989 78.9997 107.281C74.9211 106.326 70.8807 105.085 67.006 103.592C60.1233 100.954 53.6866 97.5158 47.8746 93.3493C42.2027 89.2783 36.8622 84.2642 31.9933 78.4383C27.0098 72.4691 23.1478 66.2731 20.2163 59.4921C19.6045 58.0714 19.0564 56.603 18.5338 55.1823C18.3639 54.7366 18.1939 54.291 18.024 53.8453C15.5768 47.3747 14.0346 41.9427 13.1679 36.7853C11.9953 29.7656 12.0845 24.059 12.1609 19.4747V19.1285C12.2757 12.061 12.8237 6.44997 13.8816 1.47168C15.8572 -7.74473 19.4643 -16.4717 24.6263 -24.4585C29.2275 -31.5737 34.9886 -37.9727 41.7566 -43.5001C44.6117 -45.8281 47.6197 -47.8934 50.1816 -49.6125C50.224 -49.6444 50.2665 -49.6762 50.309 -49.7081L50.3855 -49.7558C52.565 -51.2601 56.2103 -53.791 60.238 -56.2742C63.845 -58.4947 67.2481 -60.381 70.6385 -62.0523C82.2626 -67.735 94.3584 -70.9464 106.607 -71.5791C108.06 -71.6627 109.539 -71.7104 110.979 -71.7104H111.03V-71.4717C111.03 -71.4717 111.026 -71.4717 111.017 -71.4717C111.009 -71.4717 111 -71.4717 110.992 -71.4717C110.992 -71.4717 110.987 -71.4717 110.979 -71.4717C109.539 -71.4717 108.073 -71.4239 106.62 -71.3403C94.3711 -70.7076 82.2626 -67.4723 70.7532 -61.8374C67.3756 -60.178 63.9725 -58.2917 60.3782 -56.0712C56.3505 -53.588 52.718 -51.069 50.5257 -49.5528C50.4662 -49.5131 50.3982 -49.4653 50.3218 -49.4096C47.352 -47.4279 44.5479 -45.458 41.9223 -43.3211C35.1925 -37.8175 29.4442 -31.4424 24.8557 -24.3391C19.7064 -16.3881 16.0994 -7.68505 14.1365 1.51942C12.9129 7.2379 12.5051 13.1474 12.4159 19.1404C12.3394 23.689 12.2119 29.5746 13.4228 36.7495C14.417 42.659 16.1886 48.2939 18.2662 53.7617C18.9799 55.6599 19.6555 57.5462 20.4584 59.3966C23.4155 66.2254 27.3284 72.4571 32.1973 78.2831C36.7475 83.7508 41.9988 88.8366 48.0275 93.1583C53.8268 97.3128 60.2507 100.751 67.0952 103.378C70.9826 104.87 74.9848 106.099 79.0635 107.055C86.3413 108.762 93.8868 109.621 101.611 109.621C103.854 109.621 106.645 109.633 109.347 109.633C112.113 109.645 114.726 109.645 116.906 109.645C116.923 109.645 116.935 109.645 116.944 109.645C120.742 109.645 122.845 109.633 125.114 109.526C149.764 108.404 172.719 97.6351 188.052 80.1812C192.335 75.3104 196.159 69.9262 199.065 63.9809C199.817 62.4289 200.531 60.865 201.181 59.2653C202.595 55.9822 203.768 52.5082 204.851 48.8909C204.941 48.5805 205.055 48.27 205.145 47.9596C206.967 42.265 208.165 36.272 208.662 30.2192C208.93 27.0794 209.096 23.6054 209.121 20.4776C209.198 14.1861 208.892 4.61146 205.374 -6.24051C203.003 -13.5587 199.498 -20.4949 194.986 -26.8819C191.532 -31.7766 187.479 -36.3371 182.916 -40.432C178.697 -44.2403 174.81 -46.8787 172.707 -48.371C170.54 -49.911 166.958 -52.6449 162.739 -55.3549C158.648 -57.9933 154.71 -60.2138 150.695 -62.1478C146.641 -64.1057 142.461 -65.7771 138.28 -67.1142C129.371 -69.9913 120.194 -71.4717 111.03 -71.4717V-71.7104C120.181 -71.7104 129.371 -70.242 138.357 -67.341Z" fill="#EAEAEA"/>
</g>
<g opacity="0.6">
<path fill-rule="evenodd" clip-rule="evenodd" d="M137.172 -63.4728C141.186 -62.1835 145.189 -60.5718 149.089 -58.6855C152.938 -56.8231 156.711 -54.6862 160.636 -52.1553C163.683 -50.1855 166.423 -48.1917 168.424 -46.7352C169.1 -46.2457 169.686 -45.816 170.196 -45.4579C170.417 -45.2987 170.655 -45.1275 170.91 -44.9445C173.102 -43.4044 176.403 -41.0764 179.997 -37.8411C184.344 -33.9254 188.218 -29.5798 191.519 -24.9239C195.853 -18.8234 199.192 -12.2095 201.474 -5.24943C201.474 -5.24147 201.474 -5.23754 201.474 -5.23754C204.864 5.12495 205.17 14.2578 205.106 20.227C205.081 23.1997 204.941 26.5424 204.686 29.6344C204.202 35.5081 203.08 41.2863 201.334 46.8018C201.291 46.9212 201.249 47.0445 201.206 47.1719C201.155 47.339 201.092 47.5181 201.041 47.6972C200.008 51.2309 198.81 54.6095 197.484 57.7015C196.924 59.1222 196.261 60.6144 195.471 62.2739C192.985 67.479 189.493 72.5887 184.79 77.8893C181.144 81.9961 177.015 85.7566 172.477 89.0755C167.991 92.3705 163.109 95.2596 157.947 97.6473C152.772 100.035 147.304 101.933 141.709 103.294C136.024 104.679 130.174 105.515 124.298 105.777C122.119 105.885 120.13 105.897 116.498 105.897H116.434C114.395 105.897 111.948 105.885 109.36 105.885H109.207C106.633 105.873 103.956 105.873 101.802 105.873C94.4095 105.873 87.1317 105.049 80.1725 103.425C76.2596 102.53 72.3976 101.348 68.6886 99.9275C62.0735 97.4085 55.9173 94.1015 50.3857 90.1022C45.0834 86.27 40.1508 81.5902 35.3202 75.7881C30.5023 70.0458 26.8188 64.1243 24.0529 57.6896C23.4666 56.3286 22.9441 54.908 22.447 53.547C22.294 53.1252 22.1368 52.7073 21.9754 52.2935C19.6556 46.1094 18.1899 40.9281 17.3742 35.9737C16.2653 29.3002 16.3545 23.8443 16.4182 19.463V19.1048C16.5202 12.3835 17.0428 7.0351 18.0624 2.28363C19.9233 -6.503 23.3774 -14.824 28.2973 -22.4168C32.6691 -29.1739 38.1625 -35.2744 44.6246 -40.5392C47.3522 -42.7598 50.2327 -44.7415 52.7054 -46.389C52.7479 -46.4209 52.7904 -46.4527 52.8329 -46.4846L52.8966 -46.5323H52.9093C54.9996 -47.9768 58.492 -50.4003 62.3539 -52.788C65.808 -54.925 69.071 -56.7396 72.3211 -58.3393C83.4482 -63.8071 95.0341 -66.923 106.786 -67.5916C108.239 -67.6751 109.653 -67.7109 110.979 -67.7109H111.017H111.043V-67.4722C111.026 -67.4722 111.009 -67.4722 110.992 -67.4722C110.983 -67.4722 110.979 -67.4722 110.979 -67.4722C109.59 -67.4722 108.188 -67.4244 106.798 -67.3528C95.0978 -66.6842 83.4864 -63.5564 72.4358 -58.1245C69.1857 -56.5247 65.9355 -54.722 62.4941 -52.597C58.6449 -50.2093 55.1526 -47.7978 53.0495 -46.3413C52.9901 -46.2935 52.9263 -46.2457 52.8584 -46.198C49.9906 -44.2879 47.2885 -42.4016 44.7903 -40.3601C38.3664 -35.1192 32.8857 -29.0545 28.5139 -22.2974C23.6196 -14.7285 20.1782 -6.4552 18.3046 2.33143C17.1447 7.77532 16.7624 13.3983 16.6731 19.1048C16.6094 23.4743 16.482 29.0972 17.6291 35.9379C18.5595 41.5967 20.2547 46.9809 22.2175 52.2099C22.8931 54.0126 23.5304 55.8272 24.2951 57.5941C27.1119 64.1602 30.8337 70.0577 35.5241 75.6448C39.8322 80.8141 44.7648 85.7447 50.5386 89.9231C56.0575 93.9105 62.201 97.1936 68.7778 99.7006C72.4996 101.121 76.3105 102.291 80.2362 103.199C87.1827 104.81 94.4095 105.634 101.802 105.634C103.956 105.634 106.62 105.634 109.207 105.646C111.846 105.646 114.357 105.658 116.434 105.658C116.46 105.658 116.481 105.658 116.498 105.658C120.105 105.658 122.119 105.646 124.286 105.539C147.967 104.476 169.966 94.2329 184.586 77.746C188.703 73.102 192.475 67.9685 195.241 62.1784C195.955 60.6861 196.631 59.1699 197.242 57.6179C198.568 54.506 199.753 51.1752 200.798 47.6255C200.888 47.3271 200.99 47.0286 201.092 46.7302C202.825 41.2505 203.959 35.4603 204.431 29.6225C204.686 26.5662 204.826 23.2235 204.852 20.227C204.915 14.234 204.597 5.13691 201.232 -5.16589V-5.17785C198.963 -12.114 195.624 -18.7159 191.316 -24.7925C188.014 -29.4366 184.152 -33.7582 179.819 -37.6621C175.804 -41.2794 172.082 -43.8103 170.043 -45.2668C167.953 -46.7472 164.524 -49.3497 160.496 -51.9523C156.583 -54.4713 152.811 -56.6083 148.974 -58.4707C145.087 -60.345 141.097 -61.9567 137.095 -63.246C128.568 -66.0276 119.774 -67.4722 111.043 -67.4722V-67.7109C119.735 -67.7109 128.53 -66.2903 137.172 -63.4728Z" fill="#EAEAEA"/>
</g>
<g opacity="0.6">
<path fill-rule="evenodd" clip-rule="evenodd" d="M135.986 -59.6049C139.81 -58.3633 143.646 -56.8113 147.355 -54.9967C151.039 -53.2179 154.646 -51.1645 158.393 -48.7529C161.312 -46.8667 163.937 -44.9565 165.849 -43.5598C166.486 -43.0942 167.034 -42.6882 167.519 -42.342C167.74 -42.1908 167.973 -42.0276 168.22 -41.8525C170.323 -40.3722 173.484 -38.1397 176.887 -35.0716C181.029 -31.3468 184.713 -27.2281 187.848 -22.8228C191.965 -17.0446 195.152 -10.765 197.331 -4.17507C200.543 5.56664 200.862 14.2697 200.836 19.9762C200.823 22.9011 200.683 26.1245 200.454 29.0374C199.995 34.7081 198.924 40.2714 197.267 45.572C197.233 45.6914 197.195 45.8108 197.153 45.9302C197.102 46.0973 197.051 46.2645 197 46.4316C196.069 49.6311 194.935 52.7828 193.533 56.0539C193.023 57.403 192.424 58.7998 191.647 60.4711C189.34 65.4017 186.064 70.1651 181.322 75.4538C177.856 79.3099 173.917 82.8675 169.596 86.0073C165.301 89.1113 160.623 91.8332 155.691 94.0895C150.745 96.3578 145.52 98.1605 140.154 99.4499C134.711 100.751 129.103 101.551 123.482 101.802C121.392 101.885 119.505 101.909 116.051 101.909H115.975C114.025 101.909 111.705 101.897 109.245 101.897H109.067C106.607 101.885 104.058 101.873 101.993 101.873C94.9317 101.873 87.9852 101.097 81.3319 99.5693C77.5974 98.7216 73.9139 97.5994 70.3578 96.2504C64.0232 93.8508 58.1474 90.699 52.8961 86.8668C48.04 83.3211 43.5153 78.9636 38.6336 73.1377C33.9814 67.5744 30.4636 61.9276 27.889 55.8749C27.3281 54.5736 26.8438 53.2245 26.3595 51.9113C26.215 51.5213 26.0706 51.1274 25.9261 50.7294C23.7338 44.8558 22.3573 39.9014 21.5925 35.1618C20.5346 28.8464 20.6111 23.6413 20.6748 19.4509L20.6876 19.0689C20.7768 12.6938 21.2612 7.62002 22.2298 3.09538C24.0015 -5.26147 27.2772 -13.1647 31.9548 -20.3754C36.1227 -26.7863 41.3485 -32.5765 47.4919 -37.5786C50.0921 -39.6917 52.8579 -41.5899 55.2286 -43.1777C55.2711 -43.2095 55.3136 -43.2374 55.3561 -43.2613L55.4198 -43.309C57.4209 -44.7058 60.7858 -47.0218 64.4693 -49.3021C67.7704 -51.3555 70.8932 -53.0865 74.0031 -54.6266C79.2926 -57.2411 84.7606 -59.3183 90.2667 -60.8226C95.7856 -62.3268 101.394 -63.258 106.951 -63.5923C108.378 -63.6759 109.729 -63.7236 110.966 -63.7236H110.979H111.055V-63.4849C111.03 -63.4849 111.004 -63.4849 110.979 -63.4849C110.979 -63.4849 110.974 -63.4849 110.966 -63.4849C109.653 -63.4849 108.302 -63.4371 106.976 -63.3535C95.8239 -62.685 84.6968 -59.6407 74.1178 -54.4237C71.0079 -52.8836 67.8979 -51.1406 64.6095 -49.1111C60.926 -46.8189 57.5866 -44.5148 55.56 -43.118C55.5005 -43.0782 55.441 -43.0344 55.3816 -42.9867C52.6157 -41.1362 50.0411 -39.3336 47.6576 -37.3996C41.5524 -32.4213 36.3394 -26.667 32.1715 -20.2561C27.5193 -13.0692 24.2564 -5.21374 22.4847 3.13117C21.3759 8.30048 21.019 13.6489 20.9425 19.0689C20.8788 23.2592 20.7641 28.6315 21.8347 35.126C22.7142 40.546 24.3074 45.6675 26.1683 50.6458C26.8056 52.3769 27.4046 54.108 28.1311 55.7913C30.8077 62.0947 34.3638 67.6461 38.8376 72.9945C42.929 77.8773 47.5429 82.6526 53.0618 86.6758C58.3003 90.4961 64.1507 93.6478 70.4598 96.0355C74.0031 97.3845 77.6484 98.4828 81.3957 99.3424C88.0362 100.87 94.9317 101.635 101.993 101.635C104.045 101.635 106.594 101.647 109.067 101.658C111.59 101.658 113.974 101.67 115.975 101.67C116 101.67 116.026 101.67 116.051 101.67C119.467 101.67 121.392 101.646 123.469 101.563C146.157 100.548 167.2 90.8304 181.131 75.2986C185.07 70.9052 188.779 66.0224 191.417 60.3756C192.093 58.9311 192.73 57.4627 193.303 55.9704C194.553 53.0335 195.738 49.846 196.745 46.3719C196.834 46.0854 196.936 45.7989 197.025 45.5123C198.669 40.2475 199.74 34.6484 200.199 29.0255C200.428 26.0648 200.569 22.8295 200.581 19.9762C200.607 14.2697 200.301 5.66209 197.089 -4.10349C194.922 -10.6815 191.736 -16.9252 187.632 -22.6915C184.509 -27.0848 180.838 -31.1916 176.721 -34.8925C172.898 -38.3307 169.341 -40.7542 167.366 -42.151C165.365 -43.5836 162.102 -46.0668 158.253 -48.55C154.518 -50.9615 150.911 -53.003 147.24 -54.7937C143.544 -56.5845 139.72 -58.1365 135.909 -59.3781C127.752 -62.0642 119.353 -63.4849 111.055 -63.4849V-63.7236C119.302 -63.7236 127.688 -62.3388 135.986 -59.6049Z" fill="#EAEAEA"/>
</g>
<g opacity="0.6">
<path fill-rule="evenodd" clip-rule="evenodd" d="M134.801 -55.736C138.446 -54.5422 142.092 -53.0499 145.635 -51.3188C149.14 -49.6116 152.569 -47.6537 156.15 -45.3377C158.929 -43.5469 161.44 -41.7204 163.275 -40.3833C163.874 -39.9415 164.397 -39.5595 164.856 -39.2372C165.068 -39.0859 165.297 -38.9228 165.544 -38.7477C167.545 -37.327 170.566 -35.1901 173.79 -32.301C177.703 -28.7792 181.196 -24.8872 184.165 -20.7208C188.091 -15.253 191.125 -9.33157 193.189 -3.11168C193.189 -3.10372 193.189 -3.09973 193.189 -3.09973C196.248 6.08086 196.58 14.3183 196.567 19.7264C196.554 22.5319 196.44 25.6239 196.223 28.4414C195.802 33.7898 194.757 39.2814 193.202 44.3433C193.168 44.4547 193.134 44.5661 193.1 44.6775C193.049 44.8447 192.998 45.0118 192.947 45.167C191.889 48.8918 190.602 52.0674 189.595 54.4073C189.136 55.6728 188.575 57.0218 187.823 58.6574C185.096 64.6504 181.068 69.4736 177.856 73.0073C174.568 76.6366 170.821 79.9793 166.704 82.928C162.612 85.8529 158.151 88.4197 153.448 90.5447C148.719 92.6817 143.723 94.3769 138.599 95.5947C133.399 96.8362 128.033 97.5764 122.654 97.8152C120.679 97.8988 118.805 97.9107 115.593 97.9107H115.504C113.643 97.9107 111.438 97.9107 109.106 97.8988H108.927C106.582 97.8988 104.16 97.8868 102.185 97.8868C95.4548 97.8868 88.8398 97.1586 82.5051 95.714C78.9363 94.9142 75.4185 93.8636 72.0409 92.5743C65.9739 90.294 60.3785 87.2856 55.4204 83.6324C49.7485 79.454 45.2493 74.416 41.9609 70.5002C37.4361 65.1041 34.186 59.887 31.726 54.0731C31.1907 52.8076 30.7191 51.4943 30.2603 50.2289C30.1328 49.8787 30.0011 49.5285 29.8651 49.1783C27.8131 43.5912 26.513 38.8875 25.7992 34.3628C24.8178 28.3817 24.8816 23.4273 24.9325 19.4518L24.9453 19.034C25.0218 13.017 25.4933 8.20585 26.411 3.8961C28.0807 -4.01903 31.178 -11.5043 35.6262 -18.3331C39.5647 -24.3978 44.5228 -29.8775 50.3603 -34.617C52.833 -36.6226 55.4841 -38.4492 57.7529 -39.9654C57.7954 -39.9893 57.8378 -40.0171 57.8803 -40.049L57.9313 -40.0848L57.9441 -40.0968C59.8559 -41.4219 63.0679 -43.6424 66.5857 -45.8272C69.7339 -47.7731 72.7164 -49.4444 75.6862 -50.9129C80.7462 -53.4319 85.972 -55.4375 91.2233 -56.894C96.5 -58.3505 101.853 -59.2578 107.13 -59.5921C108.532 -59.6876 109.781 -59.7354 110.966 -59.7354H110.979H111.068V-59.4966C111.043 -59.4966 111.013 -59.4966 110.979 -59.4966C110.979 -59.4966 110.975 -59.4966 110.966 -59.4966C109.705 -59.4846 108.43 -59.4369 107.143 -59.3533C96.5637 -58.6848 85.921 -55.7241 75.8136 -50.7099C72.8311 -49.2296 69.8613 -47.5701 66.7259 -45.6242C63.2081 -43.4395 60.0344 -41.2428 58.0843 -39.8938C58.0248 -39.854 57.9653 -39.8142 57.9058 -39.7744C55.2547 -37.9956 52.7948 -36.2764 50.526 -34.4379C44.7267 -29.7342 39.7941 -24.2784 35.8429 -18.2137C31.4329 -11.4208 28.3357 -3.98317 26.6532 3.9439C25.6208 8.83863 25.2639 13.9005 25.2002 19.0459C25.1492 23.0453 25.0345 28.1549 26.0414 34.327C26.8699 39.4844 28.3611 44.3552 30.1073 49.0947C30.7191 50.7303 31.2927 52.3778 31.9682 53.9895C34.5174 60.0183 37.8822 65.2473 42.1648 70.345C46.0013 74.9413 50.3093 79.5614 55.5733 83.4414C60.5314 87.0946 66.1013 90.091 72.1428 92.3593C75.5077 93.6367 78.9873 94.6873 82.5689 95.4872C88.8908 96.9198 95.4548 97.6481 102.185 97.6481C104.147 97.6481 106.569 97.66 108.927 97.66C111.323 97.672 113.592 97.6719 115.504 97.6719C115.538 97.6719 115.568 97.6719 115.593 97.6719C118.831 97.6719 120.666 97.66 122.642 97.5764C144.348 96.6333 164.448 87.4408 177.665 72.864C181.438 68.7095 185.083 64.0655 187.594 58.5619C188.218 57.177 188.83 55.7683 189.353 54.3238C190.538 51.566 191.736 48.5217 192.705 45.1073C192.781 44.8328 192.871 44.5582 192.96 44.2836C194.502 39.2456 195.535 33.8256 195.968 28.4294C196.185 25.5523 196.299 22.4483 196.312 19.7264C196.325 14.3183 196.006 6.17633 192.947 -3.02815V-3.04004C190.882 -9.24799 187.862 -15.1455 183.961 -20.5894C180.992 -24.744 177.512 -28.624 173.612 -32.1219C169.992 -35.3691 166.602 -37.6852 164.703 -39.0461C162.778 -40.4071 159.668 -42.7829 155.997 -45.1467C152.454 -47.4388 149.013 -49.3967 145.52 -51.1039C141.99 -52.8349 138.357 -54.3153 134.725 -55.5091C126.937 -58.1117 118.933 -59.4966 111.068 -59.4966V-59.7354C118.869 -59.7354 126.848 -58.3863 134.801 -55.736Z" fill="#EAEAEA"/>
</g>
<g opacity="0.6">
<path fill-rule="evenodd" clip-rule="evenodd" d="M133.616 -51.8683C137.134 -50.6864 140.601 -49.2657 143.915 -47.6421C147.241 -46.0065 150.504 -44.1442 153.907 -41.9356C156.559 -40.2164 158.942 -38.4854 160.688 -37.208C161.262 -36.7901 161.746 -36.432 162.179 -36.1216C162.392 -35.9783 162.617 -35.8191 162.855 -35.644C164.767 -34.295 167.635 -32.2536 170.694 -29.5316C174.39 -26.2128 177.691 -22.5476 180.495 -18.6199C184.204 -13.4745 187.085 -7.88735 189.048 -2.03755C191.915 6.49837 192.285 13.9359 192.298 19.4753C192.298 22.1615 192.183 25.1341 191.979 27.8441C191.584 32.9776 190.602 38.2663 189.149 43.1133C189.115 43.2247 189.081 43.3322 189.048 43.4356C188.997 43.5908 188.946 43.758 188.895 43.9132C187.951 47.2917 186.728 50.2525 185.657 52.7595C185.122 54.2876 184.485 55.756 184 56.8544C181.54 62.4176 177.767 66.9064 174.403 70.5715C171.28 73.962 167.724 77.0899 163.811 79.8476C159.923 82.5935 155.679 85.005 151.205 86.9987C146.693 89.0043 141.939 90.5922 137.045 91.7383C132.074 92.9082 126.963 93.6126 121.826 93.8275C119.953 93.911 118.181 93.923 115.148 93.923H115.033C113.261 93.923 111.158 93.911 108.94 93.911H108.787H108.762C106.531 93.8991 104.237 93.8991 102.389 93.8991C95.978 93.8991 89.6815 93.2067 83.6783 91.8577C80.3261 91.1175 76.9868 90.1266 73.7238 88.9088C67.8863 86.7241 62.5713 83.8589 57.9318 80.3968C52.9482 76.684 48.9079 72.1713 45.2753 67.8496C40.9418 62.6922 37.8573 57.7378 35.563 52.27C35.0532 51.0523 34.6071 49.7988 34.161 48.5811C34.0505 48.2548 33.9358 47.9324 33.8169 47.6141C31.8923 42.3373 30.6814 37.8724 30.0059 33.5507C29.0882 27.9158 29.1519 23.2121 29.2029 19.4395V19.0098C29.2794 13.3271 29.7127 8.79054 30.5794 4.70762C32.1599 -2.77773 35.0914 -9.84523 39.2848 -16.2919C43.0066 -22.0104 47.697 -27.1678 53.2287 -31.6566C55.5611 -33.5429 58.1103 -35.2979 60.2771 -36.7543C60.3196 -36.7782 60.3578 -36.802 60.3918 -36.8259L60.4555 -36.8618L60.4683 -36.8737C62.2909 -38.1392 65.3499 -40.2642 68.702 -42.3415C71.6973 -44.2038 74.5396 -45.7916 77.3691 -47.2123C82.1998 -49.6238 87.1834 -51.5579 92.1925 -52.9547C97.2143 -54.3753 102.3 -55.2588 107.309 -55.605C108.66 -55.6886 109.858 -55.7363 110.967 -55.7363H110.98H111.082V-55.4976C111.048 -55.4976 111.014 -55.4976 110.98 -55.4976C110.971 -55.4976 110.967 -55.4976 110.967 -55.4976C109.769 -55.4976 108.545 -55.4498 107.322 -55.3662C97.2908 -54.6738 87.1324 -51.8086 77.4966 -46.9974C74.6543 -45.5887 71.8247 -43.9889 68.8422 -42.1385C65.4901 -40.0612 62.4693 -37.9601 60.5957 -36.6707C60.5447 -36.6389 60.4895 -36.5991 60.43 -36.5514C57.8936 -34.8561 55.5356 -33.2086 53.3944 -31.4776C47.9137 -27.0365 43.236 -21.903 39.5015 -16.1726C35.3336 -9.76166 32.4148 -2.74193 30.8344 4.75536C29.8529 9.36357 29.5215 14.1508 29.4578 19.0098C29.4068 22.842 29.3049 27.677 30.2608 33.5149C31.0255 38.4215 32.4148 43.0417 34.059 47.5424C34.6199 49.0944 35.1679 50.6583 35.8052 52.1864C38.2269 57.9527 41.4006 62.8474 45.4792 67.7063C49.0863 72.0041 53.0885 76.481 58.0848 80.2058C62.7625 83.6918 68.052 86.5212 73.8131 88.682C77.025 89.8878 80.3261 90.8787 83.7293 91.6308C89.7325 92.9799 95.978 93.6604 102.389 93.6604C104.25 93.6604 106.544 93.6603 108.787 93.6722C111.056 93.6722 113.21 93.6842 115.033 93.6842C115.075 93.6842 115.114 93.6842 115.148 93.6842C118.194 93.6842 119.94 93.6723 121.814 93.5887C142.538 92.7053 161.695 84.038 174.211 70.4163C177.806 66.5006 181.387 62.1192 183.771 56.7589C184.357 55.4218 184.918 54.0727 185.415 52.6879C186.524 50.0973 187.722 47.1962 188.652 43.8535C188.729 43.5789 188.818 43.3162 188.895 43.0536C190.348 38.2305 191.329 33.0135 191.724 27.8203C191.941 25.0506 192.043 22.066 192.043 19.4753C192.03 14.3657 191.711 6.70134 188.805 -1.96591C186.842 -7.80377 183.975 -13.3671 180.291 -18.4886C177.487 -22.3925 174.199 -26.0576 170.515 -29.3526C167.087 -32.4207 163.875 -34.6173 162.026 -35.9305C160.204 -37.2438 157.234 -39.4882 153.754 -41.7445C150.39 -43.9293 147.114 -45.7917 143.787 -47.4272C140.435 -49.0747 136.981 -50.4834 133.54 -51.6414C126.122 -54.1366 118.512 -55.4976 111.082 -55.4976V-55.7363C118.372 -55.7363 125.956 -54.435 133.616 -51.8683Z" fill="#EAEAEA"/>
</g>
<g opacity="0.7">
<path fill-rule="evenodd" clip-rule="evenodd" d="M132.442 -48.0009C135.769 -46.8667 139.057 -45.5058 142.18 -43.9538C145.341 -42.4018 148.438 -40.623 151.65 -38.5338C154.174 -36.8982 156.455 -35.2388 158.112 -34.033C158.635 -33.639 159.106 -33.3048 159.514 -33.0182C159.718 -32.875 159.935 -32.7198 160.164 -32.5527C161.974 -31.2633 164.714 -29.3174 167.582 -26.7625C171.062 -23.6466 174.172 -20.1965 176.823 -16.5195C180.315 -11.6844 183.043 -6.45539 184.904 -0.975689C184.904 -0.975689 184.904 -0.971699 184.904 -0.963737C187.618 7.02303 187.988 14.0189 188.014 19.224C188.026 21.7788 187.937 24.6321 187.746 27.2346C187.376 32.1771 186.459 37.239 185.082 41.895C185.048 41.9905 185.014 42.09 184.98 42.1934C184.942 42.3486 184.891 42.5038 184.853 42.6471C183.973 45.8227 182.826 48.5088 181.819 50.8726L181.704 51.1233C181.233 52.544 180.672 53.893 180.175 55.0391C177.957 60.2204 174.427 64.3988 170.934 68.1355C168.003 71.2872 164.625 74.2001 160.916 76.7788C157.233 79.3336 153.205 81.5781 148.948 83.4405C144.665 85.3267 140.14 86.819 135.501 87.8934C130.76 88.9798 125.891 89.6365 120.996 89.8394C119.212 89.9111 117.542 89.9349 114.7 89.9349H114.56C112.89 89.9349 110.927 89.923 108.837 89.923H108.633C106.632 89.911 104.363 89.911 102.579 89.911C96.499 89.911 90.5339 89.2664 84.8366 88.0009C81.6756 87.3204 78.5019 86.3892 75.4047 85.2312C69.8348 83.1659 64.8002 80.4439 60.4412 77.1489C55.5213 73.448 51.6849 68.8756 48.6004 65.2106C44.3943 60.1965 41.552 55.6479 39.4107 50.4667C38.9136 49.2967 38.493 48.091 38.0724 46.921C37.9704 46.6345 37.8684 46.348 37.7665 46.0615C35.9693 41.0832 34.835 36.845 34.2104 32.7382C33.3564 27.4495 33.4202 23.0085 33.4584 19.4389V18.9733C33.5221 13.6488 33.93 9.36291 34.7457 5.50682C36.237 -1.53682 38.9901 -8.18648 42.954 -14.2512C46.4463 -19.6115 50.8691 -24.4704 56.0949 -28.6966C58.2999 -30.4754 60.7216 -32.1467 62.8119 -33.5435C62.8459 -33.5674 62.8799 -33.5913 62.9139 -33.6152L62.9648 -33.651L62.9776 -33.6629C64.7238 -34.8687 67.6298 -36.8743 70.8035 -38.8561C73.6585 -40.623 76.3607 -42.1511 79.05 -43.5002C83.6512 -45.8043 88.3927 -47.6666 93.1468 -49.0276C97.9265 -50.4005 102.757 -51.2601 107.473 -51.6063C108.786 -51.7018 109.92 -51.7495 110.953 -51.7495H110.965H111.093V-51.5107C111.05 -51.5107 111.008 -51.5107 110.965 -51.5107C110.965 -51.5107 110.961 -51.5107 110.953 -51.5107C109.831 -51.5107 108.658 -51.4511 107.499 -51.3675C98.0157 -50.6751 88.3544 -47.9054 79.1775 -43.2852C76.4754 -41.9362 73.7733 -40.42 70.9437 -38.6532C67.77 -36.6833 64.9022 -34.6896 63.1178 -33.46C63.0668 -33.4202 63.0116 -33.3804 62.9521 -33.3406C60.5304 -31.717 58.2872 -30.1531 56.2606 -28.5175C51.0858 -24.3391 46.6885 -19.516 43.1707 -14.1318C39.245 -8.11485 36.4919 -1.51289 35.0006 5.55462C34.0829 9.90018 33.7771 14.4009 33.7133 18.9733C33.6751 22.6265 33.5731 27.2108 34.4653 32.7024C35.1791 37.3584 36.4664 41.7278 38.0087 45.9779C38.5312 47.4582 39.0411 48.9267 39.6401 50.3832C41.9216 55.8748 44.9169 60.4472 48.8043 65.0554C52.1692 69.0667 55.8527 73.3883 60.6069 76.9698C64.9914 80.2768 70.0133 82.9748 75.4939 85.0163C78.5274 86.1385 81.6629 87.0697 84.9003 87.7741C90.5849 89.0276 96.499 89.6723 102.579 89.6723C104.338 89.6723 106.53 89.6723 108.646 89.6842C110.787 89.6842 112.839 89.6962 114.56 89.6962C114.611 89.6962 114.657 89.6962 114.7 89.6962C117.555 89.6962 119.212 89.6723 120.984 89.6007C140.74 88.7769 158.94 80.6469 170.743 67.9803C174.172 64.3033 177.702 60.1726 179.933 54.9555C180.481 53.6781 181.016 52.3769 181.475 51.0398C182.507 48.6163 183.705 45.8585 184.598 42.5874C184.674 42.3367 184.763 42.086 184.84 41.8233C186.191 37.2271 187.121 32.201 187.491 27.2227C187.682 24.5485 187.771 21.6714 187.759 19.224C187.746 14.4129 187.414 7.22599 184.661 -0.892097V-0.904045C182.801 -6.37181 180.086 -11.577 176.606 -16.3881C173.968 -20.0532 170.87 -23.4795 167.404 -26.5835C164.179 -29.4726 161.133 -31.5498 159.361 -32.8272C157.615 -34.0688 154.798 -36.2058 151.51 -38.3428C148.31 -40.4081 145.213 -42.1869 142.065 -43.7508C138.891 -45.3147 135.616 -46.6638 132.353 -47.7741C125.304 -50.1737 118.09 -51.5107 111.093 -51.5107V-51.7495C117.925 -51.7495 125.113 -50.4841 132.442 -48.0009Z" fill="#EAEAEA"/>
</g>
<g opacity="0.8">
<path fill-rule="evenodd" clip-rule="evenodd" d="M124.144 -20.9125C126.247 -20.0887 128.248 -19.1695 130.109 -18.1906C132.034 -17.1639 133.946 -16.0178 135.934 -14.7045C137.527 -13.654 138.917 -12.6392 140.051 -11.8154C140.323 -11.6085 140.578 -11.4175 140.816 -11.2424C140.986 -11.123 141.168 -10.9957 141.364 -10.8604C142.651 -9.92917 144.27 -8.75923 145.863 -7.36244C147.788 -5.69107 149.547 -3.82871 151.089 -1.83501C153.166 0.851124 154.785 3.64473 155.894 6.498C155.902 6.498 155.907 6.498 155.907 6.498C157.564 10.7361 157.959 14.5802 158.112 17.4574C158.201 19.1168 158.201 21.1583 158.112 23.0326C157.946 26.3634 157.411 30.1001 156.646 33.2877C156.629 33.3673 156.608 33.4468 156.582 33.5264C156.557 33.6219 156.531 33.7214 156.506 33.8249C156.047 35.8663 155.244 37.3945 154.658 38.5047C154.441 38.9226 154.25 39.2807 154.11 39.5911C153.931 40.5939 153.663 41.5132 153.409 42.3728C152.249 46.2169 149.585 48.5449 147.444 50.4073C147.176 50.6341 146.934 50.849 146.704 51.0639C143.276 54.1081 138.636 56.7227 133.257 58.6209C127.675 60.6026 121.429 61.7487 115.222 61.9397C114.126 61.9755 113.094 61.9875 111.551 61.9875H111.271C110.226 61.9875 109.028 61.9874 107.779 61.9755H107.639C106.351 61.9755 105.026 61.9755 103.917 61.9755C100.246 61.9755 96.5879 61.6532 93.0191 61.0204C91.018 60.6623 89.0424 60.1609 87.1561 59.5282C83.549 58.2985 80.4773 56.6033 78.0428 54.4782C76.0927 52.7949 74.7799 50.849 73.6201 49.1418C73.0083 48.2345 72.4347 47.3749 71.8357 46.6825C69.4267 43.877 67.6168 41.5968 66.253 37.8362C65.9344 36.9528 65.6667 36.0574 65.399 35.1859L65.3863 35.1501C64.5196 32.2968 63.9588 29.7181 63.6656 27.0558C63.2705 24.2145 63.2832 21.6955 63.2832 19.475C63.2917 19.2282 63.296 18.9855 63.296 18.7468C63.296 15.8696 63.5127 13.3864 63.9715 11.1659C64.7745 7.15462 66.3295 3.40594 68.5982 0.0273876C70.5738 -2.90945 73.123 -5.59557 76.1565 -7.95936C77.431 -8.95024 78.986 -10.0247 80.49 -11.0394C80.507 -11.0554 80.5283 -11.0713 80.5538 -11.0872L80.5793 -11.1111L80.6175 -11.135C81.8156 -11.9587 83.6255 -13.2122 85.6011 -14.4658C87.411 -15.6118 89.1189 -16.6147 90.8268 -17.5339C96.8683 -20.7931 103.216 -22.9539 108.684 -23.6344C109.321 -23.718 110.149 -23.8015 110.927 -23.8135C110.986 -23.8135 111.046 -23.8135 111.105 -23.8135C114.853 -23.8135 119.25 -22.8346 124.144 -20.9125ZM110.927 -23.5747C110.226 -23.5628 109.487 -23.4911 108.722 -23.3956C103.114 -22.7032 96.8683 -20.5066 90.9543 -17.331C89.2209 -16.3998 87.5002 -15.385 85.7413 -14.2628C83.753 -13.0093 81.943 -11.7557 80.7322 -10.9201C80.6982 -10.8962 80.6642 -10.8723 80.6302 -10.8485C78.986 -9.72626 77.5203 -8.71148 76.3222 -7.78029C73.3524 -5.46424 70.8287 -2.82587 68.8149 0.158722C66.5844 3.46565 65.0294 7.14267 64.2137 11.2137C63.7294 13.6252 63.5509 16.1442 63.5509 18.7468C63.5382 21.1464 63.4872 23.8922 63.9078 27.032C64.2392 29.9211 64.851 32.5355 65.6285 35.0784C65.9089 35.9738 66.1765 36.8692 66.4952 37.7526C67.8208 41.3938 69.5414 43.6263 72.0396 46.5392C73.7475 48.5329 75.2515 51.7324 78.2085 54.3111C80.643 56.4242 83.6765 58.0836 87.2453 59.3013C89.0807 59.9221 91.018 60.4235 93.0573 60.7817C96.5242 61.4025 100.169 61.7367 103.917 61.7367C105.026 61.7367 106.351 61.7367 107.639 61.7367C108.939 61.7487 110.188 61.7487 111.271 61.7487C111.365 61.7487 111.458 61.7487 111.551 61.7487C113.106 61.7487 114.139 61.7368 115.209 61.701C128.095 61.307 139.771 56.9017 146.526 50.8848C148.756 48.8911 151.879 46.5393 153.166 42.3131C153.434 41.4177 153.689 40.4984 153.867 39.5314C154.39 38.3256 155.626 36.5588 156.264 33.7771C156.302 33.5981 156.353 33.419 156.391 33.2399C157.13 30.1837 157.678 26.4948 157.857 23.0326C157.946 21.0031 157.933 18.9736 157.857 17.4693C157.717 14.7235 157.36 10.8913 155.665 6.58154C154.517 3.68051 152.899 0.922777 150.885 -1.69172C149.368 -3.63768 147.635 -5.48813 145.697 -7.19532C143.862 -8.79506 141.988 -10.0963 140.663 -11.0633C139.503 -11.899 137.782 -13.2003 135.794 -14.5135C133.844 -15.8029 131.932 -16.9489 129.982 -17.9756C128.032 -19.0023 126.031 -19.9097 124.055 -20.6857C119.581 -22.4525 115.12 -23.5747 111.105 -23.5747C111.046 -23.5747 110.986 -23.5747 110.927 -23.5747Z" fill="#EAEAEA"/>
</g>
<g opacity="0.9">
<path fill-rule="evenodd" clip-rule="evenodd" d="M122.972 -17.0331C124.884 -16.2571 126.694 -15.4095 128.376 -14.5021C130.135 -13.559 131.881 -12.5085 133.691 -11.3027C135.144 -10.3357 136.431 -9.39257 137.464 -8.64045C137.71 -8.4574 137.94 -8.29024 138.152 -8.13902C138.314 -8.01964 138.488 -7.89227 138.675 -7.75697C139.86 -6.89741 141.339 -5.83489 142.766 -4.5933C144.461 -3.12488 146.029 -1.48936 147.406 0.265575C149.279 2.62937 150.745 5.08868 151.752 7.55992C153.281 11.2847 153.676 14.6633 153.842 17.1942C153.944 18.7104 153.957 20.6205 153.868 22.4351C153.727 25.551 153.256 29.0609 152.58 32.0575C152.563 32.137 152.546 32.2126 152.529 32.2843C152.504 32.3798 152.483 32.4713 152.466 32.5588C152.032 34.5645 151.242 35.9613 150.668 36.988C150.465 37.3581 150.286 37.6804 150.171 37.943C150.031 38.8981 149.789 39.7935 149.585 40.5695C148.565 44.2465 146.029 46.3238 144.002 47.9832C143.735 48.21 143.48 48.413 143.238 48.6159C140.179 51.2066 135.96 53.439 131.027 55.0865C125.865 56.7937 120.117 57.7966 114.394 57.9637C113.413 57.9876 112.444 57.9995 111.106 57.9995H110.8C109.857 57.9995 108.786 57.9875 107.664 57.9875H107.499C106.326 57.9875 105.128 57.9875 104.108 57.9875C100.782 57.9756 97.4421 57.701 94.1792 57.1638C92.3566 56.8653 90.5594 56.4236 88.8388 55.8506C85.5249 54.7523 82.7335 53.2003 80.554 51.2424C78.8206 49.6904 77.7117 47.9116 76.743 46.3476C76.195 45.4761 75.6851 44.6524 75.1626 44.0436C72.7918 41.2858 71.2624 39.3756 70.0897 36.021C69.8221 35.233 69.5927 34.457 69.3377 33.5855C68.5857 31.0427 68.1269 28.7028 67.872 26.2435C67.5533 23.7603 67.5533 21.5039 67.5533 19.5102C67.5533 19.2396 67.5533 18.977 67.5533 18.7223C67.5406 16.1675 67.7318 13.9589 68.1396 11.9771C68.8534 8.39561 70.2299 5.06481 72.2565 2.06828C74.0282 -0.510406 76.2969 -2.8981 79.0245 -4.99925C80.1716 -5.88269 81.6119 -6.88548 83.0139 -7.82861C83.0309 -7.83657 83.0522 -7.84854 83.0777 -7.86446L83.1032 -7.8883L83.1414 -7.9122C84.2375 -8.67626 85.9072 -9.83424 87.7044 -10.9803C89.3741 -12.0309 90.9418 -12.9621 92.5095 -13.8217C98.1304 -16.9018 103.942 -18.9671 108.862 -19.6356C109.487 -19.7311 110.213 -19.8147 110.914 -19.8267H110.927C110.987 -19.8267 111.042 -19.8267 111.093 -19.8267C114.432 -19.8267 118.422 -18.8835 122.972 -17.0331ZM110.927 -19.5879C110.29 -19.576 109.602 -19.5043 108.901 -19.4088C103.841 -18.7164 98.0794 -16.5914 92.637 -13.6187C91.0438 -12.7472 89.4633 -11.816 87.8573 -10.7774C86.0347 -9.61939 84.3777 -8.47327 83.2561 -7.69728C83.2221 -7.6734 83.1881 -7.6535 83.1541 -7.63758C81.6247 -6.58701 80.2736 -5.65586 79.1902 -4.82018C76.5264 -2.76678 74.2703 -0.438765 72.4732 2.19961C70.4976 5.12451 69.1083 8.38365 68.3945 12.0129C67.9612 14.1499 67.7955 16.3943 67.8082 18.7223C67.8082 20.9309 67.7573 23.414 68.1141 26.2196C68.3946 28.8579 68.9044 31.2218 69.5799 33.5259C69.8221 34.3377 70.0515 35.1375 70.3319 35.9493C71.5173 39.3159 73.0595 41.2141 75.3665 43.8883C76.8323 45.5955 78.0304 48.6398 80.7197 51.0633C82.8865 53.0092 85.6268 54.5374 88.928 55.6238C90.5977 56.1729 92.3566 56.6146 94.2302 56.925C97.3784 57.4503 100.692 57.7368 104.108 57.7488C105.128 57.7488 106.326 57.7488 107.499 57.7488C108.671 57.7488 109.806 57.7607 110.8 57.7607C110.91 57.7607 111.012 57.7607 111.106 57.7607C112.482 57.7607 113.413 57.7488 114.394 57.7249C126.286 57.3787 137.056 53.5226 143.059 48.4488C145.137 46.6819 148.209 44.5927 149.33 40.5098C149.572 39.6741 149.789 38.8026 149.929 37.8834C150.363 36.8447 151.624 35.233 152.211 32.5111C152.249 32.344 152.287 32.1768 152.325 32.0097C152.975 29.1803 153.473 25.6824 153.613 22.4232C153.702 20.4892 153.676 18.591 153.587 17.218C153.422 14.7707 153.065 11.416 151.522 7.65541C151.522 7.64745 151.522 7.64351 151.522 7.64351C150.477 5.11258 149.024 2.70102 147.202 0.408857C145.863 -1.29833 144.321 -2.92194 142.588 -4.42618C140.956 -5.8349 139.248 -7.04068 137.986 -7.94799C136.916 -8.72399 135.348 -9.91782 133.551 -11.1117C131.779 -12.2816 130.033 -13.3442 128.249 -14.2992C126.477 -15.2424 124.667 -16.09 122.87 -16.8182C118.753 -18.4896 114.687 -19.5879 111.093 -19.5879C111.042 -19.5879 110.987 -19.5879 110.927 -19.5879Z" fill="#EAEAEA"/>
</g>
<g opacity="0.9">
<path fill-rule="evenodd" clip-rule="evenodd" d="M121.787 -13.1647C123.508 -12.4364 125.152 -11.6485 126.656 -10.8248C128.237 -9.95326 129.804 -8.99819 131.449 -7.89986C132.774 -7.01642 133.947 -6.15686 134.89 -5.45249C135.102 -5.30128 135.298 -5.158 135.476 -5.0227C135.638 -4.90332 135.808 -4.78394 135.986 -4.66455C137.07 -3.87662 138.421 -2.8977 139.67 -1.82325C141.135 -0.557779 142.512 0.850958 143.736 2.36713C145.405 4.42053 146.705 6.52167 147.61 8.62282C149 11.8342 149.395 14.7592 149.573 16.9439C149.675 18.281 149.701 20.1075 149.637 21.8386C149.522 24.7038 149.102 28.0704 148.515 30.8282C148.498 30.9078 148.481 30.9834 148.464 31.055C148.447 31.1346 148.43 31.2182 148.413 31.3057C148.005 33.2636 147.202 34.6126 146.68 35.4961C146.489 35.8065 146.323 36.0811 146.234 36.296C146.132 37.1794 145.953 38.0031 145.762 38.7552C144.883 42.3009 142.359 44.2111 140.524 45.5959C140.26 45.8029 140.01 45.9979 139.772 46.1809C137.082 48.3059 133.297 50.1683 128.798 51.5412C124.069 52.9977 118.805 53.8334 113.566 53.9766C112.687 54.0005 111.833 54.0005 110.673 54.0005H110.329C109.449 54.0005 108.468 54.0005 107.448 54.0005H107.359C106.301 54.0005 105.231 53.9886 104.313 53.9886C101.318 53.9886 98.2969 53.7618 95.3526 53.3081C93.6957 53.0574 92.0643 52.6754 90.522 52.174C87.4885 51.207 84.9776 49.7983 83.0657 47.9956C81.5235 46.551 80.5676 44.8557 79.8156 43.4948C79.344 42.6472 78.9361 41.9189 78.4773 41.3936L78.439 41.3459C76.3615 38.9343 74.9849 37.3465 73.927 34.2186C73.6721 33.4546 73.4682 32.6905 73.277 32.022C72.6652 29.7895 72.2828 27.7004 72.0789 25.4321C71.824 23.307 71.824 21.3133 71.8112 19.5584C71.8112 19.2639 71.8112 18.9734 71.8112 18.6869C71.7985 16.4664 71.9642 14.5323 72.3083 12.7774C72.9201 9.63761 74.1437 6.7127 75.9281 4.11014C77.4704 1.87767 79.4714 -0.199606 81.8931 -2.03811C82.9 -2.81411 84.2383 -3.73336 85.5384 -4.60486C85.5554 -4.62078 85.5724 -4.63668 85.5894 -4.6526L85.6149 -4.66455L85.6659 -4.7004C86.7365 -5.44058 88.1895 -6.45533 89.821 -7.49397C91.3377 -8.46097 92.7653 -9.32052 94.1928 -10.1085C99.3931 -13.0095 104.67 -14.9793 109.029 -15.6478C109.602 -15.7314 110.278 -15.8269 110.915 -15.8389C110.975 -15.8389 111.034 -15.8389 111.094 -15.8389C114 -15.8389 117.607 -14.9316 121.787 -13.1647ZM110.928 -15.6001C110.919 -15.6001 110.915 -15.6001 110.915 -15.6001C110.342 -15.5882 109.73 -15.5046 109.067 -15.4091C104.568 -14.7166 99.2911 -12.6752 94.3202 -9.90548C92.8672 -9.10561 91.427 -8.23413 89.9739 -7.30294C88.317 -6.24043 86.813 -5.20177 85.7678 -4.47353C85.7423 -4.45761 85.7169 -4.43771 85.6914 -4.41383C84.2638 -3.44683 83.0148 -2.58728 82.0461 -1.85904C79.7136 -0.0682831 77.7253 1.94931 76.1448 4.24148C74.3986 6.77241 73.1878 9.61373 72.5632 12.8251C72.1936 14.6875 72.0534 16.6454 72.0661 18.6869C72.0789 20.7164 72.0407 22.9369 72.3338 25.4082C72.5505 27.7958 72.9583 29.9089 73.5319 31.9623C73.7231 32.6905 73.927 33.4188 74.1819 34.1471C75.2143 37.251 76.5781 38.815 78.6812 41.2504C79.9048 42.6591 80.797 45.5481 83.2442 47.8284C85.1178 49.5953 87.5777 50.9801 90.6112 51.9471C92.1025 52.4366 93.6957 52.8187 95.3909 53.0694C98.2332 53.5111 101.216 53.7498 104.313 53.7498C105.231 53.7498 106.301 53.7618 107.359 53.7618C108.404 53.7618 109.424 53.7618 110.329 53.7618C110.448 53.7618 110.563 53.7618 110.673 53.7618C111.846 53.7618 112.687 53.7617 113.566 53.7379C124.477 53.4513 134.367 50.1564 139.606 46.0018C141.518 44.4857 144.526 42.6591 145.507 38.6955C145.711 37.9195 145.89 37.1078 145.979 36.2363C146.348 35.3767 147.61 33.8963 148.171 31.258C148.197 31.1028 148.235 30.9476 148.273 30.7804C148.821 28.1779 149.267 24.8709 149.382 21.8267C149.458 19.9881 149.42 18.2093 149.318 16.9677C149.14 14.8188 148.77 11.9417 147.381 8.71836C146.438 6.54558 145.138 4.49218 143.532 2.51041C142.346 1.05393 140.995 -0.354839 139.491 -1.65612C138.051 -2.88577 136.509 -3.97213 135.323 -4.84363C134.329 -5.55993 132.914 -6.62244 131.296 -7.70883C129.715 -8.77135 128.135 -9.73834 126.529 -10.6218C124.936 -11.4933 123.291 -12.2693 121.685 -12.9498C117.938 -14.5376 114.255 -15.6001 111.094 -15.6001C111.034 -15.6001 110.979 -15.6001 110.928 -15.6001Z" fill="#EAEAEA"/>
</g>
<g opacity="0.9">
<path fill-rule="evenodd" clip-rule="evenodd" d="M120.603 -9.29602C122.145 -8.61553 123.598 -7.88728 124.936 -7.13517C126.338 -6.34723 127.74 -5.47572 129.206 -4.49678C130.392 -3.69691 131.462 -2.90896 132.316 -2.27623C132.486 -2.14889 132.652 -2.0295 132.813 -1.91808C132.966 -1.7987 133.128 -1.67931 133.298 -1.55993C134.317 -0.819752 135.49 0.0278721 136.561 0.947125C137.822 2.00964 138.995 3.19152 140.053 4.45699C141.544 6.22387 142.653 7.93103 143.469 9.68597C144.731 12.4079 145.113 14.8553 145.304 16.6938C145.419 17.8757 145.457 19.571 145.406 21.2304C145.317 23.9046 144.96 27.0324 144.463 29.5992C144.446 29.6788 144.429 29.7544 144.412 29.826C144.395 29.8976 144.382 29.9692 144.374 30.0409C143.991 31.9749 143.188 33.2046 142.666 34.0283C142.5 34.279 142.36 34.4939 142.296 34.6491C142.232 35.5086 142.079 36.2847 141.939 36.9413C141.187 40.3676 138.778 42.0389 137.007 43.2447C136.76 43.4198 136.527 43.587 136.306 43.7461C134.037 45.3936 130.583 46.9098 126.568 48.02C122.26 49.2019 117.48 49.8824 112.751 49.9899C111.961 50.0138 111.209 50.0138 110.241 50.0138H109.858C109.081 50.0138 108.214 50.0138 107.322 50.0018H107.22C106.277 50.0018 105.333 50.0018 104.505 50.0018C101.841 50.0018 99.1645 49.8108 96.5261 49.4526C95.0349 49.2497 93.5818 48.9274 92.2053 48.5095C89.465 47.6619 87.2344 46.3965 85.5775 44.7609C84.201 43.3999 83.449 41.836 82.8372 40.5705C82.4803 39.8184 82.1616 39.1618 81.8047 38.7559C81.6773 38.6126 81.5541 38.4733 81.4351 38.338C79.7399 36.3921 78.6183 35.1147 77.7643 32.4166C77.5477 31.7242 77.3692 31.0437 77.229 30.4587C76.7447 28.5605 76.4515 26.6981 76.2858 24.6209C76.0946 22.854 76.0819 21.2185 76.0819 19.6426C76.0819 19.3083 76.0777 18.982 76.0692 18.6636C76.0564 16.7893 76.1966 15.1299 76.4898 13.5898C77.0251 10.8201 78.032 8.38473 79.587 6.15226C80.9253 4.24212 82.6205 2.52297 84.7618 0.923225C85.5902 0.30243 86.6864 -0.449675 88.0629 -1.3928L88.1139 -1.4286L88.1394 -1.4525L88.1904 -1.48829C89.1591 -2.15684 90.4846 -3.06416 91.9376 -4.00729C93.3014 -4.89073 94.5888 -5.66674 95.8761 -6.40691C100.668 -9.12886 105.397 -10.9912 109.208 -11.6478C109.731 -11.7314 110.343 -11.8269 110.916 -11.8389C110.967 -11.8389 111.022 -11.8389 111.082 -11.8389C113.58 -11.8389 116.792 -10.9793 120.603 -9.29602ZM110.916 -11.6001C110.406 -11.5882 109.845 -11.5165 109.246 -11.4091C105.308 -10.7286 100.516 -8.77069 96.0035 -6.20394C94.6907 -5.45182 93.3906 -4.66389 92.0778 -3.81627C90.5993 -2.8612 89.261 -1.91807 88.2923 -1.24952C88.2669 -1.2336 88.2414 -1.2177 88.2159 -1.20178C86.8903 -0.306402 85.7687 0.46958 84.9147 1.11425C82.8881 2.63042 81.1675 4.32565 79.8037 6.28354C78.3124 8.43244 77.28 10.8559 76.7447 13.6256C76.4388 15.2134 76.3113 16.8967 76.3241 18.6517C76.3496 20.5021 76.3113 22.472 76.5407 24.597C76.7064 26.734 77.0123 28.5963 77.4712 30.411C77.6369 31.0556 77.8153 31.7003 78.0192 32.345C78.9115 35.1863 80.0968 36.416 81.9959 38.6007C82.9901 39.7348 83.5764 42.4449 85.7559 44.5938C87.3619 46.1816 89.5287 47.4231 92.2945 48.2827C93.6073 48.6886 95.0348 49.0109 96.5643 49.2139C99.0753 49.5601 101.752 49.7631 104.505 49.7631C105.333 49.7631 106.277 49.7631 107.22 49.7631C108.15 49.775 109.055 49.775 109.858 49.775C109.994 49.775 110.122 49.775 110.241 49.775C111.235 49.775 111.974 49.775 112.739 49.7511C122.668 49.5243 131.692 46.8024 136.14 43.5671C137.899 42.2777 140.856 40.7138 141.684 36.8935C141.85 36.1772 141.99 35.4132 142.041 34.6013C142.334 33.9089 143.609 32.5718 144.119 29.9931C144.144 29.8499 144.174 29.7027 144.208 29.5514C144.68 27.1757 145.049 24.0598 145.151 21.2304C145.202 19.4874 145.164 17.816 145.049 16.7177C144.858 14.8673 144.476 12.4676 143.239 9.78151C142.398 7.99076 141.251 6.2716 139.862 4.61217C138.829 3.39445 137.682 2.22452 136.395 1.11425C135.159 0.075613 133.782 -0.903309 132.648 -1.72706C131.743 -2.3956 130.481 -3.33873 129.053 -4.2938C127.651 -5.24887 126.236 -6.13232 124.796 -6.93219C123.381 -7.73206 121.928 -8.44836 120.501 -9.08109C117.123 -10.5734 113.822 -11.6001 111.082 -11.6001C111.022 -11.6001 110.967 -11.6001 110.916 -11.6001Z" fill="#EAEAEA"/>
</g>
<g opacity="0.9">
<path fill-rule="evenodd" clip-rule="evenodd" d="M119.416 -5.42853C120.767 -4.7958 122.042 -4.12725 123.202 -3.4587C124.425 -2.75434 125.687 -1.95448 126.962 -1.08298C128.02 -0.366676 128.976 0.337698 129.74 0.898801C129.885 1.00227 130.017 1.10175 130.135 1.19726C130.288 1.30073 130.441 1.40814 130.594 1.51956C131.512 2.20005 132.557 2.96409 133.462 3.71621C134.495 4.57577 135.476 5.54281 136.381 6.55757C137.655 8.00211 138.624 9.37504 139.325 10.7479C140.472 12.9804 140.829 14.9621 141.02 16.4306C141.161 17.4453 141.212 19.0212 141.173 20.6329C141.11 23.0564 140.804 26.0171 140.396 28.3689C140.379 28.4485 140.362 28.5321 140.345 28.6196C140.336 28.6753 140.328 28.7271 140.319 28.7749C139.962 30.7089 139.134 31.8669 138.65 32.5593C138.509 32.7503 138.407 32.8936 138.344 33.001C138.331 33.6576 138.267 34.3142 138.114 35.126C137.503 38.4688 135.17 39.8895 133.462 40.9281C133.233 41.0594 133.016 41.1908 132.825 41.3101C128.784 43.9246 120.194 45.8467 111.922 46.0019C111.246 46.0138 110.583 46.0258 109.819 46.0258H109.398C108.71 46.0139 107.983 46.0138 107.231 46.0138H107.066C106.25 46.0138 105.421 46.0138 104.695 46.0138C102.375 46.0138 100.017 45.8706 97.6975 45.596C96.372 45.4408 95.0846 45.1901 93.8865 44.832C91.4521 44.1157 89.4892 43.0054 88.0872 41.5131C86.8509 40.2237 86.2646 38.7076 85.844 37.5973C85.589 36.9526 85.3724 36.3915 85.1302 36.105C84.9178 35.8742 84.7223 35.6553 84.5439 35.4484C83.1801 33.9203 82.2879 32.9175 81.5996 30.6014C81.4594 30.1 81.3192 29.5747 81.1663 28.8943C80.8221 27.3184 80.6055 25.7067 80.4907 23.8085C80.3633 22.4117 80.3505 21.0746 80.3505 19.7733C80.3378 19.3913 80.3378 19.0093 80.3378 18.6273C80.3123 17.0753 80.4143 15.6904 80.6564 14.401C81.0898 12.0731 81.9438 10.0435 83.2566 8.19309C84.3655 6.62917 85.8057 5.22049 87.6284 3.88339C88.3294 3.37004 89.3236 2.67758 90.5854 1.81802L90.6364 1.78223L90.6491 1.77028L90.7128 1.72254C91.5796 1.12562 92.7649 0.313775 94.0522 -0.52191C95.2503 -1.30984 96.4229 -2.03805 97.5446 -2.69466C101.942 -5.2614 106.135 -7.01634 109.373 -7.64908C109.844 -7.74458 110.392 -7.84011 110.902 -7.85205C110.953 -7.85205 111.004 -7.85205 111.055 -7.85205C113.196 -7.85205 115.937 -7.05215 119.416 -5.42853ZM110.915 -7.61328C110.915 -7.61328 110.911 -7.61328 110.902 -7.61328C110.456 -7.60135 109.959 -7.51777 109.424 -7.42226C106.033 -6.75371 101.725 -4.85553 97.6848 -2.49174C96.5122 -1.80727 95.3481 -1.08698 94.1924 -0.330885C92.8924 0.516739 91.6943 1.35245 90.8021 1.9613C90.7851 1.97722 90.7638 1.99313 90.7383 2.00905C89.5275 2.83279 88.5078 3.53713 87.7813 4.07436C86.0734 5.32789 84.6204 6.71275 83.4733 8.32442C82.2114 10.0913 81.3447 12.085 80.9114 14.4369C80.6692 15.7501 80.5672 17.1469 80.5927 18.6273C80.6182 20.2986 80.58 21.9938 80.7457 23.7846C80.8604 25.6709 81.0643 27.2825 81.4212 28.8465C81.5486 29.4195 81.6888 29.9687 81.8545 30.5417C82.6065 33.1204 83.6135 34.0158 85.3214 35.9498C86.0606 36.7974 86.3538 39.3403 88.2784 41.3579C89.604 42.7547 91.4776 43.8768 93.963 44.6051C95.1229 44.9394 96.372 45.202 97.723 45.3572C99.928 45.6199 102.273 45.7751 104.695 45.7751C105.421 45.7751 106.25 45.7751 107.066 45.7751C107.881 45.7751 108.672 45.7751 109.398 45.787C109.543 45.787 109.683 45.787 109.819 45.787C110.622 45.787 111.259 45.7751 111.909 45.7631C120.869 45.596 129.052 43.471 132.685 41.1191C134.291 40.0805 137.184 38.7792 137.859 35.0902C137.987 34.4217 138.076 33.7174 138.102 32.9533C138.318 32.428 139.606 31.2461 140.064 28.739C140.09 28.6037 140.115 28.4684 140.141 28.3331C140.523 26.1603 140.842 23.2354 140.918 20.6329C140.957 18.9735 140.893 17.4334 140.765 16.4664C140.574 14.9144 140.179 12.9804 139.096 10.8554C138.369 9.42278 137.375 8.04984 136.177 6.71275C135.323 5.7338 134.354 4.79066 133.284 3.89528C132.251 3.02378 131.04 2.16427 129.983 1.37634C129.154 0.779418 128.045 -0.0562673 126.809 -0.891953C125.573 -1.72764 124.336 -2.52754 123.074 -3.25578C121.825 -3.97208 120.551 -4.62868 119.302 -5.21366C116.294 -6.62239 113.388 -7.61328 111.055 -7.61328C111.013 -7.61328 110.966 -7.61328 110.915 -7.61328Z" fill="#EAEAEA"/>
</g>
<path fill-rule="evenodd" clip-rule="evenodd" d="M118.243 -1.54817C119.391 -0.975128 120.474 -0.378222 121.481 0.230634C122.526 0.851429 123.609 1.55579 124.718 2.31985C125.649 2.96452 126.503 3.59724 127.191 4.09865L127.471 4.30163L127.879 4.60009C128.733 5.23282 129.625 5.8894 130.352 6.48632C131.168 7.14293 131.958 7.88312 132.697 8.64718C133.768 9.76938 134.583 10.808 135.17 11.7989C135.17 11.8069 135.17 11.8108 135.17 11.8108C135.973 13.1599 136.483 14.5567 136.75 16.1683C136.89 17.0279 136.967 18.4724 136.929 20.0364C136.89 22.6747 136.597 25.4325 136.33 27.1397C136.313 27.2431 136.296 27.3426 136.279 27.4381L136.266 27.5098C135.935 29.4677 135.042 30.566 134.609 31.1032C134.532 31.1987 134.443 31.3062 134.405 31.3659C134.431 31.9866 134.392 32.6075 134.29 33.3118C133.819 36.6188 131.423 37.8245 129.842 38.6244C129.664 38.7199 129.498 38.8074 129.345 38.887C126.668 40.3196 119.365 41.9074 111.093 42.0149C110.621 42.0268 110.124 42.0268 109.436 42.0268C109.275 42.0268 109.105 42.0268 108.926 42.0268C108.314 42.0268 107.677 42.0268 107.014 42.0268H106.925C106.224 42.0268 105.523 42.0268 104.886 42.0149C102.898 42.0149 100.884 41.9193 98.8699 41.7403C97.71 41.6448 96.6011 41.4418 95.5687 41.1673C93.4274 40.5703 91.7577 39.6034 90.5851 38.2663C89.489 37.0127 89.1066 35.5921 88.8389 34.5534C88.6987 34.052 88.584 33.6222 88.4438 33.467C88.1889 33.1686 87.9467 32.9178 87.7301 32.6791C86.6594 31.521 85.9584 30.7689 85.4358 28.7991C85.3211 28.3454 85.2191 27.8799 85.1172 27.3307C84.8877 26.0891 84.7603 24.752 84.6966 22.9852C84.6328 21.9943 84.6201 20.9914 84.6201 20.0244C84.6073 19.5588 84.6073 19.0813 84.5946 18.5918C84.5691 17.3741 84.6456 16.24 84.8368 15.2013C85.1681 13.3151 85.8564 11.6914 86.9271 10.235C87.8065 9.02918 88.9791 7.91893 90.4959 6.84447C91.1332 6.39082 92.1018 5.73418 93.1088 5.02982L93.147 5.00598L93.1725 4.99403L93.249 4.93434C94.0647 4.37323 95.0589 3.68081 96.155 2.96451C97.2129 2.26014 98.2453 1.6155 99.2267 1.01858C103.216 -1.39297 106.874 -3.05241 109.538 -3.64933C110.124 -3.78065 110.532 -3.85232 110.902 -3.86426C110.944 -3.86426 110.991 -3.86426 111.042 -3.86426C112.788 -3.86426 115.146 -3.10016 118.243 -1.54817ZM110.902 -3.62549C110.519 -3.61355 110.086 -3.52996 109.602 -3.42252C106.759 -2.77784 102.948 -0.939348 99.3669 1.22149C98.3345 1.84229 97.3149 2.48698 96.3079 3.15553C95.1736 3.90765 94.1284 4.62395 93.3254 5.18505C93.3 5.20097 93.2787 5.21289 93.2617 5.22085C92.1656 5.97296 91.2606 6.59378 90.6488 7.0355C89.2595 8.02638 88.0614 9.10082 87.131 10.3663C86.1241 11.7392 85.4231 13.327 85.0789 15.2491C84.9005 16.2758 84.824 17.398 84.8495 18.5918C84.8878 20.0841 84.8495 21.5167 84.9515 22.9732C85.0025 24.6088 85.1172 25.9697 85.3721 27.2949C85.4613 27.7724 85.5633 28.2499 85.6907 28.7394C86.3025 31.0555 87.131 31.6047 88.635 33.3118C89.1321 33.8729 89.1448 36.2367 90.789 38.123C91.8469 39.3407 93.4274 40.3316 95.6452 40.9285C96.6266 41.2031 97.6972 41.3941 98.8953 41.5015C100.769 41.6806 102.796 41.7761 104.886 41.7761C105.523 41.7881 106.224 41.7881 106.925 41.7881C107.613 41.7881 108.289 41.7881 108.926 41.7881C109.105 41.7881 109.275 41.7881 109.436 41.7881C110.035 41.7881 110.558 41.7881 111.093 41.7761C119.059 41.6806 126.439 40.1764 129.218 38.6841C130.696 37.8842 133.526 36.8336 134.035 33.2879C134.125 32.6791 134.176 32.0225 134.15 31.3062C134.303 30.9599 135.603 29.9213 136.024 27.4739C136.041 27.3546 136.058 27.2312 136.075 27.1039C136.381 25.1579 136.636 22.424 136.674 20.0244C136.712 18.4724 136.636 17.0518 136.495 16.2161C136.291 14.9626 135.896 13.5061 134.953 11.9183C134.329 10.8558 133.487 9.84099 132.506 8.80235C131.805 8.08605 131.04 7.35782 130.186 6.6654C129.345 5.97297 128.3 5.22083 127.306 4.49259C126.566 3.94343 125.623 3.23911 124.565 2.51087C123.507 1.78263 122.437 1.07827 121.341 0.421659C120.283 -0.211073 119.187 -0.808026 118.116 -1.34525C115.478 -2.67041 112.941 -3.62549 111.042 -3.62549C111 -3.62549 110.953 -3.62549 110.902 -3.62549Z" fill="#EAEAEA"/>
<path fill-rule="evenodd" clip-rule="evenodd" d="M117.071 2.31952C117.989 2.83287 118.894 3.35813 119.761 3.9073C120.627 4.45646 121.532 5.06534 122.475 5.72195C123.291 6.30693 124.069 6.87997 124.693 7.33363L124.795 7.41716L125.037 7.58435C125.866 8.20514 126.656 8.79011 127.242 9.24377C127.841 9.7213 128.44 10.2227 129.001 10.7361C129.919 11.5717 130.543 12.2164 131.015 12.8491C131.754 13.8281 132.239 14.8309 132.481 15.9053C132.634 16.5978 132.71 17.8513 132.698 19.4272C132.672 21.8387 132.455 24.4174 132.277 25.8978C132.251 26.0291 132.239 26.1604 132.226 26.2559C131.92 28.2616 130.926 29.2763 130.543 29.6584C130.518 29.6822 130.492 29.7061 130.467 29.73C130.531 30.3269 130.518 30.8999 130.467 31.4969C130.136 34.8874 127.497 35.8543 126.082 36.3796C126.006 36.4035 125.93 36.4314 125.853 36.4632C123.928 37.1795 117.199 37.9913 110.265 38.0391C109.934 38.0391 109.577 38.0391 109.143 38.0391C108.922 38.0391 108.693 38.0391 108.455 38.0391H107.002L106.785 38.0272C106.199 38.0272 105.626 38.0272 105.077 38.0272C103.433 38.0272 101.738 37.9794 100.043 37.8839C99.0487 37.8361 98.1055 37.7048 97.2643 37.4899C95.4161 37.0363 94.0141 36.2006 93.0964 35.0187C92.1023 33.7413 91.9493 32.2729 91.8473 31.4014C91.8218 31.1507 91.7964 30.888 91.7581 30.8045C91.4777 30.4941 91.2228 30.2314 90.9934 30.0046C90.1521 29.1569 89.6423 28.6436 89.2727 26.9842C89.1835 26.6022 89.1197 26.1962 89.056 25.7664C88.9158 24.6562 88.9031 23.522 88.9031 22.173C88.8903 21.6596 88.8903 21.1344 88.8903 20.5852C88.8776 19.9405 88.8776 19.272 88.8521 18.5676C88.8266 17.6484 88.8776 16.7888 89.005 16.0128C89.2472 14.5563 89.7698 13.3267 90.5855 12.2641C91.2483 11.4165 92.1405 10.6286 93.3641 9.80484C93.8994 9.44669 94.7661 8.84981 95.6328 8.24096L95.6711 8.22901L95.6838 8.21706L95.824 8.12157C96.5123 7.64404 97.3662 7.05905 98.2712 6.43825C99.1889 5.8294 100.081 5.25632 100.91 4.73103C103 3.41781 106.926 1.10181 109.704 0.349691C110.201 0.206431 110.571 0.146704 110.89 0.134766C110.932 0.134766 110.974 0.134766 111.017 0.134766C112.381 0.134766 114.369 0.851102 117.071 2.31952ZM110.902 0.373533C110.571 0.385471 110.201 0.457125 109.768 0.576508C107.474 1.1973 104.16 2.97612 101.05 4.93401C100.158 5.49511 99.2781 6.06813 98.4242 6.64117C97.4555 7.28584 96.5633 7.90667 95.8368 8.40808C95.8198 8.41604 95.8028 8.42796 95.7858 8.44388C94.8043 9.11242 94.0141 9.66159 93.517 9.99586C92.4336 10.7241 91.5159 11.4882 90.7894 12.4074C90.0247 13.3983 89.5021 14.5563 89.2599 16.0486C89.1325 16.8127 89.0815 17.6484 89.107 18.5557C89.1452 19.8689 89.1325 21.0508 89.158 22.173C89.158 23.5459 89.1707 24.6562 89.3109 25.7307C89.3619 26.1366 89.4384 26.5305 89.5276 26.9364C89.9865 28.9778 90.6492 29.2047 91.962 30.6612C92.217 30.9477 91.9366 33.1205 93.3003 34.8754C94.1033 35.914 95.3779 36.7736 97.328 37.2631C98.131 37.466 99.0359 37.5974 100.068 37.6451C101.623 37.7287 103.319 37.7884 105.077 37.7884C105.626 37.7884 106.199 37.7884 106.785 37.7884C107.346 37.8003 107.907 37.8003 108.455 37.8003C108.693 37.8003 108.922 37.8003 109.143 37.8003C109.538 37.8003 109.895 37.8003 110.265 37.8003C117.25 37.7525 123.877 36.9408 125.764 36.2364C127.128 35.7231 129.881 34.8873 130.212 31.473C130.263 30.9238 130.276 30.3269 130.212 29.6584C130.289 29.4912 131.601 28.5839 131.971 26.2201C131.988 26.1087 132.005 25.9933 132.022 25.8739C132.226 24.1548 132.417 21.6119 132.443 19.4272C132.455 17.9587 132.379 16.6575 132.226 15.9531C132.009 14.998 131.601 14.031 130.811 12.9924C130.289 12.288 129.613 11.6195 128.823 10.9032C128.3 10.4257 127.714 9.92427 127.077 9.43479C126.439 8.93338 125.573 8.28866 124.642 7.59624C123.979 7.11871 123.189 6.52183 122.322 5.91298C121.443 5.30412 120.538 4.68332 119.62 4.11027C118.728 3.54917 117.823 3.01192 116.931 2.53439C114.662 1.28086 112.508 0.373533 111.017 0.373533C110.974 0.373533 110.936 0.373533 110.902 0.373533Z" fill="#EAEAEA"/>
<path fill-rule="evenodd" clip-rule="evenodd" d="M122.82 11.0463C123.381 11.4642 123.827 11.7864 124.133 12.0133C124.617 12.3595 125.076 12.658 125.484 12.9326C126.848 13.8399 127.842 14.5084 128.199 15.6426C128.67 17.111 128.415 22.3519 128.211 24.6679C128.02 26.8527 126.937 27.8316 126.542 28.1301C126.835 29.9805 126.516 31.4489 125.611 32.4995C124.694 33.562 123.304 33.9918 122.31 34.0395C121.864 34.0515 120.449 34.0634 117.849 34.0634C115.606 34.0634 112.827 34.0515 109.883 34.0515C106.888 34.0396 103.778 34.0395 101.229 34.0395C98.7305 34.0395 96.9206 33.3949 95.8882 32.1533C94.5881 30.6013 94.894 28.6196 95.0087 28.0943C94.7793 27.8674 94.5753 27.7003 94.4097 27.5451C93.7341 26.9482 93.3517 26.6259 93.1096 25.1694C92.9439 24.2143 92.9949 23.3547 93.0586 22.2803C93.1223 21.3252 93.186 20.1433 93.1223 18.5316C92.9694 15.0456 94.3204 13.9354 96.245 12.7535C96.6656 12.5028 97.4941 11.9297 98.5393 11.2015C102.299 8.59893 108.608 4.22952 110.877 4.12207C110.911 4.12207 110.949 4.12207 110.992 4.12207C113.554 4.12207 119.583 8.62283 122.82 11.0463ZM110.89 4.36084C108.06 4.49216 98.2971 11.7865 96.3852 12.9565C94.4734 14.1264 93.2243 15.1531 93.3772 18.5316C93.5174 21.8983 93.0586 23.3428 93.3645 25.1336C93.6704 26.9124 94.1037 26.8527 95.2764 28.0226C95.2764 28.0226 93.7341 33.8008 101.229 33.8008C106.225 33.8008 113.273 33.8247 117.849 33.8247C120.143 33.8247 121.813 33.8127 122.297 33.8008C123.776 33.7292 127.077 32.6905 126.261 28.0226C126.261 28.0226 127.74 27.1989 127.956 24.6441C128.173 22.1012 128.39 17.0871 127.956 15.7023C127.51 14.3294 126.096 13.7085 123.98 12.2043C121.89 10.7001 113.898 4.36084 110.992 4.36084C110.958 4.36084 110.924 4.36084 110.89 4.36084Z" fill="#EAEAEA"/>
</g>
</g>
</g>
<path d="M27.3962 21.792C27.7055 21.792 27.9669 21.8987 28.1802 22.112C28.4042 22.3253 28.5162 22.5867 28.5162 22.896C28.5162 23.2053 28.4042 23.4667 28.1802 23.68C27.9669 23.8933 27.7055 24 27.3962 24H26.4682C26.2335 24 26.0362 23.936 25.8762 23.808V25.44C25.8762 25.8987 25.7162 26.288 25.3962 26.608C25.0869 26.9387 24.7029 27.104 24.2442 27.104H20.5962C19.7855 27.104 19.0442 26.9013 18.3722 26.496C17.7002 26.1013 17.1669 25.5627 16.7722 24.88C16.3775 24.208 16.1802 23.472 16.1802 22.672V19.808H18.3722V22.672C18.3722 23.0667 18.4682 23.4347 18.6602 23.776C18.8629 24.1173 19.1349 24.3893 19.4762 24.592C19.8175 24.7947 20.1909 24.896 20.5962 24.896H23.0442C23.2255 24.896 23.3749 24.8373 23.4922 24.72C23.6095 24.6027 23.6682 24.4533 23.6682 24.272V16.176H25.8762V21.264C25.8975 21.4133 25.9615 21.5413 26.0682 21.648C26.1855 21.744 26.3189 21.792 26.4682 21.792H27.3962ZM20.7082 16.304C21.0602 16.304 21.3589 16.4267 21.6042 16.672C21.8602 16.9173 21.9882 17.2107 21.9882 17.552C21.9882 17.8933 21.8602 18.192 21.6042 18.448C21.3589 18.6933 21.0602 18.816 20.7082 18.816C20.3669 18.816 20.0735 18.6933 19.8282 18.448C19.5829 18.192 19.4602 17.8933 19.4602 17.552C19.4602 17.2107 19.5829 16.9173 19.8282 16.672C20.0735 16.4267 20.3669 16.304 20.7082 16.304ZM34.3268 21.792C34.6361 21.792 34.8975 21.8987 35.1108 22.112C35.3348 22.3253 35.4468 22.5813 35.4468 22.88C35.4468 23.2 35.3348 23.4667 35.1108 23.68C34.8975 23.8933 34.6361 24 34.3268 24H33.0468C32.6521 24 32.2681 23.9307 31.8948 23.792C31.5321 23.6427 31.2068 23.44 30.9188 23.184C30.3428 23.728 29.6761 24 28.9188 24H27.3988C27.0681 24 26.7961 23.8987 26.5828 23.696C26.3588 23.4827 26.2468 23.216 26.2468 22.896C26.2468 22.576 26.3588 22.3147 26.5828 22.112C26.7961 21.8987 27.0681 21.792 27.3988 21.792H28.6628C28.9401 21.792 29.1748 21.6907 29.3668 21.488C29.5695 21.2853 29.6708 21.0453 29.6708 20.768V17.44H31.8948V20.784C31.9481 21.0613 32.0815 21.3013 32.2948 21.504C32.5188 21.696 32.7695 21.792 33.0468 21.792H34.3268ZM29.0788 25.2C29.4201 25.2 29.7135 25.3227 29.9588 25.568C30.2148 25.8133 30.3428 26.1067 30.3428 26.448C30.3428 26.8 30.2148 27.0987 29.9588 27.344C29.7135 27.5893 29.4201 27.712 29.0788 27.712C28.7268 27.712 28.4281 27.5893 28.1828 27.344C27.9375 27.0987 27.8148 26.8 27.8148 26.448C27.8148 26.1067 27.9375 25.8133 28.1828 25.568C28.4281 25.3227 28.7268 25.2 29.0788 25.2ZM32.2948 25.2C32.6361 25.2 32.9295 25.3227 33.1748 25.568C33.4308 25.8133 33.5588 26.1067 33.5588 26.448C33.5588 26.8 33.4308 27.0987 33.1748 27.344C32.9295 27.5893 32.6361 27.712 32.2948 27.712C31.9428 27.712 31.6441 27.5893 31.3988 27.344C31.1535 27.0987 31.0308 26.8 31.0308 26.448C31.0308 26.1067 31.1535 25.8133 31.3988 25.568C31.6441 25.3227 31.9428 25.2 32.2948 25.2ZM34.2731 24C33.9637 24 33.7024 23.8933 33.4891 23.68C33.2651 23.456 33.1531 23.1947 33.1531 22.896C33.1531 22.5973 33.2651 22.3413 33.4891 22.128C33.7024 21.904 33.9637 21.792 34.2731 21.792H40.8491C40.7531 21.728 40.6731 21.6427 40.6091 21.536C40.5451 21.4293 40.5131 21.312 40.5131 21.184V20.96C40.5131 20.0107 40.2251 19.3227 39.6491 18.896C39.1904 18.5227 38.5824 18.336 37.8251 18.336C37.1851 18.336 36.4757 18.4747 35.6971 18.752L34.8971 16.768C35.8571 16.352 36.8224 16.144 37.7931 16.144C39.0304 16.144 40.0971 16.4747 40.9931 17.136C41.4624 17.488 41.8571 17.968 42.1771 18.576C42.5077 19.184 42.6731 19.9413 42.6731 20.848V21.168C42.6731 21.36 42.7211 21.5147 42.8171 21.632C42.9131 21.7387 43.0464 21.792 43.2171 21.792H44.4331V24H34.2731ZM39.1691 25.184C39.5104 25.184 39.8037 25.3067 40.0491 25.552C40.3051 25.7973 40.4331 26.0907 40.4331 26.432C40.4331 26.7733 40.3051 27.0667 40.0491 27.312C39.8037 27.568 39.5104 27.696 39.1691 27.696C38.8171 27.696 38.5184 27.568 38.2731 27.312C38.0277 27.0667 37.9051 26.7733 37.9051 26.432C37.9051 26.0907 38.0277 25.7973 38.2731 25.552C38.5184 25.3067 38.8171 25.184 39.1691 25.184ZM50.1656 13.904C51.2216 14.096 52.1762 14.5067 53.0296 15.136C53.8829 15.7653 54.5549 16.576 55.0456 17.568C55.5362 18.56 55.7816 19.664 55.7816 20.88V21.872C55.7816 22.256 55.6856 22.6133 55.4936 22.944C55.3016 23.264 55.0402 23.52 54.7096 23.712C54.3896 23.904 54.0429 24 53.6696 24H43.9416V21.792H45.7016C45.5522 21.568 45.4296 21.296 45.3336 20.976C45.2376 20.656 45.1896 20.3467 45.1896 20.048C45.1896 19.408 45.3549 18.8427 45.6856 18.352C46.0269 17.8507 46.4802 17.4613 47.0456 17.184C47.6216 16.9067 48.2456 16.768 48.9176 16.768C49.6216 16.768 50.2616 16.944 50.8376 17.296C51.4242 17.648 51.8829 18.128 52.2136 18.736C52.5442 19.344 52.7096 20.0053 52.7096 20.72V21.024C52.7096 21.2907 52.6776 21.5467 52.6136 21.792H53.2696C53.3549 21.792 53.4296 21.7653 53.4936 21.712C53.5576 21.648 53.5896 21.5733 53.5896 21.488V20.88C53.5896 20.048 53.4296 19.2907 53.1096 18.608C52.8002 17.9253 52.3629 17.3653 51.7976 16.928C51.2322 16.48 50.5762 16.192 49.8296 16.064C49.2002 15.9573 48.4002 15.904 47.4296 15.904V13.728H47.8296C48.4802 13.7387 48.9176 13.7547 49.1416 13.776C49.3656 13.7867 49.7069 13.8293 50.1656 13.904ZM48.9176 18.976C48.5336 18.976 48.1816 19.104 47.8616 19.36C47.5522 19.6053 47.3976 19.936 47.3976 20.352C47.3976 20.6293 47.4616 20.88 47.5896 21.104C47.7176 21.3173 47.8776 21.488 48.0696 21.616C48.2722 21.7333 48.4696 21.792 48.6616 21.792H50.0856C50.2029 21.792 50.3042 21.7547 50.3896 21.68C50.4749 21.5947 50.5176 21.4933 50.5176 21.376V20.512C50.5176 20.288 50.4482 20.0587 50.3096 19.824C50.1709 19.5787 49.9789 19.376 49.7336 19.216C49.4882 19.056 49.2162 18.976 48.9176 18.976ZM60.4253 21.792H64.9853C65.2413 21.792 65.4546 21.6853 65.6253 21.472C65.7426 21.3333 65.8013 21.1733 65.8013 20.992C65.8013 20.96 65.7906 20.9013 65.7693 20.816L64.4573 16.128L66.5693 15.52L67.9133 20.224C67.9666 20.512 67.9933 20.7627 67.9933 20.976C67.9933 21.6693 67.7746 22.2987 67.3373 22.864C67.0493 23.216 66.6973 23.4933 66.2813 23.696C65.876 23.8987 65.444 24 64.9853 24H60.4253V21.792ZM70.0389 12.8H72.2469V24H70.0389V12.8ZM76.8507 12.208C77.192 12.208 77.4854 12.3307 77.7307 12.576C77.9867 12.8213 78.1147 13.1147 78.1147 13.456C78.1147 13.808 77.9867 14.1067 77.7307 14.352C77.4854 14.5973 77.192 14.72 76.8507 14.72C76.4987 14.72 76.2 14.5973 75.9547 14.352C75.7094 14.1067 75.5867 13.808 75.5867 13.456C75.5867 13.1147 75.7094 12.8213 75.9547 12.576C76.2 12.3307 76.4987 12.208 76.8507 12.208ZM79.6187 21.792C79.928 21.792 80.1894 21.8987 80.4027 22.112C80.6267 22.3253 80.7387 22.5867 80.7387 22.896C80.7387 23.2053 80.6267 23.4667 80.4027 23.68C80.1894 23.8933 79.928 24 79.6187 24H79.1867C78.7174 24 78.312 23.8933 77.9707 23.68L77.9547 24.032C77.8587 25.0667 77.48 25.904 76.8187 26.544C76.168 27.184 75.2774 27.6107 74.1467 27.824L73.3307 25.728C73.96 25.6107 74.4454 25.472 74.7867 25.312C75.128 25.1627 75.3787 24.944 75.5387 24.656C75.6987 24.3787 75.7787 24 75.7787 23.52V16.128H77.9707V20.576C77.9707 20.9067 78.088 21.1947 78.3227 21.44C78.568 21.6747 78.856 21.792 79.1867 21.792H79.6187ZM78.7521 22.112C78.9654 21.8987 79.2267 21.792 79.5361 21.792H80.0161C80.2507 21.792 80.4161 21.7387 80.5121 21.632C80.6081 21.5253 80.6561 21.36 80.6561 21.136V16.112H84.6561C85.3921 16.112 86.0587 16.288 86.6561 16.64C87.2534 16.992 87.7227 17.472 88.0641 18.08C88.4054 18.688 88.5761 19.3653 88.5761 20.112V20.304C88.5654 20.976 88.3787 21.5947 88.0161 22.16C87.6534 22.7253 87.1734 23.1733 86.5761 23.504C85.9787 23.8347 85.3387 24 84.6561 24C84.1761 24 83.7174 23.9147 83.2801 23.744C82.8427 23.5627 82.4534 23.3173 82.1121 23.008C81.8454 23.3173 81.5254 23.5627 81.1521 23.744C80.7894 23.9147 80.4107 24 80.0161 24H79.5201C79.2107 23.9893 78.9494 23.8773 78.7361 23.664C78.5227 23.44 78.4161 23.1787 78.4161 22.88C78.4267 22.5707 78.5387 22.3147 78.7521 22.112ZM83.4241 21.376C83.7654 21.6533 84.1761 21.792 84.6561 21.792C85.1147 21.7813 85.5147 21.6213 85.8561 21.312C86.1974 21.0027 86.3734 20.6293 86.3841 20.192V20.016C86.3841 19.5253 86.2081 19.12 85.8561 18.8C85.5147 18.48 85.0881 18.32 84.5761 18.32H82.8961V20.256C82.9067 20.7147 83.0827 21.088 83.4241 21.376Z" fill="#EAEAEA"/>
</g>
<g filter="url(#filter0_d_7489_7113)">
<rect x="104" y="14" width="13" height="13" rx="6.5" fill="#00DB81" shape-rendering="crispEdges"/>
<rect x="103" y="13" width="15" height="15" rx="7.5" stroke="#00DB81" stroke-opacity="0.2" stroke-width="2" shape-rendering="crispEdges"/>
</g>
<defs>
<filter id="filter0_d_7489_7113" x="98.9" y="8.9" width="23.2" height="23.2" filterUnits="userSpaceOnUse" color-interpolation-filters="sRGB">
<feFlood flood-opacity="0" result="BackgroundImageFix"/>
<feColorMatrix in="SourceAlpha" type="matrix" values="0 0 0 0 0 0 0 0 0 0 0 0 0 0 0 0 0 0 127 0" result="hardAlpha"/>
<feMorphology radius="2" operator="dilate" in="SourceAlpha" result="effect1_dropShadow_7489_7113"/>
<feOffset/>
<feGaussianBlur stdDeviation="0.55"/>
<feComposite in2="hardAlpha" operator="out"/>
<feColorMatrix type="matrix" values="0 0 0 0 0 0 0 0 0 0.858824 0 0 0 0 0.505882 0 0 0 0.25 0"/>
<feBlend mode="normal" in2="BackgroundImageFix" result="effect1_dropShadow_7489_7113"/>
<feBlend mode="normal" in="SourceGraphic" in2="effect1_dropShadow_7489_7113" result="shape"/>
</filter>
<clipPath id="clip0_7489_7113">
<rect width="138" height="40" rx="12" fill="white"/>
</clipPath>
<clipPath id="clip1_7489_7113">
<rect width="102.072" height="94" fill="white" transform="translate(60 -27)"/>
</clipPath>
</defs>
</svg>
