<svg width="88" height="36" viewBox="0 0 88 36" fill="none" xmlns="http://www.w3.org/2000/svg">
<rect width="88" height="36" rx="8" fill="white"/>
<path d="M18.5797 20.306C19.0557 20.306 19.4477 20.698 19.4477 21.16C19.4477 21.636 19.0557 22 18.5797 22H17.8237C17.5437 22 17.2637 21.874 17.1237 21.678V23.4C17.1237 24.128 16.5497 24.716 15.8217 24.716H12.5877C10.5157 24.716 8.84973 23.036 8.84973 20.964V18.584H10.5297V20.964C10.5297 22.098 11.4537 23.036 12.5877 23.036H14.9117C15.2057 23.036 15.4437 22.798 15.4437 22.518V15.308H17.1237V19.648C17.1517 20.012 17.4457 20.306 17.8237 20.306H18.5797ZM12.7977 15.308C13.3437 15.308 13.7917 15.756 13.7917 16.288C13.7917 16.834 13.3437 17.282 12.7977 17.282C12.2517 17.282 11.8037 16.834 11.8037 16.288C11.8037 15.756 12.2517 15.308 12.7977 15.308ZM24.4073 20.306C24.8693 20.306 25.2473 20.67 25.2473 21.146C25.2473 21.622 24.8553 22 24.3933 22H23.3433C22.6293 22 21.9853 21.692 21.5233 21.244C21.1033 21.692 20.4873 22 19.8013 22H18.5833C18.0653 22 17.6873 21.636 17.6873 21.146C17.6873 20.67 18.0653 20.306 18.5833 20.306H19.6193C20.1373 20.306 20.5713 19.872 20.5713 19.34V16.386H22.2793V19.354C22.3353 19.886 22.7973 20.306 23.3433 20.306H24.4073ZM20.0253 23.162C20.5853 23.162 21.0333 23.61 21.0333 24.142C21.0333 24.702 20.5853 25.136 20.0253 25.136C19.4933 25.136 19.0453 24.702 19.0453 24.142C19.0453 23.61 19.4933 23.162 20.0253 23.162ZM22.6433 23.162C23.1893 23.162 23.6373 23.61 23.6373 24.142C23.6373 24.702 23.1893 25.136 22.6433 25.136C22.0973 25.136 21.6493 24.702 21.6493 24.142C21.6493 23.61 22.0973 23.162 22.6433 23.162ZM33.2839 22H24.3659C23.9039 22 23.4979 21.622 23.4979 21.146C23.4979 20.684 23.9039 20.306 24.3659 20.306H30.3019C30.1059 20.18 29.9379 19.942 29.9379 19.648V19.368C29.9379 18.458 29.6579 17.814 29.1399 17.422C28.1459 16.666 26.6339 16.876 25.5559 17.24L24.9399 15.714C26.5639 15.014 28.6779 14.986 30.1479 16.092C30.8619 16.61 31.5899 17.59 31.5899 19.27V19.634C31.5899 20.04 31.8139 20.306 32.1919 20.306H33.2839V22ZM28.6639 23.12C29.2099 23.12 29.6579 23.568 29.6579 24.1C29.6579 24.646 29.2099 25.094 28.6639 25.094C28.1179 25.094 27.6699 24.646 27.6699 24.1C27.6699 23.568 28.1179 23.12 28.6639 23.12ZM38.3688 13.474C40.9728 13.992 42.9748 16.246 42.9748 19.312V20.32C42.9748 21.244 42.2328 22 41.3088 22H32.8668V20.32H34.5328C34.1688 19.914 33.9308 19.284 33.9308 18.668C33.9308 17.002 35.3728 15.868 37.0808 15.868C38.9008 15.868 40.2868 17.352 40.2868 19.172V19.704C40.2868 19.928 40.2588 20.124 40.2028 20.32H41.0148C41.1828 20.32 41.2948 20.194 41.2948 20.026V19.312C41.2948 17.142 40.0068 15.504 38.1028 15.14C37.4308 15 36.6048 14.944 35.9328 14.944L35.9468 13.278C37.2908 13.292 37.4728 13.32 38.3688 13.474ZM37.0808 17.548C36.3948 17.548 35.6248 18.066 35.6248 18.906C35.6248 19.746 36.2828 20.32 36.8988 20.32H38.2568C38.4388 20.32 38.6208 20.166 38.6208 19.97V19.018C38.6208 18.36 37.9768 17.562 37.0808 17.548Z" fill="#202726"/>
<g clip-path="url(#clip0_9448_53565)">
<path d="M66.9331 23.42H68.3853C68.5275 23.42 68.6426 23.3048 68.6426 23.1626V12.4395H66.6758V23.1626C66.6758 23.3048 66.7909 23.42 66.9331 23.42Z" fill="#0E8340"/>
<path d="M67.6597 12.4395V23.1628C67.6597 23.3048 67.5444 23.4201 67.4023 23.4201H68.3858C68.528 23.4201 68.6432 23.3048 68.6432 23.1628V12.4395H67.6597Z" fill="url(#paint0_linear_9448_53565)"/>
<path d="M67.6602 14.7746C70.6094 14.7746 73.0001 12.3838 73.0001 9.43464C73.0001 6.48549 70.6094 4.09473 67.6602 4.09473C64.7111 4.09473 62.3203 6.48549 62.3203 9.43464C62.3203 12.3838 64.7111 14.7746 67.6602 14.7746Z" fill="#00DB81"/>
<path d="M67.1994 12.5339C66.9381 12.5339 66.687 12.43 66.5021 12.245L64.5741 10.3173C64.1888 9.93244 64.1888 9.30808 64.5741 8.92282C64.9594 8.53756 65.5833 8.53756 65.9686 8.92282L67.1994 10.153L69.6931 7.65907C70.0783 7.2738 70.7023 7.2738 71.0876 7.65907C71.4728 8.04394 71.4728 8.66829 71.0876 9.05356L67.8967 12.245C67.7117 12.43 67.4613 12.5339 67.1994 12.5339Z" fill="white"/>
<path d="M67.1994 12.115C66.9381 12.115 66.687 12.011 66.5021 11.8261L64.5741 9.89837C64.1888 9.51349 64.1888 8.88914 64.5741 8.50388C64.9594 8.11861 65.5833 8.11861 65.9686 8.50388L67.1994 9.73404L69.6931 7.24012C70.0783 6.85486 70.7023 6.85486 71.0876 7.24012C71.4728 7.625 71.4728 8.24935 71.0876 8.63461L67.8967 11.8261C67.7117 12.011 67.4613 12.115 67.1994 12.115Z" fill="#EAEAEA"/>
<path d="M71.0859 7.3043L67.8951 10.4958C67.7102 10.6807 67.4598 10.7847 67.1978 10.7847C66.9364 10.7847 66.6854 10.6807 66.5005 10.4958L64.5725 8.56805C64.5623 8.55789 64.5554 8.54579 64.5457 8.53524C64.1906 8.9223 64.1975 9.52221 64.5725 9.89692L66.5005 11.8247C66.6854 12.0096 66.9364 12.1135 67.1978 12.1135C67.4598 12.1135 67.7101 12.0096 67.8951 11.8247L71.0859 8.63316C71.461 8.25819 71.4679 7.65816 71.1127 7.27148C71.1031 7.28191 71.0961 7.294 71.0859 7.3043Z" fill="white"/>
</g>
<path d="M68 22.5811C69.1046 22.5811 70 21.6856 70 20.5811C70 19.4765 69.1046 18.5811 68 18.5811C66.8954 18.5811 66 19.4765 66 20.5811C66 21.6856 66.8954 22.5811 68 22.5811Z" fill="#00DB81"/>
<g opacity="0.4">
<path d="M61.4669 12.9731C61.7595 13.2663 61.759 13.7412 61.4658 14.0338C59.7872 15.7091 58.75 18.0232 58.75 20.5811C58.75 23.1688 59.8116 25.5073 61.525 27.1869C61.8208 27.4769 61.8255 27.9518 61.5356 28.2476C61.2456 28.5433 60.7708 28.5481 60.475 28.2581C58.4856 26.3079 57.25 23.5881 57.25 20.5811C57.25 17.6089 58.4572 14.9172 60.4062 12.9721C60.6994 12.6795 61.1743 12.6799 61.4669 12.9731Z" fill="#00DB81"/>
<path d="M74.6164 13.0455C74.9122 12.7555 75.387 12.7603 75.677 13.0561C77.5771 14.9943 78.75 17.6515 78.75 20.5811C78.75 23.5455 77.5491 26.2309 75.609 28.1749C75.3164 28.468 74.8415 28.4685 74.5484 28.1759C74.2552 27.8833 74.2547 27.4084 74.5473 27.1153C76.2182 25.441 77.25 23.1323 77.25 20.5811C77.25 18.0598 76.2422 15.7754 74.6059 14.1061C74.3159 13.8103 74.3206 13.3355 74.6164 13.0455Z" fill="#00DB81"/>
</g>
<g opacity="0.8">
<path d="M64.3092 16.0686C64.5923 16.371 64.5765 16.8456 64.2741 17.1287C63.3252 18.0167 62.75 19.2313 62.75 20.5633C62.75 21.9107 63.3387 23.1383 64.3076 24.0289C64.6125 24.3092 64.6325 24.7837 64.3522 25.0886C64.0718 25.3936 63.5974 25.4135 63.2924 25.1332C62.0397 23.9817 61.25 22.3634 61.25 20.5633C61.25 18.784 62.0215 17.1823 63.2492 16.0334C63.5516 15.7504 64.0262 15.7662 64.3092 16.0686Z" fill="#00DB81"/>
<path d="M71.7429 16.1066C72.0292 15.8073 72.5039 15.7967 72.8033 16.083C74.0005 17.2282 74.75 18.8096 74.75 20.5633C74.75 22.3378 73.9825 23.9359 72.7604 25.0841C72.4586 25.3677 71.9839 25.3529 71.7003 25.051C71.4167 24.7492 71.4315 24.2745 71.7333 23.9909C72.6778 23.1035 73.25 21.8918 73.25 20.5633C73.25 19.2502 72.6911 18.0515 71.7664 17.167C71.4671 16.8807 71.4566 16.4059 71.7429 16.1066Z" fill="#00DB81"/>
</g>
<defs>
<linearGradient id="paint0_linear_9448_53565" x1="68.6432" y1="17.9298" x2="67.4023" y2="17.9298" gradientUnits="userSpaceOnUse">
<stop stop-color="#023936"/>
<stop offset="1" stop-color="#008079"/>
</linearGradient>
<clipPath id="clip0_9448_53565">
<rect width="14" height="16" fill="white" transform="translate(59 3.41895)"/>
</clipPath>
</defs>
</svg>
