<svg width="24" height="25" viewBox="0 0 24 25" fill="none" xmlns="http://www.w3.org/2000/svg">
<path fill-rule="evenodd" clip-rule="evenodd" d="M2.69241 8.21932C3.07014 8.04934 3.51415 8.21776 3.68413 8.59549C7.01879 16.0059 16.9816 16.0059 20.3162 8.59549C20.4862 8.21776 20.9302 8.04934 21.308 8.21932C21.6857 8.3893 21.8541 8.8333 21.6841 9.21103C20.8177 11.1365 19.5607 12.6303 18.0883 13.6926L20.1063 16.4615C20.3503 16.7962 20.2767 17.2653 19.9419 17.5093C19.6072 17.7533 19.138 17.6797 18.8941 17.3449L16.8074 14.4819C15.5328 15.1446 14.1497 15.5261 12.7502 15.6264V18.4033C12.7502 18.8175 12.4144 19.1533 12.0002 19.1533C11.586 19.1533 11.2502 18.8175 11.2502 18.4033V15.6264C9.85065 15.5261 8.46755 15.1446 7.19293 14.4819L5.10628 17.3449C4.86232 17.6797 4.39318 17.7533 4.05843 17.5093C3.72369 17.2653 3.6501 16.7962 3.89407 16.4615L5.91208 13.6926C4.43967 12.6303 3.1827 11.1365 2.31624 9.21103C2.14627 8.8333 2.31468 8.3893 2.69241 8.21932Z" fill="#292927"/>
</svg>
