<svg width="49" height="48" viewBox="0 0 49 48" fill="none" xmlns="http://www.w3.org/2000/svg">
<g id="Add Button" clip-path="url(#clip0_6431_51208)">
<path id="Vector" fill-rule="evenodd" clip-rule="evenodd" d="M24.5 48C37.7548 48 48.5 37.2548 48.5 24C48.5 10.7452 37.7548 0 24.5 0C11.2452 0 0.5 10.7452 0.5 24C0.5 37.2548 11.2452 48 24.5 48ZM26.3 16.8C26.3 15.8059 25.4941 15 24.5 15C23.5059 15 22.7 15.8059 22.7 16.8L22.7 22.2001H17.3C16.3059 22.2001 15.5 23.0059 15.5 24.0001C15.5 24.9942 16.3059 25.8001 17.3 25.8001H22.7V31.2C22.7 32.1941 23.5059 33 24.5 33C25.4941 33 26.3 32.1941 26.3 31.2L26.3 25.8001H31.7C32.6941 25.8001 33.5 24.9942 33.5 24.0001C33.5 23.0059 32.6941 22.2001 31.7 22.2001H26.3V16.8Z" fill="#00DB81"/>
</g>
<defs>
<clipPath id="clip0_6431_51208">
<rect width="49" height="48" fill="white"/>
</clipPath>
</defs>
</svg>
