<svg width="32" height="32" viewBox="0 0 32 32" fill="none" xmlns="http://www.w3.org/2000/svg">
<g id="Icon / Instagram">
<rect width="32" height="32" rx="16" fill="#023936"/>
<path id="Vector" fill-rule="evenodd" clip-rule="evenodd" d="M20.1475 6.6665H11.8512C8.98751 6.6665 6.66602 8.98799 6.66602 11.8517V20.148C6.66602 23.0117 8.98751 25.3332 11.8512 25.3332H20.1475C23.0112 25.3332 25.3327 23.0117 25.3327 20.148V11.8517C25.3327 8.98799 23.0112 6.6665 20.1475 6.6665ZM23.5179 20.148C23.5122 22.007 22.0065 23.5127 20.1475 23.5184H11.8512C9.99216 23.5127 8.48652 22.007 8.48083 20.148V11.8517C8.48652 9.99264 9.99216 8.48701 11.8512 8.48132H20.1475C22.0065 8.48701 23.5122 9.99264 23.5179 11.8517V20.148ZM20.9253 12.1109C21.498 12.1109 21.9623 11.6466 21.9623 11.0739C21.9623 10.5012 21.498 10.0369 20.9253 10.0369C20.3525 10.0369 19.8882 10.5012 19.8882 11.0739C19.8882 11.6466 20.3525 12.1109 20.9253 12.1109ZM15.9993 11.3332C13.422 11.3332 11.3327 13.4225 11.3327 15.9998C11.3327 18.5772 13.422 20.6665 15.9993 20.6665C18.5767 20.6665 20.666 18.5772 20.666 15.9998C20.6688 14.7613 20.178 13.5727 19.3022 12.697C18.4264 11.8212 17.2379 11.3304 15.9993 11.3332ZM13.1475 15.9998C13.1475 17.5749 14.4243 18.8517 15.9993 18.8517C17.5744 18.8517 18.8512 17.5749 18.8512 15.9998C18.8512 14.4248 17.5744 13.148 15.9993 13.148C14.4243 13.148 13.1475 14.4248 13.1475 15.9998Z" fill="#F8FAFC"/>
</g>
</svg>
