<svg width="32" height="32" viewBox="0 0 32 32" fill="none" xmlns="http://www.w3.org/2000/svg">
<g id="Icon / Instagram">
<rect width="32" height="32" rx="16" fill="#023936"/>
<g id="linked_in">
<path d="M13.1361 11.4665C13.1361 12.2765 12.434 12.9331 11.568 12.9331C10.702 12.9331 10 12.2765 10 11.4665C10 10.6566 10.702 10 11.568 10C12.434 10 13.1361 10.6566 13.1361 11.4665Z" fill="white"/>
<path d="M10.2144 14.011H12.8948V22.1333H10.2144V14.011Z" fill="white"/>
<path d="M17.2103 14.011H14.5299V22.1333H17.2103C17.2103 22.1333 17.2103 19.5763 17.2103 17.9775C17.2103 17.0179 17.538 16.0541 18.8454 16.0541C20.3229 16.0541 20.314 17.3099 20.3071 18.2828C20.2981 19.5545 20.3196 20.8523 20.3196 22.1333H23V17.8466C22.9773 15.1093 22.264 13.8481 19.9175 13.8481C18.524 13.8481 17.6602 14.4807 17.2103 15.0531V14.011Z" fill="white"/>
</g>
</g>
</svg>
