<svg width="24" height="25" viewBox="0 0 24 25" fill="none" xmlns="http://www.w3.org/2000/svg">
<path d="M2 16.9033C2 14.0749 2 12.6607 2.87868 11.782C3.75736 10.9033 5.17157 10.9033 8 10.9033H16C18.8284 10.9033 20.2426 10.9033 21.1213 11.782C22 12.6607 22 14.0749 22 16.9033C22 19.7317 22 21.146 21.1213 22.0246C20.2426 22.9033 18.8284 22.9033 16 22.9033H8C5.17157 22.9033 3.75736 22.9033 2.87868 22.0246C2 21.146 2 19.7317 2 16.9033Z" stroke="#6B778C" stroke-width="1.5"/>
<circle cx="12" cy="16.9033" r="2" stroke="#6B778C" stroke-width="1.5"/>
<path d="M6 10.9033V8.90332C6 5.58961 8.68629 2.90332 12 2.90332C15.3137 2.90332 18 5.58961 18 8.90332V10.9033" stroke="#6B778C" stroke-width="1.5" stroke-linecap="round"/>
</svg>
