<svg width="20" height="20" viewBox="0 0 20 20" fill="none" xmlns="http://www.w3.org/2000/svg">
<g id="Bold / Map &#38; Location / Map Point">
<path id="Vector" fill-rule="evenodd" clip-rule="evenodd" d="M10.0002 1.66699C6.31826 1.66699 3.3335 5.00248 3.3335 8.75033C3.3335 12.4688 5.46127 16.5107 8.78105 18.0624C9.55495 18.4241 10.4454 18.4241 11.2193 18.0624C14.5391 16.5107 16.6668 12.4688 16.6668 8.75033C16.6668 5.00248 13.6821 1.66699 10.0002 1.66699ZM10.0002 10.0003C10.9206 10.0003 11.6668 9.25413 11.6668 8.33366C11.6668 7.41318 10.9206 6.66699 10.0002 6.66699C9.07969 6.66699 8.3335 7.41318 8.3335 8.33366C8.3335 9.25413 9.07969 10.0003 10.0002 10.0003Z" fill="#6B778C"/>
</g>
</svg>
