<svg width="32" height="32" viewBox="0 0 32 32" fill="none" xmlns="http://www.w3.org/2000/svg">
<g id="Bold Duotone / Map &#38; Location / Map Point">
<path id="Vector" opacity="0.5" d="M15.9999 2.66675C10.1089 2.66675 5.33325 8.00353 5.33325 14.0001C5.33325 19.9496 8.73768 26.4166 14.0493 28.8993C15.2876 29.4781 16.7123 29.4781 17.9505 28.8993C23.2622 26.4166 26.6666 19.9496 26.6666 14.0001C26.6666 8.00353 21.891 2.66675 15.9999 2.66675Z" fill="#1C274C"/>
<path id="Vector_2" d="M16.0001 16.6667C17.841 16.6667 19.3334 15.1743 19.3334 13.3333C19.3334 11.4924 17.841 10 16.0001 10C14.1591 10 12.6667 11.4924 12.6667 13.3333C12.6667 15.1743 14.1591 16.6667 16.0001 16.6667Z" fill="#1C274C"/>
</g>
</svg>
