<svg width="27" height="26" viewBox="0 0 27 26" fill="none" xmlns="http://www.w3.org/2000/svg">
<g id="auction-business-management-svgrepo-com 1">
<g id="auction">
<path id="Vector" d="M16.4792 19.7596C16.211 19.0435 15.7297 18.4269 15.1001 17.993C14.4705 17.559 13.723 17.3287 12.9584 17.3329H8.62503C8.12394 17.3221 7.62582 17.4124 7.16047 17.5986C6.69511 17.7847 6.27208 18.0628 5.9167 18.4162C5.54834 18.7887 5.26392 19.2356 5.08253 19.7271C4.36504 20.0048 3.74935 20.4948 3.31768 21.1317C2.88602 21.7685 2.65891 22.5219 2.6667 23.2912C2.6667 23.4349 2.72377 23.5727 2.82535 23.6743C2.92693 23.7758 3.06471 23.8329 3.20836 23.8329H18.375C18.5187 23.8329 18.6565 23.7758 18.758 23.6743C18.8596 23.5727 18.9167 23.4349 18.9167 23.2912C18.9132 22.5256 18.6786 21.7788 18.2437 21.1487C17.8088 20.5186 17.1938 20.0344 16.4792 19.7596ZM8.62503 18.4162H12.9584C13.3791 18.4145 13.7944 18.5117 14.1707 18.6999C14.5471 18.888 14.8739 19.1619 15.125 19.4996H6.45836C6.52081 19.3952 6.59338 19.2972 6.67503 19.2071C6.93122 18.9523 7.23562 18.7512 7.57043 18.6154C7.90524 18.4796 8.26376 18.4119 8.62503 18.4162ZM3.8042 22.7496C3.92907 22.1378 4.26146 21.588 4.74513 21.1932C5.22879 20.7984 5.83401 20.5828 6.45836 20.5829H15.125C15.7586 20.5701 16.3767 20.7799 16.8715 21.1758C17.3664 21.5717 17.7067 22.1286 17.8334 22.7496H3.8042Z" fill="#6B778C"/>
<path id="Vector_2" d="M23.5315 14.6895L20.6065 11.7537C20.3097 11.485 19.9236 11.3361 19.5232 11.3361C19.1228 11.3361 18.7367 11.485 18.4398 11.7537L16.9773 10.2912L17.8332 9.43535L17.9957 9.58702C18.0443 9.63884 18.103 9.68014 18.1683 9.70837C18.2335 9.7366 18.3038 9.75116 18.3748 9.75116C18.4459 9.75116 18.5162 9.7366 18.5814 9.70837C18.6466 9.68014 18.7054 9.63884 18.754 9.58702L20.1623 8.18952C20.464 7.88345 20.6332 7.47095 20.6332 7.04119C20.6332 6.61142 20.464 6.19893 20.1623 5.89285L17.3565 3.08702C17.0504 2.78533 16.6379 2.61621 16.2082 2.61621C15.7784 2.61621 15.3659 2.78533 15.0598 3.08702L13.6623 4.49535C13.6105 4.54398 13.5692 4.60272 13.541 4.66793C13.5128 4.73315 13.4982 4.80346 13.4982 4.87452C13.4982 4.94558 13.5128 5.01589 13.541 5.08111C13.5692 5.14632 13.6105 5.20506 13.6623 5.25369L13.814 5.41619L11.3332 7.89702L11.1707 7.74535C11.122 7.69354 11.0633 7.65224 10.9981 7.62401C10.9329 7.59577 10.8626 7.58121 10.7915 7.58121C10.7204 7.58121 10.6501 7.59577 10.5849 7.62401C10.5197 7.65224 10.461 7.69354 10.4123 7.74535L9.00401 9.14285C8.70233 9.44892 8.5332 9.86142 8.5332 10.2912C8.5332 10.7209 8.70233 11.1334 9.00401 11.4395L11.8098 14.2454C12.1173 14.5445 12.5293 14.7118 12.9582 14.7118C13.3871 14.7118 13.7991 14.5445 14.1065 14.2454L15.504 12.837C15.5558 12.7884 15.5971 12.7297 15.6254 12.6644C15.6536 12.5992 15.6682 12.5289 15.6682 12.4579C15.6682 12.3868 15.6536 12.3165 15.6254 12.2513C15.5971 12.1861 15.5558 12.1273 15.504 12.0787L15.3523 11.9162L16.2082 11.0604L17.6273 12.4687C17.3431 12.7685 17.1847 13.166 17.1847 13.5791C17.1847 13.9922 17.3431 14.3897 17.6273 14.6895L20.5632 17.6145C20.8128 17.8698 21.1112 18.0723 21.4406 18.21C21.77 18.3477 22.1237 18.4178 22.4807 18.4162H22.6648C22.8819 18.422 23.0978 18.3842 23.3 18.3052C23.5022 18.2261 23.6865 18.1073 23.842 17.9558C23.9975 17.8044 24.1211 17.6233 24.2055 17.4232C24.2898 17.2232 24.3333 17.0083 24.3332 16.7912V16.607C24.3348 16.25 24.2647 15.8963 24.127 15.5669C23.9893 15.2375 23.7868 14.9391 23.5315 14.6895ZM15.829 3.85619C15.9303 3.75694 16.0664 3.70135 16.2082 3.70135C16.35 3.70135 16.4861 3.75694 16.5873 3.85619L19.3932 6.66202C19.4924 6.76327 19.548 6.8994 19.548 7.04119C19.548 7.18297 19.4924 7.3191 19.3932 7.42035L18.3748 8.43869L14.8107 4.87452L15.829 3.85619ZM13.3373 13.4762C13.2361 13.5754 13.1 13.631 12.9582 13.631C12.8164 13.631 12.6803 13.5754 12.579 13.4762L9.77318 10.6704C9.67393 10.5691 9.61834 10.433 9.61834 10.2912C9.61834 10.1494 9.67393 10.0133 9.77318 9.91202L10.7915 8.89369L14.3557 12.4579L13.3373 13.4762ZM12.1023 8.66619L14.5832 6.18535L17.064 8.66619L14.5832 11.147L12.1023 8.66619ZM23.2498 16.7912C23.2498 16.9348 23.1928 17.0726 23.0912 17.1742C22.9896 17.2758 22.8518 17.3329 22.7082 17.3329H22.524C22.0904 17.3307 21.6746 17.1597 21.3648 16.8562L18.4398 13.9204C18.3406 13.8191 18.285 13.683 18.285 13.5412C18.285 13.3994 18.3406 13.2633 18.4398 13.162L19.079 12.5229C19.1276 12.471 19.1864 12.4297 19.2516 12.4015C19.3168 12.3733 19.3871 12.3587 19.4582 12.3587C19.5292 12.3587 19.5995 12.3733 19.6648 12.4015C19.73 12.4297 19.7887 12.471 19.8373 12.5229L22.7732 15.4479C23.0767 15.7576 23.2476 16.1734 23.2498 16.607V16.7912Z" fill="#6B778C"/>
</g>
</g>
</svg>
