<svg width="30" height="24" viewBox="0 0 30 24" fill="none" xmlns="http://www.w3.org/2000/svg">
<g id="law-document-icon 1" clip-path="url(#clip0_6431_48359)">
<g id="Group">
<path id="Vector" d="M28.9182 22.7064L28.6002 22.3407L27.0869 23.854L27.0845 23.8516C26.9148 24.0213 26.6398 24.0237 26.4701 23.8563L24.9281 22.3574L23.4172 23.8085C23.2523 23.9783 22.9797 23.9878 22.8052 23.8253L21.2034 22.3454L19.7499 23.842C19.7403 23.8516 19.7332 23.8611 19.7236 23.8707C19.5515 24.0428 19.2742 24.0428 19.102 23.8707L17.5768 22.3454L16.0037 23.8444C15.8316 24.007 15.5591 24.0046 15.3917 23.8348L13.8951 22.3239L13.5844 22.6825C13.5055 22.7901 13.3764 22.8594 13.2305 22.8594C12.9867 22.8594 12.7907 22.661 12.7907 22.4195V16.5576C12.8911 16.5743 12.9939 16.5839 13.0967 16.5839C13.2903 16.5863 13.4839 16.5624 13.6728 16.5098V21.2912C13.8282 21.2099 14.0218 21.2266 14.1629 21.3485C14.1725 21.3557 14.1796 21.3629 14.1868 21.3724L15.7121 22.9144L17.2827 21.4179C17.4573 21.2529 17.7274 21.2577 17.8947 21.425L17.8971 21.4226L19.4104 22.9359L20.8759 21.4274C21.0433 21.2577 21.3134 21.2505 21.4879 21.4107L23.1016 22.9001L24.6317 21.4322C24.8038 21.2672 25.0763 21.2696 25.2437 21.437L26.7737 22.9264L28.3133 21.3868C28.4448 21.2529 28.648 21.2242 28.8106 21.3007V9.37124H20.6966C20.7253 9.23019 20.7373 9.08675 20.7373 8.94331C20.7349 8.7927 20.7157 8.63969 20.6823 8.49147H29.2505C29.4943 8.49147 29.6903 8.68751 29.6903 8.93135V22.4195H29.688C29.688 22.5415 29.6377 22.6634 29.5349 22.7519C29.3533 22.9096 29.0759 22.8905 28.9182 22.7064ZM17.0771 18.8407C16.8811 18.8407 16.7209 18.6805 16.7209 18.4845C16.7209 18.2885 16.8811 18.1283 17.0771 18.1283H20.2687C20.4647 18.1283 20.6249 18.2885 20.6249 18.4845C20.6249 18.6805 20.4647 18.8407 20.2687 18.8407H17.0771ZM17.0771 14.5279C16.8811 14.5279 16.7209 14.3678 16.7209 14.1717C16.7209 13.9757 16.8811 13.8155 17.0771 13.8155H26.5418C26.7379 13.8155 26.898 13.9757 26.898 14.1717C26.898 14.3678 26.7379 14.5279 26.5418 14.5279H17.0771ZM17.0771 16.6963C16.8811 16.6963 16.7209 16.5361 16.7209 16.3401C16.7209 16.144 16.8811 15.9839 17.0771 15.9839H25.1696C25.3656 15.9839 25.5258 16.144 25.5258 16.3401C25.5258 16.5361 25.3656 16.6963 25.1696 16.6963H17.0771ZM15.3009 4.09024C15.7766 4.56598 15.7862 5.33339 15.3224 5.79718L15.0714 6.0482L17.0867 8.02768L11.9922 12.9381L10.0294 10.9061L2.38165 18.5538C1.91786 19.0176 1.15045 19.0081 0.674704 18.5323C0.198959 18.0566 0.189396 17.2892 0.653188 16.8254L8.32965 9.14891L6.79244 7.55193L11.6073 2.64148L13.3309 4.33169L13.5963 4.06633C14.0577 3.60732 14.8251 3.61688 15.3009 4.09024ZM11.3993 0.28906C11.777 0.666786 11.7842 1.2788 11.416 1.64696L5.79792 7.26505C5.42976 7.63322 4.81775 7.62605 4.44002 7.24832C4.06229 6.87059 4.05512 6.25858 4.42328 5.89041L10.0414 0.272325C10.4095 -0.0982299 11.0216 -0.0886672 11.3993 0.28906ZM19.3841 8.27392C19.7619 8.65164 19.769 9.26366 19.4009 9.63182L13.7828 15.2499C13.4146 15.6181 12.8026 15.6109 12.4249 15.2332C12.0472 14.8555 12.04 14.2434 12.4081 13.8753L18.0262 8.25718C18.3968 7.88902 19.0064 7.89619 19.3841 8.27392Z" fill="#EAEAEA"/>
</g>
</g>
<defs>
<clipPath id="clip0_6431_48359">
<rect width="29.3766" height="24" fill="white" transform="translate(0.311523)"/>
</clipPath>
</defs>
</svg>
