<svg width="350" height="91" viewBox="0 0 350 91" fill="none" xmlns="http://www.w3.org/2000/svg">
<g clip-path="url(#clip0_6420_30884)">
<rect width="350" height="91" rx="16" fill="#D32F2F" fill-opacity="0.1"/>
<path d="M231.902 48.08H237.382C237.795 48.08 238.108 47.9333 238.322 47.64C238.495 47.3733 238.582 47.1267 238.582 46.9C238.582 46.8333 238.568 46.7467 238.542 46.64L236.942 40.82L239.262 40.16L240.882 46.02C240.948 46.3533 240.982 46.6467 240.982 46.9C240.982 47.7533 240.722 48.5 240.202 49.14C239.855 49.5667 239.435 49.9 238.942 50.14C238.448 50.38 237.928 50.5 237.382 50.5H231.902V48.08ZM243.682 36.5H246.102V50.5H243.682V36.5ZM251.823 36.24C252.209 36.24 252.543 36.38 252.823 36.66C253.103 36.9267 253.243 37.2533 253.243 37.64C253.243 38.0267 253.103 38.36 252.823 38.64C252.543 38.92 252.209 39.06 251.823 39.06C251.436 39.06 251.103 38.92 250.823 38.64C250.543 38.36 250.403 38.0267 250.403 37.64C250.403 37.2533 250.543 36.9267 250.823 36.66C251.103 36.38 251.436 36.24 251.823 36.24ZM255.323 48.08C255.656 48.08 255.936 48.2 256.163 48.44C256.403 48.6667 256.523 48.9533 256.523 49.3C256.523 49.6333 256.403 49.92 256.163 50.16C255.936 50.3867 255.656 50.5 255.323 50.5H254.743C254.076 50.5 253.509 50.3067 253.043 49.92L253.023 50.58C252.929 51.8733 252.476 52.9133 251.663 53.7C250.863 54.4867 249.789 55.0067 248.443 55.26L247.563 52.98C248.323 52.8333 248.916 52.6533 249.343 52.44C249.783 52.24 250.109 51.9467 250.323 51.56C250.549 51.1733 250.663 50.66 250.663 50.02V40.84H253.063V46.4C253.063 46.8533 253.229 47.2467 253.563 47.58C253.896 47.9133 254.289 48.08 254.743 48.08H255.323ZM268.142 48.08C268.475 48.08 268.755 48.2 268.982 48.44C269.222 48.68 269.342 48.9667 269.342 49.3C269.342 49.6333 269.222 49.92 268.982 50.16C268.755 50.3867 268.475 50.5 268.142 50.5H267.462C266.928 50.5 266.435 50.3733 265.982 50.12C265.542 49.8667 265.195 49.5333 264.942 49.12C264.555 49.5467 264.088 49.8867 263.542 50.14C263.008 50.38 262.435 50.5 261.822 50.5C260.435 50.5 259.315 50.0333 258.462 49.1C258.155 49.54 257.768 49.8867 257.302 50.14C256.835 50.38 256.335 50.5 255.802 50.5H255.042C254.708 50.4867 254.428 50.3667 254.202 50.14C253.962 49.9 253.842 49.6133 253.842 49.28C253.842 48.9467 253.962 48.6667 254.202 48.44C254.428 48.2 254.708 48.08 255.042 48.08H255.802C256.135 48.08 256.402 47.98 256.602 47.78C256.802 47.58 256.902 47.3067 256.902 46.96V40.8H261.822C262.648 40.8 263.415 41.0067 264.122 41.42C264.842 41.82 265.415 42.3667 265.842 43.06C266.282 43.7533 266.508 44.5133 266.522 45.34V47.12C266.522 47.3867 266.608 47.6133 266.782 47.8C266.968 47.9867 267.195 48.08 267.462 48.08H268.142ZM264.082 45.38C264.055 44.74 263.815 44.22 263.362 43.82C262.908 43.42 262.322 43.22 261.602 43.22H259.342V45.88C259.342 46.48 259.568 47 260.022 47.44C260.475 47.8667 261.002 48.08 261.602 48.08C262.348 48.08 262.948 47.86 263.402 47.42C263.855 46.98 264.082 46.4333 264.082 45.78V45.38ZM267.88 50.5C267.547 50.5 267.26 50.3867 267.02 50.16C266.78 49.92 266.66 49.6333 266.66 49.3C266.66 48.9533 266.78 48.6667 267.02 48.44C267.247 48.2 267.533 48.08 267.88 48.08H268.92C269.16 48.08 269.36 48 269.52 47.84C269.693 47.6667 269.78 47.46 269.78 47.22V36.54H272.2V47.22C272.2 47.8067 272.053 48.3533 271.76 48.86C271.467 49.3667 271.067 49.7667 270.56 50.06C270.067 50.3533 269.527 50.5 268.94 50.5H267.88ZM275.596 36.5H278.016V50.5H275.596V36.5ZM301.555 48.08C301.901 48.08 302.195 48.1933 302.435 48.42C302.675 48.6467 302.795 48.9267 302.795 49.26C302.795 49.5933 302.675 49.8867 302.435 50.14C302.195 50.38 301.901 50.5 301.555 50.5C301.128 50.5 300.628 50.4467 300.055 50.34C300.268 50.6333 300.375 50.98 300.375 51.38C300.375 52.1 300.195 52.76 299.835 53.36C299.475 53.9733 298.988 54.4533 298.375 54.8C297.775 55.16 297.121 55.34 296.415 55.34H290.315C289.328 55.34 288.415 55.0933 287.575 54.6C286.735 54.1067 286.068 53.44 285.575 52.6C285.081 51.76 284.835 50.84 284.835 49.84V46.2H287.255V49.84C287.255 50.4 287.388 50.9133 287.655 51.38C287.935 51.86 288.308 52.2333 288.775 52.5C289.241 52.78 289.755 52.92 290.315 52.92H296.415C296.828 52.92 297.188 52.7667 297.495 52.46C297.801 52.1533 297.955 51.7933 297.955 51.38C297.955 51.0067 297.841 50.6733 297.615 50.38C297.401 50.0733 297.115 49.8667 296.755 49.76L293.595 48.48L294.655 46.26L296.415 47.02C296.855 47.2067 297.115 47.3133 297.195 47.34C298.581 47.8333 300.035 48.08 301.555 48.08ZM291.275 56.62C291.661 56.62 291.995 56.7533 292.275 57.02C292.555 57.3 292.695 57.6333 292.695 58.02C292.695 58.4067 292.555 58.74 292.275 59.02C291.995 59.3 291.661 59.44 291.275 59.44C290.888 59.44 290.555 59.3 290.275 59.02C289.995 58.74 289.855 58.4067 289.855 58.02C289.855 57.6333 289.995 57.3 290.275 57.02C290.555 56.7533 290.888 56.62 291.275 56.62ZM294.995 56.62C295.381 56.62 295.715 56.7533 295.995 57.02C296.275 57.3 296.415 57.6333 296.415 58.02C296.415 58.4067 296.275 58.74 295.995 59.02C295.715 59.3 295.381 59.44 294.995 59.44C294.608 59.44 294.275 59.3 293.995 59.02C293.715 58.74 293.575 58.4067 293.575 58.02C293.575 57.6333 293.715 57.3 293.995 57.02C294.275 56.7533 294.608 56.62 294.995 56.62ZM315.093 48.08V50.5H313.253V50.78C313.253 52.06 312.819 53.0733 311.953 53.82C311.086 54.5667 309.899 54.94 308.393 54.94C307.579 54.94 306.813 54.76 306.093 54.4C305.386 54.04 304.793 53.54 304.313 52.9C303.846 52.2733 303.546 51.5667 303.413 50.78L303.373 50.5H301.353V48.08H303.273V46.02C303.273 45.0867 303.499 44.2267 303.953 43.44C304.406 42.64 305.013 42.0067 305.773 41.54C306.533 41.06 307.359 40.82 308.253 40.82C308.893 40.82 309.506 40.94 310.093 41.18C310.679 41.4067 311.219 41.7467 311.713 42.2C312.193 42.6533 312.566 43.1933 312.833 43.82C313.099 44.4467 313.233 45.1 313.233 45.78C313.233 46.6333 313.026 47.4 312.613 48.08H315.093ZM305.693 48.08H307.633C308.419 48.08 309.153 47.9 309.833 47.54C310.513 47.18 310.853 46.5933 310.853 45.78C310.853 45.42 310.786 45.08 310.653 44.76C310.519 44.4267 310.319 44.1467 310.053 43.92C309.599 43.4667 308.999 43.24 308.253 43.24C307.799 43.24 307.373 43.3667 306.973 43.62C306.586 43.8733 306.273 44.2133 306.033 44.64C305.806 45.0667 305.693 45.5267 305.693 46.02V48.08ZM308.393 52.56C309.126 52.56 309.719 52.34 310.173 51.9C310.626 51.46 310.853 50.9133 310.853 50.26V49.74C309.959 50.2467 308.886 50.5 307.633 50.5H305.873L305.913 50.72C306.059 51.2533 306.359 51.6933 306.813 52.04C307.279 52.3867 307.806 52.56 308.393 52.56ZM316.933 37.88C317.319 37.88 317.653 38.02 317.933 38.3C318.213 38.5667 318.353 38.8933 318.353 39.28C318.353 39.6667 318.213 40 317.933 40.28C317.653 40.56 317.319 40.7 316.933 40.7C316.546 40.7 316.213 40.56 315.933 40.28C315.653 40 315.513 39.6667 315.513 39.28C315.513 38.8933 315.653 38.5667 315.933 38.3C316.213 38.02 316.546 37.88 316.933 37.88ZM320.613 37.88C320.999 37.88 321.333 38.02 321.613 38.3C321.893 38.5667 322.033 38.8933 322.033 39.28C322.033 39.6667 321.893 40 321.613 40.28C321.333 40.56 320.999 40.7 320.613 40.7C320.226 40.7 319.893 40.56 319.613 40.28C319.333 40 319.193 39.6667 319.193 39.28C319.193 38.8933 319.333 38.5667 319.613 38.3C319.893 38.02 320.226 37.88 320.613 37.88ZM322.573 48.08C322.906 48.08 323.186 48.2 323.413 48.44C323.653 48.6667 323.773 48.9467 323.773 49.28C323.773 49.6133 323.653 49.9 323.413 50.14C323.173 50.38 322.886 50.5 322.553 50.5H321.593C321.099 50.5 320.626 50.4067 320.173 50.22C319.733 50.02 319.346 49.7533 319.013 49.42C318.693 49.7533 318.319 50.02 317.893 50.22C317.466 50.4067 317.019 50.5 316.553 50.5H314.913C314.539 50.5 314.233 50.3867 313.993 50.16C313.753 49.9333 313.633 49.6467 313.633 49.3C313.633 48.9533 313.753 48.6667 313.993 48.44C314.233 48.2 314.539 48.08 314.913 48.08H316.273C316.659 48.08 316.986 47.9467 317.253 47.68C317.519 47.4 317.653 47.0733 317.653 46.7V42.74H320.073V46.72C320.126 47.1067 320.299 47.4333 320.593 47.7C320.886 47.9533 321.219 48.08 321.593 48.08H322.573ZM325.949 36.24C326.349 36.24 326.689 36.38 326.969 36.66C327.249 36.9267 327.389 37.2533 327.389 37.64C327.389 38.0267 327.249 38.36 326.969 38.64C326.689 38.92 326.349 39.06 325.949 39.06C325.563 39.06 325.229 38.92 324.949 38.64C324.683 38.36 324.549 38.0267 324.549 37.64C324.549 37.2533 324.689 36.9267 324.969 36.66C325.249 36.38 325.576 36.24 325.949 36.24ZM322.509 50.5C322.176 50.5 321.889 50.38 321.649 50.14C321.396 49.9 321.269 49.6133 321.269 49.28C321.269 48.9333 321.389 48.6467 321.629 48.42C321.869 48.1933 322.163 48.08 322.509 48.08H323.909C324.163 48.08 324.376 47.9933 324.549 47.82C324.723 47.6467 324.809 47.4333 324.809 47.18V40.84H327.229V47.18C327.229 47.78 327.076 48.3333 326.769 48.84C326.476 49.3467 326.069 49.7533 325.549 50.06C325.043 50.3533 324.489 50.5 323.889 50.5H322.509ZM329.889 36.54H332.309V50.46H329.889V36.54ZM329.049 55.68V54.44H329.729C329.582 54.16 329.515 53.88 329.529 53.6C329.595 53.1067 329.809 52.6867 330.169 52.34C330.529 52.0067 330.962 51.84 331.469 51.84C331.909 51.84 332.289 51.9533 332.609 52.18C332.942 52.42 333.182 52.7333 333.329 53.12L332.369 53.82C332.262 53.5667 332.142 53.38 332.009 53.26C331.875 53.14 331.695 53.08 331.469 53.08C331.282 53.08 331.122 53.14 330.989 53.26C330.855 53.3933 330.789 53.5467 330.789 53.72C330.789 53.8933 330.842 54.0533 330.949 54.2C331.069 54.36 331.242 54.44 331.469 54.44H333.309V55.68H329.049Z" fill="#B12424"/>
<mask id="mask0_6420_30884" style="mask-type:luminance" maskUnits="userSpaceOnUse" x="-29" y="-109" width="299" height="311">
<path d="M-28.6543 -108.631H269.153V201.413H-28.6543V-108.631Z" fill="white"/>
</mask>
<g mask="url(#mask0_6420_30884)">
<g opacity="0.5">
<g opacity="0.5">
<path fill-rule="evenodd" clip-rule="evenodd" d="M184.139 -180.083C194.011 -176.609 203.855 -172.274 213.423 -167.193C222.881 -162.169 232.147 -156.37 241.798 -149.48C252.249 -142.016 261.321 -134.495 265.209 -131.251C274.005 -124.677 281.864 -117.873 289.226 -110.495C300.036 -99.6436 309.687 -87.5576 317.876 -74.5817C328.575 -57.6441 336.848 -39.2425 342.445 -19.8361V-19.8074C350.745 8.95782 351.38 34.3355 351.159 50.9285C351.021 59.139 350.635 68.0671 350.001 76.0766C348.733 92.4687 345.672 108.66 340.901 124.248C337.647 137.683 333.098 150.803 327.39 163.262C320.524 178.305 311.948 192.458 301.911 205.405C265.622 252.084 211.686 280.591 153.972 283.605C148.623 283.863 143.687 283.921 134.642 283.921C129.624 283.921 123.64 283.892 117.27 283.892H116.884C110.514 283.863 103.952 283.863 98.6849 283.863C70.3105 283.863 42.9564 278.265 17.3671 267.27C1.31858 260.352 -13.82 251.366 -27.6349 240.515C-41.8083 229.376 -54.5478 216.371 -65.4674 201.817C-79.9717 182.439 -91.0568 160.793 -98.3916 137.454C-103.741 123.243 -107.657 108.258 -110.028 92.8419C-113.117 72.8039 -112.868 56.8711 -112.455 46.6511C-112.62 30.8618 -111.241 15.2161 -108.346 0.144538C-103.658 -24.1422 -95.0827 -47.1084 -82.8671 -68.1512C-71.975 -86.9261 -58.3531 -103.835 -42.3874 -118.39C-36.1555 -124.045 -29.703 -129.241 -22.699 -134.265L-22.4508 -134.466L-22.2027 -134.638C-17.1289 -138.543 -8.58076 -145.117 0.877374 -151.605C9.31524 -157.375 17.2843 -162.284 25.2259 -166.562C52.2215 -181.116 80.5959 -189.298 109.577 -190.877C112.969 -191.049 116.388 -191.135 119.807 -191.135H119.835C141.591 -191.135 163.237 -187.403 184.139 -180.083ZM119.807 -190.561C116.415 -190.561 112.969 -190.475 109.605 -190.303C80.7062 -188.724 52.4146 -180.571 25.474 -166.045C17.5601 -161.767 9.59098 -156.887 1.18069 -151.117C-8.27744 -144.657 -16.798 -138.083 -21.8718 -134.179C-22.0372 -134.064 -22.2026 -133.94 -22.3681 -133.806C-29.3721 -128.782 -35.8246 -123.557 -42.0013 -117.93C-57.9395 -103.433 -71.5339 -86.5816 -82.3983 -67.8641C-94.5863 -46.8788 -103.134 -23.9413 -107.795 0.259341C-110.69 15.3309 -112.069 30.9193 -111.903 46.6511C-112.4 58.45 -112.372 73.8661 -109.477 92.7558C-107.105 108.172 -103.217 123.071 -97.8677 137.253C-90.5604 160.564 -79.5305 182.123 -65.0262 201.472C-54.1342 215.969 -41.4498 228.974 -27.304 240.055C-13.5166 250.878 1.56674 259.835 17.5877 266.725C43.0943 277.72 70.3657 283.289 98.6849 283.289C103.924 283.289 110.514 283.289 116.884 283.318C123.392 283.318 129.541 283.347 134.642 283.347C143.659 283.347 148.595 283.289 153.945 283.031C211.521 280.017 265.291 251.596 301.497 205.032C311.507 192.142 320.055 178.018 326.893 163.032C332.601 150.573 337.124 137.511 340.377 124.105C345.12 108.602 348.181 92.4687 349.449 76.0478C350.084 68.0097 350.47 59.1103 350.608 50.9285C350.828 34.3642 350.194 9.04397 341.922 -19.6351V-19.6638C336.324 -39.0129 328.107 -57.3859 317.435 -74.266C309.246 -87.2133 299.622 -99.2417 288.84 -110.065C278.858 -120.112 269.814 -127.117 264.878 -130.792C259.942 -134.897 251.421 -141.902 241.467 -149.021C231.871 -155.882 222.606 -161.652 213.175 -166.676C203.634 -171.758 193.818 -176.064 183.974 -179.537C163.099 -186.858 141.536 -190.561 119.835 -190.561C119.816 -190.561 119.807 -190.561 119.807 -190.561Z" fill="#313131" fill-opacity="0.36"/>
</g>
<g opacity="0.5">
<path fill-rule="evenodd" clip-rule="evenodd" d="M181.575 -170.782C191.061 -167.423 200.519 -163.232 209.701 -158.323C218.774 -153.5 227.68 -147.931 236.918 -141.299C244.115 -136.16 250.54 -130.964 255.227 -127.175C256.854 -125.854 258.233 -124.735 259.446 -123.787C259.943 -123.386 260.485 -122.955 261.073 -122.496C265.871 -118.735 273.951 -112.419 282.526 -103.836C292.867 -93.4433 302.104 -81.9028 309.936 -69.5297C320.193 -53.3673 328.107 -35.7694 333.484 -17.2529C341.454 10.2492 342.115 34.4785 341.895 50.3252C341.812 58.1624 341.426 66.8035 340.847 74.6407C339.689 89.7123 336.986 104.612 332.823 118.937C332.731 119.243 332.639 119.549 332.547 119.855C332.409 120.315 332.271 120.774 332.161 121.233C330.038 129.071 327.39 138.286 323.971 147.157C322.482 151.118 320.855 155.08 319.118 158.927C312.886 172.907 304.586 186.572 294.439 199.52C259.584 244.017 207.744 271.145 152.181 274.016C147.052 274.275 142.309 274.332 133.678 274.332H133.623C128.825 274.332 123.089 274.303 117.023 274.303H116.582C110.46 274.275 104.145 274.246 99.0992 274.246C81.672 274.246 64.5205 272.064 48.086 267.729C38.876 265.318 29.7764 262.189 21.0076 258.428C5.59334 251.825 -8.93852 243.184 -22.202 232.734C-35.4654 222.227 -47.5983 209.682 -58.2697 195.443C-69.2996 180.773 -78.2338 164.783 -84.8793 147.874C-86.2581 144.343 -87.4989 140.669 -88.6846 137.109C-89.0707 135.98 -89.4567 134.841 -89.8428 133.693C-95.4404 117.415 -98.97 103.808 -100.928 90.8894C-103.63 73.1767 -103.41 58.8514 -103.244 47.3396L-103.217 46.5646C-102.968 28.4787 -101.755 14.7563 -99.3009 2.09615C-94.8338 -21.1284 -86.6441 -43.1185 -74.9524 -63.2426C-64.5292 -81.185 -51.4863 -97.3475 -36.1824 -111.242C-29.7299 -117.098 -22.9741 -122.266 -17.2109 -126.543C-17.119 -126.62 -17.0179 -126.696 -16.9076 -126.773L-16.7698 -126.888C-11.8615 -130.677 -3.6442 -136.993 5.45546 -143.222C13.5624 -148.792 21.2282 -153.5 28.8664 -157.634C54.9245 -171.758 82.1959 -179.71 109.936 -181.26C113.217 -181.461 116.526 -181.547 119.78 -181.547H119.808H119.835V-180.973C119.817 -180.973 119.799 -180.973 119.78 -180.973C116.526 -180.973 113.245 -180.887 109.964 -180.686C82.2786 -179.136 55.0348 -171.184 29.1146 -157.146C21.504 -153.012 13.8382 -148.304 5.75881 -142.735C-3.34085 -136.505 -11.5305 -130.218 -16.4388 -126.428C-16.5859 -126.314 -16.7422 -126.199 -16.9076 -126.084C-23.5807 -121.118 -29.8953 -116.209 -35.8239 -110.811C-51.0727 -96.9456 -64.088 -80.8405 -74.4837 -62.9555C-86.1478 -42.8888 -94.3099 -20.9848 -98.777 2.2111C-101.534 16.6224 -102.444 31.5217 -102.665 46.5646C-102.83 57.9616 -103.134 72.746 -100.376 90.8032C-98.1152 105.616 -94.0617 119.741 -89.3464 133.52C-87.7195 138.257 -86.1753 143.023 -84.3554 147.645C-77.6547 164.726 -68.8033 180.486 -57.8285 195.099C-47.4604 208.907 -35.4378 221.51 -21.8711 232.275C-8.69036 242.667 5.78638 251.308 21.2282 257.911C29.997 261.672 39.0139 264.772 48.2239 267.184C64.6308 271.49 81.672 273.672 99.0992 273.672C104.145 273.672 110.46 273.7 116.582 273.729C122.813 273.729 128.714 273.758 133.623 273.758C133.641 273.758 133.66 273.758 133.678 273.758C142.281 273.758 147.024 273.7 152.153 273.442C207.606 270.6 259.336 243.442 293.997 199.175C303.649 186.859 312.086 173.338 318.622 158.668C320.368 154.822 321.986 150.908 323.475 146.927C326.673 138.63 329.21 129.932 331.609 121.061C331.83 120.286 332.078 119.54 332.299 118.765C336.435 104.526 339.137 89.6549 340.295 74.5833C340.874 66.8035 341.26 58.1624 341.343 50.3252C341.564 34.4785 340.902 10.3066 332.96 -17.0806V-17.1093C327.611 -35.5684 319.697 -53.1089 309.467 -69.2139C301.663 -81.5583 292.453 -93.0701 282.14 -103.405C272.572 -112.993 263.803 -119.625 259.115 -123.328C254.235 -127.175 246.155 -134.007 236.614 -140.84C227.377 -147.414 218.498 -152.983 209.453 -157.835C200.298 -162.715 190.84 -166.878 181.41 -170.237C161.335 -177.327 140.599 -180.973 119.835 -180.973V-181.547C140.627 -181.547 161.391 -177.93 181.575 -170.782Z" fill="#313131" fill-opacity="0.36"/>
</g>
<g opacity="0.5">
<path fill-rule="evenodd" clip-rule="evenodd" d="M179.01 -161.452C188.082 -158.236 197.154 -154.189 205.95 -149.481C214.664 -144.83 223.212 -139.462 232.064 -133.117C238.957 -128.179 245.134 -123.184 249.656 -119.538C251.173 -118.275 252.496 -117.213 253.655 -116.294C254.151 -115.912 254.684 -115.5 255.254 -115.06C259.886 -111.414 267.635 -105.357 275.797 -97.175C285.696 -87.2708 294.493 -76.2758 301.993 -64.4769C311.782 -49.0895 319.365 -32.3242 324.522 -14.6976C324.522 -14.6976 324.522 -14.688 324.522 -14.6689C332.16 11.5126 332.822 34.6224 332.656 49.7227C332.601 57.2154 332.243 65.5693 331.663 73.2056C330.56 87.7892 327.996 102.172 324.053 115.98C323.961 116.286 323.869 116.583 323.777 116.87C323.639 117.301 323.501 117.76 323.391 118.191C320.799 127.837 318.207 136.018 315.449 143.195C314.126 146.841 312.609 150.573 310.845 154.563C305.054 167.769 297.002 180.917 286.937 193.663C278.692 204.084 269.345 213.644 259.087 222.084C248.939 230.467 237.909 237.758 226.245 243.816C214.581 249.873 202.255 254.696 189.626 258.141C176.804 261.643 163.623 263.768 150.387 264.428C145.451 264.686 140.957 264.715 132.684 264.715H132.602C127.941 264.715 122.399 264.715 116.498 264.686H116.25H116.084C110.294 264.686 104.31 264.658 99.5119 264.658C82.8016 264.658 66.3671 262.562 50.5943 258.457C41.7704 256.16 33.0292 253.175 24.6465 249.586C9.75616 243.242 -4.1691 234.974 -16.7432 224.955C-29.0139 215.166 -40.5677 203.108 -51.1013 189.099C-61.883 174.745 -70.2381 159.846 -76.5803 143.54C-77.9039 140.123 -79.0896 136.592 -80.2202 133.176C-80.5878 132.104 -80.9555 131.033 -81.3232 129.961C-86.6175 114.401 -89.954 101.339 -91.8291 88.9374C-94.366 72.0572 -94.173 58.3349 -94.0075 47.3111V46.4786C-93.7594 29.4837 -92.5736 15.991 -90.2849 4.01989C-86.0109 -18.1425 -78.2072 -39.1279 -67.0395 -58.3334C-57.085 -75.4433 -44.6212 -90.8306 -29.979 -104.122C-23.8023 -109.72 -17.2946 -114.687 -11.7521 -118.821C-11.6602 -118.897 -11.5683 -118.974 -11.4764 -119.05L-11.3109 -119.165C-6.59566 -122.782 1.29069 -128.868 10.0043 -134.84C17.808 -140.179 25.1704 -144.715 32.5053 -148.734C57.6534 -162.399 83.8218 -170.121 110.321 -171.643C113.465 -171.844 116.663 -171.959 119.779 -171.959H119.89V-171.385C119.89 -171.385 119.88 -171.385 119.862 -171.385C119.844 -171.385 119.825 -171.385 119.807 -171.385C119.807 -171.385 119.798 -171.385 119.779 -171.385C116.663 -171.385 113.492 -171.27 110.349 -171.069C83.8494 -169.547 57.6534 -161.767 32.7535 -148.217C25.4461 -144.227 18.0837 -139.691 10.3077 -134.352C1.59404 -128.38 -6.26477 -122.323 -11.0076 -118.677C-11.1363 -118.581 -11.2834 -118.467 -11.4488 -118.333C-17.8737 -113.567 -23.9402 -108.83 -29.6206 -103.692C-44.18 -90.4574 -56.6162 -75.1275 -66.5431 -58.0464C-77.6833 -38.927 -85.4869 -17.999 -89.7334 4.13469C-92.3806 17.8857 -93.263 32.0961 -93.456 46.5074C-93.6215 57.445 -93.8972 71.598 -91.2776 88.8513C-89.1268 103.062 -85.2939 116.612 -80.7992 129.76C-79.255 134.324 -77.7936 138.86 -76.0564 143.31C-69.6591 159.731 -61.1936 174.716 -50.6601 188.726C-40.8159 201.874 -29.4551 214.103 -16.4123 224.496C-3.86576 234.486 10.0319 242.754 24.8395 249.069C33.2498 252.658 41.9083 255.615 50.7322 257.911C66.4774 262.017 82.8016 264.084 99.5119 264.084C104.365 264.084 110.404 264.112 116.25 264.112C122.233 264.141 127.886 264.141 132.602 264.141C132.638 264.141 132.666 264.141 132.684 264.141C140.902 264.141 145.451 264.112 150.36 263.854C203.689 261.155 253.351 235.261 286.524 193.29C295.789 181.577 304.061 168.63 310.348 154.334C311.975 150.602 313.519 146.841 314.926 142.994C317.986 135.1 320.523 126.746 322.867 118.047C323.06 117.301 323.308 116.554 323.501 115.808C327.445 102.114 330.037 87.703 331.112 73.1481C331.691 65.598 332.05 57.2441 332.105 49.7227C332.27 34.5937 331.608 11.57 323.998 -14.5254C318.869 -32.1232 311.286 -48.8024 301.524 -64.1611C294.052 -75.9313 285.283 -86.8976 275.411 -96.7444C266.284 -105.902 257.874 -112.247 253.324 -115.835C248.636 -119.538 240.887 -126.112 231.76 -132.629C222.909 -138.974 214.388 -144.313 205.702 -148.964C196.933 -153.672 187.889 -157.691 178.844 -160.906C159.57 -167.825 139.716 -171.385 119.89 -171.385V-171.959C139.688 -171.959 159.57 -168.428 179.01 -161.452Z" fill="#313131" fill-opacity="0.36"/>
</g>
<g opacity="0.6">
<path fill-rule="evenodd" clip-rule="evenodd" d="M176.446 -152.15C185.132 -149.049 193.791 -145.174 202.229 -140.638C210.556 -136.159 218.718 -131.021 227.211 -124.935C233.802 -120.198 239.73 -115.404 244.059 -111.901C245.521 -110.724 246.789 -109.691 247.892 -108.83C248.37 -108.447 248.885 -108.035 249.436 -107.595C254.179 -103.892 261.321 -98.2937 269.097 -90.5139C278.5 -81.0978 286.883 -70.6482 294.025 -59.4522C303.4 -44.7825 310.625 -28.8784 315.561 -12.1417C315.561 -12.1226 315.561 -12.1131 315.561 -12.1131C322.896 12.8052 323.557 34.7667 323.419 49.1206C323.364 56.2688 323.061 64.307 322.509 71.7423C321.462 85.8665 319.035 99.7611 315.257 113.024C315.165 113.311 315.073 113.608 314.982 113.914C314.871 114.316 314.733 114.747 314.623 115.177C312.39 123.675 309.798 131.799 306.93 139.234C305.716 142.65 304.283 146.239 302.573 150.229C297.196 162.746 289.64 175.033 279.465 187.779C271.579 197.655 262.645 206.697 252.828 214.678C243.122 222.602 232.561 229.549 221.393 235.29C210.198 241.032 198.368 245.597 186.263 248.869C173.964 252.199 161.308 254.209 148.596 254.84C143.88 255.099 139.579 255.128 131.72 255.128H131.582C127.17 255.128 121.876 255.099 116.278 255.099H115.947C110.377 255.07 104.586 255.07 99.9263 255.07C83.933 255.07 68.1878 253.089 53.132 249.185C44.6666 247.032 36.3114 244.19 28.2872 240.774C13.9759 234.716 0.657316 226.764 -11.3101 217.147C-22.7812 207.932 -33.4526 196.679 -43.9035 182.727C-54.3267 168.918 -62.2958 154.679 -68.2795 139.206C-69.5479 135.933 -70.6785 132.517 -71.7539 129.244C-72.0848 128.23 -72.4249 127.225 -72.7742 126.23C-77.7928 111.359 -80.9639 98.8999 -82.7287 86.9861C-85.1277 70.9385 -84.9346 57.8191 -84.7968 47.2833V46.4221C-84.5762 30.2596 -83.4456 17.3984 -81.2396 5.97276C-77.2137 -15.1562 -69.741 -35.1654 -59.0971 -53.4236C-49.639 -69.6722 -37.7543 -84.3418 -23.7739 -97.0019C-17.8729 -102.342 -11.641 -107.107 -6.29153 -111.069C-6.19961 -111.145 -6.1077 -111.222 -6.01578 -111.298L-5.87791 -111.413H-5.85034C-1.32808 -114.887 6.22742 -120.715 14.5826 -126.456C22.0553 -131.595 29.1144 -135.958 36.146 -139.805C60.2187 -152.953 85.2841 -160.446 110.708 -162.054C113.852 -162.255 116.912 -162.341 119.78 -162.341H119.863H119.918V-161.767C119.881 -161.767 119.844 -161.767 119.808 -161.767C119.789 -161.767 119.78 -161.767 119.78 -161.767C116.774 -161.767 113.741 -161.652 110.736 -161.48C85.422 -159.872 60.3014 -152.351 36.3942 -139.289C29.3626 -135.442 22.331 -131.107 14.8859 -125.997C6.55831 -120.255 -0.997161 -114.456 -5.54699 -110.954C-5.67567 -110.839 -5.81355 -110.724 -5.96061 -110.609C-12.1649 -106.016 -18.0108 -101.48 -23.4154 -96.5713C-37.3131 -83.9686 -49.1702 -69.3851 -58.6284 -53.1365C-69.217 -34.9358 -76.6622 -15.0412 -80.7157 6.0877C-83.225 19.1784 -84.0522 32.6998 -84.2453 46.4221C-84.3831 56.9292 -84.6589 70.4505 -82.1772 86.9001C-80.1642 100.508 -76.4968 113.455 -72.2503 126.029C-70.7888 130.364 -69.4101 134.727 -67.7556 138.976C-61.6616 154.765 -53.6097 168.947 -43.4622 182.382C-34.142 194.812 -23.4706 206.669 -10.9792 216.717C0.960624 226.305 14.2516 234.2 28.4802 240.228C36.532 243.644 44.7769 246.458 53.2699 248.64C68.2981 252.515 83.933 254.496 99.9263 254.496C104.586 254.496 110.35 254.496 115.947 254.525C121.655 254.525 127.087 254.553 131.582 254.553C131.637 254.553 131.683 254.553 131.72 254.553C139.524 254.553 143.88 254.525 148.568 254.266C199.802 251.711 247.396 227.08 279.024 187.435C287.931 176.267 296.093 163.923 302.077 150C303.621 146.411 305.082 142.765 306.406 139.033C309.274 131.55 311.838 123.541 314.099 115.005C314.292 114.287 314.513 113.57 314.733 112.852C318.484 99.675 320.938 85.7516 321.958 71.7135C322.509 64.3644 322.813 56.3263 322.868 49.1206C323.006 34.7093 322.316 12.8339 315.037 -11.9409V-11.9696C310.128 -28.6488 302.904 -44.5241 293.584 -59.1364C286.442 -70.3037 278.087 -80.6959 268.711 -90.0833C260.025 -98.7818 251.973 -104.868 247.561 -108.37C243.039 -111.93 235.622 -118.188 226.908 -124.447C218.442 -130.504 210.28 -135.643 201.98 -140.121C193.57 -144.628 184.939 -148.504 176.281 -151.604C157.833 -158.293 138.807 -161.767 119.918 -161.767V-162.341C138.724 -162.341 157.751 -158.925 176.446 -152.15Z" fill="#313131" fill-opacity="0.36"/>
</g>
<g opacity="0.6">
<path fill-rule="evenodd" clip-rule="evenodd" d="M173.882 -142.849C182.155 -139.863 190.455 -136.131 198.479 -131.767C206.448 -127.49 214.252 -122.552 222.359 -116.753C228.673 -112.217 234.354 -107.624 238.49 -104.265C239.868 -103.146 241.054 -102.17 242.102 -101.337C242.58 -100.973 243.085 -100.581 243.619 -100.16C248.168 -96.6002 255.007 -91.2319 262.369 -83.854C271.331 -74.8972 279.3 -64.993 286.084 -54.3998C294.99 -40.5053 301.884 -25.4049 306.599 -9.55826C313.548 13.8673 314.238 34.7952 314.182 48.5175C314.155 55.5509 313.851 63.302 313.355 70.3067C312.362 83.9428 310.046 97.3207 306.461 110.067C306.388 110.354 306.305 110.641 306.213 110.928C306.103 111.33 305.993 111.732 305.882 112.134C303.869 119.828 301.415 127.406 298.382 135.272C297.279 138.516 295.983 141.875 294.301 145.894C289.31 157.751 282.223 169.205 271.965 181.923C264.465 191.195 255.945 199.75 246.597 207.3C237.304 214.764 227.184 221.309 216.513 226.735C205.814 232.19 194.508 236.525 182.899 239.625C171.125 242.754 158.992 244.678 146.831 245.28C142.309 245.481 138.228 245.539 130.755 245.539H130.59C126.371 245.539 121.352 245.51 116.03 245.51H115.644C110.322 245.482 104.807 245.453 100.34 245.453C85.0639 245.453 70.0357 243.587 55.6417 239.912C47.5623 237.874 39.5932 235.175 31.8998 231.931C18.1952 226.161 5.48326 218.582 -5.87753 209.367C-16.3835 200.841 -26.1725 190.363 -36.7337 176.353C-46.7984 162.975 -54.409 149.397 -59.9791 134.842C-61.1924 131.713 -62.2403 128.469 -63.2881 125.311C-63.6006 124.373 -63.9131 123.426 -64.2256 122.469C-68.9685 108.345 -71.9466 96.4308 -73.6011 85.0338C-75.8898 69.8474 -75.7243 57.3308 -75.5864 47.2544L-75.5589 46.3357C-75.3658 31.0057 -74.318 18.805 -72.2223 7.92474C-68.3894 -12.1707 -61.3027 -31.1753 -51.1828 -48.5148C-42.1659 -63.9308 -30.8602 -77.8541 -17.5692 -89.8827C-11.944 -94.964 -5.96024 -99.5285 -0.831343 -103.347C-0.739427 -103.423 -0.647512 -103.49 -0.555596 -103.548L-0.417722 -103.662C3.91151 -107.021 11.1912 -112.59 19.1603 -118.074C26.3022 -123.011 33.058 -127.174 39.7862 -130.877C51.2297 -137.164 63.0593 -142.159 74.9716 -145.777C86.9114 -149.394 99.0443 -151.633 111.067 -152.437C114.155 -152.638 117.078 -152.753 119.753 -152.753H119.781H119.946V-152.179C119.891 -152.179 119.836 -152.179 119.781 -152.179C119.781 -152.179 119.771 -152.179 119.753 -152.179C116.913 -152.179 113.99 -152.064 111.122 -151.863C86.9942 -150.255 62.9214 -142.935 40.0344 -130.389C33.3062 -126.686 26.5779 -122.495 19.4636 -117.614C11.4946 -112.103 4.26997 -106.562 -0.114407 -103.203C-0.243089 -103.107 -0.371778 -103.002 -0.50046 -102.887C-6.48418 -98.4375 -12.0543 -94.1027 -17.2107 -89.4521C-30.419 -77.4809 -41.6971 -63.6438 -50.714 -48.2277C-60.7788 -30.9456 -67.8379 -12.0559 -71.6708 8.01081C-74.0698 20.4413 -74.8419 33.3023 -75.0074 46.3357C-75.1452 56.4121 -75.3934 69.3306 -73.0771 84.9476C-71.1745 97.9809 -67.7276 110.297 -63.7017 122.268C-62.323 126.43 -61.027 130.593 -59.4552 134.641C-53.6645 149.798 -45.9712 163.148 -36.2924 176.009C-27.4409 187.75 -17.4589 199.233 -5.51905 208.908C5.81417 218.094 18.471 225.673 32.1205 231.415C39.7862 234.659 47.6726 237.3 55.7796 239.367C70.146 243.041 85.0639 244.879 100.34 244.879C104.78 244.879 110.295 244.907 115.644 244.936C121.104 244.936 126.261 244.965 130.59 244.965C130.645 244.965 130.7 244.965 130.755 244.965C138.145 244.965 142.309 244.907 146.804 244.706C195.887 242.266 241.413 218.898 271.552 181.549C280.072 170.985 288.097 159.243 293.805 145.665C295.266 142.191 296.645 138.66 297.886 135.071C300.588 128.009 303.152 120.344 305.331 111.99C305.524 111.301 305.744 110.612 305.937 109.923C309.495 97.2633 311.811 83.7993 312.804 70.2779C313.3 63.1584 313.603 55.3786 313.631 48.5175C313.686 34.7952 313.024 14.0968 306.075 -9.38613C301.388 -25.2041 294.494 -40.2182 285.615 -54.084C278.859 -64.6485 270.918 -74.524 262.011 -83.4234C253.739 -91.6913 246.045 -97.5189 241.771 -100.878C237.442 -104.323 230.383 -110.294 222.055 -116.265C213.976 -122.064 206.172 -126.973 198.231 -131.279C190.234 -135.585 181.962 -139.317 173.717 -142.303C156.069 -148.762 137.897 -152.179 119.946 -152.179V-152.753C137.787 -152.753 155.931 -149.423 173.882 -142.849Z" fill="#313131" fill-opacity="0.36"/>
</g>
<g opacity="0.6">
<path fill-rule="evenodd" clip-rule="evenodd" d="M171.315 -133.547C179.201 -130.676 187.088 -127.087 194.754 -122.925C202.337 -118.82 209.754 -114.112 217.503 -108.542C223.514 -104.236 228.946 -99.8438 232.917 -96.6285C234.213 -95.5663 235.344 -94.6476 236.336 -93.8725C236.796 -93.5089 237.292 -93.1165 237.825 -92.6955C242.155 -89.2792 248.69 -84.1406 255.666 -77.1933C264.132 -68.7245 271.687 -59.3657 278.112 -49.3467C286.605 -36.1986 293.168 -21.9595 297.635 -7.00277C297.635 -6.98363 297.635 -6.97403 297.635 -6.97403C304.253 15.1022 304.97 34.9105 304.942 47.9151C304.915 54.6615 304.666 62.0968 304.198 68.8718C303.288 81.7329 301.027 94.9385 297.662 107.111C297.589 107.379 297.515 107.646 297.442 107.914C297.332 108.316 297.221 108.718 297.111 109.091C294.822 118.048 292.037 125.684 289.859 131.311C288.866 134.354 287.653 137.598 286.026 141.531C280.125 155.943 271.411 167.541 264.463 176.038C257.348 184.765 249.241 192.803 240.335 199.894C231.483 206.927 221.832 213.1 211.657 218.21C201.427 223.348 190.617 227.425 179.532 230.353C168.282 233.339 156.673 235.119 145.036 235.693C140.762 235.894 136.709 235.922 129.76 235.922H129.567C125.541 235.922 120.771 235.922 115.724 235.894H115.338C110.265 235.894 105.025 235.865 100.751 235.865C86.192 235.865 71.8807 234.114 58.176 230.64C50.4551 228.717 42.8445 226.19 35.5372 223.09C22.4116 217.607 10.3063 210.373 -0.420257 201.588C-12.691 191.54 -22.4249 179.426 -29.5392 170.009C-39.3282 157.033 -46.3598 144.488 -51.6817 130.507C-52.8398 127.464 -53.8601 124.307 -54.8528 121.264C-55.1285 120.421 -55.4134 119.579 -55.7076 118.737C-60.1471 105.302 -62.9597 93.9911 -64.5039 83.1109C-66.6272 68.7283 -66.4893 56.8146 -66.379 47.2549L-66.3514 46.2501C-66.186 31.7814 -65.1657 20.2121 -63.1803 9.84861C-59.568 -9.18465 -52.8674 -27.1843 -43.2438 -43.6052C-34.7232 -58.1887 -23.9967 -71.3656 -11.3674 -82.7626C-6.01795 -87.5855 -0.282399 -91.9778 4.6259 -95.6237C4.71782 -95.6811 4.80973 -95.748 4.90165 -95.8246L5.01195 -95.9108L5.03952 -95.9395C9.17573 -99.1261 16.1246 -104.466 23.7352 -109.719C30.5462 -114.399 36.9986 -118.418 43.4236 -121.949C54.3707 -128.006 65.6764 -132.829 77.0372 -136.331C88.4531 -139.834 100.034 -142.015 111.45 -142.819C114.484 -143.049 117.186 -143.164 119.75 -143.164H119.778H119.971V-142.59C119.916 -142.59 119.852 -142.59 119.778 -142.59C119.778 -142.59 119.769 -142.59 119.75 -142.59C117.02 -142.561 114.263 -142.446 111.478 -142.245C88.5909 -140.637 65.5661 -133.518 43.6993 -121.461C37.2468 -117.901 30.8219 -113.911 24.0385 -109.231C16.4279 -103.978 9.5618 -98.6954 5.34287 -95.4514C5.21419 -95.3558 5.0855 -95.2601 4.95682 -95.1644C-0.778724 -90.8869 -6.10066 -86.7529 -11.009 -82.3319C-23.5555 -71.0211 -34.2269 -57.9016 -42.775 -43.3181C-52.3159 -26.9834 -59.0165 -9.09841 -62.6564 9.96355C-64.89 21.7337 -65.6621 33.9058 -65.7999 46.2789C-65.9102 55.896 -66.1584 68.1829 -63.98 83.0248C-62.1876 95.4266 -58.9614 107.139 -55.1837 118.536C-53.8601 122.469 -52.6192 126.431 -51.1577 130.306C-45.6428 144.804 -38.3631 157.378 -29.098 169.636C-20.798 180.689 -11.4777 191.799 -0.0893734 201.129C10.6372 209.913 22.6874 217.119 35.7578 222.573C43.0375 225.645 50.5654 228.171 58.3139 230.095C71.991 233.54 86.192 235.291 100.751 235.291C104.998 235.291 110.237 235.32 115.338 235.32C120.522 235.348 125.431 235.348 129.567 235.348C129.641 235.348 129.705 235.348 129.76 235.348C136.764 235.348 140.735 235.32 145.009 235.119C191.969 232.851 235.454 210.746 264.049 175.693C272.211 165.703 280.097 154.536 285.53 141.302C286.881 137.972 288.204 134.584 289.335 131.11C291.899 124.479 294.491 117.158 296.587 108.948C296.753 108.288 296.946 107.627 297.139 106.967C300.475 94.8524 302.709 81.819 303.646 68.8431C304.115 61.9245 304.363 54.4605 304.391 47.9151C304.418 34.9105 303.729 15.3318 297.111 -6.8019V-6.83049C292.644 -21.7585 286.109 -35.9402 277.671 -49.0309C271.246 -59.0212 263.718 -68.3513 255.28 -76.7627C247.449 -84.5712 240.114 -90.1405 236.005 -93.4132C231.842 -96.6859 225.113 -102.399 217.172 -108.083C209.506 -113.595 202.061 -118.303 194.505 -122.408C186.867 -126.571 179.008 -130.13 171.15 -133.001C154.302 -139.259 136.985 -142.59 119.971 -142.59V-143.164C136.847 -143.164 154.108 -139.92 171.315 -133.547Z" fill="#313131" fill-opacity="0.36"/>
</g>
<g opacity="0.6">
<path fill-rule="evenodd" clip-rule="evenodd" d="M168.753 -124.246C176.364 -121.404 183.864 -117.987 191.034 -114.083C198.231 -110.15 205.29 -105.672 212.652 -100.361C218.388 -96.227 223.544 -92.0643 227.322 -88.9926C228.563 -87.9878 229.611 -87.1266 230.548 -86.3802C231.008 -86.0357 231.495 -85.6529 232.01 -85.2319C236.146 -81.9879 242.35 -77.0789 248.968 -70.5336C256.965 -62.5528 264.107 -53.7394 270.173 -44.2946C278.197 -31.9215 284.429 -18.4863 288.676 -4.4195C294.88 16.1066 295.68 33.9914 295.707 47.3118C295.707 53.7711 295.459 60.9193 295.018 67.436C294.163 79.7803 292.04 92.4978 288.896 104.153C288.823 104.421 288.749 104.68 288.676 104.928C288.565 105.302 288.455 105.703 288.345 106.077C286.304 114.201 283.657 121.321 281.341 127.349C280.183 131.024 278.804 134.555 277.756 137.196C272.434 150.574 264.272 161.368 256.992 170.181C250.237 178.334 242.543 185.856 234.078 192.487C225.667 199.09 216.485 204.889 206.806 209.683C197.045 214.506 186.76 218.324 176.171 221.08C165.417 223.893 154.359 225.587 143.247 226.104C139.193 226.305 135.36 226.333 128.797 226.333H128.549C124.716 226.333 120.167 226.305 115.369 226.305H115.038H114.983C110.157 226.276 105.193 226.276 101.195 226.276C87.3251 226.276 73.7031 224.611 60.7154 221.367C53.4633 219.587 46.2387 217.204 39.1796 214.276C26.5504 209.023 15.0517 202.133 5.0145 193.808C-5.76721 184.88 -14.5084 174.028 -22.3672 163.636C-31.7426 151.234 -38.4157 139.32 -43.3791 126.172C-44.4821 123.244 -45.4472 120.23 -46.4124 117.301C-46.6513 116.517 -46.8995 115.742 -47.1569 114.976C-51.3206 102.287 -53.9402 91.5506 -55.4017 81.1584C-57.3871 67.6083 -57.2492 56.2974 -57.1389 47.2257V46.1922C-56.9735 32.5273 -56.0359 21.6184 -54.1608 11.8004C-50.7416 -6.19938 -44.3994 -23.1944 -35.3273 -38.6965C-27.2755 -52.4476 -17.128 -64.8494 -5.16058 -75.6435C-0.114401 -80.1793 5.40056 -84.3994 10.0883 -87.9018C10.1802 -87.9592 10.2629 -88.0165 10.3364 -88.0739L10.4743 -88.1601L10.5019 -88.1888C14.4451 -91.2319 21.063 -96.3418 28.3151 -101.337C34.7952 -105.815 40.9444 -109.633 47.066 -113.05C57.5168 -118.849 68.2985 -123.499 79.1354 -126.858C89.9998 -130.274 101.002 -132.399 111.839 -133.231C114.762 -133.432 117.354 -133.547 119.753 -133.547H119.781H120.001V-132.973C119.928 -132.973 119.854 -132.973 119.781 -132.973C119.762 -132.973 119.753 -132.973 119.753 -132.973C117.161 -132.973 114.514 -132.858 111.867 -132.657C90.1653 -130.992 68.1882 -124.102 47.3417 -112.533C41.1925 -109.145 35.0709 -105.299 28.6185 -100.849C21.3663 -95.8537 14.8311 -90.8012 10.7776 -87.7008C10.6673 -87.6242 10.5478 -87.5285 10.4191 -87.4137C4.93177 -83.3372 -0.169537 -79.3755 -4.80209 -75.2129C-16.6592 -64.5336 -26.7791 -52.1892 -34.8585 -38.4095C-43.8755 -22.9934 -50.1901 -6.11329 -53.6094 11.9152C-55.7326 22.9964 -56.4495 34.5082 -56.5874 46.1922C-56.6977 55.4074 -56.9183 67.0341 -54.8502 81.0722C-53.1957 92.8711 -50.1901 103.981 -46.6329 114.804C-45.4196 118.536 -44.2339 122.296 -42.8552 125.971C-37.616 139.837 -30.7499 151.607 -21.926 163.291C-14.1223 173.626 -5.46387 184.391 5.34542 193.348C15.4653 201.731 26.9088 208.535 39.3726 213.731C46.3214 216.63 53.4633 219.013 60.8258 220.822C73.8134 224.066 87.3251 225.702 101.195 225.702C105.221 225.702 110.185 225.702 115.038 225.731C119.946 225.731 124.606 225.759 128.549 225.759C128.641 225.759 128.724 225.759 128.797 225.759C135.388 225.759 139.166 225.731 143.219 225.53C188.056 223.405 229.5 202.563 256.579 169.808C264.355 160.392 272.103 149.856 277.26 136.966C278.528 133.751 279.741 130.507 280.817 127.177C283.216 120.947 285.808 113.971 287.821 105.933C287.986 105.273 288.179 104.641 288.345 104.01C291.488 92.4117 293.612 79.8665 294.466 67.3787C294.935 60.7184 295.156 53.5414 295.156 47.3118C295.128 35.0249 294.439 16.5946 288.152 -4.24723C283.905 -18.2853 277.701 -31.6633 269.732 -43.9789C263.665 -53.3663 256.551 -62.1796 248.582 -70.103C241.164 -77.4809 234.216 -82.763 230.217 -85.9208C226.274 -89.0787 219.849 -94.4758 212.321 -99.9016C205.042 -105.155 197.955 -109.634 190.758 -113.566C183.506 -117.528 176.033 -120.916 168.588 -123.7C152.539 -129.7 136.077 -132.973 120.001 -132.973V-133.547C135.774 -133.547 152.181 -130.418 168.753 -124.246Z" fill="#313131" fill-opacity="0.36"/>
</g>
<g opacity="0.7">
<path fill-rule="evenodd" clip-rule="evenodd" d="M166.218 -114.945C173.415 -112.218 180.529 -108.945 187.285 -105.213C194.123 -101.481 200.824 -97.2037 207.773 -92.1798C213.232 -88.2468 218.168 -84.2564 221.753 -81.3569C222.884 -80.4096 223.904 -79.6058 224.786 -78.9168C225.227 -78.5723 225.696 -78.1991 226.193 -77.7972C230.108 -74.6968 236.037 -70.0174 242.241 -63.8739C249.769 -56.3812 256.497 -48.0847 262.233 -39.2427C269.788 -27.6161 275.689 -15.042 279.715 -1.86514C279.715 -1.86514 279.715 -1.85554 279.715 -1.83641C285.589 17.3691 286.388 34.1919 286.443 46.7085C286.471 52.8519 286.278 59.713 285.864 65.9713C285.065 77.8563 283.079 90.0285 280.101 101.224C280.028 101.454 279.954 101.693 279.881 101.942C279.798 102.315 279.688 102.689 279.605 103.033C277.702 110.669 275.22 117.129 273.042 122.813L272.794 123.416C271.774 126.832 270.56 130.076 269.485 132.832C264.687 145.291 257.049 155.339 249.493 164.324C243.151 171.903 235.844 178.908 227.819 185.109C219.85 191.252 211.137 196.649 201.927 201.128C192.662 205.663 182.873 209.252 172.835 211.835C162.578 214.448 152.044 216.027 141.455 216.515C137.595 216.687 133.983 216.745 127.834 216.745H127.53C123.918 216.745 119.671 216.716 115.149 216.716H114.708C110.379 216.687 105.47 216.687 101.61 216.687C88.4568 216.687 75.5519 215.137 63.226 212.094C56.3874 210.457 49.5213 208.218 42.8207 205.434C30.7705 200.467 19.8785 193.922 10.448 185.998C-0.195879 177.099 -8.49588 166.104 -15.169 157.291C-24.2686 145.233 -30.4178 134.296 -35.0503 121.837C-36.1257 119.023 -37.0357 116.124 -37.9457 113.31C-38.1663 112.622 -38.3869 111.932 -38.6075 111.243C-42.4955 99.2723 -44.9497 89.081 -46.3008 79.2056C-48.1483 66.488 -48.0105 55.8088 -47.9277 47.2251V46.1056C-47.7899 33.3019 -46.9075 22.9957 -45.1427 13.7231C-41.9165 -3.21446 -35.9603 -19.2047 -27.3846 -33.7882C-19.8291 -46.678 -10.2607 -58.3621 1.04496 -68.5246C5.81538 -72.8021 11.0546 -76.8211 15.5769 -80.1799C15.6504 -80.2373 15.7239 -80.2947 15.7974 -80.3522L15.9077 -80.4384L15.9353 -80.467C19.713 -83.3664 26.0001 -88.1893 32.8662 -92.9548C39.0429 -97.2036 44.8888 -100.878 50.7071 -104.122C60.6615 -109.663 70.9193 -114.141 81.2047 -117.414C91.5452 -120.715 101.996 -122.782 112.199 -123.615C115.039 -123.844 117.493 -123.959 119.727 -123.959H119.754H120.03V-123.385C119.938 -123.385 119.846 -123.385 119.754 -123.385C119.754 -123.385 119.745 -123.385 119.727 -123.385C117.3 -123.385 114.763 -123.242 112.254 -123.041C91.7382 -121.376 70.8366 -114.715 50.9828 -103.605C45.137 -100.361 39.2911 -96.7156 33.1695 -92.4669C26.3034 -87.7301 20.0991 -82.9359 16.2387 -79.979C16.1284 -79.8833 16.0089 -79.7876 15.8802 -79.6919C10.641 -75.7877 5.78782 -72.027 1.40344 -68.094C-9.7919 -58.0463 -19.3052 -46.4484 -26.9158 -33.5012C-35.4088 -19.0324 -41.365 -3.15693 -44.5912 13.8381C-46.5766 24.2877 -47.2384 35.1105 -47.3763 46.1056C-47.459 54.8901 -47.6796 65.9139 -45.7493 79.1195C-44.2052 90.3155 -41.4201 100.822 -38.0835 111.042C-36.953 114.602 -35.85 118.133 -34.554 121.636C-29.6181 134.841 -23.1381 145.836 -14.7278 156.918C-7.44804 166.563 0.521043 176.956 10.8064 185.568C20.2921 193.52 31.1566 200.008 43.0137 204.917C49.5765 207.615 56.3599 209.855 63.3638 211.548C75.6622 214.563 88.4568 216.113 101.61 216.113C105.415 216.113 110.158 216.113 114.736 216.142C119.368 216.142 123.808 216.17 127.53 216.17C127.641 216.17 127.742 216.17 127.834 216.17C134.01 216.17 137.595 216.113 141.428 215.941C184.169 213.96 223.545 194.41 249.08 163.951C256.497 155.109 264.135 145.176 268.961 132.631C270.147 129.559 271.305 126.43 272.297 123.215C274.531 117.387 277.123 110.755 279.053 102.889C279.219 102.287 279.412 101.684 279.577 101.052C282.5 89.9997 284.513 77.9138 285.313 65.9427C285.726 59.5121 285.919 52.5936 285.892 46.7085C285.864 35.1392 285.147 17.8572 279.191 -1.66413V-1.69287C275.165 -14.841 269.292 -27.3577 261.764 -38.9269C256.056 -47.7402 249.355 -55.9793 241.855 -63.4433C234.879 -70.3906 228.288 -75.3857 224.455 -78.4574C220.678 -81.443 214.584 -86.5818 207.469 -91.7205C200.548 -96.6869 193.847 -100.964 187.036 -104.725C180.17 -108.486 173.084 -111.73 166.025 -114.4C150.776 -120.17 135.168 -123.385 120.03 -123.385V-123.959C134.81 -123.959 150.362 -120.916 166.218 -114.945Z" fill="#313131" fill-opacity="0.36"/>
</g>
<g opacity="0.8">
<path fill-rule="evenodd" clip-rule="evenodd" d="M148.263 -49.8073C152.813 -47.8264 157.142 -45.616 161.168 -43.262C165.332 -40.7931 169.468 -38.0371 173.77 -34.8792C177.217 -32.3529 180.222 -29.9127 182.676 -27.9319C183.265 -27.4343 183.816 -26.975 184.331 -26.554C184.699 -26.2669 185.094 -25.9606 185.517 -25.6353C188.302 -23.3961 191.804 -20.5828 195.25 -17.224C199.414 -13.2049 203.22 -8.72651 206.556 -3.93232C211.051 2.52693 214.553 9.24463 216.952 16.1058C216.97 16.1058 216.979 16.1058 216.979 16.1058C220.564 26.297 221.419 35.5409 221.75 42.4595C221.943 46.4498 221.943 51.3589 221.75 55.866C221.391 63.8755 220.233 72.861 218.579 80.526C218.542 80.7174 218.496 80.9088 218.441 81.1001C218.386 81.3298 218.331 81.569 218.275 81.8178C217.283 86.7269 215.545 90.4015 214.277 93.0713C213.808 94.0761 213.395 94.9372 213.091 95.6836C212.705 98.0951 212.126 100.306 211.575 102.373C209.065 111.617 203.302 117.214 198.67 121.693C198.091 122.238 197.567 122.755 197.07 123.272C189.653 130.592 179.616 136.879 167.979 141.444C155.901 146.209 142.39 148.965 128.961 149.425C126.589 149.511 124.356 149.539 121.019 149.539H120.413C118.152 149.539 115.56 149.539 112.857 149.511H112.554C109.769 149.511 106.901 149.511 104.502 149.511C96.5606 149.511 88.6466 148.736 80.9257 147.214C76.5965 146.353 72.3224 145.147 68.2413 143.626C60.4377 140.669 53.7922 136.592 48.5254 131.482C44.3065 127.434 41.4662 122.755 38.9569 118.65C37.6334 116.468 36.3925 114.401 35.0965 112.736C29.8849 105.99 25.9693 100.507 23.0188 91.4637C22.3294 89.3393 21.7503 87.1862 21.1712 85.0905L21.1437 85.0044C19.2686 78.1433 18.0553 71.9423 17.4211 65.5405C16.5663 58.708 16.5939 52.6507 16.5939 47.311C16.6122 46.7178 16.6214 46.1341 16.6214 45.56C16.6214 38.6414 17.0902 32.6702 18.0829 27.3306C19.8201 17.6847 23.1842 8.67042 28.0925 0.546123C32.3666 -6.51599 37.8815 -12.9752 44.4443 -18.6593C47.2018 -21.0421 50.5659 -23.6257 53.8197 -26.0659C53.8565 -26.1042 53.9025 -26.1426 53.9576 -26.1808L54.0128 -26.2382L54.0955 -26.2956C56.6875 -28.2765 60.6031 -31.2908 64.8772 -34.3051C68.7928 -37.061 72.4878 -39.4725 76.1828 -41.683C89.2532 -49.5203 102.985 -54.7162 114.815 -56.3526C116.194 -56.5535 117.986 -56.7545 119.668 -56.7832C119.797 -56.7832 119.926 -56.7832 120.054 -56.7832C128.161 -56.7832 137.674 -54.4292 148.263 -49.8073ZM119.668 -56.209C118.152 -56.1803 116.552 -56.0081 114.898 -55.7784C102.765 -54.1134 89.2532 -48.8312 76.4586 -41.1949C72.7084 -38.9557 68.9858 -36.5155 65.1805 -33.817C60.8789 -30.8027 56.9633 -27.7884 54.3437 -25.7788C54.2701 -25.7214 54.1966 -25.6641 54.123 -25.6067C50.5659 -22.9082 47.3948 -20.4679 44.8028 -18.2287C38.3779 -12.6594 32.9181 -6.31501 28.5613 0.861936C23.7357 8.81399 20.3716 17.656 18.6068 27.4454C17.559 33.2443 17.1729 39.3017 17.1729 45.56C17.1453 51.3302 17.0351 57.933 17.945 65.4831C18.662 72.4304 19.9855 78.7174 21.6676 84.8322C22.2743 86.9852 22.8533 89.1383 23.5427 91.2627C26.4105 100.019 30.1331 105.387 35.5377 112.392C39.2327 117.186 42.4865 124.88 48.8838 131.08C54.1506 136.162 60.7134 140.152 68.4343 143.08C72.4051 144.573 76.5964 145.779 81.0084 146.64C88.5087 148.133 96.3951 148.937 104.502 148.937C106.901 148.937 109.769 148.937 112.554 148.937C115.367 148.965 118.069 148.965 120.413 148.965C120.615 148.965 120.817 148.965 121.019 148.965C124.383 148.965 126.617 148.937 128.933 148.85C156.811 147.903 182.07 137.31 196.684 122.841C201.51 118.047 208.266 112.392 211.051 102.229C211.63 100.076 212.181 97.8654 212.567 95.5401C213.698 92.6406 216.373 88.3919 217.751 81.703C217.834 81.2724 217.944 80.8418 218.027 80.4112C219.627 73.062 220.812 64.1913 221.198 55.866C221.391 50.9857 221.364 46.1054 221.198 42.4882C220.895 35.8854 220.123 26.6702 216.455 16.3067C213.974 9.33067 210.472 2.69923 206.115 -3.58777C202.834 -8.26713 199.083 -12.7169 194.892 -16.8221C190.921 -20.6689 186.868 -23.798 184 -26.1234C181.491 -28.1329 177.768 -31.262 173.466 -34.4199C169.248 -37.5203 165.111 -40.2763 160.892 -42.7451C156.673 -45.214 152.344 -47.3958 148.07 -49.2619C138.391 -53.5106 128.74 -56.209 120.054 -56.209C119.926 -56.209 119.797 -56.209 119.668 -56.209Z" fill="#313131" fill-opacity="0.36"/>
</g>
<g opacity="0.9">
<path fill-rule="evenodd" clip-rule="evenodd" d="M145.726 -40.4777C149.863 -38.6117 153.778 -36.5734 157.418 -34.3916C161.223 -32.1237 165.001 -29.5975 168.917 -26.698C172.06 -24.3727 174.845 -22.1048 177.079 -20.2962C177.612 -19.856 178.108 -19.4541 178.568 -19.0904C178.917 -18.8034 179.294 -18.4971 179.698 -18.1717C182.263 -16.1048 185.461 -13.5498 188.55 -10.5642C192.217 -7.03311 195.609 -3.10023 198.587 1.11981C202.641 6.80395 205.812 12.7178 207.99 18.6603C211.299 27.6171 212.154 35.7415 212.512 41.8275C212.733 45.4734 212.76 50.0666 212.567 54.4302C212.264 61.9229 211.244 70.363 209.782 77.5687C209.746 77.7601 209.709 77.9419 209.672 78.1141C209.617 78.3438 209.571 78.5638 209.534 78.7743C208.597 83.5972 206.887 86.9561 205.646 89.4249C205.205 90.3149 204.819 91.09 204.571 91.7216C204.267 94.0182 203.744 96.1713 203.302 98.0373C201.096 106.879 195.609 111.874 191.225 115.865C190.646 116.41 190.094 116.898 189.57 117.386C182.952 123.616 173.825 128.984 163.154 132.946C151.986 137.051 139.55 139.463 127.168 139.865C125.045 139.922 122.95 139.951 120.054 139.951H119.392C117.352 139.951 115.036 139.922 112.609 139.922H112.251C109.714 139.922 107.122 139.922 104.916 139.922C97.7187 139.893 90.4941 139.233 83.435 137.941C79.4918 137.223 75.6038 136.161 71.8812 134.783C64.7117 132.142 58.6729 128.41 53.9576 123.702C50.2074 119.97 47.8084 115.693 45.7127 111.932C44.527 109.836 43.4241 107.855 42.2935 106.391C37.1646 99.7598 33.8556 95.1665 31.3187 87.0996C30.7397 85.2049 30.2433 83.3389 29.6918 81.2432C28.0649 75.1285 27.0722 69.5017 26.5207 63.5879C25.8314 57.6167 25.8314 52.191 25.8314 47.3968C25.8314 46.7461 25.8314 46.1145 25.8314 45.502C25.8038 39.3586 26.2174 34.0476 27.0998 29.2822C28.644 20.6698 31.6221 12.6604 36.0065 5.45471C39.8393 -0.74617 44.7476 -6.48778 50.6486 -11.5403C53.1303 -13.6647 56.2463 -16.0761 59.2795 -18.344C59.3163 -18.3631 59.3623 -18.3919 59.4174 -18.4302L59.4725 -18.4875L59.5553 -18.545C61.9267 -20.3823 65.539 -23.1669 69.427 -25.9228C73.0393 -28.4491 76.431 -30.6884 79.8227 -32.7554C91.9832 -40.162 104.557 -45.1283 115.201 -46.736C116.552 -46.9656 118.124 -47.1666 119.641 -47.1953H119.668C119.797 -47.1953 119.916 -47.1953 120.027 -47.1953C127.251 -47.1953 135.882 -44.9274 145.726 -40.4777ZM119.668 -46.6212C118.289 -46.5924 116.8 -46.4202 115.284 -46.1905C104.337 -44.5255 91.8729 -39.4155 80.0984 -32.2673C76.6516 -30.1716 73.2323 -27.9325 69.7579 -25.4349C65.8147 -22.6502 62.23 -19.8942 59.8035 -18.0282C59.7299 -17.9708 59.6564 -17.9229 59.5828 -17.8847C56.2739 -15.3584 53.351 -13.1193 51.0071 -11.1097C45.244 -6.17199 40.3632 -0.573895 36.4752 5.77052C32.2011 12.8039 29.1955 20.6411 27.6513 29.3682C26.7138 34.5069 26.3553 39.904 26.3829 45.502C26.3829 50.813 26.2726 56.7841 27.0447 63.5305C27.6513 69.8749 28.7543 75.5591 30.2158 81.0997C30.7397 83.0518 31.236 84.9752 31.8427 86.9273C34.4071 95.0229 37.7437 99.5874 42.7347 106.018C45.9058 110.123 48.4978 117.444 54.3161 123.271C59.0038 127.951 64.9324 131.625 72.0742 134.238C75.6865 135.558 79.4918 136.621 83.5453 137.367C90.3562 138.63 97.5257 139.319 104.916 139.348C107.122 139.348 109.714 139.348 112.251 139.348C114.787 139.348 117.242 139.376 119.392 139.376C119.631 139.376 119.852 139.376 120.054 139.376C123.032 139.376 125.045 139.348 127.168 139.29C152.896 138.458 176.196 129.185 189.184 116.984C193.679 112.736 200.324 107.712 202.751 97.8937C203.275 95.8842 203.744 93.7885 204.047 91.578C204.984 89.0804 207.714 85.2049 208.983 78.6595C209.065 78.2576 209.148 77.8556 209.231 77.4537C210.637 70.65 211.713 62.2387 212.016 54.4015C212.209 49.7508 212.154 45.1862 211.961 41.8848C211.602 35.9997 210.83 27.9328 207.494 18.8899C207.494 18.8708 207.494 18.8613 207.494 18.8613C205.233 12.7752 202.089 6.97625 198.146 1.46436C195.251 -2.64085 191.914 -6.54511 188.164 -10.1623C184.634 -13.5498 180.939 -16.4493 178.209 -18.6311C175.893 -20.4971 172.501 -23.3679 168.613 -26.2386C164.78 -29.052 161.003 -31.607 157.142 -33.9037C153.309 -36.1716 149.394 -38.2099 145.506 -39.961C136.599 -43.9801 127.803 -46.6212 120.027 -46.6212C119.916 -46.6212 119.797 -46.6212 119.668 -46.6212Z" fill="#313131" fill-opacity="0.36"/>
</g>
<g opacity="0.9">
<path fill-rule="evenodd" clip-rule="evenodd" d="M143.163 -31.1759C146.886 -29.4248 150.443 -27.53 153.697 -25.5492C157.116 -23.4535 160.507 -21.1569 164.065 -18.5158C166.932 -16.3914 169.469 -14.3244 171.51 -12.6307C171.969 -12.2671 172.392 -11.9225 172.778 -11.5972C173.128 -11.3101 173.495 -11.023 173.881 -10.7359C176.225 -8.84123 179.148 -6.48725 181.85 -3.90355C185.021 -0.860528 187.999 2.52702 190.647 6.1729C194.259 11.1106 197.072 16.1632 199.029 21.2157C202.035 28.9381 202.89 35.9716 203.276 41.2251C203.496 44.4404 203.552 48.8327 203.414 52.9953C203.166 59.8852 202.256 67.9807 200.987 74.6122C200.95 74.8036 200.914 74.9854 200.877 75.1576C200.84 75.349 200.803 75.55 200.767 75.7605C199.884 80.4686 198.147 83.7126 197.016 85.837C196.603 86.5834 196.244 87.2437 196.051 87.7604C195.831 89.8848 195.445 91.8655 195.031 93.6741C193.128 102.2 187.669 106.794 183.698 110.124C183.128 110.621 182.586 111.09 182.071 111.53C176.253 116.64 168.063 121.119 158.329 124.42C148.099 127.923 136.71 129.932 125.377 130.277C123.475 130.334 121.627 130.334 119.118 130.334H118.373C116.471 130.334 114.347 130.334 112.141 130.334H111.948C109.66 130.334 107.343 130.305 105.358 130.305C98.878 130.305 92.3427 129.76 85.973 128.669C82.3883 128.066 78.8587 127.147 75.5222 125.942C68.9594 123.616 63.5272 120.229 59.391 115.894C56.0544 112.42 53.9863 108.344 52.3594 105.071C51.3392 103.033 50.4568 101.282 49.4641 100.019L49.3813 99.9038C44.8867 94.1048 41.9086 90.2866 39.6199 82.7652C39.0684 80.9279 38.6272 79.0906 38.2136 77.483C36.89 72.1146 36.0628 67.0908 35.6216 61.6364C35.0701 56.5264 35.0701 51.7321 35.0425 47.5121C35.0425 46.804 35.0425 46.1055 35.0425 45.4165C35.0149 40.0768 35.3734 35.4262 36.1179 31.2061C37.4415 23.656 40.0887 16.6226 43.9491 10.3643C47.2857 4.99591 51.6149 0.000760675 56.8541 -4.42024C59.0325 -6.28624 61.9278 -8.49674 64.7405 -10.5924C64.7772 -10.6307 64.814 -10.6689 64.8508 -10.7072L64.9059 -10.7359L65.0162 -10.8222C67.3325 -12.602 70.476 -15.0422 74.0056 -17.5397C77.287 -19.8651 80.3753 -21.932 83.4637 -23.8267C94.7142 -30.8027 106.13 -35.5395 115.561 -37.1471C116.802 -37.348 118.263 -37.5777 119.642 -37.6064C119.77 -37.6064 119.899 -37.6064 120.028 -37.6064C126.315 -37.6064 134.118 -35.4247 143.163 -31.1759ZM119.669 -37.0323C119.651 -37.0323 119.642 -37.0323 119.642 -37.0323C118.401 -37.0036 117.077 -36.8026 115.643 -36.5729C105.91 -34.9079 94.4936 -29.9988 83.7394 -23.3386C80.5959 -21.4152 77.48 -19.3196 74.3365 -17.0804C70.7518 -14.5254 67.4979 -12.0278 65.2368 -10.2766C65.1817 -10.2383 65.1265 -10.1905 65.0714 -10.1331C61.983 -7.80772 59.2807 -5.74079 57.185 -3.98962C52.1388 0.316546 47.8372 5.16819 44.4179 10.6801C40.6402 16.7661 38.0206 23.5985 36.6694 31.3209C35.8697 35.7993 35.5664 40.5075 35.594 45.4165C35.6216 50.2968 35.5388 55.6364 36.173 61.5789C36.6418 67.3205 37.5242 72.4017 38.7651 77.3394C39.1787 79.0906 39.6199 80.8419 40.1714 82.593C42.4049 90.0571 45.3554 93.8178 49.9053 99.6742C52.5524 103.062 54.4827 110.009 59.777 115.492C63.8305 119.741 69.1524 123.071 75.7152 125.396C78.9414 126.573 82.3883 127.492 86.0557 128.095C92.2049 129.157 98.6574 129.731 105.358 129.731C107.343 129.731 109.66 129.76 111.948 129.76C114.21 129.76 116.415 129.76 118.373 129.76C118.631 129.76 118.879 129.76 119.118 129.76C121.655 129.76 123.475 129.76 125.377 129.702C148.981 129.013 170.379 121.09 181.712 111.1C185.849 107.454 192.356 103.062 194.48 93.5306C194.921 91.6646 195.307 89.7126 195.5 87.6169C196.299 85.5499 199.029 81.9901 200.243 75.6457C200.298 75.2725 200.381 74.8993 200.463 74.4974C201.649 68.2391 202.614 60.287 202.862 52.9666C203.028 48.5456 202.945 44.2681 202.724 41.2824C202.338 36.1151 201.539 29.1966 198.533 21.4455C196.492 16.2207 193.68 11.2829 190.205 6.51745C187.641 3.0151 184.718 -0.372524 181.464 -3.50167C178.348 -6.45857 175.012 -9.07089 172.447 -11.1666C170.297 -12.889 167.236 -15.444 163.734 -18.0564C160.314 -20.6114 156.895 -22.9367 153.421 -25.0611C149.974 -27.1568 146.417 -29.0228 142.942 -30.6591C134.835 -34.4772 126.866 -37.0323 120.028 -37.0323C119.899 -37.0323 119.78 -37.0323 119.669 -37.0323Z" fill="#313131" fill-opacity="0.36"/>
</g>
<g opacity="0.9">
<path fill-rule="evenodd" clip-rule="evenodd" d="M140.598 -21.8741C143.934 -20.2377 147.078 -18.4865 149.973 -16.6779C153.006 -14.7832 156.04 -12.6875 159.211 -10.3335C161.775 -8.41007 164.091 -6.51533 165.939 -4.99382C166.307 -4.6876 166.665 -4.40053 167.014 -4.13259C167.345 -3.84551 167.695 -3.55843 168.062 -3.27135C170.268 -1.49147 172.805 0.546778 175.121 2.75728C177.851 5.31227 180.388 8.15431 182.677 11.1973C185.903 15.4461 188.302 19.5512 190.067 23.7713C192.797 30.3166 193.624 36.2018 194.038 40.6228C194.286 43.4649 194.369 47.5414 194.258 51.5317C194.065 57.9623 193.293 65.4837 192.218 71.6559C192.181 71.8473 192.144 72.0291 192.107 72.2013C192.071 72.3736 192.043 72.5458 192.025 72.718C191.197 77.3687 189.46 80.3257 188.33 82.3065C187.971 82.9094 187.668 83.426 187.53 83.7992C187.392 85.8662 187.061 87.7323 186.758 89.3112C185.131 97.5503 179.919 101.569 176.086 104.469C175.553 104.89 175.048 105.292 174.57 105.675C169.662 109.636 162.189 113.282 153.503 115.952C144.183 118.794 133.842 120.43 123.612 120.689C121.902 120.746 120.275 120.746 118.18 120.746H117.352C115.67 120.746 113.795 120.746 111.865 120.717H111.644C109.604 120.717 107.563 120.717 105.771 120.717C100.008 120.717 94.2171 120.258 88.5092 119.397C85.2829 118.909 82.1394 118.134 79.1613 117.129C73.2328 115.091 68.4072 112.048 64.8225 108.115C61.8444 104.842 60.2175 101.081 58.8939 98.0383C58.1218 96.2297 57.4324 94.6508 56.6603 93.6747C56.3846 93.3302 56.118 92.9953 55.8607 92.6699C52.1932 87.9906 49.7666 84.9189 47.9191 78.431C47.4504 76.7659 47.0643 75.1295 46.761 73.7228C45.7132 69.1583 45.079 64.6799 44.7205 59.6847C44.3069 55.436 44.2793 51.5031 44.2793 47.7137C44.2793 46.9098 44.2701 46.1251 44.2517 45.3596C44.2241 40.8525 44.5275 36.8621 45.1617 33.1588C46.3198 26.4986 48.4982 20.6422 51.8623 15.2739C54.7577 10.6806 58.4251 6.54665 63.0577 2.6998C64.85 1.207 67.2215 -0.60156 70.1995 -2.86947L70.3098 -2.95554L70.365 -3.01301L70.4753 -3.09908C72.571 -4.70671 75.4387 -6.88853 78.5823 -9.15645C81.5327 -11.2808 84.3178 -13.1469 87.1029 -14.9267C97.4709 -21.4721 107.701 -25.9505 115.946 -27.5294C117.077 -27.7304 118.4 -27.9601 119.641 -27.9888C119.751 -27.9888 119.871 -27.9888 119.999 -27.9888C125.404 -27.9888 132.353 -25.9219 140.598 -21.8741ZM119.641 -27.4146C118.538 -27.3859 117.325 -27.2136 116.029 -26.9553C107.508 -25.3189 97.1401 -20.6108 87.3786 -14.4386C84.5384 -12.6301 81.7258 -10.7353 78.8856 -8.69709C75.6869 -6.40047 72.7916 -4.13256 70.6959 -2.52492C70.6407 -2.48665 70.5856 -2.4484 70.5304 -2.41012C67.6626 -0.257039 65.2361 1.60894 63.3886 3.15916C59.0042 6.80504 55.2816 10.8815 52.3311 15.5896C49.1049 20.757 46.8713 26.5846 45.7132 33.2448C45.0514 37.063 44.7756 41.1108 44.8032 45.3308C44.8584 49.7805 44.7756 54.5174 45.272 59.6274C45.6304 64.7661 46.2923 69.2444 47.2849 73.608C47.6434 75.1582 48.0294 76.7085 48.4706 78.2587C50.4009 85.0912 52.9653 88.048 57.074 93.3015C59.2248 96.0288 60.4932 102.546 65.2085 107.713C68.6829 111.531 73.3706 114.517 79.3543 116.584C82.1945 117.56 85.2829 118.335 88.5919 118.823C94.0241 119.655 99.8148 120.143 105.771 120.143C107.563 120.143 109.604 120.143 111.644 120.143C113.657 120.172 115.615 120.172 117.352 120.172C117.646 120.172 117.922 120.172 118.18 120.172C120.33 120.172 121.93 120.172 123.584 120.115C145.065 119.569 164.588 113.024 174.211 105.244C178.017 102.144 184.414 98.3829 186.206 89.1964C186.565 87.4739 186.868 85.6366 186.978 83.6844C187.613 82.0194 190.37 78.8041 191.473 72.6032C191.528 72.2587 191.593 71.9047 191.666 71.5411C192.686 65.8283 193.486 58.3355 193.707 51.5317C193.817 47.3404 193.734 43.3214 193.486 40.6803C193.072 36.2306 192.245 30.4603 189.571 24.001C187.751 19.6949 185.269 15.5609 182.263 11.5705C180.03 8.64228 177.548 5.82898 174.763 3.15916C172.088 0.661582 169.11 -1.6924 166.656 -3.67324C164.698 -5.28087 161.968 -7.54878 158.88 -9.84541C155.847 -12.142 152.786 -14.2664 149.67 -16.1898C146.609 -18.1133 143.466 -19.8357 140.377 -21.3572C133.07 -24.9457 125.928 -27.4146 119.999 -27.4146C119.871 -27.4146 119.751 -27.4146 119.641 -27.4146Z" fill="#313131" fill-opacity="0.36"/>
</g>
<g opacity="0.9">
<path fill-rule="evenodd" clip-rule="evenodd" d="M138.035 -12.5729C140.958 -11.0514 143.715 -9.44373 146.224 -7.83609C148.872 -6.14233 151.602 -4.21894 154.359 -2.12327C156.648 -0.400807 158.716 1.29298 160.37 2.64224C160.683 2.89105 160.968 3.13028 161.225 3.35994C161.556 3.60874 161.887 3.86703 162.218 4.13496C164.203 5.77131 166.464 7.60858 168.422 9.41717C170.656 11.4841 172.779 13.8095 174.737 16.2497C177.494 19.7233 179.59 23.0248 181.106 26.3262C183.588 31.6945 184.36 36.4599 184.774 39.9909C185.077 42.4311 185.188 46.2206 185.105 50.0961C184.967 55.9238 184.305 63.0433 183.423 68.6987C183.386 68.8901 183.349 69.0911 183.312 69.3016C183.294 69.4356 183.276 69.5601 183.257 69.6749C182.485 74.3255 180.693 77.1101 179.645 78.7752C179.342 79.2345 179.121 79.579 178.983 79.8374C178.956 81.4163 178.818 82.9952 178.487 84.9473C177.163 92.9855 172.117 96.4018 168.422 98.8993C167.926 99.2151 167.457 99.531 167.043 99.818C158.302 106.105 139.717 110.727 121.821 111.1C120.359 111.129 118.925 111.158 117.271 111.158H116.361C114.872 111.129 113.3 111.129 111.673 111.129H111.315C109.55 111.129 107.758 111.129 106.186 111.129C101.167 111.129 96.066 110.784 91.0474 110.124C88.1797 109.751 85.3946 109.148 82.8026 108.287C77.5358 106.564 73.2893 103.894 70.2561 100.306C67.5813 97.2056 66.3129 93.5597 65.4029 90.8899C64.8514 89.3397 64.3827 87.9904 63.8588 87.3014C63.3992 86.7464 62.9764 86.2201 62.5903 85.7225C59.6398 82.0479 57.7096 79.6364 56.2206 74.0671C55.9172 72.8614 55.6139 71.5983 55.283 69.962C54.5385 66.1725 54.0697 62.297 53.8216 57.7324C53.5458 54.3736 53.5182 51.1583 53.5182 48.0291C53.4907 47.1105 53.4907 46.1919 53.4907 45.2733C53.4355 41.5413 53.6561 38.2111 54.18 35.1106C55.1176 29.5126 56.9651 24.6323 59.8053 20.1826C62.2043 16.4219 65.3202 13.0345 69.2634 9.81919C70.78 8.58475 72.9309 6.91962 75.6608 4.85266L75.771 4.76659L75.7986 4.73786L75.9365 4.62305C77.8116 3.18766 80.376 1.23545 83.1611 -0.774092C85.7531 -2.66881 88.29 -4.41989 90.7165 -5.99882C100.23 -12.171 109.302 -16.391 116.306 -17.9125C117.326 -18.1422 118.512 -18.3719 119.615 -18.4006C119.725 -18.4006 119.835 -18.4006 119.946 -18.4006C124.578 -18.4006 130.507 -16.4771 138.035 -12.5729ZM119.642 -17.8265C119.642 -17.8265 119.633 -17.8265 119.615 -17.8265C118.65 -17.7978 117.574 -17.5968 116.416 -17.3671C109.081 -15.7595 99.761 -11.195 91.0199 -5.51087C88.483 -3.86496 85.9645 -2.1329 83.4644 -0.31474C80.6518 1.72351 78.0597 3.73311 76.1295 5.19721C76.0927 5.23548 76.0468 5.27373 75.9916 5.31201C73.372 7.29285 71.1661 8.98655 69.5943 10.2784C65.8993 13.2927 62.7558 16.6228 60.274 20.4984C57.5441 24.7471 55.6691 29.5414 54.7315 35.1968C54.2076 38.3547 53.987 41.7135 54.0422 45.2733C54.0973 49.2924 54.0146 53.3688 54.373 57.675C54.6212 62.2108 55.0624 66.0863 55.8345 69.847C56.1103 71.225 56.4136 72.5456 56.7721 73.9236C58.399 80.1245 60.5774 82.2775 64.2724 86.9281C65.8717 88.9664 66.5059 95.0812 70.6697 99.9328C73.5375 103.292 77.591 105.99 82.9681 107.741C85.4774 108.545 88.1797 109.177 91.1026 109.55C95.873 110.182 100.947 110.555 106.186 110.555C107.758 110.555 109.55 110.555 111.315 110.555C113.08 110.555 114.789 110.555 116.361 110.583C116.674 110.583 116.977 110.583 117.271 110.583C119.008 110.583 120.387 110.555 121.793 110.526C141.178 110.124 158.881 105.014 166.74 99.3587C170.214 96.8611 176.474 93.732 177.935 84.8613C178.211 83.2536 178.404 81.5599 178.459 79.7226C178.928 78.4595 181.713 75.6173 182.706 69.5887C182.761 69.2633 182.816 68.938 182.871 68.6126C183.699 63.3878 184.388 56.3544 184.553 50.0961C184.636 46.1058 184.498 42.4025 184.222 40.0771C183.809 36.3451 182.954 31.6945 180.61 26.5845C179.038 23.1396 176.888 19.8381 174.296 16.6228C172.448 14.2688 170.352 12.0009 168.036 9.84778C165.803 7.75212 163.183 5.68527 160.894 3.79056C159.102 2.35517 156.703 0.345623 154.028 -1.66392C151.353 -3.67346 148.679 -5.59697 145.949 -7.34814C143.246 -9.07061 140.489 -10.6495 137.787 -12.0562C131.279 -15.4437 124.992 -17.8265 119.946 -17.8265C119.854 -17.8265 119.753 -17.8265 119.642 -17.8265Z" fill="#313131" fill-opacity="0.36"/>
</g>
<path fill-rule="evenodd" clip-rule="evenodd" d="M135.497 -3.24235C137.979 -1.86438 140.323 -0.429015 142.501 1.03508C144.762 2.52789 147.106 4.22164 149.505 6.05894C151.518 7.60916 153.365 9.13064 154.854 10.3364L155.461 10.8245L156.344 11.5422C158.191 13.0637 160.121 14.6425 161.693 16.0779C163.458 17.6569 165.167 19.4368 166.767 21.2741C169.083 23.9726 170.848 26.4701 172.116 28.8529C172.116 28.872 172.116 28.8816 172.116 28.8816C173.853 32.1256 174.956 35.4844 175.536 39.36C175.839 41.4269 176.004 44.9005 175.922 48.6612C175.839 55.0057 175.205 61.6372 174.626 65.7424C174.589 65.9912 174.552 66.2304 174.515 66.4601L174.488 66.6323C173.771 71.3404 171.84 73.9816 170.903 75.2734C170.737 75.5031 170.544 75.7613 170.462 75.9049C170.517 77.3977 170.434 78.8906 170.214 80.5843C169.193 88.5364 164.009 91.4359 160.59 93.3593C160.204 93.589 159.845 93.7994 159.515 93.9908C153.724 97.4357 137.924 101.254 120.028 101.512C119.007 101.541 117.932 101.541 116.443 101.541C116.094 101.541 115.726 101.541 115.34 101.541C114.016 101.541 112.638 101.541 111.204 101.541H111.011C109.494 101.541 107.977 101.541 106.599 101.512C102.297 101.512 97.9402 101.283 93.5834 100.852C91.0741 100.622 88.6751 100.134 86.4416 99.474C81.809 98.0386 78.1967 95.7133 75.6599 92.4981C73.2884 89.4837 72.4612 86.0675 71.8821 83.5699C71.5788 82.3642 71.3306 81.3307 71.0273 80.9575C70.4758 80.2398 69.9519 79.6369 69.4831 79.0627C67.1668 76.2781 65.6502 74.4695 64.5197 69.7327C64.2715 68.6418 64.0509 67.5223 63.8303 66.2017C63.334 63.2161 63.0582 60.0009 62.9203 55.7521C62.7824 53.3694 62.7549 50.9578 62.7549 48.6325C62.7273 47.5129 62.7273 46.3646 62.6997 45.1876C62.6446 42.2594 62.81 39.5322 63.2236 37.0346C63.9406 32.4988 65.4296 28.5945 67.7459 25.0921C69.6486 22.1927 72.1854 19.5229 75.4668 16.9392C76.8456 15.8483 78.9412 14.2693 81.1196 12.5755L81.2024 12.5182L81.2575 12.4895L81.423 12.3459C83.1877 10.9966 85.3386 9.3316 87.71 7.60913C89.9987 5.91537 92.2322 4.36521 94.3555 2.92982C102.986 -2.86915 110.9 -6.85956 116.663 -8.29494C117.932 -8.61073 118.814 -8.78306 119.614 -8.81177C119.706 -8.81177 119.807 -8.81177 119.917 -8.81177C123.695 -8.81177 128.796 -6.97436 135.497 -3.24235ZM119.614 -8.23761C118.787 -8.2089 117.849 -8.00789 116.801 -7.74952C110.652 -6.1993 102.407 -1.77834 94.6588 3.41777C92.4253 4.91057 90.2193 6.46085 88.0409 8.06849C85.5867 9.87707 83.3256 11.5995 81.5884 12.9488C81.5333 12.9871 81.4873 13.0157 81.4506 13.0349C79.0791 14.8435 77.1213 16.3363 75.7977 17.3985C72.7921 19.7813 70.2 22.3649 68.1871 25.4079C66.0087 28.7093 64.4921 32.5274 63.7476 37.1494C63.3615 39.6183 63.1961 42.3168 63.2512 45.1876C63.334 48.776 63.2512 52.221 63.4718 55.7234C63.5821 59.6563 63.8303 62.9289 64.3818 66.1155C64.5748 67.2638 64.7954 68.4122 65.0712 69.5892C66.3947 75.1585 68.1871 76.4791 71.4409 80.5843C72.5163 81.9336 72.5439 87.6177 76.1011 92.1535C78.3898 95.0817 81.809 97.4645 86.607 98.8998C88.7303 99.5601 91.0465 100.019 93.6386 100.278C97.6921 100.708 102.076 100.938 106.599 100.938C107.977 100.967 109.494 100.967 111.011 100.967C112.5 100.967 113.961 100.967 115.34 100.967C115.726 100.967 116.094 100.967 116.443 100.967C117.739 100.967 118.869 100.967 120.028 100.938C137.262 100.708 153.228 97.0913 159.239 93.5028C162.438 91.5794 168.559 89.0531 169.662 80.5269C169.855 79.0628 169.965 77.4838 169.91 75.7613C170.241 74.9288 173.054 72.4312 173.964 66.5461C174.001 66.259 174.037 65.9625 174.074 65.6563C174.736 60.9769 175.287 54.4028 175.37 48.6325C175.453 44.9005 175.287 41.4843 174.984 39.4748C174.543 36.4604 173.688 32.9581 171.647 29.14C170.296 26.585 168.476 24.1448 166.353 21.6472C164.836 19.9247 163.182 18.1736 161.335 16.5085C159.515 14.8435 157.253 13.0348 155.103 11.2837C153.503 9.96311 151.463 8.26947 149.174 6.51829C146.885 4.76712 144.569 3.07336 142.198 1.49443C139.909 -0.027078 137.538 -1.46255 135.221 -2.7544C129.513 -5.94096 124.026 -8.23761 119.917 -8.23761C119.825 -8.23761 119.724 -8.23761 119.614 -8.23761Z" fill="#313131" fill-opacity="0.36"/>
<path fill-rule="evenodd" clip-rule="evenodd" d="M132.959 6.05854C134.944 7.29297 136.902 8.55606 138.777 9.87661C140.652 11.1972 142.61 12.6613 144.65 14.2403C146.415 15.6469 148.097 17.0249 149.448 18.1158L149.669 18.3167L150.193 18.7187C151.985 20.2115 153.695 21.6181 154.963 22.709C156.259 23.8574 157.555 25.0631 158.769 26.2975C160.754 28.3071 162.105 29.8572 163.126 31.3787C164.725 33.7327 165.773 36.1442 166.297 38.7279C166.628 40.393 166.793 43.4073 166.765 47.1967C166.71 52.9957 166.241 59.1966 165.855 62.7564C165.8 63.0722 165.773 63.3879 165.745 63.6176C165.083 68.4405 162.933 70.8807 162.105 71.7993C162.05 71.8567 161.995 71.9142 161.94 71.9716C162.078 73.407 162.05 74.7849 161.94 76.2203C161.223 84.3733 155.515 86.6986 152.454 87.9617C152.289 88.0192 152.123 88.0862 151.958 88.1627C147.794 89.8852 133.235 91.8373 118.234 91.9521C117.517 91.9521 116.745 91.9521 115.807 91.9521C115.329 91.9521 114.833 91.9521 114.318 91.9521H111.175L110.706 91.9235C109.438 91.9235 108.197 91.9235 107.011 91.9235C103.454 91.9235 99.7864 91.8086 96.1189 91.5789C93.9681 91.4641 91.9276 91.1484 90.1076 90.6316C86.1093 89.5408 83.0761 87.5312 81.0907 84.6891C78.9399 81.6174 78.609 78.0864 78.3884 75.9907C78.3332 75.3878 78.2781 74.7563 78.1954 74.5553C77.5887 73.8089 77.0372 73.1773 76.5409 72.6318C74.721 70.5936 73.618 69.3592 72.8183 65.3688C72.6253 64.4502 72.4874 63.474 72.3495 62.4406C72.0462 59.7707 72.0186 57.0435 72.0186 53.7995C71.991 52.5651 71.9911 51.302 71.9911 49.9814C71.9635 48.4312 71.9635 46.8236 71.9083 45.1298C71.8532 42.9193 71.9635 40.8523 72.2392 38.9863C72.7632 35.4839 73.8937 32.527 75.6585 29.9721C77.0924 27.9338 79.0226 26.0391 81.6698 24.0582C82.8279 23.197 84.703 21.7617 86.5781 20.2976L86.6608 20.2689L86.6884 20.2401L86.9917 20.0105C88.4807 18.8622 90.3282 17.4555 92.286 15.9627C94.2714 14.4986 96.2017 13.1206 97.994 11.8574C102.516 8.69957 111.009 3.13034 117.021 1.32176C118.096 0.977262 118.896 0.833639 119.585 0.804932C119.677 0.804932 119.769 0.804932 119.861 0.804932C122.811 0.804932 127.113 2.52748 132.959 6.05854ZM119.613 1.37909C118.896 1.40779 118.096 1.5801 117.158 1.86718C112.195 3.35998 105.026 7.63744 98.2973 12.3455C96.3671 13.6948 94.4645 15.0727 92.617 16.4507C90.5213 18.0009 88.591 19.4938 87.0193 20.6995C86.9825 20.7186 86.9457 20.7473 86.909 20.7856C84.7857 22.3932 83.0761 23.7138 82.0007 24.5176C79.6568 26.2687 77.6715 28.1061 76.0997 30.3166C74.4452 32.6993 73.3146 35.484 72.7907 39.0725C72.515 40.9098 72.4047 42.9193 72.4598 45.1011C72.5425 48.259 72.515 51.101 72.5701 53.7995C72.5701 57.1009 72.5977 59.7708 72.901 62.3545C73.0113 63.3306 73.1768 64.2778 73.3698 65.2539C74.3625 70.1629 75.7964 70.7084 78.6366 74.2107C79.1881 74.8997 78.5814 80.1245 81.5319 84.3445C83.2691 86.8421 86.0266 88.9091 90.2455 90.0861C91.9827 90.5741 93.9405 90.89 96.1741 91.0048C99.5382 91.2057 103.206 91.3493 107.011 91.3493C108.197 91.3493 109.438 91.3493 110.706 91.3493C111.919 91.378 113.133 91.3779 114.318 91.3779C114.833 91.3779 115.329 91.3779 115.807 91.3779C116.662 91.3779 117.434 91.3779 118.234 91.3779C133.345 91.2631 147.684 89.3111 151.765 87.6173C154.715 86.3829 160.671 84.3732 161.388 76.1628C161.499 74.8423 161.526 73.407 161.388 71.7993C161.554 71.3974 164.394 69.2155 165.194 63.5314C165.23 63.2635 165.267 62.986 165.304 62.6989C165.745 58.565 166.159 52.4502 166.214 47.1967C166.241 43.6657 166.076 40.5365 165.745 38.8427C165.276 36.5461 164.394 34.2208 162.684 31.7233C161.554 30.0295 160.092 28.4219 158.383 26.6994C157.252 25.5511 155.984 24.3454 154.605 23.1684C153.226 21.9627 151.351 20.4123 149.338 18.7473C147.904 17.599 146.195 16.1637 144.32 14.6996C142.417 13.2355 140.459 11.7427 138.474 10.3647C136.543 9.01544 134.586 7.72353 132.655 6.57522C127.747 3.56091 123.087 1.37909 119.861 1.37909C119.769 1.37909 119.686 1.37909 119.613 1.37909Z" fill="#313131" fill-opacity="0.36"/>
<path fill-rule="evenodd" clip-rule="evenodd" d="M145.397 27.0433C146.61 28.0481 147.575 28.8231 148.237 29.3685C149.285 30.2011 150.278 30.9188 151.16 31.5791C154.11 33.7609 156.261 35.3686 157.033 38.0958C158.054 41.6269 157.502 54.2295 157.061 59.7988C156.647 65.0523 154.304 67.4063 153.449 68.124C154.083 72.5737 153.394 76.1048 151.436 78.6311C149.45 81.1861 146.445 82.2195 144.294 82.3344C143.329 82.3631 140.268 82.3918 134.643 82.3918C129.79 82.3918 123.778 82.3631 117.409 82.3631C110.928 82.3344 104.2 82.3344 98.6853 82.3344C93.2807 82.3344 89.365 80.7842 87.1315 77.7986C84.3189 74.0666 84.9807 69.3011 85.2288 68.038C84.7325 67.4925 84.2913 67.0906 83.9328 66.7174C82.4714 65.282 81.6441 64.5069 81.1202 61.0046C80.7617 58.7079 80.872 56.6409 81.0099 54.0572C81.1478 51.7606 81.2856 48.9186 81.1478 45.043C80.8169 36.6603 83.7398 33.9905 87.9036 31.1485C88.8135 30.5456 90.6059 29.1676 92.867 27.4165C101.002 21.1582 114.651 10.6512 119.559 10.3928C119.633 10.3928 119.716 10.3928 119.808 10.3928C125.35 10.3928 138.393 21.2156 145.397 27.0433ZM119.587 10.967C113.465 11.2828 92.3431 28.8232 88.2069 31.6366C84.0707 34.4499 81.3684 36.9187 81.6993 45.043C82.0026 53.1386 81.0099 56.6123 81.6717 60.9185C82.3335 65.1959 83.271 65.0523 85.8079 67.8657C85.8079 67.8657 82.4714 81.7602 98.6853 81.7602C109.495 81.7602 124.743 81.8177 134.643 81.8177C139.606 81.8177 143.218 81.7889 144.266 81.7602C147.465 81.588 154.607 79.0904 152.842 67.8657C152.842 67.8657 156.041 65.8849 156.509 59.7414C156.978 53.6267 157.447 41.5695 156.509 38.2394C155.544 34.938 152.484 33.4451 147.906 29.8279C143.384 26.2107 126.095 10.967 119.808 10.967C119.734 10.967 119.66 10.967 119.587 10.967Z" fill="#313131" fill-opacity="0.36"/>
</g>
</g>
<path d="M127.957 60.0201C127.421 58.588 126.458 57.3548 125.199 56.4869C123.94 55.6191 122.445 55.1583 120.916 55.1668H112.249C111.247 55.1451 110.251 55.3258 109.32 55.6981C108.389 56.0704 107.543 56.6266 106.832 57.3334C106.096 58.0783 105.527 58.9722 105.164 59.9551C103.729 60.5106 102.498 61.4906 101.634 62.7643C100.771 64.038 100.317 65.5448 100.332 67.0834C100.332 67.3708 100.447 67.6463 100.65 67.8495C100.853 68.0526 101.128 68.1668 101.416 68.1668H131.749C132.036 68.1668 132.312 68.0526 132.515 67.8495C132.718 67.6463 132.832 67.3708 132.832 67.0834C132.825 65.5522 132.356 64.0587 131.486 62.7984C130.617 61.5381 129.387 60.5698 127.957 60.0201ZM112.249 57.3334H120.916C121.757 57.33 122.588 57.5243 123.34 57.9007C124.093 58.277 124.747 58.8249 125.249 59.5001H107.916C108.041 59.2914 108.186 59.0954 108.349 58.9151C108.861 58.4056 109.47 58.0033 110.14 57.7317C110.81 57.4602 111.527 57.3248 112.249 57.3334ZM102.607 66.0001C102.857 64.7766 103.522 63.677 104.489 62.8874C105.457 62.0977 106.667 61.6665 107.916 61.6668H125.249C126.516 61.6412 127.752 62.0609 128.742 62.8526C129.732 63.6444 130.413 64.7582 130.666 66.0001H102.607Z" fill="#B12424"/>
<path d="M138.285 38.7079L129.997 38.6926C129.197 38.7323 128.44 39.0679 127.874 39.6342C127.308 40.2004 126.972 40.9569 126.932 41.7567L122.796 41.7567L122.796 39.3361L123.24 39.3207C123.382 39.3252 123.524 39.3006 123.656 39.2483C123.788 39.196 123.908 39.1171 124.009 39.0166C124.109 38.9161 124.188 38.7961 124.24 38.664C124.292 38.5318 124.317 38.3903 124.313 38.2483L124.328 34.2802C124.322 33.4207 123.978 32.5982 123.37 31.9904C122.762 31.3827 121.939 31.0385 121.08 31.0323L113.144 31.0323C112.284 31.0385 111.462 31.3827 110.854 31.9904C110.246 32.5982 109.902 33.4207 109.896 34.2802L109.911 38.2483C109.907 38.3903 109.931 38.5318 109.984 38.664C110.036 38.7961 110.115 38.9161 110.215 39.0166C110.316 39.1171 110.436 39.196 110.568 39.2483C110.7 39.3006 110.842 39.3252 110.984 39.3207L111.428 39.3361L111.428 46.3529L110.984 46.3682C110.842 46.3637 110.7 46.3884 110.568 46.4407C110.436 46.493 110.316 46.5718 110.215 46.6723C110.115 46.7728 110.036 46.8928 109.984 47.025C109.931 47.1572 109.907 47.2986 109.911 47.4407L109.896 51.4087C109.902 52.2682 110.246 53.0908 110.854 53.6985C111.462 54.3063 112.284 54.6505 113.144 54.6567L121.08 54.6567C121.938 54.645 122.757 54.299 123.364 53.6924C123.97 53.0858 124.316 52.2665 124.328 51.4087L124.313 47.4407C124.317 47.2986 124.292 47.1572 124.24 47.025C124.188 46.8928 124.109 46.7728 124.009 46.6723C123.908 46.5718 123.788 46.493 123.656 46.4407C123.524 46.3884 123.382 46.3637 123.24 46.3682L122.796 46.3529V43.9322L126.795 43.9169C126.817 44.7429 127.155 45.529 127.739 46.1133C128.323 46.6975 129.109 47.0355 129.935 47.0577L138.224 47.0423C138.938 47.0503 139.646 46.9147 140.307 46.6436C140.967 46.3726 141.567 45.9715 142.069 45.4643L142.33 45.2039C142.645 44.9051 142.897 44.5463 143.071 44.1486C143.245 43.7508 143.338 43.3222 143.343 42.8881C143.349 42.4539 143.268 42.023 143.104 41.6208C142.941 41.2186 142.698 40.8533 142.391 40.5464L142.131 40.2859C141.628 39.7787 141.029 39.3777 140.368 39.1066C139.707 38.8355 138.999 38.6999 138.285 38.7079ZM112.071 34.2802C112.074 33.9967 112.188 33.7256 112.389 33.525C112.589 33.3245 112.86 33.2106 113.144 33.2078L121.08 33.2078C121.364 33.2106 121.635 33.3245 121.835 33.525C122.036 33.7256 122.15 33.9967 122.152 34.2802L122.152 37.1605L112.071 37.1605L112.071 34.2802ZM122.152 51.4087C122.15 51.6923 122.036 51.9634 121.835 52.1639C121.635 52.3644 121.364 52.4783 121.08 52.4812L113.144 52.4812C112.86 52.4783 112.589 52.3644 112.389 52.1639C112.188 51.9634 112.074 51.6923 112.071 51.4087L112.071 48.5284L122.152 48.5284V51.4087ZM113.603 46.3529L113.603 39.3361L120.62 39.3361L120.62 46.3529L113.603 46.3529ZM140.859 42.0784C141.062 42.2816 141.176 42.5572 141.176 42.8445C141.176 43.1318 141.062 43.4074 140.859 43.6105L140.598 43.871C139.982 44.4811 139.152 44.8273 138.285 44.8362L129.997 44.8208C129.713 44.818 129.442 44.7041 129.241 44.5036C129.041 44.3031 128.927 44.032 128.924 43.7484L128.924 41.9406C128.92 41.7985 128.944 41.657 128.997 41.5249C129.049 41.3927 129.128 41.2727 129.228 41.1722C129.329 41.0717 129.449 40.9929 129.581 40.9406C129.713 40.8883 129.855 40.8636 129.997 40.8681L138.285 40.8528C139.152 40.8616 139.982 41.2078 140.598 41.818L140.859 42.0784Z" fill="#B12424"/>
</g>
<defs>
<clipPath id="clip0_6420_30884">
<rect width="350" height="91" rx="16" fill="white"/>
</clipPath>
</defs>
</svg>
