<svg width="56" height="41" viewBox="0 0 56 41" fill="none" xmlns="http://www.w3.org/2000/svg">
    <path
        d="M0 20.2856C0 9.23995 8.95431 0.285645 20 0.285645H36C47.0457 0.285645 56 9.23995 56 20.2856C56 31.3313 47.0457 40.2856 36 40.2856H20C8.95431 40.2856 0 31.3313 0 20.2856Z"
        fill="#FAFAFA" />
    <path
        d="M19 18.2856C19 14.5144 19 12.6288 20.1716 11.4572C21.3431 10.2856 23.2288 10.2856 27 10.2856H29C32.7712 10.2856 34.6569 10.2856 35.8284 11.4572C37 12.6288 37 14.5144 37 18.2856V22.2856C37 26.0569 37 27.9425 35.8284 29.1141C34.6569 30.2856 32.7712 30.2856 29 30.2856H27C23.2288 30.2856 21.3431 30.2856 20.1716 29.1141C19 27.9425 19 26.0569 19 22.2856V18.2856Z"
        stroke="#292927" stroke-width="1.5" />
    <path d="M24 20.2856H32" stroke="#292927" stroke-width="1.5" stroke-linecap="round" />
    <path d="M24 16.2856H32" stroke="#292927" stroke-width="1.5" stroke-linecap="round" />
    <path d="M24 24.2856H29" stroke="#292927" stroke-width="1.5" stroke-linecap="round" />
</svg>