<svg width="56" height="41" viewBox="0 0 56 41" fill="none" xmlns="http://www.w3.org/2000/svg">
<path d="M0 20.2856C0 9.23995 8.95431 0.285645 20 0.285645H36C47.0457 0.285645 56 9.23995 56 20.2856C56 31.3313 47.0457 40.2856 36 40.2856H20C8.95431 40.2856 0 31.3313 0 20.2856Z" fill="#FAFAFA"/>
<path fill-rule="evenodd" clip-rule="evenodd" d="M34.9422 16.3363C35.1011 16.1774 35.1804 15.9556 35.1582 15.732C35.1361 15.5084 35.0149 15.3065 34.8279 15.1819L26.3426 9.52504C26.0451 9.32671 25.6487 9.36622 25.3959 9.61907L24.3356 10.6794C24.195 10.82 24.1159 11.0108 24.1159 11.2097C24.1159 11.4086 24.1949 11.5994 24.3356 11.7401C26.0105 13.415 26.742 14.9817 27.0616 16.1004C27.2221 16.6622 27.2803 17.1166 27.2994 17.4216C27.3037 17.4916 27.3061 17.5537 27.3071 17.6074L26.1285 18.786C26.12 18.7938 26.1116 18.8018 26.1034 18.81L17.6181 27.2953C17.4775 27.4359 17.3984 27.6267 17.3984 27.8256C17.3984 28.0245 17.4775 28.2153 17.6181 28.3559L19.7394 30.4773C20.0323 30.7702 20.5072 30.7702 20.8001 30.4773L29.2602 22.0171C29.2687 22.0094 29.2771 22.0014 29.2853 21.9931L30.5228 20.7557L30.8763 21.1092L30.346 21.6396C30.0531 21.9325 30.0531 22.4073 30.346 22.7002L32.8209 25.1751C33.1138 25.468 33.5886 25.468 33.8815 25.1751L38.8313 20.2254C39.1242 19.9325 39.1242 19.4576 38.8313 19.1647L36.3564 16.6898C36.0635 16.3969 35.5886 16.3969 35.2958 16.6898L34.7654 17.2201L34.4119 16.8666L34.9422 16.3363ZM27.6938 21.4622L26.6331 20.4016L19.2091 27.8256L20.2698 28.8863L27.6938 21.4622ZM25.9137 11.2227L26.0222 11.1142L33.2346 15.9225L32.8209 16.3363C32.528 16.6292 32.528 17.104 32.8209 17.3969L34.2351 18.8111C34.528 19.104 35.0029 19.104 35.2958 18.8111L35.8261 18.2808L37.2403 19.695L33.3512 23.5841L31.937 22.1699L32.4673 21.6396C32.7602 21.3467 32.7602 20.8718 32.4673 20.5789L31.0531 19.1647C30.7602 18.8718 30.2853 18.8718 29.9925 19.1647L28.755 20.4021L27.6944 19.3415L28.5782 18.4576C28.6987 18.3372 28.7746 18.1784 28.7934 18.0092L28.7935 18.0082L28.7938 18.0059L28.7943 18.0006L28.7957 17.9864C28.7967 17.9754 28.7979 17.9612 28.7991 17.9441C28.8016 17.9098 28.8042 17.8634 28.8059 17.8057C28.8093 17.6902 28.809 17.5291 28.7965 17.328C28.7713 16.9259 28.6969 16.3639 28.5039 15.6883C28.1543 14.4646 27.4204 12.8862 25.9137 11.2227ZM28.0479 17.9273L28.7934 18.0092C28.7934 18.0096 28.7933 18.0101 28.0479 17.9273Z" fill="#292927"/>
</svg>
