<svg width="44" height="44" viewBox="0 0 44 44" fill="none" xmlns="http://www.w3.org/2000/svg">
<g clip-path="url(#clip0_4756_59449)">
<circle cx="22" cy="22" r="21" fill="#023936" stroke="#00DB81" stroke-width="2"/>
<path fill-rule="evenodd" clip-rule="evenodd" d="M22.4235 12.8564C24.8828 12.8564 27.2502 13.8313 28.9863 15.5766C30.7316 17.3229 31.7074 19.6801 31.7074 22.1496C31.7074 25.3989 29.9982 28.4162 27.213 30.0966C24.4279 31.7769 20.965 31.8698 18.0879 30.3379H18.0592C17.9003 30.2742 17.759 30.183 17.6185 30.0923C17.5135 30.0246 17.409 29.9572 17.2979 29.9016C17.011 29.7809 16.6852 29.7623 16.389 29.8561C15.7011 30.0966 15.0048 30.2915 14.2899 30.4586C13.9186 30.4679 13.8072 30.2451 13.8072 29.883C13.9743 29.1496 14.1971 28.4245 14.458 27.7199C14.5591 27.4135 14.5322 27.0886 14.3744 26.7999L14.1887 26.4387C13.5008 25.1297 13.1396 23.6721 13.1396 22.1969V22.1403C13.1396 19.6801 14.1135 17.3127 15.8589 15.5766C17.6043 13.8313 19.9624 12.8564 22.4235 12.8564ZM18.1425 23.3377C17.4834 23.3377 16.9542 22.7993 16.9542 22.1494C16.9542 21.4902 17.4834 20.9611 18.1425 20.9611C18.7924 20.9611 19.3318 21.4902 19.3318 22.1494C19.3318 22.7993 18.7924 23.3377 18.1425 23.3377ZM21.2342 22.1494C21.2342 22.7993 21.7643 23.3377 22.4235 23.3377C23.0826 23.3377 23.6109 22.7993 23.6109 22.1494C23.6109 21.4902 23.0826 20.9611 22.4235 20.9611C21.7643 20.9611 21.2342 21.4902 21.2342 22.1494ZM25.5164 22.1494C25.5164 22.7993 26.0539 23.3377 26.7038 23.3377C27.3629 23.3377 27.8921 22.7993 27.8921 22.1494C27.8921 21.4902 27.3629 20.9611 26.7038 20.9611C26.0539 20.9611 25.5164 21.4902 25.5164 22.1494Z" fill="white"/>
</g>
<defs>
<clipPath id="clip0_4756_59449">
<rect width="44" height="44" fill="white"/>
</clipPath>
</defs>
</svg>
