<svg width="101" height="36" viewBox="0 0 101 36" fill="none" xmlns="http://www.w3.org/2000/svg">
<rect width="100.494" height="36" rx="8" fill="white"/>
<path d="M22.2005 15.21L22.1725 21.986H20.4645L20.5065 16.904H18.3645C18.0285 16.904 17.7345 17.184 17.7345 17.492V23.54C17.7345 24.282 17.1465 24.87 16.4325 24.87H12.8625C10.7765 24.87 9.06848 23.162 9.06848 21.09V18.528H10.7905V21.09C10.7905 22.238 11.7145 23.19 12.8625 23.19H15.5085C15.7885 23.19 16.0265 22.952 16.0265 22.658V17.492C16.0265 16.232 17.0625 15.21 18.3645 15.21H22.2005ZM26.821 21.664C26.821 23.876 25.561 25.178 23.447 25.304L22.831 23.708C24.413 23.568 25.141 23.12 25.141 21.664V15.238H26.821V21.664ZM35.9918 20.306V22H34.7738C34.7178 22.882 34.3678 23.638 33.7378 24.212C32.6878 25.206 31.5398 25.402 29.0478 25.388V23.708C30.7278 23.722 31.8478 23.694 32.6178 22.98C32.8138 22.798 32.9538 22.532 33.0238 22.168L33.0378 22H31.6238C29.7478 22 28.2638 20.474 28.2638 18.57C28.2638 16.694 29.7478 15.21 31.6238 15.21H34.7878V20.306H35.9918ZM33.0798 20.306V16.904H31.6238C30.6858 16.904 29.9438 17.618 29.9438 18.57C29.9438 19.536 30.6858 20.306 31.6238 20.306H33.0798ZM42.6966 13.992C42.1646 13.992 41.7166 13.544 41.7166 12.998C41.7166 12.466 42.1646 12.018 42.6966 12.018C43.2566 12.018 43.7046 12.466 43.7046 12.998C43.7046 13.544 43.2566 13.992 42.6966 13.992ZM47.3446 20.306H48.9406V22H35.7106V20.306H37.3906V15.238H39.0706V16.47L42.5426 15.42C44.1946 14.902 46.0146 15.56 46.8406 16.988C47.1766 17.548 47.3446 18.206 47.3446 18.864V20.306ZM45.3566 20.306C45.5246 20.306 45.6646 20.166 45.6646 19.97V18.864C45.6646 18.5 45.5806 18.136 45.3846 17.828C44.9506 17.072 43.9846 16.75 43.0326 17.016L39.0706 18.22V20.306H45.3566ZM56.9319 22H48.7839C48.3219 22 47.9159 21.622 47.9159 21.146C47.9159 20.684 48.3219 20.306 48.7839 20.306H54.7899C54.5939 20.18 54.4259 19.942 54.4259 19.648V19.34C54.4259 18.416 54.1459 17.786 53.6279 17.394C52.6199 16.61 51.1219 16.834 49.9599 17.24L49.2739 15.714C51.0519 15.028 53.0959 14.902 54.6359 16.064C55.3499 16.582 56.0779 17.562 56.0779 19.242V19.634C56.0779 20.04 56.3019 20.306 56.6799 20.306H56.9319V22Z" fill="#202726"/>
<path d="M83.5944 20.1636C84.271 19.6845 84.4933 18.7812 84.1161 18.0428L84.0651 17.9431C83.9573 17.732 83.6991 17.6484 83.488 17.7562C82.2008 18.6862 80.8035 19.4535 79.328 20.0409L77.924 20.5997L77.7694 20.5583L75.5597 19.9662L74.2413 24.8865L75.2181 25.1482C75.4762 25.2173 75.6725 25.4272 75.7244 25.6892C75.8987 26.5697 76.5583 27.2744 77.4253 27.5067L81.6372 28.6353L83.3974 22.0664L81.5909 21.5824L83.5944 20.1636Z" fill="white"/>
<path d="M83.3949 22.0661L81.6349 28.6344L77.8794 27.6281C78.6959 27.5227 79.4063 26.9391 79.6325 26.095C79.8567 25.2581 79.5405 24.4038 78.8975 23.903C78.7753 23.8081 78.8291 23.6071 78.9825 23.5861C79.7273 23.4825 80.382 22.9785 80.6545 22.2433C80.6773 22.1828 80.6977 22.1195 80.7149 22.0552C80.7726 21.8399 80.795 21.6237 80.783 21.4118C80.7828 21.3963 80.7824 21.3806 80.7809 21.3658L83.3948 22.0662L83.3949 22.0661Z" fill="#D1D3D4"/>
<path d="M75.862 25.17C75.8101 24.9079 75.6138 24.6981 75.3557 24.6289L74.3789 24.3672L74.2401 24.8852L75.2169 25.1469C75.475 25.2161 75.6713 25.4259 75.7232 25.688C75.8975 26.5684 76.5572 27.2731 77.4241 27.5054L81.6361 28.634L81.7749 28.116L77.5629 26.9875C76.696 26.7552 76.0363 26.0504 75.862 25.17Z" fill="#D1D3D4"/>
<path d="M76.2837 20.1601L75.5586 19.9658L74.2403 24.8859L74.9653 25.0802L76.2837 20.1601Z" fill="#D1D3D4"/>
<path d="M71.0802 24.7609L73.6439 25.4479C73.8727 25.5092 74.1079 25.3734 74.1692 25.1446L75.6055 19.7842C75.6668 19.5554 75.531 19.3202 75.3022 19.2589L72.7385 18.5719C72.5097 18.5106 72.2745 18.6464 72.2132 18.8752L70.7769 24.2356C70.7156 24.4644 70.8514 24.6996 71.0802 24.7609Z" fill="#00DB81"/>
<path d="M73.9217 24.4134L71.358 23.7265C71.1292 23.6652 70.9934 23.43 71.0547 23.2012L70.7771 24.237C70.7158 24.4658 70.8516 24.701 71.0804 24.7623L73.6441 25.4492C73.8729 25.5105 74.1081 25.3748 74.1694 25.146L74.447 24.1101C74.3858 24.339 74.1506 24.4748 73.9217 24.4134Z" fill="#EAEAEA"/>
<path d="M83.5943 20.1634L81.5897 21.5825L80.6565 22.2438C80.6793 22.1833 80.6997 22.12 80.7169 22.0557C80.7746 21.8404 80.7969 21.6242 80.785 21.4123L80.8315 21.3794L83.2908 19.6381C83.8881 19.2153 84.13 18.4619 83.9201 17.7828C83.9781 17.8228 84.0296 17.8754 84.0647 17.9437L84.1157 18.043C84.4931 18.7813 84.2711 19.6843 83.5943 20.1634Z" fill="#E6E7E8"/>
<path d="M72.5784 24.299C73.011 24.4149 73.4557 24.1582 73.5716 23.7256C73.6875 23.2929 73.4308 22.8483 72.9982 22.7324C72.5655 22.6164 72.1209 22.8732 72.005 23.3058C71.889 23.7384 72.1458 24.1831 72.5784 24.299Z" fill="#023936"/>
<path d="M79.3079 29.6271L81.0111 30.0835C81.1779 30.1281 81.3492 30.0293 81.3939 29.8625L84.764 17.2851L82.457 16.667L79.0869 29.2443C79.0423 29.4111 79.1411 29.5824 79.3079 29.6271Z" fill="#0E8340"/>
<path d="M83.6105 16.9754L80.2403 29.5529C80.1957 29.7195 80.0242 29.8185 79.8576 29.7739L81.0111 30.083C81.1779 30.1277 81.3492 30.0286 81.3939 29.862L84.764 17.2845L83.6105 16.9754Z" fill="url(#paint0_linear_9448_53527)"/>
<path d="M82.8755 19.7164C86.3346 20.6433 89.8901 18.5905 90.817 15.1314C91.7439 11.6723 89.6911 8.11681 86.232 7.18995C82.7729 6.26309 79.2174 8.31587 78.2905 11.775C77.3637 15.234 79.4164 18.7896 82.8755 19.7164Z" fill="#00DB81"/>
<path d="M83.0375 16.9452C82.7309 16.8631 82.4691 16.6623 82.3104 16.3873L80.6549 13.5203C80.3239 12.9478 80.5202 12.2154 81.0931 11.8846C81.6661 11.5538 82.3979 11.7499 82.7287 12.3229L83.7857 14.1526L87.4944 12.0112C88.0673 11.6804 88.7992 11.8765 89.13 12.4494C89.4609 13.0219 89.2647 13.7542 88.6917 14.085L83.9461 16.8256C83.671 16.9843 83.3446 17.0275 83.0375 16.9452Z" fill="white"/>
<path d="M83.1703 16.4531C82.8637 16.3709 82.6019 16.1701 82.4432 15.8951L80.7877 13.0281C80.4567 12.4556 80.653 11.7233 81.2259 11.3925C81.7989 11.0617 82.5307 11.2578 82.8615 11.8307L83.9186 13.6604L87.6272 11.519C88.2002 11.1882 88.932 11.3843 89.2628 11.9572C89.5937 12.5298 89.3975 13.2621 88.8245 13.5929L84.0789 16.3334C83.8038 16.4921 83.4774 16.5354 83.1703 16.4531Z" fill="#EAEAEA"/>
<path d="M89.2437 12.0333L84.4981 14.7738C84.2231 14.9325 83.8968 14.9758 83.5895 14.8935C83.2829 14.8113 83.0212 14.6105 82.8624 14.3355L81.2069 11.4685C81.1981 11.4534 81.1938 11.437 81.1858 11.4216C80.6476 11.764 80.4672 12.4698 80.7892 13.0271L82.4447 15.8941C82.6035 16.1691 82.8653 16.37 83.1718 16.4521C83.4791 16.5344 83.8054 16.4911 84.0805 16.3324L88.8261 13.5919C89.3839 13.27 89.5805 12.5683 89.2855 12.0032C89.2709 12.0124 89.2589 12.0244 89.2437 12.0333Z" fill="white"/>
<path d="M81.5587 29.244L81.9902 27.6336C81.9426 27.6107 81.893 27.5907 81.84 27.5765L81.9944 27.6179L83.3145 22.6913L82.027 22.3463C81.6118 22.2351 81.1867 22.4518 81.0247 22.8374C81.0233 22.8408 81.0216 22.844 81.0204 22.8474C81.0072 22.8798 80.9954 22.9129 80.9861 22.9474C80.9709 23.0042 80.9619 23.061 80.9586 23.1173C80.9568 23.1455 80.9566 23.1736 80.9577 23.2014C80.9627 23.326 80.996 23.4461 81.0516 23.5544C81.0705 23.5914 81.0911 23.6273 81.1152 23.6611C81.1783 23.7497 81.2586 23.8267 81.353 23.8863C81.4237 23.9309 81.5022 23.9659 81.5873 23.9887L81.3888 23.9355C81.0071 23.8332 80.6172 24.0084 80.4306 24.3368C80.4143 24.3656 80.3995 24.3953 80.3865 24.4263C80.3851 24.4298 80.3834 24.4332 80.382 24.4367C80.3688 24.4689 80.357 24.5021 80.3478 24.5365C80.3326 24.5933 80.3235 24.6501 80.3202 24.7065C80.3135 24.8192 80.3295 24.9301 80.365 25.0331C80.3739 25.0589 80.384 25.0843 80.3953 25.109C80.4066 25.1337 80.4191 25.1579 80.4327 25.1814C80.4463 25.205 80.461 25.2279 80.4767 25.25C80.4925 25.2722 80.5094 25.2936 80.5273 25.3142C80.6346 25.4379 80.7788 25.5319 80.9489 25.5774L81.1473 25.6306C80.7321 25.5194 80.307 25.7361 80.145 26.1217C80.1436 26.125 80.1419 26.1283 80.1406 26.1319C80.1274 26.1642 80.1157 26.1973 80.1064 26.2319C80.0608 26.402 80.0702 26.5739 80.1236 26.7286C80.1325 26.7544 80.1425 26.7798 80.1539 26.8045C80.1765 26.8539 80.2038 26.9013 80.2355 26.9455C80.2986 27.0341 80.3789 27.1111 80.4733 27.1707C80.544 27.2154 80.6224 27.2503 80.7076 27.2731L81.1133 27.3818C80.7314 27.2795 80.3415 27.4547 80.155 27.7831C80.1387 27.8119 80.1239 27.8418 80.1109 27.8729C80.1095 27.8762 80.1078 27.8795 80.1064 27.8829C80.0934 27.9153 80.0815 27.9483 80.0722 27.9829C80.057 28.0395 80.0479 28.0964 80.0446 28.1528C80.0362 28.2937 80.0633 28.4315 80.1199 28.5554C80.1425 28.6049 80.1698 28.6522 80.2015 28.6964C80.2172 28.7186 80.2341 28.74 80.252 28.7606C80.3593 28.8843 80.5035 28.9783 80.6736 29.0239L81.4008 29.2187C81.4529 29.2331 81.5058 29.2402 81.5587 29.244Z" fill="#00DB81"/>
<path d="M83.7837 23.93L81.7443 23.3836C81.2908 23.2621 81.0218 22.7959 81.1433 22.3425C81.2648 21.889 81.7309 21.62 82.1843 21.7415L84.2237 22.2879C84.6772 22.4095 84.9462 22.8756 84.8247 23.329C84.7032 23.7824 84.2372 24.0516 83.7837 23.93Z" fill="white"/>
<path d="M83.8953 23.5152L81.8559 22.9688C81.4741 22.8665 81.224 22.5198 81.2267 22.1421C81.1917 22.2038 81.1629 22.2701 81.1437 22.342C81.0222 22.7955 81.2914 23.2616 81.7447 23.383L83.7841 23.9295C84.2376 24.051 84.7037 23.7818 84.8251 23.3284C84.8444 23.2567 84.8528 23.1849 84.8534 23.1139C84.667 23.4423 84.2771 23.6175 83.8953 23.5152Z" fill="#E6E7E8"/>
<path d="M83.8723 25.7143L81.1037 24.9725C80.6502 24.8509 80.3812 24.3848 80.5027 23.9314C80.6242 23.4779 81.0903 23.2089 81.5437 23.3304L84.3123 24.0722C84.7659 24.1937 85.0349 24.6599 84.9134 25.1133C84.7921 25.5667 84.3259 25.8358 83.8723 25.7143Z" fill="white"/>
<path d="M83.9839 25.2995L81.2153 24.5577C80.8334 24.4553 80.5834 24.1086 80.5861 23.731C80.5511 23.7926 80.5223 23.859 80.5031 23.9309C80.3815 24.3844 80.6507 24.8504 81.1041 24.9719L83.8728 25.7138C84.3263 25.8353 84.7923 25.5661 84.9138 25.1127C84.933 25.041 84.9414 24.9692 84.9419 24.8981C84.7557 25.2266 84.3658 25.4018 83.9839 25.2995Z" fill="#E6E7E8"/>
<path d="M82.7883 27.183L80.8654 26.6678C80.4119 26.5462 80.1429 26.0801 80.2644 25.6267C80.3859 25.1732 80.852 24.9042 81.3054 25.0257L83.2283 25.5409C83.6818 25.6624 83.9508 26.1285 83.8293 26.5819C83.7078 27.0353 83.2418 27.3045 82.7883 27.183Z" fill="white"/>
<path d="M82.8959 26.7682L80.9731 26.253C80.5912 26.1506 80.3412 25.804 80.3439 25.4263C80.3089 25.488 80.2801 25.5545 80.2609 25.6262C80.1394 26.0797 80.4085 26.5459 80.8619 26.6674L82.7847 27.1826C83.2383 27.3041 83.7043 27.0349 83.8258 26.5814C83.845 26.5097 83.8534 26.4379 83.8539 26.3668C83.6677 26.6953 83.2778 26.8705 82.8959 26.7682Z" fill="#E6E7E8"/>
<path d="M81.5574 28.6136L80.8303 28.4187C80.3767 28.2972 80.1077 27.8311 80.2292 27.3777C80.3507 26.9242 80.8169 26.6552 81.2703 26.7766L81.9974 26.9715C82.451 27.093 82.72 27.5591 82.5985 28.0125C82.477 28.4659 82.011 28.7351 81.5574 28.6136Z" fill="white"/>
<path d="M81.6692 28.2018L80.9418 28.0069C80.5601 27.9046 80.3099 27.5579 80.3126 27.1802C80.2777 27.2419 80.2489 27.3082 80.2296 27.3801C80.1081 27.8336 80.3773 28.2996 80.8307 28.4211L81.558 28.616C82.0115 28.7375 82.4776 28.4684 82.5991 28.015C82.6183 27.9433 82.6267 27.8714 82.6271 27.8004C82.4409 28.1289 82.051 28.3041 81.6692 28.2018Z" fill="#E6E7E8"/>
<defs>
<linearGradient id="paint0_linear_9448_53527" x1="83.0385" y1="23.7242" x2="81.5831" y2="23.3342" gradientUnits="userSpaceOnUse">
<stop stop-color="#023936"/>
<stop offset="1" stop-color="#008079"/>
</linearGradient>
</defs>
</svg>
