<svg width="25" height="31" viewBox="0 0 25 31" fill="none" xmlns="http://www.w3.org/2000/svg">
<g id="Vector">
<path d="M22.7045 27.6203C19.8021 29.6139 16.2874 30.7807 12.5003 30.7807C8.71298 30.7807 5.19823 29.6139 2.29587 27.6201C1.014 26.7396 0.466196 25.0622 1.2115 23.6972C2.75654 20.8677 5.94016 19.1053 12.5002 19.1053C19.0603 19.1053 22.2439 20.8677 23.7889 23.6974C24.5342 25.0624 23.9863 26.7397 22.7045 27.6203Z" fill="#135C58"/>
<path d="M12.5003 12.7368C16.0175 12.7368 18.8687 9.8856 18.8687 6.36842C18.8687 2.85124 16.0175 0 12.5003 0C8.98311 0 6.13187 2.85124 6.13187 6.36842C6.13187 9.8856 8.98311 12.7368 12.5003 12.7368Z" fill="#135C58"/>
</g>
</svg>
