<svg width="32" height="32" viewBox="0 0 32 32" fill="none" xmlns="http://www.w3.org/2000/svg">
<g id="Bold Duotone / Call / Phone Calling Rounded">
<path id="Vector" opacity="0.5" d="M13.3834 7.08815L14.2487 8.63872C15.0297 10.038 14.7162 11.8737 13.4862 13.1037C13.4862 13.1037 13.4862 13.1037 13.4862 13.1037C13.4861 13.1038 11.9944 14.5957 14.6993 17.3006C17.4035 20.0048 18.8954 18.5144 18.8962 18.5136C18.8962 18.5136 18.8962 18.5136 18.8962 18.5136C20.1262 17.2837 21.9618 16.9702 23.3611 17.7511L24.9117 18.6165C27.0247 19.7957 27.2742 22.7589 25.4169 24.6162C24.3009 25.7322 22.9338 26.6006 21.4225 26.6578C18.8783 26.7543 14.5576 26.1104 10.2235 21.7763C5.88942 17.4422 5.24554 13.1216 5.34199 10.5774C5.39928 9.06605 6.26766 7.6989 7.38366 6.58289C9.24093 4.72563 12.2041 4.97517 13.3834 7.08815Z" fill="#023936"/>
<g id="Vector_2">
<path d="M17.6794 2.50677C17.7677 1.96158 18.283 1.59175 18.8282 1.68001C18.862 1.68647 18.9706 1.70677 19.0274 1.71944C19.1412 1.74477 19.2999 1.78378 19.4978 1.84142C19.8935 1.95668 20.4463 2.14655 21.1098 2.45073C22.4382 3.05973 24.2059 4.12508 26.0403 5.95947C27.8747 7.79387 28.9401 9.56162 29.5491 10.89C29.8532 11.5535 30.0431 12.1063 30.1584 12.502C30.216 12.6999 30.255 12.8586 30.2804 12.9723C30.293 13.0292 30.3023 13.0749 30.3087 13.1087L30.3164 13.1503C30.4047 13.6954 30.0382 14.2321 29.493 14.3204C28.9494 14.4084 28.4373 14.0404 28.3468 13.4977C28.344 13.4832 28.3364 13.444 28.3282 13.4071C28.3117 13.3333 28.2833 13.2162 28.2382 13.0613C28.1479 12.7515 27.9912 12.2911 27.731 11.7235C27.2112 10.5898 26.2766 9.02417 24.6261 7.37369C22.9756 5.72321 21.41 4.78855 20.2763 4.26877C19.7087 4.00856 19.2483 3.85185 18.9385 3.76162C18.7836 3.71651 18.589 3.67183 18.5151 3.65539C17.9725 3.56496 17.5914 3.0504 17.6794 2.50677Z" fill="#023936"/>
<path fill-rule="evenodd" clip-rule="evenodd" d="M17.9811 7.10605C18.1328 6.57502 18.6863 6.26753 19.2173 6.41925L18.9426 7.38077C19.2173 6.41925 19.2173 6.41925 19.2173 6.41925L19.2192 6.4198L19.2213 6.42039L19.2257 6.42169L19.2361 6.42478L19.2624 6.43299C19.2825 6.43942 19.3076 6.4478 19.3376 6.45842C19.3975 6.47967 19.4766 6.50989 19.5737 6.55149C19.7679 6.63474 20.0333 6.7633 20.3594 6.95625C21.012 7.34249 21.9029 7.98406 22.9495 9.03069C23.9962 10.0773 24.6377 10.9682 25.024 11.6209C25.2169 11.9469 25.3455 12.2123 25.4287 12.4065C25.4703 12.5036 25.5005 12.5828 25.5218 12.6426C25.5324 12.6726 25.5408 12.6977 25.5472 12.7178L25.5554 12.7442L25.5585 12.7545L25.5598 12.7589L25.5604 12.761C25.5604 12.761 25.561 12.7629 24.5994 13.0376L25.561 12.7629C25.7127 13.2939 25.4052 13.8474 24.8742 13.9992C24.3476 14.1496 23.799 13.8486 23.6419 13.3258L23.6369 13.3115C23.6298 13.2914 23.6151 13.252 23.5904 13.1944C23.5411 13.0793 23.4516 12.891 23.3028 12.6395C23.0055 12.1372 22.4686 11.3782 21.5353 10.4449C20.602 9.51163 19.843 8.97469 19.3407 8.6774C19.0893 8.52858 18.901 8.43912 18.7858 8.38978C18.7282 8.36509 18.6888 8.35038 18.6688 8.34327L18.6544 8.33835C18.1316 8.18118 17.8306 7.63258 17.9811 7.10605Z" fill="#023936"/>
</g>
</g>
</svg>
