<svg width="56" height="41" viewBox="0 0 56 41" fill="none" xmlns="http://www.w3.org/2000/svg">
<path d="M0 20.6084C0 9.5627 8.95431 0.608398 20 0.608398H36C47.0457 0.608398 56 9.5627 56 20.6084C56 31.6541 47.0457 40.6084 36 40.6084H20C8.95431 40.6084 0 31.6541 0 20.6084Z" fill="#FAFAFA"/>
<path fill-rule="evenodd" clip-rule="evenodd" d="M19.3775 13.6908C19 14.2287 19 15.8275 19 19.0251V20.5998C19 26.2378 23.239 28.9739 25.8986 30.1357C26.62 30.4508 26.9807 30.6084 28 30.6084C29.0193 30.6084 29.38 30.4508 30.1014 30.1357C32.761 28.9739 37 26.2378 37 20.5998V19.0251C37 15.8275 37 14.2287 36.6225 13.6908C36.245 13.1529 34.7417 12.6384 31.7351 11.6092L31.1623 11.4131C29.595 10.8766 28.8114 10.6084 28 10.6084C27.1886 10.6084 26.405 10.8766 24.8377 11.4131L24.2649 11.6092C21.2583 12.6384 19.755 13.1529 19.3775 13.6908ZM31.0595 19.1079C31.3353 18.7989 31.3085 18.3248 30.9995 18.0489C30.6905 17.7731 30.2164 17.7999 29.9405 18.1089L26.9286 21.4823L26.0595 20.5089C25.7836 20.1999 25.3095 20.1731 25.0005 20.4489C24.6915 20.7248 24.6647 21.1989 24.9405 21.5079L26.3691 23.1079C26.5114 23.2673 26.7149 23.3584 26.9286 23.3584C27.1422 23.3584 27.3457 23.2673 27.488 23.1079L31.0595 19.1079Z" fill="#6B778C"/>
</svg>
