<svg width="56" height="41" viewBox="0 0 56 41" fill="none" xmlns="http://www.w3.org/2000/svg">
<path d="M0 20.6084C0 9.5627 8.95431 0.608398 20 0.608398H36C47.0457 0.608398 56 9.5627 56 20.6084C56 31.6541 47.0457 40.6084 36 40.6084H20C8.95431 40.6084 0 31.6541 0 20.6084Z" fill="#FAFAFA"/>
<path fill-rule="evenodd" clip-rule="evenodd" d="M38 20.6084C38 26.1312 33.5228 30.6084 28 30.6084C22.4772 30.6084 18 26.1312 18 20.6084C18 15.0856 22.4772 10.6084 28 10.6084C33.5228 10.6084 38 15.0856 38 20.6084ZM28 16.3584C27.3787 16.3584 26.875 16.8621 26.875 17.4834C26.875 17.8976 26.5392 18.2334 26.125 18.2334C25.7108 18.2334 25.375 17.8976 25.375 17.4834C25.375 16.0337 26.5503 14.8584 28 14.8584C29.4497 14.8584 30.625 16.0337 30.625 17.4834C30.625 18.1942 30.3415 18.8404 29.883 19.3124C29.7907 19.4073 29.7027 19.4953 29.6187 19.5792C29.4029 19.7948 29.2138 19.9837 29.0479 20.1969C28.8289 20.4783 28.75 20.6852 28.75 20.8584V21.6084C28.75 22.0226 28.4142 22.3584 28 22.3584C27.5858 22.3584 27.25 22.0226 27.25 21.6084V20.8584C27.25 20.2032 27.555 19.6728 27.8642 19.2756C28.0929 18.9817 28.3804 18.6947 28.6138 18.4619C28.6842 18.3916 28.7496 18.3263 28.807 18.2672C29.0046 18.0638 29.125 17.7884 29.125 17.4834C29.125 16.8621 28.6213 16.3584 28 16.3584ZM28 25.6084C28.5523 25.6084 29 25.1607 29 24.6084C29 24.0561 28.5523 23.6084 28 23.6084C27.4477 23.6084 27 24.0561 27 24.6084C27 25.1607 27.4477 25.6084 28 25.6084Z" fill="#6B778C"/>
</svg>
