<svg width="56" height="41" viewBox="0 0 56 41" fill="none" xmlns="http://www.w3.org/2000/svg">
<path d="M0 20.6084C0 9.5627 8.95431 0.608398 20 0.608398H36C47.0457 0.608398 56 9.5627 56 20.6084C56 31.6541 47.0457 40.6084 36 40.6084H20C8.95431 40.6084 0 31.6541 0 20.6084Z" fill="#FAFAFA"/>
<path d="M18 17.7455C18 22.6084 22.0194 25.1998 24.9617 27.5193C26 28.3378 27 29.1084 28 29.1084C29 29.1084 30 28.3378 31.0383 27.5193C33.9806 25.1998 38 22.6084 38 17.7455C38 12.8826 32.4998 9.43386 28 14.109C23.5002 9.43386 18 12.8826 18 17.7455Z" fill="#6B778C"/>
</svg>
