<svg width="32" height="32" viewBox="0 0 32 32" fill="none" xmlns="http://www.w3.org/2000/svg">
<path d="M16.0003 20.0001C18.2095 20.0001 20.0003 18.2092 20.0003 16.0001C20.0003 13.7909 18.2095 12.0001 16.0003 12.0001C13.7912 12.0001 12.0003 13.7909 12.0003 16.0001C12.0003 18.2092 13.7912 20.0001 16.0003 20.0001Z" stroke="#DEDEDE" stroke-width="1.66667" stroke-linecap="round" stroke-linejoin="round"/>
<path d="M24.97 19.6364C24.8087 20.002 24.7605 20.4076 24.8318 20.8008C24.9031 21.194 25.0906 21.5568 25.37 21.8425L25.4428 21.9152C25.6682 22.1404 25.847 22.4077 25.969 22.702C26.091 22.9963 26.1538 23.3118 26.1538 23.6304C26.1538 23.949 26.091 24.2644 25.969 24.5587C25.847 24.853 25.6682 25.1204 25.4428 25.3455C25.2176 25.5709 24.9502 25.7497 24.6559 25.8717C24.3616 25.9937 24.0462 26.0565 23.7276 26.0565C23.409 26.0565 23.0936 25.9937 22.7993 25.8717C22.505 25.7497 22.2376 25.5709 22.0124 25.3455L21.9397 25.2728C21.6541 24.9934 21.2912 24.8059 20.898 24.7346C20.5048 24.6633 20.0993 24.7115 19.7337 24.8728C19.3752 25.0265 19.0694 25.2816 18.854 25.6068C18.6387 25.932 18.5231 26.3131 18.5215 26.7031V26.9092C18.5215 27.5521 18.2661 28.1687 17.8115 28.6234C17.3569 29.078 16.7402 29.3334 16.0973 29.3334C15.4543 29.3334 14.8377 29.078 14.3831 28.6234C13.9285 28.1687 13.6731 27.5521 13.6731 26.9092V26.8001C13.6637 26.3989 13.5338 26.0098 13.3003 25.6834C13.0669 25.3569 12.7406 25.1083 12.364 24.9698C11.9984 24.8084 11.5928 24.7603 11.1996 24.8316C10.8064 24.9029 10.4436 25.0903 10.1579 25.3698L10.0852 25.4425C9.86003 25.6679 9.59266 25.8467 9.29836 25.9687C9.00407 26.0907 8.68861 26.1535 8.37002 26.1535C8.05144 26.1535 7.73598 26.0907 7.44168 25.9687C7.14738 25.8467 6.88002 25.6679 6.65487 25.4425C6.42947 25.2174 6.25066 24.95 6.12867 24.6557C6.00667 24.3614 5.94387 24.0459 5.94387 23.7274C5.94387 23.4088 6.00667 23.0933 6.12867 22.799C6.25066 22.5047 6.42947 22.2374 6.65487 22.0122L6.7276 21.9395C7.00704 21.6538 7.19449 21.291 7.26579 20.8978C7.33708 20.5046 7.28895 20.099 7.1276 19.7334C6.97395 19.3749 6.71882 19.0692 6.39362 18.8538C6.06842 18.6384 5.68734 18.5229 5.2973 18.5213H5.09123C4.44829 18.5213 3.83167 18.2659 3.37704 17.8113C2.9224 17.3566 2.66699 16.74 2.66699 16.0971C2.66699 15.4541 2.9224 14.8375 3.37704 14.3829C3.83167 13.9282 4.44829 13.6728 5.09123 13.6728H5.20033C5.60153 13.6634 5.99063 13.5336 6.31705 13.3001C6.64347 13.0666 6.8921 12.7404 7.03063 12.3637C7.19198 11.9981 7.24011 11.5926 7.16882 11.1994C7.09752 10.8062 6.91007 10.4433 6.63063 10.1577L6.5579 10.0849C6.3325 9.85978 6.15369 9.59242 6.0317 9.29812C5.9097 9.00382 5.8469 8.68836 5.8469 8.36978C5.8469 8.0512 5.9097 7.73574 6.0317 7.44144C6.15369 7.14714 6.3325 6.87977 6.5579 6.65463C6.78305 6.42923 7.05042 6.25042 7.34471 6.12842C7.63901 6.00642 7.95447 5.94363 8.27305 5.94363C8.59164 5.94363 8.9071 6.00642 9.20139 6.12842C9.49569 6.25042 9.76306 6.42923 9.98821 6.65463L10.0609 6.72735C10.3466 7.00679 10.7094 7.19425 11.1026 7.26554C11.4958 7.33684 11.9014 7.28871 12.267 7.12735H12.364C12.7225 6.9737 13.0282 6.71857 13.2436 6.39337C13.459 6.06817 13.5745 5.6871 13.5761 5.29705V5.09099C13.5761 4.44804 13.8315 3.83143 14.2861 3.37679C14.7408 2.92216 15.3574 2.66675 16.0003 2.66675C16.6433 2.66675 17.2599 2.92216 17.7145 3.37679C18.1692 3.83143 18.4246 4.44804 18.4246 5.09099V5.20008C18.4261 5.59013 18.5417 5.9712 18.7571 6.2964C18.9724 6.6216 19.2782 6.87673 19.6367 7.03038C20.0023 7.19174 20.4078 7.23987 20.801 7.16857C21.1942 7.09728 21.5571 6.90982 21.8428 6.63038L21.9155 6.55766C22.1406 6.33226 22.408 6.15345 22.7023 6.03145C22.9966 5.90945 23.312 5.84666 23.6306 5.84666C23.9492 5.84666 24.2647 5.90945 24.559 6.03145C24.8533 6.15345 25.1206 6.33226 25.3458 6.55766C25.5712 6.7828 25.75 7.05017 25.872 7.34447C25.994 7.63877 26.0568 7.95423 26.0568 8.27281C26.0568 8.59139 25.994 8.90685 25.872 9.20115C25.75 9.49545 25.5712 9.76281 25.3458 9.98796L25.2731 10.0607C24.9936 10.3464 24.8062 10.7092 24.7349 11.1024C24.6636 11.4956 24.7117 11.9012 24.8731 12.2667V12.3637C25.0267 12.7222 25.2818 13.028 25.607 13.2433C25.9322 13.4587 26.3133 13.5743 26.7034 13.5758H26.9094C27.5524 13.5758 28.169 13.8313 28.6236 14.2859C29.0783 14.7405 29.3337 15.3571 29.3337 16.0001C29.3337 16.643 29.0783 17.2596 28.6236 17.7143C28.169 18.1689 27.5524 18.4243 26.9094 18.4243H26.8003C26.4103 18.4259 26.0292 18.5415 25.704 18.7568C25.3788 18.9722 25.1237 19.2779 24.97 19.6364Z" stroke="#DEDEDE" stroke-width="1.66667" stroke-linecap="round" stroke-linejoin="round"/>
</svg>
