<svg width="32" height="32" viewBox="0 0 32 32" fill="none" xmlns="http://www.w3.org/2000/svg">
<g id="Bold Duotone / Essentional, UI / Share">
<path id="Vector" fill-rule="evenodd" clip-rule="evenodd" d="M18.4041 7.11119C18.4041 4.65659 20.403 2.66675 22.8688 2.66675C25.3345 2.66675 27.3334 4.65659 27.3334 7.11119C27.3334 9.56579 25.3345 11.5556 22.8688 11.5556C21.6237 11.5556 20.4985 11.048 19.6895 10.2314L13.509 14.4395C13.5661 14.7234 13.596 15.0167 13.596 15.3163C13.596 15.9097 13.4788 16.4768 13.2662 16.9952L20.0432 21.4478C20.8123 20.8215 21.7965 20.4445 22.8688 20.4445C25.3345 20.4445 27.3334 22.4344 27.3334 24.889C27.3334 27.3436 25.3345 29.3334 22.8688 29.3334C20.403 29.3334 18.4041 27.3436 18.4041 24.889C18.4041 24.2461 18.5417 23.6341 18.789 23.0816L12.0668 18.665C11.2827 19.3465 10.2555 19.7608 9.13139 19.7608C6.66564 19.7608 4.66675 17.7709 4.66675 15.3163C4.66675 12.8617 6.66564 10.8719 9.13139 10.8719C10.5493 10.8719 11.8114 11.5298 12.6287 12.5537L18.6186 8.47531C18.4793 8.04487 18.4041 7.58621 18.4041 7.11119Z" fill="#2F80ED"/>
</g>
</svg>
