<svg width="58" height="52" viewBox="0 0 58 52" fill="none" xmlns="http://www.w3.org/2000/svg">
<g id="&#60;Group&#62;">
<path id="&#60;Path&#62;" d="M37.9543 46.8958C35.1342 46.8958 31.6346 46.8787 27.9311 46.8787C24.1597 46.8618 20.2523 46.8447 17.0415 46.8447C13.6438 46.8447 11.1635 45.8934 9.70252 44.0246C8.1226 41.986 8.22453 39.5057 8.37743 38.3505C8.20755 38.192 8.05465 38.0504 7.91874 37.9258C6.93341 36.9915 6.38978 36.3969 6.05002 34.2733C5.82917 32.9142 5.89712 31.7251 5.98206 30.2301C6.05002 28.905 6.13496 27.393 6.05002 25.2865C5.84615 20.1899 7.78284 18.5081 10.3481 16.8263C10.8577 16.5035 11.877 15.739 13.1852 14.7706C19.6917 9.96292 26.2832 5.25714 29.1543 5.10425C29.2109 5.10425 29.2675 5.10425 29.3242 5.10425C32.552 5.10425 38.9566 9.99686 44.6987 14.5667C45.3782 15.1104 45.9558 15.5691 46.3465 15.8579C46.9411 16.3166 47.5187 16.7243 48.0114 17.0811C49.8632 18.4062 51.1882 19.3575 51.7319 21.1243C52.4114 23.3838 51.9697 31.0455 51.7659 33.5428C51.545 36.278 50.4408 37.756 49.7272 38.4525C50.016 40.9668 49.5574 42.9884 48.3342 44.5004C46.6693 46.539 44.3079 46.8108 43.6114 46.8447C43.0338 46.8787 41.233 46.8958 37.9543 46.8958Z" fill="#013936"/>
<path id="Vector" d="M35.499 23L27.1657 31.3333L22.999 27.1667" stroke="white" stroke-width="2.5" stroke-linecap="round" stroke-linejoin="round"/>
<g id="&#60;Compound Path&#62;">
<path fill-rule="evenodd" clip-rule="evenodd" d="M37.6321 7.83932C40.5032 9.80997 43.4422 12.1544 45.3958 13.7173C46.0584 14.244 46.636 14.7027 47.0097 14.9915C47.6043 15.4332 48.131 15.8239 48.6576 16.1806C50.5263 17.5227 52.1402 18.678 52.7858 20.8185C52.9897 21.4981 53.2445 22.8571 53.1935 26.9004C53.1595 29.4316 53.0066 32.0479 52.8707 33.6448C52.6669 36.244 51.6815 37.8919 50.8661 38.8263C50.951 39.9645 50.9001 41.0177 50.6962 41.986C50.4244 43.2092 49.9147 44.2795 49.1842 45.1969C47.2476 47.5923 44.4785 47.915 43.663 47.949C43.0684 47.983 41.3016 48 37.9549 48C35.1348 48 31.6352 47.983 27.9317 47.966C24.1603 47.966 20.253 47.949 17.0422 47.949C15.1225 47.949 13.4406 47.6602 12.0476 47.0826C10.7225 46.5389 9.6522 45.7405 8.83676 44.7042C7.81745 43.3961 7.25684 41.7312 7.18889 39.8795C7.18889 39.4718 7.20587 39.098 7.22286 38.7752C7.20021 38.7526 7.18322 38.7356 7.1719 38.7243C6.05066 37.671 5.35414 36.8726 4.9634 34.4602C4.72556 32.9652 4.79352 31.6741 4.87846 30.1791C4.9634 28.871 5.04834 27.3931 4.9634 25.3205C4.84448 22.7552 5.2522 20.8185 6.20356 19.2556C7.13792 17.6926 8.46302 16.7412 9.73715 15.9088C10.2298 15.586 11.3001 14.8046 12.5402 13.8872C14.8507 12.1714 18.0275 9.82699 21.0005 7.87333C22.6823 6.76908 24.0754 5.93663 25.2646 5.30806C26.8955 4.47563 28.1016 4.05097 29.087 4C29.1662 4 29.2455 4 29.3248 4C31.1935 4 33.7588 5.18912 37.6321 7.83932ZM29.2059 6.20849C25.6383 6.39537 13.3387 16.1807 10.9433 17.7606C8.54796 19.3236 6.96803 20.7166 7.15491 25.2355C7.34178 29.7714 6.76417 31.7081 7.13792 34.1034C7.52865 36.5158 8.07228 36.4138 9.55028 37.9938C9.55028 37.9938 7.6136 45.7575 17.0422 45.7575C23.3279 45.7575 32.1958 45.7915 37.9549 45.7915C40.8429 45.7915 42.9495 45.7745 43.5611 45.7575C45.4128 45.6556 49.575 44.2795 48.5557 37.9938C48.5557 37.9938 50.4074 36.8726 50.6792 33.4579C50.951 30.0432 51.2229 23.2988 50.6792 21.4471C50.1186 19.5953 48.3348 18.7629 45.6676 16.7413C43.0344 14.7197 32.9943 6.19149 29.3248 6.19149C29.2795 6.19149 29.2399 6.19717 29.2059 6.20849Z" fill="#00DB81"/>
<path d="M38.7639 6.19038L38.7615 6.1887C36.7817 4.83413 35.0687 3.80542 33.5663 3.11057C32.0766 2.42161 30.6663 2 29.3248 2H29.3243H29.3239H29.3234H29.3229H29.3225H29.322H29.3215H29.3211H29.3206H29.3202H29.3197H29.3192H29.3188H29.3183H29.3178H29.3174H29.3169H29.3164H29.316H29.3155H29.315H29.3146H29.3141H29.3136H29.3132H29.3127H29.3123H29.3118H29.3113H29.3109H29.3104H29.3099H29.3095H29.309H29.3085H29.3081H29.3076H29.3071H29.3067H29.3062H29.3058H29.3053H29.3048H29.3044H29.3039H29.3034H29.303H29.3025H29.302H29.3016H29.3011H29.3006H29.3002H29.2997H29.2992H29.2988H29.2983H29.2979H29.2974H29.2969H29.2965H29.296H29.2955H29.2951H29.2946H29.2941H29.2937H29.2932H29.2927H29.2923H29.2918H29.2914H29.2909H29.2904H29.29H29.2895H29.289H29.2886H29.2881H29.2876H29.2872H29.2867H29.2862H29.2858H29.2853H29.2848H29.2844H29.2839H29.2835H29.283H29.2825H29.2821H29.2816H29.2811H29.2807H29.2802H29.2797H29.2793H29.2788H29.2783H29.2779H29.2774H29.277H29.2765H29.276H29.2756H29.2751H29.2746H29.2742H29.2737H29.2732H29.2728H29.2723H29.2718H29.2714H29.2709H29.2704H29.27H29.2695H29.2691H29.2686H29.2681H29.2677H29.2672H29.2667H29.2663H29.2658H29.2653H29.2649H29.2644H29.2639H29.2635H29.263H29.2626H29.2621H29.2616H29.2612H29.2607H29.2602H29.2598H29.2593H29.2588H29.2584H29.2579H29.2574H29.257H29.2565H29.256H29.2556H29.2551H29.2547H29.2542H29.2537H29.2533H29.2528H29.2523H29.2519H29.2514H29.2509H29.2505H29.25H29.2495H29.2491H29.2486H29.2481H29.2477H29.2472H29.2468H29.2463H29.2458H29.2454H29.2449H29.2444H29.244H29.2435H29.243H29.2426H29.2421H29.2416H29.2412H29.2407H29.2403H29.2398H29.2393H29.2389H29.2384H29.2379H29.2375H29.237H29.2365H29.2361H29.2356H29.2351H29.2347H29.2342H29.2337H29.2333H29.2328H29.2324H29.2319H29.2314H29.231H29.2305H29.23H29.2296H29.2291H29.2286H29.2282H29.2277H29.2272H29.2268H29.2263H29.2259H29.2254H29.2249H29.2245H29.224H29.2235H29.2231H29.2226H29.2221H29.2217H29.2212H29.2207H29.2203H29.2198H29.2193H29.2189H29.2184H29.218H29.2175H29.217H29.2166H29.2161H29.2156H29.2152H29.2147H29.2142H29.2138H29.2133H29.2128H29.2124H29.2119H29.2115H29.211H29.2105H29.2101H29.2096H29.2091H29.2087H29.2082H29.2077H29.2073H29.2068H29.2063H29.2059H29.2054H29.2049H29.2045H29.204H29.2036H29.2031H29.2026H29.2022H29.2017H29.2012H29.2008H29.2003H29.1998H29.1994H29.1989H29.1984H29.198H29.1975H29.1971H29.1966H29.1961H29.1957H29.1952H29.1947H29.1943H29.1938H29.1933H29.1929H29.1924H29.1919H29.1915H29.191H29.1905H29.1901H29.1896H29.1892H29.1887H29.1882H29.1878H29.1873H29.1868H29.1864H29.1859H29.1854H29.185H29.1845H29.184H29.1836H29.1831H29.1826H29.1822H29.1817H29.1813H29.1808H29.1803H29.1799H29.1794H29.1789H29.1785H29.178H29.1775H29.1771H29.1766H29.1761H29.1757H29.1752H29.1748H29.1743H29.1738H29.1734H29.1729H29.1724H29.172H29.1715H29.171H29.1706H29.1701H29.1696H29.1692H29.1687H29.1682H29.1678H29.1673H29.1669H29.1664H29.1659H29.1655H29.165H29.1645H29.1641H29.1636H29.1631H29.1627H29.1622H29.1617H29.1613H29.1608H29.1604H29.1599H29.1594H29.159H29.1585H29.158H29.1576H29.1571H29.1566H29.1562H29.1557H29.1552H29.1548H29.1543H29.1538H29.1534H29.1529H29.1525H29.152H29.1515H29.1511H29.1506H29.1501H29.1497H29.1492H29.1487H29.1483H29.1478H29.1473H29.1469H29.1464H29.146H29.1455H29.145H29.1446H29.1441H29.1436H29.1432H29.1427H29.1422H29.1418H29.1413H29.1408H29.1404H29.1399H29.1394H29.139H29.1385H29.1381H29.1376H29.1371H29.1367H29.1362H29.1357H29.1353H29.1348H29.1343H29.1339H29.1334H29.1329H29.1325H29.132H29.1315H29.1311H29.1306H29.1302H29.1297H29.1292H29.1288H29.1283H29.1278H29.1274H29.1269H29.1264H29.126H29.1255H29.125H29.1246H29.1241H29.1237H29.1232H29.1227H29.1223H29.1218H29.1213H29.1209H29.1204H29.1199H29.1195H29.119H29.1185H29.1181H29.1176H29.1172H29.1167H29.1162H29.1158H29.1153H29.1148H29.1144H29.1139H29.1134H29.113H29.1125H29.112H29.1116H29.1111H29.1106H29.1102H29.1097H29.1093H29.1088H29.1083H29.1079H29.1074H29.1069H29.1065H29.106H29.1055H29.1051H29.1046H29.1041H29.1037H29.1032H29.1028H29.1023H29.1018H29.1014H29.1009H29.1004H29.1H29.0995H29.099H29.0986H29.0981H29.0976H29.0972H29.0967H29.0962H29.0958H29.0953H29.0949H29.0944H29.0939H29.0935H29.093H29.0925H29.0921H29.0916H29.0911H29.0907H29.0902H29.0897H29.0893H29.0888H29.0884H29.0879H29.0874H29.087H29.0353L28.9836 2.00267C27.5583 2.0764 26.0389 2.66738 24.3553 3.52669L24.3426 3.53319L24.3299 3.53987C23.0691 4.20632 21.62 5.074 19.9028 6.20147L19.9021 6.20192C16.8757 8.19073 13.6569 10.5667 11.3493 12.2804C10.0909 13.2113 9.07646 13.9505 8.64242 14.235C7.3341 15.0898 5.67435 16.2468 4.49105 18.2224C3.27348 20.2264 2.83546 22.5913 2.96529 25.4075C3.0456 27.3728 2.96589 28.7677 2.88266 30.0495L2.88214 30.0576L2.88168 30.0656L2.88145 30.0698C2.79727 31.5513 2.71258 33.0417 2.98823 34.7744L2.98913 34.78C3.2084 36.1337 3.53764 37.1887 4.05902 38.0973C4.40084 38.693 4.7952 39.1702 5.19144 39.5833C5.18981 39.6796 5.18889 39.7784 5.18889 39.8795V39.9162L5.19023 39.9528C5.27134 42.163 5.94607 44.2484 7.25914 45.9335L7.26502 45.941C8.30708 47.2652 9.66371 48.2657 11.285 48.9315C12.9794 49.6334 14.9339 49.949 17.0422 49.949C18.5802 49.949 20.2788 49.9529 22.0488 49.957L22.2721 49.9575C24.1201 49.9617 26.0406 49.966 27.9275 49.966C27.9289 49.966 27.9303 49.966 27.9317 49.966L28.6469 49.9693C32.0799 49.9851 35.3141 50 37.9549 50C41.2456 50 43.083 49.9841 43.7621 49.9466C44.8073 49.9005 48.2751 49.5025 50.7395 46.4544L50.7442 46.4486L50.7488 46.4428C51.676 45.2784 52.3135 43.9278 52.6486 42.4199L52.651 42.409L52.6533 42.3981C52.8514 41.4574 52.9259 40.48 52.9007 39.4753C53.8024 38.2219 54.6617 36.3725 54.8641 33.8081C55.0035 32.1676 55.1587 29.507 55.1933 26.9272L55.1934 26.9256C55.2449 22.8383 54.9964 21.227 54.7015 20.2438L54.7006 20.241C53.8579 17.4469 51.7472 15.9343 50.0048 14.6857C49.9442 14.6422 49.884 14.599 49.8243 14.5562L49.802 14.5402L49.7793 14.5248C49.2992 14.1996 48.8122 13.839 48.2179 13.3975C47.8574 13.1186 47.2998 12.6759 46.6427 12.1536C44.6944 10.5949 41.7026 8.20746 38.7639 6.19038ZM29.3105 8.20576L29.4312 8.19943C29.5854 8.21892 29.8573 8.27928 30.2688 8.43399C30.777 8.62502 31.3876 8.9172 32.0861 9.30459C33.4831 10.0795 35.0906 11.1558 36.7129 12.329C39.0141 13.993 41.1891 15.733 42.7756 17.0022C43.4529 17.544 44.0229 18 44.4497 18.3277L44.4497 18.3277L44.4595 18.3352C45.0982 18.8193 45.6884 19.238 46.2014 19.602C46.248 19.6351 46.2939 19.6677 46.3392 19.6998C46.8978 20.0964 47.3347 20.4106 47.6999 20.7082C48.4048 21.2827 48.6466 21.6424 48.7623 22.0177C48.8244 22.2353 48.9031 22.7892 48.9492 23.7234C48.9931 24.6109 49.0019 25.6879 48.9852 26.8374C48.9519 29.1349 48.8183 31.6313 48.6855 33.2992C48.5783 34.6467 48.1725 35.439 47.8791 35.8564C47.7276 36.0721 47.5934 36.2055 47.5188 36.272C47.4977 36.2908 47.4813 36.3042 47.4708 36.3126L46.3655 36.9818L46.5815 38.3139C47.0119 40.9681 46.3156 42.1867 45.7221 42.779C45.0397 43.4602 44.0832 43.7202 43.4755 43.7591C42.8577 43.7749 40.8009 43.7915 37.9549 43.7915C35.1398 43.7915 31.5802 43.7834 27.9397 43.7751L27.7006 43.7745C23.9786 43.766 20.1878 43.7575 17.0422 43.7575C14.9518 43.7575 13.7069 43.3273 12.9673 42.8568C12.2496 42.4004 11.8631 41.8153 11.6436 41.2019C11.4128 40.5567 11.3661 39.8677 11.3928 39.3008C11.4058 39.0252 11.4351 38.7986 11.4595 38.6485C11.4716 38.5741 11.4823 38.52 11.4885 38.4901C11.4909 38.4789 11.4926 38.4711 11.4935 38.467C11.4938 38.4656 11.494 38.4646 11.4942 38.4641C11.4944 38.463 11.4943 38.4635 11.4938 38.4658L11.7542 37.4221L11.0108 36.6274C10.6249 36.2149 10.292 35.9009 10.0403 35.6633C10.019 35.6433 9.9984 35.6238 9.97835 35.6049C9.7022 35.344 9.59141 35.2307 9.51317 35.1304L9.51062 35.1272C9.43979 35.0365 9.2831 34.836 9.11314 33.7895C8.96408 32.8299 8.99822 31.9466 9.07331 30.5821C9.07613 30.5309 9.07899 30.4792 9.08187 30.427C9.15537 29.0979 9.24726 27.4359 9.15321 25.1532L9.1532 25.1529C9.06942 23.127 9.39365 22.0828 9.7917 21.4253C10.21 20.7343 10.8611 20.2024 12.0362 19.4356L12.0362 19.4356L12.0445 19.4302C12.6175 19.0523 13.6673 18.2755 14.9252 17.3448C15.1107 17.2075 15.3008 17.0669 15.4945 16.9237C17.0386 15.7824 18.8936 14.419 20.7799 13.102C22.6726 11.7806 24.5624 10.5303 26.1775 9.60606C26.9859 9.14343 27.6924 8.78173 28.274 8.53583C28.896 8.27283 29.2191 8.21054 29.3105 8.20576Z" stroke="#00DB81" stroke-opacity="0.25" stroke-width="4"/>
</g>
</g>
</svg>
