<svg width="50" height="44" viewBox="0 0 50 44" fill="none" xmlns="http://www.w3.org/2000/svg">
<g id="&#60;Group&#62;">
<path id="&#60;Compound Path&#62;" fill-rule="evenodd" clip-rule="evenodd" d="M33.6321 3.83932C36.5032 5.80997 39.4422 8.15439 41.3958 9.71733C42.0584 10.244 42.636 10.7027 43.0097 10.9915C43.6043 11.4332 44.131 11.8239 44.6576 12.1806C46.5263 13.5227 48.1402 14.678 48.7858 16.8185C48.9897 17.4981 49.2445 18.8571 49.1935 22.9004C49.1595 25.4316 49.0066 28.0479 48.8707 29.6448C48.6669 32.244 47.6815 33.8919 46.8661 34.8263C46.951 35.9645 46.9001 37.0177 46.6962 37.986C46.4244 39.2092 45.9147 40.2795 45.1842 41.1969C43.2476 43.5923 40.4785 43.915 39.663 43.949C39.0684 43.983 37.3016 44 33.9549 44C31.1348 44 27.6352 43.983 23.9317 43.966C20.1603 43.966 16.253 43.949 13.0422 43.949C11.1225 43.949 9.44063 43.6602 8.04757 43.0826C6.72248 42.5389 5.6522 41.7405 4.83676 40.7042C3.81745 39.3961 3.25684 37.7312 3.18889 35.8795C3.18889 35.4718 3.20587 35.098 3.22286 34.7752C3.20021 34.7526 3.18322 34.7356 3.1719 34.7243C2.05066 33.671 1.35414 32.8726 0.963403 30.4602C0.725565 28.9652 0.793519 27.6741 0.878461 26.1791C0.963403 24.871 1.04834 23.3931 0.963403 21.3205C0.844484 18.7552 1.2522 16.8185 2.20356 15.2556C3.13792 13.6926 4.46302 12.7412 5.73715 11.9088C6.22981 11.586 7.30008 10.8046 8.54024 9.88721C10.8507 8.17138 14.0275 5.82699 17.0005 3.87333C18.6823 2.76908 20.0754 1.93663 21.2646 1.30806C22.8955 0.475626 24.1016 0.0509653 25.087 0C25.1662 0 25.2455 0 25.3248 0C27.1935 0 29.7588 1.18912 33.6321 3.83932ZM25.2059 2.20849C21.6383 2.39537 9.33869 12.1807 6.94333 13.7606C4.54796 15.3236 2.96803 16.7166 3.15491 21.2355C3.34178 25.7714 2.76417 27.7081 3.13792 30.1034C3.52865 32.5158 4.07228 32.4138 5.55028 33.9938C5.55028 33.9938 3.6136 41.7575 13.0422 41.7575C19.3279 41.7575 28.1958 41.7915 33.9549 41.7915C36.8429 41.7915 38.9495 41.7745 39.5611 41.7575C41.4128 41.6556 45.575 40.2795 44.5557 33.9938C44.5557 33.9938 46.4074 32.8726 46.6792 29.4579C46.951 26.0432 47.2229 19.2988 46.6792 17.4471C46.1186 15.5953 44.3348 14.7629 41.6676 12.7413C39.0344 10.7197 28.9943 2.19149 25.3248 2.19149C25.2795 2.19149 25.2399 2.19717 25.2059 2.20849Z" fill="#D6D9E1"/>
</g>
</svg>
