<svg width="52" height="47" viewBox="0 0 52 47" fill="none" xmlns="http://www.w3.org/2000/svg">
<path id="&#60;Compound Path&#62;" fill-rule="evenodd" clip-rule="evenodd" d="M34.9359 4.08533C37.9908 6.18221 41.1181 8.67671 43.1969 10.3398C43.9019 10.9001 44.5165 11.3882 44.9142 11.6955C45.5469 12.1655 46.1072 12.5813 46.6676 12.979C48.656 14.3889 50.3733 15.6182 51.0602 17.8958C51.2771 18.6189 51.5483 20.065 51.4941 24.3672C51.4398 27.0606 51.2952 29.8444 51.1506 31.5436C50.9156 34.3094 49.8852 36.0628 49.0176 37.057C49.1079 38.2681 49.0537 39.3889 48.8368 40.4193C48.5476 41.7208 48.0053 42.8777 47.228 43.8357C45.1672 46.3845 42.2208 46.7279 41.3531 46.7641C40.7204 46.8002 38.8404 46.8184 35.2794 46.8184C32.2786 46.8184 28.5549 46.8003 24.6142 46.7822C20.6012 46.7822 16.4436 46.7641 13.0271 46.7641C10.9844 46.7641 9.19485 46.4568 7.71257 45.8422C6.30259 45.2638 5.14569 44.4142 4.29609 43.3115C3.21149 41.9196 2.59689 40.148 2.54266 38.1777C2.54266 37.7439 2.54266 37.3462 2.57881 37.0027C2.55471 36.9786 2.53663 36.9606 2.52458 36.9485C1.33153 35.8459 0.590388 34.9782 0.174626 32.4113C-0.0784458 30.8205 -0.0061395 29.4468 0.0842434 27.856C0.174626 26.4641 0.246932 24.8915 0.156549 22.6861C0.0480892 19.9566 0.463854 17.8958 1.47614 16.2327C2.48843 14.5697 3.8984 13.5575 5.25415 12.6717C5.77837 12.3283 6.91719 11.4967 8.21871 10.5205C10.6952 8.69479 14.0574 6.20023 17.2208 4.12143C19.0285 2.94645 20.5108 2.06068 21.7761 1.39184C23.4934 0.506091 24.7949 0.0542298 25.8434 0C25.9277 0 26.0121 0 26.0965 0C28.0849 0 30.8144 1.26538 34.9359 4.08533ZM25.9699 2.34996C22.1738 2.5488 9.08639 12.9609 6.53759 14.642C3.98879 16.3051 2.30766 17.7874 2.50651 22.5957C2.70535 27.4222 2.07267 29.4829 2.48843 32.0317C2.90419 34.5985 3.48264 34.4901 5.05531 36.1713C5.05531 36.1713 2.99458 44.4322 13.0271 44.4322C19.7154 44.4322 29.1514 44.4684 35.2794 44.4684C38.3524 44.4684 40.5939 44.4503 41.2446 44.4322C43.215 44.3238 47.6257 42.8596 46.5591 36.1713C46.5591 36.1713 48.5114 34.9782 48.8187 31.3448C49.1079 27.7114 49.3972 20.535 48.8187 18.5646C48.2222 16.5943 46.3241 15.7086 43.4861 13.5574C40.6843 11.4063 30.001 2.34996 26.0965 2.34996C26.0483 2.34996 26.0061 2.34996 25.9699 2.34996Z" fill="#135C58" fill-opacity="0.23"/>
</svg>
