<svg width="48" height="48" viewBox="0 0 48 48" fill="none" xmlns="http://www.w3.org/2000/svg">
<rect width="48" height="48" rx="12" fill="white" fill-opacity="0.1"/>
<path d="M32.405 17.5645L24.5691 12.2137C24.2236 11.9769 23.7602 11.9848 23.4148 12.2216L15.5873 17.6908C15.1407 17.9985 14.8711 18.4957 14.8711 19.0245V23.4598C14.8711 23.9175 15.4272 24.1622 15.8063 23.8781L23.4822 18.0932C23.8023 17.8486 24.2573 17.8486 24.5691 18.0932L32.2028 23.8781C32.5735 24.1622 33.1296 23.9096 33.1296 23.4598V18.914C33.1296 18.3774 32.86 17.8802 32.405 17.5645Z" fill="#00DB81"/>
<path d="M32.405 29.5244L24.5691 24.1737C24.2236 23.9369 23.7602 23.9448 23.4148 24.1816L15.5873 29.6507C15.1407 29.9585 14.8711 30.4557 14.8711 30.9845V35.4197C14.8711 35.8774 15.4272 36.1221 15.8063 35.838L23.4822 30.0532C23.8023 29.8085 24.2573 29.8085 24.5691 30.0532L32.2028 35.838C32.5735 36.1221 33.1296 35.8696 33.1296 35.4197V30.874C33.1296 30.3373 32.86 29.8401 32.405 29.5244Z" fill="#00DB81"/>
</svg>
