<svg width="25" height="24" viewBox="0 0 25 24" fill="none" xmlns="http://www.w3.org/2000/svg">
<g id="user">
<path id="Vector" fill-rule="evenodd" clip-rule="evenodd" d="M9.25 8C9.25 6.20507 10.7051 4.75 12.5 4.75C14.2949 4.75 15.75 6.20507 15.75 8C15.75 9.79493 14.2949 11.25 12.5 11.25C10.7051 11.25 9.25 9.79493 9.25 8ZM15.3583 11.7941C16.5073 10.9271 17.25 9.55031 17.25 8C17.25 5.37665 15.1234 3.25 12.5 3.25C9.87665 3.25 7.75 5.37665 7.75 8C7.75 9.55031 8.49271 10.9271 9.64172 11.7941C6.77612 12.9317 4.75 15.7293 4.75 19V20C4.75 20.4142 5.08579 20.75 5.5 20.75C5.91421 20.75 6.25 20.4142 6.25 20V19C6.25 15.5482 9.04822 12.75 12.5 12.75C15.9518 12.75 18.75 15.5482 18.75 19V20C18.75 20.4142 19.0858 20.75 19.5 20.75C19.9142 20.75 20.25 20.4142 20.25 20V19C20.25 15.7293 18.2239 12.9317 15.3583 11.7941Z" fill="#6B778C"/>
</g>
</svg>
