<svg width="24" height="25" viewBox="0 0 24 25" fill="none" xmlns="http://www.w3.org/2000/svg">
<circle cx="9" cy="9.90332" r="2" stroke="#6B778C" stroke-width="1.5"/>
<path d="M13 15.9033C13 17.0079 13 17.9033 9 17.9033C5 17.9033 5 17.0079 5 15.9033C5 14.7988 6.79086 13.9033 9 13.9033C11.2091 13.9033 13 14.7988 13 15.9033Z" stroke="#6B778C" stroke-width="1.5"/>
<path d="M2 12.9033C2 9.13208 2 7.24647 3.17157 6.07489C4.34315 4.90332 6.22876 4.90332 10 4.90332H14C17.7712 4.90332 19.6569 4.90332 20.8284 6.07489C22 7.24647 22 9.13208 22 12.9033C22 16.6746 22 18.5602 20.8284 19.7317C19.6569 20.9033 17.7712 20.9033 14 20.9033H10C6.22876 20.9033 4.34315 20.9033 3.17157 19.7317C2 18.5602 2 16.6746 2 12.9033Z" stroke="#6B778C" stroke-width="1.5"/>
<path d="M19 12.9033H15" stroke="#6B778C" stroke-width="1.5" stroke-linecap="round"/>
<path d="M19 9.90332H14" stroke="#6B778C" stroke-width="1.5" stroke-linecap="round"/>
<path d="M19 15.9033H16" stroke="#6B778C" stroke-width="1.5" stroke-linecap="round"/>
</svg>
