<svg width="56" height="41" viewBox="0 0 56 41" fill="none" xmlns="http://www.w3.org/2000/svg">
<path d="M0 20.2856C0 9.23995 8.95431 0.285645 20 0.285645H36C47.0457 0.285645 56 9.23995 56 20.2856C56 31.3313 47.0457 40.2856 36 40.2856H20C8.95431 40.2856 0 31.3313 0 20.2856Z" fill="#FAFAFA"/>
<path fill-rule="evenodd" clip-rule="evenodd" d="M31.6779 12.6809C32.4715 12.4693 33.25 13.0674 33.25 13.8887V14.5356H24.7227L31.6779 12.6809ZM18.25 17.2855V16.822C18.25 15.5762 19.0876 14.4859 20.2914 14.1649L31.2914 11.2316C33.0373 10.766 34.75 12.0819 34.75 13.8887V14.5356H35C36.5188 14.5356 37.75 15.7669 37.75 17.2856V26.2856C37.75 27.8044 36.5188 29.0356 35 29.0356H21C19.4812 29.0356 18.25 27.8044 18.25 26.2856V17.2856C18.25 17.2856 18.25 17.2855 18.25 17.2855ZM19.75 17.2855C19.75 17.2855 19.75 17.2856 19.75 17.2856V26.2856C19.75 26.976 20.3096 27.5356 21 27.5356H35C35.6904 27.5356 36.25 26.976 36.25 26.2856V17.2856C36.25 16.5953 35.6904 16.0356 35 16.0356H21C20.3097 16.0356 19.7501 16.5952 19.75 17.2855ZM33.75 21.7856C33.75 21.0953 33.1904 20.5356 32.5 20.5356C31.8096 20.5356 31.25 21.0953 31.25 21.7856C31.25 22.476 31.8096 23.0356 32.5 23.0356C33.1904 23.0356 33.75 22.476 33.75 21.7856Z" fill="#292927"/>
</svg>
