<svg width="25" height="24" viewBox="0 0 25 24" fill="none" xmlns="http://www.w3.org/2000/svg">
<g id="wallet">
<path id="Vector" fill-rule="evenodd" clip-rule="evenodd" d="M16.1779 4.39527C16.9715 4.18366 17.75 4.78178 17.75 5.60306V6.25H9.22269L16.1779 4.39527ZM2.75 8.99984V8.5364C2.75 7.29051 3.58761 6.20027 4.79143 5.87925L15.7914 2.94592C17.5373 2.48036 19.25 3.79623 19.25 5.60306V6.25H19.5C21.0188 6.25 22.25 7.48122 22.25 9V18C22.25 19.5188 21.0188 20.75 19.5 20.75H5.5C3.98122 20.75 2.75 19.5188 2.75 18V9C2.75 8.99995 2.75 8.99989 2.75 8.99984ZM4.25 8.99984C4.25 8.99989 4.25 8.99995 4.25 9V18C4.25 18.6904 4.80964 19.25 5.5 19.25H19.5C20.1904 19.25 20.75 18.6904 20.75 18V9C20.75 8.30964 20.1904 7.75 19.5 7.75H5.5C4.8097 7.75 4.25009 8.30956 4.25 8.99984ZM18.25 13.5C18.25 12.8096 17.6904 12.25 17 12.25C16.3096 12.25 15.75 12.8096 15.75 13.5C15.75 14.1904 16.3096 14.75 17 14.75C17.6904 14.75 18.25 14.1904 18.25 13.5Z" fill="#6B778C"/>
</g>
</svg>
