<svg width="32" height="32" viewBox="0 0 32 32" fill="none" xmlns="http://www.w3.org/2000/svg">
<g id="X_icon 1" clip-path="url(#clip0_4029_30605)">
<path id="Vector" d="M14.2938 0.11741C8.67206 0.704077 3.64892 4.4052 1.3654 9.64274C-0.106175 13.0241 -0.351082 16.9174 0.693825 20.5016C1.98449 24.9707 5.32316 28.7465 9.64316 30.635C13.0245 32.1065 16.9178 32.3514 20.5023 31.3065C25.8672 29.7599 30.0914 25.355 31.478 19.8825C33.6429 11.3067 28.3312 2.5381 19.7338 0.490744C17.8454 0.0427438 16.1823 -0.0748029 14.2938 0.11741ZM14.5072 10.0267C15.8721 11.8401 17.0245 13.3334 17.0672 13.3334C17.1098 13.3334 18.5289 11.8401 20.2032 10.0267L23.2645 6.72008H25.0032L24.6298 7.11517C24.4165 7.33832 23.0298 8.84253 21.5472 10.4534C20.0645 12.0641 18.6138 13.6316 18.3254 13.9201L17.8138 14.4641L21.8138 19.7867C24.0112 22.7201 25.8138 25.1516 25.8138 25.1952C25.8138 25.2485 24.5023 25.2801 22.9121 25.2801L20.0005 25.2694L17.2912 21.6427C15.4245 19.1361 14.5498 18.0581 14.4645 18.1227C14.4005 18.1761 12.8854 19.8085 11.0938 21.7494L7.84049 25.2801H7.01873C6.56049 25.2801 6.18716 25.2583 6.18716 25.2267C6.18716 25.1952 7.88316 23.3383 9.95206 21.1094C12.0114 18.8801 13.718 17.0134 13.7387 16.9818C13.7498 16.9383 12.0538 14.6241 9.97382 11.8401C7.89382 9.06674 6.18716 6.77341 6.18716 6.75165C6.18716 6.73096 7.49873 6.72008 9.10982 6.72008H12.0321L14.5072 10.0267Z" fill="#023936"/>
<path id="Vector_2" d="M8.82179 8.14933C8.86424 8.224 11.5516 11.8293 14.7734 16.1382L20.64 23.9891L21.9516 24C22.7625 24 23.2534 23.9573 23.2316 23.8933C23.2218 23.84 20.5442 20.2351 17.3018 15.8933L11.3916 8H10.0694C8.97112 8 8.74669 8.02176 8.82179 8.14933Z" fill="#023936"/>
</g>
<defs>
<clipPath id="clip0_4029_30605">
<rect width="32" height="32" fill="white"/>
</clipPath>
</defs>
</svg>
