<svg width="18" height="16" viewBox="0 0 18 16" fill="none" xmlns="http://www.w3.org/2000/svg">
<path d="M11.0846 5.70834H0.667969C0.326302 5.70834 0.0429688 5.42501 0.0429688 5.08334C0.0429688 4.74168 0.326302 4.45834 0.667969 4.45834H11.0846C11.4263 4.45834 11.7096 4.74168 11.7096 5.08334C11.7096 5.42501 11.4263 5.70834 11.0846 5.70834ZM5.66797 12.375H4.0013C3.65964 12.375 3.3763 12.0917 3.3763 11.75C3.3763 11.4083 3.65964 11.125 4.0013 11.125H5.66797C6.00964 11.125 6.29297 11.4083 6.29297 11.75C6.29297 12.0917 6.00964 12.375 5.66797 12.375ZM11.0846 12.375H7.7513C7.40964 12.375 7.1263 12.0917 7.1263 11.75C7.1263 11.4083 7.40964 11.125 7.7513 11.125H11.0846C11.4263 11.125 11.7096 11.4083 11.7096 11.75C11.7096 12.0917 11.4263 12.375 11.0846 12.375Z" fill="#22A06B"/>
<path d="M13.6346 15.7084H4.36797C1.0513 15.7084 0.0429688 14.7084 0.0429688 11.425V4.57502C0.0429688 1.29169 1.0513 0.291687 4.36797 0.291687H11.0846C11.4263 0.291687 11.7096 0.57502 11.7096 0.916687C11.7096 1.25835 11.4263 1.54169 11.0846 1.54169H4.36797C1.7513 1.54169 1.29297 1.99169 1.29297 4.57502V11.4167C1.29297 14 1.7513 14.45 4.36797 14.45H13.6263C16.243 14.45 16.7013 14 16.7013 11.4167V9.68335C16.7013 9.34169 16.9846 9.05835 17.3263 9.05835C17.668 9.05835 17.9513 9.34169 17.9513 9.68335V11.4167C17.9596 14.7084 16.9513 15.7084 13.6346 15.7084Z" fill="#22A06B"/>
<path d="M15.668 6.54169C15.5024 6.54103 15.3438 6.47497 15.2268 6.3579C15.1097 6.24083 15.0436 6.08224 15.043 5.91669V0.916687C15.043 0.57502 15.3263 0.291687 15.668 0.291687C16.0096 0.291687 16.293 0.57502 16.293 0.916687V4.40835L16.893 3.80835C17.1346 3.56669 17.5346 3.56669 17.7763 3.80835C18.018 4.05002 18.018 4.45002 17.7763 4.69169L16.1096 6.35835C15.9925 6.4756 15.8337 6.54154 15.668 6.54169Z" fill="#22A06B"/>
<path d="M15.668 6.54169C15.5097 6.54169 15.3513 6.48336 15.2263 6.35836L13.5597 4.69169C13.318 4.45002 13.318 4.05002 13.5597 3.80836C13.8013 3.56669 14.2013 3.56669 14.443 3.80836L16.1097 5.47502C16.3513 5.71669 16.3513 6.11669 16.1097 6.35836C15.9847 6.48336 15.8263 6.54169 15.668 6.54169Z" fill="#22A06B"/>
</svg>
