<svg width="24" height="25" viewBox="0 0 24 25" fill="none" xmlns="http://www.w3.org/2000/svg">
<path fill-rule="evenodd" clip-rule="evenodd" d="M13.4948 5.26852C12.6423 4.51075 11.3577 4.51075 10.5052 5.26852L4.50518 10.6019C4.02483 11.0288 3.75 11.6408 3.75 12.2835V22.1863H5.25L5.25 16.8843C5.24997 15.9858 5.24994 15.2366 5.32991 14.6419C5.41432 14.0141 5.59999 13.4473 6.05546 12.9918C6.51093 12.5363 7.07773 12.3506 7.70552 12.2662C8.3003 12.1863 9.04952 12.1863 9.94801 12.1863H14.052C14.9505 12.1863 15.6997 12.1863 16.2945 12.2662C16.9223 12.3506 17.4891 12.5363 17.9445 12.9918C18.4 13.4473 18.5857 14.0141 18.6701 14.6419C18.7501 15.2366 18.75 15.9859 18.75 16.8843V22.1863H20.25V12.2835C20.25 11.6408 19.9752 11.0288 19.4948 10.6019L13.4948 5.26852ZM21.75 22.1863V12.2835C21.75 11.2124 21.2919 10.1924 20.4914 9.48074L14.4914 4.14741C13.0705 2.88446 10.9295 2.88446 9.50864 4.14741L3.50864 9.48074C2.70805 10.1924 2.25 11.2124 2.25 12.2835V22.1863H2C1.58579 22.1863 1.25 22.5221 1.25 22.9363C1.25 23.3505 1.58579 23.6863 2 23.6863H22C22.4142 23.6863 22.75 23.3505 22.75 22.9363C22.75 22.5221 22.4142 22.1863 22 22.1863H21.75ZM17.25 22.1863V16.9363C17.25 15.9723 17.2484 15.3248 17.1835 14.8417C17.1214 14.3803 17.0142 14.1828 16.8839 14.0524C16.7536 13.9221 16.5561 13.8149 16.0946 13.7529C15.6116 13.6879 14.964 13.6863 14 13.6863H10C9.03599 13.6863 8.38843 13.6879 7.90539 13.7529C7.44393 13.8149 7.24643 13.9221 7.11612 14.0524C6.9858 14.1828 6.87858 14.3803 6.81654 14.8417C6.75159 15.3248 6.75 15.9723 6.75 16.9363V22.1863H17.25ZM9.25 9.93633C9.25 9.52212 9.58579 9.18633 10 9.18633H14C14.4142 9.18633 14.75 9.52212 14.75 9.93633C14.75 10.3505 14.4142 10.6863 14 10.6863H10C9.58579 10.6863 9.25 10.3505 9.25 9.93633ZM8.25 16.4363C8.25 16.0221 8.58579 15.6863 9 15.6863H15C15.4142 15.6863 15.75 16.0221 15.75 16.4363C15.75 16.8505 15.4142 17.1863 15 17.1863H9C8.58579 17.1863 8.25 16.8505 8.25 16.4363ZM8.25 19.4363C8.25 19.0221 8.58579 18.6863 9 18.6863H15C15.4142 18.6863 15.75 19.0221 15.75 19.4363C15.75 19.8505 15.4142 20.1863 15 20.1863H9C8.58579 20.1863 8.25 19.8505 8.25 19.4363Z" fill="#1C274C"/>
</svg>
