<svg width="32" height="32" viewBox="0 0 32 32" fill="none" xmlns="http://www.w3.org/2000/svg">
<g id="Linear / Money / Banknote 2">
<path id="Vector" d="M2.6665 14.6665C2.6665 10.8953 2.6665 9.00965 3.83808 7.83808C5.00965 6.6665 6.89527 6.6665 10.6665 6.6665H17.3332C21.1044 6.6665 22.99 6.6665 24.1616 7.83808C25.3332 9.00965 25.3332 10.8953 25.3332 14.6665C25.3332 18.4377 25.3332 20.3234 24.1616 21.4949C22.99 22.6665 21.1044 22.6665 17.3332 22.6665H10.6665C6.89527 22.6665 5.00965 22.6665 3.83808 21.4949C2.6665 20.3234 2.6665 18.4377 2.6665 14.6665Z" stroke="#2E353F" stroke-width="1.5"/>
<path id="Vector_2" d="M25.3337 10.7681C26.6338 10.8959 27.509 11.185 28.1622 11.8381C29.3337 13.0097 29.3337 14.8953 29.3337 18.6666C29.3337 22.4378 29.3337 24.3234 28.1622 25.495C26.9906 26.6666 25.105 26.6666 21.3337 26.6666H14.6671C10.8958 26.6666 9.01021 26.6666 7.83864 25.495C7.18545 24.8418 6.89643 23.9667 6.76855 22.6665" stroke="#2E353F" stroke-width="1.5"/>
<path id="Vector_3" d="M17.3332 14.6668C17.3332 16.5078 15.8408 18.0002 13.9998 18.0002C12.1589 18.0002 10.6665 16.5078 10.6665 14.6668C10.6665 12.8259 12.1589 11.3335 13.9998 11.3335C15.8408 11.3335 17.3332 12.8259 17.3332 14.6668Z" stroke="#22A06B" stroke-width="1.5"/>
<path id="Vector_4" d="M21.3335 17.3335L21.3335 12.0002" stroke="#22A06B" stroke-width="1.5" stroke-linecap="round"/>
<path id="Vector_5" d="M6.6665 17.3335L6.6665 12.0002" stroke="#22A06B" stroke-width="1.5" stroke-linecap="round"/>
</g>
</svg>
