<svg width="32" height="32" viewBox="0 0 32 32" fill="none" xmlns="http://www.w3.org/2000/svg">
<g id="Linear / Money / Bill Check ">
<path id="Vector" d="M22.34 2.6665H9.66002C8.11486 2.6665 7.34228 2.6665 6.71918 2.88331C5.53763 3.29444 4.60997 4.24942 4.21061 5.46579C4 6.10723 4 6.90257 4 8.49325V27.1654C4 28.3097 5.31333 28.9169 6.14413 28.1566C6.63223 27.71 7.36777 27.71 7.85587 28.1566L8.5 28.7461C9.35545 29.5289 10.6446 29.5289 11.5 28.7461C12.3554 27.9633 13.6446 27.9633 14.5 28.7461C15.3554 29.5289 16.6446 29.5289 17.5 28.7461C18.3554 27.9633 19.6446 27.9633 20.5 28.7461C21.3554 29.5289 22.6446 29.5289 23.5 28.7461L24.1441 28.1566C24.6322 27.71 25.3678 27.71 25.8559 28.1566C26.6867 28.9169 28 28.3097 28 27.1654V8.49325C28 6.90257 28 6.10723 27.7894 5.46579C27.39 4.24942 26.4624 3.29444 25.2808 2.88331C24.6577 2.6665 23.8851 2.6665 22.34 2.6665Z" stroke="#1C274C" stroke-width="1.5"/>
<path id="Vector_2" d="M12.6665 13.8665L14.5713 15.9998L19.3332 10.6665" stroke="#22A06B" stroke-width="1.5" stroke-linecap="round" stroke-linejoin="round"/>
<path id="Vector_3" d="M10 20.6665H22" stroke="#22A06B" stroke-width="1.5" stroke-linecap="round"/>
</g>
</svg>
