<svg width="17" height="15" viewBox="0 0 17 15" fill="none" xmlns="http://www.w3.org/2000/svg">
<path d="M10.75 10.5V9H16.75V13.5C16.75 14.3125 16.0312 15 15.25 15H2.25C1.4375 15 0.75 14.3125 0.75 13.5V9H6.75V10.5C6.75 10.7812 6.96875 11 7.25 11H10.25C10.5 11 10.75 10.7812 10.75 10.5ZM15.25 3C16.0312 3 16.75 3.71875 16.75 4.5V8H0.75V4.5C0.75 3.71875 1.4375 3 2.25 3H4.75V1.5C4.75 0.71875 5.4375 0 6.25 0H11.25C12.0312 0 12.75 0.71875 12.75 1.5V3H15.25ZM11.25 3V1.5H6.25V3H11.25Z" fill="#696D73"/>
</svg>
