<svg width="32" height="32" viewBox="0 0 32 32" fill="none" xmlns="http://www.w3.org/2000/svg">
<g id="Navigation / Building_04">
<path id="Vector" d="M2.6665 26.6667H5.33317M5.33317 26.6667H18.6665M5.33317 26.6667V8.26693C5.33317 6.77345 5.33317 6.02616 5.62382 5.45573C5.87948 4.95396 6.28713 4.54631 6.7889 4.29065C7.35933 4 8.10662 4 9.6001 4H14.4001C15.8936 4 16.6393 4 17.2097 4.29065C17.7115 4.54631 18.1205 4.95396 18.3761 5.45573C18.6665 6.0256 18.6665 6.77199 18.6665 8.26255V16M18.6665 26.6667H26.6665M18.6665 26.6667V16M26.6665 26.6667H29.3332M26.6665 26.6667V16C26.6665 14.7575 26.6664 14.1365 26.4634 13.6465C26.1927 12.9931 25.6741 12.4736 25.0207 12.203C24.5306 12 23.9087 12 22.6662 12C21.4236 12 20.8024 12 20.3123 12.203C19.6589 12.4736 19.1401 12.9931 18.8695 13.6465C18.6665 14.1365 18.6665 14.7575 18.6665 16M9.33317 13.3333H14.6665M9.33317 9.33333H14.6665" stroke="#1A1A1A" stroke-width="2" stroke-linecap="round" stroke-linejoin="round"/>
</g>
</svg>
