<svg width="114" height="57" viewBox="0 0 114 57" fill="none" xmlns="http://www.w3.org/2000/svg">
<g filter="url(#filter0_d_9502_83256)">
<path d="M78.9617 35.8476L79.426 35.2587L78.9617 35.8476ZM82 22.4374L81.4596 22.9575C81.601 23.1044 81.7961 23.1874 82 23.1874C82.2039 23.1874 82.399 23.1044 82.5404 22.9575L82 22.4374ZM85.0383 35.8476L85.5026 36.4366L85.0383 35.8476ZM79.426 35.2587C77.9104 34.0638 76.2531 32.897 74.9383 31.4165C73.6492 29.965 72.75 28.2713 72.75 26.0739H71.25C71.25 28.7394 72.3605 30.7728 73.8167 32.4126C75.2472 34.0234 77.0708 35.312 78.4974 36.4366L79.426 35.2587ZM72.75 26.0739C72.75 23.923 73.9654 22.1193 75.6244 21.361C77.2361 20.6242 79.4017 20.8193 81.4596 22.9575L82.5404 21.9173C80.0985 19.3803 77.2641 18.9622 75.0008 19.9967C72.7847 21.0097 71.25 23.3618 71.25 26.0739H72.75ZM78.4974 36.4366C79.0097 36.8404 79.5595 37.271 80.1168 37.5967C80.6739 37.9222 81.3096 38.1868 82 38.1868V36.6868C81.6904 36.6868 81.3261 36.566 80.8736 36.3016C80.4213 36.0373 79.9521 35.6733 79.426 35.2587L78.4974 36.4366ZM85.5026 36.4366C86.9292 35.312 88.7528 34.0234 90.1833 32.4126C91.6395 30.7728 92.75 28.7394 92.75 26.0739H91.25C91.25 28.2713 90.3508 29.965 89.0617 31.4165C87.7469 32.897 86.0896 34.0638 84.574 35.2587L85.5026 36.4366ZM92.75 26.0739C92.75 23.3618 91.2153 21.0097 88.9992 19.9967C86.7359 18.9622 83.9015 19.3803 81.4596 21.9173L82.5404 22.9575C84.5983 20.8193 86.7639 20.6242 88.3756 21.361C90.0346 22.1193 91.25 23.923 91.25 26.0739H92.75ZM84.574 35.2587C84.0479 35.6733 83.5787 36.0373 83.1264 36.3016C82.6739 36.566 82.3096 36.6868 82 36.6868V38.1868C82.6904 38.1868 83.3261 37.9222 83.8832 37.5967C84.4405 37.271 84.9903 36.8404 85.5026 36.4366L84.574 35.2587Z" fill="#2E353F"/>
</g>
<defs>
<filter id="filter0_d_9502_83256" x="-8" y="-57.0635" width="180" height="180" filterUnits="userSpaceOnUse" color-interpolation-filters="sRGB">
<feFlood flood-opacity="0" result="BackgroundImageFix"/>
<feColorMatrix in="SourceAlpha" type="matrix" values="0 0 0 0 0 0 0 0 0 0 0 0 0 0 0 0 0 0 127 0" result="hardAlpha"/>
<feOffset dy="4"/>
<feGaussianBlur stdDeviation="35"/>
<feComposite in2="hardAlpha" operator="out"/>
<feColorMatrix type="matrix" values="0 0 0 0 0.654902 0 0 0 0 0.682353 0 0 0 0 0.756863 0 0 0 0.15 0"/>
<feBlend mode="normal" in2="BackgroundImageFix" result="effect1_dropShadow_9502_83256"/>
<feBlend mode="normal" in="SourceGraphic" in2="effect1_dropShadow_9502_83256" result="shape"/>
</filter>
</defs>
</svg>
