<svg width="32" height="32" viewBox="0 0 32 32" fill="none" xmlns="http://www.w3.org/2000/svg">
<g id="Linear / Time / Calendar">
<path id="Vector" d="M2.6665 16.0002C2.6665 10.9718 2.6665 8.45769 4.2286 6.89559C5.7907 5.3335 8.30486 5.3335 13.3332 5.3335H18.6665C23.6948 5.3335 26.209 5.3335 27.7711 6.89559C29.3332 8.45769 29.3332 10.9718 29.3332 16.0002V18.6668C29.3332 23.6951 29.3332 26.2093 27.7711 27.7714C26.209 29.3335 23.6948 29.3335 18.6665 29.3335H13.3332C8.30486 29.3335 5.7907 29.3335 4.2286 27.7714C2.6665 26.2093 2.6665 23.6951 2.6665 18.6668V16.0002Z" stroke="#1C274C" stroke-width="1.5"/>
<path id="Vector_2" d="M9.3335 5.3335V3.3335" stroke="#1C274C" stroke-width="1.5" stroke-linecap="round"/>
<path id="Vector_3" d="M22.6665 5.3335V3.3335" stroke="#1C274C" stroke-width="1.5" stroke-linecap="round"/>
<path id="Vector_4" d="M3.3335 12H28.6668" stroke="#1C274C" stroke-width="1.5" stroke-linecap="round"/>
<g id="Vector_5">
<path d="M24.0002 22.6667C24.0002 23.403 23.4032 24 22.6668 24C21.9304 24 21.3335 23.403 21.3335 22.6667C21.3335 21.9303 21.9304 21.3333 22.6668 21.3333C23.4032 21.3333 24.0002 21.9303 24.0002 22.6667Z" fill="#22A06B"/>
<path d="M24.0002 17.3333C24.0002 18.0697 23.4032 18.6667 22.6668 18.6667C21.9304 18.6667 21.3335 18.0697 21.3335 17.3333C21.3335 16.597 21.9304 16 22.6668 16C23.4032 16 24.0002 16.597 24.0002 17.3333Z" fill="#22A06B"/>
</g>
<g id="Vector_6">
<path d="M17.3332 22.6667C17.3332 23.403 16.7362 24 15.9998 24C15.2635 24 14.6665 23.403 14.6665 22.6667C14.6665 21.9303 15.2635 21.3333 15.9998 21.3333C16.7362 21.3333 17.3332 21.9303 17.3332 22.6667Z" fill="#22A06B"/>
<path d="M17.3332 17.3333C17.3332 18.0697 16.7362 18.6667 15.9998 18.6667C15.2635 18.6667 14.6665 18.0697 14.6665 17.3333C14.6665 16.597 15.2635 16 15.9998 16C16.7362 16 17.3332 16.597 17.3332 17.3333Z" fill="#22A06B"/>
</g>
<g id="Vector_7">
<path d="M10.6667 22.6667C10.6667 23.403 10.0697 24 9.33333 24C8.59695 24 8 23.403 8 22.6667C8 21.9303 8.59695 21.3333 9.33333 21.3333C10.0697 21.3333 10.6667 21.9303 10.6667 22.6667Z" fill="#22A06B"/>
<path d="M10.6667 17.3333C10.6667 18.0697 10.0697 18.6667 9.33333 18.6667C8.59695 18.6667 8 18.0697 8 17.3333C8 16.597 8.59695 16 9.33333 16C10.0697 16 10.6667 16.597 10.6667 17.3333Z" fill="#22A06B"/>
</g>
</g>
</svg>
