<svg width="18" height="18" viewBox="0 0 18 18" fill="none" xmlns="http://www.w3.org/2000/svg">
<g id="elements">
<path id="Icon" fill-rule="evenodd" clip-rule="evenodd" d="M6.95678 0.0419924H6.87526C5.54004 0.0419823 4.48224 0.0419742 3.64539 0.140893C2.78625 0.242446 2.079 0.455644 1.48821 0.940492C1.28778 1.10498 1.104 1.28876 0.939517 1.48919C0.454669 2.07997 0.24147 2.78722 0.139916 3.64637C0.040998 4.48322 0.041006 5.54101 0.0410158 6.87623V6.95775C0.0410058 8.29297 0.0409977 9.35077 0.139916 10.1876C0.241469 11.0468 0.454668 11.754 0.939516 12.3448C1.104 12.5452 1.28778 12.729 1.48821 12.8935C2.0481 13.353 2.71259 13.5685 3.51221 13.6763C4.16127 13.7637 4.94255 13.7849 5.88327 13.7902C5.89413 14.3086 5.91818 14.7639 5.97145 15.1601C6.0723 15.9102 6.28804 16.5418 6.78964 17.0434C7.29124 17.545 7.9228 17.7607 8.67289 17.8616C9.39536 17.9587 10.314 17.9587 11.4536 17.9587H12.3784C13.5181 17.9587 14.4367 17.9587 15.1591 17.8616C15.9092 17.7607 16.5408 17.545 17.0424 17.0434C17.544 16.5418 17.7597 15.9102 17.8606 15.1601C17.9577 14.4376 17.9577 13.519 17.9577 12.3794V11.4546C17.9577 10.3149 17.9577 9.39634 17.8606 8.67387C17.7597 7.92378 17.544 7.29222 17.0424 6.79062C16.5408 6.28902 15.9092 6.07328 15.1591 5.97243C14.7629 5.91915 14.3076 5.8951 13.7892 5.88425C13.784 4.94353 13.7628 4.16224 13.6753 3.51319C13.5675 2.71357 13.352 2.04908 12.8925 1.48919C12.728 1.28876 12.5443 1.10498 12.3438 0.940493C11.753 0.455645 11.0458 0.242447 10.1866 0.140893C9.34979 0.0419746 8.292 0.0419825 6.95678 0.0419924ZM12.5391 5.87533C12.5336 4.95018 12.5127 4.24603 12.4365 3.68012C12.3458 3.00698 12.184 2.59627 11.9263 2.28218C11.8137 2.14504 11.688 2.0193 11.5508 1.90676C11.2197 1.63497 10.781 1.46986 10.0399 1.38225C9.28498 1.29302 8.30111 1.29199 6.91602 1.29199C5.53092 1.29199 4.54705 1.29302 3.79212 1.38225C3.05099 1.46985 2.61237 1.63497 2.2812 1.90676C2.14407 2.0193 2.01832 2.14504 1.90578 2.28218C1.634 2.61335 1.46888 3.05197 1.38127 3.7931C1.29204 4.54803 1.29102 5.5319 1.29102 6.91699C1.29102 8.30209 1.29204 9.28596 1.38127 10.0409C1.46888 10.782 1.634 11.2206 1.90578 11.5518C2.01832 11.6889 2.14407 11.8147 2.2812 11.9272C2.59529 12.185 3.006 12.3468 3.67915 12.4375C4.24505 12.5137 4.9492 12.5345 5.87436 12.5401C5.87435 12.487 5.87435 12.4334 5.87435 12.3794V11.4546C5.87433 10.3149 5.87432 9.39634 5.97145 8.67387C6.0723 7.92378 6.28804 7.29221 6.78964 6.79062C7.29124 6.28902 7.9228 6.07328 8.67289 5.97243C9.39536 5.8753 10.314 5.87531 11.4536 5.87533H12.3784C12.4325 5.87533 12.486 5.87532 12.5391 5.87533ZM7.67353 7.6745C7.90416 7.44387 8.22797 7.29349 8.83945 7.21128C9.46891 7.12665 10.3032 7.12533 11.4994 7.12533H12.3327C13.5289 7.12533 14.3631 7.12665 14.9926 7.21128C15.6041 7.29349 15.9279 7.44387 16.1585 7.6745C16.3891 7.90514 16.5395 8.22895 16.6217 8.84043C16.7064 9.46989 16.7077 10.3041 16.7077 11.5003V12.3337C16.7077 13.5298 16.7064 14.3641 16.6217 14.9936C16.5395 15.605 16.3891 15.9288 16.1585 16.1595C15.9279 16.3901 15.6041 16.5405 14.9926 16.6227C14.3631 16.7073 13.5289 16.7087 12.3327 16.7087H11.4993C10.3032 16.7087 9.46891 16.7073 8.83945 16.6227C8.22797 16.5405 7.90416 16.3901 7.67352 16.1595C7.44289 15.9288 7.29252 15.605 7.21031 14.9936C7.12568 14.3641 7.12435 13.5298 7.12435 12.3337V11.5003C7.12435 10.3041 7.12568 9.46989 7.21031 8.84043C7.29252 8.22895 7.44289 7.90514 7.67353 7.6745Z" fill="#0C3F82"/>
</g>
</svg>
