<svg width="20" height="25" viewBox="0 0 20 25" fill="none" xmlns="http://www.w3.org/2000/svg">
<g id="Group">
<path id="Vector" d="M19 4.58787H15.9C15.4215 2.26147 13.3751 0.590891 11 0.587891H8.99995C6.62484 0.590891 4.57837 2.26147 4.09997 4.58787H0.999984C0.447703 4.58787 0 5.03558 0 5.58786C0 6.14014 0.447703 6.58789 0.999984 6.58789H1.99997V19.5879C2.0033 22.3479 4.23994 24.5846 6.99998 24.5879H13C15.76 24.5846 17.9967 22.3479 18 19.5879V6.58789H19C19.5523 6.58789 20 6.14019 20 5.58791C20 5.03562 19.5523 4.58787 19 4.58787ZM9 17.5879C9 18.1402 8.5523 18.5879 8.00002 18.5879C7.44769 18.5879 6.99998 18.1402 6.99998 17.5879V11.5879C6.99998 11.0356 7.44769 10.5879 7.99997 10.5879C8.55225 10.5879 8.99995 11.0356 8.99995 11.5879V17.5879H9ZM13 17.5879C13 18.1402 12.5523 18.5879 12 18.5879C11.4477 18.5879 11 18.1402 11 17.5879V11.5879C11 11.0356 11.4477 10.5879 12 10.5879C12.5523 10.5879 13 11.0356 13 11.5879V17.5879ZM6.171 4.58787C6.59634 3.39017 7.72903 2.58941 9 2.58786H11C12.271 2.58941 13.4037 3.39017 13.829 4.58787H6.171Z" fill="#E51B1B"/>
</g>
</svg>
