<svg width="160" height="156" viewBox="0 0 160 156" fill="none" xmlns="http://www.w3.org/2000/svg">
<g clip-path="url(#clip0_11489_17633)">
<path d="M101.575 35.0839H58.4615C57.4791 35.0851 56.5372 35.4754 55.8425 36.1693C55.1478 36.8633 54.757 37.8041 54.7558 38.7854V134.494L54.2617 134.645L43.6853 137.88C43.1841 138.033 42.6427 137.98 42.18 137.735C41.7173 137.489 41.3711 137.07 41.2173 136.57L9.75763 33.9265C9.60453 33.4259 9.65671 32.885 9.9027 32.4227C10.1487 31.9604 10.5684 31.6147 11.0695 31.4613L27.3676 26.4766L74.6163 12.0309L90.9143 7.04614C91.1623 6.9699 91.423 6.94325 91.6813 6.96774C91.9397 6.99222 92.1907 7.06735 92.4199 7.18883C92.6491 7.31031 92.8522 7.47575 93.0173 7.67569C93.1825 7.87562 93.3065 8.10613 93.3824 8.35401L101.424 34.5903L101.575 35.0839Z" fill="#FAFAFA"/>
<path d="M110.982 34.5904L101.29 2.96956C101.129 2.4427 100.866 1.95274 100.515 1.52768C100.164 1.10262 99.7326 0.750783 99.2455 0.492283C98.7584 0.233784 98.2251 0.0736821 97.676 0.0211332C97.127 -0.0314156 96.5729 0.024618 96.0456 0.186026L73.1315 7.19176L25.8853 21.64L2.97119 28.6482C1.90672 28.9747 1.01543 29.7097 0.492947 30.6919C-0.0295344 31.6741 -0.140517 32.8232 0.184365 33.8871L33.3092 141.954C33.5731 142.813 34.1056 143.564 34.8286 144.099C35.5516 144.633 36.4269 144.922 37.3263 144.923C37.7425 144.923 38.1564 144.86 38.5541 144.738L54.2617 139.935L54.7558 139.782V139.267L54.2617 139.417L38.4083 144.266C37.4688 144.552 36.4539 144.454 35.5865 143.994C34.719 143.534 34.0697 142.749 33.7811 141.811L0.658807 33.7415C0.515786 33.2768 0.465939 32.7885 0.512119 32.3045C0.5583 31.8206 0.699596 31.3505 0.927927 30.9212C1.15626 30.4918 1.46714 30.1117 1.84275 29.8026C2.21837 29.4934 2.65135 29.2613 3.1169 29.1195L26.031 22.1113L73.2773 7.66555L96.1914 0.657357C96.5445 0.549717 96.9117 0.494833 97.2808 0.49449C98.0732 0.496267 98.8441 0.751414 99.4808 1.22256C100.117 1.6937 100.586 2.35609 100.819 3.11269L110.466 34.5904L110.619 35.0839H111.133L110.982 34.5904Z" fill="#E0E0E0"/>
<path d="M30.3084 31.542C29.8322 31.5417 29.3687 31.3889 28.9858 31.1062C28.6029 30.8234 28.3209 30.4256 28.181 29.9709L24.9988 19.589C24.9133 19.3101 24.8836 19.0171 24.9115 18.7268C24.9394 18.4365 25.0242 18.1545 25.1612 17.8969C25.2982 17.6393 25.4847 17.4112 25.7099 17.2256C25.9352 17.0401 26.1948 16.9006 26.474 16.8153L69.9402 3.52343C70.504 3.35157 71.1131 3.41018 71.6338 3.68641C72.1544 3.96264 72.5441 4.43392 72.7172 4.99681L75.8993 15.3789C76.0713 15.9421 76.0126 16.5504 75.736 17.0705C75.4595 17.5905 74.9877 17.9797 74.4243 18.1527L30.958 31.4446C30.7475 31.5091 30.5286 31.5419 30.3084 31.542Z" fill="#EAD9AC"/>
<path d="M46.9777 11.0934C49.7065 11.0934 51.9187 8.88373 51.9187 6.15801C51.9187 3.43229 49.7065 1.22266 46.9777 1.22266C44.2488 1.22266 42.0366 3.43229 42.0366 6.15801C42.0366 8.88373 44.2488 11.0934 46.9777 11.0934Z" fill="#EAD9AC"/>
<path d="M46.9779 9.28321C48.7059 9.28321 50.1068 7.884 50.1068 6.15799C50.1068 4.43198 48.7059 3.03278 46.9779 3.03278C45.2499 3.03278 43.8491 4.43198 43.8491 6.15799C43.8491 7.884 45.2499 9.28321 46.9779 9.28321Z" fill="#FAFAFA"/>
<path d="M148.883 143.662H65.3792C64.8225 143.661 64.2887 143.44 63.8951 143.047C63.5014 142.653 63.2799 142.12 63.2793 141.564V41.6232C63.2799 41.0671 63.5014 40.534 63.895 40.1407C64.2887 39.7475 64.8225 39.5263 65.3792 39.5257H148.883C149.44 39.5263 149.973 39.7475 150.367 40.1408C150.761 40.534 150.982 41.0671 150.983 41.6232V141.564C150.982 142.12 150.761 142.653 150.367 143.047C149.973 143.44 149.44 143.661 148.883 143.662Z" fill="#FAFAFA"/>
<path d="M110.466 34.5904H58.4616C57.3482 34.5919 56.2809 35.0344 55.4936 35.8208C54.7063 36.6072 54.2633 37.6733 54.2617 38.7854V139.417L54.7558 139.267V38.7854C54.757 37.8041 55.1478 36.8633 55.8425 36.1694C56.5373 35.4755 57.4791 35.0851 58.4616 35.0839H110.619L110.466 34.5904ZM155.8 34.5904H58.4616C57.3482 34.5919 56.2809 35.0344 55.4936 35.8208C54.7063 36.6072 54.2633 37.6733 54.2617 38.7854V151.805C54.2633 152.917 54.7063 153.983 55.4936 154.77C56.2809 155.556 57.3482 155.998 58.4616 156H155.8C156.914 155.998 157.981 155.556 158.768 154.77C159.556 153.983 159.999 152.917 160 151.805V38.7854C159.999 37.6733 159.556 36.6072 158.768 35.8208C157.981 35.0344 156.914 34.5919 155.8 34.5904ZM159.506 151.805C159.505 152.786 159.114 153.727 158.419 154.421C157.725 155.115 156.783 155.505 155.8 155.506H58.4616C57.4791 155.505 56.5373 155.115 55.8425 154.421C55.1478 153.727 54.757 152.786 54.7558 151.805V38.7854C54.757 37.8041 55.1478 36.8633 55.8425 36.1694C56.5373 35.4755 57.4791 35.0851 58.4616 35.0839H155.8C156.783 35.0851 157.725 35.4755 158.419 36.1694C159.114 36.8633 159.505 37.8041 159.506 38.7854V151.805Z" fill="#E0E0E0"/>
<path d="M129.86 45.4481H84.4022C83.8127 45.4475 83.2475 45.2133 82.8307 44.7969C82.4138 44.3805 82.1794 43.816 82.1787 43.2272V32.3694C82.1794 31.7806 82.4139 31.2161 82.8307 30.7998C83.2475 30.3834 83.8127 30.1492 84.4022 30.1485H129.86C130.449 30.1492 131.014 30.3834 131.431 30.7998C131.848 31.2161 132.083 31.7806 132.083 32.3694V43.2272C132.083 43.816 131.848 44.3805 131.431 44.7969C131.014 45.2133 130.449 45.4475 129.86 45.4481Z" fill="#EAD9AC"/>
<path d="M107.131 30.8888C109.86 30.8888 112.072 28.6792 112.072 25.9535C112.072 23.2278 109.86 21.0181 107.131 21.0181C104.402 21.0181 102.19 23.2278 102.19 25.9535C102.19 28.6792 104.402 30.8888 107.131 30.8888Z" fill="#EAD9AC"/>
<path d="M107.131 28.9596C108.793 28.9596 110.14 27.6137 110.14 25.9535C110.14 24.2933 108.793 22.9474 107.131 22.9474C105.469 22.9474 104.121 24.2933 104.121 25.9535C104.121 27.6137 105.469 28.9596 107.131 28.9596Z" fill="#FAFAFA"/>
</g>
<defs>
<clipPath id="clip0_11489_17633">
<rect width="160" height="156" fill="white"/>
</clipPath>
</defs>
</svg>
