<svg width="32" height="32" viewBox="0 0 32 32" fill="none" xmlns="http://www.w3.org/2000/svg">
<g id="auction-free-1-svgrepo-com 2" clip-path="url(#clip0_10533_55617)">
<g id="Group">
<path id="Vector" d="M5.43848 14.4849C5.79395 14.0242 6.4375 13.9146 6.92188 14.2153L7.0166 14.2817L13.8477 19.5513C14.3088 19.9069 14.4178 20.5502 14.1172 21.0347L14.0518 21.1294C13.696 21.5906 13.0523 21.6999 12.5674 21.3989L12.4727 21.3335L5.6416 16.063C5.18025 15.7071 5.07204 15.0636 5.37305 14.5796L5.43848 14.4849Z" fill="#FAFAFA" stroke="#FAFAFA" stroke-width="0.235955"/>
<path id="Vector_2" d="M14.6387 2.55859C14.9945 2.09789 15.6378 1.98835 16.1221 2.28906L16.2168 2.35547L23.0479 7.625C23.5398 8.00487 23.6311 8.71114 23.252 9.20312C22.8961 9.66448 22.252 9.77408 21.7676 9.47266L21.6738 9.40723L14.8418 4.13672C14.3809 3.78091 14.2721 3.13774 14.5732 2.65332L14.6387 2.55859Z" fill="#FAFAFA" stroke="#FAFAFA" stroke-width="0.235955"/>
<path id="Vector_3" d="M20.9575 10.2607L14.5815 18.5264L7.82178 13.3115L14.1978 5.0459L20.9575 10.2607Z" fill="#FAFAFA" stroke="#FAFAFA" stroke-width="0.235955"/>
<path id="Vector_4" d="M31.2739 22.791C31.9148 23.2854 32.0655 24.1791 31.647 24.8525L31.5562 24.9844C31.0622 25.6252 30.1687 25.7765 29.4956 25.3584L29.3638 25.2666L17.855 16.3887L19.7651 13.9131L31.2739 22.791Z" fill="#FAFAFA" stroke="#FAFAFA" stroke-width="0.235955"/>
<path id="Vector_5" d="M2.48096 24.1133H10.0688C10.8957 24.1134 11.5658 24.7835 11.5659 25.6104V26.6904H0.983887V25.6104C0.983996 24.7834 1.65409 24.1133 2.48096 24.1133Z" fill="#FAFAFA" stroke="#FAFAFA" stroke-width="0.235955"/>
<path id="Vector_6" d="M12.4307 27.9414V29.8828H0.118164V27.9414H12.4307Z" fill="#FAFAFA" stroke="#FAFAFA" stroke-width="0.235955"/>
</g>
</g>
<defs>
<clipPath id="clip0_10533_55617">
<rect width="32" height="32" fill="white"/>
</clipPath>
</defs>
</svg>
