<svg width="28" height="28" viewBox="0 0 28 28" fill="none" xmlns="http://www.w3.org/2000/svg">
<g id="fingerprint">
<path id="Vector" d="M20.784 5.21492C20.6906 5.21492 20.5973 5.19159 20.5156 5.14492C18.2756 3.98992 16.339 3.49992 14.0173 3.49992C11.7073 3.49992 9.51397 4.04825 7.51897 5.14492C7.23897 5.29659 6.88897 5.19159 6.72564 4.91159C6.57397 4.63159 6.67897 4.26992 6.95897 4.11825C9.12897 2.93992 11.509 2.33325 14.0173 2.33325C16.5023 2.33325 18.6723 2.88159 21.0523 4.10659C21.344 4.25825 21.449 4.60825 21.2973 4.88825C21.1923 5.09825 20.994 5.21492 20.784 5.21492ZM4.08897 11.3399C3.97231 11.3399 3.85564 11.3049 3.75064 11.2349C3.48231 11.0483 3.42397 10.6866 3.61064 10.4183C4.76564 8.78492 6.23564 7.50159 7.98564 6.60325C11.649 4.71325 16.339 4.70159 20.014 6.59159C21.764 7.48992 23.234 8.76158 24.389 10.3833C24.5756 10.6399 24.5173 11.0133 24.249 11.1999C23.9806 11.3866 23.619 11.3283 23.4323 11.0599C22.3823 9.58992 21.0523 8.43492 19.4773 7.62992C16.129 5.91492 11.8473 5.91492 8.51064 7.64159C6.92397 8.45825 5.59397 9.62492 4.54397 11.0949C4.45064 11.2583 4.27564 11.3399 4.08897 11.3399ZM11.3806 25.4216C11.229 25.4216 11.0773 25.3633 10.9723 25.2466C9.95731 24.2316 9.40897 23.5783 8.62731 22.1666C7.82231 20.7316 7.40231 18.9816 7.40231 17.1033C7.40231 13.6383 10.3656 10.8149 14.0056 10.8149C17.6456 10.8149 20.609 13.6383 20.609 17.1033C20.609 17.4299 20.3523 17.6866 20.0256 17.6866C19.699 17.6866 19.4423 17.4299 19.4423 17.1033C19.4423 14.2799 17.004 11.9816 14.0056 11.9816C11.0073 11.9816 8.56897 14.2799 8.56897 17.1033C8.56897 18.7833 8.94231 20.3349 9.65397 21.5949C10.4006 22.9366 10.914 23.5083 11.8123 24.4183C12.034 24.6516 12.034 25.0133 11.8123 25.2466C11.684 25.3633 11.5323 25.4216 11.3806 25.4216ZM19.7456 23.2633C18.3573 23.2633 17.1323 22.9132 16.129 22.2249C14.3906 21.0466 13.3523 19.1333 13.3523 17.1033C13.3523 16.7766 13.609 16.5199 13.9356 16.5199C14.2623 16.5199 14.519 16.7766 14.519 17.1033C14.519 18.7483 15.359 20.2999 16.7823 21.2566C17.6106 21.8166 18.579 22.0849 19.7456 22.0849C20.0256 22.0849 20.4923 22.0499 20.959 21.9683C21.274 21.9099 21.5773 22.1199 21.6356 22.4466C21.694 22.7616 21.484 23.0649 21.1573 23.1233C20.4923 23.2516 19.909 23.2633 19.7456 23.2633ZM17.4006 25.6666C17.354 25.6666 17.2956 25.6549 17.249 25.6433C15.394 25.1299 14.1806 24.4416 12.909 23.1933C11.2756 21.5716 10.3773 19.4133 10.3773 17.1033C10.3773 15.2133 11.9873 13.6733 13.9706 13.6733C15.954 13.6733 17.564 15.2133 17.564 17.1033C17.564 18.3516 18.649 19.3666 19.9906 19.3666C21.3323 19.3666 22.4173 18.3516 22.4173 17.1033C22.4173 12.7049 18.6256 9.13492 13.959 9.13492C10.6456 9.13492 7.61231 10.9783 6.24731 13.8366C5.79231 14.7816 5.55897 15.8899 5.55897 17.1033C5.55897 18.0133 5.64064 19.4483 6.34064 21.3149C6.4573 21.6183 6.30564 21.9566 6.00231 22.0616C5.69897 22.1783 5.36064 22.0149 5.25564 21.7233C4.68397 20.1949 4.40397 18.6783 4.40397 17.1033C4.40397 15.7033 4.6723 14.4316 5.1973 13.3233C6.74897 10.0683 10.1906 7.95659 13.959 7.95659C19.2673 7.95659 23.584 12.0516 23.584 17.0916C23.584 18.9816 21.974 20.5216 19.9906 20.5216C18.0073 20.5216 16.3973 18.9816 16.3973 17.0916C16.3973 15.8433 15.3123 14.8283 13.9706 14.8283C12.629 14.8283 11.544 15.8433 11.544 17.0916C11.544 19.0866 12.314 20.9533 13.7256 22.3533C14.834 23.4499 15.8956 24.0566 17.5406 24.5116C17.8556 24.5933 18.0306 24.9199 17.949 25.2233C17.8906 25.4916 17.6456 25.6666 17.4006 25.6666Z" fill="#444B5C"/>
</g>
</svg>
