<svg width="28" height="24" viewBox="0 0 28 24" fill="none" xmlns="http://www.w3.org/2000/svg">
<g id="gavel-law-black-icon 1" clip-path="url(#clip0_10533_54507)">
<path id="Vector" fill-rule="evenodd" clip-rule="evenodd" d="M16.7471 21.832C17.2859 21.8956 17.7076 22.357 17.7076 22.9122V22.9122C17.7076 23.5105 17.2181 24 16.6199 24H1.08775C0.489502 24 0 23.5105 0 22.9122V22.9122C0 22.3471 0.436774 21.8791 0.989312 21.829V21.8245C0.989312 20.828 1.39678 19.9223 2.0531 19.266C2.70948 18.6096 3.61524 18.2022 4.61173 18.2022H13.1246C14.1211 18.2022 15.0268 18.6096 15.6832 19.266C16.3395 19.9223 16.7471 20.8281 16.7471 21.8245V21.832ZM16.372 9.16253C16.5515 8.92317 16.8753 8.81961 17.168 8.93084L27.1886 12.7369C27.5425 12.8712 27.7222 13.2709 27.5877 13.6249L26.9224 15.3762C26.7881 15.7301 26.3884 15.9098 26.0344 15.7753L16.0139 11.9693C15.7198 11.8576 15.5461 11.5628 15.5729 11.2632L13.9978 10.5019L13.0525 12.9905C13.0414 13.02 13.0275 13.0484 13.0111 13.0753C13.2435 13.195 13.4201 13.389 13.5222 13.6159C13.6398 13.8777 13.6583 14.1844 13.5488 14.4725L13.0864 15.6901C12.9762 15.9799 12.7576 16.1985 12.4943 16.3169C12.2326 16.4344 11.9258 16.4528 11.6377 16.3435L4.58027 13.6629C4.29035 13.5528 4.07182 13.3342 3.95347 13.0709C3.83592 12.8091 3.81736 12.5024 3.92686 12.2142L4.38938 10.9966C4.49953 10.7067 4.71811 10.4882 4.98142 10.3698C5.21619 10.2644 5.48728 10.2388 5.74827 10.3135C5.75362 10.2849 5.76144 10.2564 5.77207 10.2283L6.70855 7.76273L6.47864 7.67616C5.25165 7.21472 5.95525 5.36201 7.1824 5.82312L7.41242 5.90958L8.35186 3.43622C8.36287 3.40708 8.37636 3.37961 8.39185 3.35381C7.87467 3.10415 7.62036 2.49046 7.82787 1.94375L8.29034 0.726205C8.50999 0.148625 9.15951 -0.147073 9.73887 0.0727441L16.7965 2.7534C17.3721 2.97214 17.668 3.62231 17.4508 4.19919L16.9873 5.41959C16.7827 5.9581 16.2031 6.25121 15.6566 6.11035C15.6512 6.14038 15.643 6.16985 15.6323 6.19843L14.6864 8.68884L16.372 9.16253ZM13.5459 10.2835L14.2031 8.55305H14.2032L15.1644 6.02227L8.81978 3.61243L6.23999 10.4045L12.5846 12.8144L13.5459 10.2835ZM8.75831 0.902361L8.29579 2.11991C8.17398 2.44054 8.33675 2.80268 8.65744 2.92448L15.7149 5.60503C16.0355 5.72684 16.3977 5.56407 16.5194 5.24344L16.9819 4.02589C17.1036 3.7052 16.941 3.34312 16.6202 3.22132L9.56283 0.540766C9.24209 0.418849 8.88006 0.581621 8.75831 0.902361ZM4.39483 12.3904L4.85729 11.1728C4.9791 10.8521 5.34118 10.6894 5.66187 10.8112L12.7193 13.4917C13.04 13.6136 13.2027 13.9757 13.0809 14.2963L12.6185 15.5139C12.4967 15.8346 12.1346 15.9973 11.8139 15.8756L4.75643 13.195C4.43569 13.0731 4.27302 12.7112 4.39483 12.3904ZM1.51767 21.8285H16.2186V21.8245C16.2186 20.974 15.8704 20.2004 15.3096 19.6397C14.7487 19.0787 13.9752 18.7305 13.1246 18.7305H4.61173C3.76112 18.7305 2.98758 19.0787 2.42668 19.6395C1.86588 20.2004 1.51767 20.9739 1.51767 21.8245V21.8285Z" fill="black"/>
</g>
<defs>
<clipPath id="clip0_10533_54507">
<rect width="27.6323" height="24" fill="white"/>
</clipPath>
</defs>
</svg>
