<svg width="130" height="38" viewBox="0 0 130 38" fill="none" xmlns="http://www.w3.org/2000/svg">
<g id="Group">
<g id="Group_2">
<g id="Group_3">
<path id="Vector" d="M10.4217 32.3438L9.34739 36.1939H9.28353L8.29134 32.6631H7.20792L6.21573 36.1939H6.15187L5.07757 32.3438H4.15381L5.39461 36.7983H6.76314L7.71884 33.393H7.7827L8.73612 36.7983H10.1046L11.3455 32.3438H10.4217Z" fill="#18365F"/>
<path id="Vector_2" d="M12.9671 32.3438L11.1538 36.7983H12.0707L12.4904 35.7172H14.9082L15.3278 36.7983H16.2447L14.4314 32.3438H12.9671ZM12.7139 35.2382L13.6696 32.8843H13.7335L14.6869 35.2382H12.7139Z" fill="#18365F"/>
<path id="Vector_3" d="M15.8628 32.8205H17.5803V36.7983H18.5041V32.8205H20.2216V32.3438H15.8628V32.8205Z" fill="#18365F"/>
<path id="Vector_4" d="M24.2645 34.3806H21.6552V32.3438H20.7314V36.7983H21.6552V34.8573H24.2645V36.7983H25.186V32.3438H24.2645V34.3806Z" fill="#18365F"/>
<path id="Vector_5" d="M27.0006 32.3438H26.0791V36.7983H27.0006V32.3438Z" fill="#18365F"/>
<path id="Vector_6" d="M32.1534 32.8203C31.9299 32.6195 31.663 32.469 31.3505 32.3686C31.0403 32.266 30.6914 32.2158 30.3104 32.2158C29.9295 32.2158 29.5806 32.266 29.2658 32.3686C28.9533 32.4713 28.6842 32.6218 28.4607 32.8203C28.2394 33.021 28.0661 33.265 27.9452 33.5593C27.8243 33.8512 27.7627 34.1888 27.7627 34.5697C27.7627 34.9506 27.822 35.2882 27.9452 35.5824C28.0661 35.8766 28.2371 36.1207 28.4607 36.3214C28.6842 36.5199 28.951 36.6704 29.2658 36.773C29.5806 36.8757 29.9273 36.9259 30.3104 36.9259C30.6115 36.9259 30.8898 36.8939 31.1453 36.8301L31.7109 37.4664L32.1557 37.0536L31.7474 36.602C32.0941 36.4149 32.3678 36.1526 32.5617 35.8128C32.7578 35.4729 32.8536 35.0601 32.8536 34.572C32.8536 34.1911 32.7921 33.8535 32.6689 33.5615C32.5457 33.2673 32.3724 33.0233 32.1511 32.8225M31.72 35.5003C31.6197 35.7558 31.4851 35.9588 31.3163 36.1116L30.851 35.5893L30.4062 36.0021L30.7689 36.4149C30.6298 36.4583 30.477 36.4788 30.3104 36.4788C30.0938 36.4788 29.8908 36.44 29.7037 36.3648C29.5144 36.2895 29.3502 36.1709 29.2111 36.0135C29.0719 35.8561 28.9602 35.6577 28.8781 35.4182C28.7959 35.1787 28.7549 34.8959 28.7549 34.5697C28.7549 34.2435 28.7959 33.9607 28.8781 33.7212C28.9602 33.4817 29.0719 33.2833 29.2111 33.1259C29.3502 32.9685 29.5144 32.8522 29.7037 32.7769C29.893 32.6994 30.096 32.6629 30.3104 32.6629C30.5249 32.6629 30.7301 32.7017 30.9172 32.7769C31.1065 32.8545 31.2707 32.9708 31.4098 33.1259C31.549 33.2833 31.6607 33.4817 31.7428 33.7212C31.825 33.9607 31.866 34.2435 31.866 34.5697C31.866 34.9346 31.8158 35.2448 31.7155 35.498" fill="#18365F"/>
</g>
<g id="Group_4">
<path id="Vector_7" d="M58.0072 8.28025L55.6601 5.9834L53.3633 8.28025L55.6601 10.6273L58.0072 8.28025Z" fill="#18365F"/>
<path id="Vector_8" d="M60.5985 4.95538L58.3016 2.65625L55.9546 4.95538L58.3016 7.30241L60.5985 4.95538Z" fill="#18365F"/>
<path id="Vector_9" d="M60.9398 10.6273L63.2389 8.28025L60.9398 5.9834L58.5928 8.28025L60.9398 10.6273Z" fill="#18365F"/>
<path id="Vector_10" d="M41.0058 31.5039L38.709 33.8008L41.0058 36.0976L43.3529 33.8008L41.0058 31.5039Z" fill="#18365F"/>
<path id="Vector_11" d="M43.6484 33.8008L45.9453 36.0976L48.2923 33.8008L45.9453 31.5039L43.6484 33.8008Z" fill="#18365F"/>
<path id="Vector_12" d="M27.3291 8.33043L25.0322 5.9834L22.7354 8.33043L25.0322 10.6273L27.3291 8.33043Z" fill="#18365F"/>
<path id="Vector_13" d="M32.319 8.33043L29.972 5.9834L27.6729 8.33043L29.972 10.6273L32.319 8.33043Z" fill="#18365F"/>
<path id="Vector_14" d="M62.4556 15.8074V27.5904C62.4556 27.6885 62.4601 27.7866 62.4715 27.8824H54.144V13.3121L50.4285 15.2691V27.5904C50.4285 27.6885 50.433 27.7866 50.4444 27.8824H36.5675V20.7934C36.5675 15.5131 32.5577 12.0918 27.5238 12.0918C22.4899 12.0918 18.528 15.5131 18.528 20.7934C18.528 20.8823 18.528 20.9713 18.5325 21.058C18.5303 21.1469 18.528 21.2404 18.528 21.3317C18.528 24.1143 19.6479 26.3542 21.4087 27.8824H9.48426C7.72342 27.8824 4.15611 26.856 4.15611 20.7934V14.4365L0.490723 16.3913V21.3294C0.490723 26.6096 4.50052 30.0333 9.48654 30.0333H31.7799L33.1006 28.6145C33.4906 29.4471 34.371 30.0333 35.3016 30.0333H49.3085L50.6771 28.6145C51.0671 29.4471 51.9475 30.0333 52.8758 30.0333H61.3813L62.7019 28.6145C63.0942 29.4471 63.9746 30.0333 64.903 30.0333H66.1734V13.3121L62.4578 15.2691V15.8074H62.4556ZM27.5261 27.8824C25.7926 27.8824 22.3074 26.8879 22.2002 21.0739C22.2002 21.0671 22.2002 21.0602 22.2002 21.0511C22.2002 20.9667 22.1979 20.8801 22.1979 20.7934C22.1979 14.7308 25.7675 13.7044 27.5284 13.7044C29.2892 13.7044 32.8565 14.7308 32.8565 20.7934V27.5904C32.8565 27.6885 32.8611 27.7866 32.8725 27.8824H27.5261Z" fill="#18365F"/>
<path id="Vector_15" d="M79.7638 12.0915C74.7276 12.0915 70.7178 15.5128 70.7178 20.7953C70.7178 20.8843 70.7178 20.9755 70.7223 21.0645C70.7201 21.1534 70.7178 21.2424 70.7178 21.3336C70.7178 26.6139 74.7276 30.0352 79.7638 30.0352H83.8215L85.0851 28.7237C84.914 33.9424 82.0447 35.2607 80.2177 35.4386C80.2131 35.4386 80.2086 35.4386 80.204 35.4386C80.0945 35.4523 79.9348 35.4592 79.7683 35.4637C79.579 35.4683 79.3806 35.466 79.2369 35.4637L81.1825 37.4641C85.5823 36.8779 88.7619 33.5523 88.7619 28.8104V20.7908C88.7619 15.5105 84.7521 12.0869 79.766 12.0869M85.0919 27.8821H79.7638C77.9824 27.8821 74.5451 26.8876 74.4356 21.0736V21.0508C74.4356 20.9664 74.4333 20.8797 74.4333 20.7931C74.4333 14.7305 77.955 13.7041 79.7638 13.7041C81.5725 13.7041 85.0919 14.7305 85.0919 20.7931V27.8821Z" fill="#18365F"/>
</g>
</g>
<path id="Vector_16" d="M99.415 2.65704V33.9303L103.293 33.0179L119.482 29.1974L109.2 26.2323L106.842 25.5503L106.915 4.77826L121.861 7.80728V32.1466L120.406 32.5116L99.415 37.4679L129.509 36.1906V0.540369V0.53125L99.415 2.65704Z" fill="#2E9C95"/>
</g>
</svg>
