<svg width="24" height="25" viewBox="0 0 24 25" fill="none" xmlns="http://www.w3.org/2000/svg">
<g id="headset">
<path id="Icon" d="M5.25 10.9728V10.0615C5.25 6.67878 8.07061 3.93652 11.55 3.93652H12.45C15.9294 3.93652 18.75 6.67878 18.75 10.0615V10.9728M5.25 10.9728C3.97303 11.1811 3 12.2608 3 13.5615V15.3115C3 16.6122 3.97303 17.6919 5.25 17.9002C5.39634 17.9241 5.54668 17.9365 5.7 17.9365H7.05C7.54706 17.9365 7.95 17.5448 7.95 17.0615V11.8115C7.95 11.3283 7.54706 10.9365 7.05 10.9365H5.7C5.54668 10.9365 5.39634 10.9489 5.25 10.9728ZM18.75 10.9728C20.027 11.1811 21 12.2608 21 13.5615V15.3115C21 16.6122 20.027 17.6919 18.75 17.9002C18.6037 17.9241 18.4533 17.9365 18.3 17.9365M18.75 10.9728C18.6037 10.9489 18.4533 10.9365 18.3 10.9365H16.95C16.4529 10.9365 16.05 11.3283 16.05 11.8115V17.0615C16.05 17.5448 16.4529 17.9365 16.95 17.9365H18.3M18.3 17.9365V17.9365C18.3 19.8695 16.733 21.4365 14.8 21.4365H13M13 21.4365V21.4365C13 21.1604 12.7761 20.9365 12.5 20.9365H11.5C11.2239 20.9365 11 21.1604 11 21.4365V21.4365C11 21.7127 11.2239 21.9365 11.5 21.9365H12.5C12.7761 21.9365 13 21.7127 13 21.4365V21.4365Z" stroke="#2E353F" stroke-width="1.2" stroke-linecap="round" stroke-linejoin="round"/>
</g>
</svg>
