<svg width="40" height="40" viewBox="0 0 40 40" fill="none" xmlns="http://www.w3.org/2000/svg">
<rect width="40" height="40" rx="10" fill="white"/>
<mask id="mask0_11489_17343" style="mask-type:luminance" maskUnits="userSpaceOnUse" x="12" y="10" width="17" height="21">
<path fill-rule="evenodd" clip-rule="evenodd" d="M12 10.0004H28.9668V30.356H12V10.0004Z" fill="white"/>
</mask>
<g mask="url(#mask0_11489_17343)">
<path fill-rule="evenodd" clip-rule="evenodd" d="M20.4834 11.5C19.6354 11.5 14.2854 13.384 13.6684 13.899C13.4864 14.082 13.4794 14.4 13.5184 16.529C13.5364 17.555 13.5614 18.949 13.5614 20.879C13.5614 26.08 19.2834 28.389 20.4824 28.814C21.6804 28.387 27.4054 26.065 27.4054 20.879C27.4054 18.947 27.4304 17.552 27.4494 16.526C27.4874 14.399 27.4804 14.081 27.2874 13.889C26.6824 13.384 21.3314 11.5 20.4834 11.5ZM20.4834 30.356C20.4104 30.356 20.3374 30.346 20.2664 30.324C19.9314 30.223 12.0614 27.761 12.0614 20.879C12.0614 18.962 12.0364 17.575 12.0184 16.557C11.9724 14.014 11.9624 13.484 12.6194 12.828C13.4044 12.041 19.3494 10 20.4834 10C21.6164 10 27.5614 12.041 28.3484 12.828C29.0044 13.484 28.9944 14.014 28.9484 16.554C28.9304 17.572 28.9054 18.959 28.9054 20.879C28.9054 27.761 21.0354 30.223 20.7004 30.324C20.6294 30.346 20.5564 30.356 20.4834 30.356Z" fill="#2E353F"/>
</g>
<path fill-rule="evenodd" clip-rule="evenodd" d="M19.7766 22.5195C19.5776 22.5195 19.3866 22.4405 19.2456 22.2995L17.3536 20.4055C17.0616 20.1125 17.0616 19.6365 17.3546 19.3445C17.6466 19.0515 18.1226 19.0515 18.4156 19.3445L19.7766 20.7075L23.1446 17.3395C23.4376 17.0465 23.9116 17.0465 24.2046 17.3395C24.4976 17.6325 24.4976 18.1075 24.2046 18.4005L20.3066 22.2995C20.1666 22.4405 19.9756 22.5195 19.7766 22.5195Z" fill="#2E353F"/>
</svg>
