<svg width="17" height="21" viewBox="0 0 17 21" fill="none" xmlns="http://www.w3.org/2000/svg">
<mask id="mask0_11777_2119" style="mask-type:luminance" maskUnits="userSpaceOnUse" x="0" y="0" width="17" height="21">
<path fill-rule="evenodd" clip-rule="evenodd" d="M0 0.000396729H16.9668V20.356H0V0.000396729Z" fill="white"/>
</mask>
<g mask="url(#mask0_11777_2119)">
<path fill-rule="evenodd" clip-rule="evenodd" d="M8.48341 1.5C7.63541 1.5 2.28541 3.384 1.66841 3.899C1.48641 4.082 1.47941 4.4 1.51841 6.529C1.53641 7.555 1.56141 8.949 1.56141 10.879C1.56141 16.08 7.28341 18.389 8.48241 18.814C9.68041 18.387 15.4054 16.065 15.4054 10.879C15.4054 8.947 15.4304 7.552 15.4494 6.526C15.4874 4.399 15.4804 4.081 15.2874 3.889C14.6824 3.384 9.33142 1.5 8.48341 1.5ZM8.48341 20.356C8.41041 20.356 8.33741 20.346 8.26641 20.324C7.93141 20.223 0.0614145 17.761 0.0614145 10.879C0.0614145 8.962 0.0364145 7.575 0.0184145 6.557C-0.0275855 4.014 -0.0375855 3.484 0.619415 2.828C1.40441 2.041 7.34941 0 8.48341 0C9.61642 0 15.5614 2.041 16.3484 2.828C17.0044 3.484 16.9944 4.014 16.9484 6.554C16.9304 7.572 16.9054 8.959 16.9054 10.879C16.9054 17.761 9.03541 20.223 8.70041 20.324C8.62941 20.346 8.55641 20.356 8.48341 20.356Z" fill="#2E353F"/>
</g>
<path fill-rule="evenodd" clip-rule="evenodd" d="M7.77664 12.5195C7.57764 12.5195 7.38664 12.4405 7.24564 12.2995L5.35364 10.4055C5.06164 10.1125 5.06164 9.6365 5.35464 9.3445C5.64664 9.0515 6.12264 9.0515 6.41564 9.3445L7.77664 10.7075L11.1446 7.3395C11.4376 7.0465 11.9116 7.0465 12.2046 7.3395C12.4976 7.6325 12.4976 8.1075 12.2046 8.4005L8.30664 12.2995C8.16664 12.4405 7.97564 12.5195 7.77664 12.5195Z" fill="#2E353F"/>
</svg>
