<svg width="112" height="34" viewBox="0 0 112 34" fill="none" xmlns="http://www.w3.org/2000/svg">
<path d="M8.61733 28.585L7.68466 31.9275H7.62922L6.76784 28.8622H5.82725L4.96587 31.9275H4.91042L3.97776 28.585H3.17578L4.253 32.4523H5.44111L6.27081 29.4958H6.32625L7.15398 32.4523H8.34209L9.41931 28.585H8.61733Z" fill="#18365F"/>
<path d="M10.8272 28.585L9.25293 32.4523H10.049L10.4133 31.5137H12.5123L12.8767 32.4523H13.6727L12.0985 28.585H10.8272ZM10.6074 31.0978L11.4371 29.0543H11.4925L12.3202 31.0978H10.6074Z" fill="#18365F"/>
<path d="M13.3413 28.9988H14.8324V32.4523H15.6344V28.9988H17.1254V28.585H13.3413V28.9988Z" fill="#18365F"/>
<path d="M20.6352 30.3533H18.3698V28.585H17.5679V32.4523H18.3698V30.7671H20.6352V32.4523H21.4352V28.585H20.6352V30.3533Z" fill="#18365F"/>
<path d="M23.0104 28.585H22.2104V32.4523H23.0104V28.585Z" fill="#18365F"/>
<path d="M27.4842 28.9989C27.2902 28.8246 27.0585 28.6939 26.7872 28.6068C26.5179 28.5177 26.2149 28.4741 25.8842 28.4741C25.5535 28.4741 25.2506 28.5177 24.9773 28.6068C24.706 28.6959 24.4724 28.8266 24.2783 28.9989C24.0862 29.1731 23.9357 29.385 23.8308 29.6405C23.7258 29.8939 23.6724 30.187 23.6724 30.5177C23.6724 30.8484 23.7239 31.1414 23.8308 31.3969C23.9357 31.6523 24.0842 31.8642 24.2783 32.0385C24.4724 32.2107 24.704 32.3414 24.9773 32.4305C25.2506 32.5196 25.5516 32.5632 25.8842 32.5632C26.1456 32.5632 26.3872 32.5355 26.609 32.48L27.1001 33.0325L27.4862 32.6741L27.1317 32.282C27.4327 32.1196 27.6704 31.8919 27.8387 31.5969C28.009 31.3018 28.0921 30.9434 28.0921 30.5197C28.0921 30.189 28.0387 29.8959 27.9317 29.6424C27.8248 29.387 27.6743 29.1751 27.4822 29.0009M27.108 31.3256C27.0209 31.5474 26.904 31.7236 26.7575 31.8563L26.3535 31.4028L25.9674 31.7612L26.2822 32.1196C26.1615 32.1573 26.0288 32.1751 25.8842 32.1751C25.6961 32.1751 25.5199 32.1414 25.3575 32.0761C25.1931 32.0107 25.0506 31.9078 24.9298 31.7711C24.809 31.6345 24.712 31.4622 24.6407 31.2543C24.5694 31.0464 24.5337 30.8008 24.5337 30.5177C24.5337 30.2345 24.5694 29.989 24.6407 29.781C24.712 29.5731 24.809 29.4009 24.9298 29.2642C25.0506 29.1276 25.1931 29.0266 25.3575 28.9613C25.5219 28.8939 25.6981 28.8622 25.8842 28.8622C26.0704 28.8622 26.2486 28.8959 26.411 28.9613C26.5753 29.0286 26.7179 29.1296 26.8387 29.2642C26.9595 29.4009 27.0565 29.5731 27.1278 29.781C27.1991 29.989 27.2347 30.2345 27.2347 30.5177C27.2347 30.8345 27.1912 31.1038 27.104 31.3236" fill="#18365F"/>
<path d="M49.9291 7.69375L47.8915 5.69971L45.8975 7.69375L47.8915 9.73136L49.9291 7.69375Z" fill="#18365F"/>
<path d="M52.1791 4.80706L50.1851 2.81104L48.1475 4.80706L50.1851 6.84467L52.1791 4.80706Z" fill="#18365F"/>
<path d="M52.4751 9.73136L54.4711 7.69375L52.4751 5.69971L50.4375 7.69375L52.4751 9.73136Z" fill="#18365F"/>
<path d="M35.1693 27.855L33.1753 29.849L35.1693 31.8431L37.207 29.849L35.1693 27.855Z" fill="#18365F"/>
<path d="M37.4634 29.849L39.4574 31.8431L41.495 29.849L39.4574 27.855L37.4634 29.849Z" fill="#18365F"/>
<path d="M23.2957 7.73732L21.3017 5.69971L19.3076 7.73732L21.3017 9.73136L23.2957 7.73732Z" fill="#18365F"/>
<path d="M27.6279 7.73732L25.5903 5.69971L23.5942 7.73732L25.5903 9.73136L27.6279 7.73732Z" fill="#18365F"/>
<path d="M53.7913 14.2282V24.4578C53.7913 24.5429 53.7952 24.6281 53.8051 24.7112H46.5755V12.0618L43.3497 13.7608V24.4578C43.3497 24.5429 43.3537 24.6281 43.3636 24.7112H31.3162V18.5568C31.3162 13.9727 27.835 11.0024 23.4647 11.0024C19.0945 11.0024 15.6549 13.9727 15.6549 18.5568C15.6549 18.6341 15.6549 18.7113 15.6589 18.7865C15.6569 18.8638 15.6549 18.945 15.6549 19.0242C15.6549 21.44 16.6272 23.3845 18.1559 24.7112H7.80347C6.27477 24.7112 3.17776 23.8202 3.17776 18.5568V13.0381L-0.00439453 14.7351V19.0222C-0.00439453 23.6063 3.47677 26.5786 7.80545 26.5786H27.1598L28.3063 25.3469C28.6449 26.0697 29.4093 26.5786 30.2172 26.5786H42.3775L43.5656 25.3469C43.9042 26.0697 44.6685 26.5786 45.4745 26.5786H52.8586L54.0051 25.3469C54.3457 26.0697 55.1101 26.5786 55.916 26.5786H57.019V12.0618L53.7932 13.7608V14.2282H53.7913ZM23.4667 24.7112C21.9618 24.7112 18.9361 23.8479 18.843 18.8004C18.843 18.7945 18.843 18.7885 18.843 18.7806C18.843 18.7073 18.841 18.6321 18.841 18.5568C18.841 13.2935 21.94 12.4024 23.4687 12.4024C24.9974 12.4024 28.0944 13.2935 28.0944 18.5568V24.4578C28.0944 24.5429 28.0984 24.6281 28.1083 24.7112H23.4667Z" fill="#18365F"/>
<path d="M68.8178 11.0025C64.4455 11.0025 60.9644 13.9728 60.9644 18.5589C60.9644 18.6361 60.9644 18.7153 60.9683 18.7925C60.9663 18.8698 60.9644 18.947 60.9644 19.0262C60.9644 23.6103 64.4455 26.5806 68.8178 26.5806H72.3405L73.4375 25.442C73.289 29.9727 70.798 31.1172 69.2118 31.2717C69.2079 31.2717 69.2039 31.2717 69.1999 31.2717C69.1049 31.2835 68.9663 31.2895 68.8217 31.2934C68.6574 31.2974 68.4851 31.2954 68.3603 31.2934L70.0494 33.0301C73.8692 32.5212 76.6296 29.634 76.6296 25.5172V18.5549C76.6296 13.9708 73.1484 10.9985 68.8197 10.9985M73.4435 24.7113H68.8178C67.2712 24.7113 64.2871 23.848 64.1921 18.8005V18.7807C64.1921 18.7074 64.1901 18.6321 64.1901 18.5569C64.1901 13.2936 67.2475 12.4025 68.8178 12.4025C70.388 12.4025 73.4435 13.2936 73.4435 18.5569V24.7113Z" fill="#18365F"/>
<path d="M85.8779 2.81184V29.9621L89.2442 29.1701L103.3 25.8533L94.3729 23.279L92.3254 22.687L92.3888 4.65341L105.365 7.2831V28.4136L104.102 28.7305L85.8779 33.0334L112.004 31.9245V0.974225V0.966309L85.8779 2.81184Z" fill="#66699E"/>
</svg>
