<svg width="44" height="44" viewBox="0 0 44 44" fill="none" xmlns="http://www.w3.org/2000/svg">
<rect width="44" height="44" rx="22" fill="#0C3F82" fill-opacity="0.1"/>
<g clip-path="url(#clip0_10533_56697)">
<path d="M22 13.25C24.6234 13.25 26.75 15.3766 26.75 18C26.75 19.5513 26.0057 20.928 24.8555 21.7949C27.7222 22.932 29.75 25.7284 29.75 29V30C29.75 30.4142 29.4142 30.75 29 30.75C28.5858 30.75 28.25 30.4142 28.25 30V29C28.25 25.5482 25.4518 22.75 22 22.75C18.5482 22.75 15.75 25.5482 15.75 29V30C15.75 30.4142 15.4142 30.75 15 30.75C14.5858 30.75 14.25 30.4142 14.25 30V29C14.25 25.7288 16.2773 22.9322 19.1436 21.7949C17.9937 20.928 17.25 19.551 17.25 18C17.25 15.3766 19.3766 13.25 22 13.25ZM22 14.75C20.2051 14.75 18.75 16.2051 18.75 18C18.75 19.7949 20.2051 21.25 22 21.25C23.7949 21.25 25.25 19.7949 25.25 18C25.25 16.2051 23.7949 14.75 22 14.75Z" fill="#0C3F82"/>
</g>
<defs>
<clipPath id="clip0_10533_56697">
<rect width="24" height="24" fill="white" transform="translate(10 10)"/>
</clipPath>
</defs>
</svg>
