<svg width="20" height="21" viewBox="0 0 20 21" fill="none" xmlns="http://www.w3.org/2000/svg">
<g id="Icon">
<path id="Vector" fill-rule="evenodd" clip-rule="evenodd" d="M10 1.33301C7.69881 1.33301 5.83333 3.19849 5.83333 5.49967V7.16634C3.99238 7.16634 2.5 8.65873 2.5 10.4997V15.4997C2.5 17.3406 3.99238 18.833 5.83333 18.833H14.1667C16.0076 18.833 17.5 17.3406 17.5 15.4997V10.4997C17.5 8.65873 16.0076 7.16634 14.1667 7.16634V5.49967C14.1667 3.19849 12.3012 1.33301 10 1.33301ZM12.5 7.16634V5.49967C12.5 4.11896 11.3807 2.99967 10 2.99967C8.61929 2.99967 7.5 4.11896 7.5 5.49967V7.16634H12.5ZM4.16667 10.4997C4.16667 9.5792 4.91286 8.83301 5.83333 8.83301H14.1667C15.0871 8.83301 15.8333 9.5792 15.8333 10.4997V15.4997C15.8333 16.4201 15.0871 17.1663 14.1667 17.1663H5.83333C4.91286 17.1663 4.16667 16.4201 4.16667 15.4997V10.4997Z" fill="#2E353F"/>
</g>
</svg>
