<svg width="157" height="44" viewBox="0 0 157 44" fill="none" xmlns="http://www.w3.org/2000/svg">
<g id="&#216;&#180;&#216;&#185;&#216;&#167;&#216;&#177; &#216;&#167;&#217;&#132;&#217;&#135;&#217;&#138;&#217;&#138;&#217;&#148;&#216;&#169; &#216;&#167;&#217;&#132;&#216;&#185;&#216;&#167;&#217;&#133;&#216;&#169; &#217;&#132;&#217;&#132;&#216;&#185;&#217;&#130;&#216;&#167;&#216;&#177; &#216;&#167;&#217;&#132;&#216;&#172;&#216;&#175;&#217;&#138;&#216;&#175; &#226;&#128;&#147; Real Estate General Authority Logo &#226;&#128;&#147; PNG &#226;&#128;&#147; SVG (1) 1" clip-path="url(#clip0_10533_59684)">
<g id="Group">
<g id="Group_2">
<path id="Vector" d="M136.511 34.4537C136.146 34.698 135.738 34.7748 135.318 34.7773C134.174 34.7849 133.031 34.7836 131.888 34.7773C131.526 34.7761 131.186 34.6879 130.894 34.4525C130.499 34.7144 130.056 34.7799 129.6 34.7799C126.971 34.7824 124.343 34.7799 121.714 34.7799C121.04 34.2296 120.366 33.6794 119.69 33.1266C119.718 32.2616 119.615 31.3915 119.781 30.5391C120.009 29.5393 120.646 28.9626 121.638 28.7725C121.92 28.7183 122.212 28.6906 122.499 28.6894C123.853 28.6806 126.337 28.6856 126.337 28.6856C126.336 30.1525 126.341 31.4456 126.342 33.7952H129.656V29.4751H131.589V30.6184C131.589 30.6184 131.59 32.3195 131.592 33.1694C131.585 33.6328 131.715 33.8141 132.196 33.8028C133.224 33.799 134.25 33.8116 135.277 33.799V29.4726H137.205C137.205 30.7556 137.206 31.4192 137.211 33.1669C137.206 33.6504 137.34 33.8141 137.833 33.8028C138.978 33.8002 140.121 33.8103 141.266 33.799C140.975 33.3495 140.802 32.866 140.789 32.3321C140.763 31.7755 140.765 30.6599 140.765 30.6599V29.6627H142.618V27.2666C143.647 27.2477 144.674 27.254 145.703 27.2666C148.041 27.3031 149.684 28.7926 149.584 31.1913C148.974 31.734 148.379 32.2641 147.777 32.8005C148.092 33.3117 148.499 33.8582 149.164 33.8053C149.946 33.7914 150.726 33.8002 151.509 33.8053V25.5327H153.457C153.457 26.8938 153.458 29.6086 153.458 32.7917C153.497 34.1667 152.714 34.7962 151.388 34.7786C150.393 34.7849 149.397 34.771 148.403 34.7849C147.627 34.805 146.997 34.4865 146.448 33.9677C146.15 34.2359 145.848 34.5066 145.541 34.7811H137.643C137.236 34.7862 136.837 34.7106 136.509 34.4537H136.511ZM124.397 29.6766C123.856 29.6476 123.295 29.664 122.75 29.6854C121.973 29.7143 121.637 30.4157 121.639 31.1208C121.634 31.8574 121.629 32.594 121.639 33.3293C121.836 33.4892 122.03 33.6479 122.211 33.7965H124.397V29.6766ZM145.78 33.1153C145.303 32.2792 144.833 31.4557 144.364 30.636H142.733C142.724 31.2064 142.729 31.7755 142.733 32.3459C142.729 33.1052 143.093 33.7625 143.914 33.7902C144.274 33.8116 144.635 33.7939 145.013 33.7939C145.264 33.5736 145.525 33.3407 145.781 33.1165H145.78V33.1153ZM145.98 29.6627C146.398 30.3842 146.815 31.1044 147.237 31.8309C147.374 31.7126 147.502 31.6005 147.622 31.4973C147.627 30.7569 147.681 30.0127 147.334 29.3391C147.038 28.741 146.582 28.3293 145.901 28.2588C145.465 28.2248 145.007 28.2222 144.575 28.2474V29.6627H145.98Z" fill="#002F56"/>
<path id="Vector_2" d="M157 34.7761H155.068V25.5327H157V34.7761Z" fill="#002F56"/>
<path id="Vector_3" d="M132.104 26.1379V27.382H131.134V26.6668C130.72 26.5585 130.44 26.7637 130.433 27.1729C130.429 27.4071 130.433 27.6413 130.433 27.8793C130.531 27.97 130.629 28.0606 130.734 28.1551H132.387V28.801H129.109V28.1551H129.793C129.634 28.0128 129.498 27.8919 129.381 27.7874C129.357 27.0584 129.298 26.3243 130.188 26.1656C130.656 26.0939 132.044 26.1455 132.107 26.1316V26.1379H132.104Z" fill="#002F56"/>
<path id="Vector_4" d="M124.596 25.2901C124.972 25.6654 125.352 26.0456 125.723 26.4171C125.349 26.791 124.968 27.1726 124.594 27.5465C124.222 27.1864 123.84 26.815 123.453 26.441C123.083 26.8124 122.703 27.194 122.316 27.5805C121.934 27.1902 121.566 26.8124 121.187 26.4246C121.562 26.0406 121.933 25.6603 122.306 25.2788C122.689 25.6628 123.068 26.0431 123.439 26.4146C123.832 26.033 124.217 25.6603 124.596 25.2927V25.2901Z" fill="#002F56"/>
<path id="Vector_5" d="M133.687 36.9402C134.081 36.5599 134.463 36.1897 134.837 35.8296C135.196 36.1884 135.576 36.5687 135.948 36.9402C135.583 37.3053 135.203 37.6856 134.837 38.0495C134.462 37.6868 134.078 37.3166 133.687 36.9389V36.9402Z" fill="#002F56"/>
<path id="Vector_6" d="M138.243 36.9438C137.878 37.309 137.498 37.6867 137.13 38.0544C136.752 37.6892 136.367 37.3178 135.977 36.94C136.371 36.5585 136.753 36.1871 137.126 35.8257C137.486 36.1858 137.867 36.5661 138.243 36.9438Z" fill="#002F56"/>
</g>
<g id="Group_3">
<path id="Vector_7" d="M96.9268 25.5291H98.8747V33.7978H102.777C102.26 33.308 101.932 32.7225 101.819 32.0237C101.722 31.447 101.665 30.864 101.599 30.2823C101.997 29.7434 102.393 29.2057 102.789 28.6694C103.78 28.6731 104.761 28.6568 105.748 28.6908C106.414 28.7185 107.059 28.857 107.641 29.2057C108.892 29.8895 108.91 31.4432 108.284 32.579C108.022 33.0625 107.666 33.4591 107.23 33.7953H111.278V25.5328H113.225C113.225 26.9771 113.228 29.5671 113.228 32.7905C113.265 33.7437 112.839 34.5533 111.846 34.7158C106.884 34.8908 101.899 34.7258 96.9293 34.7812C96.9293 31.0441 96.9268 26.8033 96.9268 25.5303V25.5291ZM103.482 29.6565C103.516 30.0985 103.57 30.5354 103.623 30.9748C103.675 31.3664 103.717 31.7618 103.804 32.1458C103.964 32.8673 104.415 33.6467 105.193 33.8142C106.198 33.1998 106.81 32.059 106.73 30.8791C106.705 30.4964 106.559 30.1652 106.247 29.9247C105.977 29.7182 105.666 29.6515 105.335 29.6515C104.717 29.6565 104.101 29.6427 103.483 29.6565H103.482Z" fill="#002F56"/>
<path id="Vector_8" d="M90.5066 34.782C90.1666 34.4395 89.8229 34.0933 89.4753 33.742C89.0989 34.3237 88.5096 34.6586 87.8334 34.7392C85.329 34.85 82.8132 34.7493 80.305 34.782C79.6301 34.2305 78.9565 33.6803 78.2715 33.1199C78.2828 32.4047 78.274 31.6845 78.3105 30.9668C78.337 30.4443 78.5019 29.9544 78.8431 29.5402C79.3858 28.8665 80.2635 28.7041 81.0832 28.6903C82.4392 28.6815 84.9311 28.6865 84.9311 28.6865C84.9311 30.0728 84.9336 31.4742 84.9349 33.8049H86.2368C86.772 33.7923 87.4003 33.927 87.6483 33.3214C87.7478 33.0935 87.817 32.8492 87.8662 32.6049C88.0147 31.8734 88.1318 31.1368 88.2892 30.4077C88.3912 29.9343 88.6179 29.5175 89.0069 29.209C89.5471 28.7771 90.256 28.7318 90.9196 28.7142C92.3688 28.7079 95.0848 28.7117 95.0848 28.7117C95.0747 30.0212 95.1062 30.7653 95.0773 32.4476C95.0596 33.0368 94.8884 33.5808 94.4678 34.0177C93.4744 35.0376 91.811 34.7329 90.5078 34.782H90.5066ZM93.1382 29.7039C92.4797 29.7039 91.8325 29.6913 91.1865 29.7077C90.4235 29.724 90.2547 30.2919 90.1528 30.9454C90.0508 31.4818 89.9525 32.0194 89.8619 32.5143C90.2925 32.96 90.7043 33.3844 91.0958 33.7898C91.8236 33.7948 92.7088 33.9258 93.0035 33.0922C93.0765 32.8958 93.1281 32.6792 93.1319 32.4702C93.1432 31.5485 93.1508 30.6243 93.1382 29.7039ZM82.9832 33.7999V29.6497C82.4128 29.6623 81.8475 29.656 81.2871 29.6951C80.6714 29.714 80.2848 30.2869 80.2509 30.8648C80.2345 31.6833 80.2433 32.503 80.2433 33.3415C80.4208 33.4863 80.6173 33.6475 80.8036 33.7999H82.9832Z" fill="#002F56"/>
<path id="Vector_9" d="M114.838 25.5288H116.771C116.771 27.0977 116.774 30.8877 116.774 34.7734H114.839V25.5288H114.838Z" fill="#002F56"/>
<path id="Vector_10" d="M80.8995 25.2723C81.2823 25.6588 81.66 26.0403 82.0315 26.4143C82.4243 26.0328 82.8096 25.6601 83.1912 25.2886C83.5651 25.6626 83.9441 26.0429 84.3181 26.4168C83.9416 26.7933 83.5601 27.1748 83.1861 27.5488C82.8109 27.1836 82.4281 26.8122 82.0403 26.4344C81.6689 26.8072 81.2873 27.1887 80.902 27.574C80.5243 27.1874 80.1541 26.8084 79.7764 26.4219C80.1516 26.0378 80.523 25.6576 80.8995 25.271V25.2723Z" fill="#002F56"/>
</g>
<g id="Group_4">
<path id="Vector_11" d="M58.4314 28.6691C59.416 28.6729 60.3957 28.6616 61.3791 28.6905C62.0489 28.7119 62.6961 28.8555 63.2816 29.2042C64.5408 29.8917 64.5508 31.4581 63.9162 32.5951C63.6556 33.0711 63.3018 33.4614 62.8711 33.7926H66.918V25.5301H68.8659V26.6935C68.8659 26.6935 68.8659 30.7014 68.8697 32.7059C68.8823 33.0811 68.8231 33.4413 68.7148 33.7963H71.84V25.5288H73.7804C73.7942 27.3596 73.7741 29.4107 73.7866 32.7941C73.7866 33.0711 73.769 33.3443 73.6884 33.6112C73.4945 34.2484 73.0425 34.5921 72.4091 34.7143C62.7767 34.8968 53.1203 34.7206 43.4791 34.7797C43.4791 31.0388 43.4766 26.8131 43.4766 25.5288H45.4219V33.7963H49.3958C48.9324 33.3229 48.4628 32.8419 47.9893 32.3559C48.0044 31.7754 47.9453 31.1887 48.0825 30.6107C48.3117 29.6399 48.94 29.0834 49.9007 28.8958C50.1991 28.8378 50.5089 28.8114 50.8123 28.8089C52.1281 28.8001 54.5558 28.8051 54.5558 28.8051C54.5545 30.0869 54.5583 30.7933 54.5621 32.4679C54.5621 32.9112 54.5797 33.3569 54.4059 33.7926H58.4138C57.9 33.304 57.5727 32.7198 57.4606 32.0235C57.3624 31.4468 57.3082 30.8638 57.2415 30.2821C57.6394 29.7432 58.0348 29.2068 58.4314 28.6691ZM60.8338 33.8152C61.8374 33.2045 62.4506 32.0612 62.3725 30.8839C62.3473 30.4924 62.1975 30.1562 61.8752 29.9157C61.6107 29.718 61.3048 29.6538 60.9799 29.6538C60.3591 29.6601 59.7396 29.6424 59.1202 29.6601C59.202 30.3992 59.2738 31.1282 59.3821 31.8623C59.5117 32.6795 59.9524 33.6163 60.8338 33.8152ZM49.9486 32.7084C50.32 33.0799 50.6776 33.4375 51.0339 33.7951C51.4029 33.7951 51.7781 33.8026 52.1521 33.7926C52.3774 33.7863 52.5197 33.6465 52.5751 33.4324C52.6041 33.3179 52.6167 33.1945 52.6179 33.0761C52.6179 31.9769 52.628 30.8764 52.6142 29.7772C52.113 29.7595 51.6106 29.7683 51.1095 29.7835C50.5051 29.8086 50.1009 30.1587 50.0027 30.7568C49.9196 31.3914 49.9549 32.0814 49.9486 32.711V32.7084Z" fill="#002F56"/>
<path id="Vector_12" d="M37.7926 37.3004C37.6881 37.0611 37.5874 36.8295 37.4766 36.5751C38.8075 36.7174 39.6712 35.564 39.6637 34.3238C39.6738 32.4086 39.6675 30.6131 39.6687 28.6929H41.6078C41.6053 30.4456 41.6242 32.4199 41.6078 34.2369C41.6531 36.4202 39.8375 37.5938 37.7926 37.2991V37.3004Z" fill="#002F56"/>
<path id="Vector_13" d="M51.8972 26.3867C51.5144 26.7581 51.1329 27.1283 50.7602 27.491C50.385 27.1283 50.0035 26.7594 49.6182 26.388C50.0123 26.0077 50.3976 25.6362 50.8005 25.2472C51.1405 25.5997 51.5119 25.985 51.8758 26.3615C52.2762 25.9724 52.6527 25.606 53.0355 25.2358C53.4031 25.6161 53.7784 26.0039 54.1397 26.3791C53.7884 26.7418 53.4145 27.1283 53.0493 27.5048C52.6577 27.1258 52.2737 26.7531 51.896 26.388H51.8972V26.3867Z" fill="#002F56"/>
</g>
<path id="Vector_14" d="M40.6918 43.6485L39.7349 42.2168H38.5374V43.6485H37.7354V39.3296H39.6228C40.9374 39.3296 41.4863 39.7678 41.4863 40.7361C41.4863 41.4512 41.1967 41.8957 40.586 42.0934L41.6349 43.6485H40.6906H40.6918ZM38.5387 41.5268H39.6681C40.377 41.5268 40.6553 41.3165 40.6553 40.7801C40.6553 40.2437 40.377 40.0335 39.6681 40.0335H38.5387V41.5268Z" fill="#002F56"/>
<path id="Vector_15" d="M45.7752 40.0487H43.209V41.1227H45.5838V41.8077H43.209V42.9372H45.8255V43.6524H42.4082V39.3335H45.7764V40.0487H45.7752Z" fill="#002F56"/>
<path id="Vector_16" d="M49.7591 42.7017H47.655L47.266 43.6524H46.3594L48.1788 39.3335H49.234L51.0598 43.6524H50.1469L49.7578 42.7017H49.7591ZM49.4821 42.0356L48.7052 40.1419L47.9283 42.0356H49.4833H49.4821Z" fill="#002F56"/>
<path id="Vector_17" d="M52.6448 42.927H54.9277V43.6485H51.8428V39.3296H52.6448V42.927Z" fill="#002F56"/>
<path id="Vector_18" d="M60.6209 40.0487H58.0547V41.1227H60.4295V41.8077H58.0547V42.9372H60.6712V43.6524H57.2539V39.3335H60.6221V40.0487H60.6209Z" fill="#002F56"/>
<path id="Vector_19" d="M64.5434 40.3721C64.08 40.1253 63.5134 39.9654 63.0752 39.9654C62.6131 39.9654 62.2983 40.1379 62.2983 40.4892C62.2983 40.7171 62.4217 40.8166 63.1067 41.0017C64.0561 41.2648 65.0168 41.4386 65.0004 42.3779C65.0218 44.0891 62.2933 43.9216 61.2432 43.1372L61.6133 42.5328C62.2127 42.9256 64.1077 43.4268 64.1556 42.422C64.1556 42.1261 63.9894 42.0392 63.3724 41.8856C62.3739 41.635 61.4144 41.465 61.4295 40.5471C61.4623 38.8976 63.9037 39.1067 64.8972 39.7325L64.5459 40.3746L64.5434 40.3721Z" fill="#002F56"/>
<path id="Vector_20" d="M69.0769 40.0335H67.6944V43.6485H66.8923V40.0335H65.5098V39.3296H69.0757V40.0335H69.0769Z" fill="#002F56"/>
<path id="Vector_21" d="M72.4446 42.7017H70.3406L69.9515 43.6524H69.0449L70.8644 39.3335H71.9195L73.7453 43.6524H72.8324L72.4434 42.7017H72.4446ZM72.1663 42.0356L71.3894 40.1419L70.6126 42.0356H72.1676H72.1663Z" fill="#002F56"/>
<path id="Vector_22" d="M77.2927 40.0335H75.9102V43.6485H75.1081V40.0335H73.7256V39.3296H77.2915V40.0335H77.2927Z" fill="#002F56"/>
<path id="Vector_23" d="M81.4317 40.0487H78.8656V41.1227H81.2403V41.8077H78.8656V42.9372H81.4821V43.6524H78.0635V39.3335H81.4317V40.0487Z" fill="#002F56"/>
<path id="Vector_24" d="M87.173 40.423C86.2325 39.5617 84.5641 40.112 84.5691 41.4907C84.583 42.8481 86.1078 43.353 87.1113 42.6378V41.9037H86.0688V41.2565H87.8706V43.0521C87.377 43.4714 86.7172 43.7119 86.026 43.7119C84.7857 43.7371 83.694 42.6882 83.7242 41.4907C83.6991 39.4459 86.2979 38.5934 87.6968 39.8803L87.173 40.423Z" fill="#002F56"/>
<path id="Vector_25" d="M92.3545 40.0487H89.7884V41.1227H92.1632V41.8077H89.7884V42.9372H92.4049V43.6524H88.9863V39.3335H92.3545V40.0487Z" fill="#002F56"/>
<path id="Vector_26" d="M97.1848 39.3335V43.6524H96.3399L94.0571 40.5486V43.6524H93.2676V39.3335H94.1125L96.4016 42.4373V39.3335H97.1848Z" fill="#002F56"/>
<path id="Vector_27" d="M101.711 40.0487H99.1448V41.1227H101.52V41.8077H99.1448V42.9372H101.761V43.6524H98.3428V39.3335H101.711V40.0487Z" fill="#002F56"/>
<path id="Vector_28" d="M105.578 43.6485L104.623 42.2168H103.425V43.6485H102.623V39.3296H104.511C105.825 39.3296 106.374 39.7678 106.374 40.7361C106.374 41.4512 106.084 41.8957 105.474 42.0934L106.523 43.6485H105.578ZM103.425 41.5268H104.555C105.265 41.5268 105.542 41.3165 105.542 40.7801C105.542 40.2437 105.265 40.0335 104.555 40.0335H103.425V41.5268Z" fill="#002F56"/>
<path id="Vector_29" d="M110.408 42.7017H108.304L107.915 43.6524H107.009L108.828 39.3335H109.883L111.709 43.6524H110.796L110.407 42.7017H110.408ZM110.13 42.0356L109.353 40.1419L108.576 42.0356H110.131H110.13Z" fill="#002F56"/>
<path id="Vector_30" d="M113.294 42.927H115.577V43.6485H112.492V39.3296H113.294V42.927Z" fill="#002F56"/>
<path id="Vector_31" d="M120.924 42.7017H118.82L118.431 43.6524H117.524L119.344 39.3335H120.399L122.225 43.6524H121.312L120.923 42.7017H120.924ZM120.646 42.0356L119.869 40.1419L119.092 42.0356H120.647H120.646Z" fill="#002F56"/>
<path id="Vector_32" d="M126.692 41.6993C126.692 42.9887 126 43.7101 124.766 43.7101C123.533 43.7101 122.835 42.9824 122.835 41.6993V39.3296H123.637V41.6993C123.637 42.514 124.05 42.9698 124.766 42.9698C125.483 42.9698 125.89 42.5127 125.89 41.6993V39.3296H126.692V41.6993Z" fill="#002F56"/>
<path id="Vector_33" d="M131.039 40.0335H129.656V43.6485H128.854V40.0335H127.472V39.3296H131.038V40.0335H131.039Z" fill="#002F56"/>
<path id="Vector_34" d="M135.727 43.6485H134.925V41.834H132.612V43.6485H131.81V39.3296H132.612V41.1125H134.925V39.3296H135.727V43.6485Z" fill="#002F56"/>
<path id="Vector_35" d="M139.027 43.71C137.787 43.7352 136.695 42.6863 136.725 41.4889C136.694 40.2915 137.787 39.2426 139.027 39.2678C140.261 39.2426 141.34 40.2915 141.316 41.4889C141.341 42.6863 140.261 43.734 139.027 43.71ZM139.027 42.9583C139.842 42.9583 140.476 42.2985 140.476 41.4902C140.412 39.5398 137.633 39.546 137.57 41.4902C137.57 42.2985 138.206 42.9583 139.026 42.9583H139.027Z" fill="#002F56"/>
<path id="Vector_36" d="M145.269 43.6485L144.313 42.2168H143.116V43.6485H142.313V39.3296H144.201C145.515 39.3296 146.064 39.7678 146.064 40.7361C146.064 41.4512 145.775 41.8957 145.164 42.0934L146.213 43.6485H145.269ZM143.116 41.5268H144.245C144.955 41.5268 145.232 41.3165 145.232 40.7801C145.232 40.2437 144.955 40.0335 144.245 40.0335H143.116V41.5268Z" fill="#002F56"/>
<path id="Vector_37" d="M147.784 43.6485H146.982V39.3296H147.784V43.6485Z" fill="#002F56"/>
<path id="Vector_38" d="M152.134 40.0335H150.751V43.6485H149.949V40.0335H148.566V39.3296H152.132V40.0335H152.134Z" fill="#002F56"/>
<path id="Vector_39" d="M157 39.3335L155.211 42.1225V43.6524H154.403V42.1288L152.613 39.3335H153.575L154.809 41.2827L156.049 39.3335H157Z" fill="#002F56"/>
</g>
<g id="Group_5">
<path id="Vector_40" d="M65.7647 13.6335V10.6896H59.2172V5.59259H68.2654V2.91943H55.5254V21.872H70.2158V19.2001H59.2172V13.6335H65.7647Z" fill="#002F56"/>
<path id="Vector_41" d="M98.0598 21.8496H102.006V2.92725H92.993C90.7001 7.63392 86.0803 17.1807 83.834 21.8723H87.8431L92.1066 13.0923L98.0598 21.8484V21.8496ZM95.7379 5.5727H98.3935V16.5197L93.8542 9.78202L95.7379 5.5727Z" fill="#002F56"/>
<path id="Vector_42" d="M73.637 3.3447C69.6631 4.75368 67.6598 8.4329 67.714 12.583C67.6611 16.5393 69.7575 19.9339 73.5148 21.2547C74.7589 21.7131 76.1993 21.946 77.7947 21.946C79.0135 21.9422 82.2281 21.9007 83.8373 21.8768V10.4387H76.9724V13.3977H80.6554V18.9052C79.9579 19.1545 80.0271 19.1646 78.836 19.1469C74.4617 19.2792 71.2924 16.7483 71.4045 12.1222C71.3818 10.1378 72.1323 8.25788 73.3738 7.04029C75.7158 4.80153 79.8219 4.93122 82.6889 6.07075L83.1347 3.59023C80.8393 2.41545 76.261 2.29206 73.6382 3.3447H73.637Z" fill="#002F56"/>
<path id="Vector_43" d="M45.6681 15.0473L51.0748 21.8718H55.5259L49.8837 15.0498L53.2129 11.3479V7.11717C53.2129 4.80287 51.3292 2.91919 49.0149 2.91919H38.9229V21.8718H42.6134V14.9528H45.5925L45.6656 15.046H45.6681V15.0473ZM42.5051 11.9964L42.5718 5.57598H47.0393C48.7291 5.57598 49.9517 6.87793 49.9517 7.75556L49.8849 10.124L48.2229 11.9964H42.5051Z" fill="#002F56"/>
</g>
<g id="Group_6">
<path id="Vector_44" d="M1.93262 28.6226L17.1531 43.8431V37.7765L7.94502 28.6226H1.93262Z" fill="#005257"/>
<path id="Vector_45" d="M18.668 37.7765V43.8431L33.8885 28.6226H27.8773L18.668 37.7765Z" fill="#005257"/>
<path id="Vector_46" d="M17.1533 12.599V12.278V8.38344V8.37336V6.26556L11.0364 0.186417V0.199009L5.02524 0.149902L7.18845 2.31437L8.93614 4.0608L10.2129 5.34261L11.9593 7.08526L13.2411 8.36707L13.2487 8.37336H4.27731L4.28738 8.38344L0 12.599H17.1533Z" fill="#75CEC8"/>
<path id="Vector_47" d="M7.18957 23.9846L8.93727 22.2369L10.2178 20.9601L11.9605 19.2137L13.2423 17.9319L14.99 16.1855L17.1532 14.021H11.1408L5.06162 20.1367H5.07547L5.02637 26.1491L7.18957 23.9846Z" fill="#00A688"/>
<path id="Vector_48" d="M31.5351 8.38344L31.544 8.37336H22.9516L22.5726 8.37462L22.5801 8.36707L23.8619 7.08526L25.6084 5.34261L26.8851 4.0608L28.6328 2.31437L30.796 0.149902L24.7849 0.199009V0.186417L18.668 6.26556V8.38344V12.278V12.599H35.8225L31.5351 8.38344Z" fill="#75CEC8"/>
<path id="Vector_49" d="M22.4949 17.9319L23.7754 19.2137L25.5181 20.9601L26.7999 22.2369L28.5476 23.9846L30.7108 26.1491L30.6617 20.1367H30.6755L24.5951 14.021H18.584L20.7472 16.1855L22.4949 17.9319Z" fill="#00A488"/>
<path id="Vector_50" d="M19.9851 17.9507H15.8161L13.3721 20.445H22.4505L19.9851 17.9507Z" fill="#00848D"/>
<path id="Vector_51" d="M19.9851 21.9194H15.8161L13.3721 24.4138H22.4505L19.9851 21.9194Z" fill="#00848D"/>
<path id="Vector_52" d="M19.9851 25.8569H15.8161L13.3721 28.3526H22.4505L19.9851 25.8569Z" fill="#00848D"/>
<path id="Vector_53" d="M13.3721 32.3086H22.4505L19.9851 29.8142H15.8161L13.3721 32.3086Z" fill="#00848D"/>
</g>
</g>
<defs>
<clipPath id="clip0_10533_59684">
<rect width="157" height="43.6923" fill="white" transform="translate(0 0.153809)"/>
</clipPath>
</defs>
</svg>
