<svg width="22" height="22" viewBox="0 0 22 22" fill="none" xmlns="http://www.w3.org/2000/svg">
<g id="elements">
<g id="Icon">
<path fill-rule="evenodd" clip-rule="evenodd" d="M5.75 11C5.75 8.1005 8.1005 5.75 11 5.75C13.8995 5.75 16.25 8.1005 16.25 11C16.25 13.8995 13.8995 16.25 11 16.25C8.1005 16.25 5.75 13.8995 5.75 11ZM11 7.25C8.92893 7.25 7.25 8.92893 7.25 11C7.25 13.0711 8.92893 14.75 11 14.75C13.0711 14.75 14.75 13.0711 14.75 11C14.75 8.92893 13.0711 7.25 11 7.25Z" fill="#161616"/>
<path d="M16.5078 6.5C17.0601 6.5 17.5078 6.05229 17.5078 5.5C17.5078 4.94772 17.0601 4.5 16.5078 4.5H16.4988C15.9465 4.5 15.4988 4.94772 15.4988 5.5C15.4988 6.05228 15.9465 6.5 16.4988 6.5H16.5078Z" fill="#161616"/>
<path fill-rule="evenodd" clip-rule="evenodd" d="M11.0572 0.75C13.2479 0.749987 14.9686 0.749977 16.312 0.930594C17.6886 1.11568 18.7809 1.50271 19.6391 2.36091C20.4973 3.21911 20.8843 4.31137 21.0694 5.68802C21.25 7.03144 21.25 8.7521 21.25 10.9428V11.0572C21.25 13.2479 21.25 14.9686 21.0694 16.312C20.8843 17.6886 20.4973 18.7809 19.6391 19.6391C18.7809 20.4973 17.6886 20.8843 16.312 21.0694C14.9686 21.25 13.2479 21.25 11.0572 21.25H10.9428C8.75214 21.25 7.03144 21.25 5.68802 21.0694C4.31137 20.8843 3.21911 20.4973 2.36091 19.6391C1.50272 18.7809 1.11568 17.6886 0.930594 16.312C0.749976 14.9686 0.749987 13.2479 0.75 11.0572L0.75 10.9428C0.749987 8.75212 0.749976 7.03144 0.930594 5.68802C1.11568 4.31137 1.50272 3.21911 2.36091 2.36091C3.21911 1.50271 4.31137 1.11568 5.68802 0.930594C7.03143 0.749977 8.7521 0.749987 10.9428 0.75L11.0572 0.75ZM5.8879 2.41722C4.67757 2.57994 3.95462 2.88853 3.42157 3.42157C2.88853 3.95462 2.57994 4.67757 2.41722 5.8879C2.25159 7.11979 2.25 8.73963 2.25 11C2.25 13.2604 2.25159 14.8802 2.41722 16.1121C2.57994 17.3224 2.88853 18.0454 3.42157 18.5784C3.95462 19.1115 4.67757 19.4201 5.8879 19.5828C7.11979 19.7484 8.73963 19.75 11 19.75C13.2604 19.75 14.8802 19.7484 16.1121 19.5828C17.3224 19.4201 18.0454 19.1115 18.5784 18.5784C19.1115 18.0454 19.4201 17.3224 19.5828 16.1121C19.7484 14.8802 19.75 13.2604 19.75 11C19.75 8.73963 19.7484 7.11979 19.5828 5.88789C19.4201 4.67757 19.1115 3.95462 18.5784 3.42157C18.0454 2.88853 17.3224 2.57994 16.1121 2.41722C14.8802 2.25159 13.2604 2.25 11 2.25C8.73963 2.25 7.11979 2.25159 5.8879 2.41722Z" fill="#161616"/>
</g>
</g>
</svg>
