<svg width="30" height="24" viewBox="0 0 30 24" fill="none" xmlns="http://www.w3.org/2000/svg">
<g id="law-icon 1" clip-path="url(#clip0_6431_49671)">
<g id="Group">
<path id="Vector" fill-rule="evenodd" clip-rule="evenodd" d="M12.4471 4.54483C11.9193 5.07255 11.9079 5.92379 12.4241 6.44005L12.7017 6.71768L10.4647 8.91806L16.1228 14.372L18.3025 12.1142L26.7989 20.6106C27.3128 21.1246 28.1664 21.1154 28.6941 20.5877C29.2218 20.0599 29.2333 19.2087 28.717 18.6924L20.1886 10.1639L21.8956 8.39033L16.5473 2.93412L14.6314 4.81328L14.3377 4.51959C13.826 4.00563 12.9748 4.0171 12.4471 4.54483ZM0.903658 22.9188C0.903658 23.5131 1.37631 23.9995 1.95681 23.9995L14.1197 24.0018C14.7002 24.0018 15.1729 23.5154 15.1729 22.9211C15.1729 22.3383 14.7094 21.8404 14.1197 21.8404H12.8234C13.1492 21.6569 13.3717 21.3012 13.3717 20.8928C13.3717 20.31 12.9082 19.8121 12.3186 19.8121H3.76025C3.17976 19.8098 2.70481 20.2963 2.70481 20.8905C2.70481 21.2989 2.92966 21.6569 3.25777 21.8404H1.95911C1.37632 21.8381 0.903658 22.3246 0.903658 22.9188ZM16.7813 0.320736C16.3614 0.740621 16.3522 1.41978 16.7629 1.82819L23.0038 8.06911C23.4146 8.47982 24.0914 8.47064 24.5113 8.05075C24.9312 7.63087 24.9404 6.95171 24.5297 6.5433L18.2887 0.30238C17.878 -0.108327 17.2012 -0.0991496 16.7813 0.320736ZM7.90863 9.1911C7.48874 9.61098 7.47957 10.2901 7.89027 10.6986L14.1312 16.9395C14.5419 17.3502 15.2188 17.341 15.6386 16.9211C16.0585 16.5012 16.0677 15.8221 15.657 15.4137L9.41609 9.17274C9.00767 8.76204 8.33081 8.77121 7.90863 9.1911Z" fill="#6B778C"/>
</g>
</g>
<defs>
<clipPath id="clip0_6431_49671">
<rect width="28.1943" height="24" fill="white" transform="matrix(-1 0 0 1 29.0972 0)"/>
</clipPath>
</defs>
</svg>
