<svg width="28" height="24" viewBox="0 0 28 24" fill="none" xmlns="http://www.w3.org/2000/svg">
<g id="law-icon (1) 1" clip-path="url(#clip0_10533_58174)">
<g id="Group">
<path id="Vector" fill-rule="evenodd" clip-rule="evenodd" d="M11.4636 4.54532C10.9396 5.07304 10.9282 5.92428 11.4409 6.44054L11.7166 6.71816L9.49489 8.91855L15.114 14.3725L17.2787 12.1147L25.7166 20.6111C26.227 21.125 27.0746 21.1159 27.5987 20.5881C28.1228 20.0604 28.1342 19.2092 27.6215 18.6929L19.1518 10.1644L20.8471 8.39082L15.5356 2.93461L13.6329 4.81377L13.3412 4.52008C12.8331 4.00612 11.9877 4.01759 11.4636 4.54532ZM-0.000226974 22.9193C-0.000226974 23.5136 0.469172 24 1.04567 24L13.1248 24.0023C13.7013 24.0023 14.1707 23.5159 14.1707 22.9216C14.1707 22.3388 13.7104 21.8409 13.1248 21.8409H11.8373C12.1609 21.6574 12.3819 21.3017 12.3819 20.8933C12.3819 20.3105 11.9216 19.8126 11.336 19.8126H2.83669C2.26019 19.8103 1.78851 20.2967 1.78851 20.891C1.78851 21.2994 2.01182 21.6574 2.33766 21.8409H1.04795C0.469173 21.8386 -0.000226974 22.325 -0.000226974 22.9193ZM15.768 0.321224C15.351 0.741109 15.3419 1.42027 15.7498 1.82868L21.9477 8.0696C22.3556 8.4803 23.0278 8.47113 23.4448 8.05124C23.8618 7.63136 23.8709 6.9522 23.463 6.54379L17.2651 0.302868C16.8572 -0.107839 16.185 -0.0986613 15.768 0.321224ZM6.95648 9.19159C6.53949 9.61147 6.53037 10.2906 6.93825 10.699L13.1362 16.94C13.544 17.3507 14.2162 17.3415 14.6332 16.9216C15.0502 16.5017 15.0593 15.8226 14.6515 15.4141L8.45355 9.17323C8.04795 8.76252 7.37575 8.7717 6.95648 9.19159Z" fill="#2E353F"/>
</g>
</g>
<defs>
<clipPath id="clip0_10533_58174">
<rect width="28" height="24" fill="white" transform="matrix(-1 0 0 1 28 0)"/>
</clipPath>
</defs>
</svg>
