<svg width="24" height="24" viewBox="0 0 24 24" fill="none" xmlns="http://www.w3.org/2000/svg">
<g id="Linear / Like / Heart ">
<g id="Vector">
<path d="M2 9.1371C2 14 6.01943 16.5914 8.96173 18.9109C10 19.7294 11 20.5 12 20.5C13 20.5 14 19.7294 15.0383 18.9109C17.9806 16.5914 22 14 22 9.1371C22 4.27416 16.4998 0.825464 12 5.50063C7.50016 0.825464 2 4.27416 2 9.1371Z" fill="#B12424"/>
<path d="M8.96173 18.9109L8.34265 19.6962H8.34265L8.96173 18.9109ZM12 5.50063L11.2795 6.1941C11.468 6.38996 11.7282 6.50063 12 6.50063C12.2718 6.50063 12.532 6.38996 12.7205 6.1941L12 5.50063ZM15.0383 18.9109L14.4192 18.1256H14.4192L15.0383 18.9109ZM9.58082 18.1256C8.05033 16.919 6.42071 15.7725 5.12521 14.3138C3.864 12.8936 3 11.2565 3 9.1371H1C1 11.8807 2.14571 13.9707 3.62979 15.6418C5.07958 17.2743 6.93083 18.5832 8.34265 19.6962L9.58082 18.1256ZM3 9.1371C3 7.07976 4.16214 5.36745 5.72829 4.65156C7.2314 3.96449 9.28552 4.12242 11.2795 6.1941L12.7205 4.80716C10.2146 2.20368 7.26876 1.74837 4.89683 2.83259C2.58794 3.88799 1 6.3315 1 9.1371H3ZM8.34265 19.6962C8.85258 20.0982 9.41592 20.5399 9.99069 20.8758C10.5651 21.2114 11.2461 21.5 12 21.5V19.5C11.7539 19.5 11.4349 19.4032 10.9997 19.149C10.565 18.8949 10.1091 18.542 9.58082 18.1256L8.34265 19.6962ZM15.6574 19.6962C17.0692 18.5832 18.9204 17.2743 20.3702 15.6418C21.8543 13.9707 23 11.8807 23 9.1371H21C21 11.2565 20.136 12.8936 18.8748 14.3138C17.5793 15.7725 15.9497 16.919 14.4192 18.1256L15.6574 19.6962ZM23 9.1371C23 6.3315 21.4121 3.88799 19.1032 2.83259C16.7312 1.74837 13.7854 2.20368 11.2795 4.80716L12.7205 6.1941C14.7145 4.12242 16.7686 3.96449 18.2717 4.65156C19.8379 5.36745 21 7.07976 21 9.1371H23ZM14.4192 18.1256C13.8909 18.542 13.435 18.8949 13.0003 19.149C12.5651 19.4032 12.2461 19.5 12 19.5V21.5C12.7539 21.5 13.4349 21.2114 14.0093 20.8758C14.5841 20.5399 15.1474 20.0982 15.6574 19.6962L14.4192 18.1256Z" fill="#B12424"/>
</g>
</g>
</svg>
