<svg width="25" height="24" viewBox="0 0 25 24" fill="none" xmlns="http://www.w3.org/2000/svg">
<g id="Linear / Arrows Action / Login 3">
<path id="Vector" d="M8.5 16C8.5 18.8284 8.5 20.2426 9.37868 21.1213C10.2574 22 11.6716 22 14.5 22H15.5C18.3284 22 19.7426 22 20.6213 21.1213C21.5 20.2426 21.5 18.8284 21.5 16V8C21.5 5.17157 21.5 3.75736 20.6213 2.87868C19.7426 2 18.3284 2 15.5 2H14.5C11.6716 2 10.2574 2 9.37868 2.87868C8.5 3.75736 8.5 5.17157 8.5 8" stroke="#E34935" stroke-width="1.5" stroke-linecap="round"/>
<path id="Vector_2" d="M8.5 19.5C6.14298 19.5 4.96447 19.5 4.23223 18.7678C3.5 18.0355 3.5 16.857 3.5 14.5V9.5C3.5 7.14298 3.5 5.96447 4.23223 5.23223C4.96447 4.5 6.14298 4.5 8.5 4.5" stroke="#E34935" stroke-width="1.5"/>
<path id="Vector_3" d="M6.5 12L15.5 12M15.5 12L13 14.5M15.5 12L13 9.5" stroke="#E34935" stroke-width="1.5" stroke-linecap="round" stroke-linejoin="round"/>
</g>
</svg>
