<svg width="193" height="31" viewBox="0 0 193 31" fill="none" xmlns="http://www.w3.org/2000/svg">
<path d="M173.148 30.6144V0.386153H193V3.6448H177.066V13.6351H191.999V16.8938H177.066V27.3557H193V30.6144H173.148Z" fill="white"/>
<path d="M156.829 31C154.362 31 152.141 30.6856 150.168 30.0567C148.194 29.4278 146.482 28.5417 145.03 27.3983L146.424 24.2255C147.439 24.9687 148.47 25.5975 149.515 26.112C150.56 26.598 151.677 26.9696 152.867 27.2268C154.086 27.4555 155.407 27.5698 156.829 27.5698C159.354 27.5698 161.211 27.1268 162.401 26.2407C163.62 25.326 164.23 24.1254 164.23 22.639C164.23 21.3527 163.809 20.3665 162.967 19.6805C162.126 18.9945 160.66 18.4514 158.57 18.0512L153.912 17.1079C151.097 16.5362 148.992 15.6072 147.599 14.3209C146.235 13.006 145.553 11.2337 145.553 9.00415C145.553 7.20332 146.032 5.63117 146.99 4.28769C147.976 2.91563 149.326 1.858 151.038 1.1148C152.78 0.3716 154.812 0 157.134 0C159.281 0 161.269 0.314432 163.098 0.943294C164.926 1.57216 166.465 2.50115 167.713 3.73029L166.32 6.77455C165.014 5.60258 163.606 4.75934 162.097 4.24482C160.616 3.70171 158.933 3.43016 157.046 3.43016C154.754 3.43016 152.94 3.91609 151.604 4.88797C150.269 5.85984 149.602 7.17474 149.602 8.83264C149.602 10.1475 150.023 11.1909 150.864 11.9627C151.706 12.7059 153.099 13.2775 155.044 13.6777L159.702 14.5781C162.663 15.1498 164.825 16.0503 166.189 17.2794C167.582 18.5085 168.279 20.2093 168.279 22.3817C168.279 24.0968 167.814 25.6118 166.886 26.9267C165.957 28.213 164.636 29.2135 162.924 29.9281C161.211 30.6427 159.18 31 156.829 31Z" fill="white"/>
<path d="M123.262 30.6144V0.386153H127.311V30.6144H123.262Z" fill="white"/>
<path d="M115.94 30.6144V0.386153H126.345C129.77 0.386153 132.658 0.972136 135.009 2.14411C137.389 3.31607 139.189 5.03115 140.408 7.28933C141.627 9.51893 142.236 12.2488 142.236 15.4788C142.236 18.7089 141.627 21.453 140.408 23.7112C139.189 25.9694 137.389 27.6844 135.009 28.8564C132.658 30.0284 129.77 30.6144 126.345 30.6144H115.94ZM119.989 27.2271H126.041C130.133 27.2271 133.166 26.2552 135.14 24.3115C137.113 22.3677 138.1 19.4235 138.1 15.4788C138.1 11.5341 137.113 8.60422 135.14 6.68906C133.166 4.7453 130.133 3.77343 126.041 3.77343H119.989V27.2271Z" fill="white"/>
<path d="M81.5357 30.6144L95.1189 0.386153H98.6453L112.446 30.6144H108.267L104.479 22.039L103.561 19.8094H90.4107L89.4592 22.039L85.6716 30.6144H81.5357ZM96.8168 4.84535L90.0252 20.7098L88.9803 19.8094H104.784L103.957 20.7098L96.991 4.84535H96.8168Z" fill="white"/>
<path d="M21.6783 30.6144L35.2615 0.386153H38.788L52.5889 30.6144H48.4094L44.6218 22.039L43.704 19.8094H30.5533L29.6018 22.039L25.8142 30.6144H21.6783ZM36.9594 4.84535L30.1678 20.7098L29.123 19.8094H44.9266L44.0994 20.7098L37.1336 4.84535H36.9594Z" fill="white"/>
<path d="M55.7806 30.6144V0.386153H68.4931C71.7728 0.386153 74.2979 1.14364 76.0684 2.65863C77.8679 4.17361 78.7676 6.28887 78.7676 9.00441C78.7676 10.8052 78.3613 12.3345 77.5486 13.5922C76.736 14.85 75.5895 15.8075 74.1093 16.465C72.6581 17.1224 70.9602 17.4512 69.0156 17.4512L69.7557 16.8509H70.8005C71.9905 16.8509 73.0499 17.151 73.9787 17.7513C74.9074 18.323 75.6766 19.2663 76.2861 20.5812L80.6397 30.6144H76.1555L71.9325 20.6669C71.4391 19.4378 70.7135 18.6374 69.7557 18.2658C68.8269 17.8942 67.6514 17.7084 66.2292 17.7084H59.8294V30.6144H55.7806ZM59.8294 14.6213H67.8836C70.1185 14.6213 71.8164 14.1496 72.9773 13.2063C74.1673 12.2631 74.7623 10.891 74.7623 9.09016C74.7623 7.31792 74.1673 5.97444 72.9773 5.05973C71.8164 4.11644 70.1185 3.6448 67.8836 3.6448H59.8294V14.6213Z" fill="white"/>
<path d="M0 30.6144V0.386153H12.7125C15.9923 0.386153 18.5028 1.15794 20.2443 2.70151C21.9857 4.24507 22.8564 6.37463 22.8564 9.09016C22.8564 11.8057 21.9857 13.9495 20.2443 15.5217C18.5028 17.0653 15.9923 17.837 12.7125 17.837H4.04885V30.6144H0ZM4.04885 14.5784H12.3207C14.4685 14.5784 16.0938 14.1068 17.1968 13.1635C18.2997 12.1916 18.8511 10.8338 18.8511 9.09016C18.8511 7.3465 18.2997 6.00303 17.1968 5.05973C16.0938 4.11644 14.4685 3.6448 12.3207 3.6448H4.04885V14.5784Z" fill="white"/>
</svg>
