<svg width="130" height="37" viewBox="0 0 130 37" fill="none" xmlns="http://www.w3.org/2000/svg">
<path d="M9.93097 31.8125L8.85667 35.6626H8.79281L7.80062 32.1318H6.7172L5.72501 35.6626H5.66114L4.58685 31.8125H3.66309L4.90389 36.2671H6.27242L7.22811 32.8617H7.29198L8.24539 36.2671H9.61393L10.8547 31.8125H9.93097Z" fill="#FAFAFA"/>
<path d="M12.4764 31.8125L10.6631 36.2671H11.58L11.9997 35.1859H14.4174L14.8371 36.2671H15.754L13.9407 31.8125H12.4764ZM12.2232 34.7069L13.1789 32.3531H13.2428L14.1962 34.7069H12.2232Z" fill="#FAFAFA"/>
<path d="M15.3721 32.2892H17.0896V36.2671H18.0133V32.2892H19.7308V31.8125H15.3721V32.2892Z" fill="#FAFAFA"/>
<path d="M23.7738 33.8493H21.1645V31.8125H20.2407V36.2671H21.1645V34.326H23.7738V36.2671H24.6953V31.8125H23.7738V33.8493Z" fill="#FAFAFA"/>
<path d="M26.5099 31.8125H25.5884V36.2671H26.5099V31.8125Z" fill="#FAFAFA"/>
<path d="M31.6627 32.289C31.4392 32.0883 31.1723 31.9378 30.8598 31.8374C30.5496 31.7348 30.2006 31.6846 29.8197 31.6846C29.4388 31.6846 29.0898 31.7348 28.7751 31.8374C28.4626 31.94 28.1935 32.0906 27.9699 32.289C27.7487 32.4897 27.5753 32.7338 27.4544 33.028C27.3336 33.32 27.272 33.6575 27.272 34.0384C27.272 34.4194 27.3313 34.7569 27.4544 35.0512C27.5753 35.3454 27.7464 35.5894 27.9699 35.7902C28.1935 35.9886 28.4603 36.1391 28.7751 36.2418C29.0898 36.3444 29.4365 36.3946 29.8197 36.3946C30.1208 36.3946 30.3991 36.3627 30.6545 36.2988L31.2202 36.9352L31.665 36.5223L31.2567 36.0707C31.6034 35.8837 31.8771 35.6214 32.071 35.2815C32.2671 34.9417 32.3629 34.5288 32.3629 34.0407C32.3629 33.6598 32.3013 33.3223 32.1782 33.0303C32.055 32.7361 31.8816 32.492 31.6604 32.2913M31.2293 34.9691C31.129 35.2245 30.9944 35.4275 30.8256 35.5803L30.3603 35.058L29.9155 35.4708L30.2782 35.8837C30.1391 35.927 29.9862 35.9475 29.8197 35.9475C29.603 35.9475 29.4 35.9088 29.213 35.8335C29.0237 35.7582 28.8595 35.6396 28.7203 35.4823C28.5812 35.3249 28.4694 35.1264 28.3873 34.8869C28.3052 34.6474 28.2642 34.3646 28.2642 34.0384C28.2642 33.7123 28.3052 33.4294 28.3873 33.19C28.4694 32.9505 28.5812 32.752 28.7203 32.5946C28.8595 32.4373 29.0237 32.3209 29.213 32.2457C29.4023 32.1681 29.6053 32.1316 29.8197 32.1316C30.0341 32.1316 30.2394 32.1704 30.4264 32.2457C30.6158 32.3232 30.78 32.4395 30.9191 32.5946C31.0582 32.752 31.17 32.9505 31.2521 33.19C31.3342 33.4294 31.3753 33.7123 31.3753 34.0384C31.3753 34.4034 31.3251 34.7136 31.2248 34.9668" fill="#FAFAFA"/>
<path d="M57.5164 7.749L55.1694 5.45215L52.8726 7.749L55.1694 10.096L57.5164 7.749Z" fill="#FAFAFA"/>
<path d="M60.1078 4.42413L57.8109 2.125L55.4639 4.42413L57.8109 6.77116L60.1078 4.42413Z" fill="#FAFAFA"/>
<path d="M60.4491 10.096L62.7482 7.749L60.4491 5.45215L58.1021 7.749L60.4491 10.096Z" fill="#FAFAFA"/>
<path d="M40.5151 30.9727L38.2183 33.2695L40.5151 35.5664L42.8622 33.2695L40.5151 30.9727Z" fill="#FAFAFA"/>
<path d="M43.1577 33.2695L45.4546 35.5664L47.8016 33.2695L45.4546 30.9727L43.1577 33.2695Z" fill="#FAFAFA"/>
<path d="M26.8383 7.79918L24.5415 5.45215L22.2446 7.79918L24.5415 10.096L26.8383 7.79918Z" fill="#FAFAFA"/>
<path d="M31.8283 7.79918L29.4813 5.45215L27.1821 7.79918L29.4813 10.096L31.8283 7.79918Z" fill="#FAFAFA"/>
<path d="M61.9648 15.2761V27.0592C61.9648 27.1572 61.9694 27.2553 61.9808 27.3511H53.6533V12.7808L49.9377 14.7378V27.0592C49.9377 27.1572 49.9423 27.2553 49.9537 27.3511H36.0768V20.2621C36.0768 14.9819 32.067 11.5605 27.0331 11.5605C21.9992 11.5605 18.0373 14.9819 18.0373 20.2621C18.0373 20.3511 18.0373 20.44 18.0418 20.5267C18.0395 20.6157 18.0373 20.7092 18.0373 20.8004C18.0373 23.5831 19.1572 25.8229 20.918 27.3511H8.99354C7.2327 27.3511 3.66539 26.3247 3.66539 20.2621V13.9053L0 15.86V20.7981C0 26.0784 4.0098 29.502 8.99582 29.502H31.2892L32.6098 28.0833C32.9999 28.9158 33.8803 29.502 34.8109 29.502H48.8178L50.1864 28.0833C50.5764 28.9158 51.4568 29.502 52.3851 29.502H60.8906L62.2112 28.0833C62.6035 28.9158 63.4839 29.502 64.4122 29.502H65.6827V12.7808L61.9671 14.7378V15.2761H61.9648ZM27.0353 27.3511C25.3019 27.3511 21.8167 26.3567 21.7095 20.5427C21.7095 20.5358 21.7095 20.529 21.7095 20.5199C21.7095 20.4355 21.7072 20.3488 21.7072 20.2621C21.7072 14.1995 25.2768 13.1731 27.0376 13.1731C28.7985 13.1731 32.3658 14.1995 32.3658 20.2621V27.0592C32.3658 27.1572 32.3703 27.2553 32.3817 27.3511H27.0353Z" fill="#FAFAFA"/>
<path d="M79.273 11.5602C74.2368 11.5602 70.2271 14.9816 70.2271 20.2641C70.2271 20.353 70.2271 20.4443 70.2316 20.5332C70.2293 20.6222 70.2271 20.7111 70.2271 20.8024C70.2271 26.0826 74.2368 29.504 79.273 29.504H83.3307L84.5944 28.1925C84.4233 33.4111 81.5539 34.7295 79.727 34.9074C79.7224 34.9074 79.7178 34.9074 79.7133 34.9074C79.6038 34.9211 79.4441 34.9279 79.2776 34.9325C79.0883 34.937 78.8899 34.9348 78.7462 34.9325L80.6918 36.9328C85.0916 36.3466 88.2711 33.0211 88.2711 28.2791V20.2595C88.2711 14.9793 84.2613 11.5557 79.2753 11.5557M84.6012 27.3508H79.273C77.4917 27.3508 74.0544 26.3563 73.9449 20.5424V20.5196C73.9449 20.4352 73.9426 20.3485 73.9426 20.2618C73.9426 14.1992 77.4643 13.1728 79.273 13.1728C81.0818 13.1728 84.6012 14.1992 84.6012 20.2618V27.3508Z" fill="#FAFAFA"/>
<path d="M98.9243 2.12579V33.399L102.802 32.4867L118.992 28.6662L108.709 25.701L106.351 25.0191L106.424 4.24701L121.371 7.27603V31.6154L119.915 31.9803L98.9243 36.9367L129.018 35.6594V0.00911854V0L98.9243 2.12579Z" fill="#2E9C95"/>
</svg>
