<svg width="85" height="45" viewBox="0 0 85 45" fill="none" xmlns="http://www.w3.org/2000/svg">
<g id="Group">
<g id="Group_2">
<g id="Group_3">
<g id="Group_4">
<path id="Vector" d="M68.2134 0L44.6992 44.5879H61.4482L84.9993 0H68.2134Z" fill="#007166"/>
</g>
<g id="Group_5">
<path id="Vector_2" d="M44.4792 44.5877H61.2684L49.4073 22.21H32.6182L44.4792 44.5877Z" fill="#00AD68"/>
</g>
<g id="Group_6">
<path id="Vector_3" d="M43.4989 11.415H26.6729L31.1719 19.937H47.9979L43.4989 11.415Z" fill="#F6B221"/>
</g>
</g>
<g id="Group_7">
<g id="Group_8">
<g id="Group_9">
<g id="Group_10">
<g id="Group_11">
<path id="Vector_4" d="M3.67792 13.9427H4.36853C4.47916 13.9427 4.54956 13.9059 4.62331 13.8321C4.69372 13.7684 4.73395 13.6746 4.73395 13.5773V12.7426C4.7373 12.6453 4.69707 12.5548 4.62331 12.4878C4.55962 12.4174 4.46575 12.3771 4.36853 12.3771H3.67792C3.5807 12.3738 3.49018 12.414 3.42313 12.4878C3.35273 12.5515 3.3125 12.6453 3.3125 12.7426V13.5773C3.3125 13.688 3.34938 13.7584 3.42313 13.8321C3.46001 13.9059 3.57064 13.9427 3.67792 13.9427Z" fill="#435363"/>
</g>
<g id="Group_12">
<path id="Vector_5" d="M17.7861 21.0868C17.7861 21.0131 17.7492 20.9427 17.7124 20.8689L17.0586 19.2028L16.9145 18.8038C16.6228 18.0797 16.2976 17.4628 15.9355 16.9901C15.5735 16.5174 15.2114 16.1554 14.8125 15.9006C14.4102 15.6458 13.971 15.4614 13.505 15.3541C13.0357 15.2435 12.563 15.21 12.0199 15.21C11.8388 15.21 11.584 15.21 11.2957 15.2468C11.0041 15.2837 10.7493 15.3206 10.5347 15.3575C10.4543 15.3776 10.3805 15.4145 10.3168 15.4681C10.2732 15.5184 10.2464 15.5821 10.2431 15.6491V16.3029C10.2431 16.4839 10.3537 16.5577 10.6051 16.5208C10.6789 16.5208 10.7861 16.5208 10.8968 16.4839C11.0074 16.4839 11.1147 16.4839 11.2253 16.447C11.336 16.447 11.4432 16.447 11.5136 16.4101H11.6947C12.6736 16.4101 13.4715 16.5912 14.0146 16.9901C14.5946 17.3891 15.0304 17.969 15.3924 18.7669L15.7545 19.6017L16.3345 20.9427H4.62096V16.2995C4.62096 16.2258 4.58408 16.1554 4.5472 16.0816C4.51033 16.0112 4.43657 16.0112 4.36617 16.0112H3.60516C3.52805 16.0179 3.4543 16.0447 3.38725 16.085C3.34702 16.152 3.32355 16.2258 3.3135 16.3029V23.2659C3.3135 23.628 3.27662 23.8828 3.23974 24.1007C3.20957 24.2918 3.10564 24.4594 2.94808 24.5734C2.78716 24.6874 2.59942 24.7645 2.40497 24.7913C2.18706 24.8282 1.89875 24.8282 1.57021 24.8282H1.24167C1.06064 24.8282 0.990234 24.9019 0.990234 25.0461V25.7334C0.990234 25.8071 0.990235 25.8775 1.02711 25.9144C1.06399 25.9513 1.13774 25.9881 1.24502 25.9881C1.31877 25.9513 1.46293 25.9513 1.64396 25.9881H1.97251C2.58936 25.9881 3.06206 25.9144 3.42413 25.7702C3.78619 25.6261 4.07786 25.3713 4.29242 25.0092C4.40305 24.7913 4.47345 24.5365 4.51033 24.2851C4.5472 23.9934 4.58408 23.7051 4.58408 23.3431V22.3273H17.3168C17.4978 22.3273 17.6051 22.2904 17.6788 22.2166C17.7526 22.1429 17.7895 22.0725 17.7895 21.9283V21.3483C17.823 21.2612 17.823 21.1673 17.7861 21.0868Z" fill="#435363"/>
</g>
</g>
<g id="Group_13">
<g id="Group_14">
<path id="Vector_6" d="M23.2268 13.9427H23.914C24.0246 13.9427 24.095 13.9059 24.1688 13.8321C24.2392 13.7684 24.2794 13.6746 24.2794 13.5773V12.7426C24.2828 12.6453 24.2425 12.5548 24.1688 12.4878C24.1051 12.4174 24.0112 12.3771 23.914 12.3771H23.2268C23.1295 12.3738 23.039 12.414 22.972 12.4878C22.9016 12.5515 22.8613 12.6453 22.8613 12.7426V13.5773C22.8613 13.688 22.8982 13.7584 22.972 13.8321C23.0457 13.9059 23.1195 13.9427 23.2268 13.9427Z" fill="#435363"/>
</g>
<g id="Group_15">
<path id="Vector_7" d="M24.2789 17.1712C24.2789 16.9165 24.2789 16.6248 24.242 16.2661C24.242 16.1923 24.2052 16.1219 24.1683 16.0482C24.1314 15.9744 24.0577 15.9744 23.9504 15.9744H23.1894C23.1223 15.9744 23.0586 16.0012 23.0083 16.0482C22.9681 16.1152 22.9446 16.189 22.9346 16.2661C22.9346 16.665 22.9715 17.064 22.9715 17.3892V20.4365C22.9715 20.6913 22.9346 20.8724 22.8608 20.9092C22.7871 20.9461 22.5692 20.983 22.2808 20.983H21.8115C21.6305 20.983 21.483 20.983 21.3757 20.9461C21.2617 20.9227 21.1544 20.8858 21.0471 20.8355C20.9734 20.7617 20.903 20.6913 20.8292 20.5472C20.7789 20.3829 20.7555 20.2119 20.7555 20.0376V11.2944C20.7488 11.2173 20.7219 11.1435 20.6817 11.0765C20.608 11.0027 20.5711 10.9658 20.4638 10.9658H19.7028C19.629 10.9658 19.5586 11.0027 19.4849 11.0765C19.4111 11.1502 19.4111 11.2206 19.4111 11.2944V20.3226C19.4111 20.7215 19.448 21.0467 19.5553 21.3015C19.629 21.5563 19.7732 21.7373 19.9542 21.9183C20.1353 22.0625 20.3532 22.1731 20.6046 22.2469C20.6784 22.2838 20.7856 22.2838 20.8963 22.2838C21.0069 22.3206 21.0773 22.3206 21.2248 22.3206H22.4921C22.6731 22.3206 22.891 22.3206 23.072 22.2838C23.2531 22.2838 23.4341 22.2469 23.5816 22.2469C23.6956 22.2502 23.8062 22.2234 23.9101 22.1731C24.0174 22.1362 24.1281 22.0625 24.1616 21.9921C24.1985 21.9183 24.2353 21.8111 24.2722 21.7373C24.3091 21.4825 24.3091 21.1573 24.346 20.7215V19.3068V18.5089V17.8551C24.3158 17.6406 24.3158 17.3858 24.2789 17.1712Z" fill="#435363"/>
</g>
</g>
</g>
<g id="Group_16">
<g id="Group_17">
<path id="Vector_8" d="M7.59144 35.2309C7.59144 35.3046 7.55456 35.375 7.4808 35.4488C7.40705 35.5192 7.33665 35.5594 7.26289 35.5594H6.50188C6.42813 35.5594 6.35773 35.5225 6.28397 35.4488C6.21022 35.375 6.17334 35.3046 6.17334 35.2309V30.0446C6.17334 29.6457 6.13647 29.3171 6.06271 29.0657C5.99231 28.8109 5.88168 28.593 5.73752 28.4488C5.58331 28.298 5.39892 28.1873 5.19442 28.1203C4.94969 28.0432 4.69155 28.0063 4.43341 28.0097C4.10487 28.0097 3.7428 28.0834 3.38074 28.1907C3.01867 28.3013 2.6566 28.4455 2.29118 28.6265V35.2644C2.29118 35.3382 2.25431 35.4086 2.18055 35.4823C2.1068 35.5561 2.03639 35.5929 1.96264 35.5929H1.27539C1.20163 35.5929 1.13123 35.5561 1.05747 35.4823C0.987072 35.3717 0.950195 35.3013 0.950195 35.2275V27.2118C0.9569 27.1347 0.98372 27.0609 1.02395 26.9939C1.0977 26.9235 1.13458 26.8866 1.24186 26.8866H2.03975C2.1135 26.8866 2.1839 26.9235 2.25766 26.9972C2.33141 27.071 2.33141 27.1414 2.33141 27.2151V27.5034C2.76723 27.2486 3.16618 27.0676 3.56512 26.9603C3.92719 26.8497 4.36301 26.7793 4.83571 26.7793C5.77775 26.7793 6.46836 27.071 6.90418 27.6141C7.34 28.194 7.55791 28.9919 7.55791 30.0446V35.2309H7.59144Z" fill="#435363"/>
</g>
<g id="Group_18">
<path id="Vector_9" d="M14.3416 33.8526C13.9796 34.0705 13.6141 34.2147 13.2889 34.3253C12.9604 34.4359 12.5983 34.4694 12.2363 34.4694C11.8005 34.4694 11.4384 34.3588 11.1836 34.1778C10.9288 33.9967 10.8215 33.6347 10.8215 33.0547V32.8737C10.8215 32.582 10.8584 32.3272 10.9322 32.1462C11.0059 31.9651 11.1132 31.7841 11.2942 31.6768C11.4753 31.5662 11.6932 31.4958 12.0184 31.422C12.4039 31.3751 12.7894 31.3483 13.1783 31.3483H14.3383L14.3416 33.8526ZM15.7195 35.2305L15.6826 29.7559C15.6826 28.8138 15.4278 28.0863 14.9585 27.5801C14.4891 27.0337 13.6912 26.7822 12.6017 26.7822C12.0586 26.7822 11.5859 26.8191 11.2238 26.856C10.8618 26.8929 10.4963 26.9666 10.1712 27.0001C9.95324 27.037 9.84261 27.1108 9.84261 27.2918V27.8349C9.84261 27.9455 9.84261 28.0159 9.91636 28.0528C9.95324 28.0897 10.027 28.0897 10.0974 28.0897H10.1712C10.4997 28.0897 10.8249 28.0528 11.2238 28.0159C11.5859 27.9791 12.0586 27.9791 12.5648 27.9791C13.1817 27.9791 13.6175 28.1232 13.8689 28.378C14.1237 28.6328 14.231 29.1021 14.231 29.7559V30.3727H13.071C12.3804 30.3727 11.7636 30.4096 11.2942 30.5169C10.8215 30.6275 10.4226 30.7717 10.1343 30.9896C9.84596 31.2075 9.62805 31.4623 9.48389 31.7875C9.36321 32.1495 9.29951 32.5284 9.30286 32.9105V33.0916C9.30286 33.6012 9.37662 33.9967 9.52077 34.3253C9.66493 34.6505 9.88284 34.9421 10.1007 35.1232C10.3555 35.3042 10.607 35.4517 10.9355 35.5221C11.2607 35.5959 11.5859 35.6327 11.9144 35.6327C12.3871 35.6327 12.7827 35.559 13.1817 35.4148C13.5806 35.2707 13.9796 35.0896 14.3416 34.8717V35.2338C14.3416 35.3076 14.3785 35.378 14.4523 35.4517C14.526 35.5221 14.5964 35.5623 14.6702 35.5623H15.3943C15.4681 35.5623 15.5385 35.5255 15.6122 35.4517C15.6826 35.3746 15.7195 35.3042 15.7195 35.2305Z" fill="#435363"/>
</g>
<g id="Group_19">
<path id="Vector_10" d="M19.2725 35.4491C19.2725 35.848 19.2356 36.2101 19.1284 36.4649C19.0513 36.7029 18.9272 36.9275 18.7663 37.1186C18.5987 37.2896 18.3841 37.4035 18.1494 37.4471C17.8779 37.5209 17.5963 37.5578 17.3147 37.5578H16.8789C16.7682 37.5578 16.6241 37.5209 16.443 37.5209C16.262 37.484 16.1514 37.4103 16.1514 37.2661V36.6861C16.1514 36.542 16.262 36.4682 16.4799 36.4682H17.1336C17.422 36.4682 17.6399 36.3945 17.7136 36.2872C17.8243 36.1765 17.8578 35.8882 17.8578 35.4893V27.2221C17.8578 27.1483 17.8947 27.0779 17.9315 27.0042C17.9684 26.9304 18.0422 26.8936 18.1494 26.8936H18.9842C19.058 26.8936 19.1284 26.9304 19.2021 27.0042C19.2423 27.0712 19.2658 27.145 19.2759 27.2221V35.4491H19.2725Z" fill="#435363"/>
</g>
<g id="Group_20">
<path id="Vector_11" d="M23.1173 35.2306C23.1173 35.3043 23.0804 35.3748 23.0067 35.4485C22.9329 35.5189 22.8625 35.5591 22.7888 35.5591H22.0278C21.954 35.5591 21.8836 35.5223 21.8099 35.4485C21.7361 35.3748 21.6992 35.3043 21.6992 35.2306V27.2148C21.6992 27.1411 21.7361 27.0707 21.8099 26.9969C21.8836 26.9265 21.954 26.8896 22.0278 26.8896H22.7888C22.8625 26.8896 22.9329 26.9265 23.0067 27.0003C23.0804 27.074 23.1173 27.1444 23.1173 27.2182V35.2306Z" fill="#435363"/>
</g>
<g id="Group_21">
<path id="Vector_12" d="M31.3113 35.2312C31.3113 35.305 31.2744 35.3754 31.2007 35.4492C31.1269 35.5196 31.0565 35.5598 30.9828 35.5598H26.2692C25.9407 35.5598 25.6892 35.486 25.5451 35.305C25.4043 35.1441 25.3271 34.9362 25.3271 34.725V34.4334C25.3271 34.2155 25.364 34.0344 25.4009 33.8903C25.4378 33.7461 25.5451 33.602 25.6926 33.4209L29.7558 28.3788C29.7926 28.305 29.8262 28.2682 29.8262 28.2346C29.8262 28.1609 29.7893 28.124 29.682 28.124H25.7998C25.7261 28.124 25.6557 28.0871 25.5819 28.0134C25.5115 27.943 25.4747 27.8692 25.4747 27.7955V27.2524C25.4747 27.1786 25.5115 27.1082 25.5853 27.0345C25.659 26.9607 25.7294 26.9238 25.8032 26.9238H30.4095C30.738 26.9238 30.9526 26.9976 31.0968 27.1417C31.2409 27.2859 31.2778 27.4703 31.2778 27.7217V28.0838C31.2778 28.2648 31.2409 28.4123 31.204 28.5196C31.1303 28.6671 31.0331 28.8046 30.9124 28.9185L26.8156 34.0679C26.7687 34.1182 26.7452 34.1819 26.7419 34.249C26.7419 34.3227 26.7788 34.3596 26.8525 34.3596H30.9861C31.0599 34.3596 31.1303 34.3965 31.204 34.4702C31.2744 34.544 31.3113 34.6144 31.3113 34.6881V35.2312Z" fill="#435363"/>
</g>
</g>
<g id="Group_22">
<g id="Group_23">
<g id="Group_24">
<path id="Vector_13" d="M17.8594 24.134C17.8594 24.0233 17.8963 23.9529 17.97 23.8792C18.0337 23.8088 18.1276 23.7686 18.2248 23.7686H18.9121C19.0227 23.7686 19.0931 23.8054 19.1668 23.8792C19.2406 23.9529 19.2775 24.0233 19.2775 24.134V24.9687C19.2775 25.0425 19.2406 25.1129 19.1668 25.1866C19.1031 25.257 19.0093 25.2973 18.9121 25.2973H18.2248C18.1276 25.3006 18.0337 25.2604 17.97 25.1866C17.8963 25.1129 17.8594 25.0425 17.8594 24.9687V24.134Z" fill="#00AD68"/>
</g>
<g id="Group_25">
<path id="Vector_14" d="M21.7383 24.134C21.7383 24.0233 21.7752 23.9529 21.8489 23.8792C21.9126 23.8088 22.0065 23.7686 22.1037 23.7686H22.7943C22.9049 23.7686 22.9753 23.8054 23.0491 23.8792C23.1229 23.9529 23.1597 24.0233 23.1597 24.134V24.9687C23.1597 25.0425 23.1229 25.1129 23.0491 25.1866C22.9854 25.257 22.8915 25.2973 22.7943 25.2973H22.1037C22.0065 25.3006 21.916 25.2604 21.8489 25.1866C21.7752 25.1129 21.7383 25.0425 21.7383 24.9687V24.134Z" fill="#F6B221"/>
</g>
</g>
<g id="Group_26">
<g id="Group_27">
<path id="Vector_15" d="M14.0137 24.134C14.0137 24.0233 14.0505 23.9529 14.1243 23.8792C14.188 23.8088 14.2819 23.7686 14.3791 23.7686H15.0663C15.177 23.7686 15.2474 23.8054 15.3211 23.8792C15.3949 23.9529 15.4318 24.0233 15.4318 24.134V24.9687C15.4318 25.0425 15.3949 25.1129 15.3211 25.1866C15.2574 25.257 15.1636 25.2973 15.0663 25.2973H14.3791C14.2819 25.3006 14.1914 25.2604 14.1243 25.1866C14.0505 25.1129 14.0137 25.0425 14.0137 24.9687V24.134Z" fill="#007166"/>
</g>
</g>
</g>
<g id="Group_28">
<path id="Vector_16" d="M23.1183 35.2306C23.1183 35.3043 23.0814 35.3748 23.0077 35.4485C22.9339 35.5189 22.8635 35.5591 22.7897 35.5591H22.0287C21.955 35.5591 21.8846 35.5223 21.8108 35.4485C21.7371 35.3748 21.7002 35.3043 21.7002 35.2306V27.2148C21.7002 27.1411 21.7371 27.0707 21.8108 26.9969C21.8846 26.9265 21.955 26.8896 22.0287 26.8896H22.7897C22.8635 26.8896 22.9339 26.9265 23.0077 27.0003C23.0814 27.074 23.1183 27.1444 23.1183 27.2182V35.2306Z" fill="#435363"/>
</g>
</g>
<g id="Group_29">
<g id="Group_30">
<path id="Vector_17" d="M1.53971 38.7843L1.72074 38.8212C1.75762 38.8212 1.75762 38.8212 1.75762 38.7843V38.6033C1.75762 38.5664 1.75762 38.5664 1.72074 38.5664H1.57658C1.53971 38.5664 1.53971 38.5664 1.53971 38.6033V38.7843C1.53971 38.8212 1.53971 38.8212 1.53971 38.7843ZM1.10388 38.7843L1.3218 38.8212C1.35867 38.8212 1.35867 38.8212 1.35867 38.7843V38.6033C1.35867 38.5664 1.35867 38.5664 1.3218 38.5664H1.14076C1.10388 38.5664 1.10388 38.5664 1.10388 38.6033V38.7843C1.10388 38.8212 1.10388 38.8212 1.10388 38.7843ZM1.03013 40.0884V39.8336C1.03013 39.6157 1.24804 39.3978 1.46595 39.3978C1.68386 39.3978 1.90177 39.5789 1.90177 39.8336V40.5243H1.46595C1.24804 40.5243 1.03013 40.3063 1.03013 40.0884ZM2.66278 40.5243H2.15656V39.8336C2.15656 39.6526 2.04593 39.5051 1.93865 39.3609C1.82466 39.2201 1.65034 39.1363 1.46595 39.143C1.28492 39.143 1.14076 39.2537 0.996606 39.3609C0.855802 39.4749 0.77199 39.6493 0.778695 39.8336V40.0884C0.778695 40.2695 0.889327 40.417 0.996606 40.5611C1.11059 40.7019 1.28492 40.7824 1.46595 40.779H2.69966L2.66278 40.5243Z" fill="#8E9090"/>
</g>
<g id="Group_31">
<path id="Vector_18" d="M3.46017 41.0707H3.31602C3.27914 41.0707 3.27914 41.0707 3.27914 41.1076V41.2886C3.27914 41.3255 3.27914 41.3255 3.31602 41.3255H3.46017C3.49705 41.3255 3.49705 41.3255 3.49705 41.2886V41.1076C3.49705 41.1042 3.49705 41.0707 3.46017 41.0707ZM3.02435 41.0707H2.84332C2.80644 41.0707 2.80644 41.0707 2.80644 41.1076V41.2886C2.80644 41.3255 2.80644 41.3255 2.84332 41.3255H3.02435C3.06123 41.3255 3.06123 41.3255 3.06123 41.2886V41.1076C3.06123 41.1042 3.06123 41.0707 3.02435 41.0707ZM3.17186 40.3432C3.17186 40.4539 3.13498 40.5243 3.02771 40.5243H2.52148V40.779H2.99418C3.10481 40.779 3.21209 40.7422 3.28585 40.6684C3.3596 40.7422 3.50376 40.779 3.64791 40.779H3.75854V40.5243H3.60433C3.53058 40.5243 3.46017 40.5243 3.4233 40.4874C3.38642 40.4874 3.38642 40.4505 3.38642 40.4136V39.2537C3.38642 39.2168 3.38642 39.2168 3.34954 39.2168H3.20539C3.16851 39.2168 3.16851 39.2168 3.16851 39.2537V40.3432H3.17186Z" fill="#8E9090"/>
</g>
<g id="Group_32">
<path id="Vector_19" d="M4.58625 38.567H4.4421C4.40522 38.567 4.40522 38.567 4.40522 38.6039V38.7849C4.40522 38.8218 4.40522 38.8218 4.4421 38.8218H4.58625C4.62313 38.8218 4.62313 38.8218 4.62313 38.7849V38.6039C4.61978 38.567 4.61978 38.5302 4.58625 38.567ZM4.36499 40.3438C4.36499 40.488 4.32811 40.5249 4.22084 40.488H3.67773V40.7428H4.18731C4.4421 40.7428 4.62313 40.5986 4.62313 40.3438V39.2543C4.62313 39.2174 4.62313 39.2174 4.58625 39.2174H4.40522C4.36834 39.2174 4.36834 39.2174 4.36834 39.2543L4.36499 40.3438Z" fill="#8E9090"/>
</g>
<g id="Group_33">
<path id="Vector_20" d="M5.27493 40.0889V39.8341C5.27493 39.6162 5.49283 39.3983 5.71075 39.3983C5.92866 39.3983 6.14657 39.5793 6.14657 39.8341V40.5247H5.71075C5.49283 40.5281 5.27493 40.3068 5.27493 40.0889ZM6.18344 40.8164C6.18344 41.0343 6.00241 41.2153 5.7845 41.2153H5.45596C5.41908 41.2153 5.41908 41.2153 5.41908 41.2522V41.3964C5.41908 41.4332 5.41908 41.4332 5.45596 41.4332H5.7845C5.96553 41.4332 6.10969 41.3964 6.25385 41.2522C6.37118 41.1382 6.43823 40.9807 6.43488 40.8164V39.8375C6.43488 39.6564 6.32425 39.5089 6.21697 39.3648C6.10299 39.224 5.92866 39.1402 5.74427 39.1469C5.56324 39.1469 5.41908 39.2575 5.27493 39.3648C5.13412 39.4788 5.05031 39.6531 5.05701 39.8375V40.0923C5.05701 40.2733 5.16765 40.4208 5.27493 40.565C5.38891 40.7058 5.56324 40.7862 5.74427 40.7829L6.18344 40.8164Z" fill="#8E9090"/>
</g>
<g id="Group_34">
<path id="Vector_21" d="M7.08825 40.8902V39.2576C7.08825 39.2207 7.08825 39.2207 7.12513 39.2207H7.26929C7.30616 39.2207 7.30616 39.2207 7.30616 39.2576V40.5282H7.85262V40.783H7.34304V40.8936C7.34304 41.2556 7.12513 41.4367 6.79994 41.4367H6.61891C6.58203 41.4367 6.58203 41.4367 6.58203 41.3998V41.2556C6.58203 41.2188 6.58203 41.2188 6.61891 41.2188H6.76306C6.98097 41.2154 7.08825 41.1048 7.08825 40.8902Z" fill="#8E9090"/>
</g>
<g id="Group_35">
<path id="Vector_22" d="M8.64787 38.8212H8.79202C8.8289 38.8212 8.8289 38.8212 8.8289 38.7843V38.6033C8.8289 38.5664 8.8289 38.5664 8.79202 38.5664H8.64787C8.61099 38.5664 8.61099 38.5664 8.61099 38.6033V38.7843C8.61099 38.8212 8.64787 38.8212 8.64787 38.8212ZM8.21204 38.8212H8.39308C8.42995 38.8212 8.42995 38.8212 8.42995 38.7843V38.6033C8.42995 38.5664 8.42995 38.5664 8.39308 38.5664H8.21204C8.17517 38.5664 8.17517 38.5664 8.17517 38.6033V38.7843C8.17852 38.8212 8.21204 38.8212 8.21204 38.8212ZM8.39308 40.3432C8.39308 40.4538 8.3562 40.5243 8.24892 40.5243H7.66895V40.779H8.2154C8.32603 40.779 8.43331 40.7422 8.50371 40.6684C8.57746 40.7422 8.72162 40.779 8.86578 40.779H8.97641V40.5243H8.83225C8.7585 40.5243 8.6881 40.5243 8.65122 40.4874C8.61434 40.4874 8.61434 40.4505 8.61434 40.4136V39.2537C8.61434 39.2168 8.61434 39.2168 8.57746 39.2168H8.43331C8.39643 39.2168 8.39643 39.2168 8.39643 39.2537V40.3432H8.39308Z" fill="#8E9090"/>
</g>
<g id="Group_36">
<path id="Vector_23" d="M10.2053 38.5293H10.4601C10.497 38.5293 10.497 38.5293 10.497 38.5662V38.7103C10.497 38.7472 10.497 38.7472 10.4601 38.7472H10.2053C9.87675 38.7472 9.65884 38.9282 9.62531 39.2937H10.2422C10.4601 39.2937 10.6411 39.3641 10.7517 39.5116C10.8624 39.6557 10.9697 39.8401 10.9697 40.0547V40.4167C10.9697 40.4536 10.9697 40.4905 11.0065 40.4905C11.0434 40.5274 11.1172 40.5274 11.1876 40.5274H11.3686V40.7822H11.2244C11.0803 40.7822 10.9361 40.7453 10.8624 40.6715C10.7786 40.762 10.6612 40.8123 10.5372 40.8157H8.94141V40.5609H10.5372C10.6478 40.5609 10.7182 40.4871 10.7182 40.3799V40.0882C10.7182 39.7999 10.5372 39.582 10.2455 39.582H9.52138C9.44763 39.582 9.41075 39.5082 9.41075 39.4713C9.37388 38.8914 9.66219 38.5293 10.2053 38.5293Z" fill="#8E9090"/>
</g>
<g id="Group_37">
<path id="Vector_24" d="M11.8019 40.3433V38.4558C11.8019 38.4189 11.8019 38.4189 11.8388 38.4189H11.9829C12.0198 38.4189 12.0198 38.4189 12.0198 38.4558V40.3433C12.0198 40.598 11.8388 40.7422 11.6209 40.7422H11.2588V40.4874H11.6209C11.765 40.5276 11.8019 40.4539 11.8019 40.3433Z" fill="#8E9090"/>
</g>
<g id="Group_38">
<path id="Vector_25" d="M12.9607 40.1992L13.1418 40.2361C13.1787 40.2361 13.1787 40.2361 13.1787 40.1992V38.7141C13.1787 38.6772 13.1787 38.6772 13.1418 38.6772H12.9976C12.9607 38.6772 12.9607 38.6772 12.9607 38.7141V40.1992C12.9607 40.273 12.9607 40.2361 12.9607 40.1992ZM13.0345 41.2519C13.0345 41.1782 13.0714 41.1413 13.1451 41.1078C13.182 41.1078 13.2189 41.1446 13.2558 41.1815V41.2184C13.2558 41.2553 13.2926 41.2553 13.2926 41.2553L13.3664 41.2184C13.4033 41.2184 13.4033 41.1815 13.4033 41.1815V41.1446C13.3664 41.034 13.2926 41.0005 13.1854 41.0005C13.0479 40.9971 12.9339 41.1044 12.9306 41.2419C12.9306 41.2452 12.9306 41.2519 12.9306 41.2553V41.4363H12.8199C12.7831 41.4363 12.7831 41.4363 12.7831 41.4732V41.5469C12.7831 41.5838 12.7831 41.5838 12.8199 41.5838H13.363C13.3999 41.5838 13.3999 41.5838 13.3999 41.5469V41.4732C13.3999 41.4363 13.3999 41.4363 13.363 41.4363H13.0345V41.2519ZM13.7955 40.1992C13.7955 40.4172 13.6849 40.5278 13.467 40.5278H12.488C12.4512 40.5278 12.4512 40.5278 12.4512 40.5647V40.7088C12.4512 40.7457 12.4512 40.7457 12.488 40.7457H13.467C13.7955 40.7457 14.0101 40.5647 14.0101 40.2026V38.4627C14.0101 38.4258 14.0101 38.4258 13.9732 38.4258H13.829C13.7922 38.4258 13.7922 38.4258 13.7922 38.4627V40.1992H13.7955Z" fill="#8E9090"/>
</g>
<g id="Group_39">
<path id="Vector_26" d="M14.7406 40.7791H14.5964C14.5596 40.7791 14.5596 40.7791 14.5596 40.7422V38.4558C14.5596 38.4189 14.5596 38.4189 14.5964 38.4189H14.7406C14.7775 38.4189 14.7775 38.4189 14.7775 38.4558L14.7406 40.7791C14.7741 40.7791 14.7741 40.7422 14.7406 40.7791Z" fill="#8E9090"/>
</g>
<g id="Group_40">
<path id="Vector_27" d="M16.7353 38.7843C16.7353 38.8212 16.7721 38.8212 16.7353 38.7843L16.9163 38.8212C16.9532 38.8212 16.9532 38.8212 16.9532 38.7843V38.6033C16.9532 38.5664 16.9532 38.5664 16.9163 38.5664H16.7721C16.7353 38.5664 16.7353 38.5664 16.7353 38.6033V38.7843ZM16.2994 38.7843L16.5173 38.8212C16.5542 38.8212 16.5542 38.8212 16.5542 38.7843V38.6033C16.5542 38.5664 16.5542 38.5664 16.5173 38.5664H16.3363C16.2994 38.5664 16.2994 38.5664 16.2994 38.6033V38.7843C16.3363 38.8212 16.2994 38.8212 16.2994 38.7843ZM16.2626 40.0884V39.8336C16.2626 39.6157 16.4436 39.3978 16.6984 39.3978C16.9163 39.3978 17.1342 39.5789 17.1342 39.8336V40.5243H16.6984C16.457 40.5243 16.2659 40.3298 16.2626 40.0884ZM17.8952 40.5276H17.389V39.837C17.389 39.656 17.3152 39.5085 17.1711 39.3643C17.0571 39.2235 16.8828 39.1397 16.6984 39.1464C16.5173 39.1464 16.3698 39.257 16.229 39.3643C16.0882 39.4783 16.0044 39.6526 16.0111 39.837V40.0918C16.0111 40.2728 16.1217 40.4203 16.229 40.5645C16.343 40.7053 16.5173 40.7857 16.6984 40.7824H17.8952V40.5276Z" fill="#8E9090"/>
</g>
<g id="Group_41">
<path id="Vector_28" d="M18.5477 41.0707C18.5108 41.0707 18.5108 41.0707 18.5108 41.1076V41.2886C18.5108 41.3255 18.5108 41.3255 18.5477 41.3255H18.6918C18.7287 41.3255 18.7287 41.3255 18.7287 41.2886V41.1076L18.5477 41.0707ZM18.0783 41.0707C18.0414 41.0707 18.0414 41.0707 18.0414 41.1076V41.2886C18.0414 41.3255 18.0414 41.3255 18.0783 41.3255H18.2593C18.2962 41.3255 18.2962 41.3255 18.2962 41.2886V41.1076L18.0783 41.0707ZM18.4035 40.3432C18.4035 40.4539 18.3666 40.5243 18.2225 40.5243H17.7129V40.779H18.2225C18.3331 40.779 18.4404 40.7422 18.5108 40.6684C18.5845 40.7422 18.7287 40.779 18.8728 40.779H18.9835V40.5243H18.8393C18.7656 40.5243 18.6952 40.5243 18.6583 40.4874C18.6214 40.4874 18.6214 40.4505 18.6214 40.4136V39.2537C18.6214 39.2168 18.6214 39.2168 18.5845 39.2168H18.4404C18.4035 39.2168 18.4035 39.2168 18.4035 39.2537V40.3432Z" fill="#8E9090"/>
</g>
<g id="Group_42">
<path id="Vector_29" d="M19.4933 40.3433V38.4558C19.4933 38.4189 19.4933 38.4189 19.5302 38.4189H19.6743C19.7112 38.4189 19.7112 38.4189 19.7112 38.4558V40.3433C19.7112 40.598 19.5302 40.7422 19.3123 40.7422H18.9502V40.4874H19.3123C19.4564 40.5276 19.4933 40.4539 19.4933 40.3433Z" fill="#8E9090"/>
</g>
<g id="Group_43">
<path id="Vector_30" d="M21.6682 40.5248H21.8123V40.7795H21.7017C21.5576 40.7795 21.4469 40.7427 21.3765 40.6354L21.3396 40.5985C21.2257 40.7158 21.0681 40.7795 20.9038 40.7795H20.2166C20.1797 40.7795 20.1797 40.7795 20.1797 40.7427V40.5985C20.1797 40.5616 20.1797 40.5616 20.2166 40.5616H20.9038C21.1217 40.5616 21.2324 40.4879 21.2324 40.27V39.7637C21.219 39.5693 21.0647 39.4151 20.8703 39.4017C20.7563 39.3983 20.6457 39.4251 20.5418 39.4754L20.468 39.5123H20.3942L20.3205 39.4017V39.3648C20.3205 39.3648 20.3205 39.3279 20.3574 39.3279L20.4311 39.291C20.5619 39.2139 20.7127 39.1737 20.8669 39.1804C21.0111 39.1804 21.1553 39.2542 21.3028 39.3614C21.4134 39.4721 21.4838 39.6162 21.4838 39.7604V40.3772C21.4503 40.4544 21.5576 40.5281 21.6682 40.5248Z" fill="#8E9090"/>
</g>
<g id="Group_44">
<path id="Vector_31" d="M22.6105 39.5115C22.6943 39.421 22.8116 39.3673 22.9357 39.3673C23.0463 39.3673 23.1536 39.4042 23.2642 39.478C23.3748 39.5886 23.4452 39.659 23.4452 39.7696L23.0832 40.5306H22.7949L22.4328 39.7663C22.4663 39.6925 22.5367 39.5819 22.6105 39.5115ZM24.0621 40.7787V40.4904H23.3715L23.7 39.8031V39.7663C23.6564 39.5986 23.5693 39.4478 23.4452 39.3305C23.3011 39.2165 23.1234 39.1561 22.939 39.1494C22.7479 39.1528 22.5635 39.2299 22.4294 39.3673C22.2853 39.5115 22.2115 39.6188 22.1747 39.8031V39.84L22.5032 40.5306H21.7422V40.7854H23.9917L24.0621 40.7787Z" fill="#8E9090"/>
</g>
<g id="Group_45">
<path id="Vector_32" d="M24.4611 40.3433V38.4558C24.4611 38.4189 24.4611 38.4189 24.4979 38.4189H24.6421C24.679 38.4189 24.679 38.4189 24.679 38.4558V40.3433C24.679 40.598 24.4979 40.7422 24.28 40.7422H23.918V40.4874H24.28C24.3873 40.5276 24.4611 40.4539 24.4611 40.3433Z" fill="#8E9090"/>
</g>
<g id="Group_46">
<path id="Vector_33" d="M25.4017 40.7791H25.2576C25.2207 40.7791 25.2207 40.7791 25.2207 40.7422V38.4558C25.2207 38.4189 25.2207 38.4189 25.2576 38.4189H25.4017C25.4386 38.4189 25.4386 38.4189 25.4386 38.4558L25.4017 40.7791C25.4386 40.7791 25.4386 40.7422 25.4017 40.7791Z" fill="#8E9090"/>
</g>
<g id="Group_47">
<path id="Vector_34" d="M28.0515 39.0763L28.2694 39.1132C28.3062 39.1132 28.3062 39.1132 28.3062 39.0763V38.8953C28.3062 38.8584 28.3062 38.8584 28.2694 38.8584H28.0883C28.0515 38.8584 28.0515 38.8584 28.0515 38.8953V39.0763ZM27.6156 39.0763L27.7967 39.1132C27.8335 39.1132 27.8335 39.1132 27.8335 39.0763V38.8953C27.8335 38.8584 27.8335 38.8584 27.7967 38.8584H27.6525C27.6156 38.8584 27.6156 38.8584 27.6156 38.8953V39.0763ZM28.7052 40.3435C28.7052 40.4877 28.6314 40.5246 28.5242 40.5246H27.3642C27.1061 40.5212 26.8982 40.31 26.8949 40.0519C26.8949 39.834 27.0055 39.6898 27.1496 39.6161L27.2234 39.5792C27.2603 39.5792 27.2603 39.5792 27.2603 39.5423L27.1865 39.3981C27.1865 39.3613 27.1865 39.3613 27.1496 39.3613H27.1128L27.039 39.3981C26.9284 39.435 26.8211 39.5423 26.7474 39.6529C26.6736 39.7602 26.6367 39.8876 26.6367 40.015C26.6367 40.2329 26.7105 40.3771 26.8546 40.5246C26.9988 40.6687 27.1832 40.7425 27.3609 40.7425H28.5208C28.7387 40.7425 28.9197 40.5983 28.9197 40.3435V39.254C28.9197 39.2171 28.9197 39.2171 28.8829 39.2171H28.7387C28.7018 39.2171 28.7018 39.2171 28.7018 39.254C28.7052 39.2573 28.7052 40.3435 28.7052 40.3435Z" fill="#8E9090"/>
</g>
<g id="Group_48">
<path id="Vector_35" d="M29.8638 40.5241H30.0079V40.7789H29.8638C29.609 40.7789 29.4648 40.6347 29.4648 40.3799V38.4959C29.4648 38.459 29.4648 38.459 29.5017 38.459H29.6459C29.6828 38.459 29.6828 38.459 29.6828 38.4959V40.3799C29.6828 40.4906 29.7532 40.5275 29.8638 40.5241Z" fill="#8E9090"/>
</g>
<g id="Group_49">
<path id="Vector_36" d="M31.1686 40.5243H30.7328V39.8371C30.7328 39.6192 30.9138 39.4013 31.1686 39.4013C31.3865 39.4013 31.6044 39.5823 31.6044 39.8371V40.0919C31.6044 40.3064 31.4234 40.5277 31.1686 40.5243ZM31.6413 39.3644C31.5307 39.2202 31.3161 39.1465 31.1351 39.1465C30.954 39.1465 30.8065 39.2571 30.6624 39.3644C30.5216 39.4784 30.4411 39.6527 30.4445 39.8337V40.5243H29.9014V40.7791H31.1351C31.353 40.7791 31.4971 40.6685 31.6413 40.5612C31.7821 40.4472 31.8659 40.2729 31.8592 40.0885V39.8337C31.8592 39.6561 31.7855 39.5085 31.6413 39.3644Z" fill="#8E9090"/>
</g>
<g id="Group_50">
<path id="Vector_37" d="M33.818 40.5248H33.9622V40.7795H33.8515C33.7074 40.7795 33.5968 40.7427 33.523 40.6354L33.4861 40.5985C33.3721 40.7158 33.2146 40.7829 33.0503 40.7795H32.363C32.3262 40.7795 32.3262 40.7795 32.3262 40.7427V40.5985C32.3262 40.5616 32.3262 40.5616 32.363 40.5616H33.0537C33.2716 40.5616 33.3822 40.4879 33.3822 40.27V39.7637C33.3688 39.5693 33.2146 39.4151 33.0201 39.4017C32.9061 39.3983 32.7955 39.4251 32.6916 39.4754L32.6212 39.5123H32.5474L32.4737 39.4017V39.3648C32.4737 39.3648 32.4737 39.3279 32.5106 39.3279L32.5843 39.291C32.7151 39.2139 32.8659 39.1737 33.0201 39.1804C33.1643 39.1804 33.3084 39.2542 33.456 39.3614C33.5666 39.4721 33.637 39.6162 33.637 39.7604V40.3772C33.6001 40.4544 33.6739 40.5281 33.818 40.5248Z" fill="#8E9090"/>
</g>
<g id="Group_51">
<path id="Vector_38" d="M34.9062 38.7843L35.1241 38.8212C35.161 38.8212 35.161 38.8212 35.161 38.7843V38.6033C35.161 38.5664 35.161 38.5664 35.1241 38.5664H34.9431C34.9062 38.5664 34.9062 38.5664 34.9062 38.6033V38.7843C34.9062 38.8212 34.9062 38.8212 34.9062 38.7843ZM35.5566 40.1991C35.5566 40.417 35.4828 40.5276 35.2314 40.5611H33.8535V40.8159H35.2314C35.4124 40.8159 35.5599 40.7422 35.6672 40.6349C35.7376 40.779 35.8851 40.8159 36.0661 40.8159H36.1768V40.5611H36.0326C35.9589 40.5611 35.8885 40.5611 35.8516 40.5243C35.8147 40.5243 35.8147 40.4874 35.8147 40.4505V39.9443C35.8214 39.7398 35.741 39.542 35.5968 39.3978C35.4526 39.2537 35.2548 39.1766 35.0537 39.1799C34.7252 39.1799 34.5106 39.2905 34.3296 39.5085L34.2927 39.5822V39.6191L34.3296 39.656L34.4402 39.7297H34.4771L34.514 39.6928L34.5508 39.6191C34.6615 39.438 34.8391 39.3643 35.0571 39.3643C35.1945 39.3576 35.3252 39.4112 35.4191 39.5085C35.5298 39.6191 35.5633 39.7264 35.5633 39.8705V40.1991H35.5566Z" fill="#8E9090"/>
</g>
<g id="Group_52">
<path id="Vector_39" d="M36.6456 40.3433V38.4558C36.6456 38.4189 36.6456 38.4189 36.6825 38.4189H36.8267C36.8636 38.4189 36.8636 38.4189 36.8636 38.4558V40.3433C36.8636 40.598 36.6825 40.7422 36.4646 40.7422H36.1025V40.4874H36.4646C36.6088 40.5276 36.6456 40.4539 36.6456 40.3433Z" fill="#8E9090"/>
</g>
<g id="Group_53">
<path id="Vector_40" d="M37.6263 40.7791H37.4822C37.4453 40.7791 37.4453 40.7791 37.4453 40.7422V38.4558C37.4453 38.4189 37.4453 38.4189 37.4822 38.4189H37.6263C37.6632 38.4189 37.6632 38.4189 37.6632 38.4558L37.6263 40.7791C37.6599 40.7791 37.6599 40.7422 37.6263 40.7791Z" fill="#8E9090"/>
</g>
</g>
<g id="Group_54">
<g id="Group_55">
<path id="Vector_41" d="M1.35919 42.12H1.61397V43.8968C1.62068 44.0376 1.5838 44.1784 1.50334 44.2957C1.42959 44.4064 1.32231 44.4399 1.14128 44.4399H0.923364C0.886487 44.4399 0.886487 44.4399 0.849609 44.403L0.886487 44.1851C0.943479 44.2119 1.00382 44.2253 1.06752 44.222C1.17815 44.222 1.21168 44.1851 1.24855 44.1114C1.28543 44.0376 1.28543 43.9672 1.28543 43.8566V42.1133L1.35919 42.12Z" fill="#8E9090"/>
</g>
<g id="Group_56">
<path id="Vector_42" d="M2.44491 42.7739V43.9338C2.44491 44.0042 2.48179 44.0411 2.48179 44.078L2.59242 44.1886C2.6293 44.2255 2.70305 44.2255 2.73658 44.2255C2.81033 44.2255 2.84721 44.2255 2.88073 44.1886C2.91761 44.1517 2.95448 44.1517 2.99136 44.1148L3.10199 44.0042C3.13887 43.9673 3.13887 43.9305 3.17575 43.8601V42.7705H3.43054V44.1853C3.43054 44.259 3.43054 44.3294 3.46741 44.4032H3.28638L3.21263 44.1484C3.15899 44.2389 3.08523 44.3126 2.99471 44.3663C2.88408 44.44 2.81368 44.44 2.66952 44.44C2.59577 44.44 2.48849 44.44 2.45162 44.4032C2.38121 44.3663 2.34098 44.3294 2.27058 44.2925C2.2203 44.2288 2.18342 44.1551 2.15995 44.0746C2.12307 43.964 2.12307 43.8567 2.12307 43.7494V42.7705C2.11972 42.7739 2.44491 42.7739 2.44491 42.7739Z" fill="#8E9090"/>
</g>
<g id="Group_57">
<path id="Vector_43" d="M4.55119 44.2256C4.47744 44.2256 4.44056 44.2256 4.37016 44.1887C4.2964 44.1518 4.25953 44.0781 4.226 44.0445C4.18912 44.0077 4.18913 43.9339 4.15225 43.8635C4.11537 43.7897 4.11537 43.6825 4.11537 43.6087C4.11537 43.3908 4.18913 43.2466 4.25953 43.136C4.3534 43.0354 4.48414 42.9818 4.62159 42.9919C4.69535 42.9919 4.76575 43.0287 4.80263 43.0287C4.87638 43.0656 4.91326 43.0656 4.94678 43.1025V43.9004C4.91996 43.9942 4.86968 44.0814 4.80263 44.1552C4.72887 44.1987 4.64171 44.2222 4.55119 44.2256ZM5.20157 42.0498H4.95014V42.7371C4.91326 42.7371 4.8395 42.7002 4.80598 42.7002H4.62495C4.42045 42.6935 4.22265 42.7739 4.07849 42.9181C3.97122 43.0623 3.89746 43.2802 3.89746 43.5685C3.89746 43.8601 3.93434 44.0781 4.04162 44.2222C4.15225 44.3664 4.2964 44.4401 4.51431 44.4401C4.61489 44.4368 4.71546 44.4133 4.80598 44.3664C4.88309 44.3261 4.94678 44.2624 4.98701 44.1853L5.06077 44.4032H5.2418C5.20492 44.3295 5.20492 44.2222 5.20492 44.1485C5.20157 44.1518 5.20157 42.0498 5.20157 42.0498Z" fill="#8E9090"/>
</g>
<g id="Group_58">
<path id="Vector_44" d="M5.78372 42.7738H6.0385V44.4065H5.78372V42.7738ZM5.70996 42.3011C5.70996 42.2643 5.70996 42.1905 5.74684 42.157C5.78372 42.1201 5.82059 42.1201 5.89099 42.1201C5.96475 42.1201 6.00163 42.1201 6.03515 42.157C6.07203 42.1939 6.10891 42.2307 6.10891 42.3011C6.10891 42.338 6.07203 42.4118 6.03515 42.4118C5.99827 42.4487 5.9614 42.4487 5.89099 42.4487C5.81724 42.4487 5.78036 42.4487 5.74684 42.4118C5.74684 42.3749 5.70996 42.338 5.70996 42.3011Z" fill="#8E9090"/>
</g>
<g id="Group_59">
<path id="Vector_45" d="M7.70409 44.296L7.48618 44.4066C7.41243 44.4435 7.30515 44.4435 7.19787 44.4435C7.08724 44.4435 6.97996 44.4066 6.86932 44.3697C6.78886 44.3194 6.71511 44.2591 6.65142 44.1887C6.58437 44.1216 6.54749 44.0311 6.54078 43.9339C6.54078 43.8602 6.50391 43.716 6.50391 43.5718C6.50391 43.2802 6.57766 43.0991 6.68494 42.9181C6.79557 42.774 6.9766 42.7002 7.19451 42.7002C7.30515 42.7002 7.37555 42.7002 7.4493 42.7371C7.51635 42.7371 7.58005 42.7639 7.63034 42.8108L7.55658 43.0287C7.5197 42.9919 7.44595 42.9919 7.37555 42.955C7.30179 42.9181 7.26492 42.9181 7.19451 42.9181C6.86597 42.9181 6.72182 43.136 6.72182 43.535C6.72182 43.6087 6.72182 43.6791 6.75869 43.7897C6.79557 43.9004 6.79557 43.9339 6.83245 43.9708C6.86933 44.0445 6.9062 44.0814 6.97661 44.1149C7.04366 44.1451 7.12076 44.1585 7.19451 44.1518C7.26827 44.1518 7.33867 44.1518 7.41243 44.1149C7.48283 44.0781 7.5197 44.0781 7.55658 44.0412L7.70409 44.296Z" fill="#8E9090"/>
</g>
<g id="Group_60">
<path id="Vector_46" d="M8.10328 42.7738H8.35807V44.4065H8.10328V42.7738ZM8.06641 42.3011C8.06641 42.2643 8.0664 42.1905 8.10328 42.157C8.14016 42.1201 8.17704 42.1201 8.24744 42.1201C8.32119 42.1201 8.35807 42.1201 8.39159 42.157C8.42847 42.1939 8.46535 42.2307 8.46535 42.3011C8.46535 42.338 8.42847 42.4118 8.39159 42.4118C8.35472 42.4487 8.31784 42.4487 8.24744 42.4487C8.17368 42.4487 8.13681 42.4487 8.10328 42.4118C8.0664 42.3749 8.06641 42.338 8.06641 42.3011Z" fill="#8E9090"/>
</g>
<g id="Group_61">
<path id="Vector_47" d="M9.3736 44.2251C9.29985 44.2251 9.22945 44.1882 9.11881 44.1513C9.07188 44.101 9.04841 44.0373 9.04506 43.9703C9.04506 43.8965 9.04506 43.8596 9.08194 43.8261C9.11881 43.7892 9.15569 43.7892 9.19257 43.7524C9.26632 43.7524 9.3032 43.7155 9.3736 43.7155H9.77254V43.9703C9.77254 43.9703 9.73567 44.0071 9.73567 44.044C9.73567 44.0809 9.69879 44.0809 9.66191 44.1178C9.62504 44.1547 9.58816 44.1915 9.55128 44.1915C9.48088 44.2251 9.444 44.2251 9.3736 44.2251ZM8.97466 43.0651C9.01154 43.0651 9.04841 43.0282 9.08529 43.0282C9.15904 43.0282 9.19592 42.9914 9.22944 42.9914C9.3032 42.9545 9.34008 42.9545 9.3736 42.9545H9.48423C9.59486 42.9545 9.70214 42.9914 9.73902 43.0282C9.7759 43.0651 9.81278 43.1724 9.81278 43.283V43.464H9.73902H9.66527C9.55463 43.464 9.44735 43.5009 9.33672 43.5009C9.24621 43.5043 9.15904 43.5277 9.08194 43.5747C9.00818 43.6116 8.93778 43.6484 8.9009 43.7188C8.85397 43.7959 8.8305 43.8831 8.82715 43.9736C8.82715 44.0474 8.82715 44.0843 8.86403 44.1547C8.9009 44.2284 8.93778 44.2284 8.97466 44.2988C9.01154 44.3726 9.04841 44.3726 9.11881 44.4094C9.15569 44.4463 9.22944 44.4463 9.29985 44.4463C9.3736 44.4463 9.41048 44.4463 9.48088 44.4094C9.55463 44.3726 9.59151 44.3726 9.62504 44.3357C9.66191 44.3357 9.69879 44.2619 9.73567 44.2619C9.77254 44.2619 9.77255 44.2251 9.80942 44.1882L9.88318 44.4061H10.0642C10.0642 44.3692 10.0273 44.2955 10.0273 44.2251V44.0071V43.6451V43.2461V43.0651C10.0173 43.0115 9.99381 42.9578 9.95358 42.9209C9.91335 42.8774 9.86306 42.8405 9.80942 42.8103C9.73567 42.7734 9.62839 42.7734 9.51776 42.7734C9.40712 42.7734 9.29985 42.7734 9.18922 42.8103C9.07858 42.8472 8.97131 42.8841 8.9009 42.9209L8.97466 43.0651Z" fill="#8E9090"/>
</g>
<g id="Group_62">
<path id="Vector_48" d="M10.8604 44.0076C10.8604 44.0813 10.8604 44.1517 10.8973 44.1886C10.9341 44.2255 10.971 44.2255 11.0079 44.2255H11.1185C11.1554 44.2255 11.1923 44.2255 11.2292 44.1886L11.266 44.4065C11.2292 44.4065 11.1923 44.4434 11.1219 44.4434H10.9777C10.8872 44.44 10.8 44.4166 10.7229 44.3696C10.6492 44.2959 10.6123 44.2255 10.6123 44.0813V42.1201H10.8671V44.0076H10.8604Z" fill="#8E9090"/>
</g>
<g id="Group_63">
<path id="Vector_49" d="M12.4187 42.1201H13.6524V42.3749H12.6735V43.1359H13.5787V43.3907H12.6735V44.1886H13.6524V44.4434H12.3818L12.4187 42.1201Z" fill="#8E9090"/>
</g>
<g id="Group_64">
<path id="Vector_50" d="M14.4131 44.0076C14.4131 44.0813 14.4131 44.1517 14.45 44.1886C14.4869 44.2255 14.5238 44.2255 14.5606 44.2255H14.6713C14.7081 44.2255 14.745 44.2255 14.7819 44.1886L14.8188 44.4065C14.7819 44.4065 14.745 44.4434 14.6746 44.4434H14.5305C14.4198 44.4434 14.3494 44.4065 14.2757 44.3696C14.2019 44.2959 14.165 44.2255 14.165 44.0813V42.1201H14.4198L14.4131 44.0076Z" fill="#8E9090"/>
</g>
<g id="Group_65">
<path id="Vector_51" d="M15.9379 43.1029C16.0117 43.1767 16.0485 43.2839 16.0485 43.465H15.2506C15.2875 43.2839 15.3244 43.1767 15.3948 43.1029C15.4887 43.0292 15.6027 42.9923 15.7233 42.9923C15.8273 42.9923 15.901 42.9923 15.9379 43.1029ZM16.1558 44.045C16.0988 44.0885 16.0385 44.1254 15.9748 44.1556C15.901 44.1925 15.8306 44.1925 15.7569 44.1925C15.6462 44.1925 15.5758 44.1925 15.5021 44.1556C15.4652 44.1187 15.3915 44.0818 15.3579 44.045C15.2842 44.0081 15.2842 43.9343 15.2473 43.8639C15.2104 43.7902 15.2104 43.7198 15.2104 43.6091H16.2631C16.3 43.4985 16.3 43.4281 16.3 43.3544C16.3033 43.2404 16.2765 43.1297 16.2262 43.0258C16.1893 42.9521 16.1156 42.9152 16.0821 42.8448C16.0485 42.7777 15.9781 42.7341 15.901 42.7341C15.8273 42.6973 15.7569 42.6973 15.6831 42.6973C15.4283 42.6973 15.2473 42.771 15.14 42.9152C15.0294 43.0593 14.959 43.2772 14.959 43.5656C14.959 43.7097 14.959 43.8572 14.9959 43.9276C15.0327 44.0014 15.1065 44.1087 15.14 44.1824C15.1769 44.2562 15.2507 44.3266 15.3579 44.3634C15.4686 44.4003 15.5758 44.4372 15.6865 44.4372C15.7971 44.4372 15.9044 44.4372 16.0117 44.4003C16.1223 44.4003 16.1927 44.3266 16.2664 44.2897L16.1558 44.045Z" fill="#8E9090"/>
</g>
<g id="Group_66">
<path id="Vector_52" d="M17.8232 44.296L17.6053 44.4066C17.5316 44.4435 17.4243 44.4435 17.317 44.4435C17.2064 44.4435 17.0991 44.4066 16.9885 44.3697C16.8778 44.3329 16.8443 44.2591 16.7706 44.1887C16.7035 44.1216 16.6666 44.0311 16.6599 43.9339C16.623 43.8233 16.623 43.716 16.623 43.5718C16.623 43.2802 16.6968 43.0991 16.8041 42.9181C16.9147 42.774 17.0957 42.7002 17.3137 42.7002C17.4243 42.7002 17.4947 42.7002 17.5684 42.7371C17.6355 42.7371 17.6992 42.7639 17.7495 42.8108L17.6757 43.0287C17.6389 42.9919 17.5651 42.9919 17.4947 42.955C17.4209 42.9181 17.3841 42.9181 17.3137 42.9181C16.9851 42.9181 16.841 43.136 16.841 43.535C16.841 43.6087 16.841 43.6791 16.8778 43.7897C16.9147 43.9004 16.9147 43.9339 16.9516 43.9708C16.9885 44.0445 17.0253 44.0814 17.0957 44.1149C17.1628 44.1451 17.2399 44.1585 17.3137 44.1518C17.3874 44.1518 17.4578 44.1518 17.5316 44.1149C17.602 44.0781 17.6389 44.0781 17.6757 44.0412L17.8232 44.296Z" fill="#8E9090"/>
</g>
<g id="Group_67">
<path id="Vector_53" d="M17.9707 42.7744H18.2255V42.4458L18.4803 42.3721V42.771H18.9161V42.9889H18.4803V43.8941C18.4803 44.0047 18.4803 44.0751 18.5172 44.1489C18.554 44.1858 18.5909 44.2226 18.6613 44.2226H18.8055C18.8423 44.2226 18.8792 44.1858 18.9496 44.1858L19.0234 44.3668C18.9496 44.4037 18.9127 44.4037 18.8423 44.4405C18.7686 44.4774 18.6982 44.4774 18.6244 44.4774C18.4803 44.4774 18.4065 44.4405 18.3328 44.3668C18.259 44.293 18.259 44.1489 18.259 44.0047V43.0258H18.0042V42.771H17.9707V42.7744Z" fill="#8E9090"/>
</g>
<g id="Group_68">
<path id="Vector_54" d="M20.0349 43.0291C19.9611 42.9922 19.8907 42.9922 19.8538 42.9922C19.7432 42.9922 19.6728 43.0291 19.6359 43.066C19.5622 43.1029 19.5622 43.1766 19.5253 43.247V44.407H19.2705V42.7743H19.4515L19.4884 42.9554C19.5253 42.8816 19.5622 42.8112 19.6326 42.7743C19.7633 42.6905 19.9276 42.6771 20.0684 42.7375L20.0349 43.0291Z" fill="#8E9090"/>
</g>
<g id="Group_69">
<path id="Vector_55" d="M20.5779 43.6085C20.5779 43.1727 20.722 42.9548 21.0137 42.9917C21.1243 42.9917 21.1578 42.9917 21.2316 43.0285C21.3053 43.0654 21.3422 43.1023 21.3757 43.1727C21.4126 43.2096 21.4126 43.2833 21.4495 43.3537C21.4797 43.4342 21.4931 43.5214 21.4864 43.6085C21.4864 44.0075 21.3422 44.2254 21.0506 44.2254C20.9399 44.2254 20.9064 44.2254 20.8326 44.1885C20.7589 44.1516 20.722 44.0779 20.6885 44.0443C20.6516 44.0075 20.6516 43.9706 20.6147 43.8633C20.5779 43.7527 20.5779 43.6823 20.5779 43.6085ZM20.2895 43.6085C20.2895 43.7192 20.2895 43.9002 20.3264 43.9706C20.3633 44.0443 20.4371 44.1516 20.4706 44.2254C20.5075 44.2991 20.5812 44.3695 20.6885 44.4064C20.7991 44.4433 20.9064 44.4802 21.0137 44.4802C21.2685 44.4802 21.4495 44.4064 21.5568 44.2623C21.6808 44.0678 21.7445 43.8398 21.7378 43.6119C21.7378 43.4677 21.7378 43.3202 21.7009 43.2498C21.6641 43.1761 21.5903 43.0688 21.5568 42.995C21.5098 42.9079 21.4327 42.8408 21.3389 42.814C21.2282 42.7771 21.121 42.7402 21.0137 42.7402C20.7589 42.7402 20.5779 42.814 20.4706 42.9581C20.3465 43.1492 20.2828 43.3772 20.2895 43.6085Z" fill="#8E9090"/>
</g>
<g id="Group_70">
<path id="Vector_56" d="M23.1901 44.4069V43.4649C23.1901 43.2838 23.1532 43.1732 23.1163 43.0659C23.0627 42.9788 22.9654 42.9218 22.8615 42.9218C22.7509 42.9218 22.6436 42.9587 22.5698 43.0324C22.4961 43.1062 22.4257 43.1766 22.4257 43.2503V44.3734H22.1709V42.7407H22.3519L22.3888 42.9218C22.4257 42.848 22.4994 42.8111 22.6067 42.7407C22.7174 42.667 22.7878 42.667 22.9319 42.667C23.0057 42.667 23.1129 42.667 23.1498 42.7039C23.2236 42.7407 23.2605 42.7776 23.3309 42.8145C23.3677 42.8514 23.4046 42.9251 23.4415 43.0324C23.4784 43.1028 23.4784 43.2503 23.4784 43.3576V44.3365H23.1867C23.19 44.3332 23.1901 44.4069 23.1901 44.4069Z" fill="#8E9090"/>
</g>
<g id="Group_71">
<path id="Vector_57" d="M23.9884 42.7738H24.2432V44.4065H23.9884V42.7738ZM23.918 42.3011C23.918 42.2643 23.918 42.1905 23.9548 42.157C23.9917 42.1201 24.0286 42.1201 24.099 42.1201C24.1359 42.1201 24.2096 42.1201 24.2432 42.157C24.28 42.1939 24.3169 42.2307 24.3169 42.3011C24.3169 42.338 24.28 42.4118 24.2432 42.4118C24.2063 42.4487 24.1694 42.4487 24.099 42.4487C24.0621 42.4487 23.9884 42.4487 23.9548 42.4118C23.9515 42.3749 23.918 42.338 23.918 42.3011Z" fill="#8E9090"/>
</g>
<g id="Group_72">
<path id="Vector_58" d="M25.9087 44.296L25.6908 44.4066C25.6171 44.4435 25.5098 44.4435 25.4025 44.4435C25.2919 44.4435 25.1846 44.4066 25.074 44.3697C24.9633 44.3329 24.9298 44.2591 24.8561 44.1887C24.789 44.1216 24.7521 44.0311 24.7488 43.9339C24.7119 43.8233 24.7119 43.716 24.7119 43.5718C24.7119 43.2802 24.7857 43.0991 24.893 42.9181C25.0036 42.774 25.1846 42.7002 25.4025 42.7002C25.5132 42.7002 25.5836 42.7002 25.6573 42.7371C25.7244 42.7371 25.7881 42.7639 25.8383 42.8108L25.7646 43.0287C25.7277 42.9919 25.654 42.9919 25.5836 42.955C25.5132 42.9181 25.4729 42.9181 25.4025 42.9181C25.074 42.9181 24.9298 43.136 24.9298 43.535C24.9298 43.6087 24.9298 43.6791 24.9667 43.7897C25.0036 43.9004 25.0036 43.9339 25.0405 43.9708C25.0773 44.0445 25.1142 44.0814 25.1846 44.1149C25.2517 44.1451 25.3288 44.1585 25.4025 44.1518C25.4763 44.1518 25.5467 44.1518 25.6204 44.1149C25.6942 44.0781 25.7311 44.0781 25.7646 44.0412L25.9087 44.296Z" fill="#8E9090"/>
</g>
<g id="Group_73">
<path id="Vector_59" d="M28.1214 43.8268C28.1214 43.7162 28.0845 43.6458 28.0477 43.6089C28.0108 43.5385 27.937 43.4983 27.8297 43.4648C27.756 43.4279 27.6487 43.391 27.575 43.3542C27.4811 43.3273 27.3939 43.277 27.3202 43.21C27.2464 43.1362 27.176 43.0994 27.1023 42.9921C27.0285 42.9183 27.0285 42.8111 27.0285 42.6669C27.0285 42.4859 27.1023 42.3384 27.2095 42.2311C27.3202 42.1238 27.5012 42.0869 27.7526 42.0869C27.8968 42.0869 28.0074 42.0869 28.1147 42.1238C28.2253 42.1607 28.2957 42.1607 28.3695 42.1975L28.2957 42.4523C28.2589 42.4155 28.1851 42.4155 28.0778 42.3786C27.9672 42.3417 27.8599 42.3417 27.7526 42.3417C27.6085 42.3417 27.4979 42.3786 27.4241 42.4523C27.3503 42.5261 27.3135 42.5965 27.3135 42.6702C27.3202 42.7474 27.347 42.8211 27.3872 42.8882C27.4241 42.9619 27.4979 42.9988 27.6051 43.0323C27.699 43.0591 27.7895 43.1094 27.8599 43.1765C27.9706 43.2133 28.041 43.2871 28.1147 43.3206C28.1885 43.3944 28.2589 43.4313 28.3326 43.5385C28.4064 43.6123 28.4064 43.7196 28.4064 43.8268C28.4064 43.9375 28.4064 44.0079 28.3695 44.0816C28.3326 44.1554 28.2957 44.2258 28.2253 44.2995C28.1549 44.3699 28.0678 44.4169 27.9706 44.4437C27.8599 44.4806 27.7526 44.4806 27.642 44.4806C27.461 44.4806 27.3503 44.4806 27.2431 44.4437C27.1324 44.4068 27.062 44.4068 26.9883 44.37L27.0989 44.1152C27.1358 44.152 27.2095 44.1889 27.3168 44.1889C27.4275 44.2258 27.5347 44.2258 27.6454 44.2258C27.7158 44.2258 27.7895 44.2258 27.8633 44.1889C27.937 44.152 27.9739 44.152 28.0443 44.1152C28.1181 44.0783 28.1181 44.0414 28.1549 44.0045C28.1214 43.971 28.1214 43.8972 28.1214 43.8268Z" fill="#8E9090"/>
</g>
<g id="Group_74">
<path id="Vector_60" d="M29.6459 43.1029C29.7197 43.1767 29.7565 43.2839 29.7565 43.465H28.9587C28.9955 43.2839 29.0324 43.1767 29.1028 43.1029C29.1967 43.0292 29.3107 42.9923 29.4314 42.9923C29.5353 42.9923 29.6459 42.9923 29.6459 43.1029ZM29.8638 44.045C29.8102 44.0885 29.7465 44.1254 29.6828 44.1556C29.609 44.1925 29.5386 44.1925 29.4649 44.1925C29.3543 44.1925 29.2838 44.1925 29.2101 44.1556C29.1732 44.1187 29.0995 44.0818 29.0659 44.045C28.9922 44.0081 28.9922 43.9343 28.9553 43.8639C28.9184 43.7902 28.9184 43.7198 28.9184 43.6091H29.9711C30.008 43.4985 30.008 43.4281 30.008 43.3544C30.0113 43.2404 29.9845 43.1297 29.9342 43.0258C29.8973 42.9521 29.8236 42.9152 29.7901 42.8448C29.7565 42.7777 29.6861 42.7341 29.609 42.7341C29.5353 42.6973 29.4649 42.6973 29.3911 42.6973C29.1363 42.6973 28.9553 42.771 28.848 42.9152C28.7374 43.0593 28.667 43.2772 28.667 43.5656C28.667 43.7097 28.667 43.8572 28.7039 43.9276C28.7407 44.0014 28.8145 44.1087 28.848 44.1824C28.8849 44.2562 28.9587 44.3266 29.0659 44.3634C29.1766 44.4003 29.2838 44.4372 29.3945 44.4372C29.5018 44.4372 29.6124 44.4372 29.7197 44.4003C29.8303 44.4003 29.9007 44.3266 29.9745 44.2897L29.8638 44.045Z" fill="#8E9090"/>
</g>
<g id="Group_75">
<path id="Vector_61" d="M31.2439 43.0291C31.1701 42.9922 31.0997 42.9922 31.0628 42.9922C30.9522 42.9922 30.8818 43.0291 30.8449 43.066C30.7712 43.1029 30.7712 43.1766 30.7343 43.247V44.407H30.4795V42.7743H30.6605L30.6974 42.9554C30.7343 42.8816 30.7712 42.8112 30.8416 42.7743C30.9723 42.6905 31.1366 42.6771 31.2774 42.7375L31.2439 43.0291Z" fill="#8E9090"/>
</g>
<g id="Group_76">
<path id="Vector_62" d="M32.0417 43.7526L32.1524 44.0811L32.2261 43.7526L32.5882 42.8105H32.8799L32.1893 44.4801H32.0786L31.3545 42.8105H31.6428L32.0417 43.7526Z" fill="#8E9090"/>
</g>
<g id="Group_77">
<path id="Vector_63" d="M33.2007 42.7738H33.4555V44.4065H33.2007V42.7738ZM33.127 42.3011C33.127 42.2643 33.127 42.1905 33.1638 42.157C33.2007 42.1201 33.2376 42.1201 33.308 42.1201C33.3449 42.1201 33.4186 42.1201 33.4521 42.157C33.489 42.1939 33.5259 42.2307 33.5259 42.3011C33.5259 42.338 33.489 42.4118 33.4521 42.4118C33.4153 42.4487 33.3784 42.4487 33.308 42.4487C33.2711 42.4487 33.1974 42.4487 33.1638 42.4118C33.1638 42.3749 33.127 42.338 33.127 42.3011Z" fill="#8E9090"/>
</g>
<g id="Group_78">
<path id="Vector_64" d="M35.1216 44.296L34.9037 44.4066C34.83 44.4435 34.7227 44.4435 34.6154 44.4435C34.5048 44.4435 34.3975 44.4066 34.2869 44.3697C34.1762 44.3329 34.1427 44.2591 34.069 44.1887C34.0019 44.1216 33.965 44.0311 33.9617 43.9339C33.9248 43.8233 33.9248 43.716 33.9248 43.5718C33.9248 43.2802 33.9986 43.0991 34.1058 42.9181C34.2165 42.774 34.3975 42.7002 34.6154 42.7002C34.726 42.7002 34.7964 42.7002 34.8702 42.7371C34.9373 42.7371 35.0009 42.7639 35.0512 42.8108L34.9775 43.0287C34.9406 42.9919 34.8669 42.9919 34.7964 42.955C34.726 42.9181 34.6858 42.9181 34.6154 42.9181C34.2869 42.9181 34.1427 43.136 34.1427 43.535C34.1427 43.6087 34.1427 43.6791 34.1796 43.7897C34.2165 43.9004 34.2165 43.9339 34.2534 43.9708C34.2902 44.0445 34.3271 44.0814 34.3975 44.1149C34.4646 44.1451 34.5417 44.1585 34.6154 44.1518C34.6892 44.1518 34.7596 44.1518 34.8333 44.1149C34.9071 44.0781 34.944 44.0781 34.9775 44.0412L35.1216 44.296Z" fill="#8E9090"/>
</g>
<g id="Group_79">
<path id="Vector_65" d="M36.2481 43.1029C36.3219 43.1767 36.3588 43.2839 36.3588 43.465H35.5575C35.5944 43.2839 35.6313 43.1767 35.7017 43.1029C35.7955 43.0292 35.9095 42.9923 36.0302 42.9923C36.1375 42.9923 36.2448 42.9923 36.2481 43.1029ZM36.4996 44.045C36.4459 44.0885 36.3822 44.1254 36.3185 44.1556C36.2448 44.1925 36.1744 44.1925 36.1006 44.1925C35.99 44.1925 35.9196 44.1925 35.8458 44.1556C35.809 44.1187 35.7352 44.0818 35.7017 44.045C35.6279 44.0081 35.6279 43.9343 35.591 43.8639C35.5542 43.7902 35.5542 43.7198 35.5542 43.6091H36.6068C36.6437 43.4985 36.6437 43.4281 36.6437 43.3544C36.6437 43.2404 36.6203 43.1297 36.57 43.0258C36.5331 42.9521 36.4593 42.9152 36.4258 42.8448C36.3923 42.7777 36.3219 42.7341 36.2448 42.7341C36.171 42.6973 36.1006 42.6973 36.0269 42.6973C35.7721 42.6973 35.591 42.771 35.4838 42.9152C35.3731 43.0593 35.3027 43.2772 35.3027 43.5656C35.3027 43.7097 35.3027 43.8572 35.3396 43.9276C35.3765 44.0014 35.4502 44.1087 35.4838 44.1824C35.5206 44.2562 35.5944 44.3266 35.7017 44.3634C35.8123 44.4003 35.9196 44.4372 36.0302 44.4372C36.1409 44.4372 36.2481 44.4372 36.3554 44.4003C36.466 44.4003 36.5364 44.3266 36.6102 44.2897L36.4996 44.045Z" fill="#8E9090"/>
</g>
<g id="Group_80">
<path id="Vector_66" d="M37.7699 43.9711C37.7699 43.8974 37.7331 43.8605 37.6962 43.827C37.656 43.7834 37.6057 43.7465 37.552 43.7163C37.4783 43.6794 37.4414 43.6794 37.371 43.6426C37.2973 43.6057 37.2268 43.6057 37.19 43.5688C37.1263 43.542 37.0726 43.4884 37.0458 43.4247C37.0056 43.3576 36.9821 43.2839 36.9721 43.2068C36.9721 43.0626 37.0089 42.952 37.1162 42.8782C37.2268 42.8045 37.3341 42.7676 37.4783 42.7676C37.5889 42.7676 37.6962 42.7676 37.7699 42.8045C37.8437 42.8413 37.9141 42.8413 37.9879 42.8782L37.9141 43.0961C37.8772 43.0592 37.8035 43.0592 37.7331 43.0224C37.6593 42.9855 37.5889 42.9855 37.5152 42.9855C37.4045 42.9855 37.3341 42.9855 37.2973 43.0224C37.2604 43.0592 37.2235 43.0961 37.2235 43.2034C37.2235 43.2771 37.2604 43.314 37.2973 43.3476C37.3341 43.3844 37.371 43.4213 37.4414 43.4213C37.5152 43.4582 37.552 43.4582 37.6224 43.4951C37.6962 43.5319 37.7666 43.5688 37.8035 43.6057C37.8772 43.6426 37.9141 43.6794 37.9476 43.7498C37.9845 43.8236 38.0214 43.894 38.0214 44.0046C38.0214 44.0784 38.0214 44.1488 37.9845 44.1857C37.9577 44.2393 37.9208 44.2896 37.8739 44.3298C37.8202 44.3734 37.7565 44.4103 37.6928 44.4405C37.6191 44.4773 37.5487 44.4773 37.4381 44.4773C37.3274 44.4773 37.2201 44.4773 37.1095 44.4405C37.0358 44.4036 36.9654 44.4036 36.8916 44.3667L36.9654 44.1488C37.0156 44.1957 37.0793 44.2192 37.1464 44.2225C37.2201 44.2594 37.2905 44.2594 37.4012 44.2594C37.5118 44.2594 37.5822 44.2225 37.6191 44.1857C37.7699 44.1521 37.7699 44.0784 37.7699 43.9711Z" fill="#8E9090"/>
</g>
</g>
</g>
</g>
</g>
</svg>
