<svg width="24" height="25" viewBox="0 0 24 25" fill="none" xmlns="http://www.w3.org/2000/svg">
<g id="&#216;&#177;&#217;&#130;&#217;&#133; &#216;&#167;&#217;&#132;&#217;&#135;&#217;&#136;&#217;&#138;&#216;&#169;">
<g id="Vector">
<path fill-rule="evenodd" clip-rule="evenodd" d="M9 6.75C7.48122 6.75 6.25 7.98122 6.25 9.5C6.25 11.0188 7.48122 12.25 9 12.25C10.5188 12.25 11.75 11.0188 11.75 9.5C11.75 7.98122 10.5188 6.75 9 6.75ZM7.75 9.5C7.75 8.80965 8.30965 8.25 9 8.25C9.69036 8.25 10.25 8.80965 10.25 9.5C10.25 10.1904 9.69036 10.75 9 10.75C8.30965 10.75 7.75 10.1904 7.75 9.5Z" fill="#2E353F"/>
<path fill-rule="evenodd" clip-rule="evenodd" d="M9 12.75C7.80424 12.75 6.68461 12.9907 5.83616 13.415C5.03258 13.8168 4.25 14.5106 4.25 15.5L4.24987 15.5625C4.24834 16.0728 4.24576 16.9322 5.06023 17.5218C5.43818 17.7953 5.9369 17.9698 6.55469 18.081C7.1782 18.1932 7.97721 18.25 9 18.25C10.0228 18.25 10.8218 18.1932 11.4453 18.081C12.0631 17.9698 12.5618 17.7953 12.9398 17.5218C13.7542 16.9322 13.7517 16.0728 13.7501 15.5625L13.75 15.5C13.75 14.5106 12.9674 13.8168 12.1638 13.415C11.3154 12.9907 10.1958 12.75 9 12.75ZM5.75 15.5C5.75 15.3848 5.86285 15.0787 6.50698 14.7566C7.10625 14.457 7.98662 14.25 9 14.25C10.0134 14.25 10.8937 14.457 11.493 14.7566C12.1371 15.0787 12.25 15.3848 12.25 15.5C12.25 16.1045 12.2115 16.1972 12.0602 16.3067C11.9382 16.395 11.6869 16.5134 11.1797 16.6047C10.6782 16.6949 9.97721 16.75 9 16.75C8.02279 16.75 7.3218 16.6949 6.82031 16.6047C6.31311 16.5134 6.06182 16.395 5.93977 16.3067C5.78849 16.1972 5.75 16.1045 5.75 15.5Z" fill="#2E353F"/>
<path d="M19 13.25C19.4142 13.25 19.75 12.9142 19.75 12.5C19.75 12.0858 19.4142 11.75 19 11.75H15C14.5858 11.75 14.25 12.0858 14.25 12.5C14.25 12.9142 14.5858 13.25 15 13.25H19Z" fill="#2E353F"/>
<path d="M19.75 9.5C19.75 9.91422 19.4142 10.25 19 10.25H14C13.5858 10.25 13.25 9.91422 13.25 9.5C13.25 9.08579 13.5858 8.75 14 8.75H19C19.4142 8.75 19.75 9.08579 19.75 9.5Z" fill="#2E353F"/>
<path d="M19 16.25C19.4142 16.25 19.75 15.9142 19.75 15.5C19.75 15.0858 19.4142 14.75 19 14.75H16C15.5858 14.75 15.25 15.0858 15.25 15.5C15.25 15.9142 15.5858 16.25 16 16.25H19Z" fill="#2E353F"/>
<path fill-rule="evenodd" clip-rule="evenodd" d="M9.94358 3.75H14.0564C15.8942 3.74998 17.3498 3.74997 18.489 3.90314C19.6614 4.06076 20.6104 4.39288 21.3588 5.14124C22.1071 5.88961 22.4392 6.83856 22.5969 8.01098C22.75 9.15018 22.75 10.6058 22.75 12.4435V12.5564C22.75 14.3942 22.75 15.8498 22.5969 16.989C22.4392 18.1614 22.1071 19.1104 21.3588 19.8588C20.6104 20.6071 19.6614 20.9392 18.489 21.0969C17.3498 21.25 15.8942 21.25 14.0565 21.25H9.94359C8.10585 21.25 6.65018 21.25 5.51098 21.0969C4.33856 20.9392 3.38961 20.6071 2.64124 19.8588C1.89288 19.1104 1.56076 18.1614 1.40314 16.989C1.24997 15.8498 1.24998 14.3942 1.25 12.5564V12.4436C1.24998 10.6058 1.24997 9.15019 1.40314 8.01098C1.56076 6.83856 1.89288 5.88961 2.64124 5.14124C3.38961 4.39288 4.33856 4.06076 5.51098 3.90314C6.65019 3.74997 8.10583 3.74998 9.94358 3.75ZM5.71085 5.38976C4.70476 5.52503 4.12511 5.77869 3.7019 6.2019C3.27869 6.62511 3.02503 7.20476 2.88976 8.21085C2.75159 9.23851 2.75 10.5932 2.75 12.5C2.75 14.4068 2.75159 15.7615 2.88976 16.7892C3.02503 17.7952 3.27869 18.3749 3.7019 18.7981C4.12511 19.2213 4.70476 19.475 5.71085 19.6102C6.73851 19.7484 8.09318 19.75 10 19.75H14C15.9068 19.75 17.2615 19.7484 18.2892 19.6102C19.2952 19.475 19.8749 19.2213 20.2981 18.7981C20.7213 18.3749 20.975 17.7952 21.1102 16.7892C21.2484 15.7615 21.25 14.4068 21.25 12.5C21.25 10.5932 21.2484 9.23851 21.1102 8.21085C20.975 7.20476 20.7213 6.62511 20.2981 6.2019C19.8749 5.77869 19.2952 5.52503 18.2892 5.38976C17.2615 5.25159 15.9068 5.25 14 5.25H10C8.09318 5.25 6.73851 5.25159 5.71085 5.38976Z" fill="#2E353F"/>
</g>
</g>
</svg>
