<svg width="171" height="116" viewBox="0 0 171 116" fill="none" xmlns="http://www.w3.org/2000/svg">
<path d="M147.424 104.713C147.819 104.39 147.999 103.851 147.891 103.349L135.469 37.3611H133.459H121.719H67.9377C67.3633 37.3611 66.8607 37.7201 66.6094 38.2586L60.6138 52.1526C60.2547 53.0502 60.8651 54.0195 61.8344 54.0195H118.164V57.6097C118.164 57.9328 118.057 58.2559 117.877 58.5072L101.506 81.269C100.788 82.2743 101.506 83.6744 102.727 83.6744L130.156 84.1412L135.361 112.791C135.505 113.616 136.51 113.976 137.156 113.437L147.424 104.713Z" stroke="#292927" stroke-width="3.59018" stroke-linecap="round" stroke-linejoin="round"/>
<path d="M2.59625 18.9796C2.20133 19.3027 2.02181 19.8412 2.09362 20.3438L14.5157 86.3314H16.5621H28.2661H82.047C82.6214 86.3314 83.1599 85.9723 83.3754 85.4338L89.371 71.5398C89.7659 70.6423 89.1197 69.673 88.1503 69.673H31.8562V66.0828C31.8562 65.7597 31.964 65.4365 32.1435 65.1852L48.4788 42.4234C49.1968 41.4182 48.4788 40.018 47.2581 40.018L19.8291 39.5513L14.6593 10.9017C14.5156 10.0759 13.5104 9.71691 12.8642 10.2554L2.59625 18.9796Z" stroke="#292927" stroke-width="3.59018" stroke-linecap="round" stroke-linejoin="round"/>
<rect x="115" y="0.846191" width="56" height="56" rx="14" fill="#FF4E64" fill-opacity="0.12"/>
<path d="M132.5 18.3462L143 28.8462M143 28.8462L132.5 39.3462M143 28.8462L153.5 39.3462M143 28.8462L153.5 18.3462" stroke="#FF4E64" stroke-width="2.625" stroke-linecap="round" stroke-linejoin="round"/>
</svg>
