<svg width="24" height="24" viewBox="0 0 24 24" fill="none" xmlns="http://www.w3.org/2000/svg">
<g id="vuesax/linear/notification">
<g id="notification">
<path id="Vector" d="M12.0196 2.90967C8.7096 2.90967 6.0196 5.59967 6.0196 8.90967V11.7997C6.0196 12.4097 5.7596 13.3397 5.4496 13.8597L4.2996 15.7697C3.5896 16.9497 4.0796 18.2597 5.3796 18.6997C9.6896 20.1397 14.3396 20.1397 18.6496 18.6997C19.8596 18.2997 20.3896 16.8697 19.7296 15.7697L18.5796 13.8597C18.2796 13.3397 18.0196 12.4097 18.0196 11.7997V8.90967C18.0196 5.60967 15.3196 2.90967 12.0196 2.90967Z" stroke="#2E353F" stroke-width="1.8" stroke-miterlimit="10" stroke-linecap="round"/>
<path id="Vector_2" d="M13.8699 3.19945C13.5599 3.10945 13.2399 3.03945 12.9099 2.99945C11.9499 2.87945 11.0299 2.94945 10.1699 3.19945C10.4599 2.45945 11.1799 1.93945 12.0199 1.93945C12.8599 1.93945 13.5799 2.45945 13.8699 3.19945Z" stroke="#2E353F" stroke-width="1.8" stroke-miterlimit="10" stroke-linecap="round" stroke-linejoin="round"/>
<path id="Vector_3" d="M15.02 19.0605C15.02 20.7105 13.67 22.0605 12.02 22.0605C11.2 22.0605 10.44 21.7205 9.90002 21.1805C9.36002 20.6405 9.02002 19.8805 9.02002 19.0605" stroke="#2E353F" stroke-width="1.8" stroke-miterlimit="10"/>
</g>
</g>
</svg>
