<svg width="32" height="32" viewBox="0 0 32 32" fill="none" xmlns="http://www.w3.org/2000/svg">
<g id="Linear / Arrows / Square Double Alt Arrow Up">
<path id="Vector" d="M15.9998 29.3335C9.71444 29.3335 6.57175 29.3335 4.61913 27.3809C2.6665 25.4283 2.6665 22.2856 2.6665 16.0002C2.6665 9.71477 2.6665 6.57207 4.61912 4.61945C6.57175 2.66683 9.71444 2.66683 15.9998 2.66683C22.2852 2.66683 25.4279 2.66683 27.3805 4.61945C29.3332 6.57207 29.3332 9.71477 29.3332 16.0002C29.3332 22.2856 29.3332 25.4283 27.3805 27.3809C25.4279 29.3335 22.2852 29.3335 15.9998 29.3335Z" stroke="#22A06B" stroke-width="1.5"/>
<path id="Vector_2" d="M20.6665 20L16.6665 16L20.6665 12" stroke="#22A06B" stroke-width="1.5" stroke-linecap="round" stroke-linejoin="round"/>
<path id="Vector_3" d="M15.3335 20L11.3335 16L15.3335 12" stroke="#22A06B" stroke-width="1.5" stroke-linecap="round" stroke-linejoin="round"/>
</g>
</svg>
