<svg width="16" height="16" viewBox="0 0 16 16" fill="none" xmlns="http://www.w3.org/2000/svg">
<g id="elements">
<g id="Icon">
<path d="M14.2236 1.83096C12.7849 0.333688 10.4417 0.33369 9.00302 1.83096L8.40842 2.4498C8.16926 2.6987 8.17716 3.09435 8.42606 3.3335C8.67497 3.57266 9.07061 3.56476 9.30977 3.31586L9.90437 2.69702C10.8511 1.71167 12.3754 1.71167 13.3222 2.69702C14.2825 3.69644 14.2825 5.32675 13.3222 6.32616L10.6227 9.13566C10.473 9.29151 10.3099 9.42179 10.1381 9.52736C9.21471 10.0949 8.00532 9.96872 7.20489 9.13566C7.07468 9.00014 6.96226 8.85331 6.86749 8.69811C6.6876 8.40351 6.30295 8.31052 6.00836 8.49041C5.71376 8.6703 5.62077 9.05494 5.80066 9.34954C5.94193 9.5809 6.10961 9.79989 6.30353 10.0017C7.51562 11.2632 9.37372 11.4644 10.7927 10.5923C11.0549 10.4311 11.3009 10.234 11.5241 10.0017L14.2236 7.19222C15.6487 5.709 15.6487 3.31418 14.2236 1.83096Z" fill="#0C3F82"/>
<path d="M9.69794 5.99763C8.25929 4.50036 5.91602 4.50036 4.47737 5.99763L1.77785 8.80713C0.352695 10.2903 0.352696 12.6852 1.77785 14.1684C3.21651 15.6657 5.55977 15.6657 6.99843 14.1684L7.59324 13.5493C7.8324 13.3004 7.8245 12.9048 7.5756 12.6656C7.3267 12.4265 6.93105 12.4344 6.69189 12.6833L6.09708 13.3023C5.15029 14.2877 3.62598 14.2877 2.6792 13.3023C1.71891 12.3029 1.71891 10.6726 2.6792 9.67319L5.37872 6.86369C6.3255 5.87834 7.84981 5.87833 8.79659 6.86369C8.92677 6.99917 9.03916 7.14597 9.13392 7.30113C9.31383 7.59571 9.69848 7.68868 9.99307 7.50877C10.2877 7.32887 10.3806 6.94421 10.2007 6.64963C10.0595 6.41833 9.89182 6.1994 9.69794 5.99763Z" fill="#0C3F82"/>
</g>
</g>
</svg>
