<svg width="149" height="24" viewBox="0 0 149 24" fill="none" xmlns="http://www.w3.org/2000/svg">
<path d="M133.225 23.5556V0.297117H148.5V2.80442H136.24V10.4913H147.73V12.9986H136.24V21.0483H148.5V23.5556H133.225Z" fill="url(#paint0_linear_10560_24559)"/>
<path d="M120.669 23.8523C118.771 23.8523 117.062 23.6104 115.544 23.1265C114.025 22.6427 112.707 21.9609 111.591 21.0811L112.663 18.6398C113.444 19.2116 114.237 19.6955 115.041 20.0914C115.845 20.4653 116.705 20.7512 117.62 20.9491C118.558 21.1251 119.574 21.2131 120.669 21.2131C122.612 21.2131 124.041 20.8722 124.956 20.1904C125.894 19.4866 126.363 18.5628 126.363 17.4191C126.363 16.4294 126.04 15.6706 125.392 15.1428C124.744 14.6149 123.617 14.197 122.009 13.8891L118.424 13.1633C116.258 12.7234 114.639 12.0086 113.567 11.0189C112.518 10.0072 111.993 8.64358 111.993 6.92806C111.993 5.54245 112.361 4.33279 113.098 3.29908C113.858 2.24337 114.896 1.4296 116.214 0.857761C117.553 0.28592 119.117 0 120.903 0C122.556 0 124.086 0.241934 125.492 0.725799C126.899 1.20966 128.083 1.92446 129.043 2.8702L127.971 5.21254C126.966 4.31079 125.883 3.66198 124.722 3.26609C123.583 2.84821 122.288 2.63926 120.836 2.63926C119.072 2.63926 117.676 3.01316 116.649 3.76095C115.622 4.50874 115.108 5.52046 115.108 6.7961C115.108 7.80782 115.432 8.61059 116.08 9.20443C116.727 9.77627 117.799 10.2161 119.295 10.5241L122.88 11.2169C125.157 11.6567 126.821 12.3495 127.871 13.2953C128.943 14.241 129.479 15.5497 129.479 17.2212C129.479 18.5408 129.121 19.7065 128.407 20.7182C127.692 21.7079 126.676 22.4777 125.358 23.0276C124.041 23.5774 122.478 23.8523 120.669 23.8523Z" fill="url(#paint1_linear_10560_24559)"/>
<path d="M94.8418 23.5556V0.297117H97.9571V23.5556H94.8418Z" fill="url(#paint2_linear_10560_24559)"/>
<path d="M89.208 23.5556V0.297117H97.214C99.8491 0.297117 102.071 0.747991 103.88 1.64974C105.711 2.55149 107.096 3.87112 108.034 5.60863C108.972 7.32415 109.441 9.42457 109.441 11.9099C109.441 14.3952 108.972 16.5066 108.034 18.2441C107.096 19.9816 105.711 21.3012 103.88 22.203C102.071 23.1047 99.8491 23.5556 97.214 23.5556H89.208ZM92.3233 20.9493H96.9795C100.128 20.9493 102.462 20.2016 103.981 18.706C105.499 17.2104 106.258 14.945 106.258 11.9099C106.258 8.87472 105.499 6.62035 103.981 5.14676C102.462 3.65118 100.128 2.90339 96.9795 2.90339H92.3233V20.9493Z" fill="url(#paint3_linear_10560_24559)"/>
<path d="M62.736 23.5556L73.1873 0.297117H75.9007L86.5195 23.5556H83.3037L80.3894 16.9575L79.6832 15.2419H69.5647L68.8326 16.9575L65.9183 23.5556H62.736ZM74.4938 3.72816L69.2681 15.9347L68.4641 15.2419H80.6239L79.9874 15.9347L74.6278 3.72816H74.4938Z" fill="url(#paint4_linear_10560_24559)"/>
<path d="M16.6799 23.5556L27.1313 0.297117H29.8446L40.4635 23.5556H37.2477L34.3333 16.9575L33.6272 15.2419H23.5086L22.7766 16.9575L19.8622 23.5556H16.6799ZM28.4377 3.72816L23.212 15.9347L22.4081 15.2419H34.5678L33.9314 15.9347L28.5717 3.72816H28.4377Z" fill="url(#paint5_linear_10560_24559)"/>
<path d="M42.9193 23.5556V0.297117H52.7007C55.2242 0.297117 57.1671 0.879955 58.5293 2.04563C59.9139 3.2113 60.6062 4.83885 60.6062 6.92826C60.6062 8.31388 60.2935 9.49055 59.6682 10.4583C59.0429 11.426 58.1608 12.1628 57.0219 12.6687C55.9053 13.1745 54.5989 13.4274 53.1026 13.4274L53.6721 12.9656H54.4761C55.3917 12.9656 56.2068 13.1965 56.9214 13.6584C57.636 14.0983 58.2278 14.8241 58.6968 15.8358L62.0466 23.5556H58.5963L55.347 15.9018C54.9674 14.956 54.4091 14.3402 53.6721 14.0543C52.9575 13.7683 52.053 13.6254 50.9588 13.6254H46.0346V23.5556H42.9193ZM46.0346 11.2501H52.2317C53.9513 11.2501 55.2577 10.8872 56.151 10.1614C57.0666 9.43556 57.5244 8.37986 57.5244 6.99424C57.5244 5.63063 57.0666 4.59691 56.151 3.89311C55.2577 3.16731 53.9513 2.80442 52.2317 2.80442H46.0346V11.2501Z" fill="url(#paint6_linear_10560_24559)"/>
<path d="M0 23.5556V0.297117H9.78141C12.3049 0.297117 14.2366 0.890951 15.5766 2.07862C16.9165 3.26629 17.5864 4.90483 17.5864 6.99424C17.5864 9.08366 16.9165 10.7332 15.5766 11.9429C14.2366 13.1305 12.3049 13.7244 9.78141 13.7244H3.11531V23.5556H0ZM3.11531 11.2171H9.47992C11.1325 11.2171 12.3831 10.8542 13.2317 10.1284C14.0803 9.38058 14.5046 8.33587 14.5046 6.99424C14.5046 5.65262 14.0803 4.61891 13.2317 3.89311C12.3831 3.16731 11.1325 2.80442 9.47992 2.80442H3.11531V11.2171Z" fill="url(#paint7_linear_10560_24559)"/>
<defs>
<linearGradient id="paint0_linear_10560_24559" x1="21.9288" y1="11.9262" x2="123.109" y2="11.9262" gradientUnits="userSpaceOnUse">
<stop stop-color="#1C4F92"/>
<stop offset="1" stop-color="#1B5F5A"/>
</linearGradient>
<linearGradient id="paint1_linear_10560_24559" x1="21.9288" y1="11.9262" x2="123.109" y2="11.9262" gradientUnits="userSpaceOnUse">
<stop stop-color="#1C4F92"/>
<stop offset="1" stop-color="#1B5F5A"/>
</linearGradient>
<linearGradient id="paint2_linear_10560_24559" x1="21.9288" y1="11.9262" x2="123.109" y2="11.9262" gradientUnits="userSpaceOnUse">
<stop stop-color="#1C4F92"/>
<stop offset="1" stop-color="#1B5F5A"/>
</linearGradient>
<linearGradient id="paint3_linear_10560_24559" x1="21.9288" y1="11.9262" x2="123.109" y2="11.9262" gradientUnits="userSpaceOnUse">
<stop stop-color="#1C4F92"/>
<stop offset="1" stop-color="#1B5F5A"/>
</linearGradient>
<linearGradient id="paint4_linear_10560_24559" x1="21.9288" y1="11.9262" x2="123.109" y2="11.9262" gradientUnits="userSpaceOnUse">
<stop stop-color="#1C4F92"/>
<stop offset="1" stop-color="#1B5F5A"/>
</linearGradient>
<linearGradient id="paint5_linear_10560_24559" x1="21.9288" y1="11.9262" x2="123.109" y2="11.9262" gradientUnits="userSpaceOnUse">
<stop stop-color="#1C4F92"/>
<stop offset="1" stop-color="#1B5F5A"/>
</linearGradient>
<linearGradient id="paint6_linear_10560_24559" x1="21.9288" y1="11.9262" x2="123.109" y2="11.9262" gradientUnits="userSpaceOnUse">
<stop stop-color="#1C4F92"/>
<stop offset="1" stop-color="#1B5F5A"/>
</linearGradient>
<linearGradient id="paint7_linear_10560_24559" x1="21.9288" y1="11.9262" x2="123.109" y2="11.9262" gradientUnits="userSpaceOnUse">
<stop stop-color="#1C4F92"/>
<stop offset="1" stop-color="#1B5F5A"/>
</linearGradient>
</defs>
</svg>
