<svg width="32" height="32" viewBox="0 0 32 32" fill="none" xmlns="http://www.w3.org/2000/svg">
<g id="Pdf">
<path id="Union" fill-rule="evenodd" clip-rule="evenodd" d="M5.3335 4.6665C5.3335 3.56193 6.22893 2.6665 7.3335 2.6665H20.5051C21.0355 2.6665 21.5442 2.87722 21.9193 3.25229L26.081 7.41405C26.4561 7.78912 26.6668 8.29783 26.6668 8.82827V27.3332C26.6668 28.4377 25.7714 29.3332 24.6668 29.3332H7.3335C6.22893 29.3332 5.3335 28.4377 5.3335 27.3332V4.6665ZM25.3335 9.33317H20.6668C20.2986 9.33317 20.0002 9.03469 20.0002 8.6665V3.99984H7.3335C6.96531 3.99984 6.66683 4.29831 6.66683 4.6665V27.3332C6.66683 27.7014 6.96531 27.9998 7.3335 27.9998H24.6668C25.035 27.9998 25.3335 27.7014 25.3335 27.3332V9.33317Z" fill="#0C3F82"/>
<path id="BG" d="M5.3335 12.6665H26.6668V20.6665H5.3335V12.6665Z" fill="#18365F"/>
<g id="PDF">
<path d="M9.7002 19.3333V14.4849H11.703C12.066 14.4849 12.3793 14.5559 12.6429 14.6979C12.9081 14.8384 13.1124 15.0349 13.2561 15.2874C13.3997 15.5384 13.4715 15.8303 13.4715 16.1634C13.4715 16.498 13.3981 16.7907 13.2513 17.0417C13.1061 17.2911 12.8986 17.4844 12.6287 17.6217C12.3588 17.759 12.0384 17.8277 11.6675 17.8277H10.4317V16.9044H11.4497C11.6265 16.9044 11.7741 16.8736 11.8924 16.812C12.0124 16.7505 12.1031 16.6645 12.1647 16.554C12.2262 16.4419 12.257 16.3117 12.257 16.1634C12.257 16.0134 12.2262 15.884 12.1647 15.7751C12.1031 15.6646 12.0124 15.5794 11.8924 15.5194C11.7725 15.4595 11.6249 15.4295 11.4497 15.4295H10.8721V19.3333H9.7002Z" fill="white"/>
<path d="M15.8413 19.3333H14.0492V14.4849H15.8389C16.3329 14.4849 16.7583 14.5819 17.115 14.7761C17.4732 14.9686 17.7494 15.2464 17.9436 15.6094C18.1377 15.9708 18.2348 16.4033 18.2348 16.9067C18.2348 17.4118 18.1377 17.8458 17.9436 18.2088C17.751 18.5718 17.4756 18.8504 17.1173 19.0445C16.7591 19.2371 16.3337 19.3333 15.8413 19.3333ZM15.221 18.3343H15.7963C16.0678 18.3343 16.2974 18.2885 16.4852 18.197C16.6746 18.1039 16.8175 17.9531 16.9137 17.7448C17.0116 17.5349 17.0605 17.2555 17.0605 16.9067C17.0605 16.5579 17.0116 16.2802 16.9137 16.0734C16.8159 15.8651 16.6715 15.7151 16.4805 15.6236C16.2911 15.5305 16.0575 15.4839 15.7797 15.4839H15.221V18.3343Z" fill="white"/>
<path d="M18.9189 19.3333V14.4849H22.2286V15.4366H20.0908V16.4309H22.0179V17.385H20.0908V19.3333H18.9189Z" fill="white"/>
</g>
</g>
</svg>
