<svg width="24" height="25" viewBox="0 0 24 25" fill="none" xmlns="http://www.w3.org/2000/svg">
<g id="&#216;&#177;&#217;&#130;&#217;&#133; &#216;&#167;&#217;&#132;&#217;&#135;&#217;&#136;&#217;&#138;&#216;&#169;/icons6">
<path id="Vector" fill-rule="evenodd" clip-rule="evenodd" d="M8.75 8.5C8.75 6.70507 10.2051 5.25 12 5.25C13.7949 5.25 15.25 6.70507 15.25 8.5C15.25 10.2949 13.7949 11.75 12 11.75C10.2051 11.75 8.75 10.2949 8.75 8.5ZM14.8583 12.2941C16.0073 11.4271 16.75 10.0503 16.75 8.5C16.75 5.87665 14.6234 3.75 12 3.75C9.37665 3.75 7.25 5.87665 7.25 8.5C7.25 10.0503 7.99271 11.4271 9.14172 12.2941C6.27612 13.4317 4.25 16.2293 4.25 19.5V20.5C4.25 20.9142 4.58579 21.25 5 21.25C5.41421 21.25 5.75 20.9142 5.75 20.5V19.5C5.75 16.0482 8.54822 13.25 12 13.25C15.4518 13.25 18.25 16.0482 18.25 19.5V20.5C18.25 20.9142 18.5858 21.25 19 21.25C19.4142 21.25 19.75 20.9142 19.75 20.5V19.5C19.75 16.2293 17.7239 13.4317 14.8583 12.2941Z" fill="#292927"/>
</g>
</svg>
