<svg width="20" height="20" viewBox="0 0 20 20" fill="none" xmlns="http://www.w3.org/2000/svg">
<g id="Icon/Solid/plus">
<path id="Icon" fill-rule="evenodd" clip-rule="evenodd" d="M9.5 4C10.1075 4 10.6 4.49249 10.6 5.1V8.4L13.9 8.4C14.5075 8.4 15 8.89249 15 9.5C15 10.1075 14.5075 10.6 13.9 10.6H10.6V13.9C10.6 14.5075 10.1075 15 9.5 15C8.89249 15 8.4 14.5075 8.4 13.9V10.6H5.1C4.49249 10.6 4 10.1075 4 9.5C4 8.89249 4.49249 8.4 5.1 8.4H8.4V5.1C8.4 4.49249 8.89249 4 9.5 4Z" fill="#2E353F"/>
</g>
</svg>
