<svg width="24" height="25" viewBox="0 0 24 25" fill="none" xmlns="http://www.w3.org/2000/svg">
<path fill-rule="evenodd" clip-rule="evenodd" d="M14.948 2.18652H17.052C17.9505 2.1865 18.6997 2.18647 19.2945 2.26644C19.9223 2.35084 20.4891 2.53651 20.9445 2.99198C21.4 3.44745 21.5857 4.01425 21.6701 4.64205C21.7501 5.23683 21.75 5.98605 21.75 6.88453V22.1865H22C22.4142 22.1865 22.75 22.5223 22.75 22.9365C22.75 23.3507 22.4142 23.6865 22 23.6865H2C1.58579 23.6865 1.25 23.3507 1.25 22.9365C1.25 22.5223 1.58579 22.1865 2 22.1865H2.25L2.25 9.88453C2.24997 8.98605 2.24994 8.23683 2.32991 7.64205C2.41432 7.01425 2.59999 6.44745 3.05546 5.99198C3.51093 5.53651 4.07773 5.35084 4.70552 5.26644C5.3003 5.18647 6.04952 5.1865 6.948 5.18652L10.278 5.18653C10.3294 4.31235 10.4906 3.55684 11.0555 2.99198C11.5109 2.53651 12.0777 2.35084 12.7055 2.26644C13.3003 2.18647 14.0495 2.1865 14.948 2.18652ZM11.0068 6.68653C11.0055 6.68653 11.0043 6.68653 11.003 6.68653C11.002 6.68653 11.001 6.68653 11 6.68653H7C6.03599 6.68653 5.38843 6.68812 4.90539 6.75306C4.44393 6.8151 4.24643 6.92233 4.11612 7.05264C3.9858 7.18296 3.87858 7.38046 3.81654 7.84192C3.75159 8.32495 3.75 8.97251 3.75 9.93653V22.1865H8.25V19.9365C8.25 19.5223 8.58579 19.1865 9 19.1865C9.41421 19.1865 9.75 19.5223 9.75 19.9365V22.1865H14.25V9.93653C14.25 8.97251 14.2484 8.32495 14.1835 7.84192C14.1214 7.38046 14.0142 7.18296 13.8839 7.05264C13.7536 6.92233 13.5561 6.8151 13.0946 6.75306C12.6127 6.68827 11.9671 6.68653 11.0068 6.68653ZM15.75 22.1865L15.75 9.88453C15.75 8.98605 15.7501 8.23683 15.6701 7.64205C15.5857 7.01425 15.4 6.44745 14.9445 5.99198C14.4891 5.53651 13.9223 5.35084 13.2945 5.26644C12.8691 5.20925 12.3648 5.19297 11.7834 5.18835C11.8335 4.48871 11.9436 4.22515 12.1161 4.05264C12.2464 3.92233 12.4439 3.8151 12.9054 3.75306C13.3884 3.68812 14.036 3.68653 15 3.68653H17C17.964 3.68653 18.6116 3.68812 19.0946 3.75306C19.5561 3.8151 19.7536 3.92233 19.8839 4.05264C20.0142 4.18296 20.1214 4.38046 20.1835 4.84192C20.2484 5.32495 20.25 5.97251 20.25 6.93653V22.1865H15.75ZM5.25 8.93653C5.25 8.52231 5.58579 8.18653 6 8.18653H12C12.4142 8.18653 12.75 8.52231 12.75 8.93653C12.75 9.35074 12.4142 9.68653 12 9.68653H6C5.58579 9.68653 5.25 9.35074 5.25 8.93653ZM5.25 11.9365C5.25 11.5223 5.58579 11.1865 6 11.1865H12C12.4142 11.1865 12.75 11.5223 12.75 11.9365C12.75 12.3507 12.4142 12.6865 12 12.6865H6C5.58579 12.6865 5.25 12.3507 5.25 11.9365ZM5.25 14.9365C5.25 14.5223 5.58579 14.1865 6 14.1865H12C12.4142 14.1865 12.75 14.5223 12.75 14.9365C12.75 15.3507 12.4142 15.6865 12 15.6865H6C5.58579 15.6865 5.25 15.3507 5.25 14.9365Z" fill="#1C274C"/>
</svg>
