<svg width="24" height="25" viewBox="0 0 24 25" fill="none" xmlns="http://www.w3.org/2000/svg">
<path fill-rule="evenodd" clip-rule="evenodd" d="M2.93077 12.1202C3.00244 7.1596 7.07619 3.16992 12.0789 3.16992C15.3873 3.16992 18.287 4.9142 19.8934 7.52713C20.1103 7.88 20.0001 8.34191 19.6473 8.55884C19.2944 8.77577 18.8325 8.66558 18.6156 8.31271C17.2727 6.12837 14.8484 4.66992 12.0789 4.66992C7.8945 4.66992 4.50372 7.99762 4.431 12.1181L4.83138 11.7208C5.12542 11.4291 5.60029 11.431 5.89203 11.725C6.18377 12.0191 6.18191 12.4939 5.88787 12.7857L4.20805 14.4523C3.91565 14.7425 3.44398 14.7425 3.15157 14.4523L1.47176 12.7857C1.17772 12.4939 1.17585 12.0191 1.46759 11.725C1.75933 11.431 2.2342 11.4291 2.52824 11.7208L2.93077 12.1202ZM19.7864 11.3865C20.0786 11.0977 20.5487 11.0977 20.8409 11.3865L22.5271 13.0532C22.8217 13.3444 22.8245 13.8192 22.5333 14.1138C22.2421 14.4084 21.7673 14.4112 21.4727 14.12L21.0628 13.7149C20.9934 18.6803 16.9017 22.6699 11.8825 22.6699C8.56379 22.6699 5.65381 20.9269 4.0412 18.3138C3.82366 17.9613 3.93307 17.4992 4.28557 17.2817C4.63806 17.0641 5.10016 17.1735 5.31769 17.526C6.6656 19.7102 9.09999 21.1699 11.8825 21.1699C16.0887 21.1699 19.4922 17.837 19.5625 13.7168L19.1546 14.12C18.86 14.4112 18.3852 14.4084 18.094 14.1138C17.8028 13.8192 17.8056 13.3444 18.1002 13.0532L19.7864 11.3865Z" fill="#EAEAEA"/>
</svg>
