<svg width="24" height="25" viewBox="0 0 24 25" fill="none" xmlns="http://www.w3.org/2000/svg">
<g id="Icon">
<path id="Vector" fill-rule="evenodd" clip-rule="evenodd" d="M2.75 7.5C2.75 6.80964 3.30964 6.25 4 6.25H20C20.6904 6.25 21.25 6.80964 21.25 7.5V17.5C21.25 18.1904 20.6904 18.75 20 18.75H4C3.30964 18.75 2.75 18.1904 2.75 17.5V7.5ZM4 4.75C2.48122 4.75 1.25 5.98122 1.25 7.5V17.5C1.25 19.0188 2.48122 20.25 4 20.25H20C21.5188 20.25 22.75 19.0188 22.75 17.5V7.5C22.75 5.98122 21.5188 4.75 20 4.75H4ZM7.4301 8.88557C7.09076 8.64804 6.62312 8.73056 6.38558 9.0699C6.14804 9.40924 6.23057 9.87689 6.56991 10.1144L11.5699 13.6144C11.8281 13.7952 12.1719 13.7952 12.4301 13.6144L17.4301 10.1144C17.7694 9.87689 17.852 9.40924 17.6144 9.0699C17.3769 8.73056 16.9092 8.64804 16.5699 8.88557L12 12.0845L7.4301 8.88557Z" fill="#2E353F"/>
</g>
</svg>
