<svg width="23" height="25" viewBox="0 0 23 25" fill="none" xmlns="http://www.w3.org/2000/svg">
<mask id="mask0_11862_1854" style="mask-type:luminance" maskUnits="userSpaceOnUse" x="0" y="0" width="23" height="25">
<path fill-rule="evenodd" clip-rule="evenodd" d="M0.333496 0.333862H22.8325V24.5084H0.333496V0.333862Z" fill="white"/>
</mask>
<g mask="url(#mask0_11862_1854)">
<path fill-rule="evenodd" clip-rule="evenodd" d="M6.40238 18.3472C6.66955 18.3472 6.93671 18.381 7.19805 18.451C7.98671 18.6634 8.67155 19.1907 9.07755 19.8989C9.34121 20.3434 9.48705 20.8625 9.49171 21.3922C9.49171 22.1505 10.1007 22.7584 10.8497 22.7584H12.3115C13.057 22.7584 13.666 22.154 13.6695 21.4085C13.6649 20.5849 13.9869 19.802 14.576 19.2129C15.157 18.6319 15.969 18.283 16.781 18.3064C17.313 18.3192 17.8252 18.4627 18.2767 18.7194C18.9265 19.0915 19.756 18.8699 20.1317 18.2282L20.9064 16.9367C21.0791 16.6392 21.1292 16.2659 21.037 15.9217C20.946 15.5775 20.7174 15.2789 20.4094 15.1027C19.6884 14.6874 19.1739 14.0177 18.9604 13.215C18.7492 12.4275 18.8647 11.5677 19.2765 10.8595C19.5449 10.3929 19.938 9.9997 20.4094 9.72903C21.0417 9.3592 21.2634 8.53203 20.8959 7.88803C20.8807 7.86236 20.8667 7.83553 20.855 7.80753L20.1714 6.6222C19.7992 5.9747 18.9709 5.75186 18.321 6.1217C17.6187 6.53703 16.7834 6.65603 15.9807 6.44486C15.1792 6.2372 14.5072 5.7297 14.0884 5.01336C13.82 4.56536 13.6742 4.04386 13.6695 3.51303C13.68 3.11403 13.54 2.75586 13.2857 2.49336C13.0325 2.23203 12.6767 2.08386 12.3115 2.08386H10.8497C10.488 2.08386 10.1497 2.22503 9.89421 2.47936C9.63988 2.73486 9.50105 3.07436 9.50338 3.43603C9.47888 5.1417 8.08471 6.51486 6.39655 6.51486C5.85521 6.50903 5.33371 6.3632 4.88105 6.09253C4.24521 5.73086 3.41455 5.9537 3.04238 6.6012L2.25255 7.8997C1.89088 8.52736 2.11255 9.35686 2.75655 9.73136C3.71205 10.2844 4.30821 11.3157 4.30821 12.4217C4.30821 13.5277 3.71205 14.5579 2.75421 15.112C2.11371 15.483 1.89205 16.3079 2.26305 16.9495L2.99921 18.2189C3.18121 18.5467 3.47871 18.7835 3.82288 18.8804C4.16588 18.976 4.54388 18.9352 4.85888 18.7602C5.32205 18.4884 5.86105 18.3472 6.40238 18.3472ZM12.3115 24.5084H10.8497C9.13588 24.5084 7.74171 23.1154 7.74171 21.4015C7.73938 21.1904 7.67871 20.971 7.56555 20.7809C7.38238 20.4612 7.08605 20.2325 6.74421 20.1415C6.40471 20.0505 6.03255 20.1007 5.72688 20.278C4.99421 20.6864 4.13205 20.7855 3.34338 20.5639C2.55588 20.341 1.87571 19.7997 1.47671 19.0822L0.747548 17.8257C-0.105286 16.3464 0.402214 14.4505 1.87921 13.5965C2.29805 13.355 2.55821 12.9047 2.55821 12.4217C2.55821 11.9387 2.29805 11.4872 1.87921 11.2457C0.401048 10.387 -0.105286 8.48653 0.746381 7.00719L1.53738 5.7087C2.37855 4.2457 4.28021 3.73003 5.76305 4.5817C5.96488 4.70186 6.18421 4.76253 6.40705 4.76486C7.13388 4.76486 7.74171 4.1652 7.75338 3.42786C7.74871 2.6147 8.06955 1.8342 8.65405 1.24503C9.24088 0.657029 10.0202 0.333862 10.8497 0.333862H12.3115C13.1469 0.333862 13.9589 0.676862 14.541 1.27303C15.122 1.8727 15.4429 2.6952 15.4184 3.52936C15.4207 3.7172 15.4825 3.9342 15.5945 4.12436C15.78 4.43936 16.0729 4.66103 16.4205 4.75203C16.7682 4.83836 17.1322 4.7917 17.4414 4.60853C18.9347 3.7557 20.8352 4.2667 21.688 5.74836L22.4149 7.00719C22.4335 7.04103 22.4499 7.0737 22.4639 7.10753C23.2362 8.56703 22.7205 10.4045 21.2855 11.2434C21.0767 11.3635 20.9075 11.5315 20.7909 11.7345C20.6101 12.0484 20.5599 12.4217 20.6509 12.7647C20.7442 13.1147 20.9671 13.4052 21.2809 13.5849C21.989 13.992 22.5175 14.678 22.7287 15.4702C22.9399 16.2612 22.8244 17.1199 22.4125 17.828L21.6379 19.1184C20.785 20.5837 18.8845 21.0912 17.4064 20.2372C17.2092 20.124 16.9817 20.0622 16.7554 20.0564H16.7484C16.4112 20.0564 16.0647 20.1999 15.8127 20.4507C15.5572 20.7062 15.4172 21.0469 15.4195 21.4085C15.4114 23.1224 14.0172 24.5084 12.3115 24.5084Z" fill="#2E353F"/>
</g>
<path fill-rule="evenodd" clip-rule="evenodd" d="M11.5861 10.2203C10.3727 10.2203 9.38574 11.2085 9.38574 12.4218C9.38574 13.6352 10.3727 14.621 11.5861 14.621C12.7994 14.621 13.7864 13.6352 13.7864 12.4218C13.7864 11.2085 12.7994 10.2203 11.5861 10.2203ZM11.5861 16.371C9.40791 16.371 7.63574 14.6 7.63574 12.4218C7.63574 10.2437 9.40791 8.47034 11.5861 8.47034C13.7642 8.47034 15.5364 10.2437 15.5364 12.4218C15.5364 14.6 13.7642 16.371 11.5861 16.371Z" fill="#2E353F"/>
</svg>
