<svg width="24" height="24" viewBox="0 0 24 24" fill="none" xmlns="http://www.w3.org/2000/svg">
<g id="share-android">
<path id="Vector" d="M18 1.25C20.0711 1.25 21.75 2.92893 21.75 5C21.75 7.07107 20.0711 8.75 18 8.75C16.8994 8.75 15.9096 8.2757 15.2236 7.52051L9.54102 10.7686C9.6752 11.1545 9.75 11.5684 9.75 12C9.75 12.4313 9.67501 12.8448 9.54102 13.2305L15.2236 16.4785C15.9096 15.7236 16.8996 15.25 18 15.25C20.0711 15.25 21.75 16.9289 21.75 19C21.75 21.0711 20.0711 22.75 18 22.75C15.9289 22.75 14.25 21.0711 14.25 19C14.25 18.5685 14.3239 18.1544 14.458 17.7686L8.77539 14.5205C8.0894 15.2754 7.10039 15.75 6 15.75C3.92893 15.75 2.25 14.0711 2.25 12C2.25 9.92893 3.92893 8.25 6 8.25C7.10013 8.25 8.08942 8.72392 8.77539 9.47852L14.458 6.23047C14.3241 5.8449 14.25 5.43117 14.25 5C14.25 2.92893 15.9289 1.25 18 1.25ZM18 16.75C16.7574 16.75 15.75 17.7574 15.75 19C15.75 20.2426 16.7574 21.25 18 21.25C19.2426 21.25 20.25 20.2426 20.25 19C20.25 17.7574 19.2426 16.75 18 16.75ZM6 9.75C4.75736 9.75 3.75 10.7574 3.75 12C3.75 13.2426 4.75736 14.25 6 14.25C7.24264 14.25 8.25 13.2426 8.25 12C8.25 10.7574 7.24264 9.75 6 9.75ZM18 2.75C16.7574 2.75 15.75 3.75736 15.75 5C15.75 6.24264 16.7574 7.25 18 7.25C19.2426 7.25 20.25 6.24264 20.25 5C20.25 3.75736 19.2426 2.75 18 2.75Z" fill="#FAFAFA"/>
</g>
</svg>
