<svg width="24" height="25" viewBox="0 0 24 25" fill="none" xmlns="http://www.w3.org/2000/svg">
<g id="Outline / Electronic, Devices / Smartphone 2">
<path id="Vector (Stroke)" fill-rule="evenodd" clip-rule="evenodd" d="M11.9436 1.75H12.0564C13.8942 1.74998 15.3498 1.74997 16.489 1.90314C17.6614 2.06076 18.6104 2.39288 19.3588 3.14124C20.1071 3.88961 20.4392 4.83856 20.5969 6.01098C20.75 7.15019 20.75 8.60583 20.75 10.4436V14.5564C20.75 16.3942 20.75 17.8498 20.5969 18.989C20.4392 20.1614 20.1071 21.1104 19.3588 21.8588C18.6104 22.6071 17.6614 22.9392 16.489 23.0969C15.3498 23.25 13.8942 23.25 12.0564 23.25H11.9436C10.1058 23.25 8.65019 23.25 7.51098 23.0969C6.33856 22.9392 5.38961 22.6071 4.64124 21.8588C3.89288 21.1104 3.56076 20.1614 3.40314 18.989C3.24997 17.8498 3.24998 16.3942 3.25 14.5564V10.4436C3.24998 8.60582 3.24997 7.15019 3.40314 6.01098C3.56076 4.83856 3.89288 3.88961 4.64124 3.14124C5.38961 2.39288 6.33856 2.06076 7.51098 1.90314C8.65019 1.74997 10.1058 1.74998 11.9436 1.75ZM7.71085 3.38976C6.70476 3.52502 6.12511 3.77869 5.7019 4.2019C5.27869 4.62511 5.02502 5.20476 4.88976 6.21085C4.75159 7.23851 4.75 8.59318 4.75 10.5V14.5C4.75 16.4068 4.75159 17.7615 4.88976 18.7892C5.02502 19.7952 5.27869 20.3749 5.7019 20.7981C6.12511 21.2213 6.70476 21.475 7.71085 21.6102C8.73851 21.7484 10.0932 21.75 12 21.75C13.9068 21.75 15.2615 21.7484 16.2892 21.6102C17.2952 21.475 17.8749 21.2213 18.2981 20.7981C18.7213 20.3749 18.975 19.7952 19.1102 18.7892C19.2484 17.7615 19.25 16.4068 19.25 14.5V10.5C19.25 8.59318 19.2484 7.23851 19.1102 6.21085C18.975 5.20476 18.7213 4.62511 18.2981 4.2019C17.8749 3.77869 17.2952 3.52502 16.2892 3.38976C15.2615 3.25159 13.9068 3.25 12 3.25C10.0932 3.25 8.73851 3.25159 7.71085 3.38976ZM8.25 5.5C8.25 5.08579 8.58579 4.75 9 4.75H15C15.4142 4.75 15.75 5.08579 15.75 5.5C15.75 5.91421 15.4142 6.25 15 6.25H9C8.58579 6.25 8.25 5.91421 8.25 5.5ZM12 16.25C11.3096 16.25 10.75 16.8096 10.75 17.5C10.75 18.1904 11.3096 18.75 12 18.75C12.6904 18.75 13.25 18.1904 13.25 17.5C13.25 16.8096 12.6904 16.25 12 16.25ZM9.25 17.5C9.25 15.9812 10.4812 14.75 12 14.75C13.5188 14.75 14.75 15.9812 14.75 17.5C14.75 19.0188 13.5188 20.25 12 20.25C10.4812 20.25 9.25 19.0188 9.25 17.5Z" fill="#22A06B"/>
</g>
</svg>
