<svg width="32" height="32" viewBox="0 0 32 32" fill="none" xmlns="http://www.w3.org/2000/svg">
<g id="Linear / Arrows / Square Double Alt Arrow Up">
<path id="Vector" d="M2.6665 15.9998C2.6665 9.71444 2.6665 6.57175 4.61913 4.61913C6.57175 2.6665 9.71444 2.6665 15.9998 2.6665C22.2852 2.6665 25.4279 2.6665 27.3805 4.61913C29.3332 6.57175 29.3332 9.71444 29.3332 15.9998C29.3332 22.2852 29.3332 25.4279 27.3805 27.3805C25.4279 29.3332 22.2852 29.3332 15.9998 29.3332C9.71444 29.3332 6.57175 29.3332 4.61913 27.3805C2.6665 25.4279 2.6665 22.2852 2.6665 15.9998Z" stroke="#22A06B" stroke-width="1.5"/>
<path id="Vector_2" d="M12 20.6665L16 16.6665L20 20.6665" stroke="#22A06B" stroke-width="1.5" stroke-linecap="round" stroke-linejoin="round"/>
<path id="Vector_3" d="M12 15.3335L16 11.3335L20 15.3335" stroke="#22A06B" stroke-width="1.5" stroke-linecap="round" stroke-linejoin="round"/>
</g>
</svg>
