<svg width="24" height="25" viewBox="0 0 24 25" fill="none" xmlns="http://www.w3.org/2000/svg">
<g id="Outline / Users / User Hand Up">
<g id="Vector">
<path fill-rule="evenodd" clip-rule="evenodd" d="M12.0002 1.75C9.37683 1.75 7.25018 3.87665 7.25018 6.5C7.25018 9.12335 9.37683 11.25 12.0002 11.25C14.6235 11.25 16.7502 9.12335 16.7502 6.5C16.7502 3.87665 14.6235 1.75 12.0002 1.75ZM8.75018 6.5C8.75018 4.70507 10.2053 3.25 12.0002 3.25C13.7951 3.25 15.2502 4.70507 15.2502 6.5C15.2502 8.29493 13.7951 9.75 12.0002 9.75C10.2053 9.75 8.75018 8.29493 8.75018 6.5Z" fill="#22A06B"/>
<path fill-rule="evenodd" clip-rule="evenodd" d="M2.72778 6.3181C2.62732 5.91625 2.22012 5.67193 1.81828 5.77239C1.41643 5.87285 1.17211 6.28006 1.27257 6.6819L1.65454 8.20977C2.3593 11.0288 4.49604 13.2496 7.25018 14.0787L7.25018 18.552C7.25015 19.4505 7.25012 20.1997 7.33009 20.7945C7.41449 21.4223 7.60016 21.9891 8.05563 22.4445C8.5111 22.9 9.0779 23.0857 9.7057 23.1701C10.3005 23.2501 11.0497 23.25 11.9482 23.25H12.0522C12.9507 23.25 13.6999 23.2501 14.2947 23.1701C14.9225 23.0857 15.4892 22.9 15.9447 22.4445C16.4002 21.9891 16.5859 21.4223 16.6703 20.7945C16.7502 20.1997 16.7502 19.4505 16.7502 18.552L16.7502 14.359C17.7313 14.6515 18.4808 15.5039 18.6058 16.5671L19.2553 22.0876C19.3037 22.499 19.6764 22.7933 20.0878 22.7449C20.4992 22.6965 20.7934 22.3237 20.745 21.9124L20.0956 16.3918C19.8512 14.3151 18.0912 12.75 16.0002 12.75H8.0847C5.64125 12.1764 3.71957 10.2852 3.10975 7.84596L2.72778 6.3181ZM8.75018 18.5V14.25H15.2502V18.5C15.2502 19.464 15.2486 20.1116 15.1836 20.5946C15.1216 21.0561 15.0144 21.2536 14.8841 21.3839C14.7537 21.5142 14.5562 21.6214 14.0948 21.6835C13.6117 21.7484 12.9642 21.75 12.0002 21.75C11.0362 21.75 10.3886 21.7484 9.90557 21.6835C9.44411 21.6214 9.24661 21.5142 9.11629 21.3839C8.98598 21.2536 8.87875 21.0561 8.81671 20.5946C8.75177 20.1116 8.75018 19.464 8.75018 18.5Z" fill="#22A06B"/>
</g>
</g>
</svg>
