<svg width="54" height="52" viewBox="0 0 54 52" fill="none" xmlns="http://www.w3.org/2000/svg">
<path d="M6.45428 47.9951L5.82766 50.2794H5.77936L5.18311 48.1566H4.53579L3.94092 50.2794H3.89123L3.24529 47.9951H2.69873L3.44956 50.641H4.27631L4.84634 48.6176H4.87394L5.44396 50.641H6.27071L7.02016 47.9951H6.45428Z" fill="#18365F"/>
<path d="M8.00137 47.9951L6.89307 50.641H7.45895L7.69497 50.0144H9.16627L9.40229 50.641H9.96817L8.88057 47.9951H8.00137ZM7.84679 49.7093L8.41682 48.3084H8.44442L9.01445 49.7093H7.84541H7.84679Z" fill="#18365F"/>
<path d="M9.73633 48.2587H10.7715V50.641H11.3167V48.2587H12.3504V47.9951H9.73633V48.2587Z" fill="#18365F"/>
<path d="M14.7825 49.1918H13.2063V47.9951H12.6611V50.641H13.2063V49.4982H14.7825V50.641H15.3277V47.9951H14.7825V49.1918Z" fill="#18365F"/>
<path d="M16.4153 47.9951H15.8701V50.641H16.4153V47.9951Z" fill="#18365F"/>
<path d="M19.5179 48.2591C19.366 48.1528 19.2101 48.052 19.0279 47.9982C18.8457 47.9444 18.6387 47.8975 18.4068 47.8975C18.1749 47.8975 17.9679 47.9444 17.7843 47.9982C17.5814 48.052 17.4241 48.1528 17.2943 48.2591C17.1646 48.4081 17.0611 48.5199 16.9838 48.7201C16.9079 48.8788 16.8789 49.0858 16.8789 49.3384C16.8789 49.5496 16.9065 49.7566 16.9838 49.9153C17.0611 50.1168 17.1646 50.27 17.2943 50.3763C17.4241 50.4826 17.5814 50.5833 17.7843 50.6372C17.9665 50.691 18.1749 50.7379 18.4068 50.7379C18.5876 50.7379 18.7449 50.7338 18.9009 50.6855L19.2377 51.0512L19.5192 50.7945L19.2639 50.5337C19.4709 50.4288 19.649 50.2728 19.7553 50.0658C19.8822 49.8587 19.9347 49.602 19.9347 49.337C19.9347 49.072 19.8864 48.8774 19.8298 48.7187C19.7525 48.5186 19.649 48.4054 19.5192 48.2577M19.2598 49.8643C19.1852 50.0188 19.1079 50.1679 19.0044 50.2273L18.7215 49.9167L18.4606 50.1734L18.6704 50.4301C18.5917 50.4343 18.5117 50.4785 18.4082 50.4785C18.2784 50.4785 18.1515 50.4329 18.0452 50.3818C17.9196 50.3308 17.8368 50.2756 17.7374 50.1748C17.6587 50.1155 17.6035 49.9664 17.5524 49.8132C17.5014 49.7014 17.4752 49.5026 17.4752 49.3384C17.4752 49.1327 17.5014 48.934 17.5524 48.8222C17.6035 48.669 17.6587 48.5627 17.7374 48.4606C17.8368 48.3585 17.9182 48.3032 18.0452 48.2536C18.1515 48.2039 18.2784 48.1569 18.4082 48.1569C18.5379 48.1569 18.6663 48.2039 18.7712 48.2536C18.8774 48.3046 18.9796 48.3598 19.0583 48.4606C19.1576 48.5627 19.2128 48.669 19.2639 48.8222C19.315 48.934 19.3412 49.1327 19.3412 49.3384C19.3412 49.544 19.315 49.7083 19.2611 49.8643" fill="#18365F"/>
<path d="M35.0245 33.5527L33.625 32.1587L32.231 33.5527L33.625 34.9522L35.0245 33.5527Z" fill="#18365F"/>
<path d="M36.5772 31.539L35.226 30.145L33.7837 31.539L35.226 32.9386L36.5772 31.539Z" fill="#18365F"/>
<path d="M36.7843 34.9522L38.1783 33.5527L36.7843 32.1587L35.3848 33.5527L36.7843 34.9522Z" fill="#18365F"/>
<path d="M24.8259 47.4805L23.4526 48.8745L24.8259 50.2257L26.2462 48.8745L24.8259 47.4805Z" fill="#18365F"/>
<path d="M26.4067 48.8731L27.7787 50.2257L29.221 48.8731L27.7787 47.4805L26.4067 48.8731Z" fill="#18365F"/>
<path d="M16.6208 33.5582L15.2268 32.1587L13.8535 33.5582L15.2268 34.9522L16.6208 33.5582Z" fill="#18365F"/>
<path d="M19.6005 33.5582L18.2009 32.1587L16.8276 33.5582L18.2009 34.9522L19.6005 33.5582Z" fill="#18365F"/>
<path d="M37.7118 38.0592V45.1466C37.7118 45.199 37.7118 45.2528 37.7132 45.3053H32.6975V36.5589L30.4712 37.7459V45.1466C30.4712 45.199 30.4712 45.2528 30.5154 45.3053H22.1624V41.0584C22.1624 37.8577 19.7553 35.8315 16.7285 35.8315C13.7017 35.8315 11.3415 37.8577 11.3415 41.0584C11.3415 41.1108 11.3415 41.1619 11.3415 41.2144C11.3415 41.2668 11.3415 41.3192 11.3415 41.3717C11.3415 43.0307 12.0137 44.3764 13.0544 45.3053H5.90766C4.84766 45.3053 2.70005 44.6856 2.70005 41.0584V37.2311L0.5 38.4181V41.3717C0.5 44.531 2.90708 46.5985 5.90766 46.5985H19.2888L20.0893 45.7249C20.3225 46.2383 20.8429 46.5985 21.4088 46.5985H29.7991L30.6258 45.7249C30.8798 46.2383 31.4001 46.5985 31.966 46.5985H37.0452L37.8664 45.7249C38.0789 46.2383 38.5979 46.5985 39.1652 46.5985H39.9395V36.5575L37.7132 37.7445V38.0578L37.7118 38.0592ZM16.7271 45.3067C15.6906 45.3067 13.5954 44.6897 13.5416 41.2185V41.2157C13.5416 41.1647 13.5416 41.1122 13.5416 41.0612C13.5416 37.3926 15.6685 36.7728 16.7285 36.7728C17.7885 36.7728 19.9361 37.3926 19.9361 41.0612V45.1479C19.9361 45.2004 19.9361 45.2542 19.9375 45.3067H16.7285H16.7271Z" fill="#18365F"/>
<path d="M48.1131 35.8328C45.0656 35.8328 42.6792 37.9004 42.6792 41.0597C42.6792 41.1121 42.6792 41.1646 42.6792 41.2157C42.6792 41.2681 42.6792 41.3192 42.6792 41.3716C42.6792 44.5309 45.0656 46.5985 48.1131 46.5985H50.5464L51.2779 45.82C51.1744 48.931 49.4629 49.7522 48.3753 49.8558C48.3753 49.8558 48.3753 49.8558 48.3739 49.8558C48.2773 49.8571 48.218 49.8585 48.1145 49.8585C47.9668 49.8585 47.8605 49.8585 47.8025 49.8585L48.9467 51.051C51.5871 50.6908 53.5 48.7185 53.5 45.8711V41.0569C53.5 37.8976 51.1137 35.8301 48.1131 35.8301M51.2779 45.3066H48.1131C47.0296 45.3066 44.9607 44.6896 44.9069 41.2184V41.2157C44.9069 41.1646 44.9069 41.1121 44.9069 41.0611C44.9069 37.3925 47.0269 36.7728 48.1145 36.7728C49.2021 36.7728 51.2793 37.3925 51.2793 41.0611V45.308L51.2779 45.3066Z" fill="#18365F"/>
<path d="M16.7505 2.39746V23.6982L19.3908 23.0771L30.4159 20.4658L23.4045 18.4465L21.7993 17.9814L21.8504 3.84668L32.0239 5.89491V22.4823L31.0384 22.739L16.7505 26.1053L37.248 25.2482V0.949623V0.948242L16.7505 2.39746Z" fill="#66699E"/>
</svg>
