<svg width="25" height="24" viewBox="0 0 25 24" fill="none" xmlns="http://www.w3.org/2000/svg">
<g id="whatsapp">
<path id="border" fill-rule="evenodd" clip-rule="evenodd" d="M12.0156 22.5C17.8146 22.5 22.5156 17.799 22.5156 12C22.5156 6.20101 17.8146 1.5 12.0156 1.5C6.21663 1.5 1.51562 6.20101 1.51562 12C1.51562 13.8832 2.01137 15.6505 2.87948 17.1787L1.51562 22.5L7.00177 21.2278C8.49166 22.0391 10.1998 22.5 12.0156 22.5ZM12.0156 20.8846C16.9225 20.8846 20.9002 16.9068 20.9002 12C20.9002 7.09316 16.9225 3.11538 12.0156 3.11538C7.10879 3.11538 3.13101 7.09316 3.13101 12C3.13101 13.8945 3.724 15.6506 4.7345 17.0927L3.9387 20.0769L6.97557 19.3177C8.40765 20.3059 10.1441 20.8846 12.0156 20.8846Z" fill="#FAFAFA"/>
<path id="phone" d="M9.39064 7.12504C9.14099 6.6236 8.75802 6.668 8.37113 6.668C7.6797 6.668 6.60156 7.49621 6.60156 9.03759C6.60156 10.3008 7.15821 11.6836 9.03394 13.7522C10.8442 15.7485 13.2227 16.7812 15.1973 16.7461C17.1719 16.7109 17.5781 15.0117 17.5781 14.4379C17.5781 14.1835 17.4203 14.0566 17.3116 14.0221C16.6387 13.6992 15.3976 13.0975 15.1152 12.9844C14.8329 12.8714 14.6854 13.0243 14.5938 13.1075C14.3377 13.3515 13.8301 14.0707 13.6563 14.2325C13.4825 14.3942 13.2233 14.3124 13.1155 14.2512C12.7187 14.092 11.6428 13.6134 10.7852 12.7821C9.72462 11.754 9.66237 11.4002 9.46255 11.0854C9.30269 10.8335 9.42 10.6789 9.47853 10.6114C9.70705 10.3477 10.0226 9.94061 10.1641 9.73832C10.3056 9.53602 10.1932 9.22889 10.1258 9.03759C9.83595 8.21488 9.59036 7.52618 9.39064 7.12504Z" fill="#FAFAFA"/>
</g>
</svg>
