<svg width="18" height="16" viewBox="0 0 18 16" fill="none" xmlns="http://www.w3.org/2000/svg">
<path d="M6.91585 10.2917L17.3325 10.2917C17.6742 10.2917 17.9575 10.575 17.9575 10.9167C17.9575 11.2584 17.6742 11.5417 17.3325 11.5417L6.91585 11.5417C6.57419 11.5417 6.29085 11.2584 6.29085 10.9167C6.29085 10.575 6.57419 10.2917 6.91585 10.2917ZM12.3325 3.62502L13.9992 3.62502C14.3409 3.62502 14.6242 3.90835 14.6242 4.25002C14.6242 4.59169 14.3409 4.87502 13.9992 4.87502L12.3325 4.87502C11.9909 4.87502 11.7075 4.59169 11.7075 4.25002C11.7075 3.90835 11.9909 3.62502 12.3325 3.62502ZM6.91585 3.62502L10.2492 3.62502C10.5909 3.62502 10.8742 3.90835 10.8742 4.25002C10.8742 4.59169 10.5909 4.87502 10.2492 4.87502L6.91585 4.87502C6.57419 4.87502 6.29085 4.59169 6.29085 4.25002C6.29085 3.90835 6.57419 3.62502 6.91585 3.62502Z" fill="#E34935"/>
<path d="M4.36585 0.291677L13.6325 0.291678C16.9492 0.291678 17.9575 1.29168 17.9575 4.57501L17.9575 11.425C17.9575 14.7083 16.9492 15.7083 13.6325 15.7083L6.91585 15.7083C6.57419 15.7083 6.29085 15.425 6.29085 15.0833C6.29085 14.7417 6.57419 14.4583 6.91585 14.4583L13.6325 14.4583C16.2492 14.4583 16.7075 14.0083 16.7075 11.425L16.7075 4.58334C16.7075 2.00001 16.2492 1.55001 13.6325 1.55001L4.37419 1.55001C1.75752 1.55001 1.29919 2.00001 1.29919 4.58334L1.29919 6.31668C1.29919 6.65834 1.01585 6.94168 0.674186 6.94168C0.33252 6.94168 0.0491856 6.65834 0.0491856 6.31668L0.0491858 4.58334C0.0408529 1.29168 1.04919 0.291677 4.36585 0.291677Z" fill="#E34935"/>
<path d="M2.33252 9.45834C2.49808 9.459 2.65667 9.52506 2.77373 9.64213C2.8908 9.7592 2.95686 9.91779 2.95752 10.0833L2.95752 15.0833C2.95752 15.425 2.67419 15.7083 2.33252 15.7083C1.99085 15.7083 1.70752 15.425 1.70752 15.0833L1.70752 11.5917L1.10752 12.1917C0.865853 12.4333 0.465852 12.4333 0.224185 12.1917C-0.0174815 11.95 -0.0174814 11.55 0.224185 11.3083L1.89085 9.64168C2.00795 9.52443 2.16682 9.45849 2.33252 9.45834Z" fill="#E34935"/>
<path d="M2.33249 9.45834C2.49082 9.45834 2.64915 9.51667 2.77415 9.64167L4.44082 11.3083C4.68249 11.55 4.68249 11.95 4.44082 12.1917C4.19915 12.4333 3.79915 12.4333 3.55749 12.1917L1.89082 10.525C1.64915 10.2833 1.64915 9.88334 1.89082 9.64167C2.01582 9.51667 2.17415 9.45834 2.33249 9.45834Z" fill="#E34935"/>
</svg>
