<svg width="32" height="32" viewBox="0 0 32 32" fill="none" xmlns="http://www.w3.org/2000/svg">
<g id="youtube">
<path id="bg" d="M16 7C18.2964 7 21.1643 7.09534 23.6641 7.20312L26.0059 7.3125C27.3918 7.38116 28.5141 8.39934 28.7275 9.73438L28.7578 10.0059C28.8807 11.8975 29 14.2036 29 16C29 17.3472 28.9331 18.981 28.8477 20.5117L28.7578 21.9941C28.6685 23.3688 27.6273 24.4687 26.2793 24.6611L26.0059 24.6875C23.1394 24.8295 19.0617 25 16 25C13.7036 25 10.8357 24.9047 8.33594 24.7969L5.99414 24.6875C4.60821 24.6188 3.48592 23.6007 3.27246 22.2656L3.24219 21.9941C3.11932 20.1025 3 17.7964 3 16C3 14.6528 3.0669 13.019 3.15234 11.4883L3.24219 10.0059C3.3315 8.63119 4.37265 7.53132 5.7207 7.33887L5.99414 7.3125C8.86063 7.17049 12.9383 7 16 7Z" stroke="#2E353F" stroke-width="2"/>
<path id="play" d="M13 13.618V18.382C13 19.1253 13.7823 19.6088 14.4472 19.2764L19.2111 16.8944C19.9482 16.5259 19.9482 15.4741 19.2111 15.1056L14.4472 12.7236C13.7823 12.3912 13 12.8747 13 13.618Z" fill="#2E353F"/>
</g>
</svg>
